<?xml version="1.0" encoding="UTF-8"?>
<svg width="153px" height="140px" viewBox="0 0 153 140" version="1.1" xmlns="http://www.w3.org/2000/svg" xmlns:xlink="http://www.w3.org/1999/xlink">
    <!-- Generator: Sketch 50.2 (55047) - http://www.bohemiancoding.com/sketch -->
    <title>Group 5</title>
    <desc>Created with Sketch.</desc>
    <defs></defs>
    <g id="Final-Circuit-Breaker" stroke="none" stroke-width="1" fill="none" fill-rule="evenodd">
        <g id="CB2---Active-button" transform="translate(-731.000000, -195.000000)">
            <g id="Group-5" transform="translate(731.000000, 195.000000)">
                <g id="Group-4" opacity="0.7515625">
                    <circle id="Oval" fill="#DEEDF7" cx="68" cy="70" r="66"></circle>
                    <path d="M114.304357,114.13125 L95.4452857,94.7175 C111.445929,77.13125 118.833643,52.36625 115.597571,27.36125 C125.266929,38.785 131.142857,53.695 131.142857,70 C131.142857,87.0225 124.744786,102.53125 114.304357,114.13125 Z M26.5916429,119.00875 C30.3814286,119.52875 34.1955,119.795 37.9792143,119.795 L37.9804286,119.795 C58.5212857,119.795 77.5977143,112.14625 91.9967143,98.2375 L110.870357,117.66625 C99.6017857,128.41375 84.5373571,135 68,135 C52.1657143,135 37.6865714,128.955 26.5916429,119.00875 Z M4.85714286,70 C4.85714286,52.9775 11.2564286,37.47 21.6956429,25.87 L40.5559286,45.28375 C24.5540714,62.86875 17.1675714,87.635 20.4024286,112.64 C10.7330714,101.21625 4.85714286,86.305 4.85714286,70 Z M109.409571,20.9925 C105.622214,20.47125 101.808143,20.20625 98.0268571,20.20625 C77.4799286,20.20625 58.4035,27.855 44.0032857,41.7625 L25.1296429,22.33375 C36.3994286,11.5875 51.4626429,5 68,5 C83.8342857,5 98.3146429,11.045 109.409571,20.9925 Z M68,73.535 L88.5627143,94.7025 C75.0780714,107.66875 57.2232143,114.795 37.9792143,114.795 C34.8269286,114.795 31.6479286,114.59875 28.4835,114.21375 L68,73.535 Z M47.4385,45.3 C60.9207143,32.33375 78.7792143,25.20625 98.0268571,25.20625 C101.177929,25.20625 104.353286,25.40375 107.5165,25.78625 L68,66.465 L47.4385,45.3 Z M44.013,48.84375 L64.566,70 L25.0701429,110.65875 C22.3635,87.38375 29.1355714,65.215 44.013,48.84375 Z M91.987,91.1575 L71.434,70 L110.931071,29.3425 C113.6365,52.6175 106.864429,74.785 91.987,91.1575 Z M68,0 C30.4421429,0 0,31.33875 0,70 C0,108.6625 30.4421429,140 68,140 C105.557857,140 136,108.6625 136,70 C136,31.33875 105.557857,0 68,0 Z" id="Fill-1" fill="#657192"></path>
                    <ellipse id="Oval-2" fill="#657192" cx="128" cy="115.5" rx="25" ry="24.5"></ellipse>
                </g>
                <path d="M141,121.536869 C141,122.985777 140.743786,124.262176 140.231351,125.366106 C139.718915,126.470036 139.004877,127.405775 138.089214,128.173351 C137.173551,128.940927 136.073091,129.536005 134.787802,129.958603 C133.502514,130.381201 132.095438,130.644243 130.566532,130.747736 L130.566532,136 L126.685484,136 L126.685484,130.799483 C125.274186,130.713238 124.014118,130.493318 122.905242,130.139715 C121.796365,129.786113 120.805112,129.337648 119.931452,128.794308 C119.057791,128.250968 118.301751,127.634329 117.663306,126.944373 C117.024862,126.254417 116.470432,125.529974 116,124.771022 L120.334677,121.899094 C120.620297,122.347566 120.968916,122.800343 121.380544,123.257439 C121.792173,123.714534 122.262598,124.141438 122.791835,124.538163 C123.321071,124.934888 123.909103,125.275548 124.555948,125.560155 C125.202792,125.844762 125.912631,126.021561 126.685484,126.090556 L126.685484,116.491591 C125.005368,116.077618 123.539489,115.624841 122.287802,115.133247 C121.036116,114.641653 119.99446,114.0552 119.162802,113.373868 C118.331145,112.692536 117.709511,111.877538 117.297883,110.928849 C116.886255,109.980159 116.680444,108.850373 116.680444,107.539457 C116.680444,106.280287 116.898855,105.137564 117.335685,104.111255 C117.772516,103.084945 118.41515,102.192328 119.263609,101.433376 C120.112067,100.674425 121.157924,100.062098 122.40121,99.5963777 C123.644495,99.1306574 125.072573,98.8460549 126.685484,98.7425614 L126.685484,96 L130.566532,96 L130.566532,98.7425614 C131.84342,98.828806 132.998483,99.0357897 134.031754,99.3635188 C135.065025,99.6912479 135.993275,100.109527 136.816532,100.61837 C137.639789,101.127213 138.366428,101.722291 138.996472,102.403622 C139.626515,103.084954 140.168345,103.813709 140.621976,104.589909 L136.438508,107.435964 C136.136087,106.970243 135.795869,106.517467 135.417843,106.07762 C135.039817,105.637773 134.611394,105.236742 134.13256,104.874515 C133.653727,104.512288 133.120299,104.210437 132.532258,103.968952 C131.944217,103.727468 131.288982,103.563605 130.566532,103.477361 L130.566532,112.170763 C132.061835,112.550239 133.44791,112.972831 134.724798,113.438551 C136.001686,113.904271 137.106346,114.490725 138.03881,115.19793 C138.971275,115.905135 139.697914,116.767567 140.21875,117.785252 C140.739586,118.802937 141,120.053464 141,121.536869 Z M126.685484,103.425614 C125.206982,103.529108 124.089722,103.91289 123.333669,104.576973 C122.577617,105.241055 122.199597,106.142297 122.199597,107.280724 C122.199597,108.263912 122.586018,109.048725 123.358871,109.635188 C124.131724,110.22165 125.240584,110.730485 126.685484,111.161708 L126.685484,103.425614 Z M135.480847,121.950841 C135.480847,120.86416 135.098626,119.975855 134.334173,119.285899 C133.569721,118.595943 132.313853,117.983616 130.566532,117.4489 L130.566532,126.142303 C131.25538,126.073307 131.898014,125.935318 132.494456,125.728331 C133.090897,125.521344 133.611725,125.241054 134.056956,124.887451 C134.502186,124.533849 134.850805,124.111257 135.102823,123.619664 C135.35484,123.12807 135.480847,122.571801 135.480847,121.950841 Z" id="$" fill="#FBFBFE"></path>
            </g>
        </g>
    </g>
</svg>