<svg xmlns="http://www.w3.org/2000/svg" width="393.938" height="84.592" viewBox="0 0 104.22947 22.381632"><g style="line-height:1.25;-inkscape-font-specification:'Bunuelo Clean Pro'" font-weight="400" font-size="23.989" font-family="Bunuelo Clean Pro" letter-spacing="0" word-spacing="0" stroke-width=".265" fill="#fff"><path d="M0 12.882c0 3.047 1.44 4.27 4.558 4.27 2.23 0 3.454-.432 3.454-.432.12-.048.192-.12.216-.216l.048-.527c0-.12-.024-.216-.192-.168 0 0-1.391.431-3.502.431-2.567 0-3.574-.96-3.574-3.358v-8.66C1.008 1.823 2.23.84 4.87.84c1.75 0 3.118.383 3.118.383.168.024.192-.024.192-.143L8.108.552c0-.12-.048-.168-.192-.216C7.916.336 6.67 0 4.87 0 1.655 0 0 1.2 0 4.246zM11.29 13.578c0 2.974 1.775 3.646 4.125 3.646h.192c2.375 0 4.222-.672 4.222-3.646V8.42c0-2.999-1.775-3.646-4.126-3.646h-.192c-2.374 0-4.222.647-4.222 3.646zm4.125 2.758c-1.895 0-3.142-.551-3.142-2.83V8.42c0-2.255 1.343-2.807 3.238-2.807h.192c1.871 0 3.143.528 3.143 2.807v5.086c0 2.279-1.343 2.83-3.239 2.83zM23.592 16.768c0 .12.048.168.192.168h.648c.12 0 .168-.048.168-.168V6.213a7.91 7.91 0 0 1 2.735-.528h.072c1.463 0 2.662.456 2.662 2.543v8.54c0 .12.072.168.192.168h.648c.12 0 .168-.048.168-.168v-8.54c0-2.087 1.271-2.543 2.759-2.543h.072c1.487 0 2.638.456 2.638 2.543v8.54c0 .12.072.168.192.168h.648c.144 0 .168-.048.168-.168V8.276c0-2.71-1.511-3.43-3.598-3.43h-.072c-1.728 0-2.855.551-3.287 1.679-.456-1.151-1.487-1.68-3.214-1.68h-.096c-1.392 0-2.687.36-3.503.72-.12.048-.192.12-.192.24zM41.443 16.768c0 .12.048.168.192.168h.648c.12 0 .168-.048.168-.168V6.213a7.91 7.91 0 0 1 2.735-.528h.072c1.463 0 2.662.456 2.662 2.543v8.54c0 .12.072.168.192.168h.648c.12 0 .168-.048.168-.168v-8.54c0-2.087 1.271-2.543 2.759-2.543h.072c1.487 0 2.638.456 2.638 2.543v8.54c0 .12.072.168.192.168h.648c.144 0 .168-.048.168-.168V8.276c0-2.71-1.511-3.43-3.598-3.43h-.072c-1.728 0-2.855.551-3.287 1.679-.456-1.151-1.487-1.68-3.214-1.68h-.096c-1.392 0-2.687.36-3.503.72-.12.048-.192.12-.192.24zM59.223 13.554c0 2.926 1.655 3.598 3.934 3.598 1.775 0 3.238-.408 4.054-.744.144-.048.192-.096.192-.263V5.278c0-.12-.048-.192-.168-.216l-.672-.048c-.096 0-.168.024-.168.168v10.53c-.647.265-1.87.552-3.19.552-1.847 0-2.975-.551-2.975-2.782v-8.3c0-.12-.048-.168-.192-.168l-.648.048c-.143.024-.167.096-.167.24zM71.336 16.768c0 .12.048.168.192.168h.647c.12 0 .168-.048.168-.168V6.238c.648-.265 1.895-.553 3.215-.553 1.847 0 2.95.528 2.95 2.783v8.3c0 .12.073.168.192.168h.648c.12 0 .168-.048.168-.168V8.444c0-2.95-1.655-3.598-3.934-3.598-1.775 0-3.239.384-4.054.72-.12.047-.192.12-.192.263zM83.377 2.495c0 .144.024.192.168.192h.768c.12 0 .192-.048.192-.192V.912c0-.12-.048-.168-.192-.168h-.768c-.144 0-.168.048-.168.168zm.048 14.273c0 .12.048.168.192.168h.648c.12 0 .168-.048.168-.168V5.182c0-.144-.048-.168-.192-.168l-.648.048c-.12.024-.168.096-.168.216zM88.725 13.938c0 2.782 1.415 3.142 3.239 3.142.455 0 .911-.048 1.247-.12.144-.024.168-.096.192-.24l.072-.48c.024-.143-.048-.167-.168-.167-.288.048-.792.12-1.271.12-1.392 0-2.303-.192-2.303-2.231V5.853h3.454c.12 0 .168-.048.168-.168l-.072-.48c-.024-.12-.072-.143-.216-.143h-3.334V1.679c0-.144-.096-.192-.216-.168l-.624.048c-.144.024-.168.096-.168.24v3.263H87.07c-.144 0-.192.024-.192.168v.431c0 .144.048.192.192.192h1.655zM98.664 22.022c0 .144.048.192.12.192.24.072 1.056.168 1.68.168 2.038 0 3.765-.576 3.765-3.647V5.278c0-.12-.048-.192-.167-.216l-.648-.048c-.12 0-.192.024-.192.168v8.084c0 2.23-1.223 2.783-3.07 2.783h-.145c-1.919 0-2.95-.624-2.95-2.831V5.182c0-.12-.048-.168-.192-.168l-.648.048c-.12.024-.168.096-.168.24v7.988c0 2.974 1.703 3.646 3.838 3.646h.12c1.632 0 2.687-.36 3.287-1.295 0 0-.024.767-.024 1.607v1.56c0 2.422-1.463 2.686-2.95 2.686-.409 0-1.368-.096-1.56-.144-.168-.024-.168.048-.168.168z"/></g></svg>