<svg id="Layer_1" xmlns="http://www.w3.org/2000/svg" width="128" height="38" viewBox="-241 378 128 38"><style>.st0{enable-background:new}.st1{fill:#fff}</style><title>Guides</title><g id="Page-1"><g class="st0" id="Guides-Single-Page-v3"><path class="st1" d="M-101 486.5c0-6.4 3.5-8.9 10.2-8.9 4.5 0 7.6.8 7.6.8.4.1.5.2.5.5l.1 1.1c0 .2-.1.4-.4.3 0 0-3.4-1-7.6-1h-.1c-5.6 0-8.1 2-8.1 7v18.1c0 5 2.4 7 7.9 7h.2c4 0 7.2-1 7.2-1v-14.3h-5.7c-.3 0-.4-.1-.4-.4v-1.1c0-.2.1-.3.4-.3h7.3c.3 0 .4.1.4.3v16.7c0 .3-.1.4-.4.5 0 0-3.9 1.4-9 1.4-6.7 0-10.1-2.6-10.1-8.9v-17.8zM-74.1 488.7c0-.3.1-.4.4-.5l1.4-.1c.3 0 .4.1.4.3v17.3c0 4.7 2.4 5.8 6.2 5.8 2.8 0 5.3-.6 6.7-1.1v-22c0-.3.1-.3.3-.3l1.4.1c.2.1.4.2.4.5v22.7c0 .4-.1.5-.4.6-1.7.7-4.8 1.5-8.5 1.5-4.8 0-8.2-1.4-8.2-7.5v-17.3zM-48.8 479.6c0-.2.1-.3.4-.3h1.6c.3 0 .4.1.4.3v3.3c0 .3-.1.4-.4.4h-1.6c-.3 0-.4-.1-.4-.4v-3.3zm.1 9.1c0-.2.1-.4.4-.5l1.4-.1c.3 0 .4 0 .4.3v24.2c0 .2-.1.3-.4.3h-1.4c-.3 0-.4-.1-.4-.3v-23.9zM-38.7 495.2c0-6.3 3.7-7.6 8.5-7.6h.3c3.8 0 5.8.9 7 2.7 0 0-.1-1.5-.1-3.4V477c0-.3.2-.4.4-.4l1.3.1c.3.1.3.2.3.5V506c0 6.2-3.8 7.4-8.8 7.4h-.4c-4.8 0-8.6-1.4-8.6-7.6v-10.6zm9 16.6c4 0 6.8-1 6.8-5.8v-10.7c0-4.5-2.6-5.9-6.6-5.9h-.3c-4.1 0-6.8 1.2-6.8 5.9V506c0 4.8 2.8 5.9 6.5 5.9h.4zM-13 495.3c0-5.8 3.2-7.7 8.9-7.7h.5c5 0 8 1.8 8 6.7v.8c0 5.3-2.8 5.9-7.4 5.9-3.5 0-7.1-.8-7.9-1v5.5c0 5 2.6 6 6.8 6 3.2 0 5.4-.4 7-.8.2 0 .4 0 .4.2l-.3 1.3c0 .2-.1.3-.4.5-1.1.2-3.6.7-6.7.7h-.4c-4.9 0-8.6-1.4-8.6-7.6v-10.5zm2 3c.6.2 4.2 1.1 7.9 1.1 3.3 0 5.4-.4 5.4-4.3v-.7c0-3.3-1.5-5-6.1-5h-.3c-4.2 0-6.8 1.2-6.8 5.9v3zM10.3 511c-.1-.4.1-.5.4-.4 1.5.5 4.2 1 7.4 1h.4c3.6 0 5.8-.8 5.8-4.6v-1c0-3.2-1.3-4.2-5.2-5l-2-.3c-4.2-.8-6.6-2.1-6.6-6.2v-.9c0-4.9 3.8-5.8 7.5-5.8h.2c1.9 0 4.6.3 6 .7.3.1.4.2.4.4l.2 1c0 .2-.1.4-.4.4-1.1-.4-3.8-.8-6-.8h-.2c-3.2 0-5.6.8-5.6 4v.9c0 2.6 1.6 3.6 5.1 4.3l2 .4c4.8.9 6.8 2.2 6.8 6.7v1.2c0 5.5-3.4 6.4-7.9 6.4H18c-3.1 0-6.1-.5-7.2-.9-.2 0-.4-.1-.5-.5v-1z" transform="translate(-139 -98)"/></g></g></svg>