<?xml version="1.0" encoding="utf-8"?>
<!-- Generator: Adobe Illustrator 19.1.0, SVG Export Plug-In . SVG Version: 6.00 Build 0)  -->
<svg version="1.1" id="Layer_1" xmlns="http://www.w3.org/2000/svg" xmlns:xlink="http://www.w3.org/1999/xlink" x="0px" y="0px"
	 width="152.2px" height="136.1px" viewBox="0 0 152.2 136.1" style="enable-background:new 0 0 152.2 136.1;" xml:space="preserve"
	>
<style type="text/css">
	.st0{fill:#D1EE83;stroke:#97BD30;stroke-width:2.5;stroke-miterlimit:10;}
	.st1{fill:#D1EE83;stroke:#97BD30;stroke-width:4;stroke-miterlimit:10;}
	.st2{fill:#97BD30;}
	.st3{fill:none;stroke:#97BD30;stroke-width:4;stroke-miterlimit:10;}
	.st4{fill:none;stroke:#C8D2D2;stroke-width:4;stroke-miterlimit:10;}
	.st5{fill:#C8D2D2;}
	.st6{fill:#D1EE83;stroke:#97BD30;stroke-width:3.4991;stroke-miterlimit:10;}
	.st7{fill:#D1EE83;stroke:#97BD30;stroke-width:5.6814;stroke-miterlimit:10;}
	.st8{fill:none;stroke:#97BD30;stroke-width:4.8706;stroke-miterlimit:10;}
	.st9{fill:none;stroke:#C8D2D2;stroke-width:4.8076;stroke-miterlimit:10;}
	.st10{fill:none;stroke:#C8D2D2;stroke-width:3.2416;stroke-miterlimit:10;}
	.st11{fill:none;stroke:#97BD30;stroke-width:2.5;stroke-miterlimit:10;}
	.st12{fill:#EE9B83;stroke:#BD3130;stroke-width:2.5;stroke-miterlimit:10;}
	.st13{fill:#BD3130;}
	.st14{fill:none;stroke:#BD3130;stroke-width:4;stroke-miterlimit:10;}
	.st15{fill:#EE9B83;stroke:#BD3130;stroke-width:4;stroke-miterlimit:10;}
	.st16{fill:none;stroke:#97BD30;stroke-width:3;stroke-miterlimit:10;}
	.st17{fill:#FF990D;}
	.st18{fill:none;stroke:#BD3130;stroke-width:2.4036;stroke-miterlimit:10;}
	.st19{fill:none;stroke:#C8D2D2;stroke-width:2.4036;stroke-miterlimit:10;}
	.st20{fill:#EE9B83;stroke:#BD3130;stroke-width:2.4036;stroke-miterlimit:10;}
	.st21{fill:#D1EE83;stroke:#97BD30;stroke-width:1.8073;stroke-miterlimit:10;}
	.st22{fill:#D1EE83;stroke:#97BD30;stroke-width:3;stroke-miterlimit:10;}
	.st23{fill:none;stroke:#C8D2D2;stroke-width:3;stroke-miterlimit:10;}
	.st24{fill:#D1EE83;stroke:#97BD30;stroke-width:2.6609;stroke-miterlimit:10;}
	.st25{fill:none;stroke:#BD3130;stroke-width:2.6609;stroke-miterlimit:10;}
	.st26{fill:none;stroke:#97BD30;stroke-width:2.6609;stroke-miterlimit:10;}
	.st27{fill:#EE9B83;stroke:#BD3130;stroke-width:2.6609;stroke-miterlimit:10;}
	.st28{fill:none;stroke:#C8D2D2;stroke-width:2.6609;stroke-miterlimit:10;}
	.st29{fill:#EE9B83;stroke:#BD3130;stroke-width:1.8073;stroke-miterlimit:10;}
	.st30{fill:none;stroke:#97BD30;stroke-width:1.8069;stroke-miterlimit:10;}
	.st31{fill:none;stroke:#BD3130;stroke-width:2.9701;stroke-miterlimit:10;}
	.st32{fill:none;stroke:#C8D2D2;stroke-width:2.9701;stroke-miterlimit:10;}
	.st33{fill:#EE9B83;stroke:#BD3130;stroke-width:2.9701;stroke-miterlimit:10;}
	.st34{fill:none;stroke:#BD3130;stroke-width:3;stroke-miterlimit:10;}
	.st35{fill:#EE9B83;stroke:#BD3130;stroke-width:3;stroke-miterlimit:10;}
	.st36{fill:none;stroke:#BD3130;stroke-width:2.6101;stroke-miterlimit:10;}
	.st37{fill:none;stroke:#C8D2D2;stroke-width:2.6101;stroke-miterlimit:10;}
	.st38{fill:#EE9B83;stroke:#BD3130;stroke-width:2.6101;stroke-miterlimit:10;}
	.st39{fill:none;stroke:#97BD30;stroke-width:2.6364;stroke-miterlimit:10;}
	.st40{fill:none;stroke:#97BD30;stroke-width:1.8073;stroke-miterlimit:10;}
</style>
<path class="st16" d="M99.4,73.4c0,0,10.8-2.8,10.8,12.7c0,3.9,0,12.9,0,15.8"/>
<path class="st40" d="M149,25.4H3.6c-1.1,0-2-0.9-2-2V3.3c0-1.1,0.9-2,2-2H149c1.1,0,2,0.9,2,2v20.2C151,24.5,150.1,25.4,149,25.4z"
	/>
<g>
	<path d="M48.6,8.2v9.1c0,0.3-0.2,0.4-0.7,0.4h-0.3c-0.5,0-0.7-0.1-0.7-0.4v-3.9h-4.3v3.9c0,0.3-0.2,0.4-0.7,0.4h-0.4
		c-0.5,0-0.7-0.1-0.7-0.4V8.2c0-0.3,0.2-0.4,0.7-0.4h0.4c0.5,0,0.7,0.1,0.7,0.4v3.6h4.3V8.2c0-0.3,0.2-0.4,0.7-0.4h0.3
		C48.3,7.8,48.6,7.9,48.6,8.2z"/>
	<path d="M55,8l3.2,9.1c0,0.1,0,0.2,0,0.2c0,0.2-0.2,0.3-0.7,0.3h-0.4c-0.4,0-0.6-0.1-0.7-0.3l-0.7-1.9h-3.6l-0.6,1.9
		c-0.1,0.2-0.3,0.3-0.6,0.3h-0.4c-0.5,0-0.8-0.1-0.8-0.3c0,0,0-0.1,0.1-0.2L53,8c0.1-0.2,0.3-0.3,0.7-0.3h0.6
		C54.7,7.8,54.9,7.9,55,8z M53.9,9.9c0,0,0,0.2-0.1,0.4c0,0.2-0.1,0.4-0.1,0.5l-1,3.1h2.5l-1-3.1C54.1,10.5,54,10.3,53.9,9.9
		L53.9,9.9z"/>
	<path d="M61.2,8.2v7.9h3.4c0.1,0,0.2,0,0.3,0.1c0.1,0.1,0.1,0.2,0.1,0.5V17c0,0.2,0,0.4-0.1,0.5c-0.1,0.1-0.1,0.1-0.3,0.1h-4.7
		c-0.2,0-0.3,0-0.4-0.1c-0.1-0.1-0.1-0.2-0.1-0.4V8.2c0-0.3,0.2-0.4,0.7-0.4h0.3C60.9,7.8,61.2,7.9,61.2,8.2z"/>
	<path d="M71.5,8c0.1,0.1,0.1,0.2,0.1,0.5v0.4c0,0.2,0,0.4-0.1,0.5c-0.1,0.1-0.1,0.1-0.3,0.1H68v2.5h3.1c0.1,0,0.2,0,0.3,0.1
		c0.1,0.1,0.1,0.2,0.1,0.5v0.4c0,0.2,0,0.4-0.1,0.5s-0.1,0.1-0.3,0.1H68v3.9c0,0.3-0.2,0.4-0.7,0.4h-0.3c-0.5,0-0.7-0.1-0.7-0.4V8.3
		c0-0.2,0-0.3,0.1-0.4c0.1-0.1,0.2-0.1,0.4-0.1h4.6C71.4,7.8,71.5,7.9,71.5,8z"/>
	<path d="M76,13.4c0.1,0.1,0.1,0.2,0.1,0.5V14c0,0.2,0,0.4-0.1,0.4c-0.1,0.1-0.1,0.1-0.3,0.1h-2.8c-0.1,0-0.2,0-0.3-0.1
		c-0.1-0.1-0.1-0.2-0.1-0.4v-0.1c0-0.2,0-0.4,0.1-0.5c0.1-0.1,0.1-0.1,0.3-0.1h2.8C75.8,13.2,75.9,13.3,76,13.4z"/>
	<path d="M85,9c0.8,0.8,1.1,2.1,1.1,3.7s-0.4,2.9-1.1,3.7s-1.9,1.3-3.3,1.3s-2.5-0.4-3.3-1.3s-1.1-2.1-1.1-3.7
		c0-1.6,0.4-2.8,1.1-3.7s1.9-1.3,3.3-1.3S84.2,8.1,85,9z M79.8,10.1c-0.4,0.6-0.7,1.4-0.7,2.6c0,1.1,0.2,2,0.7,2.6
		c0.4,0.6,1.1,0.9,1.9,0.9c0.8,0,1.5-0.3,1.9-0.9c0.4-0.6,0.7-1.4,0.7-2.6c0-1.1-0.2-2-0.7-2.6c-0.4-0.6-1.1-0.9-1.9-0.9
		C80.8,9.3,80.2,9.6,79.8,10.1z"/>
	<path d="M93.5,8.4c0.7,0.4,1,1.2,1,2.3c0,0.8-0.2,1.4-0.6,1.9c-0.4,0.4-0.8,0.7-1.3,0.9c-0.5,0.2-0.9,0.2-1.3,0.2h-1.7v3.5
		c0,0.3-0.2,0.4-0.7,0.4h-0.3c-0.5,0-0.7-0.1-0.7-0.4V8.3c0-0.2,0-0.3,0.1-0.4c0.1-0.1,0.2-0.1,0.4-0.1h2.9
		C92.1,7.8,92.9,8,93.5,8.4z M89.7,9.4v2.8h1.6c0.4,0,0.7-0.1,1-0.3c0.3-0.2,0.4-0.6,0.4-1.1c0-0.5-0.1-0.9-0.4-1.1s-0.6-0.3-1-0.3
		H89.7z"/>
	<path d="M101.7,7.9c0.1,0.1,0.1,0.2,0.1,0.5v0.4c0,0.2,0,0.4-0.1,0.5c-0.1,0.1-0.2,0.1-0.3,0.1h-3.7v2.5h3.3c0.1,0,0.2,0,0.3,0.1
		s0.1,0.2,0.1,0.5v0.3c0,0.2,0,0.4-0.1,0.5s-0.2,0.1-0.3,0.1h-3.3v2.7h3.7c0.1,0,0.2,0,0.3,0.1s0.1,0.2,0.1,0.5V17
		c0,0.2,0,0.4-0.1,0.5c-0.1,0.1-0.2,0.1-0.3,0.1h-5c-0.2,0-0.3,0-0.4-0.1c-0.1-0.1-0.1-0.2-0.1-0.4V8.3c0-0.2,0-0.3,0.1-0.4
		c0.1-0.1,0.2-0.1,0.4-0.1h5C101.5,7.8,101.6,7.9,101.7,7.9z"/>
	<path d="M111.4,8.2v9.1c0,0.3-0.2,0.4-0.7,0.4h-0.4c-0.2,0-0.3,0-0.5-0.1s-0.2-0.1-0.3-0.2l-3.9-5.9l-0.3-0.5v6.4
		c0,0.3-0.2,0.4-0.7,0.4h-0.3c-0.5,0-0.7-0.1-0.7-0.4V8.2c0-0.3,0.2-0.4,0.7-0.4h0.5c0.2,0,0.4,0,0.5,0.1c0.1,0,0.2,0.1,0.3,0.3
		l3.7,5.7l0.4,0.6V8.2c0-0.3,0.2-0.4,0.7-0.4h0.3C111.2,7.8,111.4,7.9,111.4,8.2z"/>
</g>
<g>
	<path d="M46.8,32c0,0.1,0.1,0.2,0.1,0.3v0.2c0,0.1,0,0.3-0.1,0.3c0,0.1-0.1,0.1-0.2,0.1h-2.3v1.8h2.2c0.1,0,0.2,0,0.2,0.1
		c0,0.1,0.1,0.2,0.1,0.3v0.2c0,0.1,0,0.3-0.1,0.3c0,0.1-0.1,0.1-0.2,0.1h-2.2v2.8c0,0.2-0.2,0.3-0.5,0.3h-0.2
		c-0.4,0-0.5-0.1-0.5-0.3v-6.4c0-0.1,0-0.2,0.1-0.3c0.1-0.1,0.2-0.1,0.3-0.1h3.3C46.7,31.9,46.8,31.9,46.8,32z"/>
	<path d="M51.4,34c0.3,0.3,0.5,0.7,0.5,1.2v2c0,0.5,0,0.8,0.1,1c0,0.2,0.1,0.3,0.1,0.4c0,0.1-0.1,0.2-0.3,0.2
		c-0.2,0-0.4,0.1-0.6,0.1c-0.1,0-0.2,0-0.2-0.1s-0.1-0.2-0.1-0.3c0-0.1,0-0.2,0-0.2c-0.2,0.2-0.4,0.4-0.6,0.5
		c-0.3,0.2-0.6,0.2-0.9,0.2c-0.5,0-0.9-0.1-1.2-0.4c-0.3-0.3-0.4-0.6-0.4-1.1c0-1.2,1-1.8,3-1.9v-0.4c0-0.4-0.3-0.7-0.9-0.7
		c-0.2,0-0.5,0-0.7,0.1c-0.2,0.1-0.4,0.1-0.5,0.2c-0.1,0.1-0.2,0.1-0.2,0.1c-0.1,0-0.2-0.1-0.3-0.3c-0.1-0.2-0.2-0.3-0.2-0.4
		c0-0.1,0.1-0.2,0.3-0.3c0.2-0.1,0.4-0.2,0.7-0.3c0.3-0.1,0.6-0.1,0.9-0.1C50.5,33.6,51.1,33.7,51.4,34z M49.4,36.7
		c-0.3,0.1-0.5,0.3-0.5,0.7c0,0.2,0.1,0.3,0.2,0.4c0.1,0.1,0.3,0.2,0.5,0.2c0.2,0,0.4-0.1,0.6-0.2c0.2-0.1,0.4-0.3,0.5-0.5v-0.8
		C50.1,36.5,49.7,36.6,49.4,36.7z"/>
	<path d="M54.6,31.6v5.8c0,0.2,0,0.3,0.1,0.4c0.1,0.1,0.2,0.1,0.3,0.1c0.1,0,0.1,0,0.2,0c0.1,0,0.1,0,0.1,0c0.1,0,0.1,0.1,0.2,0.3
		c0.1,0.2,0.1,0.3,0.1,0.4c0,0.3-0.3,0.4-0.9,0.4c-0.4,0-0.8-0.1-1-0.4c-0.3-0.2-0.4-0.6-0.4-1.2v-5.8c0-0.2,0.2-0.3,0.5-0.3h0.2
		C54.4,31.3,54.6,31.4,54.6,31.6z"/>
	<path d="M57.6,31.6v5.8c0,0.2,0,0.3,0.1,0.4c0.1,0.1,0.2,0.1,0.3,0.1c0.1,0,0.1,0,0.2,0c0.1,0,0.1,0,0.1,0c0.1,0,0.1,0.1,0.2,0.3
		c0.1,0.2,0.1,0.3,0.1,0.4c0,0.3-0.3,0.4-0.9,0.4c-0.4,0-0.8-0.1-1-0.4c-0.3-0.2-0.4-0.6-0.4-1.2v-5.8c0-0.2,0.2-0.3,0.5-0.3H57
		C57.4,31.3,57.6,31.4,57.6,31.6z"/>
	<path d="M60.6,31.6V34c0.3-0.3,0.7-0.4,1.2-0.4c0.6,0,1.2,0.2,1.5,0.7s0.6,1.1,0.6,2c0,0.5-0.1,1-0.2,1.4s-0.4,0.7-0.7,0.9
		c-0.3,0.2-0.6,0.3-1,0.3c-0.3,0-0.6-0.1-0.8-0.2s-0.5-0.3-0.6-0.6c0,0.2-0.1,0.3-0.1,0.5c0,0.1-0.1,0.1-0.2,0.2c-0.1,0-0.2,0-0.3,0
		h-0.1c-0.3,0-0.5-0.1-0.5-0.3v-7c0-0.2,0.2-0.3,0.5-0.3H60C60.4,31.3,60.6,31.4,60.6,31.6z M60.6,34.9v2.4c0.1,0.2,0.3,0.3,0.5,0.5
		s0.4,0.2,0.5,0.2c0.3,0,0.6-0.1,0.7-0.4s0.2-0.7,0.2-1.3c0-1.1-0.4-1.6-1.1-1.6C61.1,34.6,60.8,34.7,60.6,34.9z"/>
	<path d="M68.5,34c0.3,0.3,0.5,0.7,0.5,1.2v2c0,0.5,0,0.8,0.1,1c0,0.2,0.1,0.3,0.1,0.4c0,0.1-0.1,0.2-0.3,0.2
		c-0.2,0-0.4,0.1-0.6,0.1c-0.1,0-0.2,0-0.2-0.1s-0.1-0.2-0.1-0.3c0-0.1,0-0.2,0-0.2c-0.2,0.2-0.4,0.4-0.6,0.5
		c-0.3,0.2-0.6,0.2-0.9,0.2c-0.5,0-0.9-0.1-1.2-0.4c-0.3-0.3-0.4-0.6-0.4-1.1c0-1.2,1-1.8,3-1.9v-0.4c0-0.4-0.3-0.7-0.9-0.7
		c-0.2,0-0.5,0-0.7,0.1c-0.2,0.1-0.4,0.1-0.5,0.2c-0.1,0.1-0.2,0.1-0.2,0.1c-0.1,0-0.2-0.1-0.3-0.3c-0.1-0.2-0.2-0.3-0.2-0.4
		c0-0.1,0.1-0.2,0.3-0.3c0.2-0.1,0.4-0.2,0.7-0.3c0.3-0.1,0.6-0.1,0.9-0.1C67.6,33.6,68.2,33.7,68.5,34z M66.5,36.7
		C66.1,36.8,66,37,66,37.4c0,0.2,0.1,0.3,0.2,0.4c0.1,0.1,0.3,0.2,0.5,0.2c0.2,0,0.4-0.1,0.6-0.2c0.2-0.1,0.4-0.3,0.5-0.5v-0.8
		C67.2,36.5,66.8,36.6,66.5,36.7z"/>
	<path d="M73.8,33.7c0.3,0.1,0.5,0.3,0.5,0.4c0,0.1-0.1,0.2-0.2,0.4c-0.1,0.2-0.2,0.3-0.3,0.3c0,0-0.1,0-0.1-0.1
		c-0.3-0.2-0.6-0.2-1-0.2c-0.4,0-0.7,0.1-0.9,0.4c-0.2,0.3-0.3,0.7-0.3,1.3c0,0.6,0.1,1,0.3,1.3s0.5,0.4,1,0.4c0.3,0,0.7-0.1,1-0.2
		c0.1,0,0.1-0.1,0.1-0.1c0.1,0,0.2,0.1,0.3,0.3c0.1,0.2,0.2,0.3,0.2,0.4c0,0.1-0.1,0.2-0.3,0.3c-0.2,0.1-0.4,0.2-0.7,0.2
		c-0.3,0-0.5,0.1-0.7,0.1c-0.8,0-1.5-0.2-1.9-0.6c-0.4-0.4-0.6-1.1-0.6-2c0-0.9,0.2-1.6,0.6-2c0.4-0.4,1-0.7,1.8-0.7
		C73.1,33.6,73.5,33.6,73.8,33.7z"/>
	<path d="M76.6,31.6v4.1h0l1.5-2c0.1-0.1,0.1-0.1,0.2-0.1c0.1,0,0.2,0,0.4,0h0.2c0.2,0,0.3,0,0.4,0c0.1,0,0.1,0.1,0.1,0.1
		c0,0.1,0,0.1-0.1,0.2L77.7,36l1.8,2.5c0.1,0.1,0.1,0.1,0.1,0.2c0,0.1-0.2,0.1-0.5,0.1h-0.3c-0.2,0-0.3,0-0.4,0
		c-0.1,0-0.2-0.1-0.2-0.1l-1.6-2.3h0v2.2c0,0.2-0.2,0.3-0.5,0.3h-0.2c-0.4,0-0.5-0.1-0.5-0.3v-7c0-0.2,0.2-0.3,0.5-0.3h0.2
		C76.4,31.3,76.6,31.4,76.6,31.6z"/>
	<path d="M86.4,34c0.3,0.3,0.5,0.7,0.5,1.2v2c0,0.5,0,0.8,0.1,1c0,0.2,0.1,0.3,0.1,0.4c0,0.1-0.1,0.2-0.3,0.2
		c-0.2,0-0.4,0.1-0.6,0.1c-0.1,0-0.2,0-0.2-0.1s-0.1-0.2-0.1-0.3c0-0.1,0-0.2,0-0.2c-0.2,0.2-0.4,0.4-0.6,0.5
		c-0.3,0.2-0.6,0.2-0.9,0.2c-0.5,0-0.9-0.1-1.2-0.4c-0.3-0.3-0.4-0.6-0.4-1.1c0-1.2,1-1.8,3-1.9v-0.4c0-0.4-0.3-0.7-0.9-0.7
		c-0.2,0-0.5,0-0.7,0.1c-0.2,0.1-0.4,0.1-0.5,0.2c-0.1,0.1-0.2,0.1-0.2,0.1c-0.1,0-0.2-0.1-0.3-0.3c-0.1-0.2-0.2-0.3-0.2-0.4
		c0-0.1,0.1-0.2,0.3-0.3c0.2-0.1,0.4-0.2,0.7-0.3c0.3-0.1,0.6-0.1,0.9-0.1C85.5,33.6,86.1,33.7,86.4,34z M84.4,36.7
		c-0.3,0.1-0.5,0.3-0.5,0.7c0,0.2,0.1,0.3,0.2,0.4c0.1,0.1,0.3,0.2,0.5,0.2c0.2,0,0.4-0.1,0.6-0.2c0.2-0.1,0.4-0.3,0.5-0.5v-0.8
		C85.1,36.5,84.7,36.6,84.4,36.7z"/>
	<path d="M92.6,31.6v5.6c0,0.5,0,0.8,0.1,1c0,0.2,0.1,0.3,0.1,0.4c0,0.1-0.1,0.2-0.3,0.2c-0.2,0-0.4,0.1-0.6,0.1
		c-0.1,0-0.2,0-0.2-0.1s-0.1-0.2-0.1-0.3c0-0.1,0-0.2,0-0.2c-0.2,0.2-0.4,0.4-0.6,0.6s-0.5,0.2-0.8,0.2c-0.4,0-0.7-0.1-1-0.3
		c-0.3-0.2-0.5-0.5-0.7-0.9c-0.2-0.4-0.2-0.9-0.2-1.4c0-0.8,0.2-1.5,0.6-2s0.9-0.7,1.5-0.7c0.4,0,0.8,0.1,1.2,0.4v-2.3
		c0-0.2,0.2-0.3,0.5-0.3h0.2C92.4,31.3,92.6,31.4,92.6,31.6z M89.6,35c-0.2,0.3-0.3,0.7-0.3,1.2c0,0.5,0.1,1,0.2,1.3
		c0.2,0.3,0.4,0.4,0.7,0.4c0.4,0,0.7-0.2,1-0.6v-2.4c-0.3-0.2-0.6-0.3-0.9-0.3C90.1,34.6,89.8,34.7,89.6,35z"/>
	<path d="M98.2,31.6v5.6c0,0.5,0,0.8,0.1,1c0,0.2,0.1,0.3,0.1,0.4c0,0.1-0.1,0.2-0.3,0.2c-0.2,0-0.4,0.1-0.6,0.1
		c-0.1,0-0.2,0-0.2-0.1s-0.1-0.2-0.1-0.3c0-0.1,0-0.2,0-0.2c-0.2,0.2-0.4,0.4-0.6,0.6s-0.5,0.2-0.8,0.2c-0.4,0-0.7-0.1-1-0.3
		c-0.3-0.2-0.5-0.5-0.7-0.9c-0.2-0.4-0.2-0.9-0.2-1.4c0-0.8,0.2-1.5,0.6-2s0.9-0.7,1.5-0.7c0.4,0,0.8,0.1,1.2,0.4v-2.3
		c0-0.2,0.2-0.3,0.5-0.3h0.2C98.1,31.3,98.2,31.4,98.2,31.6z M95.3,35c-0.2,0.3-0.3,0.7-0.3,1.2c0,0.5,0.1,1,0.2,1.3
		c0.2,0.3,0.4,0.4,0.7,0.4c0.4,0,0.7-0.2,1-0.6v-2.4c-0.3-0.2-0.6-0.3-0.9-0.3C95.7,34.6,95.5,34.7,95.3,35z"/>
	<path d="M103.4,34.3c0.3,0.5,0.5,1.1,0.5,1.9c0,0.1-0.1,0.2-0.2,0.3s-0.2,0.2-0.3,0.2h-2.8c0,0.4,0.2,0.8,0.4,1
		c0.2,0.2,0.5,0.3,0.9,0.3c0.2,0,0.4,0,0.6-0.1c0.2-0.1,0.3-0.1,0.5-0.2c0.1,0,0.2-0.1,0.2-0.1c0.1,0,0.2,0.1,0.3,0.3
		c0.1,0.2,0.2,0.3,0.2,0.4c0,0.1-0.1,0.2-0.3,0.4c-0.2,0.1-0.4,0.2-0.7,0.2c-0.3,0.1-0.5,0.1-0.8,0.1c-0.9,0-1.5-0.2-1.9-0.7
		c-0.4-0.5-0.6-1.1-0.6-2c0-0.9,0.2-1.6,0.6-2c0.4-0.4,1-0.7,1.8-0.7C102.5,33.6,103.1,33.8,103.4,34.3z M100.7,35.8h2
		c0-0.4-0.1-0.7-0.2-0.9c-0.1-0.2-0.4-0.3-0.7-0.3C101.2,34.6,100.8,35,100.7,35.8z"/>
	<path d="M109.3,31.6v5.6c0,0.5,0,0.8,0.1,1c0,0.2,0.1,0.3,0.1,0.4c0,0.1-0.1,0.2-0.3,0.2c-0.2,0-0.4,0.1-0.6,0.1
		c-0.1,0-0.2,0-0.2-0.1s-0.1-0.2-0.1-0.3c0-0.1,0-0.2,0-0.2c-0.2,0.2-0.4,0.4-0.6,0.6s-0.5,0.2-0.8,0.2c-0.4,0-0.7-0.1-1-0.3
		c-0.3-0.2-0.5-0.5-0.7-0.9c-0.2-0.4-0.2-0.9-0.2-1.4c0-0.8,0.2-1.5,0.6-2s0.9-0.7,1.5-0.7c0.4,0,0.8,0.1,1.2,0.4v-2.3
		c0-0.2,0.2-0.3,0.5-0.3h0.2C109.1,31.3,109.3,31.4,109.3,31.6z M106.3,35c-0.2,0.3-0.3,0.7-0.3,1.2c0,0.5,0.1,1,0.2,1.3
		c0.2,0.3,0.4,0.4,0.7,0.4c0.4,0,0.7-0.2,1-0.6v-2.4c-0.3-0.2-0.6-0.3-0.9-0.3C106.8,34.6,106.5,34.7,106.3,35z"/>
</g>
<path class="st2" d="M99.7,80.1L99.7,80.1c-1.1,0-1.9-0.8-1.9-1.9v-9.8c0-1,0.8-1.9,1.9-1.9h0.1c1,0,1.9,0.8,1.9,1.9v9.8
	C101.6,79.3,100.7,80.1,99.7,80.1z"/>
<polygon class="st37" points="100.9,103.7 114.9,127.5 128.5,103.5 "/>
<path class="st5" d="M114.2,101.9l0-0.2c0-0.7-0.6-1.3-1.3-1.3l-5.7,0c-0.7,0-1.3,0.6-1.3,1.3l0,0.2c0,0.7,0.6,1.3,1.3,1.3l5.7,0
	C113.6,103.2,114.2,102.6,114.2,101.9z"/>
<circle class="st37" cx="139.9" cy="73" r="8.2"/>
<path class="st5" d="M130.7,80.2L130.7,80.2c1,0,1.9-0.8,1.9-1.9l0.1-9.3c0-1-0.8-1.9-1.9-1.9l0,0c-1,0-1.9,0.8-1.9,1.9l-0.1,9.3
	C128.8,79.3,129.7,80.2,130.7,80.2z"/>
<path class="st37" d="M131,73.7c0,0-10.8-2.8-10.9,12.2c0,3.8-0.1,12.4-0.1,15.3"/>
<path class="st5" d="M115.9,101.9l0-0.2c0-0.7,0.6-1.3,1.3-1.3l5.7,0c0.7,0,1.3,0.6,1.3,1.3l0,0.2c0,0.7-0.6,1.3-1.3,1.3l-5.7,0
	C116.5,103.2,115.9,102.6,115.9,101.9z"/>
<path class="st2" d="M42.2,80.1L42.2,80.1c-1.1,0-1.9-0.8-1.9-1.9v-9.8c0-1,0.8-1.9,1.9-1.9h0.1c1,0,1.9,0.8,1.9,1.9v9.8
	C44.1,79.3,43.3,80.1,42.2,80.1z"/>
<path class="st16" d="M40.7,72.6c0,0-16.2-2-16.2,13.4s0,23.5,0,23.5"/>
<path class="st23" d="M40.1,129.9H22.7c-4.2,0-7.7-3.5-7.7-7.7v-2.9c0-4.2,3.5-7.7,7.7-7.7h17.4c4.2,0,7.7,3.5,7.7,7.7v2.9
	C47.8,126.5,44.3,129.9,40.1,129.9z"/>
<path class="st5" d="M20.3,109v-0.3c0-0.7,0.6-1.3,1.3-1.3h5.7c0.7,0,1.3,0.6,1.3,1.3v0.3c0,0.7-0.6,1.3-1.3,1.3h-5.7
	C20.9,110.3,20.3,109.7,20.3,109z"/>
<path class="st5" d="M114.3,101.8v-0.3c0-0.7-0.6-1.3-1.3-1.3h-5.7c-0.7,0-1.3,0.6-1.3,1.3v0.3c0,0.7,0.6,1.3,1.3,1.3h5.7
	C113.7,103.2,114.3,102.6,114.3,101.8z"/>
<polygon class="st17" points="66.2,78.1 79.1,69.2 66.2,60.3 77.6,52.4 73.8,52.4 62.5,60.3 75.3,69.2 62.5,78.1 75.2,87 64,94.3 
	67.9,94.3 79.1,87.1 "/>
<path class="st16" d="M95.3,95.5h-49c-0.9,0-1.6-0.7-1.6-1.6V52.8c0-0.9,0.7-1.6,1.6-1.6h49c0.9,0,1.6,0.7,1.6,1.6v41.2
	C96.9,94.8,96.2,95.5,95.3,95.5z"/>
</svg>
