<?xml version="1.0" encoding="utf-8"?>
<!-- Generator: Adobe Illustrator 19.1.0, SVG Export Plug-In . SVG Version: 6.00 Build 0)  -->
<svg version="1.1" id="Layer_1" xmlns="http://www.w3.org/2000/svg" xmlns:xlink="http://www.w3.org/1999/xlink" x="0px" y="0px"
	 width="152.1px" height="136.7px" viewBox="0 0 152.1 136.7" style="enable-background:new 0 0 152.1 136.7;" xml:space="preserve"
	>
<style type="text/css">
	.st0{fill:#D1EE83;stroke:#97BD30;stroke-width:2.5;stroke-miterlimit:10;}
	.st1{fill:#D1EE83;stroke:#97BD30;stroke-width:4;stroke-miterlimit:10;}
	.st2{fill:#97BD30;}
	.st3{fill:none;stroke:#97BD30;stroke-width:4;stroke-miterlimit:10;}
	.st4{fill:none;stroke:#C8D2D2;stroke-width:4;stroke-miterlimit:10;}
	.st5{fill:#C8D2D2;}
	.st6{fill:#D1EE83;stroke:#97BD30;stroke-width:3.4991;stroke-miterlimit:10;}
	.st7{fill:#D1EE83;stroke:#97BD30;stroke-width:5.6814;stroke-miterlimit:10;}
	.st8{fill:none;stroke:#97BD30;stroke-width:4.8706;stroke-miterlimit:10;}
	.st9{fill:none;stroke:#C8D2D2;stroke-width:4.8076;stroke-miterlimit:10;}
	.st10{fill:none;stroke:#C8D2D2;stroke-width:3.2416;stroke-miterlimit:10;}
	.st11{fill:none;stroke:#97BD30;stroke-width:2.5;stroke-miterlimit:10;}
	.st12{fill:#EE9B83;stroke:#BD3130;stroke-width:2.5;stroke-miterlimit:10;}
	.st13{fill:#BD3130;}
	.st14{fill:none;stroke:#BD3130;stroke-width:4;stroke-miterlimit:10;}
	.st15{fill:#EE9B83;stroke:#BD3130;stroke-width:4;stroke-miterlimit:10;}
	.st16{fill:none;stroke:#97BD30;stroke-width:3;stroke-miterlimit:10;}
	.st17{fill:#FF990D;}
	.st18{fill:none;stroke:#BD3130;stroke-width:2.4036;stroke-miterlimit:10;}
	.st19{fill:none;stroke:#C8D2D2;stroke-width:2.4036;stroke-miterlimit:10;}
	.st20{fill:#EE9B83;stroke:#BD3130;stroke-width:2.4036;stroke-miterlimit:10;}
	.st21{fill:#D1EE83;stroke:#97BD30;stroke-width:1.8073;stroke-miterlimit:10;}
	.st22{fill:#D1EE83;stroke:#97BD30;stroke-width:3;stroke-miterlimit:10;}
	.st23{fill:none;stroke:#C8D2D2;stroke-width:3;stroke-miterlimit:10;}
	.st24{fill:#D1EE83;stroke:#97BD30;stroke-width:2.6609;stroke-miterlimit:10;}
	.st25{fill:none;stroke:#BD3130;stroke-width:2.6609;stroke-miterlimit:10;}
	.st26{fill:none;stroke:#97BD30;stroke-width:2.6609;stroke-miterlimit:10;}
	.st27{fill:#EE9B83;stroke:#BD3130;stroke-width:2.6609;stroke-miterlimit:10;}
	.st28{fill:none;stroke:#C8D2D2;stroke-width:2.6609;stroke-miterlimit:10;}
	.st29{fill:#EE9B83;stroke:#BD3130;stroke-width:1.8073;stroke-miterlimit:10;}
	.st30{fill:none;stroke:#97BD30;stroke-width:1.8069;stroke-miterlimit:10;}
	.st31{fill:none;stroke:#BD3130;stroke-width:2.9701;stroke-miterlimit:10;}
	.st32{fill:none;stroke:#C8D2D2;stroke-width:2.9701;stroke-miterlimit:10;}
	.st33{fill:#EE9B83;stroke:#BD3130;stroke-width:2.9701;stroke-miterlimit:10;}
	.st34{fill:none;stroke:#BD3130;stroke-width:3;stroke-miterlimit:10;}
	.st35{fill:#EE9B83;stroke:#BD3130;stroke-width:3;stroke-miterlimit:10;}
	.st36{fill:none;stroke:#BD3130;stroke-width:2.6101;stroke-miterlimit:10;}
	.st37{fill:none;stroke:#C8D2D2;stroke-width:2.6101;stroke-miterlimit:10;}
	.st38{fill:#EE9B83;stroke:#BD3130;stroke-width:2.6101;stroke-miterlimit:10;}
	.st39{fill:none;stroke:#97BD30;stroke-width:2.6364;stroke-miterlimit:10;}
	.st40{fill:none;stroke:#97BD30;stroke-width:1.8073;stroke-miterlimit:10;}
</style>
<g>
	<path d="M24.9,8.4c0.4,0.1,0.7,0.2,0.9,0.3C26,8.9,26.1,9,26.1,9.2c0,0.2-0.1,0.4-0.2,0.7c-0.2,0.3-0.3,0.4-0.4,0.4
		c0,0-0.1,0-0.3-0.1C25,10,24.8,10,24.6,9.9s-0.5-0.1-0.8-0.1c-0.5,0-0.9,0.1-1.1,0.3c-0.2,0.2-0.4,0.5-0.4,0.8
		c0,0.3,0.1,0.5,0.2,0.7c0.1,0.2,0.3,0.3,0.5,0.4s0.5,0.2,0.9,0.4c0.5,0.2,1,0.4,1.3,0.6c0.3,0.2,0.6,0.5,0.9,0.9s0.4,0.9,0.4,1.4
		c0,1-0.3,1.7-0.9,2.2c-0.6,0.5-1.3,0.7-2.3,0.7c-0.6,0-1.2-0.1-1.6-0.2c-0.5-0.1-0.9-0.3-1.1-0.5c-0.3-0.2-0.4-0.3-0.4-0.5
		c0-0.1,0-0.3,0.1-0.4s0.2-0.3,0.3-0.4c0.1-0.1,0.2-0.2,0.3-0.2c0.1,0,0.2,0,0.3,0.1c0.3,0.2,0.6,0.3,0.9,0.4c0.3,0.1,0.6,0.1,1,0.1
		c0.4,0,0.8-0.1,1.1-0.3c0.3-0.2,0.4-0.5,0.4-0.9c0-0.3-0.1-0.5-0.2-0.6s-0.3-0.3-0.6-0.4c-0.2-0.1-0.5-0.3-0.9-0.4
		c-0.2-0.1-0.4-0.2-0.4-0.2c-0.4-0.2-0.8-0.4-1.1-0.6s-0.5-0.5-0.7-0.8c-0.2-0.4-0.3-0.8-0.3-1.3c0-0.6,0.1-1.1,0.4-1.5
		c0.3-0.4,0.7-0.7,1.2-0.9c0.5-0.2,1-0.3,1.6-0.3C24.1,8.3,24.5,8.3,24.9,8.4z"/>
	<path d="M33.8,8.5c0.1,0.1,0.1,0.2,0.1,0.5v0.4c0,0.2,0,0.4-0.1,0.5c-0.1,0.1-0.2,0.1-0.3,0.1h-3.7v2.5h3.3c0.1,0,0.2,0,0.3,0.1
		s0.1,0.2,0.1,0.5v0.3c0,0.2,0,0.4-0.1,0.5s-0.2,0.1-0.3,0.1h-3.3v2.7h3.7c0.1,0,0.2,0,0.3,0.1s0.1,0.2,0.1,0.5v0.4
		c0,0.2,0,0.4-0.1,0.5c-0.1,0.1-0.2,0.1-0.3,0.1h-5c-0.2,0-0.3,0-0.4-0.1C28,18,28,17.8,28,17.7V8.9c0-0.2,0-0.3,0.1-0.4
		c0.1-0.1,0.2-0.1,0.4-0.1h5C33.7,8.4,33.8,8.4,33.8,8.5z"/>
	<path d="M41.3,9c0.6,0.4,0.8,1.1,0.8,1.9c0,0.5-0.1,1-0.4,1.4c-0.3,0.4-0.7,0.7-1.2,0.9v0.1c0.2,0.1,0.4,0.2,0.6,0.5
		c0.2,0.3,0.4,0.6,0.5,1l1.2,3c0,0.1,0.1,0.2,0.1,0.2c0,0.2-0.3,0.3-0.8,0.3h-0.4c-0.4,0-0.7-0.1-0.7-0.3l-1.1-2.7
		c-0.2-0.4-0.4-0.6-0.6-0.8s-0.6-0.2-1.1-0.2h-0.8v3.6c0,0.3-0.2,0.4-0.7,0.4h-0.3c-0.5,0-0.7-0.1-0.7-0.4V8.9c0-0.2,0-0.3,0.1-0.4
		c0.1-0.1,0.2-0.1,0.4-0.1h2.6C39.9,8.4,40.8,8.6,41.3,9z M37.5,9.9v2.7H39c0.4,0,0.7-0.1,0.9-0.4c0.3-0.3,0.4-0.6,0.4-1
		c0-0.4-0.1-0.7-0.4-0.9c-0.3-0.2-0.6-0.3-1-0.3H37.5z"/>
	<path d="M51.5,8.6c0,0.1,0,0.1,0,0.2l-3.1,9.1c-0.1,0.2-0.3,0.3-0.7,0.3h-0.6c-0.4,0-0.6-0.1-0.7-0.3l-3.1-9.1c0-0.1,0-0.2,0-0.2
		c0-0.2,0.3-0.3,0.8-0.3h0.3c0.4,0,0.7,0.1,0.7,0.3l2.1,6.6l0.1,0.6h0.1l0.2-0.6l2.2-6.6c0.1-0.2,0.3-0.3,0.7-0.3h0.3
		C51.3,8.3,51.5,8.4,51.5,8.6z"/>
	<path d="M54.6,8.7v9.1c0,0.3-0.2,0.4-0.7,0.4h-0.3c-0.5,0-0.7-0.1-0.7-0.4V8.7c0-0.3,0.2-0.4,0.7-0.4h0.3
		C54.4,8.3,54.6,8.5,54.6,8.7z"/>
	<path d="M62.3,8.4c0.4,0.1,0.8,0.2,1.1,0.3c0.3,0.1,0.4,0.3,0.4,0.5c0,0.1,0,0.3-0.1,0.4s-0.2,0.3-0.3,0.5
		c-0.1,0.1-0.2,0.2-0.3,0.2c0,0-0.1,0-0.3-0.1c-0.2-0.1-0.4-0.2-0.7-0.3s-0.6-0.1-1-0.1c-0.9,0-1.6,0.3-2.1,0.8
		c-0.4,0.6-0.7,1.4-0.7,2.6c0,1.2,0.2,2,0.7,2.6c0.4,0.6,1.1,0.9,2,0.9c0.4,0,0.8,0,1.1-0.1c0.3-0.1,0.6-0.2,0.9-0.3
		c0.1-0.1,0.3-0.1,0.3-0.1c0.1,0,0.2,0.1,0.3,0.2s0.2,0.3,0.3,0.5c0.1,0.2,0.1,0.3,0.1,0.4c0,0.2-0.2,0.4-0.5,0.6s-0.7,0.3-1.2,0.4
		c-0.5,0.1-0.9,0.1-1.4,0.1c-1.6,0-2.7-0.4-3.5-1.2c-0.7-0.8-1.1-2.1-1.1-3.8c0-3.3,1.5-5,4.6-5C61.4,8.3,61.8,8.3,62.3,8.4z"/>
	<path d="M71.3,8.5c0.1,0.1,0.1,0.2,0.1,0.5v0.4c0,0.2,0,0.4-0.1,0.5c-0.1,0.1-0.2,0.1-0.3,0.1h-3.7v2.5h3.3c0.1,0,0.2,0,0.3,0.1
		S71,12.7,71,13v0.3c0,0.2,0,0.4-0.1,0.5s-0.2,0.1-0.3,0.1h-3.3v2.7H71c0.1,0,0.2,0,0.3,0.1s0.1,0.2,0.1,0.5v0.4
		c0,0.2,0,0.4-0.1,0.5c-0.1,0.1-0.2,0.1-0.3,0.1h-5c-0.2,0-0.3,0-0.4-0.1c-0.1-0.1-0.1-0.2-0.1-0.4V8.9c0-0.2,0-0.3,0.1-0.4
		c0.1-0.1,0.2-0.1,0.4-0.1h5C71.1,8.4,71.2,8.4,71.3,8.5z"/>
	<path d="M81.8,8.5c0.1,0.1,0.1,0.2,0.1,0.5v0.4c0,0.2,0,0.4-0.1,0.5c-0.1,0.1-0.1,0.1-0.3,0.1h-3.3v2.5h3.1c0.1,0,0.2,0,0.3,0.1
		c0.1,0.1,0.1,0.2,0.1,0.5v0.4c0,0.2,0,0.4-0.1,0.5s-0.1,0.1-0.3,0.1h-3.1v3.9c0,0.3-0.2,0.4-0.7,0.4h-0.3c-0.5,0-0.7-0.1-0.7-0.4
		V8.9c0-0.2,0-0.3,0.1-0.4c0.1-0.1,0.2-0.1,0.4-0.1h4.6C81.7,8.4,81.8,8.4,81.8,8.5z"/>
	<path d="M87.7,8.6l3.2,9.1c0,0.1,0,0.2,0,0.2c0,0.2-0.2,0.3-0.7,0.3h-0.4c-0.4,0-0.6-0.1-0.7-0.3L88.4,16h-3.6l-0.6,1.9
		c-0.1,0.2-0.3,0.3-0.6,0.3h-0.4c-0.5,0-0.8-0.1-0.8-0.3c0,0,0-0.1,0.1-0.2l3.2-9.1c0.1-0.2,0.3-0.3,0.7-0.3H87
		C87.4,8.3,87.6,8.4,87.7,8.6z M86.6,10.5c0,0,0,0.2-0.1,0.4c0,0.2-0.1,0.4-0.1,0.5l-1,3.1h2.5l-1-3.1
		C86.8,11.1,86.7,10.8,86.6,10.5L86.6,10.5z"/>
	<path d="M93.8,8.7v9.1c0,0.3-0.2,0.4-0.7,0.4h-0.3c-0.5,0-0.7-0.1-0.7-0.4V8.7c0-0.3,0.2-0.4,0.7-0.4h0.3
		C93.6,8.3,93.8,8.5,93.8,8.7z"/>
	<path d="M97.8,8.7v7.9h3.4c0.1,0,0.2,0,0.3,0.1c0.1,0.1,0.1,0.2,0.1,0.5v0.4c0,0.2,0,0.4-0.1,0.5c-0.1,0.1-0.1,0.1-0.3,0.1h-4.7
		c-0.2,0-0.3,0-0.4-0.1C96.1,18,96,17.8,96,17.7V8.7c0-0.3,0.2-0.4,0.7-0.4h0.3C97.6,8.3,97.8,8.5,97.8,8.7z"/>
	<path d="M110.6,8.7v6.2c0,1.1-0.3,1.9-1,2.5s-1.7,0.9-2.9,0.9c-1.3,0-2.2-0.3-2.9-0.9s-1-1.4-1-2.5V8.7c0-0.3,0.2-0.4,0.7-0.4h0.3
		c0.5,0,0.7,0.1,0.7,0.4v6.1c0,0.5,0.2,1,0.6,1.3c0.4,0.3,0.9,0.5,1.5,0.5c0.6,0,1.1-0.2,1.5-0.5c0.4-0.3,0.6-0.8,0.6-1.3V8.7
		c0-0.3,0.2-0.4,0.7-0.4h0.3C110.4,8.3,110.6,8.5,110.6,8.7z"/>
	<path d="M118.5,9c0.6,0.4,0.8,1.1,0.8,1.9c0,0.5-0.1,1-0.4,1.4c-0.3,0.4-0.7,0.7-1.2,0.9v0.1c0.2,0.1,0.4,0.2,0.6,0.5
		c0.2,0.3,0.4,0.6,0.5,1l1.2,3c0,0.1,0.1,0.2,0.1,0.2c0,0.2-0.3,0.3-0.8,0.3h-0.4c-0.4,0-0.7-0.1-0.7-0.3l-1.1-2.7
		c-0.2-0.4-0.4-0.6-0.6-0.8s-0.6-0.2-1.1-0.2h-0.8v3.6c0,0.3-0.2,0.4-0.7,0.4h-0.3c-0.5,0-0.7-0.1-0.7-0.4V8.9c0-0.2,0-0.3,0.1-0.4
		c0.1-0.1,0.2-0.1,0.4-0.1h2.6C117,8.4,117.9,8.6,118.5,9z M114.6,9.9v2.7h1.5c0.4,0,0.7-0.1,0.9-0.4c0.3-0.3,0.4-0.6,0.4-1
		c0-0.4-0.1-0.7-0.4-0.9c-0.3-0.2-0.6-0.3-1-0.3H114.6z"/>
	<path d="M127.1,8.5c0.1,0.1,0.1,0.2,0.1,0.5v0.4c0,0.2,0,0.4-0.1,0.5c-0.1,0.1-0.2,0.1-0.3,0.1h-3.7v2.5h3.3c0.1,0,0.2,0,0.3,0.1
		s0.1,0.2,0.1,0.5v0.3c0,0.2,0,0.4-0.1,0.5s-0.2,0.1-0.3,0.1h-3.3v2.7h3.7c0.1,0,0.2,0,0.3,0.1s0.1,0.2,0.1,0.5v0.4
		c0,0.2,0,0.4-0.1,0.5c-0.1,0.1-0.2,0.1-0.3,0.1h-5c-0.2,0-0.3,0-0.4-0.1c-0.1-0.1-0.1-0.2-0.1-0.4V8.9c0-0.2,0-0.3,0.1-0.4
		c0.1-0.1,0.2-0.1,0.4-0.1h5C127,8.4,127.1,8.4,127.1,8.5z"/>
</g>
<path class="st34" d="M118.9,91.1c0-3.4,0-13.8,0-18.4c0-5.4-1.6-11.2-6.9-13.6c-3-1.4-6.3-1.1-9.5-1.1c-3.5,0-7,0-10.5,0
	c-4.9,0-9.7,0-14.6,0c-5.1,0-10.2,0-15.4,0c-4.3,0-8.6,0-13,0c-2.5,0-4.9,0-7.4,0c-0.2,0-0.4,0-0.7,0c0,0-14.7-1.7-14.7,14.8
	c0,17.3,0,26.6,0,26.6h0.2"/>
<path class="st33" d="M45.8,123.9H24.5c-5,0-9.1-4.1-9.1-9.1v-3.1c0-5,4.1-9.1,9.1-9.1h21.2c5,0,9.1,4.1,9.1,9.1v3.1
	C54.9,119.8,50.8,123.9,45.8,123.9z"/>
<polygon class="st23" points="102.9,94.1 119.5,122.9 136.1,94.1 "/>
<path class="st13" d="M21.8,99.5v-0.3c0-0.9,0.7-1.6,1.6-1.6h6.9c0.9,0,1.6,0.7,1.6,1.6v0.3c0,0.9-0.7,1.6-1.6,1.6h-6.9
	C22.5,101.1,21.8,100.3,21.8,99.5z"/>
<path class="st5" d="M124.1,91.1v-0.3c0-0.9-0.7-1.6-1.6-1.6h-6.9c-0.9,0-1.6,0.7-1.6,1.6v0.3c0,0.9,0.7,1.6,1.6,1.6h6.9
	C123.4,92.7,124.1,92,124.1,91.1z"/>
<g>
	<path d="M115.8,100.9l1.8,5.2c0,0,0,0.1,0,0.1c0,0.1-0.1,0.2-0.4,0.2H117c-0.2,0-0.4-0.1-0.4-0.2l-0.4-1.1h-2.1l-0.4,1.1
		c0,0.1-0.2,0.2-0.4,0.2h-0.2c-0.3,0-0.4-0.1-0.4-0.2c0,0,0-0.1,0-0.1l1.8-5.2c0-0.1,0.2-0.2,0.4-0.2h0.4
		C115.7,100.7,115.8,100.8,115.8,100.9z M115.2,102c0,0,0,0.1,0,0.2c0,0.1,0,0.2-0.1,0.3l-0.6,1.8h1.5l-0.6-1.8
		C115.3,102.3,115.3,102.1,115.2,102L115.2,102z"/>
	<path d="M121.2,102.4c0.2,0.2,0.4,0.4,0.5,0.7c0.1,0.3,0.2,0.7,0.2,1.1c0,0.7-0.1,1.2-0.4,1.6s-0.7,0.6-1.2,0.6
		c-0.3,0-0.7-0.1-0.9-0.3v1.7c0,0.2-0.1,0.2-0.4,0.2h-0.2c-0.3,0-0.4-0.1-0.4-0.2v-4.3c0-0.4,0-0.6,0-0.8c0-0.2,0-0.3,0-0.3
		c0-0.1,0.1-0.1,0.3-0.2c0.2,0,0.3-0.1,0.5-0.1c0.1,0,0.1,0,0.2,0.1s0.1,0.2,0.1,0.2s0,0.1,0,0.2c0.1-0.2,0.3-0.3,0.5-0.4
		c0.2-0.1,0.4-0.2,0.7-0.2C120.7,102.1,121,102.2,121.2,102.4z M119.7,103.1c-0.1,0.1-0.3,0.2-0.4,0.4v1.9c0.2,0.2,0.4,0.2,0.7,0.2
		c0.6,0,0.9-0.4,0.9-1.3c0-0.4-0.1-0.8-0.2-1s-0.3-0.3-0.6-0.3C120,102.9,119.8,103,119.7,103.1z"/>
	<path d="M125.8,102.4c0.2,0.2,0.4,0.4,0.5,0.7c0.1,0.3,0.2,0.7,0.2,1.1c0,0.7-0.1,1.2-0.4,1.6s-0.7,0.6-1.2,0.6
		c-0.3,0-0.7-0.1-0.9-0.3v1.7c0,0.2-0.1,0.2-0.4,0.2h-0.2c-0.3,0-0.4-0.1-0.4-0.2v-4.3c0-0.4,0-0.6,0-0.8c0-0.2,0-0.3,0-0.3
		c0-0.1,0.1-0.1,0.3-0.2c0.2,0,0.3-0.1,0.5-0.1c0.1,0,0.1,0,0.2,0.1s0.1,0.2,0.1,0.2s0,0.1,0,0.2c0.1-0.2,0.3-0.3,0.5-0.4
		c0.2-0.1,0.4-0.2,0.7-0.2C125.3,102.1,125.5,102.2,125.8,102.4z M124.3,103.1c-0.1,0.1-0.3,0.2-0.4,0.4v1.9
		c0.2,0.2,0.4,0.2,0.7,0.2c0.6,0,0.9-0.4,0.9-1.3c0-0.4-0.1-0.8-0.2-1s-0.3-0.3-0.6-0.3C124.5,102.9,124.4,103,124.3,103.1z"/>
</g>
<g>
	<path d="M25.7,110.8c0.2,0.1,0.4,0.1,0.5,0.2c0.1,0.1,0.2,0.2,0.2,0.3c0,0.1,0,0.2-0.1,0.4c-0.1,0.2-0.2,0.2-0.2,0.2
		c0,0-0.1,0-0.2-0.1c-0.1-0.1-0.2-0.1-0.4-0.1c-0.1,0-0.3-0.1-0.4-0.1c-0.3,0-0.5,0.1-0.6,0.2c-0.1,0.1-0.2,0.3-0.2,0.4
		c0,0.2,0,0.3,0.1,0.4c0.1,0.1,0.2,0.2,0.3,0.2c0.1,0.1,0.3,0.1,0.5,0.2c0.3,0.1,0.6,0.2,0.8,0.4c0.2,0.1,0.4,0.3,0.5,0.5
		c0.1,0.2,0.2,0.5,0.2,0.8c0,0.6-0.2,1-0.5,1.3c-0.3,0.3-0.8,0.4-1.3,0.4c-0.3,0-0.7,0-0.9-0.1c-0.3-0.1-0.5-0.2-0.6-0.3
		c-0.2-0.1-0.2-0.2-0.2-0.3c0-0.1,0-0.2,0.1-0.2c0.1-0.1,0.1-0.2,0.2-0.3s0.1-0.1,0.2-0.1c0,0,0.1,0,0.2,0.1
		c0.2,0.1,0.3,0.2,0.5,0.2s0.3,0.1,0.6,0.1c0.2,0,0.4-0.1,0.6-0.2s0.2-0.3,0.2-0.5c0-0.1,0-0.3-0.1-0.4c-0.1-0.1-0.2-0.2-0.3-0.3
		s-0.3-0.1-0.5-0.2c-0.1-0.1-0.2-0.1-0.2-0.1c-0.2-0.1-0.5-0.2-0.6-0.3c-0.2-0.1-0.3-0.3-0.4-0.5s-0.2-0.5-0.2-0.8
		c0-0.3,0.1-0.6,0.3-0.9c0.2-0.2,0.4-0.4,0.7-0.5s0.6-0.2,0.9-0.2C25.3,110.7,25.5,110.7,25.7,110.8z"/>
	<path d="M30.4,112.7c0.3,0.4,0.4,0.9,0.4,1.5c0,0.1,0,0.1-0.1,0.3s-0.2,0.2-0.2,0.2h-2.2c0,0.4,0.1,0.6,0.3,0.8s0.4,0.2,0.7,0.2
		c0.2,0,0.3,0,0.5-0.1c0.1,0,0.3-0.1,0.4-0.2c0.1,0,0.1-0.1,0.2-0.1c0.1,0,0.1,0.1,0.2,0.2s0.1,0.2,0.1,0.3c0,0.1-0.1,0.2-0.2,0.3
		c-0.2,0.1-0.3,0.2-0.6,0.2c-0.2,0-0.4,0.1-0.6,0.1c-0.7,0-1.2-0.2-1.5-0.5c-0.3-0.4-0.5-0.9-0.5-1.6c0-0.7,0.2-1.3,0.5-1.6
		c0.3-0.4,0.8-0.5,1.4-0.5C29.7,112.1,30.1,112.3,30.4,112.7z M28.3,113.9h1.6c0-0.3-0.1-0.5-0.2-0.7c-0.1-0.2-0.3-0.3-0.5-0.3
		C28.6,112.9,28.3,113.3,28.3,113.9z"/>
	<path d="M33.9,112.2c0.1,0.1,0.1,0.2,0.1,0.3c0,0.1,0,0.2-0.1,0.4c0,0.1-0.1,0.2-0.2,0.2c0,0-0.1,0-0.2,0s-0.2,0-0.2,0
		c-0.2,0-0.3,0-0.4,0.1c-0.1,0.1-0.2,0.2-0.3,0.3v2.7c0,0.1-0.1,0.2-0.4,0.2h-0.2c-0.3,0-0.4-0.1-0.4-0.2v-2.6c0-0.4,0-0.6,0-0.8
		c0-0.2,0-0.3,0-0.3c0-0.1,0.1-0.1,0.3-0.2s0.3-0.1,0.5-0.1c0.1,0,0.1,0,0.2,0.1c0,0.1,0.1,0.2,0.1,0.2s0,0.1,0,0.2
		c0.1-0.2,0.2-0.3,0.4-0.4c0.1-0.1,0.3-0.2,0.5-0.2C33.7,112.1,33.8,112.2,33.9,112.2z"/>
	<path d="M37.9,112.3c0,0,0,0.1,0,0.1l-1.3,3.8c0,0.1-0.2,0.2-0.4,0.2h-0.3c-0.2,0-0.4-0.1-0.4-0.2l-1.3-3.8c0-0.1,0-0.1,0-0.1
		c0-0.1,0.1-0.2,0.4-0.2h0.2c0.2,0,0.4,0.1,0.4,0.2l0.6,1.9l0.2,0.7l0.1,0.3h0c0.1-0.4,0.2-0.7,0.2-1l0.6-1.9c0-0.1,0.2-0.2,0.4-0.2
		h0.1C37.7,112.2,37.9,112.2,37.9,112.3z"/>
	<path d="M39.5,110.6v0.6c0,0.1,0,0.1-0.1,0.2c-0.1,0-0.2,0.1-0.3,0.1h-0.2c-0.1,0-0.3,0-0.3-0.1c-0.1,0-0.1-0.1-0.1-0.2v-0.6
		c0-0.1,0.1-0.2,0.4-0.2h0.2C39.4,110.3,39.5,110.4,39.5,110.6z M39.5,112.4v3.8c0,0.1-0.1,0.2-0.4,0.2H39c-0.3,0-0.4-0.1-0.4-0.2
		v-3.8c0-0.1,0.1-0.2,0.4-0.2h0.2C39.4,112.2,39.5,112.2,39.5,112.4z"/>
	<path d="M43.3,112.3c0.3,0.1,0.4,0.2,0.4,0.3c0,0.1,0,0.2-0.1,0.3c-0.1,0.1-0.2,0.2-0.2,0.2c0,0,0,0-0.1,0
		c-0.2-0.1-0.5-0.2-0.8-0.2c-0.3,0-0.6,0.1-0.8,0.3c-0.2,0.2-0.2,0.6-0.2,1c0,0.5,0.1,0.8,0.2,1c0.2,0.2,0.4,0.3,0.8,0.3
		c0.3,0,0.6-0.1,0.8-0.2c0.1,0,0.1,0,0.1,0c0.1,0,0.2,0.1,0.2,0.2s0.1,0.2,0.1,0.3c0,0.1-0.1,0.2-0.2,0.3s-0.3,0.1-0.6,0.2
		s-0.4,0.1-0.6,0.1c-0.7,0-1.2-0.2-1.5-0.5s-0.5-0.9-0.5-1.6c0-0.7,0.2-1.3,0.5-1.6s0.8-0.5,1.5-0.5
		C42.8,112.1,43.1,112.2,43.3,112.3z"/>
	<path d="M47.5,112.7c0.3,0.4,0.4,0.9,0.4,1.5c0,0.1,0,0.1-0.1,0.3s-0.2,0.2-0.2,0.2h-2.2c0,0.4,0.1,0.6,0.3,0.8s0.4,0.2,0.7,0.2
		c0.2,0,0.3,0,0.5-0.1c0.1,0,0.3-0.1,0.4-0.2c0.1,0,0.1-0.1,0.2-0.1c0.1,0,0.1,0.1,0.2,0.2s0.1,0.2,0.1,0.3c0,0.1-0.1,0.2-0.2,0.3
		c-0.2,0.1-0.3,0.2-0.6,0.2c-0.2,0-0.4,0.1-0.6,0.1c-0.7,0-1.2-0.2-1.5-0.5c-0.3-0.4-0.5-0.9-0.5-1.6c0-0.7,0.2-1.3,0.5-1.6
		c0.3-0.4,0.8-0.5,1.4-0.5C46.8,112.1,47.3,112.3,47.5,112.7z M45.4,113.9H47c0-0.3-0.1-0.5-0.2-0.7c-0.1-0.2-0.3-0.3-0.5-0.3
		C45.7,112.9,45.5,113.3,45.4,113.9z"/>
</g>
</svg>
