<?xml version="1.0" encoding="utf-8"?>
<!-- Generator: Adobe Illustrator 19.1.0, SVG Export Plug-In . SVG Version: 6.00 Build 0)  -->
<svg version="1.1" id="Layer_1" xmlns="http://www.w3.org/2000/svg" xmlns:xlink="http://www.w3.org/1999/xlink" x="0px" y="0px"
	 width="165.2px" height="126px" viewBox="0 0 165.2 126" style="enable-background:new 0 0 165.2 126;" xml:space="preserve">
<style type="text/css">
	.st0{fill:#D1EE83;stroke:#97BD30;stroke-width:2.5;stroke-miterlimit:10;}
	.st1{fill:#D1EE83;stroke:#97BD30;stroke-width:4;stroke-miterlimit:10;}
	.st2{fill:#97BD30;}
	.st3{fill:none;stroke:#97BD30;stroke-width:4;stroke-miterlimit:10;}
	.st4{fill:none;stroke:#C8D2D2;stroke-width:4;stroke-miterlimit:10;}
	.st5{fill:#C8D2D2;}
	.st6{fill:#D1EE83;stroke:#97BD30;stroke-width:3.4991;stroke-miterlimit:10;}
	.st7{fill:#D1EE83;stroke:#97BD30;stroke-width:5.6814;stroke-miterlimit:10;}
	.st8{fill:none;stroke:#97BD30;stroke-width:4.8706;stroke-miterlimit:10;}
	.st9{fill:none;stroke:#C8D2D2;stroke-width:4.8076;stroke-miterlimit:10;}
	.st10{fill:none;stroke:#C8D2D2;stroke-width:3.2416;stroke-miterlimit:10;}
	.st11{fill:none;stroke:#97BD30;stroke-width:2.5;stroke-miterlimit:10;}
	.st12{fill:#EE9B83;stroke:#BD3130;stroke-width:2.5;stroke-miterlimit:10;}
	.st13{fill:#BD3130;}
	.st14{fill:none;stroke:#BD3130;stroke-width:4;stroke-miterlimit:10;}
	.st15{fill:#EE9B83;stroke:#BD3130;stroke-width:4;stroke-miterlimit:10;}
	.st16{fill:none;stroke:#97BD30;stroke-width:3;stroke-miterlimit:10;}
	.st17{fill:#FF990D;}
	.st18{fill:none;stroke:#BD3130;stroke-width:2.4036;stroke-miterlimit:10;}
	.st19{fill:none;stroke:#C8D2D2;stroke-width:2.4036;stroke-miterlimit:10;}
	.st20{fill:#EE9B83;stroke:#BD3130;stroke-width:2.4036;stroke-miterlimit:10;}
	.st21{fill:#D1EE83;stroke:#97BD30;stroke-width:1.8073;stroke-miterlimit:10;}
	.st22{fill:#D1EE83;stroke:#97BD30;stroke-width:3;stroke-miterlimit:10;}
	.st23{fill:none;stroke:#C8D2D2;stroke-width:3;stroke-miterlimit:10;}
	.st24{fill:#D1EE83;stroke:#97BD30;stroke-width:2.6609;stroke-miterlimit:10;}
	.st25{fill:none;stroke:#BD3130;stroke-width:2.6609;stroke-miterlimit:10;}
	.st26{fill:none;stroke:#97BD30;stroke-width:2.6609;stroke-miterlimit:10;}
	.st27{fill:#EE9B83;stroke:#BD3130;stroke-width:2.6609;stroke-miterlimit:10;}
	.st28{fill:none;stroke:#C8D2D2;stroke-width:2.6609;stroke-miterlimit:10;}
	.st29{fill:#EE9B83;stroke:#BD3130;stroke-width:1.8073;stroke-miterlimit:10;}
	.st30{fill:none;stroke:#97BD30;stroke-width:1.8069;stroke-miterlimit:10;}
	.st31{fill:none;stroke:#BD3130;stroke-width:2.9701;stroke-miterlimit:10;}
	.st32{fill:none;stroke:#C8D2D2;stroke-width:2.9701;stroke-miterlimit:10;}
	.st33{fill:#EE9B83;stroke:#BD3130;stroke-width:2.9701;stroke-miterlimit:10;}
	.st34{fill:none;stroke:#BD3130;stroke-width:3;stroke-miterlimit:10;}
	.st35{fill:#EE9B83;stroke:#BD3130;stroke-width:3;stroke-miterlimit:10;}
	.st36{fill:none;stroke:#BD3130;stroke-width:2.6101;stroke-miterlimit:10;}
	.st37{fill:none;stroke:#C8D2D2;stroke-width:2.6101;stroke-miterlimit:10;}
	.st38{fill:#EE9B83;stroke:#BD3130;stroke-width:2.6101;stroke-miterlimit:10;}
	.st39{fill:none;stroke:#97BD30;stroke-width:2.6364;stroke-miterlimit:10;}
	.st40{fill:none;stroke:#97BD30;stroke-width:1.8073;stroke-miterlimit:10;}
</style>
<polygon class="st23" points="66.8,54.4 83.5,83.1 100.1,54.4 "/>
<g>
	<path d="M79.5,61.1l1.8,5.2c0,0,0,0.1,0,0.1c0,0.1-0.1,0.2-0.4,0.2h-0.2c-0.2,0-0.4-0.1-0.4-0.2l-0.4-1.1h-2.1l-0.4,1.1
		c0,0.1-0.2,0.2-0.4,0.2h-0.2c-0.3,0-0.4-0.1-0.4-0.2c0,0,0-0.1,0-0.1l1.8-5.2c0-0.1,0.2-0.2,0.4-0.2h0.4C79.3,61,79.4,61,79.5,61.1
		z M78.9,62.2c0,0,0,0.1,0,0.2c0,0.1,0,0.2-0.1,0.3l-0.6,1.8h1.5L79,62.7C79,62.6,78.9,62.4,78.9,62.2L78.9,62.2z"/>
	<path d="M84.8,62.6c0.2,0.2,0.4,0.4,0.5,0.7c0.1,0.3,0.2,0.7,0.2,1.1c0,0.7-0.1,1.2-0.4,1.6s-0.7,0.6-1.2,0.6
		c-0.3,0-0.7-0.1-0.9-0.3V68c0,0.2-0.1,0.2-0.4,0.2h-0.2c-0.3,0-0.4-0.1-0.4-0.2v-4.3c0-0.4,0-0.6,0-0.8c0-0.2,0-0.3,0-0.3
		c0-0.1,0.1-0.1,0.3-0.2c0.2,0,0.3-0.1,0.5-0.1c0.1,0,0.1,0,0.2,0.1s0.1,0.2,0.1,0.2s0,0.1,0,0.2c0.1-0.2,0.3-0.3,0.5-0.4
		c0.2-0.1,0.4-0.2,0.7-0.2C84.3,62.4,84.6,62.5,84.8,62.6z M83.3,63.3c-0.1,0.1-0.3,0.2-0.4,0.4v1.9c0.2,0.2,0.4,0.2,0.7,0.2
		c0.6,0,0.9-0.4,0.9-1.3c0-0.4-0.1-0.8-0.2-1s-0.3-0.3-0.6-0.3C83.6,63.2,83.4,63.2,83.3,63.3z"/>
	<path d="M89.4,62.6c0.2,0.2,0.4,0.4,0.5,0.7c0.1,0.3,0.2,0.7,0.2,1.1c0,0.7-0.1,1.2-0.4,1.6s-0.7,0.6-1.2,0.6
		c-0.3,0-0.7-0.1-0.9-0.3V68c0,0.2-0.1,0.2-0.4,0.2h-0.2c-0.3,0-0.4-0.1-0.4-0.2v-4.3c0-0.4,0-0.6,0-0.8c0-0.2,0-0.3,0-0.3
		c0-0.1,0.1-0.1,0.3-0.2c0.2,0,0.3-0.1,0.5-0.1c0.1,0,0.1,0,0.2,0.1s0.1,0.2,0.1,0.2s0,0.1,0,0.2c0.1-0.2,0.3-0.3,0.5-0.4
		c0.2-0.1,0.4-0.2,0.7-0.2C88.9,62.4,89.2,62.5,89.4,62.6z M87.9,63.3c-0.1,0.1-0.3,0.2-0.4,0.4v1.9c0.2,0.2,0.4,0.2,0.7,0.2
		c0.6,0,0.9-0.4,0.9-1.3c0-0.4-0.1-0.8-0.2-1s-0.3-0.3-0.6-0.3C88.2,63.2,88,63.2,87.9,63.3z"/>
</g>
<path class="st16" d="M73.9,71.6C71,73.5,45.6,90.2,41.7,92.7"/>
<path class="st23" d="M44.6,103.5L33,85.7c-2.8-4.2-8.5-5.4-12.7-2.6l-2.6,1.7c-4.2,2.8-5.4,8.5-2.6,12.7l11.7,17.8
	c2.8,4.2,8.5,5.4,12.7,2.6l2.6-1.7C46.2,113.4,47.4,107.7,44.6,103.5z"/>
<path class="st5" d="M76.6,75.8L76.4,76c-0.7,0.5-1.7,0.3-2.2-0.5l-3.8-5.8c-0.5-0.7-0.3-1.7,0.5-2.2l0.2-0.2
	c0.7-0.5,1.7-0.3,2.2,0.5l3.8,5.8C77.6,74.3,77.4,75.3,76.6,75.8z"/>
<path class="st5" d="M38.1,89l0.2-0.2c0.7-0.5,1.7-0.3,2.2,0.5l3.8,5.8c0.5,0.7,0.3,1.7-0.5,2.2l-0.2,0.2C43,97.9,42,97.7,41.5,97
	l-3.8-5.8C37.2,90.5,37.4,89.5,38.1,89z"/>
<path class="st16" d="M93.1,71.6c2.9,1.9,28.3,18.6,32.1,21.1"/>
<path class="st23" d="M122.3,103.5l11.7-17.8c2.8-4.2,8.5-5.4,12.7-2.6l2.6,1.7c4.2,2.8,5.4,8.5,2.6,12.7l-11.7,17.8
	c-2.8,4.2-8.5,5.4-12.7,2.6l-2.6-1.7C120.7,113.4,119.5,107.7,122.3,103.5z"/>
<path class="st5" d="M90.4,75.8l0.2,0.2c0.7,0.5,1.7,0.3,2.2-0.5l3.8-5.8c0.5-0.7,0.3-1.7-0.5-2.2l-0.2-0.2
	c-0.7-0.5-1.7-0.3-2.2,0.5l-3.8,5.8C89.4,74.3,89.6,75.3,90.4,75.8z"/>
<g>
	<path d="M129.8,105.8c0.2-0.2,0.3-0.3,0.4-0.3c0.1-0.1,0.2-0.1,0.3,0c0.1,0.1,0.2,0.2,0.2,0.3s0.1,0.3,0.1,0.3c0,0-0.1,0-0.1,0.1
		c-0.1,0.1-0.2,0.1-0.3,0.2c-0.1,0.1-0.2,0.2-0.3,0.3c-0.2,0.2-0.2,0.5-0.2,0.6s0.1,0.3,0.3,0.4c0.1,0.1,0.3,0.1,0.4,0.1
		c0.1,0,0.2,0,0.4-0.1c0.1-0.1,0.3-0.2,0.5-0.3c0.3-0.2,0.5-0.3,0.7-0.4c0.2-0.1,0.4-0.2,0.7-0.2c0.3,0,0.5,0.1,0.8,0.3
		c0.5,0.3,0.7,0.7,0.8,1.1c0,0.4-0.1,0.9-0.4,1.3c-0.2,0.3-0.4,0.5-0.6,0.7s-0.4,0.3-0.6,0.4c-0.2,0.1-0.3,0.1-0.4,0
		c-0.1,0-0.1-0.1-0.2-0.2c-0.1-0.1-0.1-0.2-0.1-0.3c0-0.1,0-0.2,0-0.2c0,0,0.1-0.1,0.2-0.1c0.2-0.1,0.3-0.2,0.5-0.3s0.3-0.2,0.4-0.4
		c0.1-0.2,0.2-0.4,0.2-0.6c0-0.2-0.1-0.4-0.3-0.5c-0.1-0.1-0.2-0.1-0.4-0.1c-0.1,0-0.3,0.1-0.4,0.1c-0.1,0.1-0.3,0.2-0.5,0.3
		c-0.1,0.1-0.2,0.1-0.2,0.2c-0.2,0.1-0.4,0.3-0.6,0.3c-0.2,0.1-0.4,0.1-0.6,0.1c-0.2,0-0.5-0.1-0.7-0.3c-0.3-0.2-0.5-0.4-0.6-0.7
		c-0.1-0.3-0.1-0.6-0.1-0.9c0.1-0.3,0.2-0.6,0.4-0.9C129.5,106.2,129.6,106,129.8,105.8z"/>
	<path d="M133.9,102.9c0.5,0,1,0.1,1.5,0.5c0,0,0.1,0.1,0.1,0.3c0,0.1,0,0.2,0,0.3l-1.2,1.9c0.3,0.2,0.6,0.2,0.8,0.2
		c0.2-0.1,0.4-0.2,0.6-0.5c0.1-0.1,0.2-0.3,0.2-0.4c0-0.1,0.1-0.3,0.1-0.4c0-0.1,0-0.1,0-0.2c0-0.1,0.1-0.1,0.3-0.1s0.3,0,0.3,0.1
		c0.1,0.1,0.1,0.2,0.1,0.3c0,0.2-0.1,0.4-0.1,0.6s-0.2,0.4-0.3,0.6c-0.4,0.6-0.8,0.9-1.3,1c-0.5,0.1-1-0.1-1.6-0.4
		c-0.6-0.4-1-0.8-1.1-1.3c-0.1-0.5,0-1,0.3-1.5C133.1,103.2,133.5,103,133.9,102.9z M133.8,105.4l0.9-1.3c-0.3-0.2-0.5-0.3-0.7-0.2
		c-0.2,0-0.4,0.1-0.5,0.3C133.2,104.6,133.3,105,133.8,105.4z"/>
	<path d="M135.5,99.8c0.1,0,0.2,0,0.3,0.1c0.1,0.1,0.2,0.1,0.3,0.3c0.1,0.1,0.1,0.2,0.1,0.2c0,0-0.1,0.1-0.1,0.1s-0.1,0.1-0.2,0.2
		c-0.1,0.1-0.1,0.3-0.1,0.4c0,0.1,0,0.3,0.1,0.4l2.3,1.5c0.1,0.1,0.1,0.2,0,0.5l-0.1,0.1c-0.2,0.2-0.3,0.3-0.4,0.2l-2.2-1.4
		c-0.3-0.2-0.5-0.3-0.7-0.4c-0.2-0.1-0.2-0.1-0.3-0.1c-0.1,0-0.1-0.1,0-0.3c0.1-0.2,0.1-0.3,0.2-0.4c0-0.1,0.1-0.1,0.2-0.1
		c0.1,0,0.2,0,0.2,0.1c0.1,0,0.1,0.1,0.2,0.1c-0.1-0.2-0.1-0.4-0.2-0.6c0-0.2,0-0.3,0.1-0.5C135.3,99.9,135.4,99.8,135.5,99.8z"/>
	<path d="M137.7,96.5c0,0,0.1,0,0.1,0.1l2.4,3.1c0.1,0.1,0,0.2-0.1,0.4l-0.1,0.2c-0.1,0.2-0.2,0.3-0.4,0.3l-3.9-1
		c-0.1,0-0.1,0-0.1,0c-0.1-0.1-0.1-0.2,0.1-0.5l0.1-0.1c0.1-0.2,0.2-0.3,0.4-0.3l1.9,0.5l0.7,0.2l0.3,0.1l0,0
		c-0.3-0.3-0.5-0.5-0.7-0.7l-1.2-1.5c-0.1-0.1,0-0.2,0.1-0.4l0.1-0.1C137.5,96.5,137.6,96.5,137.7,96.5z"/>
	<path d="M138.7,95.2l3.2,2.1c0.1,0.1,0.1,0.2,0,0.5l-0.1,0.1c-0.2,0.2-0.3,0.3-0.4,0.2l-3.1-2.1c-0.1-0.1-0.1-0.2,0-0.5l0.1-0.1
		C138.4,95.1,138.6,95.1,138.7,95.2z M137.2,94.1l0.5,0.3c0.1,0,0.1,0.1,0.1,0.2c0,0.1,0,0.2-0.1,0.3l-0.1,0.1
		c-0.1,0.1-0.2,0.2-0.2,0.2c-0.1,0-0.1,0-0.2,0l-0.5-0.3c-0.1-0.1-0.1-0.2,0-0.5l0.1-0.1C136.9,94.1,137.1,94.1,137.2,94.1z"/>
	<path d="M140.7,91.9c0.2-0.2,0.4-0.2,0.5-0.1c0.1,0,0.1,0.1,0.2,0.3c0.1,0.2,0.1,0.3,0.1,0.3c0,0,0,0-0.1,0.1
		c-0.2,0.1-0.4,0.3-0.6,0.5c-0.2,0.3-0.2,0.5-0.1,0.8c0.1,0.3,0.3,0.5,0.7,0.8c0.4,0.3,0.7,0.4,1,0.4c0.3,0,0.5-0.2,0.7-0.5
		c0.2-0.2,0.2-0.5,0.3-0.8c0-0.1,0-0.1,0-0.1c0-0.1,0.1-0.1,0.3-0.1c0.2,0,0.3,0,0.3,0.1c0.1,0.1,0.1,0.2,0.1,0.3
		c0,0.2-0.1,0.4-0.2,0.6c-0.1,0.2-0.2,0.4-0.3,0.5c-0.4,0.6-0.8,0.9-1.3,1c-0.5,0.1-1-0.1-1.6-0.5c-0.6-0.4-1-0.8-1.1-1.3
		c-0.1-0.5,0-1,0.4-1.5C140.3,92.3,140.5,92.1,140.7,91.9z"/>
	<path d="M143.3,88.6c0.5,0,1,0.1,1.5,0.5c0,0,0.1,0.1,0.1,0.3c0,0.1,0,0.2,0,0.3l-1.2,1.9c0.3,0.2,0.6,0.2,0.8,0.2
		c0.2-0.1,0.4-0.2,0.6-0.5c0.1-0.1,0.2-0.3,0.2-0.4c0-0.1,0.1-0.3,0.1-0.4c0-0.1,0-0.1,0-0.2c0-0.1,0.1-0.1,0.3-0.1s0.3,0,0.3,0.1
		c0.1,0.1,0.1,0.2,0.1,0.3s-0.1,0.4-0.1,0.6c-0.1,0.2-0.2,0.4-0.3,0.6c-0.4,0.6-0.8,0.9-1.3,1c-0.5,0.1-1-0.1-1.6-0.4
		c-0.6-0.4-1-0.8-1.1-1.3c-0.1-0.5,0-1,0.3-1.5C142.5,88.9,142.9,88.7,143.3,88.6z M143.2,91.1l0.9-1.3c-0.3-0.2-0.5-0.3-0.7-0.2
		c-0.2,0-0.4,0.1-0.5,0.3C142.6,90.3,142.7,90.7,143.2,91.1z"/>
</g>
<g>
	<path d="M25.9,91.3c0.1,0.2,0.1,0.4,0.1,0.5c0,0.2,0,0.3-0.1,0.3c-0.1,0.1-0.2,0.1-0.4,0.1c-0.2,0-0.3,0-0.3-0.1c0,0,0-0.1,0-0.2
		c0-0.1-0.1-0.2-0.1-0.4c0-0.1-0.1-0.2-0.2-0.4c-0.2-0.2-0.3-0.4-0.5-0.4c-0.2,0-0.3,0-0.5,0.1c-0.1,0.1-0.2,0.2-0.2,0.3
		c0,0.1,0,0.3,0,0.4c0,0.1,0.1,0.3,0.1,0.6c0.1,0.3,0.1,0.6,0.2,0.8c0,0.2,0,0.5-0.1,0.7c-0.1,0.2-0.3,0.5-0.5,0.7
		c-0.5,0.3-0.9,0.4-1.3,0.3c-0.4-0.1-0.8-0.4-1.1-0.8c-0.2-0.3-0.4-0.6-0.5-0.8c-0.1-0.3-0.2-0.5-0.2-0.7c0-0.2,0-0.3,0.1-0.4
		c0.1,0,0.1-0.1,0.2-0.1c0.1,0,0.2,0,0.3,0c0.1,0,0.2,0,0.2,0.1c0,0,0,0.1,0,0.2c0,0.2,0.1,0.4,0.1,0.5c0,0.2,0.1,0.3,0.3,0.5
		c0.1,0.2,0.3,0.3,0.5,0.4c0.2,0.1,0.4,0,0.6-0.1c0.1-0.1,0.2-0.2,0.2-0.3c0-0.1,0-0.3,0-0.4c0-0.1-0.1-0.3-0.1-0.6
		c0-0.1-0.1-0.2-0.1-0.3c-0.1-0.3-0.1-0.5-0.1-0.7c0-0.2,0-0.4,0.1-0.6c0.1-0.2,0.3-0.4,0.5-0.6c0.3-0.2,0.6-0.3,0.8-0.3
		c0.3,0,0.6,0.1,0.8,0.2c0.3,0.2,0.5,0.4,0.7,0.6C25.7,90.9,25.9,91.1,25.9,91.3z"/>
	<path d="M27.2,96.2c-0.1,0.4-0.5,0.9-1,1.2c0,0-0.1,0-0.3,0c-0.1,0-0.2,0-0.3-0.1l-1.3-1.8c-0.3,0.2-0.4,0.5-0.4,0.7
		c0,0.2,0.1,0.5,0.2,0.7c0.1,0.1,0.2,0.3,0.3,0.3c0.1,0.1,0.2,0.2,0.4,0.2c0.1,0,0.1,0.1,0.1,0.1c0,0.1,0,0.2,0,0.3
		c-0.1,0.2-0.1,0.3-0.2,0.3c-0.1,0.1-0.2,0.1-0.4,0c-0.2-0.1-0.3-0.2-0.5-0.3c-0.2-0.2-0.3-0.3-0.4-0.5c-0.4-0.6-0.6-1.1-0.5-1.6
		c0.1-0.5,0.4-0.9,1-1.3c0.6-0.4,1.1-0.6,1.6-0.6c0.5,0.1,0.9,0.3,1.3,0.8C27.2,95.3,27.3,95.7,27.2,96.2z M25,95.2l0.9,1.3
		c0.2-0.2,0.4-0.4,0.5-0.6c0.1-0.2,0-0.4-0.1-0.6C26,94.9,25.5,94.8,25,95.2z"/>
	<path d="M29.6,98.7c0,0.1-0.1,0.2-0.2,0.2c-0.1,0.1-0.2,0.1-0.3,0.2c-0.1,0-0.2,0.1-0.3,0c0,0,0-0.1-0.1-0.2c0-0.1-0.1-0.2-0.1-0.2
		c-0.1-0.1-0.2-0.2-0.4-0.2c-0.1,0-0.3-0.1-0.4,0l-2.2,1.6c-0.1,0.1-0.3,0-0.4-0.2l-0.1-0.1c-0.2-0.2-0.2-0.4-0.1-0.5l2.1-1.6
		c0.3-0.2,0.5-0.4,0.6-0.5c0.1-0.1,0.2-0.2,0.2-0.2c0.1,0,0.2,0,0.3,0.1c0.1,0.1,0.2,0.2,0.3,0.3c0,0.1,0.1,0.1,0,0.2
		c0,0.1-0.1,0.1-0.1,0.2C28.6,98,28.5,98,28.5,98c0.2,0,0.4,0,0.6,0.1c0.2,0.1,0.3,0.2,0.4,0.3C29.6,98.5,29.7,98.6,29.6,98.7z"/>
	<path d="M31.9,102c0,0-0.1,0-0.1,0.1l-3.8,1.2c-0.1,0-0.2,0-0.4-0.2l-0.2-0.2c-0.1-0.2-0.2-0.3-0.1-0.4l2.3-3.3
		c0,0,0.1-0.1,0.1-0.1c0.1-0.1,0.2,0,0.4,0.3l0.1,0.1c0.1,0.2,0.2,0.3,0.1,0.4l-1.2,1.6l-0.5,0.5l-0.2,0.2l0,0
		c0.4-0.2,0.7-0.3,0.9-0.4l1.9-0.6c0.1,0,0.2,0,0.4,0.2l0.1,0.1C32,101.8,32,101.9,31.9,102z"/>
	<path d="M32.8,103.4l-3,2.2c-0.1,0.1-0.3,0-0.4-0.2l-0.1-0.1c-0.2-0.2-0.2-0.4-0.1-0.5l3-2.2c0.1-0.1,0.3,0,0.4,0.2l0.1,0.1
		C32.9,103.1,33,103.3,32.8,103.4z M34.3,102.3l-0.5,0.3c-0.1,0-0.1,0.1-0.2,0c-0.1,0-0.1-0.1-0.2-0.2l-0.1-0.1
		c-0.1-0.1-0.1-0.2-0.1-0.3c0-0.1,0-0.1,0.1-0.2l0.5-0.3c0.1-0.1,0.3,0,0.4,0.2l0.1,0.1C34.4,102,34.4,102.2,34.3,102.3z"/>
	<path d="M35.2,106.4c0.1,0.3,0.1,0.4,0,0.5c-0.1,0-0.2,0.1-0.4,0.1c-0.2,0-0.3,0-0.3-0.1c0,0,0,0,0-0.1c0-0.3-0.1-0.5-0.3-0.7
		c-0.2-0.3-0.4-0.4-0.7-0.4c-0.3,0-0.6,0.1-1,0.4c-0.4,0.3-0.6,0.5-0.7,0.8c-0.1,0.3,0,0.5,0.2,0.8c0.2,0.2,0.4,0.4,0.6,0.5
		c0.1,0,0.1,0.1,0.1,0.1c0,0.1,0,0.2,0,0.3c-0.1,0.2-0.1,0.3-0.2,0.3c-0.1,0.1-0.2,0.1-0.4,0c-0.2-0.1-0.3-0.2-0.5-0.3
		c-0.2-0.1-0.3-0.3-0.4-0.4c-0.4-0.5-0.6-1-0.5-1.5c0.1-0.5,0.4-0.9,1-1.4c0.6-0.4,1.1-0.6,1.6-0.6c0.5,0.1,0.9,0.4,1.3,0.9
		C35,105.8,35.1,106.1,35.2,106.4z"/>
	<path d="M37.3,110c-0.1,0.4-0.5,0.9-1,1.2c0,0-0.1,0-0.3,0c-0.1,0-0.2,0-0.3-0.1l-1.3-1.8c-0.3,0.2-0.4,0.5-0.4,0.7
		c0,0.2,0.1,0.5,0.2,0.7c0.1,0.1,0.2,0.3,0.3,0.3c0.1,0.1,0.2,0.2,0.4,0.2c0.1,0,0.1,0.1,0.1,0.1c0,0.1,0,0.2,0,0.3
		c-0.1,0.2-0.1,0.3-0.2,0.3c-0.1,0.1-0.2,0.1-0.4,0s-0.3-0.2-0.5-0.3c-0.2-0.2-0.3-0.3-0.4-0.5c-0.4-0.6-0.6-1.1-0.5-1.6
		c0.1-0.5,0.4-0.9,1-1.3c0.6-0.4,1.1-0.6,1.6-0.6c0.5,0.1,0.9,0.3,1.3,0.8C37.4,109.1,37.5,109.5,37.3,110z M35.1,109l0.9,1.3
		c0.2-0.2,0.4-0.4,0.5-0.6c0.1-0.2,0-0.4-0.1-0.6C36.1,108.7,35.7,108.6,35.1,109z"/>
</g>
<path class="st5" d="M128.7,89l-0.2-0.2c-0.7-0.5-1.7-0.3-2.2,0.5l-3.8,5.8c-0.5,0.7-0.3,1.7,0.5,2.2l0.2,0.2
	c0.7,0.5,1.7,0.3,2.2-0.5l3.8-5.8C129.7,90.5,129.5,89.5,128.7,89z"/>
<g>
	<path class="st16" d="M65.2,53.2c-2.8-2-27.4-19.9-31.1-22.5"/>
	<path class="st23" d="M25.2,37.1l12.5-17.2c3-4.1,2-9.8-2-12.8l-2.5-1.8c-4.1-3-9.8-2-12.8,2L7.8,24.5c-3,4.1-2,9.8,2,12.8l2.5,1.8
		C16.5,42.1,22.2,41.1,25.2,37.1z"/>
	<path class="st5" d="M62.3,57.3L62,57.1c-0.7-0.5-0.9-1.5-0.4-2.2l4.1-5.6c0.5-0.7,1.5-0.9,2.2-0.4l0.2,0.2
		c0.7,0.5,0.9,1.5,0.4,2.2l-4.1,5.6C64,57.7,63,57.8,62.3,57.3z"/>
	<path class="st5" d="M36.4,25.8l0.2,0.2c0.7,0.5,0.9,1.5,0.4,2.2L33,33.8c-0.5,0.7-1.5,0.9-2.2,0.4L30.5,34
		c-0.7-0.5-0.9-1.5-0.4-2.2l4.1-5.6C34.7,25.5,35.7,25.3,36.4,25.8z"/>
	<g>
		<path d="M13.5,27.6c0.2-0.1,0.3-0.2,0.5-0.3c0.1-0.1,0.3,0,0.3,0c0.1,0.1,0.1,0.2,0.2,0.3c0.1,0.2,0.1,0.3,0,0.3
			c0,0-0.1,0-0.1,0.1c-0.1,0.1-0.2,0.1-0.3,0.2c-0.1,0.1-0.2,0.2-0.3,0.3c-0.2,0.2-0.3,0.4-0.3,0.6s0.1,0.3,0.2,0.4
			c0.1,0.1,0.2,0.2,0.4,0.2c0.1,0,0.3,0,0.4-0.1c0.1-0.1,0.3-0.1,0.5-0.3c0.3-0.2,0.5-0.3,0.8-0.4c0.2-0.1,0.5-0.1,0.7-0.1
			c0.3,0,0.5,0.2,0.8,0.4c0.4,0.4,0.6,0.8,0.6,1.2c0,0.4-0.2,0.9-0.5,1.3c-0.2,0.3-0.5,0.5-0.7,0.6c-0.2,0.2-0.4,0.3-0.6,0.3
			c-0.2,0-0.3,0-0.4,0c-0.1,0-0.1-0.1-0.1-0.2c0-0.1-0.1-0.2-0.1-0.3c0-0.1,0-0.2,0-0.2c0,0,0.1-0.1,0.2-0.1
			c0.2-0.1,0.3-0.1,0.5-0.2c0.1-0.1,0.3-0.2,0.4-0.4c0.2-0.2,0.2-0.4,0.3-0.6c0-0.2-0.1-0.4-0.2-0.5c-0.1-0.1-0.2-0.1-0.4-0.1
			c-0.1,0-0.3,0-0.4,0.1c-0.1,0.1-0.3,0.1-0.5,0.3c-0.1,0.1-0.2,0.1-0.2,0.1c-0.2,0.1-0.5,0.2-0.7,0.3c-0.2,0-0.4,0.1-0.6,0
			c-0.2,0-0.5-0.2-0.7-0.4c-0.3-0.2-0.4-0.5-0.5-0.7c-0.1-0.3-0.1-0.6,0-0.9c0.1-0.3,0.2-0.6,0.5-0.8C13.2,27.9,13.4,27.7,13.5,27.6
			z"/>
		<path d="M18,25.2c0.5,0,0.9,0.2,1.4,0.7c0,0,0.1,0.1,0.1,0.3c0,0.1,0,0.2,0,0.3l-1.4,1.7c0.3,0.2,0.6,0.3,0.8,0.3
			c0.2,0,0.4-0.2,0.7-0.4c0.1-0.1,0.2-0.3,0.3-0.4c0.1-0.1,0.1-0.3,0.1-0.4C20,27,20,27,20,27c0-0.1,0.1-0.1,0.3,0
			c0.2,0,0.3,0.1,0.3,0.1c0.1,0.1,0.1,0.2,0.1,0.4c0,0.2-0.1,0.4-0.2,0.6s-0.2,0.4-0.4,0.5c-0.4,0.5-0.9,0.8-1.4,0.8
			c-0.5,0-1-0.2-1.5-0.6c-0.6-0.5-0.9-1-0.9-1.4c-0.1-0.5,0.1-1,0.5-1.4C17.1,25.4,17.6,25.2,18,25.2z M17.6,27.6l1-1.2
			c-0.2-0.2-0.5-0.3-0.7-0.3c-0.2,0-0.4,0.1-0.5,0.2C17.1,26.7,17.1,27.1,17.6,27.6z"/>
		<path d="M19.9,22.2c0.1,0,0.2,0,0.3,0.1c0.1,0.1,0.2,0.2,0.2,0.3c0.1,0.1,0.1,0.2,0.1,0.3c0,0-0.1,0.1-0.1,0.1
			c-0.1,0-0.1,0.1-0.2,0.2c-0.1,0.1-0.1,0.3-0.1,0.4c0,0.1,0,0.3,0,0.4l2.1,1.7c0.1,0.1,0.1,0.3-0.1,0.5L22,26.2
			c-0.2,0.2-0.3,0.3-0.4,0.2l-2-1.7c-0.3-0.2-0.5-0.4-0.6-0.5c-0.1-0.1-0.2-0.1-0.3-0.2c-0.1,0,0-0.2,0-0.3c0.1-0.2,0.2-0.3,0.3-0.4
			c0.1-0.1,0.1-0.1,0.2-0.1c0.1,0,0.2,0,0.2,0.1c0.1,0,0.1,0.1,0.2,0.1c-0.1-0.2-0.1-0.4-0.1-0.6c0-0.2,0.1-0.3,0.2-0.5
			C19.7,22.3,19.8,22.2,19.9,22.2z"/>
		<path d="M22.5,19.3c0,0,0.1,0.1,0.1,0.1l2.1,3.4c0.1,0.1,0,0.2-0.1,0.4l-0.2,0.2c-0.2,0.2-0.3,0.3-0.4,0.2l-3.7-1.5
			c-0.1,0-0.1,0-0.1-0.1c-0.1-0.1,0-0.2,0.2-0.4l0.1-0.1c0.2-0.2,0.3-0.3,0.4-0.2l1.8,0.8l0.6,0.3l0.3,0.1l0,0
			c-0.3-0.3-0.5-0.6-0.6-0.8L21.9,20c-0.1-0.1,0-0.2,0.1-0.4l0.1-0.1C22.3,19.3,22.5,19.2,22.5,19.3z"/>
		<path d="M23.7,18l2.9,2.4c0.1,0.1,0.1,0.3-0.1,0.5L26.3,21c-0.2,0.2-0.3,0.3-0.4,0.2L23,18.8c-0.1-0.1-0.1-0.2,0.1-0.5l0.1-0.1
			C23.4,18,23.5,17.9,23.7,18z M22.3,16.8l0.4,0.4c0.1,0,0.1,0.1,0.1,0.2c0,0.1-0.1,0.2-0.2,0.3l-0.1,0.1c-0.1,0.1-0.2,0.2-0.2,0.2
			c-0.1,0-0.1,0-0.2,0l-0.4-0.4c-0.1-0.1-0.1-0.3,0.1-0.5l0.1-0.1C22,16.8,22.2,16.7,22.3,16.8z"/>
		<path d="M26,15c0.2-0.1,0.4-0.2,0.5-0.1c0.1,0,0.1,0.2,0.2,0.3c0.1,0.2,0.1,0.3,0,0.3c0,0,0,0-0.1,0.1c-0.3,0.1-0.5,0.3-0.6,0.5
			c-0.2,0.3-0.3,0.5-0.2,0.8c0.1,0.3,0.3,0.5,0.6,0.8c0.4,0.3,0.7,0.5,0.9,0.5c0.3,0,0.5-0.1,0.7-0.4c0.2-0.2,0.3-0.5,0.4-0.8
			c0-0.1,0-0.1,0-0.1c0-0.1,0.2-0.1,0.3,0c0.2,0,0.3,0.1,0.3,0.1c0.1,0.1,0.1,0.2,0.1,0.4c0,0.2-0.1,0.3-0.2,0.5
			c-0.1,0.2-0.2,0.3-0.3,0.5c-0.4,0.5-0.9,0.8-1.4,0.8c-0.5,0-1-0.2-1.6-0.7c-0.6-0.5-0.9-1-0.9-1.4c0-0.5,0.1-1,0.5-1.5
			C25.5,15.4,25.8,15.2,26,15z"/>
		<path d="M29,12.1c0.5,0,0.9,0.2,1.4,0.7c0,0,0.1,0.1,0.1,0.3c0,0.1,0,0.2,0,0.3L29.1,15c0.3,0.2,0.6,0.3,0.8,0.3
			c0.2,0,0.4-0.2,0.7-0.4c0.1-0.1,0.2-0.3,0.3-0.4c0.1-0.1,0.1-0.3,0.1-0.4c0-0.1,0-0.1,0.1-0.2c0-0.1,0.1-0.1,0.3,0
			c0.2,0,0.3,0.1,0.3,0.1c0.1,0.1,0.1,0.2,0.1,0.4c0,0.2-0.1,0.4-0.2,0.6c-0.1,0.2-0.2,0.4-0.4,0.5c-0.4,0.5-0.9,0.8-1.4,0.8
			c-0.5,0-1-0.2-1.5-0.6c-0.6-0.5-0.9-1-0.9-1.4c-0.1-0.5,0.1-1,0.5-1.4C28.2,12.3,28.6,12.1,29,12.1z M28.6,14.5l1-1.2
			c-0.2-0.2-0.5-0.3-0.7-0.3c-0.2,0-0.4,0.1-0.5,0.2C28.1,13.6,28.1,14,28.6,14.5z"/>
	</g>
</g>
<path class="st16" d="M102.8,53.2c2.8-2,27.4-19.9,31.1-22.5"/>
<path class="st23" d="M142.8,37.1l-12.5-17.2c-3-4.1-2-9.8,2-12.8l2.5-1.8c4.1-3,9.8-2,12.8,2l12.5,17.2c3,4.1,2,9.8-2,12.8
	l-2.5,1.8C151.5,42.1,145.8,41.1,142.8,37.1z"/>
<path class="st5" d="M105.8,57.3l0.2-0.2c0.7-0.5,0.9-1.5,0.4-2.2l-4.1-5.6c-0.5-0.7-1.5-0.9-2.2-0.4l-0.2,0.2
	c-0.7,0.5-0.9,1.5-0.4,2.2l4.1,5.6C104.1,57.7,105.1,57.8,105.8,57.3z"/>
<path class="st5" d="M131.6,25.8l-0.2,0.2c-0.7,0.5-0.9,1.5-0.4,2.2l4.1,5.6c0.5,0.7,1.5,0.9,2.2,0.4l0.2-0.2
	c0.7-0.5,0.9-1.5,0.4-2.2l-4.1-5.6C133.3,25.5,132.3,25.3,131.6,25.8z"/>
<g>
	<path d="M142.9,12.9c0.1,0.2,0.1,0.4,0.1,0.5c0,0.2,0,0.3-0.1,0.3c-0.1,0.1-0.2,0.1-0.4,0.1c-0.2,0-0.3,0-0.3-0.1c0,0,0-0.1,0-0.2
		c0-0.1-0.1-0.2-0.1-0.4c0-0.1-0.1-0.2-0.2-0.4c-0.2-0.2-0.3-0.4-0.5-0.4c-0.2,0-0.3,0-0.5,0.1c-0.1,0.1-0.2,0.2-0.2,0.3
		c0,0.1,0,0.3,0,0.4c0,0.1,0.1,0.3,0.1,0.6c0.1,0.3,0.1,0.6,0.2,0.8c0,0.2,0,0.5-0.1,0.7c-0.1,0.2-0.3,0.5-0.6,0.7
		c-0.5,0.3-0.9,0.4-1.3,0.3c-0.4-0.1-0.8-0.4-1.1-0.8c-0.2-0.3-0.4-0.6-0.5-0.8c-0.1-0.3-0.2-0.5-0.2-0.7c0-0.2,0-0.3,0.1-0.4
		c0.1,0,0.1-0.1,0.2-0.1c0.1,0,0.2,0,0.3,0c0.1,0,0.2,0,0.2,0.1c0,0,0,0.1,0,0.2c0,0.2,0.1,0.4,0.1,0.5c0,0.2,0.1,0.3,0.3,0.5
		c0.1,0.2,0.3,0.3,0.5,0.4c0.2,0.1,0.4,0,0.6-0.1c0.1-0.1,0.2-0.2,0.2-0.3c0-0.1,0-0.3,0-0.4c0-0.1-0.1-0.3-0.1-0.6
		c0-0.1-0.1-0.2-0.1-0.3c-0.1-0.3-0.1-0.5-0.1-0.7c0-0.2,0.1-0.4,0.2-0.6c0.1-0.2,0.3-0.4,0.5-0.6c0.3-0.2,0.6-0.3,0.8-0.3
		c0.3,0,0.6,0.1,0.8,0.2c0.3,0.2,0.5,0.4,0.7,0.7C142.7,12.5,142.9,12.7,142.9,12.9z"/>
	<path d="M144.1,17.8c-0.1,0.4-0.5,0.8-1,1.2c0,0-0.1,0-0.3,0c-0.1,0-0.2,0-0.3-0.1l-1.3-1.8c-0.3,0.2-0.4,0.5-0.5,0.7
		c0,0.2,0,0.5,0.2,0.7c0.1,0.1,0.2,0.3,0.3,0.3c0.1,0.1,0.2,0.2,0.4,0.2c0.1,0,0.1,0.1,0.1,0.1c0,0.1,0,0.2,0,0.3s-0.1,0.3-0.2,0.3
		c-0.1,0.1-0.2,0.1-0.4,0c-0.2-0.1-0.3-0.2-0.5-0.3s-0.3-0.3-0.4-0.5c-0.4-0.6-0.5-1.1-0.5-1.6c0.1-0.5,0.4-0.9,1-1.3
		c0.6-0.4,1.1-0.6,1.6-0.5c0.5,0.1,0.9,0.3,1.3,0.8C144.2,16.9,144.3,17.4,144.1,17.8z M141.9,16.8l0.9,1.3c0.3-0.2,0.4-0.4,0.5-0.6
		c0.1-0.2,0-0.4-0.1-0.6C142.9,16.5,142.5,16.5,141.9,16.8z"/>
	<path d="M146.5,20.4c0,0.1-0.1,0.2-0.2,0.2c-0.1,0.1-0.2,0.1-0.3,0.2c-0.1,0-0.2,0-0.3,0c0,0,0-0.1-0.1-0.2c0-0.1-0.1-0.2-0.1-0.2
		c-0.1-0.1-0.2-0.2-0.4-0.2c-0.1,0-0.3-0.1-0.4-0.1l-2.2,1.6c-0.1,0.1-0.3,0-0.4-0.2l-0.1-0.1c-0.2-0.2-0.2-0.4-0.1-0.5l2.1-1.5
		c0.3-0.2,0.5-0.4,0.6-0.5c0.1-0.1,0.2-0.2,0.2-0.2c0.1,0,0.2,0,0.3,0.1c0.1,0.1,0.2,0.2,0.3,0.3c0,0.1,0.1,0.1,0,0.2
		c0,0.1-0.1,0.1-0.1,0.2c-0.1,0.1-0.1,0.1-0.1,0.1c0.2,0,0.4,0,0.6,0.1c0.2,0.1,0.3,0.2,0.4,0.3C146.5,20.2,146.6,20.3,146.5,20.4z"
		/>
	<path d="M148.8,23.7c0,0-0.1,0-0.1,0.1l-3.8,1.1c-0.1,0-0.2,0-0.4-0.2l-0.2-0.2c-0.1-0.2-0.2-0.3-0.1-0.4l2.3-3.2
		c0,0,0.1-0.1,0.1-0.1c0.1-0.1,0.2,0,0.4,0.3l0.1,0.1c0.1,0.2,0.2,0.3,0.1,0.4l-1.2,1.6l-0.5,0.5l-0.2,0.2l0,0
		c0.4-0.2,0.7-0.3,0.9-0.4l1.9-0.6c0.1,0,0.2,0.1,0.4,0.2l0.1,0.1C148.8,23.5,148.8,23.6,148.8,23.7z"/>
	<path d="M149.7,25.1l-3.1,2.2c-0.1,0.1-0.3,0-0.4-0.2l-0.1-0.1c-0.2-0.2-0.2-0.4-0.1-0.5l3.1-2.2c0.1-0.1,0.3,0,0.4,0.2l0.1,0.1
		C149.8,24.8,149.8,25,149.7,25.1z M151.2,24l-0.5,0.3c-0.1,0-0.1,0-0.2,0c-0.1,0-0.1-0.1-0.2-0.2l-0.1-0.1
		c-0.1-0.1-0.1-0.2-0.1-0.3c0-0.1,0-0.1,0.1-0.2l0.5-0.3c0.1-0.1,0.3,0,0.4,0.2l0.1,0.1C151.3,23.8,151.3,23.9,151.2,24z"/>
	<path d="M152,28.1c0.1,0.3,0.1,0.4-0.1,0.5c-0.1,0-0.2,0.1-0.4,0.1c-0.2,0-0.3,0-0.3-0.1c0,0,0,0,0-0.1c0-0.3-0.1-0.5-0.3-0.7
		c-0.2-0.3-0.4-0.4-0.7-0.4c-0.3,0-0.6,0.1-1,0.4c-0.4,0.3-0.6,0.5-0.7,0.8c-0.1,0.3,0,0.5,0.2,0.8c0.2,0.2,0.4,0.4,0.6,0.6
		c0.1,0,0.1,0.1,0.1,0.1c0,0.1,0,0.2,0,0.3c-0.1,0.2-0.1,0.2-0.2,0.3c-0.1,0.1-0.2,0.1-0.4,0c-0.2-0.1-0.3-0.2-0.5-0.4
		c-0.2-0.2-0.3-0.3-0.4-0.4c-0.4-0.5-0.5-1.1-0.4-1.5c0.1-0.5,0.4-0.9,1-1.3c0.6-0.4,1.1-0.6,1.6-0.5c0.5,0.1,0.9,0.4,1.3,0.9
		C151.8,27.6,151.9,27.8,152,28.1z"/>
	<path d="M154.1,31.8c-0.1,0.4-0.5,0.8-1,1.2c0,0-0.1,0-0.3,0c-0.1,0-0.2,0-0.3-0.1l-1.3-1.8c-0.3,0.2-0.4,0.5-0.5,0.7
		c0,0.2,0,0.5,0.2,0.7c0.1,0.1,0.2,0.3,0.3,0.3c0.1,0.1,0.2,0.2,0.4,0.2c0.1,0,0.1,0.1,0.1,0.1c0,0.1,0,0.2,0,0.3s-0.1,0.3-0.2,0.3
		c-0.1,0.1-0.2,0.1-0.4,0c-0.2-0.1-0.3-0.2-0.5-0.3c-0.2-0.2-0.3-0.3-0.4-0.5c-0.4-0.6-0.5-1.1-0.4-1.6c0.1-0.5,0.4-0.9,1-1.3
		c0.6-0.4,1.1-0.6,1.6-0.5c0.5,0.1,0.9,0.3,1.3,0.8C154.1,30.9,154.2,31.3,154.1,31.8z M151.8,30.7l0.9,1.3c0.3-0.2,0.4-0.4,0.5-0.6
		c0.1-0.2,0-0.4-0.1-0.6C152.8,30.4,152.4,30.4,151.8,30.7z"/>
</g>
</svg>
