<?xml version="1.0" encoding="utf-8"?>
<!-- Generator: Adobe Illustrator 19.1.0, SVG Export Plug-In . SVG Version: 6.00 Build 0)  -->
<svg version="1.1" id="Layer_1" xmlns="http://www.w3.org/2000/svg" xmlns:xlink="http://www.w3.org/1999/xlink" x="0px" y="0px"
	 width="372px" height="82px" viewBox="-119 356 372 82" style="enable-background:new -119 356 372 82;" xml:space="preserve">
<style type="text/css">
	.st0{fill:#FFFFFF;stroke:#E71D32;stroke-width:2;}
	.st1{opacity:0.11;fill:#E71D32;stroke:#E71D32;stroke-width:2;enable-background:new    ;}
	.st2{enable-background:new    ;}
	.st3{fill:#E71D32;}
	.st4{fill:none;stroke:#E71D32;stroke-width:2;stroke-linecap:square;}
</style>
<title>Group 4</title>
<desc>Created with Sketch.</desc>
<g>
	<path id="Rectangle-2-Copy-2" class="st0" d="M-115,357h364c1.7,0,3,1.3,3,3v73c0,1.7-1.3,3-3,3h-364c-1.7,0-3-1.3-3-3v-73
		C-118,358.3-116.7,357-115,357z"/>
	<path id="Rectangle-2-Copy-2_1_" class="st1" d="M-115,357h74c1.7,0,3,1.3,3,3v73c0,1.7-1.3,3-3,3h-74c-1.7,0-3-1.3-3-3v-73
		C-118,358.3-116.7,357-115,357z"/>
	<g class="st2">
		<path class="st3" d="M-17.1,386.2h-5.2c-0.1,0-0.2,0-0.2-0.2l0.1-0.6c0-0.2,0.1-0.2,0.3-0.2h11.5c0.2,0,0.2,0,0.3,0.2l0.1,0.6
			c0,0.1,0,0.2-0.2,0.2h-5.2v19.4c0,0.3-0.1,0.4-0.2,0.4h-0.8c-0.2,0-0.2-0.1-0.2-0.2V386.2z"/>
		<path class="st3" d="M-7.3,384.6c0-0.1,0.1-0.3,0.2-0.3l0.8-0.1c0.2,0,0.2,0.1,0.2,0.2v6c0,1-0.1,1.9-0.1,1.9
			c0.8-1.1,2-1.6,4.1-1.6h0.1c2.6,0,4.8,0.8,4.8,4.5v10.5c0,0.2-0.1,0.2-0.2,0.2H1.9c-0.1,0-0.2-0.1-0.2-0.2v-10.4
			c0-2.8-1.3-3.5-3.7-3.5h-0.2c-2.2,0-3.9,0.7-3.9,3.5v10.4c0,0.2-0.1,0.2-0.2,0.2H-7c-0.2,0-0.2-0.1-0.2-0.2V384.6z"/>
		<path class="st3" d="M7.6,395.4c0-3.5,1.9-4.6,5.3-4.6h0.3c3,0,4.8,1,4.8,4v0.5c0,3.2-1.7,3.5-4.4,3.5c-2.1,0-4.3-0.5-4.7-0.6v3.3
			c0,3,1.5,3.6,4,3.6c1.9,0,3.2-0.2,4.2-0.5c0.1,0,0.2,0,0.2,0.2l-0.1,0.7c0,0.2-0.1,0.2-0.2,0.3c-0.7,0.2-2.1,0.4-4,0.4h-0.2
			c-2.9,0-5.1-0.8-5.1-4.6V395.4z M8.8,397.2c0.3,0.1,2.5,0.7,4.7,0.7c2,0,3.2-0.2,3.2-2.6v-0.4c0-2-0.9-3-3.7-3h-0.2
			c-2.5,0-4.1,0.7-4.1,3.5V397.2z"/>
		<path class="st3" d="M28.4,404.8c0-0.2,0.1-0.3,0.2-0.2c0.9,0.3,2.5,0.6,4.4,0.6h0.2c2.2,0,3.5-0.5,3.5-2.8v-0.6
			c0-1.9-0.8-2.5-3.1-3l-1.2-0.2c-2.5-0.5-4-1.3-4-3.7v-0.5c0-2.9,2.2-3.5,4.5-3.5h0.1c1.1,0,2.7,0.2,3.6,0.4c0.2,0,0.3,0.1,0.3,0.2
			l0.1,0.6c0,0.1-0.1,0.2-0.2,0.2c-0.7-0.2-2.3-0.5-3.6-0.5h-0.1c-1.9,0-3.4,0.5-3.4,2.4v0.5c0,1.6,0.9,2.2,3,2.6l1.2,0.2
			c2.9,0.5,4,1.3,4,4v0.7c0,3.3-2,3.8-4.7,3.8h-0.2c-1.8,0-3.7-0.3-4.3-0.5c-0.2,0-0.2-0.1-0.3-0.3L28.4,404.8z"/>
		<path class="st3" d="M45.1,411.7c0-0.1,0-0.2,0.2-0.2c0.2,0.1,1.4,0.2,1.9,0.2c1.9,0,3.7-0.3,3.7-3.4v-2c0-1,0-2,0-2
			c-0.8,1.2-2.1,1.6-4.1,1.6h-0.1c-2.7,0-4.8-0.8-4.8-4.6v-10c0-0.2,0.1-0.3,0.2-0.3l0.8-0.1c0.2,0,0.2,0.1,0.2,0.2v10
			c0,2.8,1.3,3.5,3.7,3.5h0.2c2.3,0,3.8-0.7,3.8-3.5v-10.1c0-0.2,0.1-0.2,0.2-0.2l0.8,0.1c0.1,0,0.2,0.1,0.2,0.3v16.8
			c0,3.8-2.2,4.6-4.7,4.6c-0.8,0-1.8-0.1-2.1-0.2c-0.1,0-0.1-0.1-0.1-0.2L45.1,411.7z"/>
		<path class="st3" d="M56.4,404.8c0-0.2,0.1-0.3,0.2-0.2c0.9,0.3,2.5,0.6,4.4,0.6h0.2c2.2,0,3.5-0.5,3.5-2.8v-0.6
			c0-1.9-0.8-2.5-3.1-3l-1.2-0.2c-2.5-0.5-4-1.3-4-3.7v-0.5c0-2.9,2.2-3.5,4.5-3.5h0.1c1.1,0,2.7,0.2,3.6,0.4c0.2,0,0.3,0.1,0.3,0.2
			l0.1,0.6c0,0.1-0.1,0.2-0.2,0.2c-0.7-0.2-2.3-0.5-3.6-0.5h-0.1c-1.9,0-3.4,0.5-3.4,2.4v0.5c0,1.6,0.9,2.2,3,2.6l1.2,0.2
			c2.9,0.5,4,1.3,4,4v0.7c0,3.3-2,3.8-4.7,3.8h-0.2c-1.8,0-3.7-0.3-4.3-0.5c-0.2,0-0.2-0.1-0.3-0.3L56.4,404.8z"/>
		<path class="st3" d="M70.1,392.1H68c-0.2,0-0.2-0.1-0.2-0.2v-0.5c0-0.2,0.1-0.2,0.2-0.2h2.1v-4.1c0-0.2,0-0.3,0.2-0.3l0.8-0.1
			c0.1,0,0.3,0,0.3,0.2v4.2h4.2c0.2,0,0.2,0,0.3,0.2l0.1,0.6c0,0.1-0.1,0.2-0.2,0.2h-4.3v10.1c0,2.5,1.1,2.8,2.9,2.8
			c0.6,0,1.2-0.1,1.6-0.2c0.2,0,0.2,0,0.2,0.2l-0.1,0.6c0,0.2-0.1,0.3-0.2,0.3c-0.4,0.1-1,0.1-1.6,0.1c-2.3,0-4-0.4-4-3.9V392.1z"/>
		<path class="st3" d="M79.1,395.4c0-3.5,1.9-4.6,5.3-4.6h0.3c3,0,4.8,1,4.8,4v0.5c0,3.2-1.7,3.5-4.4,3.5c-2.1,0-4.3-0.5-4.7-0.6
			v3.3c0,3,1.5,3.6,4,3.6c1.9,0,3.2-0.2,4.2-0.5c0.1,0,0.2,0,0.2,0.2l-0.1,0.7c0,0.2-0.1,0.2-0.2,0.3c-0.7,0.2-2.1,0.4-4,0.4h-0.2
			c-2.9,0-5.1-0.8-5.1-4.6V395.4z M80.4,397.2c0.3,0.1,2.5,0.7,4.7,0.7c2,0,3.2-0.2,3.2-2.6v-0.4c0-2-0.9-3-3.7-3h-0.2
			c-2.5,0-4.1,0.7-4.1,3.5V397.2z"/>
		<path class="st3" d="M93.8,392.1c0-0.1,0.1-0.2,0.2-0.3c1-0.4,2.6-0.9,4.4-0.9h0.1c2.2,0,3.4,0.7,4,2.1c0.5-1.4,1.9-2.1,4.1-2.1
			h0.1c2.6,0,4.5,0.9,4.5,4.3v10.6c0,0.2,0,0.2-0.2,0.2h-0.8c-0.2,0-0.2-0.1-0.2-0.2v-10.7c0-2.6-1.4-3.2-3.3-3.2h-0.1
			c-1.9,0-3.5,0.6-3.5,3.2v10.7c0,0.2-0.1,0.2-0.2,0.2h-0.8c-0.2,0-0.2-0.1-0.2-0.2v-10.7c0-2.6-1.5-3.2-3.3-3.2h-0.1
			c-1.3,0-2.6,0.3-3.4,0.7v13.2c0,0.2-0.1,0.2-0.2,0.2h-0.8c-0.2,0-0.2-0.1-0.2-0.2V392.1z"/>
		<path class="st3" d="M123.1,386c0-0.2,0-0.2,0.2-0.2h1c0.2,0,0.2,0.1,0.2,0.2v2c0,0.2-0.1,0.2-0.2,0.2h-1c-0.2,0-0.2-0.1-0.2-0.2
			V386z M123.1,391.4c0-0.2,0.1-0.2,0.2-0.3l0.8-0.1c0.2,0,0.2,0,0.2,0.2v14.5c0,0.2-0.1,0.2-0.2,0.2h-0.8c-0.2,0-0.2-0.1-0.2-0.2
			V391.4z"/>
		<path class="st3" d="M128.6,404.8c0-0.2,0.1-0.3,0.2-0.2c0.9,0.3,2.6,0.6,4.4,0.6h0.2c2.2,0,3.5-0.5,3.5-2.8v-0.6
			c0-1.9-0.8-2.5-3.2-3l-1.2-0.2c-2.6-0.5-4-1.3-4-3.7v-0.5c0-2.9,2.2-3.5,4.5-3.5h0.1c1.1,0,2.7,0.2,3.6,0.4c0.2,0,0.3,0.1,0.3,0.2
			l0.1,0.6c0,0.1-0.1,0.2-0.2,0.2c-0.7-0.2-2.3-0.5-3.6-0.5h-0.1c-1.9,0-3.4,0.5-3.4,2.4v0.5c0,1.6,0.9,2.2,3,2.6l1.2,0.2
			c2.9,0.5,4.1,1.3,4.1,4v0.7c0,3.3-2,3.8-4.7,3.8h-0.2c-1.8,0-3.7-0.3-4.3-0.5c-0.2,0-0.2-0.1-0.3-0.3L128.6,404.8z"/>
		<path class="st3" d="M148.9,395.4c0-3.8,2.2-4.6,5.1-4.6h0.2c2.3,0,3.5,0.5,4.2,1.6c0,0-0.1-0.9-0.1-2v-5.9c0-0.2,0.1-0.2,0.2-0.2
			l0.8,0.1c0.2,0,0.2,0.1,0.2,0.3v17.3c0,3.7-2.3,4.4-5.3,4.4h-0.2c-2.9,0-5.2-0.9-5.2-4.6V395.4z M154.3,405.2
			c2.4,0,4.1-0.6,4.1-3.5v-6.4c0-2.7-1.6-3.5-4-3.5h-0.2c-2.5,0-4.1,0.7-4.1,3.5v6.4c0,2.8,1.7,3.5,3.9,3.5H154.3z"/>
		<path class="st3" d="M164.3,395.4c0-3.8,2.3-4.6,5.3-4.6h0.2c2.9,0,5.2,0.8,5.2,4.6v6.4c0,3.7-2.3,4.6-5.3,4.6h-0.2
			c-2.9,0-5.2-0.8-5.2-4.6V395.4z M169.7,405.2c2.4,0,4-0.7,4-3.5v-6.4c0-2.8-1.6-3.5-3.9-3.5h-0.2c-2.4,0-4,0.7-4,3.5v6.4
			c0,2.9,1.6,3.5,3.9,3.5H169.7z"/>
		<path class="st3" d="M178,391.5c0-0.1,0-0.3,0.2-0.3l0.8-0.1c0.2,0,0.2,0.1,0.3,0.2l2.3,9.2c0.5,1.9,1,4,1,4.4h0.1
			c0.1-0.4,0.7-2.7,1.3-4.6l2.6-8.9c0.1-0.2,0.2-0.2,0.3-0.2h1.1c0.2,0,0.2,0,0.3,0.2l2.7,9.1c0.6,1.9,1.2,4.1,1.2,4.4h0.1
			c0.1-0.4,0.6-2.7,1.1-4.6l2.3-9c0-0.1,0.1-0.2,0.2-0.2l0.8,0.1c0.2,0,0.2,0.1,0.2,0.3l-3.8,14.4c0,0.2-0.1,0.2-0.3,0.2h-1.2
			c-0.1,0-0.2-0.1-0.3-0.2l-3-10.2c-0.3-1.1-0.7-2.5-0.9-3.2h-0.1c-0.1,0.8-0.5,2.1-0.8,3.1l-3.1,10.2c-0.1,0.2-0.1,0.2-0.3,0.2
			h-1.1c-0.2,0-0.3-0.1-0.3-0.2L178,391.5z"/>
		<path class="st3" d="M200.2,392.1c0-0.2,0.1-0.3,0.2-0.3c1-0.4,2.9-0.9,5.1-0.9c2.8,0,4.9,0.8,4.9,4.5v10.4c0,0.2-0.1,0.2-0.2,0.2
			h-0.8c-0.2,0-0.2-0.1-0.2-0.2v-10.4c0-2.8-1.4-3.5-3.7-3.5c-1.7,0-3.2,0.4-4,0.7v13.2c0,0.2-0.1,0.2-0.2,0.2h-0.8
			c-0.2,0-0.2-0.1-0.2-0.2V392.1z"/>
	</g>
	<path id="Line-4" class="st4" d="M-37,357.7v78.7"/>
	<g id="Group-6" transform="translate(22.000000, 18.000000)">
		<path id="Shape" class="st3" d="M-94.5,356l-24.5,43h49L-94.5,356L-94.5,356z M-94.5,362.1l18.4,32.8h-36.8L-94.5,362.1
			L-94.5,362.1z"/>
		<polygon id="Shape_1_" class="st3" points="-96.6,372.2 -96.6,375.4 -95.7,383.5 -94,383.5 -93.1,375.4 -93.1,372.2 		"/>
		<ellipse id="Oval" class="st3" cx="-94.8" cy="388.8" rx="1.8" ry="1.8"/>
	</g>
</g>
</svg>
