<?xml version="1.0" encoding="utf-8"?>
<!-- Generator: Adobe Illustrator 19.1.0, SVG Export Plug-In . SVG Version: 6.00 Build 0)  -->
<svg version="1.1" id="Layer_1" xmlns="http://www.w3.org/2000/svg" xmlns:xlink="http://www.w3.org/1999/xlink" x="0px" y="0px"
	 width="150.4px" height="134.3px" viewBox="0 0 150.4 134.3" style="enable-background:new 0 0 150.4 134.3;" xml:space="preserve"
	>
<style type="text/css">
	.st0{fill:#D1EE83;stroke:#97BD30;stroke-width:2.5;stroke-miterlimit:10;}
	.st1{fill:#D1EE83;stroke:#97BD30;stroke-width:4;stroke-miterlimit:10;}
	.st2{fill:#97BD30;}
	.st3{fill:none;stroke:#97BD30;stroke-width:4;stroke-miterlimit:10;}
	.st4{fill:none;stroke:#C8D2D2;stroke-width:4;stroke-miterlimit:10;}
	.st5{fill:#C8D2D2;}
	.st6{fill:#D1EE83;stroke:#97BD30;stroke-width:3.4991;stroke-miterlimit:10;}
	.st7{fill:#D1EE83;stroke:#97BD30;stroke-width:5.6814;stroke-miterlimit:10;}
	.st8{fill:none;stroke:#97BD30;stroke-width:4.8706;stroke-miterlimit:10;}
	.st9{fill:none;stroke:#C8D2D2;stroke-width:4.8076;stroke-miterlimit:10;}
	.st10{fill:none;stroke:#C8D2D2;stroke-width:3.2416;stroke-miterlimit:10;}
	.st11{fill:none;stroke:#97BD30;stroke-width:2.5;stroke-miterlimit:10;}
	.st12{fill:#EE9B83;stroke:#BD3130;stroke-width:2.5;stroke-miterlimit:10;}
	.st13{fill:#BD3130;}
	.st14{fill:none;stroke:#BD3130;stroke-width:4;stroke-miterlimit:10;}
	.st15{fill:#EE9B83;stroke:#BD3130;stroke-width:4;stroke-miterlimit:10;}
	.st16{fill:none;stroke:#97BD30;stroke-width:3;stroke-miterlimit:10;}
	.st17{fill:#FF990D;}
	.st18{fill:none;stroke:#BD3130;stroke-width:2.4036;stroke-miterlimit:10;}
	.st19{fill:none;stroke:#C8D2D2;stroke-width:2.4036;stroke-miterlimit:10;}
	.st20{fill:#EE9B83;stroke:#BD3130;stroke-width:2.4036;stroke-miterlimit:10;}
	.st21{fill:#D1EE83;stroke:#97BD30;stroke-width:1.8073;stroke-miterlimit:10;}
	.st22{fill:#D1EE83;stroke:#97BD30;stroke-width:3;stroke-miterlimit:10;}
	.st23{fill:none;stroke:#C8D2D2;stroke-width:3;stroke-miterlimit:10;}
	.st24{fill:#D1EE83;stroke:#97BD30;stroke-width:2.6609;stroke-miterlimit:10;}
	.st25{fill:none;stroke:#BD3130;stroke-width:2.6609;stroke-miterlimit:10;}
	.st26{fill:none;stroke:#97BD30;stroke-width:2.6609;stroke-miterlimit:10;}
	.st27{fill:#EE9B83;stroke:#BD3130;stroke-width:2.6609;stroke-miterlimit:10;}
	.st28{fill:none;stroke:#C8D2D2;stroke-width:2.6609;stroke-miterlimit:10;}
	.st29{fill:#EE9B83;stroke:#BD3130;stroke-width:1.8073;stroke-miterlimit:10;}
	.st30{fill:none;stroke:#97BD30;stroke-width:1.8069;stroke-miterlimit:10;}
	.st31{fill:none;stroke:#BD3130;stroke-width:2.9701;stroke-miterlimit:10;}
	.st32{fill:none;stroke:#C8D2D2;stroke-width:2.9701;stroke-miterlimit:10;}
	.st33{fill:#EE9B83;stroke:#BD3130;stroke-width:2.9701;stroke-miterlimit:10;}
	.st34{fill:none;stroke:#BD3130;stroke-width:3;stroke-miterlimit:10;}
	.st35{fill:#EE9B83;stroke:#BD3130;stroke-width:3;stroke-miterlimit:10;}
	.st36{fill:none;stroke:#BD3130;stroke-width:2.6101;stroke-miterlimit:10;}
	.st37{fill:none;stroke:#C8D2D2;stroke-width:2.6101;stroke-miterlimit:10;}
	.st38{fill:#EE9B83;stroke:#BD3130;stroke-width:2.6101;stroke-miterlimit:10;}
	.st39{fill:none;stroke:#97BD30;stroke-width:2.6364;stroke-miterlimit:10;}
	.st40{fill:none;stroke:#97BD30;stroke-width:1.8073;stroke-miterlimit:10;}
</style>
<g>
	<path class="st22" d="M102,88.1H43c-1,0-1.9-0.9-1.9-1.9V38.3c0-1,0.9-1.9,1.9-1.9h59c1,0,1.9,0.9,1.9,1.9v47.9
		C103.9,87.3,103,88.1,102,88.1z"/>
	<path class="st2" d="M105.8,70.2L105.8,70.2c-1.3,0-2.3-1-2.3-2.3V56.7c0-1.3,1-2.3,2.3-2.3l0,0c1.3,0,2.3,1,2.3,2.3v11.2
		C108.1,69.1,107.1,70.2,105.8,70.2z"/>
	<path class="st2" d="M39.1,70.2L39.1,70.2c-1.3,0-2.3-1-2.3-2.3V56.7c0-1.3,1-2.3,2.3-2.3h0c1.3,0,2.3,1,2.3,2.3v11.2
		C41.4,69.1,40.3,70.2,39.1,70.2z"/>
	<path class="st16" d="M39.1,62.3c0,0-13-3.3-13,14.7s0,27.3,0,27.3"/>
	<path class="st16" d="M105.5,62.3c0,0,13-3.3,13,14.7c0,4.6,0,15,0,18.4"/>
	<path class="st23" d="M45.1,128.2H23.9c-5,0-9.1-4.1-9.1-9.1v-3.1c0-5,4.1-9.1,9.1-9.1h21.2c5,0,9.1,4.1,9.1,9.1v3.1
		C54.3,124,50.1,128.2,45.1,128.2z"/>
	<polygon class="st23" points="102.2,98.4 118.8,127.2 135.5,98.4 	"/>
	<path class="st5" d="M21.1,103.7v-0.3c0-0.9,0.7-1.6,1.6-1.6h6.9c0.9,0,1.6,0.7,1.6,1.6v0.3c0,0.9-0.7,1.6-1.6,1.6h-6.9
		C21.8,105.3,21.1,104.6,21.1,103.7z"/>
	<path class="st5" d="M123.5,95.4v-0.3c0-0.9-0.7-1.6-1.6-1.6H115c-0.9,0-1.6,0.7-1.6,1.6v0.3c0,0.9,0.7,1.6,1.6,1.6h6.9
		C122.8,97,123.5,96.3,123.5,95.4z"/>
</g>
<g>
	<path d="M13.9,6.7c0.4,0.1,0.8,0.2,1.1,0.3c0.3,0.1,0.4,0.3,0.4,0.5c0,0.1,0,0.3-0.1,0.4S15,8.3,14.9,8.4c-0.1,0.1-0.2,0.2-0.3,0.2
		c0,0-0.1,0-0.3-0.1c-0.2-0.1-0.4-0.2-0.7-0.3s-0.6-0.1-1-0.1c-0.9,0-1.6,0.3-2.1,0.8c-0.4,0.6-0.7,1.4-0.7,2.6c0,1.2,0.2,2,0.7,2.6
		c0.4,0.6,1.1,0.9,2,0.9c0.4,0,0.8,0,1.1-0.1c0.3-0.1,0.6-0.2,0.9-0.3c0.1-0.1,0.3-0.1,0.3-0.1c0.1,0,0.2,0.1,0.3,0.2
		s0.2,0.3,0.3,0.5c0.1,0.2,0.1,0.3,0.1,0.4c0,0.2-0.2,0.4-0.5,0.6s-0.7,0.3-1.2,0.4c-0.5,0.1-0.9,0.1-1.4,0.1
		c-1.6,0-2.7-0.4-3.5-1.2c-0.7-0.8-1.1-2.1-1.1-3.8c0-3.3,1.5-5,4.6-5C13,6.5,13.4,6.6,13.9,6.7z"/>
	<path d="M18.6,6.3v1c0,0.1-0.1,0.2-0.2,0.3c-0.1,0.1-0.3,0.1-0.6,0.1h-0.3c-0.3,0-0.5,0-0.6-0.1c-0.1-0.1-0.2-0.2-0.2-0.3v-1
		c0-0.3,0.2-0.4,0.7-0.4h0.3C18.4,5.9,18.6,6,18.6,6.3z M18.6,9.5v6.6c0,0.3-0.2,0.4-0.7,0.4h-0.3c-0.5,0-0.7-0.1-0.7-0.4V9.5
		c0-0.3,0.2-0.4,0.7-0.4h0.3C18.4,9.1,18.6,9.2,18.6,9.5z"/>
	<path d="M24.4,9.2c0.1,0.1,0.2,0.3,0.2,0.5s0,0.4-0.1,0.6c-0.1,0.3-0.2,0.4-0.3,0.4c0,0-0.1,0-0.3-0.1c-0.1,0-0.3-0.1-0.4-0.1
		c-0.3,0-0.5,0.1-0.7,0.3c-0.2,0.2-0.4,0.3-0.5,0.5v4.7c0,0.3-0.2,0.4-0.7,0.4h-0.3c-0.5,0-0.7-0.1-0.7-0.4v-4.6
		c0-0.6,0-1.1-0.1-1.4c-0.1-0.3-0.1-0.5-0.1-0.5c0-0.1,0.2-0.2,0.5-0.3c0.3-0.1,0.6-0.1,0.8-0.1c0.1,0,0.3,0.1,0.3,0.2
		c0.1,0.1,0.1,0.3,0.1,0.4c0,0.1,0.1,0.2,0.1,0.3c0.2-0.3,0.4-0.6,0.7-0.8C23.2,9.1,23.5,9,23.8,9C24.1,9,24.3,9.1,24.4,9.2z"/>
	<path d="M30.4,9.2c0.5,0.2,0.7,0.4,0.7,0.6c0,0.1-0.1,0.3-0.2,0.6c-0.2,0.3-0.3,0.4-0.4,0.4c0,0-0.1,0-0.2-0.1
		c-0.4-0.2-0.9-0.3-1.3-0.3c-0.6,0-1,0.2-1.3,0.6s-0.4,1-0.4,1.8c0,0.8,0.1,1.4,0.4,1.8c0.3,0.4,0.7,0.6,1.3,0.6
		c0.5,0,1-0.1,1.4-0.3c0.1-0.1,0.2-0.1,0.2-0.1c0.1,0,0.3,0.1,0.4,0.4c0.1,0.2,0.2,0.4,0.2,0.6c0,0.2-0.1,0.3-0.4,0.5
		s-0.6,0.2-1,0.3c-0.4,0.1-0.7,0.1-1,0.1c-1.2,0-2.1-0.3-2.6-0.9c-0.6-0.6-0.9-1.5-0.9-2.8c0-1.3,0.3-2.2,0.9-2.9
		C26.9,9.3,27.7,9,28.9,9C29.4,9,29.9,9.1,30.4,9.2z"/>
	<path d="M38.3,9.5v4.6c0,0.6,0,1.1,0.1,1.4c0.1,0.3,0.1,0.5,0.1,0.5c0,0.1-0.2,0.2-0.5,0.3c-0.3,0.1-0.6,0.1-0.8,0.1
		c-0.1,0-0.3-0.1-0.3-0.2s-0.1-0.3-0.1-0.4c0-0.2-0.1-0.3-0.1-0.3c-0.3,0.3-0.6,0.6-0.9,0.8c-0.4,0.2-0.8,0.3-1.2,0.3
		c-1.4,0-2.1-0.8-2.1-2.3V9.5c0-0.3,0.2-0.4,0.7-0.4h0.3c0.5,0,0.7,0.1,0.7,0.4V14c0,0.7,0.3,1.1,1,1.1c0.3,0,0.5-0.1,0.8-0.3
		c0.2-0.2,0.4-0.4,0.6-0.6V9.5c0-0.3,0.2-0.4,0.7-0.4h0.3C38.1,9.1,38.3,9.2,38.3,9.5z"/>
	<path d="M42.1,6.3v1c0,0.1-0.1,0.2-0.2,0.3c-0.1,0.1-0.3,0.1-0.6,0.1H41c-0.3,0-0.5,0-0.6-0.1c-0.1-0.1-0.2-0.2-0.2-0.3v-1
		c0-0.3,0.2-0.4,0.7-0.4h0.3C41.8,5.9,42.1,6,42.1,6.3z M42,9.5v6.6c0,0.3-0.2,0.4-0.7,0.4H41c-0.5,0-0.7-0.1-0.7-0.4V9.5
		c0-0.3,0.2-0.4,0.7-0.4h0.3C41.8,9.1,42,9.2,42,9.5z"/>
	<path d="M46,7.7v1.4h0.9c0.1,0,0.2,0,0.3,0.1c0.1,0.1,0.1,0.2,0.1,0.5v0.2c0,0.2,0,0.4-0.1,0.5s-0.2,0.1-0.3,0.1H46v3.8
		c0,0.3,0,0.5,0.1,0.6s0.2,0.2,0.4,0.2c0.1,0,0.2,0,0.3,0s0.1,0,0.2,0c0.1,0,0.2,0.1,0.3,0.4c0.1,0.2,0.1,0.4,0.1,0.5
		c0,0.4-0.4,0.6-1.2,0.6c-0.6,0-1.1-0.2-1.4-0.5c-0.4-0.3-0.5-0.9-0.5-1.6v-3.9h-0.4c-0.1,0-0.2,0-0.3-0.1s-0.1-0.2-0.1-0.5V9.7
		c0-0.2,0-0.4,0.1-0.5c0.1-0.1,0.2-0.1,0.3-0.1h0.4l0.2-1.4c0-0.3,0.2-0.4,0.6-0.4h0.3C45.8,7.3,46,7.5,46,7.7z"/>
	<path d="M57.9,7.3c0.5,0.4,0.8,1,0.8,1.8c0,0.5-0.1,0.9-0.4,1.3c-0.3,0.4-0.7,0.7-1.1,0.8v0.1c0.3,0.1,0.5,0.2,0.8,0.4
		c0.3,0.2,0.6,0.5,0.8,0.8c0.2,0.3,0.3,0.7,0.3,1.1c0,0.9-0.3,1.6-0.9,2.1c-0.6,0.5-1.5,0.7-2.7,0.7h-2.8c-0.2,0-0.3,0-0.4-0.1
		c-0.1-0.1-0.1-0.2-0.1-0.4V7.1c0-0.2,0-0.3,0.1-0.4c0.1-0.1,0.2-0.1,0.4-0.1h2.7C56.6,6.6,57.4,6.9,57.9,7.3z M54.1,8.2v2.5h1.2
		c0.5,0,0.8-0.1,1.1-0.4c0.3-0.2,0.4-0.5,0.4-0.9c0-0.4-0.1-0.7-0.4-0.9s-0.6-0.3-1.2-0.3H54.1z M54.1,12.2v2.7h1.6
		c0.5,0,0.8-0.1,1.1-0.4s0.4-0.6,0.4-1c0-0.4-0.1-0.7-0.4-1c-0.3-0.2-0.7-0.3-1.3-0.3H54.1z"/>
	<path d="M64.3,9.2c0.1,0.1,0.2,0.3,0.2,0.5s0,0.4-0.1,0.6c-0.1,0.3-0.2,0.4-0.3,0.4c0,0-0.1,0-0.3-0.1c-0.1,0-0.3-0.1-0.4-0.1
		c-0.3,0-0.5,0.1-0.7,0.3c-0.2,0.2-0.4,0.3-0.5,0.5v4.7c0,0.3-0.2,0.4-0.7,0.4h-0.3c-0.5,0-0.7-0.1-0.7-0.4v-4.6
		c0-0.6,0-1.1-0.1-1.4c-0.1-0.3-0.1-0.5-0.1-0.5c0-0.1,0.2-0.2,0.5-0.3c0.3-0.1,0.6-0.1,0.8-0.1c0.1,0,0.3,0.1,0.3,0.2
		C62,9.5,62,9.6,62.1,9.8c0,0.1,0.1,0.2,0.1,0.3c0.2-0.3,0.4-0.6,0.7-0.8C63.1,9.1,63.3,9,63.7,9C64,9,64.2,9.1,64.3,9.2z"/>
	<path d="M70.8,10c0.5,0.7,0.7,1.5,0.7,2.6c0,0.1-0.1,0.2-0.2,0.4c-0.2,0.2-0.3,0.3-0.4,0.3h-3.9c0,0.6,0.2,1.1,0.5,1.4
		s0.7,0.4,1.3,0.4c0.3,0,0.6,0,0.8-0.1c0.2-0.1,0.5-0.2,0.7-0.3c0.1-0.1,0.2-0.1,0.3-0.1c0.1,0,0.3,0.1,0.4,0.4
		c0.2,0.2,0.2,0.4,0.2,0.6c0,0.2-0.1,0.3-0.4,0.5s-0.6,0.3-1,0.4s-0.8,0.1-1.1,0.1c-1.2,0-2.1-0.3-2.7-1s-0.9-1.6-0.9-2.8
		c0-1.3,0.3-2.2,0.9-2.9C66.7,9.3,67.5,9,68.6,9C69.6,9,70.4,9.3,70.8,10z M67.1,12.1h2.8c0-0.5-0.1-1-0.3-1.3s-0.5-0.4-0.9-0.4
		C67.7,10.4,67.2,11,67.1,12.1z"/>
	<path d="M78,9.6c0.5,0.4,0.7,1,0.7,1.7v2.8c0,0.6,0,1.1,0.1,1.4c0.1,0.3,0.1,0.5,0.1,0.5c0,0.1-0.2,0.2-0.5,0.3
		c-0.3,0.1-0.6,0.1-0.8,0.1c-0.1,0-0.3-0.1-0.3-0.2c-0.1-0.1-0.1-0.3-0.1-0.4c0-0.2-0.1-0.3-0.1-0.3c-0.2,0.3-0.5,0.5-0.9,0.7
		s-0.8,0.3-1.3,0.3c-0.7,0-1.3-0.2-1.6-0.6c-0.4-0.4-0.6-0.9-0.6-1.5c0-1.7,1.4-2.6,4.2-2.6v-0.5c0-0.6-0.4-0.9-1.3-0.9
		c-0.3,0-0.7,0-0.9,0.1c-0.3,0.1-0.5,0.2-0.7,0.3s-0.3,0.1-0.3,0.1c-0.1,0-0.3-0.1-0.4-0.4c-0.2-0.3-0.2-0.5-0.2-0.6
		c0-0.1,0.1-0.3,0.4-0.4c0.2-0.1,0.6-0.3,1-0.4C74.9,9.1,75.4,9,75.8,9C76.8,9,77.6,9.2,78,9.6z M75.2,13.4
		c-0.4,0.2-0.7,0.5-0.7,0.9c0,0.3,0.1,0.5,0.2,0.6c0.1,0.1,0.4,0.2,0.7,0.2c0.3,0,0.6-0.1,0.9-0.3s0.5-0.4,0.7-0.7v-1.1
		C76.2,13.1,75.6,13.2,75.2,13.4z"/>
	<path d="M82.6,6.3v5.8h0.1l2-2.8c0.1-0.1,0.2-0.2,0.3-0.2s0.3,0,0.5,0h0.4c0.2,0,0.4,0,0.5,0.1c0.1,0,0.2,0.1,0.2,0.1
		c0,0.1,0,0.2-0.1,0.3l-2.2,2.9l2.5,3.5c0.1,0.1,0.1,0.2,0.1,0.3c0,0.1-0.2,0.2-0.7,0.2h-0.4c-0.2,0-0.4,0-0.5,0
		c-0.1,0-0.2-0.1-0.3-0.2L82.6,13h-0.1v3.1c0,0.3-0.2,0.4-0.7,0.4h-0.3c-0.5,0-0.7-0.1-0.7-0.4V6.3c0-0.3,0.2-0.4,0.7-0.4h0.3
		C82.3,5.9,82.6,6,82.6,6.3z"/>
	<path d="M93.3,10c0.5,0.7,0.7,1.5,0.7,2.6c0,0.1-0.1,0.2-0.2,0.4c-0.2,0.2-0.3,0.3-0.4,0.3h-3.9c0,0.6,0.2,1.1,0.5,1.4
		s0.7,0.4,1.3,0.4c0.3,0,0.6,0,0.8-0.1c0.2-0.1,0.5-0.2,0.7-0.3c0.1-0.1,0.2-0.1,0.3-0.1c0.1,0,0.3,0.1,0.4,0.4
		c0.2,0.2,0.2,0.4,0.2,0.6c0,0.2-0.1,0.3-0.4,0.5s-0.6,0.3-1,0.4s-0.8,0.1-1.1,0.1c-1.2,0-2.1-0.3-2.7-1s-0.9-1.6-0.9-2.8
		c0-1.3,0.3-2.2,0.9-2.9C89.2,9.3,90,9,91.1,9C92.1,9,92.8,9.3,93.3,10z M89.5,12.1h2.8c0-0.5-0.1-1-0.3-1.3s-0.5-0.4-0.9-0.4
		C90.2,10.4,89.7,11,89.5,12.1z"/>
	<path d="M99.4,9.2c0.1,0.1,0.2,0.3,0.2,0.5s0,0.4-0.1,0.6c-0.1,0.3-0.2,0.4-0.3,0.4c0,0-0.1,0-0.3-0.1c-0.1,0-0.3-0.1-0.4-0.1
		c-0.3,0-0.5,0.1-0.7,0.3c-0.2,0.2-0.4,0.3-0.5,0.5v4.7c0,0.3-0.2,0.4-0.7,0.4h-0.3c-0.5,0-0.7-0.1-0.7-0.4v-4.6
		c0-0.6,0-1.1-0.1-1.4c-0.1-0.3-0.1-0.5-0.1-0.5c0-0.1,0.2-0.2,0.5-0.3c0.3-0.1,0.6-0.1,0.8-0.1c0.1,0,0.3,0.1,0.3,0.2
		c0.1,0.1,0.1,0.3,0.1,0.4c0,0.1,0.1,0.2,0.1,0.3c0.2-0.3,0.4-0.6,0.7-0.8C98.2,9.1,98.5,9,98.8,9C99.1,9,99.3,9.1,99.4,9.2z"/>
	<path d="M108.4,6.9l3.2,9.1c0,0.1,0,0.2,0,0.2c0,0.2-0.2,0.3-0.7,0.3h-0.4c-0.4,0-0.6-0.1-0.7-0.3l-0.7-1.9h-3.6l-0.6,1.9
		c-0.1,0.2-0.3,0.3-0.6,0.3h-0.4c-0.5,0-0.8-0.1-0.8-0.3c0,0,0-0.1,0.1-0.2l3.2-9.1c0.1-0.2,0.3-0.3,0.7-0.3h0.6
		C108.1,6.6,108.3,6.7,108.4,6.9z M107.4,8.7c0,0,0,0.2-0.1,0.4c0,0.2-0.1,0.4-0.1,0.5l-1,3.1h2.5l-1-3.1
		C107.5,9.4,107.5,9.1,107.4,8.7L107.4,8.7z"/>
	<path d="M118.6,6.3v7.8c0,0.6,0,1.1,0.1,1.4c0.1,0.3,0.1,0.5,0.1,0.5c0,0.1-0.2,0.2-0.5,0.3c-0.3,0.1-0.6,0.1-0.8,0.1
		c-0.1,0-0.3-0.1-0.3-0.2s-0.1-0.3-0.1-0.4c0-0.2-0.1-0.3-0.1-0.3c-0.2,0.3-0.5,0.6-0.9,0.8c-0.3,0.2-0.7,0.3-1.1,0.3
		c-0.5,0-1-0.2-1.4-0.5s-0.7-0.7-0.9-1.3c-0.2-0.6-0.3-1.2-0.3-2c0-1.2,0.3-2.1,0.8-2.8c0.5-0.7,1.2-1,2.1-1c0.6,0,1.1,0.2,1.6,0.5
		V6.3c0-0.3,0.2-0.4,0.7-0.4h0.3C118.4,5.9,118.6,6,118.6,6.3z M114.5,11c-0.3,0.4-0.4,1-0.4,1.7c0,0.8,0.1,1.4,0.3,1.8
		c0.2,0.4,0.6,0.6,1,0.6c0.5,0,1-0.3,1.4-0.9v-3.4c-0.4-0.3-0.8-0.4-1.3-0.4C115.1,10.4,114.7,10.6,114.5,11z"/>
	<path d="M126.5,6.3v7.8c0,0.6,0,1.1,0.1,1.4c0.1,0.3,0.1,0.5,0.1,0.5c0,0.1-0.2,0.2-0.5,0.3c-0.3,0.1-0.6,0.1-0.8,0.1
		c-0.1,0-0.3-0.1-0.3-0.2s-0.1-0.3-0.1-0.4c0-0.2-0.1-0.3-0.1-0.3c-0.2,0.3-0.5,0.6-0.9,0.8c-0.3,0.2-0.7,0.3-1.1,0.3
		c-0.5,0-1-0.2-1.4-0.5s-0.7-0.7-0.9-1.3c-0.2-0.6-0.3-1.2-0.3-2c0-1.2,0.3-2.1,0.8-2.8c0.5-0.7,1.2-1,2.1-1c0.6,0,1.1,0.2,1.6,0.5
		V6.3c0-0.3,0.2-0.4,0.7-0.4h0.3C126.3,5.9,126.5,6,126.5,6.3z M122.4,11c-0.3,0.4-0.4,1-0.4,1.7c0,0.8,0.1,1.4,0.3,1.8
		c0.2,0.4,0.6,0.6,1,0.6c0.5,0,1-0.3,1.4-0.9v-3.4c-0.4-0.3-0.8-0.4-1.3-0.4C123,10.4,122.6,10.6,122.4,11z"/>
	<path d="M133.7,10c0.5,0.7,0.7,1.5,0.7,2.6c0,0.1-0.1,0.2-0.2,0.4c-0.2,0.2-0.3,0.3-0.4,0.3H130c0,0.6,0.2,1.1,0.5,1.4
		s0.7,0.4,1.3,0.4c0.3,0,0.6,0,0.8-0.1c0.2-0.1,0.5-0.2,0.7-0.3c0.1-0.1,0.2-0.1,0.3-0.1c0.1,0,0.3,0.1,0.4,0.4
		c0.2,0.2,0.2,0.4,0.2,0.6c0,0.2-0.1,0.3-0.4,0.5s-0.6,0.3-1,0.4s-0.8,0.1-1.1,0.1c-1.2,0-2.1-0.3-2.7-1s-0.9-1.6-0.9-2.8
		c0-1.3,0.3-2.2,0.9-2.9c0.6-0.6,1.4-0.9,2.5-0.9C132.5,9,133.3,9.3,133.7,10z M130,12.1h2.8c0-0.5-0.1-1-0.3-1.3s-0.5-0.4-0.9-0.4
		C130.6,10.4,130.1,11,130,12.1z"/>
	<path d="M142,6.3v7.8c0,0.6,0,1.1,0.1,1.4c0.1,0.3,0.1,0.5,0.1,0.5c0,0.1-0.2,0.2-0.5,0.3c-0.3,0.1-0.6,0.1-0.8,0.1
		c-0.1,0-0.3-0.1-0.3-0.2s-0.1-0.3-0.1-0.4c0-0.2-0.1-0.3-0.1-0.3c-0.2,0.3-0.5,0.6-0.9,0.8c-0.3,0.2-0.7,0.3-1.1,0.3
		c-0.5,0-1-0.2-1.4-0.5s-0.7-0.7-0.9-1.3c-0.2-0.6-0.3-1.2-0.3-2c0-1.2,0.3-2.1,0.8-2.8c0.5-0.7,1.2-1,2.1-1c0.6,0,1.1,0.2,1.6,0.5
		V6.3c0-0.3,0.2-0.4,0.7-0.4h0.3C141.7,5.9,142,6,142,6.3z M137.8,11c-0.3,0.4-0.4,1-0.4,1.7c0,0.8,0.1,1.4,0.3,1.8
		c0.2,0.4,0.6,0.6,1,0.6c0.5,0,1-0.3,1.4-0.9v-3.4c-0.4-0.3-0.8-0.4-1.3-0.4C138.5,10.4,138.1,10.6,137.8,11z"/>
</g>
<g>
	<path d="M115.2,104.9l1.8,5.2c0,0,0,0.1,0,0.1c0,0.1-0.1,0.2-0.4,0.2h-0.2c-0.2,0-0.4-0.1-0.4-0.2l-0.4-1.1h-2.1l-0.4,1.1
		c0,0.1-0.2,0.2-0.4,0.2h-0.2c-0.3,0-0.4-0.1-0.4-0.2c0,0,0-0.1,0-0.1l1.8-5.2c0-0.1,0.2-0.2,0.4-0.2h0.4
		C115,104.7,115.2,104.8,115.2,104.9z M114.6,106c0,0,0,0.1,0,0.2c0,0.1,0,0.2-0.1,0.3l-0.6,1.8h1.5l-0.6-1.8
		C114.7,106.3,114.7,106.1,114.6,106L114.6,106z"/>
	<path d="M120.6,106.4c0.2,0.2,0.4,0.4,0.5,0.7c0.1,0.3,0.2,0.7,0.2,1.1c0,0.7-0.1,1.2-0.4,1.6s-0.7,0.6-1.2,0.6
		c-0.3,0-0.7-0.1-0.9-0.3v1.7c0,0.2-0.1,0.2-0.4,0.2h-0.2c-0.3,0-0.4-0.1-0.4-0.2v-4.3c0-0.4,0-0.6,0-0.8c0-0.2,0-0.3,0-0.3
		c0-0.1,0.1-0.1,0.3-0.2c0.2,0,0.3-0.1,0.5-0.1c0.1,0,0.1,0,0.2,0.1s0.1,0.2,0.1,0.2s0,0.1,0,0.2c0.1-0.2,0.3-0.3,0.5-0.4
		c0.2-0.1,0.4-0.2,0.7-0.2C120.1,106.1,120.3,106.2,120.6,106.4z M119.1,107.1c-0.1,0.1-0.3,0.2-0.4,0.4v1.9
		c0.2,0.2,0.4,0.2,0.7,0.2c0.6,0,0.9-0.4,0.9-1.3c0-0.4-0.1-0.8-0.2-1s-0.3-0.3-0.6-0.3C119.3,106.9,119.2,107,119.1,107.1z"/>
	<path d="M125.2,106.4c0.2,0.2,0.4,0.4,0.5,0.7c0.1,0.3,0.2,0.7,0.2,1.1c0,0.7-0.1,1.2-0.4,1.6s-0.7,0.6-1.2,0.6
		c-0.3,0-0.7-0.1-0.9-0.3v1.7c0,0.2-0.1,0.2-0.4,0.2h-0.2c-0.3,0-0.4-0.1-0.4-0.2v-4.3c0-0.4,0-0.6,0-0.8c0-0.2,0-0.3,0-0.3
		c0-0.1,0.1-0.1,0.3-0.2c0.2,0,0.3-0.1,0.5-0.1c0.1,0,0.1,0,0.2,0.1s0.1,0.2,0.1,0.2s0,0.1,0,0.2c0.1-0.2,0.3-0.3,0.5-0.4
		c0.2-0.1,0.4-0.2,0.7-0.2C124.7,106.1,124.9,106.2,125.2,106.4z M123.6,107.1c-0.1,0.1-0.3,0.2-0.4,0.4v1.9
		c0.2,0.2,0.4,0.2,0.7,0.2c0.6,0,0.9-0.4,0.9-1.3c0-0.4-0.1-0.8-0.2-1s-0.3-0.3-0.6-0.3C123.9,106.9,123.8,107,123.6,107.1z"/>
</g>
<g>
	<path d="M25.1,114.8c0.2,0.1,0.4,0.1,0.5,0.2c0.1,0.1,0.2,0.2,0.2,0.3c0,0.1,0,0.2-0.1,0.4c-0.1,0.2-0.2,0.2-0.2,0.2
		c0,0-0.1,0-0.2-0.1c-0.1-0.1-0.2-0.1-0.4-0.1c-0.1,0-0.3-0.1-0.4-0.1c-0.3,0-0.5,0.1-0.6,0.2c-0.1,0.1-0.2,0.3-0.2,0.4
		c0,0.2,0,0.3,0.1,0.4c0.1,0.1,0.2,0.2,0.3,0.2c0.1,0.1,0.3,0.1,0.5,0.2c0.3,0.1,0.6,0.2,0.8,0.4c0.2,0.1,0.4,0.3,0.5,0.5
		c0.1,0.2,0.2,0.5,0.2,0.8c0,0.6-0.2,1-0.5,1.3c-0.3,0.3-0.8,0.4-1.3,0.4c-0.3,0-0.7,0-0.9-0.1c-0.3-0.1-0.5-0.2-0.6-0.3
		c-0.2-0.1-0.2-0.2-0.2-0.3c0-0.1,0-0.2,0.1-0.2c0.1-0.1,0.1-0.2,0.2-0.3s0.1-0.1,0.2-0.1c0,0,0.1,0,0.2,0.1
		c0.2,0.1,0.3,0.2,0.5,0.2s0.3,0.1,0.6,0.1c0.2,0,0.4-0.1,0.6-0.2s0.2-0.3,0.2-0.5c0-0.1,0-0.3-0.1-0.4c-0.1-0.1-0.2-0.2-0.3-0.3
		s-0.3-0.1-0.5-0.2c-0.1-0.1-0.2-0.1-0.2-0.1c-0.2-0.1-0.5-0.2-0.6-0.3c-0.2-0.1-0.3-0.3-0.4-0.5s-0.2-0.5-0.2-0.8
		c0-0.3,0.1-0.6,0.3-0.9c0.2-0.2,0.4-0.4,0.7-0.5s0.6-0.2,0.9-0.2C24.6,114.7,24.9,114.7,25.1,114.8z"/>
	<path d="M29.8,116.7c0.3,0.4,0.4,0.9,0.4,1.5c0,0.1,0,0.1-0.1,0.3s-0.2,0.2-0.2,0.2h-2.2c0,0.4,0.1,0.6,0.3,0.8s0.4,0.2,0.7,0.2
		c0.2,0,0.3,0,0.5-0.1c0.1,0,0.3-0.1,0.4-0.2c0.1,0,0.1-0.1,0.2-0.1c0.1,0,0.1,0.1,0.2,0.2s0.1,0.2,0.1,0.3c0,0.1-0.1,0.2-0.2,0.3
		c-0.2,0.1-0.3,0.2-0.6,0.2c-0.2,0-0.4,0.1-0.6,0.1c-0.7,0-1.2-0.2-1.5-0.5c-0.3-0.4-0.5-0.9-0.5-1.6c0-0.7,0.2-1.3,0.5-1.6
		c0.3-0.4,0.8-0.5,1.4-0.5C29.1,116.1,29.5,116.3,29.8,116.7z M27.6,117.9h1.6c0-0.3-0.1-0.5-0.2-0.7c-0.1-0.2-0.3-0.3-0.5-0.3
		C28,116.9,27.7,117.3,27.6,117.9z"/>
	<path d="M33.3,116.2c0.1,0.1,0.1,0.2,0.1,0.3c0,0.1,0,0.2-0.1,0.4c0,0.1-0.1,0.2-0.2,0.2c0,0-0.1,0-0.2,0s-0.2,0-0.2,0
		c-0.2,0-0.3,0-0.4,0.1c-0.1,0.1-0.2,0.2-0.3,0.3v2.7c0,0.1-0.1,0.2-0.4,0.2h-0.2c-0.3,0-0.4-0.1-0.4-0.2v-2.6c0-0.4,0-0.6,0-0.8
		c0-0.2,0-0.3,0-0.3c0-0.1,0.1-0.1,0.3-0.2s0.3-0.1,0.5-0.1c0.1,0,0.1,0,0.2,0.1c0,0.1,0.1,0.2,0.1,0.2s0,0.1,0,0.2
		c0.1-0.2,0.2-0.3,0.4-0.4c0.1-0.1,0.3-0.2,0.5-0.2C33.1,116.1,33.2,116.2,33.3,116.2z"/>
	<path d="M37.2,116.3c0,0,0,0.1,0,0.1l-1.3,3.8c0,0.1-0.2,0.2-0.4,0.2h-0.3c-0.2,0-0.4-0.1-0.4-0.2l-1.3-3.8c0-0.1,0-0.1,0-0.1
		c0-0.1,0.1-0.2,0.4-0.2h0.2c0.2,0,0.4,0.1,0.4,0.2l0.6,1.9l0.2,0.7l0.1,0.3h0c0.1-0.4,0.2-0.7,0.2-1l0.6-1.9c0-0.1,0.2-0.2,0.4-0.2
		h0.1C37.1,116.2,37.2,116.2,37.2,116.3z"/>
	<path d="M38.9,114.6v0.6c0,0.1,0,0.1-0.1,0.2c-0.1,0-0.2,0.1-0.3,0.1h-0.2c-0.1,0-0.3,0-0.3-0.1c-0.1,0-0.1-0.1-0.1-0.2v-0.6
		c0-0.1,0.1-0.2,0.4-0.2h0.2C38.8,114.3,38.9,114.4,38.9,114.6z M38.9,116.4v3.8c0,0.1-0.1,0.2-0.4,0.2h-0.2c-0.3,0-0.4-0.1-0.4-0.2
		v-3.8c0-0.1,0.1-0.2,0.4-0.2h0.2C38.8,116.2,38.9,116.2,38.9,116.4z"/>
	<path d="M42.7,116.3c0.3,0.1,0.4,0.2,0.4,0.3c0,0.1,0,0.2-0.1,0.3c-0.1,0.1-0.2,0.2-0.2,0.2c0,0,0,0-0.1,0
		c-0.2-0.1-0.5-0.2-0.8-0.2c-0.3,0-0.6,0.1-0.8,0.3c-0.2,0.2-0.2,0.6-0.2,1c0,0.5,0.1,0.8,0.2,1c0.2,0.2,0.4,0.3,0.8,0.3
		c0.3,0,0.6-0.1,0.8-0.2c0.1,0,0.1,0,0.1,0c0.1,0,0.2,0.1,0.2,0.2s0.1,0.2,0.1,0.3c0,0.1-0.1,0.2-0.2,0.3s-0.3,0.1-0.6,0.2
		s-0.4,0.1-0.6,0.1c-0.7,0-1.2-0.2-1.5-0.5s-0.5-0.9-0.5-1.6c0-0.7,0.2-1.3,0.5-1.6s0.8-0.5,1.5-0.5
		C42.2,116.1,42.5,116.2,42.7,116.3z"/>
	<path d="M46.9,116.7c0.3,0.4,0.4,0.9,0.4,1.5c0,0.1,0,0.1-0.1,0.3s-0.2,0.2-0.2,0.2h-2.2c0,0.4,0.1,0.6,0.3,0.8s0.4,0.2,0.7,0.2
		c0.2,0,0.3,0,0.5-0.1c0.1,0,0.3-0.1,0.4-0.2c0.1,0,0.1-0.1,0.2-0.1c0.1,0,0.1,0.1,0.2,0.2s0.1,0.2,0.1,0.3c0,0.1-0.1,0.2-0.2,0.3
		c-0.2,0.1-0.3,0.2-0.6,0.2c-0.2,0-0.4,0.1-0.6,0.1c-0.7,0-1.2-0.2-1.5-0.5c-0.3-0.4-0.5-0.9-0.5-1.6c0-0.7,0.2-1.3,0.5-1.6
		c0.3-0.4,0.8-0.5,1.4-0.5C46.2,116.1,46.6,116.3,46.9,116.7z M44.8,117.9h1.6c0-0.3-0.1-0.5-0.2-0.7c-0.1-0.2-0.3-0.3-0.5-0.3
		C45.1,116.9,44.8,117.3,44.8,117.9z"/>
</g>
</svg>
