<?xml version="1.0" encoding="utf-8"?>
<!-- Generator: Adobe Illustrator 19.1.0, SVG Export Plug-In . SVG Version: 6.00 Build 0)  -->
<svg version="1.1" id="Layer_1" xmlns="http://www.w3.org/2000/svg" xmlns:xlink="http://www.w3.org/1999/xlink" x="0px" y="0px"
	 width="152.2px" height="136.1px" viewBox="0 0 152.2 136.1" style="enable-background:new 0 0 152.2 136.1;" xml:space="preserve"
	>
<style type="text/css">
	.st0{fill:#D1EE83;stroke:#97BD30;stroke-width:2.5;stroke-miterlimit:10;}
	.st1{fill:#D1EE83;stroke:#97BD30;stroke-width:4;stroke-miterlimit:10;}
	.st2{fill:#97BD30;}
	.st3{fill:none;stroke:#97BD30;stroke-width:4;stroke-miterlimit:10;}
	.st4{fill:none;stroke:#C8D2D2;stroke-width:4;stroke-miterlimit:10;}
	.st5{fill:#C8D2D2;}
	.st6{fill:#D1EE83;stroke:#97BD30;stroke-width:3.4991;stroke-miterlimit:10;}
	.st7{fill:#D1EE83;stroke:#97BD30;stroke-width:5.6814;stroke-miterlimit:10;}
	.st8{fill:none;stroke:#97BD30;stroke-width:4.8706;stroke-miterlimit:10;}
	.st9{fill:none;stroke:#C8D2D2;stroke-width:4.8076;stroke-miterlimit:10;}
	.st10{fill:none;stroke:#C8D2D2;stroke-width:3.2416;stroke-miterlimit:10;}
	.st11{fill:none;stroke:#97BD30;stroke-width:2.5;stroke-miterlimit:10;}
	.st12{fill:#EE9B83;stroke:#BD3130;stroke-width:2.5;stroke-miterlimit:10;}
	.st13{fill:#BD3130;}
	.st14{fill:none;stroke:#BD3130;stroke-width:4;stroke-miterlimit:10;}
	.st15{fill:#EE9B83;stroke:#BD3130;stroke-width:4;stroke-miterlimit:10;}
	.st16{fill:none;stroke:#97BD30;stroke-width:3;stroke-miterlimit:10;}
	.st17{fill:#FF990D;}
	.st18{fill:none;stroke:#BD3130;stroke-width:2.4036;stroke-miterlimit:10;}
	.st19{fill:none;stroke:#C8D2D2;stroke-width:2.4036;stroke-miterlimit:10;}
	.st20{fill:#EE9B83;stroke:#BD3130;stroke-width:2.4036;stroke-miterlimit:10;}
	.st21{fill:#D1EE83;stroke:#97BD30;stroke-width:1.8073;stroke-miterlimit:10;}
	.st22{fill:#D1EE83;stroke:#97BD30;stroke-width:3;stroke-miterlimit:10;}
	.st23{fill:none;stroke:#C8D2D2;stroke-width:3;stroke-miterlimit:10;}
	.st24{fill:#D1EE83;stroke:#97BD30;stroke-width:2.6609;stroke-miterlimit:10;}
	.st25{fill:none;stroke:#BD3130;stroke-width:2.6609;stroke-miterlimit:10;}
	.st26{fill:none;stroke:#97BD30;stroke-width:2.6609;stroke-miterlimit:10;}
	.st27{fill:#EE9B83;stroke:#BD3130;stroke-width:2.6609;stroke-miterlimit:10;}
	.st28{fill:none;stroke:#C8D2D2;stroke-width:2.6609;stroke-miterlimit:10;}
	.st29{fill:#EE9B83;stroke:#BD3130;stroke-width:1.8073;stroke-miterlimit:10;}
	.st30{fill:none;stroke:#97BD30;stroke-width:1.8069;stroke-miterlimit:10;}
	.st31{fill:none;stroke:#BD3130;stroke-width:2.9701;stroke-miterlimit:10;}
	.st32{fill:none;stroke:#C8D2D2;stroke-width:2.9701;stroke-miterlimit:10;}
	.st33{fill:#EE9B83;stroke:#BD3130;stroke-width:2.9701;stroke-miterlimit:10;}
	.st34{fill:none;stroke:#BD3130;stroke-width:3;stroke-miterlimit:10;}
	.st35{fill:#EE9B83;stroke:#BD3130;stroke-width:3;stroke-miterlimit:10;}
	.st36{fill:none;stroke:#BD3130;stroke-width:2.6101;stroke-miterlimit:10;}
	.st37{fill:none;stroke:#C8D2D2;stroke-width:2.6101;stroke-miterlimit:10;}
	.st38{fill:#EE9B83;stroke:#BD3130;stroke-width:2.6101;stroke-miterlimit:10;}
	.st39{fill:none;stroke:#97BD30;stroke-width:2.6364;stroke-miterlimit:10;}
	.st40{fill:none;stroke:#97BD30;stroke-width:1.8073;stroke-miterlimit:10;}
</style>
<path class="st21" d="M148.8,25.4H3.4c-1.1,0-2-0.9-2-2V3.2c0-1.1,0.9-2,2-2h145.4c1.1,0,2,0.9,2,2v20.2
	C150.8,24.5,149.9,25.4,148.8,25.4z"/>
<path class="st24" d="M99.9,92.6H47.6c-0.9,0-1.7-0.8-1.7-1.7V48.4c0-0.9,0.8-1.7,1.7-1.7h52.4c0.9,0,1.7,0.8,1.7,1.7v42.5
	C101.6,91.8,100.9,92.6,99.9,92.6z"/>
<path class="st2" d="M103.3,76.7L103.3,76.7c-1.1,0-2-0.9-2-2v-9.9c0-1.1,0.9-2,2-2l0,0c1.1,0,2,0.9,2,2v9.9
	C105.4,75.7,104.4,76.7,103.3,76.7z"/>
<path class="st25" d="M44.1,69.7c0,0-11.5-2.9-11.5,13.1s0,24.2,0,24.2"/>
<path class="st2" d="M44.1,76.7L44.1,76.7c-1.1,0-2-0.9-2-2v-9.9c0-1.1,0.9-2,2-2h0c1.1,0,2,0.9,2,2v9.9
	C46.2,75.7,45.2,76.7,44.1,76.7z"/>
<path class="st26" d="M103.1,69.7c0,0,11.5-2.9,11.5,13.1c0,4,0,13.3,0,16.3"/>
<path class="st27" d="M49.5,128.1H30.6c-4.5,0-8.1-3.7-8.1-8.1v-2.8c0-4.5,3.7-8.1,8.1-8.1h18.8c4.5,0,8.1,3.7,8.1,8.1v2.8
	C57.6,124.4,53.9,128.1,49.5,128.1z"/>
<polygon class="st28" points="100.1,101.7 114.9,127.2 129.6,101.7 "/>
<path class="st13" d="M28.2,106.4v-0.3c0-0.8,0.6-1.4,1.4-1.4h6.1c0.8,0,1.4,0.6,1.4,1.4v0.3c0,0.8-0.6,1.4-1.4,1.4h-6.1
	C28.8,107.9,28.2,107.2,28.2,106.4z"/>
<path class="st5" d="M119,99v-0.3c0-0.8-0.6-1.4-1.4-1.4h-6.1c-0.8,0-1.4,0.6-1.4,1.4V99c0,0.8,0.6,1.4,1.4,1.4h6.1
	C118.4,100.5,119,99.8,119,99z"/>
<g>
	<path d="M57.7,7.8c0.4,0.1,0.8,0.2,1.1,0.3c0.3,0.1,0.4,0.3,0.4,0.5c0,0.1,0,0.3-0.1,0.4c-0.1,0.2-0.2,0.3-0.3,0.5
		c-0.1,0.1-0.2,0.2-0.3,0.2c0,0-0.1,0-0.3-0.1c-0.2-0.1-0.4-0.2-0.7-0.3c-0.3-0.1-0.6-0.1-1-0.1c-0.9,0-1.6,0.3-2.1,0.8
		c-0.4,0.6-0.7,1.4-0.7,2.6c0,1.2,0.2,2,0.7,2.6c0.4,0.6,1.1,0.9,2,0.9c0.4,0,0.8,0,1.1-0.1c0.3-0.1,0.6-0.2,0.9-0.3
		c0.1-0.1,0.3-0.1,0.3-0.1c0.1,0,0.2,0.1,0.3,0.2c0.1,0.1,0.2,0.3,0.3,0.5c0.1,0.2,0.1,0.3,0.1,0.4c0,0.2-0.2,0.4-0.5,0.6
		s-0.7,0.3-1.2,0.4c-0.5,0.1-0.9,0.1-1.4,0.1c-1.6,0-2.7-0.4-3.5-1.2c-0.7-0.8-1.1-2.1-1.1-3.8c0-3.3,1.5-5,4.6-5
		C56.8,7.7,57.2,7.7,57.7,7.8z"/>
	<path d="M62.6,8.1V16H66c0.1,0,0.2,0,0.3,0.1c0.1,0.1,0.1,0.2,0.1,0.5v0.3c0,0.2,0,0.4-0.1,0.5c-0.1,0.1-0.1,0.1-0.3,0.1h-4.7
		c-0.2,0-0.3,0-0.4-0.1s-0.1-0.2-0.1-0.4V8.1c0-0.3,0.2-0.4,0.7-0.4h0.3C62.4,7.7,62.6,7.9,62.6,8.1z"/>
	<path d="M74.9,8.9C75.7,9.8,76,11,76,12.6s-0.4,2.9-1.1,3.7c-0.8,0.9-1.9,1.3-3.3,1.3s-2.5-0.4-3.3-1.3c-0.8-0.9-1.1-2.1-1.1-3.7
		c0-1.6,0.4-2.8,1.1-3.7c0.8-0.9,1.9-1.3,3.3-1.3S74.1,8.1,74.9,8.9z M69.7,10.1c-0.4,0.6-0.7,1.4-0.7,2.6c0,1.1,0.2,2,0.7,2.6
		c0.4,0.6,1.1,0.9,1.9,0.9c0.8,0,1.5-0.3,1.9-0.9c0.4-0.6,0.7-1.4,0.7-2.6c0-1.1-0.2-2-0.7-2.6c-0.4-0.6-1.1-0.9-1.9-0.9
		C70.8,9.2,70.1,9.5,69.7,10.1z"/>
	<path d="M81.7,7.8c0.4,0.1,0.7,0.2,0.9,0.3C82.9,8.3,83,8.4,83,8.6c0,0.2-0.1,0.4-0.2,0.7c-0.2,0.3-0.3,0.4-0.4,0.4
		c0,0-0.1,0-0.3-0.1c-0.2-0.1-0.4-0.2-0.6-0.2S81,9.2,80.7,9.2c-0.5,0-0.9,0.1-1.1,0.3c-0.2,0.2-0.4,0.5-0.4,0.8
		c0,0.3,0.1,0.5,0.2,0.7c0.1,0.2,0.3,0.3,0.5,0.4s0.5,0.2,0.9,0.4c0.5,0.2,1,0.4,1.3,0.6c0.3,0.2,0.6,0.5,0.9,0.9s0.4,0.9,0.4,1.4
		c0,1-0.3,1.7-0.9,2.2c-0.6,0.5-1.3,0.7-2.3,0.7c-0.6,0-1.2-0.1-1.6-0.2c-0.5-0.1-0.9-0.3-1.1-0.5c-0.3-0.2-0.4-0.3-0.4-0.5
		c0-0.1,0-0.3,0.1-0.4c0.1-0.2,0.2-0.3,0.3-0.4c0.1-0.1,0.2-0.2,0.3-0.2c0.1,0,0.2,0,0.3,0.1c0.3,0.2,0.6,0.3,0.9,0.4
		c0.3,0.1,0.6,0.1,1,0.1c0.4,0,0.8-0.1,1.1-0.3c0.3-0.2,0.4-0.5,0.4-0.9c0-0.3-0.1-0.5-0.2-0.6c-0.1-0.2-0.3-0.3-0.6-0.4
		c-0.2-0.1-0.5-0.3-0.9-0.4c-0.2-0.1-0.4-0.2-0.4-0.2c-0.4-0.2-0.8-0.4-1.1-0.6s-0.5-0.5-0.7-0.8c-0.2-0.4-0.3-0.8-0.3-1.3
		c0-0.6,0.1-1.1,0.4-1.5s0.7-0.7,1.2-0.9c0.5-0.2,1-0.3,1.6-0.3C81,7.7,81.3,7.7,81.7,7.8z"/>
	<path d="M90.7,7.9c0.1,0.1,0.1,0.2,0.1,0.5v0.3c0,0.2,0,0.4-0.1,0.5c-0.1,0.1-0.2,0.1-0.3,0.1h-3.7v2.5H90c0.1,0,0.2,0,0.3,0.1
		c0.1,0.1,0.1,0.2,0.1,0.5v0.3c0,0.2,0,0.4-0.1,0.5c-0.1,0.1-0.2,0.1-0.3,0.1h-3.3V16h3.7c0.1,0,0.2,0,0.3,0.1
		c0.1,0.1,0.1,0.2,0.1,0.5v0.3c0,0.2,0,0.4-0.1,0.5c-0.1,0.1-0.2,0.1-0.3,0.1h-5c-0.2,0-0.3,0-0.4-0.1s-0.1-0.2-0.1-0.4V8.3
		c0-0.2,0-0.3,0.1-0.4c0.1-0.1,0.2-0.1,0.4-0.1h5C90.5,7.8,90.6,7.8,90.7,7.9z"/>
	<path d="M99.3,9c0.8,0.8,1.2,2,1.2,3.7s-0.4,2.8-1.2,3.7c-0.8,0.8-1.9,1.2-3.3,1.2h-3c-0.2,0-0.3,0-0.4-0.1s-0.1-0.2-0.1-0.4V8.3
		c0-0.2,0-0.3,0.1-0.4c0.1-0.1,0.2-0.1,0.4-0.1h3C97.4,7.8,98.5,8.2,99.3,9z M94.3,9.3V16H96c0.8,0,1.5-0.3,1.9-0.8
		c0.5-0.6,0.7-1.4,0.7-2.5c0-1.1-0.2-1.9-0.7-2.5c-0.5-0.6-1.1-0.8-1.9-0.8H94.3z"/>
</g>
<g>
	<path d="M53.2,31.7c0.3,0.1,0.5,0.1,0.7,0.2c0.2,0.1,0.2,0.2,0.2,0.3c0,0.1-0.1,0.3-0.2,0.5S53.7,33,53.7,33c0,0-0.1,0-0.2-0.1
		c-0.1-0.1-0.3-0.1-0.4-0.2s-0.3-0.1-0.6-0.1c-0.4,0-0.6,0.1-0.8,0.2c-0.2,0.1-0.3,0.3-0.3,0.6c0,0.2,0,0.4,0.2,0.5
		c0.1,0.1,0.2,0.2,0.4,0.3c0.1,0.1,0.4,0.2,0.7,0.3c0.4,0.2,0.7,0.3,1,0.4c0.2,0.1,0.5,0.4,0.6,0.6s0.3,0.6,0.3,1
		c0,0.7-0.2,1.2-0.6,1.6s-1,0.5-1.6,0.5c-0.4,0-0.8,0-1.2-0.1c-0.3-0.1-0.6-0.2-0.8-0.3c-0.2-0.1-0.3-0.2-0.3-0.4
		c0-0.1,0-0.2,0.1-0.3s0.1-0.2,0.2-0.3s0.2-0.1,0.2-0.1c0,0,0.1,0,0.2,0.1c0.2,0.1,0.4,0.2,0.6,0.3c0.2,0.1,0.4,0.1,0.7,0.1
		c0.3,0,0.6-0.1,0.8-0.2c0.2-0.1,0.3-0.4,0.3-0.7c0-0.2-0.1-0.3-0.2-0.5c-0.1-0.1-0.2-0.2-0.4-0.3c-0.2-0.1-0.4-0.2-0.7-0.3
		c-0.2-0.1-0.3-0.1-0.3-0.1c-0.3-0.1-0.6-0.3-0.8-0.4s-0.4-0.4-0.5-0.6s-0.2-0.6-0.2-1c0-0.4,0.1-0.8,0.3-1.1
		c0.2-0.3,0.5-0.5,0.8-0.7c0.3-0.1,0.7-0.2,1.2-0.2C52.7,31.6,53,31.6,53.2,31.7z"/>
	<path d="M59.1,34c0.3,0.5,0.5,1.1,0.5,1.9c0,0.1-0.1,0.2-0.2,0.3s-0.2,0.2-0.3,0.2h-2.8c0,0.4,0.2,0.8,0.4,1
		c0.2,0.2,0.5,0.3,0.9,0.3c0.2,0,0.4,0,0.6-0.1c0.2-0.1,0.3-0.1,0.5-0.2c0.1,0,0.2-0.1,0.2-0.1c0.1,0,0.2,0.1,0.3,0.3
		c0.1,0.2,0.2,0.3,0.2,0.4c0,0.1-0.1,0.2-0.3,0.4c-0.2,0.1-0.4,0.2-0.7,0.2c-0.3,0.1-0.5,0.1-0.8,0.1c-0.9,0-1.5-0.2-1.9-0.7
		c-0.4-0.5-0.6-1.1-0.6-2c0-0.9,0.2-1.6,0.6-2c0.4-0.4,1-0.7,1.8-0.7C58.2,33.3,58.8,33.6,59.1,34z M56.4,35.6h2
		c0-0.4-0.1-0.7-0.2-0.9c-0.1-0.2-0.4-0.3-0.7-0.3C56.9,34.3,56.5,34.7,56.4,35.6z"/>
	<path d="M63.5,33.5c0.1,0.1,0.1,0.2,0.1,0.3c0,0.1,0,0.3-0.1,0.5c-0.1,0.2-0.1,0.3-0.2,0.3c0,0-0.1,0-0.2,0c-0.1,0-0.2,0-0.3,0
		c-0.2,0-0.4,0.1-0.5,0.2S62.1,34.9,62,35v3.4c0,0.2-0.2,0.3-0.5,0.3h-0.2c-0.4,0-0.5-0.1-0.5-0.3v-3.3c0-0.4,0-0.8-0.1-1
		c0-0.2-0.1-0.3-0.1-0.4c0-0.1,0.1-0.2,0.3-0.2c0.2,0,0.4-0.1,0.6-0.1c0.1,0,0.2,0,0.2,0.1c0,0.1,0.1,0.2,0.1,0.3c0,0.1,0,0.2,0,0.2
		c0.1-0.2,0.3-0.4,0.5-0.6s0.4-0.2,0.6-0.2C63.3,33.3,63.4,33.4,63.5,33.5z"/>
	<path d="M68.4,33.6c0,0,0,0.1,0,0.2l-1.6,4.7c0,0.1-0.2,0.2-0.5,0.2H66c-0.3,0-0.5-0.1-0.5-0.2l-1.6-4.7c0-0.1,0-0.1,0-0.2
		c0-0.1,0.2-0.2,0.5-0.2h0.2c0.3,0,0.5,0.1,0.5,0.2l0.7,2.3l0.2,0.9l0.1,0.4h0c0.1-0.5,0.2-0.9,0.3-1.2l0.8-2.4
		c0-0.1,0.2-0.2,0.5-0.2h0.2C68.3,33.4,68.4,33.5,68.4,33.6z"/>
	<path d="M70.5,31.4v0.7c0,0.1,0,0.2-0.1,0.2c-0.1,0-0.2,0.1-0.4,0.1h-0.2c-0.2,0-0.3,0-0.4-0.1c-0.1,0-0.1-0.1-0.1-0.2v-0.7
		c0-0.2,0.2-0.3,0.5-0.3H70C70.4,31.1,70.5,31.2,70.5,31.4z M70.5,33.7v4.7c0,0.2-0.2,0.3-0.5,0.3h-0.2c-0.3,0-0.5-0.1-0.5-0.3v-4.7
		c0-0.2,0.2-0.3,0.5-0.3H70C70.3,33.4,70.5,33.5,70.5,33.7z"/>
	<path d="M75.3,33.5c0.3,0.1,0.5,0.3,0.5,0.4c0,0.1-0.1,0.2-0.2,0.4c-0.1,0.2-0.2,0.3-0.3,0.3c0,0-0.1,0-0.1-0.1
		c-0.3-0.2-0.6-0.2-1-0.2c-0.4,0-0.7,0.1-0.9,0.4C73.1,35,73,35.4,73,36c0,0.6,0.1,1,0.3,1.3s0.5,0.4,1,0.4c0.3,0,0.7-0.1,1-0.2
		c0.1,0,0.1-0.1,0.1-0.1c0.1,0,0.2,0.1,0.3,0.3c0.1,0.2,0.2,0.3,0.2,0.4c0,0.1-0.1,0.2-0.3,0.3c-0.2,0.1-0.4,0.2-0.7,0.2
		c-0.3,0-0.5,0.1-0.7,0.1c-0.8,0-1.5-0.2-1.9-0.6c-0.4-0.4-0.6-1.1-0.6-2c0-0.9,0.2-1.6,0.6-2c0.4-0.4,1-0.7,1.8-0.7
		C74.6,33.3,74.9,33.4,75.3,33.5z"/>
	<path d="M80.5,34c0.3,0.5,0.5,1.1,0.5,1.9c0,0.1-0.1,0.2-0.2,0.3s-0.2,0.2-0.3,0.2h-2.8c0,0.4,0.2,0.8,0.4,1
		c0.2,0.2,0.5,0.3,0.9,0.3c0.2,0,0.4,0,0.6-0.1c0.2-0.1,0.3-0.1,0.5-0.2c0.1,0,0.2-0.1,0.2-0.1c0.1,0,0.2,0.1,0.3,0.3
		c0.1,0.2,0.2,0.3,0.2,0.4c0,0.1-0.1,0.2-0.3,0.4c-0.2,0.1-0.4,0.2-0.7,0.2c-0.3,0.1-0.5,0.1-0.8,0.1c-0.9,0-1.5-0.2-1.9-0.7
		c-0.4-0.5-0.6-1.1-0.6-2c0-0.9,0.2-1.6,0.6-2c0.4-0.4,1-0.7,1.8-0.7C79.6,33.3,80.2,33.6,80.5,34z M77.8,35.6h2
		c0-0.4-0.1-0.7-0.2-0.9c-0.1-0.2-0.4-0.3-0.7-0.3C78.3,34.3,77.9,34.7,77.8,35.6z"/>
	<path d="M87.1,31.5c0,0.1,0,0.2-0.1,0.4c-0.1,0.2-0.1,0.2-0.2,0.2c0,0-0.1,0-0.2,0c-0.1,0-0.1,0-0.2,0c-0.1,0-0.3,0-0.3,0.1
		S86,32.4,86,32.6v0.8h0.6c0.1,0,0.2,0,0.2,0.1c0,0.1,0.1,0.2,0.1,0.3V34c0,0.1,0,0.3-0.1,0.3c0,0.1-0.1,0.1-0.2,0.1H86v4
		c0,0.2-0.2,0.3-0.5,0.3h-0.2c-0.3,0-0.5-0.1-0.5-0.3v-4h-0.3c-0.1,0-0.2,0-0.2-0.1c0-0.1-0.1-0.2-0.1-0.3v-0.1c0-0.2,0-0.3,0.1-0.3
		c0-0.1,0.1-0.1,0.2-0.1h0.3v-0.8c0-0.5,0.1-0.9,0.4-1.2c0.3-0.2,0.6-0.4,1-0.4C86.7,31.1,87.1,31.2,87.1,31.5z"/>
	<path d="M91.3,33.8c0.3,0.3,0.5,0.7,0.5,1.2v2c0,0.5,0,0.8,0.1,1c0,0.2,0.1,0.3,0.1,0.4c0,0.1-0.1,0.2-0.3,0.2
		c-0.2,0-0.4,0.1-0.6,0.1c-0.1,0-0.2,0-0.2-0.1s-0.1-0.2-0.1-0.3c0-0.1,0-0.2,0-0.2c-0.2,0.2-0.4,0.4-0.6,0.5
		c-0.3,0.2-0.6,0.2-0.9,0.2c-0.5,0-0.9-0.1-1.2-0.4c-0.3-0.3-0.4-0.6-0.4-1.1c0-1.2,1-1.8,3-1.9V35c0-0.4-0.3-0.7-0.9-0.7
		c-0.2,0-0.5,0-0.7,0.1c-0.2,0.1-0.4,0.1-0.5,0.2c-0.1,0.1-0.2,0.1-0.2,0.1c-0.1,0-0.2-0.1-0.3-0.3c-0.1-0.2-0.2-0.3-0.2-0.4
		c0-0.1,0.1-0.2,0.3-0.3c0.2-0.1,0.4-0.2,0.7-0.3c0.3-0.1,0.6-0.1,0.9-0.1C90.4,33.3,91,33.5,91.3,33.8z M89.3,36.5
		c-0.3,0.1-0.5,0.3-0.5,0.7c0,0.2,0.1,0.3,0.2,0.4c0.1,0.1,0.3,0.2,0.5,0.2c0.2,0,0.4-0.1,0.6-0.2c0.2-0.1,0.4-0.3,0.5-0.5v-0.8
		C90,36.3,89.6,36.3,89.3,36.5z"/>
	<path d="M94.5,31.4v0.7c0,0.1,0,0.2-0.1,0.2c-0.1,0-0.2,0.1-0.4,0.1h-0.2c-0.2,0-0.3,0-0.4-0.1c-0.1,0-0.1-0.1-0.1-0.2v-0.7
		c0-0.2,0.2-0.3,0.5-0.3H94C94.3,31.1,94.5,31.2,94.5,31.4z M94.5,33.7v4.7c0,0.2-0.2,0.3-0.5,0.3h-0.2c-0.3,0-0.5-0.1-0.5-0.3v-4.7
		c0-0.2,0.2-0.3,0.5-0.3H94C94.3,33.4,94.5,33.5,94.5,33.7z"/>
	<path d="M97.2,31.4v5.8c0,0.2,0,0.3,0.1,0.4c0.1,0.1,0.2,0.1,0.3,0.1c0.1,0,0.1,0,0.2,0c0.1,0,0.1,0,0.1,0c0.1,0,0.1,0.1,0.2,0.3
		c0.1,0.2,0.1,0.3,0.1,0.4c0,0.3-0.3,0.4-0.9,0.4c-0.4,0-0.8-0.1-1-0.4c-0.3-0.2-0.4-0.6-0.4-1.2v-5.8c0-0.2,0.2-0.3,0.5-0.3h0.2
		C97,31.1,97.2,31.2,97.2,31.4z"/>
	<path d="M102.6,34c0.3,0.5,0.5,1.1,0.5,1.9c0,0.1-0.1,0.2-0.2,0.3s-0.2,0.2-0.3,0.2h-2.8c0,0.4,0.2,0.8,0.4,1
		c0.2,0.2,0.5,0.3,0.9,0.3c0.2,0,0.4,0,0.6-0.1c0.2-0.1,0.3-0.1,0.5-0.2c0.1,0,0.2-0.1,0.2-0.1c0.1,0,0.2,0.1,0.3,0.3
		c0.1,0.2,0.2,0.3,0.2,0.4c0,0.1-0.1,0.2-0.3,0.4c-0.2,0.1-0.4,0.2-0.7,0.2c-0.3,0.1-0.5,0.1-0.8,0.1c-0.9,0-1.5-0.2-1.9-0.7
		c-0.4-0.5-0.6-1.1-0.6-2c0-0.9,0.2-1.6,0.6-2c0.4-0.4,1-0.7,1.8-0.7C101.8,33.3,102.3,33.6,102.6,34z M99.9,35.6h2
		c0-0.4-0.1-0.7-0.2-0.9c-0.1-0.2-0.4-0.3-0.7-0.3C100.4,34.3,100,34.7,99.9,35.6z"/>
	<path d="M108.5,31.4V37c0,0.5,0,0.8,0.1,1c0,0.2,0.1,0.3,0.1,0.4c0,0.1-0.1,0.2-0.3,0.2c-0.2,0-0.4,0.1-0.6,0.1
		c-0.1,0-0.2,0-0.2-0.1s-0.1-0.2-0.1-0.3c0-0.1,0-0.2,0-0.2c-0.2,0.2-0.4,0.4-0.6,0.6s-0.5,0.2-0.8,0.2c-0.4,0-0.7-0.1-1-0.3
		c-0.3-0.2-0.5-0.5-0.7-0.9c-0.2-0.4-0.2-0.9-0.2-1.4c0-0.8,0.2-1.5,0.6-2s0.9-0.7,1.5-0.7c0.4,0,0.8,0.1,1.2,0.4v-2.3
		c0-0.2,0.2-0.3,0.5-0.3h0.2C108.3,31.1,108.5,31.2,108.5,31.4z M105.6,34.8c-0.2,0.3-0.3,0.7-0.3,1.2c0,0.5,0.1,1,0.2,1.3
		c0.2,0.3,0.4,0.4,0.7,0.4c0.4,0,0.7-0.2,1-0.6v-2.4c-0.3-0.2-0.6-0.3-0.9-0.3C106,34.4,105.7,34.5,105.6,34.8z"/>
</g>
</svg>
