<?xml version="1.0" encoding="utf-8"?>
<!-- Generator: Adobe Illustrator 19.1.0, SVG Export Plug-In . SVG Version: 6.00 Build 0)  -->
<svg version="1.1" id="Layer_1" xmlns="http://www.w3.org/2000/svg" xmlns:xlink="http://www.w3.org/1999/xlink" x="0px" y="0px"
	 width="153.7px" height="141.1px" viewBox="0 0 153.7 141.1" style="enable-background:new 0 0 153.7 141.1;" xml:space="preserve"
	>
<style type="text/css">
	.st0{fill:#D1EE83;stroke:#97BD30;stroke-width:2.5;stroke-miterlimit:10;}
	.st1{fill:#D1EE83;stroke:#97BD30;stroke-width:4;stroke-miterlimit:10;}
	.st2{fill:#97BD30;}
	.st3{fill:none;stroke:#97BD30;stroke-width:4;stroke-miterlimit:10;}
	.st4{fill:none;stroke:#C8D2D2;stroke-width:4;stroke-miterlimit:10;}
	.st5{fill:#C8D2D2;}
	.st6{fill:#D1EE83;stroke:#97BD30;stroke-width:3.4991;stroke-miterlimit:10;}
	.st7{fill:#D1EE83;stroke:#97BD30;stroke-width:5.6814;stroke-miterlimit:10;}
	.st8{fill:none;stroke:#97BD30;stroke-width:4.8706;stroke-miterlimit:10;}
	.st9{fill:none;stroke:#C8D2D2;stroke-width:4.8076;stroke-miterlimit:10;}
	.st10{fill:none;stroke:#C8D2D2;stroke-width:3.2416;stroke-miterlimit:10;}
	.st11{fill:none;stroke:#97BD30;stroke-width:2.5;stroke-miterlimit:10;}
	.st12{fill:#EE9B83;stroke:#BD3130;stroke-width:2.5;stroke-miterlimit:10;}
	.st13{fill:#BD3130;}
	.st14{fill:none;stroke:#BD3130;stroke-width:4;stroke-miterlimit:10;}
	.st15{fill:#EE9B83;stroke:#BD3130;stroke-width:4;stroke-miterlimit:10;}
	.st16{fill:none;stroke:#97BD30;stroke-width:3;stroke-miterlimit:10;}
	.st17{fill:#FF990D;}
	.st18{fill:none;stroke:#BD3130;stroke-width:2.4036;stroke-miterlimit:10;}
	.st19{fill:none;stroke:#C8D2D2;stroke-width:2.4036;stroke-miterlimit:10;}
	.st20{fill:#EE9B83;stroke:#BD3130;stroke-width:2.4036;stroke-miterlimit:10;}
	.st21{fill:#D1EE83;stroke:#97BD30;stroke-width:1.8073;stroke-miterlimit:10;}
	.st22{fill:#D1EE83;stroke:#97BD30;stroke-width:3;stroke-miterlimit:10;}
	.st23{fill:none;stroke:#C8D2D2;stroke-width:3;stroke-miterlimit:10;}
	.st24{fill:#D1EE83;stroke:#97BD30;stroke-width:2.6609;stroke-miterlimit:10;}
	.st25{fill:none;stroke:#BD3130;stroke-width:2.6609;stroke-miterlimit:10;}
	.st26{fill:none;stroke:#97BD30;stroke-width:2.6609;stroke-miterlimit:10;}
	.st27{fill:#EE9B83;stroke:#BD3130;stroke-width:2.6609;stroke-miterlimit:10;}
	.st28{fill:none;stroke:#C8D2D2;stroke-width:2.6609;stroke-miterlimit:10;}
	.st29{fill:#EE9B83;stroke:#BD3130;stroke-width:1.8073;stroke-miterlimit:10;}
	.st30{fill:none;stroke:#97BD30;stroke-width:1.8069;stroke-miterlimit:10;}
	.st31{fill:none;stroke:#BD3130;stroke-width:2.9701;stroke-miterlimit:10;}
	.st32{fill:none;stroke:#C8D2D2;stroke-width:2.9701;stroke-miterlimit:10;}
	.st33{fill:#EE9B83;stroke:#BD3130;stroke-width:2.9701;stroke-miterlimit:10;}
	.st34{fill:none;stroke:#BD3130;stroke-width:3;stroke-miterlimit:10;}
	.st35{fill:#EE9B83;stroke:#BD3130;stroke-width:3;stroke-miterlimit:10;}
	.st36{fill:none;stroke:#BD3130;stroke-width:2.6101;stroke-miterlimit:10;}
	.st37{fill:none;stroke:#C8D2D2;stroke-width:2.6101;stroke-miterlimit:10;}
	.st38{fill:#EE9B83;stroke:#BD3130;stroke-width:2.6101;stroke-miterlimit:10;}
	.st39{fill:none;stroke:#97BD30;stroke-width:2.6364;stroke-miterlimit:10;}
	.st40{fill:none;stroke:#97BD30;stroke-width:1.8073;stroke-miterlimit:10;}
</style>
<g>
	<path class="st21" d="M149.4,26.5H4.1c-1.1,0-2-0.9-2-2V4.3c0-1.1,0.9-2,2-2h145.4c1.1,0,2,0.9,2,2v20.2
		C151.4,25.6,150.5,26.5,149.4,26.5z"/>
	<g>
		<path class="st22" d="M103.7,90.4h-59c-1,0-1.9-0.9-1.9-1.9V40.6c0-1,0.9-1.9,1.9-1.9h59c1,0,1.9,0.9,1.9,1.9v47.9
			C105.6,89.5,104.7,90.4,103.7,90.4z"/>
		<path class="st2" d="M107.5,72.4L107.5,72.4c-1.3,0-2.3-1-2.3-2.3V58.9c0-1.3,1-2.3,2.3-2.3h0c1.3,0,2.3,1,2.3,2.3v11.2
			C109.8,71.4,108.7,72.4,107.5,72.4z"/>
		<path class="st2" d="M40.7,72.4L40.7,72.4c-1.3,0-2.3-1-2.3-2.3V58.9c0-1.3,1-2.3,2.3-2.3h0c1.3,0,2.3,1,2.3,2.3v11.2
			C43,71.4,42,72.4,40.7,72.4z"/>
		<path class="st16" d="M40.7,64.5c0,0-13-3.3-13,14.7s0,27.3,0,27.3"/>
		<path class="st16" d="M107.2,64.5c0,0,13-3.3,13,14.7c0,4.6,0,15,0,18.4"/>
		<path class="st23" d="M46.8,130.4H25.5c-5,0-9.1-4.1-9.1-9.1v-3.1c0-5,4.1-9.1,9.1-9.1h21.2c5,0,9.1,4.1,9.1,9.1v3.1
			C55.9,126.3,51.8,130.4,46.8,130.4z"/>
		<polygon class="st23" points="103.9,100.6 120.5,129.4 137.1,100.6 		"/>
		<path class="st5" d="M22.8,106v-0.3c0-0.9,0.7-1.6,1.6-1.6h6.9c0.9,0,1.6,0.7,1.6,1.6v0.3c0,0.9-0.7,1.6-1.6,1.6h-6.9
			C23.5,107.6,22.8,106.9,22.8,106z"/>
		<path class="st5" d="M125.1,97.7v-0.3c0-0.9-0.7-1.6-1.6-1.6h-6.9c-0.9,0-1.6,0.7-1.6,1.6v0.3c0,0.9,0.7,1.6,1.6,1.6h6.9
			C124.4,99.3,125.1,98.5,125.1,97.7z"/>
	</g>
	<g>
		<path d="M58.3,8.9c0.4,0.1,0.8,0.2,1.1,0.3c0.3,0.1,0.4,0.3,0.4,0.5c0,0.1,0,0.3-0.1,0.4c-0.1,0.2-0.2,0.3-0.3,0.5
			c-0.1,0.1-0.2,0.2-0.3,0.2c0,0-0.1,0-0.3-0.1c-0.2-0.1-0.4-0.2-0.7-0.3c-0.3-0.1-0.6-0.1-1-0.1c-0.9,0-1.6,0.3-2.1,0.8
			c-0.4,0.6-0.7,1.4-0.7,2.6c0,1.2,0.2,2,0.7,2.6c0.4,0.6,1.1,0.9,2,0.9c0.4,0,0.8,0,1.1-0.1c0.3-0.1,0.6-0.2,0.9-0.3
			c0.1-0.1,0.3-0.1,0.3-0.1c0.1,0,0.2,0.1,0.3,0.2c0.1,0.1,0.2,0.3,0.3,0.5c0.1,0.2,0.1,0.3,0.1,0.4c0,0.2-0.2,0.4-0.5,0.6
			s-0.7,0.3-1.2,0.4c-0.5,0.1-0.9,0.1-1.4,0.1c-1.6,0-2.7-0.4-3.5-1.2c-0.7-0.8-1.1-2.1-1.1-3.8c0-3.3,1.5-5,4.6-5
			C57.5,8.8,57.9,8.8,58.3,8.9z"/>
		<path d="M63.3,9.3v7.9h3.4c0.1,0,0.2,0,0.3,0.1c0.1,0.1,0.1,0.2,0.1,0.5v0.4c0,0.2,0,0.4-0.1,0.5c-0.1,0.1-0.1,0.1-0.3,0.1H62
			c-0.2,0-0.3,0-0.4-0.1c-0.1-0.1-0.1-0.2-0.1-0.4V9.3c0-0.3,0.2-0.4,0.7-0.4h0.3C63.1,8.9,63.3,9,63.3,9.3z"/>
		<path d="M75.6,10.1c0.8,0.8,1.1,2.1,1.1,3.7s-0.4,2.9-1.1,3.7c-0.8,0.9-1.9,1.3-3.3,1.3s-2.5-0.4-3.3-1.3
			c-0.8-0.9-1.1-2.1-1.1-3.7c0-1.6,0.4-2.8,1.1-3.7c0.8-0.9,1.9-1.3,3.3-1.3S74.8,9.2,75.6,10.1z M70.4,11.2
			c-0.4,0.6-0.7,1.4-0.7,2.6c0,1.1,0.2,2,0.7,2.6c0.4,0.6,1.1,0.9,1.9,0.9c0.8,0,1.5-0.3,1.9-0.9c0.4-0.6,0.7-1.4,0.7-2.6
			c0-1.1-0.2-2-0.7-2.6c-0.4-0.6-1.1-0.9-1.9-0.9C71.4,10.3,70.8,10.6,70.4,11.2z"/>
		<path d="M82.4,8.9c0.4,0.1,0.7,0.2,0.9,0.3s0.4,0.3,0.4,0.4c0,0.2-0.1,0.4-0.2,0.7c-0.2,0.3-0.3,0.4-0.4,0.4c0,0-0.1,0-0.3-0.1
			c-0.2-0.1-0.4-0.2-0.6-0.2s-0.5-0.1-0.8-0.1c-0.5,0-0.9,0.1-1.1,0.3c-0.2,0.2-0.4,0.5-0.4,0.8c0,0.3,0.1,0.5,0.2,0.7
			c0.1,0.2,0.3,0.3,0.5,0.4s0.5,0.2,0.9,0.4c0.5,0.2,1,0.4,1.3,0.6c0.3,0.2,0.6,0.5,0.9,0.9s0.4,0.9,0.4,1.4c0,1-0.3,1.7-0.9,2.2
			c-0.6,0.5-1.3,0.7-2.3,0.7c-0.6,0-1.2-0.1-1.6-0.2c-0.5-0.1-0.9-0.3-1.1-0.5c-0.3-0.2-0.4-0.3-0.4-0.5c0-0.1,0-0.3,0.1-0.4
			s0.2-0.3,0.3-0.4c0.1-0.1,0.2-0.2,0.3-0.2c0.1,0,0.2,0,0.3,0.1c0.3,0.2,0.6,0.3,0.9,0.4c0.3,0.1,0.6,0.1,1,0.1
			c0.4,0,0.8-0.1,1.1-0.3c0.3-0.2,0.4-0.5,0.4-0.9c0-0.3-0.1-0.5-0.2-0.6c-0.1-0.2-0.3-0.3-0.6-0.4c-0.2-0.1-0.5-0.3-0.9-0.4
			c-0.2-0.1-0.4-0.2-0.4-0.2c-0.4-0.2-0.8-0.4-1.1-0.6s-0.5-0.5-0.7-0.8c-0.2-0.4-0.3-0.8-0.3-1.3c0-0.6,0.1-1.1,0.4-1.5
			c0.3-0.4,0.7-0.7,1.2-0.9c0.5-0.2,1-0.3,1.6-0.3C81.6,8.8,82,8.8,82.4,8.9z"/>
		<path d="M91.3,9c0.1,0.1,0.1,0.2,0.1,0.5v0.4c0,0.2,0,0.4-0.1,0.5c-0.1,0.1-0.2,0.1-0.3,0.1h-3.7v2.5h3.3c0.1,0,0.2,0,0.3,0.1
			c0.1,0.1,0.1,0.2,0.1,0.5v0.3c0,0.2,0,0.4-0.1,0.5c-0.1,0.1-0.2,0.1-0.3,0.1h-3.3v2.7h3.7c0.1,0,0.2,0,0.3,0.1
			c0.1,0.1,0.1,0.2,0.1,0.5v0.4c0,0.2,0,0.4-0.1,0.5s-0.2,0.1-0.3,0.1h-5c-0.2,0-0.3,0-0.4-0.1c-0.1-0.1-0.1-0.2-0.1-0.4V9.4
			c0-0.2,0-0.3,0.1-0.4s0.2-0.1,0.4-0.1h5C91.2,8.9,91.3,8.9,91.3,9z"/>
		<path d="M99.9,10.1c0.8,0.8,1.2,2,1.2,3.7s-0.4,2.8-1.2,3.7s-1.9,1.2-3.3,1.2h-3c-0.2,0-0.3,0-0.4-0.1c-0.1-0.1-0.1-0.2-0.1-0.4
			V9.4c0-0.2,0-0.3,0.1-0.4s0.2-0.1,0.4-0.1h3C98.1,8.9,99.2,9.3,99.9,10.1z M95,10.4v6.7h1.7c0.8,0,1.5-0.3,1.9-0.8
			c0.5-0.6,0.7-1.4,0.7-2.5c0-1.1-0.2-1.9-0.7-2.5c-0.5-0.6-1.1-0.8-1.9-0.8H95z"/>
	</g>
</g>
<g>
	<path d="M116.9,108.5l1.8,5.2c0,0,0,0.1,0,0.1c0,0.1-0.1,0.2-0.4,0.2h-0.2c-0.2,0-0.4-0.1-0.4-0.2l-0.4-1.1h-2.1l-0.4,1.1
		c0,0.1-0.2,0.2-0.4,0.2h-0.2c-0.3,0-0.4-0.1-0.4-0.2c0,0,0-0.1,0-0.1l1.8-5.2c0-0.1,0.2-0.2,0.4-0.2h0.4
		C116.7,108.3,116.8,108.4,116.9,108.5z M116.3,109.5c0,0,0,0.1,0,0.2c0,0.1,0,0.2-0.1,0.3l-0.6,1.8h1.5l-0.6-1.8
		C116.4,109.9,116.3,109.7,116.3,109.5L116.3,109.5z"/>
	<path d="M122.2,109.9c0.2,0.2,0.4,0.4,0.5,0.7c0.1,0.3,0.2,0.7,0.2,1.1c0,0.7-0.1,1.2-0.4,1.6c-0.3,0.4-0.7,0.6-1.2,0.6
		c-0.3,0-0.7-0.1-0.9-0.3v1.7c0,0.2-0.1,0.2-0.4,0.2h-0.2c-0.3,0-0.4-0.1-0.4-0.2v-4.3c0-0.4,0-0.6,0-0.8c0-0.2,0-0.3,0-0.3
		c0-0.1,0.1-0.1,0.3-0.2c0.2,0,0.3-0.1,0.5-0.1c0.1,0,0.1,0,0.2,0.1c0,0.1,0.1,0.2,0.1,0.2c0,0.1,0,0.1,0,0.2
		c0.1-0.2,0.3-0.3,0.5-0.4c0.2-0.1,0.4-0.2,0.7-0.2C121.7,109.7,122,109.8,122.2,109.9z M120.7,110.6c-0.1,0.1-0.3,0.2-0.4,0.4v1.9
		c0.2,0.2,0.4,0.2,0.7,0.2c0.6,0,0.9-0.4,0.9-1.3c0-0.4-0.1-0.8-0.2-1c-0.1-0.2-0.3-0.3-0.6-0.3C121,110.5,120.9,110.6,120.7,110.6z
		"/>
	<path d="M126.8,109.9c0.2,0.2,0.4,0.4,0.5,0.7c0.1,0.3,0.2,0.7,0.2,1.1c0,0.7-0.1,1.2-0.4,1.6c-0.3,0.4-0.7,0.6-1.2,0.6
		c-0.3,0-0.7-0.1-0.9-0.3v1.7c0,0.2-0.1,0.2-0.4,0.2h-0.2c-0.3,0-0.4-0.1-0.4-0.2v-4.3c0-0.4,0-0.6,0-0.8c0-0.2,0-0.3,0-0.3
		c0-0.1,0.1-0.1,0.3-0.2c0.2,0,0.3-0.1,0.5-0.1c0.1,0,0.1,0,0.2,0.1c0,0.1,0.1,0.2,0.1,0.2c0,0.1,0,0.1,0,0.2
		c0.1-0.2,0.3-0.3,0.5-0.4c0.2-0.1,0.4-0.2,0.7-0.2C126.3,109.7,126.6,109.8,126.8,109.9z M125.3,110.6c-0.1,0.1-0.3,0.2-0.4,0.4
		v1.9c0.2,0.2,0.4,0.2,0.7,0.2c0.6,0,0.9-0.4,0.9-1.3c0-0.4-0.1-0.8-0.2-1c-0.1-0.2-0.3-0.3-0.6-0.3
		C125.6,110.5,125.4,110.6,125.3,110.6z"/>
</g>
<g>
	<path d="M25.6,116.1c0.2,0.1,0.4,0.1,0.5,0.2c0.1,0.1,0.2,0.2,0.2,0.3c0,0.1,0,0.2-0.1,0.4c-0.1,0.2-0.2,0.2-0.2,0.2
		c0,0-0.1,0-0.2-0.1c-0.1-0.1-0.2-0.1-0.4-0.1c-0.1,0-0.3-0.1-0.4-0.1c-0.3,0-0.5,0.1-0.6,0.2c-0.1,0.1-0.2,0.3-0.2,0.4
		c0,0.2,0,0.3,0.1,0.4c0.1,0.1,0.2,0.2,0.3,0.2c0.1,0.1,0.3,0.1,0.5,0.2c0.3,0.1,0.6,0.2,0.8,0.4c0.2,0.1,0.4,0.3,0.5,0.5
		c0.1,0.2,0.2,0.5,0.2,0.8c0,0.6-0.2,1-0.5,1.3c-0.3,0.3-0.8,0.4-1.3,0.4c-0.3,0-0.7,0-0.9-0.1c-0.3-0.1-0.5-0.2-0.6-0.3
		c-0.2-0.1-0.2-0.2-0.2-0.3c0-0.1,0-0.2,0.1-0.2c0.1-0.1,0.1-0.2,0.2-0.3s0.1-0.1,0.2-0.1c0,0,0.1,0,0.2,0.1
		c0.2,0.1,0.3,0.2,0.5,0.2s0.3,0.1,0.6,0.1c0.2,0,0.4-0.1,0.6-0.2s0.2-0.3,0.2-0.5c0-0.1,0-0.3-0.1-0.4c-0.1-0.1-0.2-0.2-0.3-0.3
		s-0.3-0.1-0.5-0.2c-0.1-0.1-0.2-0.1-0.2-0.1c-0.2-0.1-0.5-0.2-0.6-0.3c-0.2-0.1-0.3-0.3-0.4-0.5s-0.2-0.5-0.2-0.8
		c0-0.3,0.1-0.6,0.3-0.9c0.2-0.2,0.4-0.4,0.7-0.5s0.6-0.2,0.9-0.2C25.2,116.1,25.4,116.1,25.6,116.1z"/>
	<path d="M30.4,118c0.3,0.4,0.4,0.9,0.4,1.5c0,0.1,0,0.1-0.1,0.3s-0.2,0.2-0.2,0.2h-2.2c0,0.4,0.1,0.6,0.3,0.8s0.4,0.2,0.7,0.2
		c0.2,0,0.3,0,0.5-0.1c0.1,0,0.3-0.1,0.4-0.2c0.1,0,0.1-0.1,0.2-0.1c0.1,0,0.1,0.1,0.2,0.2s0.1,0.2,0.1,0.3c0,0.1-0.1,0.2-0.2,0.3
		c-0.2,0.1-0.3,0.2-0.6,0.2c-0.2,0-0.4,0.1-0.6,0.1c-0.7,0-1.2-0.2-1.5-0.5c-0.3-0.4-0.5-0.9-0.5-1.6c0-0.7,0.2-1.3,0.5-1.6
		c0.3-0.4,0.8-0.5,1.4-0.5C29.7,117.5,30.1,117.7,30.4,118z M28.2,119.3h1.6c0-0.3-0.1-0.5-0.2-0.7c-0.1-0.2-0.3-0.3-0.5-0.3
		C28.6,118.3,28.3,118.6,28.2,119.3z"/>
	<path d="M33.9,117.6c0.1,0.1,0.1,0.2,0.1,0.3c0,0.1,0,0.2-0.1,0.4c0,0.1-0.1,0.2-0.2,0.2c0,0-0.1,0-0.2,0s-0.2,0-0.2,0
		c-0.2,0-0.3,0-0.4,0.1c-0.1,0.1-0.2,0.2-0.3,0.3v2.7c0,0.1-0.1,0.2-0.4,0.2h-0.2c-0.3,0-0.4-0.1-0.4-0.2v-2.6c0-0.4,0-0.6,0-0.8
		c0-0.2,0-0.3,0-0.3c0-0.1,0.1-0.1,0.3-0.2c0.2,0,0.3-0.1,0.5-0.1c0.1,0,0.1,0,0.2,0.1c0,0.1,0.1,0.2,0.1,0.2s0,0.1,0,0.2
		c0.1-0.2,0.2-0.3,0.4-0.4c0.1-0.1,0.3-0.2,0.5-0.2C33.7,117.5,33.8,117.5,33.9,117.6z"/>
	<path d="M37.8,117.7c0,0,0,0.1,0,0.1l-1.3,3.8c0,0.1-0.2,0.2-0.4,0.2h-0.3c-0.2,0-0.4-0.1-0.4-0.2l-1.3-3.8c0-0.1,0-0.1,0-0.1
		c0-0.1,0.1-0.2,0.4-0.2h0.2c0.2,0,0.4,0.1,0.4,0.2l0.6,1.9l0.2,0.7l0.1,0.3h0c0.1-0.4,0.2-0.7,0.2-1l0.6-1.9c0-0.1,0.2-0.2,0.4-0.2
		h0.1C37.7,117.5,37.8,117.6,37.8,117.7z"/>
	<path d="M39.5,115.9v0.6c0,0.1,0,0.1-0.1,0.2c-0.1,0-0.2,0.1-0.3,0.1h-0.2c-0.1,0-0.3,0-0.3-0.1c-0.1,0-0.1-0.1-0.1-0.2v-0.6
		c0-0.1,0.1-0.2,0.4-0.2h0.2C39.4,115.7,39.5,115.8,39.5,115.9z M39.5,117.7v3.8c0,0.1-0.1,0.2-0.4,0.2h-0.2c-0.3,0-0.4-0.1-0.4-0.2
		v-3.8c0-0.1,0.1-0.2,0.4-0.2h0.2C39.3,117.5,39.5,117.6,39.5,117.7z"/>
	<path d="M43.3,117.6c0.3,0.1,0.4,0.2,0.4,0.3c0,0.1,0,0.2-0.1,0.3c-0.1,0.1-0.2,0.2-0.2,0.2c0,0,0,0-0.1,0
		c-0.2-0.1-0.5-0.2-0.8-0.2c-0.3,0-0.6,0.1-0.8,0.3c-0.2,0.2-0.2,0.6-0.2,1c0,0.5,0.1,0.8,0.2,1c0.2,0.2,0.4,0.3,0.8,0.3
		c0.3,0,0.6-0.1,0.8-0.2c0.1,0,0.1,0,0.1,0c0.1,0,0.2,0.1,0.2,0.2s0.1,0.2,0.1,0.3c0,0.1-0.1,0.2-0.2,0.3s-0.3,0.1-0.6,0.2
		s-0.4,0.1-0.6,0.1c-0.7,0-1.2-0.2-1.5-0.5s-0.5-0.9-0.5-1.6c0-0.7,0.2-1.3,0.5-1.6s0.8-0.5,1.5-0.5C42.7,117.5,43,117.5,43.3,117.6
		z"/>
	<path d="M47.5,118c0.3,0.4,0.4,0.9,0.4,1.5c0,0.1,0,0.1-0.1,0.3s-0.2,0.2-0.2,0.2h-2.2c0,0.4,0.1,0.6,0.3,0.8s0.4,0.2,0.7,0.2
		c0.2,0,0.3,0,0.5-0.1c0.1,0,0.3-0.1,0.4-0.2c0.1,0,0.1-0.1,0.2-0.1c0.1,0,0.1,0.1,0.2,0.2s0.1,0.2,0.1,0.3c0,0.1-0.1,0.2-0.2,0.3
		c-0.2,0.1-0.3,0.2-0.6,0.2c-0.2,0-0.4,0.1-0.6,0.1c-0.7,0-1.2-0.2-1.5-0.5c-0.3-0.4-0.5-0.9-0.5-1.6c0-0.7,0.2-1.3,0.5-1.6
		c0.3-0.4,0.8-0.5,1.4-0.5C46.8,117.5,47.2,117.7,47.5,118z M45.3,119.3h1.6c0-0.3-0.1-0.5-0.2-0.7c-0.1-0.2-0.3-0.3-0.5-0.3
		C45.7,118.3,45.4,118.6,45.3,119.3z"/>
</g>
</svg>
