<?xml version="1.0" encoding="utf-8"?>
<!-- Generator: Adobe Illustrator 19.1.0, SVG Export Plug-In . SVG Version: 6.00 Build 0)  -->
<svg version="1.1" id="Layer_1" xmlns="http://www.w3.org/2000/svg" xmlns:xlink="http://www.w3.org/1999/xlink" x="0px" y="0px"
	 width="152.2px" height="136.1px" viewBox="-229 328.9 152.2 136.1" style="enable-background:new -229 328.9 152.2 136.1;"
	 xml:space="preserve">
<style type="text/css">
	.st0{fill:#D1EE83;stroke:#97BD30;stroke-width:3;stroke-miterlimit:10;}
	.st1{fill:#97BD30;}
	.st2{fill:none;stroke:#97BD30;stroke-width:3;stroke-miterlimit:10;}
	.st3{fill:none;stroke:#C8D2D2;stroke-width:3;stroke-miterlimit:10;}
	.st4{fill:#C8D2D2;}
	.st5{fill:#D1EE83;stroke:#97BD30;stroke-width:1.8073;stroke-miterlimit:10;}
</style>
<path class="st0" d="M-125.5,420.1h-59c-1,0-1.9-0.9-1.9-1.9v-47.8c0-1,0.9-1.9,1.9-1.9h59c1,0,1.9,0.9,1.9,1.9v47.8
	C-123.6,419.3-124.5,420.1-125.5,420.1z"/>
<path class="st1" d="M-121.7,402.2L-121.7,402.2c-1.3,0-2.3-1-2.3-2.3v-11.2c0-1.3,1-2.3,2.3-2.3l0,0c1.3,0,2.3,1,2.3,2.3v11.2
	C-119.4,401.2-120.4,402.2-121.7,402.2z"/>
<path class="st1" d="M-188.4,402.2L-188.4,402.2c-1.3,0-2.3-1-2.3-2.3v-11.2c0-1.3,1-2.3,2.3-2.3l0,0c1.3,0,2.3,1,2.3,2.3v11.2
	C-186.2,401.2-187.2,402.2-188.4,402.2z"/>
<path class="st2" d="M-188.4,394.3c0,0-13-3.3-13,14.7s0,27.3,0,27.3"/>
<path class="st2" d="M-122,394.3c0,0,13-3.3,13,14.7c0,4.6,0,15,0,18.4"/>
<path class="st3" d="M-182.4,460.2h-21.2c-5,0-9.1-4.1-9.1-9.1V448c0-5,4.1-9.1,9.1-9.1h21.2c5,0,9.1,4.1,9.1,9.1v3.1
	C-173.3,456.1-177.4,460.2-182.4,460.2z"/>
<polygon class="st3" points="-125.3,430.4 -108.7,459.2 -92.1,430.4 "/>
<path class="st4" d="M-206.4,435.8v-0.3c0-0.9,0.7-1.6,1.6-1.6h6.9c0.9,0,1.6,0.7,1.6,1.6v0.3c0,0.9-0.7,1.6-1.6,1.6h-6.9
	C-205.7,437.4-206.4,436.6-206.4,435.8z"/>
<path class="st4" d="M-104,427.4v-0.3c0-0.9-0.7-1.6-1.6-1.6h-6.9c-0.9,0-1.6,0.7-1.6,1.6v0.3c0,0.9,0.7,1.6,1.6,1.6h6.9
	C-104.7,429-104,428.3-104,427.4z"/>
<path class="st5" d="M-79.7,354.1h-145.4c-1.1,0-2-0.9-2-2v-20.2c0-1.1,0.9-2,2-2h145.4c1.1,0,2,0.9,2,2v20.2
	C-77.7,353.2-78.6,354.1-79.7,354.1z"/>
<g>
	<path d="M-170.8,336.5c0.4,0.1,0.8,0.2,1.1,0.3c0.3,0.1,0.4,0.3,0.4,0.5c0,0.1,0,0.3-0.1,0.4c-0.1,0.1-0.2,0.3-0.3,0.5
		c-0.2,0.2-0.3,0.3-0.3,0.3s-0.1,0-0.3-0.1s-0.4-0.2-0.7-0.3s-0.6-0.1-1-0.1c-0.9,0-1.6,0.3-2.1,0.8c-0.4,0.6-0.7,1.4-0.7,2.6
		c0,1.2,0.2,2,0.7,2.6c0.4,0.6,1.1,0.9,2,0.9c0.4,0,0.8,0,1.1-0.1c0.3-0.1,0.6-0.2,0.9-0.3c0.1-0.1,0.3-0.1,0.3-0.1
		c0.1,0,0.2,0.1,0.3,0.2s0.2,0.3,0.3,0.5c0.1,0.2,0.1,0.3,0.1,0.4c0,0.2-0.2,0.4-0.5,0.6c-0.3,0.2-0.7,0.1-1.2,0.1
		c-0.5,0.1-0.9,0.1-1.4,0.1c-1.6,0-2.7-0.4-3.5-1.2c-0.7-0.8-1.1-2.1-1.1-3.8c0-3.3,1.5-5,4.6-5
		C-171.7,336.4-171.3,336.4-170.8,336.5z"/>
	<path d="M-165.8,336.9v7.9h3.4c0.1,0,0.2,0,0.3,0.1s0.1,0.2,0.1,0.5v0.4c0,0.2,0,0.4-0.1,0.5c-0.1,0.1-0.1,0.1-0.3,0.1h-4.7
		c-0.2,0-0.3,0-0.4-0.1c-0.1-0.1-0.1-0.2-0.1-0.4v-9c0-0.3,0.2-0.4,0.7-0.4h0.3C-166.1,336.5-165.8,336.6-165.8,336.9z"/>
	<path d="M-153.6,337.7c0.8,0.8,1.1,2.1,1.1,3.7s-0.4,2.9-1.1,3.7c-0.7,0.8-1.9,1.3-3.3,1.3c-1.4,0-2.5-0.4-3.3-1.3
		c-0.8-0.9-1.1-2.1-1.1-3.7s0.4-2.8,1.1-3.7c0.7-0.9,1.9-1.3,3.3-1.3C-155.5,336.4-154.4,336.8-153.6,337.7z M-158.8,338.8
		c-0.4,0.6-0.7,1.4-0.7,2.6c0,1.1,0.2,2,0.7,2.6c0.4,0.6,1.1,0.9,1.9,0.9c0.8,0,1.5-0.3,1.9-0.9s0.7-1.4,0.7-2.6
		c0-1.1-0.2-2-0.7-2.6c-0.4-0.6-1-0.9-1.9-0.9C-157.7,337.9-158.4,338.2-158.8,338.8z"/>
	<path d="M-146.8,336.5c0.4,0.1,0.7,0.2,0.9,0.3c0.2,0.1,0.4,0.3,0.4,0.4c0,0.2-0.1,0.4-0.2,0.7c-0.2,0.3-0.3,0.5-0.5,0.5
		c0,0-0.1,0-0.3-0.1c-0.2-0.1-0.4-0.2-0.6-0.2c-0.2,0-0.5-0.1-0.8-0.1c-0.5,0-0.9,0.1-1.1,0.3c-0.2,0.2-0.4,0.5-0.4,0.8
		c0,0.3,0.1,0.5,0.2,0.7c0.1,0.2,0.3,0.3,0.5,0.4c0.2,0.1,0.5,0.2,0.9,0.4c0.5,0.2,1,0.4,1.3,0.6c0.3,0.2,0.6,0.5,0.9,0.9
		c0.3,0.4,0.4,0.9,0.4,1.4c0,1-0.3,1.7-0.9,2.2c-0.6,0.5-1.3,0.7-2.3,0.7c-0.6,0-1.2-0.1-1.6-0.2c-0.5-0.1-0.9-0.3-1.1-0.5
		c-0.3-0.2-0.4-0.3-0.4-0.5c0-0.1,0-0.3,0.1-0.4c0.1-0.1,0.2-0.3,0.3-0.4s0.2-0.2,0.3-0.2c0.1,0,0.2,0,0.3,0.1
		c0.3,0.2,0.6,0.3,0.9,0.4c0.3,0.1,0.6,0.1,1,0.1s0.8-0.1,1.1-0.3c0.3-0.2,0.4-0.5,0.4-0.9c0-0.3-0.1-0.5-0.2-0.6s-0.3-0.3-0.6-0.4
		c-0.2-0.1-0.5-0.3-0.9-0.4c-0.2-0.1-0.4-0.2-0.4-0.2c-0.4-0.2-0.8-0.4-1.1-0.6c-0.3-0.2-0.5-0.5-0.7-0.8c-0.2-0.4-0.3-0.8-0.3-1.3
		c0-0.6,0.1-1.1,0.4-1.5c0.3-0.4,0.7-0.7,1.2-0.9c0.5-0.2,1-0.3,1.6-0.3C-147.5,336.4-147.2,336.4-146.8,336.5z"/>
	<path d="M-137.8,336.6c0.1,0.1,0.1,0.2,0.1,0.5v0.4c0,0.2,0,0.4-0.1,0.5s-0.2,0.1-0.3,0.1h-3.7v2.5h3.3c0.1,0,0.2,0,0.3,0.1
		c0.1,0.1,0.1,0.2,0.1,0.5v0.3c0,0.2,0,0.4-0.1,0.5s-0.2,0.1-0.3,0.1h-3.3v2.7h3.7c0.1,0,0.2,0,0.3,0.1s0.1,0.2,0.1,0.5v0.4
		c0,0.2,0,0.4-0.1,0.5c-0.1,0.1-0.2,0.1-0.3,0.1h-5c-0.2,0-0.3,0-0.4-0.1c-0.1-0.1-0.1-0.2-0.1-0.4V337c0-0.2,0-0.3,0.1-0.4
		c0.1-0.1,0.2-0.1,0.4-0.1h5C-138,336.5-137.9,336.5-137.8,336.6z"/>
	<path d="M-129.2,337.7c0.8,0.8,1.2,2,1.2,3.7c0,1.7-0.4,2.8-1.2,3.7s-1.9,1.2-3.3,1.2h-3c-0.2,0-0.3,0-0.4-0.1
		c-0.1-0.1-0.1-0.2-0.1-0.4V337c0-0.2,0-0.3,0.1-0.4c0.1-0.1,0.2-0.1,0.4-0.1h3C-131.1,336.5-130,336.9-129.2,337.7z M-134.2,338
		v6.7h1.7c0.8,0,1.5-0.3,1.9-0.8c0.5-0.6,0.7-1.4,0.7-2.5s-0.2-1.9-0.7-2.5s-1.1-0.8-1.9-0.8h-1.7V338z"/>
</g>
</svg>
