<?xml version="1.0" encoding="utf-8"?>
<!-- Generator: Adobe Illustrator 19.1.0, SVG Export Plug-In . SVG Version: 6.00 Build 0)  -->
<svg version="1.1" id="Layer_1" xmlns="http://www.w3.org/2000/svg" xmlns:xlink="http://www.w3.org/1999/xlink" x="0px" y="0px"
	 width="152.2px" height="136.1px" viewBox="0 0 152.2 136.1" style="enable-background:new 0 0 152.2 136.1;" xml:space="preserve"
	>
<style type="text/css">
	.st0{fill:#D1EE83;stroke:#97BD30;stroke-width:2.5;stroke-miterlimit:10;}
	.st1{fill:#D1EE83;stroke:#97BD30;stroke-width:4;stroke-miterlimit:10;}
	.st2{fill:#97BD30;}
	.st3{fill:none;stroke:#97BD30;stroke-width:4;stroke-miterlimit:10;}
	.st4{fill:none;stroke:#C8D2D2;stroke-width:4;stroke-miterlimit:10;}
	.st5{fill:#C8D2D2;}
	.st6{fill:#D1EE83;stroke:#97BD30;stroke-width:3.4991;stroke-miterlimit:10;}
	.st7{fill:#D1EE83;stroke:#97BD30;stroke-width:5.6814;stroke-miterlimit:10;}
	.st8{fill:none;stroke:#97BD30;stroke-width:4.8706;stroke-miterlimit:10;}
	.st9{fill:none;stroke:#C8D2D2;stroke-width:4.8076;stroke-miterlimit:10;}
	.st10{fill:none;stroke:#C8D2D2;stroke-width:3.2416;stroke-miterlimit:10;}
	.st11{fill:none;stroke:#97BD30;stroke-width:2.5;stroke-miterlimit:10;}
	.st12{fill:#EE9B83;stroke:#BD3130;stroke-width:2.5;stroke-miterlimit:10;}
	.st13{fill:#BD3130;}
	.st14{fill:none;stroke:#BD3130;stroke-width:4;stroke-miterlimit:10;}
	.st15{fill:#EE9B83;stroke:#BD3130;stroke-width:4;stroke-miterlimit:10;}
	.st16{fill:none;stroke:#97BD30;stroke-width:3;stroke-miterlimit:10;}
	.st17{fill:#FF990D;}
	.st18{fill:none;stroke:#BD3130;stroke-width:2.4036;stroke-miterlimit:10;}
	.st19{fill:none;stroke:#C8D2D2;stroke-width:2.4036;stroke-miterlimit:10;}
	.st20{fill:#EE9B83;stroke:#BD3130;stroke-width:2.4036;stroke-miterlimit:10;}
	.st21{fill:#D1EE83;stroke:#97BD30;stroke-width:1.8073;stroke-miterlimit:10;}
	.st22{fill:#D1EE83;stroke:#97BD30;stroke-width:3;stroke-miterlimit:10;}
	.st23{fill:none;stroke:#C8D2D2;stroke-width:3;stroke-miterlimit:10;}
	.st24{fill:#D1EE83;stroke:#97BD30;stroke-width:2.6609;stroke-miterlimit:10;}
	.st25{fill:none;stroke:#BD3130;stroke-width:2.6609;stroke-miterlimit:10;}
	.st26{fill:none;stroke:#97BD30;stroke-width:2.6609;stroke-miterlimit:10;}
	.st27{fill:#EE9B83;stroke:#BD3130;stroke-width:2.6609;stroke-miterlimit:10;}
	.st28{fill:none;stroke:#C8D2D2;stroke-width:2.6609;stroke-miterlimit:10;}
	.st29{fill:#EE9B83;stroke:#BD3130;stroke-width:1.8073;stroke-miterlimit:10;}
	.st30{fill:none;stroke:#97BD30;stroke-width:1.8069;stroke-miterlimit:10;}
	.st31{fill:none;stroke:#BD3130;stroke-width:2.9701;stroke-miterlimit:10;}
	.st32{fill:none;stroke:#C8D2D2;stroke-width:2.9701;stroke-miterlimit:10;}
	.st33{fill:#EE9B83;stroke:#BD3130;stroke-width:2.9701;stroke-miterlimit:10;}
	.st34{fill:none;stroke:#BD3130;stroke-width:3;stroke-miterlimit:10;}
	.st35{fill:#EE9B83;stroke:#BD3130;stroke-width:3;stroke-miterlimit:10;}
	.st36{fill:none;stroke:#BD3130;stroke-width:2.6101;stroke-miterlimit:10;}
	.st37{fill:none;stroke:#C8D2D2;stroke-width:2.6101;stroke-miterlimit:10;}
	.st38{fill:#EE9B83;stroke:#BD3130;stroke-width:2.6101;stroke-miterlimit:10;}
	.st39{fill:none;stroke:#97BD30;stroke-width:2.6364;stroke-miterlimit:10;}
	.st40{fill:none;stroke:#97BD30;stroke-width:1.8073;stroke-miterlimit:10;}
</style>
<path class="st29" d="M149,25.4H3.6c-1.1,0-2-0.9-2-2V3.3c0-1.1,0.9-2,2-2H149c1.1,0,2,0.9,2,2v20.2C151,24.5,150.1,25.4,149,25.4z"
	/>
<g>
	<path d="M66.4,9c0.8,0.8,1.1,2.1,1.1,3.7s-0.4,2.9-1.1,3.7c-0.8,0.9-1.9,1.3-3.3,1.3c-1.4,0-2.5-0.4-3.3-1.3
		c-0.8-0.9-1.1-2.1-1.1-3.7c0-1.6,0.4-2.8,1.1-3.7s1.9-1.3,3.3-1.3C64.5,7.7,65.6,8.1,66.4,9z M61.2,10.1c-0.4,0.6-0.7,1.4-0.7,2.6
		c0,1.1,0.2,2,0.7,2.6c0.4,0.6,1.1,0.9,1.9,0.9c0.8,0,1.5-0.3,1.9-0.9c0.4-0.6,0.7-1.4,0.7-2.6c0-1.1-0.2-2-0.7-2.6
		c-0.4-0.6-1.1-0.9-1.9-0.9C62.3,9.3,61.6,9.6,61.2,10.1z"/>
	<path d="M75,8.4c0.7,0.4,1,1.2,1,2.3c0,0.8-0.2,1.4-0.6,1.9c-0.4,0.4-0.8,0.7-1.3,0.9c-0.5,0.2-0.9,0.2-1.3,0.2h-1.7v3.5
		c0,0.3-0.2,0.4-0.7,0.4H70c-0.5,0-0.7-0.1-0.7-0.4V8.3c0-0.2,0-0.3,0.1-0.4c0.1-0.1,0.2-0.1,0.4-0.1h2.9C73.5,7.8,74.3,8,75,8.4z
		 M71.1,9.4v2.8h1.6c0.4,0,0.7-0.1,1-0.3c0.3-0.2,0.4-0.6,0.4-1.1c0-0.5-0.1-0.9-0.4-1.1s-0.6-0.3-1-0.3H71.1z"/>
	<path d="M83.1,7.9c0.1,0.1,0.1,0.2,0.1,0.5v0.4c0,0.2,0,0.4-0.1,0.5c-0.1,0.1-0.2,0.1-0.3,0.1h-3.7v2.5h3.3c0.1,0,0.2,0,0.3,0.1
		s0.1,0.2,0.1,0.5v0.3c0,0.2,0,0.4-0.1,0.5s-0.2,0.1-0.3,0.1h-3.3v2.7h3.7c0.1,0,0.2,0,0.3,0.1s0.1,0.2,0.1,0.5V17
		c0,0.2,0,0.4-0.1,0.5c-0.1,0.1-0.2,0.1-0.3,0.1h-5c-0.2,0-0.3,0-0.4-0.1c-0.1-0.1-0.1-0.2-0.1-0.4V8.3c0-0.2,0-0.3,0.1-0.4
		c0.1-0.1,0.2-0.1,0.4-0.1h5C83,7.8,83.1,7.9,83.1,7.9z"/>
	<path d="M92.8,8.2v9.1c0,0.3-0.2,0.4-0.7,0.4h-0.4c-0.2,0-0.3,0-0.5-0.1s-0.2-0.1-0.3-0.2L87,11.4l-0.3-0.5v6.4
		c0,0.3-0.2,0.4-0.7,0.4h-0.3c-0.5,0-0.7-0.1-0.7-0.4V8.2c0-0.3,0.2-0.4,0.7-0.4h0.5c0.2,0,0.4,0,0.5,0.1c0.1,0,0.2,0.1,0.3,0.3
		l3.7,5.7l0.4,0.6V8.2c0-0.3,0.2-0.4,0.7-0.4h0.3C92.6,7.8,92.8,7.9,92.8,8.2z"/>
</g>
<g>
	<path d="M47.1,32c0,0.1,0.1,0.2,0.1,0.3v0.2c0,0.1,0,0.3-0.1,0.3c0,0.1-0.1,0.1-0.2,0.1h-2.3v1.8h2.2c0.1,0,0.2,0,0.2,0.1
		c0,0.1,0.1,0.2,0.1,0.3v0.2c0,0.1,0,0.3-0.1,0.3c0,0.1-0.1,0.1-0.2,0.1h-2.2v2.8c0,0.2-0.2,0.3-0.5,0.3h-0.2
		c-0.4,0-0.5-0.1-0.5-0.3v-6.4c0-0.1,0-0.2,0.1-0.3c0.1-0.1,0.2-0.1,0.3-0.1h3.3C46.9,31.9,47,31.9,47.1,32z"/>
	<path d="M51.7,34c0.3,0.3,0.5,0.7,0.5,1.2v2c0,0.5,0,0.8,0.1,1c0,0.2,0.1,0.3,0.1,0.4c0,0.1-0.1,0.2-0.3,0.2
		c-0.2,0-0.4,0.1-0.6,0.1c-0.1,0-0.2,0-0.2-0.1s-0.1-0.2-0.1-0.3c0-0.1,0-0.2,0-0.2c-0.2,0.2-0.4,0.4-0.6,0.5
		c-0.3,0.2-0.6,0.2-0.9,0.2c-0.5,0-0.9-0.1-1.2-0.4c-0.3-0.3-0.4-0.6-0.4-1.1c0-1.2,1-1.8,3-1.9v-0.4c0-0.4-0.3-0.7-0.9-0.7
		c-0.2,0-0.5,0-0.7,0.1c-0.2,0.1-0.4,0.1-0.5,0.2c-0.1,0.1-0.2,0.1-0.2,0.1c-0.1,0-0.2-0.1-0.3-0.3c-0.1-0.2-0.2-0.3-0.2-0.4
		c0-0.1,0.1-0.2,0.3-0.3c0.2-0.1,0.4-0.2,0.7-0.3c0.3-0.1,0.6-0.1,0.9-0.1C50.8,33.6,51.3,33.7,51.7,34z M49.6,36.7
		c-0.3,0.1-0.5,0.3-0.5,0.7c0,0.2,0.1,0.3,0.2,0.4c0.1,0.1,0.3,0.2,0.5,0.2c0.2,0,0.4-0.1,0.6-0.2c0.2-0.1,0.4-0.3,0.5-0.5v-0.8
		C50.4,36.5,49.9,36.6,49.6,36.7z"/>
	<path d="M54.9,31.6v5.8c0,0.2,0,0.3,0.1,0.4c0.1,0.1,0.2,0.1,0.3,0.1c0.1,0,0.1,0,0.2,0c0.1,0,0.1,0,0.1,0c0.1,0,0.1,0.1,0.2,0.3
		c0.1,0.2,0.1,0.3,0.1,0.4c0,0.3-0.3,0.4-0.9,0.4c-0.4,0-0.8-0.1-1-0.4c-0.3-0.2-0.4-0.6-0.4-1.2v-5.8c0-0.2,0.2-0.3,0.5-0.3h0.2
		C54.7,31.3,54.9,31.4,54.9,31.6z"/>
	<path d="M57.8,31.6v5.8c0,0.2,0,0.3,0.1,0.4c0.1,0.1,0.2,0.1,0.3,0.1c0.1,0,0.1,0,0.2,0c0.1,0,0.1,0,0.1,0c0.1,0,0.1,0.1,0.2,0.3
		c0.1,0.2,0.1,0.3,0.1,0.4c0,0.3-0.3,0.4-0.9,0.4c-0.4,0-0.8-0.1-1-0.4c-0.3-0.2-0.4-0.6-0.4-1.2v-5.8c0-0.2,0.2-0.3,0.5-0.3h0.2
		C57.6,31.3,57.8,31.4,57.8,31.6z"/>
	<path d="M60.8,31.6V34c0.3-0.3,0.7-0.4,1.2-0.4c0.6,0,1.2,0.2,1.5,0.7s0.6,1.1,0.6,2c0,0.5-0.1,1-0.2,1.4s-0.4,0.7-0.7,0.9
		c-0.3,0.2-0.6,0.3-1,0.3c-0.3,0-0.6-0.1-0.8-0.2s-0.5-0.3-0.6-0.6c0,0.2-0.1,0.3-0.1,0.5c0,0.1-0.1,0.1-0.2,0.2c-0.1,0-0.2,0-0.3,0
		h-0.1c-0.3,0-0.5-0.1-0.5-0.3v-7c0-0.2,0.2-0.3,0.5-0.3h0.2C60.6,31.3,60.8,31.4,60.8,31.6z M60.8,34.9v2.4
		c0.1,0.2,0.3,0.3,0.5,0.5s0.4,0.2,0.5,0.2c0.3,0,0.6-0.1,0.7-0.4s0.2-0.7,0.2-1.3c0-1.1-0.4-1.6-1.1-1.6
		C61.4,34.6,61.1,34.7,60.8,34.9z"/>
	<path d="M68.8,34c0.3,0.3,0.5,0.7,0.5,1.2v2c0,0.5,0,0.8,0.1,1c0,0.2,0.1,0.3,0.1,0.4c0,0.1-0.1,0.2-0.3,0.2
		c-0.2,0-0.4,0.1-0.6,0.1c-0.1,0-0.2,0-0.2-0.1s-0.1-0.2-0.1-0.3c0-0.1,0-0.2,0-0.2c-0.2,0.2-0.4,0.4-0.6,0.5
		c-0.3,0.2-0.6,0.2-0.9,0.2c-0.5,0-0.9-0.1-1.2-0.4c-0.3-0.3-0.4-0.6-0.4-1.1c0-1.2,1-1.8,3-1.9v-0.4c0-0.4-0.3-0.7-0.9-0.7
		c-0.2,0-0.5,0-0.7,0.1c-0.2,0.1-0.4,0.1-0.5,0.2c-0.1,0.1-0.2,0.1-0.2,0.1c-0.1,0-0.2-0.1-0.3-0.3c-0.1-0.2-0.2-0.3-0.2-0.4
		c0-0.1,0.1-0.2,0.3-0.3c0.2-0.1,0.4-0.2,0.7-0.3c0.3-0.1,0.6-0.1,0.9-0.1C67.9,33.6,68.4,33.7,68.8,34z M66.7,36.7
		c-0.3,0.1-0.5,0.3-0.5,0.7c0,0.2,0.1,0.3,0.2,0.4c0.1,0.1,0.3,0.2,0.5,0.2c0.2,0,0.4-0.1,0.6-0.2c0.2-0.1,0.4-0.3,0.5-0.5v-0.8
		C67.5,36.5,67,36.6,66.7,36.7z"/>
	<path d="M74,33.7c0.3,0.1,0.5,0.3,0.5,0.4c0,0.1-0.1,0.2-0.2,0.4c-0.1,0.2-0.2,0.3-0.3,0.3c0,0-0.1,0-0.1-0.1
		c-0.3-0.2-0.6-0.2-1-0.2c-0.4,0-0.7,0.1-0.9,0.4c-0.2,0.3-0.3,0.7-0.3,1.3c0,0.6,0.1,1,0.3,1.3s0.5,0.4,1,0.4c0.3,0,0.7-0.1,1-0.2
		c0.1,0,0.1-0.1,0.1-0.1c0.1,0,0.2,0.1,0.3,0.3c0.1,0.2,0.2,0.3,0.2,0.4c0,0.1-0.1,0.2-0.3,0.3c-0.2,0.1-0.4,0.2-0.7,0.2
		c-0.3,0-0.5,0.1-0.7,0.1c-0.8,0-1.5-0.2-1.9-0.6c-0.4-0.4-0.6-1.1-0.6-2c0-0.9,0.2-1.6,0.6-2c0.4-0.4,1-0.7,1.8-0.7
		C73.3,33.6,73.7,33.6,74,33.7z"/>
	<path d="M76.8,31.6v4.1h0l1.5-2c0.1-0.1,0.1-0.1,0.2-0.1c0.1,0,0.2,0,0.4,0h0.2c0.2,0,0.3,0,0.4,0c0.1,0,0.1,0.1,0.1,0.1
		c0,0.1,0,0.1-0.1,0.2L78,36l1.8,2.5c0.1,0.1,0.1,0.1,0.1,0.2c0,0.1-0.2,0.1-0.5,0.1h-0.3c-0.2,0-0.3,0-0.4,0
		c-0.1,0-0.2-0.1-0.2-0.1l-1.6-2.3h0v2.2c0,0.2-0.2,0.3-0.5,0.3h-0.2c-0.4,0-0.5-0.1-0.5-0.3v-7c0-0.2,0.2-0.3,0.5-0.3h0.2
		C76.7,31.3,76.8,31.4,76.8,31.6z"/>
	<path d="M86.5,33.7c0.3,0.1,0.5,0.3,0.5,0.4c0,0.1-0.1,0.2-0.2,0.4c-0.1,0.2-0.2,0.3-0.3,0.3c0,0-0.1,0-0.1-0.1
		c-0.3-0.2-0.6-0.2-1-0.2c-0.4,0-0.7,0.1-0.9,0.4c-0.2,0.3-0.3,0.7-0.3,1.3c0,0.6,0.1,1,0.3,1.3s0.5,0.4,1,0.4c0.3,0,0.7-0.1,1-0.2
		c0.1,0,0.1-0.1,0.1-0.1c0.1,0,0.2,0.1,0.3,0.3c0.1,0.2,0.2,0.3,0.2,0.4c0,0.1-0.1,0.2-0.3,0.3c-0.2,0.1-0.4,0.2-0.7,0.2
		c-0.3,0-0.5,0.1-0.7,0.1c-0.8,0-1.5-0.2-1.9-0.6c-0.4-0.4-0.6-1.1-0.6-2c0-0.9,0.2-1.6,0.6-2c0.4-0.4,1-0.7,1.8-0.7
		C85.8,33.6,86.2,33.6,86.5,33.7z"/>
	<path d="M91.5,34c0.3,0.3,0.5,0.7,0.5,1.2v2c0,0.5,0,0.8,0.1,1c0,0.2,0.1,0.3,0.1,0.4c0,0.1-0.1,0.2-0.3,0.2
		c-0.2,0-0.4,0.1-0.6,0.1c-0.1,0-0.2,0-0.2-0.1s-0.1-0.2-0.1-0.3c0-0.1,0-0.2,0-0.2c-0.2,0.2-0.4,0.4-0.6,0.5
		c-0.3,0.2-0.6,0.2-0.9,0.2c-0.5,0-0.9-0.1-1.2-0.4c-0.3-0.3-0.4-0.6-0.4-1.1c0-1.2,1-1.8,3-1.9v-0.4c0-0.4-0.3-0.7-0.9-0.7
		c-0.2,0-0.5,0-0.7,0.1c-0.2,0.1-0.4,0.1-0.5,0.2c-0.1,0.1-0.2,0.1-0.2,0.1c-0.1,0-0.2-0.1-0.3-0.3c-0.1-0.2-0.2-0.3-0.2-0.4
		c0-0.1,0.1-0.2,0.3-0.3c0.2-0.1,0.4-0.2,0.7-0.3c0.3-0.1,0.6-0.1,0.9-0.1C90.6,33.6,91.2,33.7,91.5,34z M89.5,36.7
		C89.2,36.8,89,37,89,37.4c0,0.2,0.1,0.3,0.2,0.4c0.1,0.1,0.3,0.2,0.5,0.2c0.2,0,0.4-0.1,0.6-0.2c0.2-0.1,0.4-0.3,0.5-0.5v-0.8
		C90.2,36.5,89.8,36.6,89.5,36.7z"/>
	<path d="M94.7,31.6v5.8c0,0.2,0,0.3,0.1,0.4c0.1,0.1,0.2,0.1,0.3,0.1c0.1,0,0.1,0,0.2,0c0.1,0,0.1,0,0.1,0c0.1,0,0.1,0.1,0.2,0.3
		c0.1,0.2,0.1,0.3,0.1,0.4c0,0.3-0.3,0.4-0.9,0.4c-0.4,0-0.8-0.1-1-0.4c-0.3-0.2-0.4-0.6-0.4-1.2v-5.8c0-0.2,0.2-0.3,0.5-0.3h0.2
		C94.5,31.3,94.7,31.4,94.7,31.6z"/>
	<path d="M97.7,31.6v5.8c0,0.2,0,0.3,0.1,0.4c0.1,0.1,0.2,0.1,0.3,0.1c0.1,0,0.1,0,0.2,0c0.1,0,0.1,0,0.1,0c0.1,0,0.1,0.1,0.2,0.3
		c0.1,0.2,0.1,0.3,0.1,0.4c0,0.3-0.3,0.4-0.9,0.4c-0.4,0-0.8-0.1-1-0.4c-0.3-0.2-0.4-0.6-0.4-1.2v-5.8c0-0.2,0.2-0.3,0.5-0.3h0.2
		C97.5,31.3,97.7,31.4,97.7,31.6z"/>
	<path d="M103.1,34.3c0.3,0.5,0.5,1.1,0.5,1.9c0,0.1-0.1,0.2-0.2,0.3s-0.2,0.2-0.3,0.2h-2.8c0,0.4,0.2,0.8,0.4,1
		c0.2,0.2,0.5,0.3,0.9,0.3c0.2,0,0.4,0,0.6-0.1c0.2-0.1,0.3-0.1,0.5-0.2c0.1,0,0.2-0.1,0.2-0.1c0.1,0,0.2,0.1,0.3,0.3
		c0.1,0.2,0.2,0.3,0.2,0.4c0,0.1-0.1,0.2-0.3,0.4c-0.2,0.1-0.4,0.2-0.7,0.2c-0.3,0.1-0.5,0.1-0.8,0.1c-0.9,0-1.5-0.2-1.9-0.7
		c-0.4-0.5-0.6-1.1-0.6-2c0-0.9,0.2-1.6,0.6-2c0.4-0.4,1-0.7,1.8-0.7C102.3,33.6,102.8,33.8,103.1,34.3z M100.5,35.8h2
		c0-0.4-0.1-0.7-0.2-0.9c-0.1-0.2-0.4-0.3-0.7-0.3C100.9,34.6,100.5,35,100.5,35.8z"/>
	<path d="M109,31.6v5.6c0,0.5,0,0.8,0.1,1c0,0.2,0.1,0.3,0.1,0.4c0,0.1-0.1,0.2-0.3,0.2c-0.2,0-0.4,0.1-0.6,0.1
		c-0.1,0-0.2,0-0.2-0.1s-0.1-0.2-0.1-0.3c0-0.1,0-0.2,0-0.2c-0.2,0.2-0.4,0.4-0.6,0.6s-0.5,0.2-0.8,0.2c-0.4,0-0.7-0.1-1-0.3
		c-0.3-0.2-0.5-0.5-0.7-0.9c-0.2-0.4-0.2-0.9-0.2-1.4c0-0.8,0.2-1.5,0.6-2s0.9-0.7,1.5-0.7c0.4,0,0.8,0.1,1.2,0.4v-2.3
		c0-0.2,0.2-0.3,0.5-0.3h0.2C108.8,31.3,109,31.4,109,31.6z M106.1,35c-0.2,0.3-0.3,0.7-0.3,1.2c0,0.5,0.1,1,0.2,1.3
		c0.2,0.3,0.4,0.4,0.7,0.4c0.4,0,0.7-0.2,1-0.6v-2.4c-0.3-0.2-0.6-0.3-0.9-0.3C106.5,34.6,106.3,34.7,106.1,35z"/>
</g>
<g>
	<g>
		<path class="st13" d="M14.8,85.2L14.8,85.2c-0.9,0.5-2.1,0.1-2.6-0.8L8,76.2c-0.5-0.9-0.1-2.1,0.8-2.6h0c0.9-0.5,2.1-0.1,2.6,0.8
			l4.3,8.2C16.1,83.6,15.8,84.7,14.8,85.2z"/>
		<path class="st34" d="M11.8,79.4c0,0-10.8,2.6-3.9,15.8s10.4,20.1,10.4,20.1"/>
		<path class="st23" d="M41.4,125.7l-15.7,8.1c-3.7,1.9-8.3,0.5-10.2-3.2l-1.2-2.3c-1.9-3.7-0.5-8.3,3.2-10.2l15.7-8.1
			c3.7-1.9,8.3-0.5,10.2,3.2l1.2,2.3C46.6,119.1,45.1,123.7,41.4,125.7z"/>
		<path class="st5" d="M14.8,117.6l-0.1-0.2c-0.3-0.6-0.1-1.5,0.6-1.8l5.1-2.6c0.6-0.3,1.5-0.1,1.8,0.6l0.1,0.2
			c0.3,0.6,0.1,1.5-0.6,1.8l-5.1,2.6C15.9,118.5,15.1,118.2,14.8,117.6z"/>
		<path class="st35" d="M32.8,73.7l7.5-13.6l-15.4-1.8l7.6-13.8L4.8,58.9C4,59.3,3.7,60.3,4.1,61l18.3,35.3c0.4,0.8,1.4,1.1,2.1,0.7
			l15.9-8.3l7.8-13.2L32.8,73.7z"/>
	</g>
	<g>
		<path class="st13" d="M99.4,80.2L99.4,80.2c-1,0-1.9-0.8-1.9-1.9L97.4,69c0-1,0.8-1.9,1.9-1.9h0c1,0,1.9,0.8,1.9,1.9l0.1,9.3
			C101.3,79.3,100.4,80.2,99.4,80.2z"/>
		<path class="st36" d="M99.1,73.7c0,0,10.8-2.8,10.9,12.2c0,3.8,0.1,12.4,0.1,15.3"/>
		<polygon class="st37" points="100.9,103.7 114.9,127.5 128.5,103.5 		"/>
		<path class="st5" d="M114.2,101.9l0-0.2c0-0.7-0.6-1.3-1.3-1.3l-5.7,0c-0.7,0-1.3,0.6-1.3,1.3l0,0.2c0,0.7,0.6,1.3,1.3,1.3l5.7,0
			C113.6,103.2,114.2,102.6,114.2,101.9z"/>
		<path class="st38" d="M96,52.2l-17.8,0.1l-13.1,8.8l13,8.6l-12.8,8.7l13,8.6l-12.9,8.3l31.1-0.2c0.9,0,1.6-0.7,1.6-1.6l-0.3-39.8
			C97.5,52.9,96.8,52.2,96,52.2z"/>
		<circle class="st37" cx="139.9" cy="73" r="8.2"/>
		<path class="st2" d="M130.7,80.2L130.7,80.2c1,0,1.9-0.8,1.9-1.9l0.1-9.3c0-1-0.8-1.9-1.9-1.9l0,0c-1,0-1.9,0.8-1.9,1.9l-0.1,9.3
			C128.8,79.3,129.7,80.2,130.7,80.2z"/>
		<path class="st39" d="M131,73.7c0,0-10.8-2.8-10.9,12.2c0,3.8-0.1,12.4-0.1,15.3"/>
		<path class="st5" d="M115.9,101.9l0-0.2c0-0.7,0.6-1.3,1.3-1.3l5.7,0c0.7,0,1.3,0.6,1.3,1.3l0,0.2c0,0.7-0.6,1.3-1.3,1.3l-5.7,0
			C116.5,103.2,115.9,102.6,115.9,101.9z"/>
	</g>
</g>
</svg>
