<?xml version="1.0" encoding="utf-8"?>
<!-- Generator: Adobe Illustrator 19.1.0, SVG Export Plug-In . SVG Version: 6.00 Build 0)  -->
<svg version="1.1" id="Layer_1" xmlns="http://www.w3.org/2000/svg" xmlns:xlink="http://www.w3.org/1999/xlink" x="0px" y="0px"
	 width="151.2px" height="131px" viewBox="0 0 151.2 131" style="enable-background:new 0 0 151.2 131;" xml:space="preserve">
<style type="text/css">
	.st0{fill:none;stroke:#97BE3D;stroke-width:1.8069;stroke-miterlimit:10;}
	.st1{fill:#97BE3D;}
	.st2{fill:none;stroke:#97BE3D;stroke-width:3;stroke-miterlimit:10;}
	.st3{fill:none;stroke:#C9D3D2;stroke-width:3;stroke-miterlimit:10;}
	.st4{fill:#C9D3D2;}
	.st5{fill:#010101;}
	.st6{fill:#F8991D;}
</style>
<path class="st0" d="M148.3,25.1H2.9c-1.1,0-2-0.9-2-2V2.9c0-1.1,0.9-2,2-2h145.4c1.1,0,2,0.9,2,2v20.2
	C150.3,24.2,149.4,25.1,148.3,25.1z"/>
<path class="st1" d="M106.3,71L106.3,71c-1.3,0-2.3-1-2.3-2.3V57.5c0-1.3,1-2.3,2.3-2.3h0c1.3,0,2.3,1,2.3,2.3v11.2
	C108.6,70,107.6,71,106.3,71z"/>
<path class="st1" d="M39.6,71L39.6,71c-1.3,0-2.3-1-2.3-2.3V57.5c0-1.3,1-2.3,2.3-2.3h0c1.3,0,2.3,1,2.3,2.3v11.2
	C41.9,70,40.8,71,39.6,71z"/>
<path class="st2" d="M39.6,63.1c0,0-13-3.3-13,14.7s0,27.3,0,27.3"/>
<path class="st2" d="M106,63.1c0,0,13-3.3,13,14.7c0,4.6,0,15,0,18.4"/>
<path class="st3" d="M45.6,129H24.4c-5,0-9.1-4.1-9.1-9.1v-3.1c0-5,4.1-9.1,9.1-9.1h21.2c5,0,9.1,4.1,9.1,9.1v3.1
	C54.8,124.9,50.6,129,45.6,129z"/>
<polygon class="st3" points="102.7,99.2 119.3,128 136,99.2 "/>
<path class="st4" d="M21.6,104.6v-0.3c0-0.9,0.7-1.6,1.6-1.6h6.9c0.9,0,1.6,0.7,1.6,1.6v0.3c0,0.9-0.7,1.6-1.6,1.6h-6.9
	C22.3,106.2,21.6,105.4,21.6,104.6z"/>
<path class="st4" d="M124,96.2v-0.3c0-0.9-0.7-1.6-1.6-1.6h-6.9c-0.9,0-1.6,0.7-1.6,1.6v0.3c0,0.9,0.7,1.6,1.6,1.6h6.9
	C123.3,97.8,124,97.1,124,96.2z"/>
<g>
	<path class="st5" d="M48.2,7.8v9.1c0,0.3-0.2,0.4-0.7,0.4h-0.3c-0.5,0-0.7-0.1-0.7-0.4V13h-4.3v3.9c0,0.3-0.2,0.4-0.7,0.4H41
		c-0.5,0-0.7-0.1-0.7-0.4V7.8c0-0.3,0.2-0.4,0.7-0.4h0.4c0.5,0,0.7,0.1,0.7,0.4v3.6h4.3V7.8c0-0.3,0.2-0.4,0.7-0.4h0.3
		C48,7.4,48.2,7.6,48.2,7.8z"/>
	<path class="st5" d="M54.6,7.7l3.2,9.1c0,0.1,0,0.2,0,0.2c0,0.2-0.2,0.3-0.7,0.3h-0.4c-0.4,0-0.6-0.1-0.7-0.3l-0.7-1.9h-3.6
		L51.1,17c-0.1,0.2-0.3,0.3-0.6,0.3h-0.4c-0.5,0-0.8-0.1-0.8-0.3c0,0,0-0.1,0.1-0.2l3.2-9.1c0.1-0.2,0.3-0.3,0.7-0.3h0.6
		C54.3,7.4,54.6,7.5,54.6,7.7z M53.6,9.6c0,0,0,0.2-0.1,0.4c0,0.2-0.1,0.4-0.1,0.5l-1,3.1h2.5l-1-3.1C53.7,10.2,53.7,9.9,53.6,9.6
		L53.6,9.6z"/>
	<path class="st5" d="M60.8,7.8v7.9h3.4c0.1,0,0.2,0,0.3,0.1c0.1,0.1,0.1,0.2,0.1,0.5v0.4c0,0.2,0,0.4-0.1,0.5
		c-0.1,0.1-0.1,0.1-0.3,0.1h-4.7c-0.2,0-0.3,0-0.4-0.1C59,17.1,59,16.9,59,16.8V7.8c0-0.3,0.2-0.4,0.7-0.4h0.3
		C60.6,7.4,60.8,7.6,60.8,7.8z"/>
	<path class="st5" d="M71.2,7.6c0.1,0.1,0.1,0.2,0.1,0.5v0.4c0,0.2,0,0.4-0.1,0.5C71.1,9,71,9,70.9,9h-3.3v2.5h3.1
		c0.1,0,0.2,0,0.3,0.1c0.1,0.1,0.1,0.2,0.1,0.5v0.4c0,0.2,0,0.4-0.1,0.5S70.9,13,70.7,13h-3.1v3.9c0,0.3-0.2,0.4-0.7,0.4h-0.3
		c-0.5,0-0.7-0.1-0.7-0.4V8c0-0.2,0-0.3,0.1-0.4c0.1-0.1,0.2-0.1,0.4-0.1h4.6C71,7.5,71.1,7.5,71.2,7.6z"/>
	<path class="st5" d="M75.6,13c0.1,0.1,0.1,0.2,0.1,0.5v0.1c0,0.2,0,0.4-0.1,0.4c-0.1,0.1-0.1,0.1-0.3,0.1h-2.8
		c-0.1,0-0.2,0-0.3-0.1c-0.1-0.1-0.1-0.2-0.1-0.4v-0.1c0-0.2,0-0.4,0.1-0.5c0.1-0.1,0.1-0.1,0.3-0.1h2.8
		C75.5,12.9,75.6,12.9,75.6,13z"/>
	<path class="st5" d="M84.6,8.6c0.8,0.8,1.1,2.1,1.1,3.7s-0.4,2.9-1.1,3.7c-0.8,0.9-1.9,1.3-3.3,1.3s-2.5-0.4-3.3-1.3
		c-0.8-0.9-1.1-2.1-1.1-3.7c0-1.6,0.4-2.8,1.1-3.7s1.9-1.3,3.3-1.3S83.8,7.8,84.6,8.6z M79.4,9.8c-0.4,0.6-0.7,1.4-0.7,2.6
		c0,1.1,0.2,2,0.7,2.6c0.4,0.6,1.1,0.9,1.9,0.9c0.8,0,1.5-0.3,1.9-0.9c0.4-0.6,0.7-1.4,0.7-2.6c0-1.1-0.2-2-0.7-2.6
		c-0.4-0.6-1.1-0.9-1.9-0.9C80.5,8.9,79.8,9.2,79.4,9.8z"/>
	<path class="st5" d="M93.2,8.1c0.7,0.4,1,1.2,1,2.3c0,0.8-0.2,1.4-0.6,1.9c-0.4,0.4-0.8,0.7-1.3,0.9c-0.5,0.2-0.9,0.2-1.3,0.2h-1.7
		v3.5c0,0.3-0.2,0.4-0.7,0.4h-0.3c-0.5,0-0.7-0.1-0.7-0.4V8c0-0.2,0-0.3,0.1-0.4c0.1-0.1,0.2-0.1,0.4-0.1h2.9
		C91.8,7.5,92.5,7.7,93.2,8.1z M89.3,9v2.8h1.6c0.4,0,0.7-0.1,1-0.3c0.3-0.2,0.4-0.6,0.4-1.1c0-0.5-0.1-0.9-0.4-1.1S91.2,9,90.8,9
		H89.3z"/>
	<path class="st5" d="M101.3,7.6c0.1,0.1,0.1,0.2,0.1,0.5v0.4c0,0.2,0,0.4-0.1,0.5C101.3,9,101.2,9,101.1,9h-3.7v2.5h3.3
		c0.1,0,0.2,0,0.3,0.1s0.1,0.2,0.1,0.5v0.3c0,0.2,0,0.4-0.1,0.5s-0.2,0.1-0.3,0.1h-3.3v2.7h3.7c0.1,0,0.2,0,0.3,0.1s0.1,0.2,0.1,0.5
		v0.4c0,0.2,0,0.4-0.1,0.5c-0.1,0.1-0.2,0.1-0.3,0.1h-5c-0.2,0-0.3,0-0.4-0.1c-0.1-0.1-0.1-0.2-0.1-0.4V8c0-0.2,0-0.3,0.1-0.4
		c0.1-0.1,0.2-0.1,0.4-0.1h5C101.2,7.5,101.3,7.5,101.3,7.6z"/>
	<path class="st5" d="M111,7.8v9.1c0,0.3-0.2,0.4-0.7,0.4h-0.4c-0.2,0-0.3,0-0.5-0.1s-0.2-0.1-0.3-0.2l-3.9-5.9l-0.3-0.5v6.4
		c0,0.3-0.2,0.4-0.7,0.4h-0.3c-0.5,0-0.7-0.1-0.7-0.4V7.8c0-0.3,0.2-0.4,0.7-0.4h0.5c0.2,0,0.4,0,0.5,0.1c0.1,0,0.2,0.1,0.3,0.3
		l3.7,5.7l0.4,0.6V7.8c0-0.3,0.2-0.4,0.7-0.4h0.3C110.8,7.4,111,7.6,111,7.8z"/>
</g>
<polygon class="st6" points="67.3,68.6 82.8,58.3 67.3,47.9 81,38.7 76.4,38.7 62.7,47.9 78.2,58.3 62.7,68.6 78.1,79 64.6,87.5 
	69.3,87.5 82.8,79.1 "/>
<path class="st2" d="M102.3,88.9h-59c-1,0-1.9-0.9-1.9-1.9V39.2c0-1,0.9-1.9,1.9-1.9h59c1,0,1.9,0.9,1.9,1.9V87
	C104.2,88.1,103.3,88.9,102.3,88.9z"/>
<g>
	<path class="st5" d="M115.1,106.5l1.8,5.2c0,0,0,0.1,0,0.1c0,0.1-0.1,0.2-0.4,0.2h-0.2c-0.2,0-0.4-0.1-0.4-0.2l-0.4-1.1h-2.1
		l-0.4,1.1c0,0.1-0.2,0.2-0.4,0.2h-0.2c-0.3,0-0.4-0.1-0.4-0.2c0,0,0-0.1,0-0.1l1.8-5.2c0-0.1,0.2-0.2,0.4-0.2h0.4
		C114.9,106.3,115.1,106.4,115.1,106.5z M114.5,107.6c0,0,0,0.1,0,0.2c0,0.1,0,0.2-0.1,0.3l-0.6,1.8h1.5l-0.6-1.8
		C114.6,107.9,114.6,107.7,114.5,107.6L114.5,107.6z"/>
	<path class="st5" d="M120.5,108c0.2,0.2,0.4,0.4,0.5,0.7c0.1,0.3,0.2,0.7,0.2,1.1c0,0.7-0.1,1.2-0.4,1.6s-0.7,0.6-1.2,0.6
		c-0.3,0-0.7-0.1-0.9-0.3v1.7c0,0.2-0.1,0.2-0.4,0.2H118c-0.3,0-0.4-0.1-0.4-0.2v-4.3c0-0.4,0-0.6,0-0.8c0-0.2,0-0.3,0-0.3
		c0-0.1,0.1-0.1,0.3-0.2c0.2,0,0.3-0.1,0.5-0.1c0.1,0,0.1,0,0.2,0.1s0.1,0.2,0.1,0.2s0,0.1,0,0.2c0.1-0.2,0.3-0.3,0.5-0.4
		c0.2-0.1,0.4-0.2,0.7-0.2C120,107.7,120.2,107.8,120.5,108z M119,108.7c-0.1,0.1-0.3,0.2-0.4,0.4v1.9c0.2,0.2,0.4,0.2,0.7,0.2
		c0.6,0,0.9-0.4,0.9-1.3c0-0.4-0.1-0.8-0.2-1s-0.3-0.3-0.6-0.3C119.2,108.5,119.1,108.6,119,108.7z"/>
	<path class="st5" d="M125.1,108c0.2,0.2,0.4,0.4,0.5,0.7c0.1,0.3,0.2,0.7,0.2,1.1c0,0.7-0.1,1.2-0.4,1.6s-0.7,0.6-1.2,0.6
		c-0.3,0-0.7-0.1-0.9-0.3v1.7c0,0.2-0.1,0.2-0.4,0.2h-0.2c-0.3,0-0.4-0.1-0.4-0.2v-4.3c0-0.4,0-0.6,0-0.8c0-0.2,0-0.3,0-0.3
		c0-0.1,0.1-0.1,0.3-0.2c0.2,0,0.3-0.1,0.5-0.1c0.1,0,0.1,0,0.2,0.1s0.1,0.2,0.1,0.2s0,0.1,0,0.2c0.1-0.2,0.3-0.3,0.5-0.4
		c0.2-0.1,0.4-0.2,0.7-0.2C124.6,107.7,124.8,107.8,125.1,108z M123.5,108.7c-0.1,0.1-0.3,0.2-0.4,0.4v1.9c0.2,0.2,0.4,0.2,0.7,0.2
		c0.6,0,0.9-0.4,0.9-1.3c0-0.4-0.1-0.8-0.2-1s-0.3-0.3-0.6-0.3C123.8,108.5,123.7,108.6,123.5,108.7z"/>
</g>
<g>
	<path class="st5" d="M25.9,114.7c0.2,0.1,0.4,0.1,0.5,0.2c0.1,0.1,0.2,0.2,0.2,0.3c0,0.1,0,0.2-0.1,0.4c-0.1,0.2-0.2,0.2-0.2,0.2
		c0,0-0.1,0-0.2-0.1c-0.1-0.1-0.2-0.1-0.4-0.1c-0.1,0-0.3-0.1-0.4-0.1c-0.3,0-0.5,0.1-0.6,0.2c-0.1,0.1-0.2,0.3-0.2,0.4
		c0,0.2,0,0.3,0.1,0.4c0.1,0.1,0.2,0.2,0.3,0.2c0.1,0.1,0.3,0.1,0.5,0.2c0.3,0.1,0.6,0.2,0.8,0.4c0.2,0.1,0.4,0.3,0.5,0.5
		c0.1,0.2,0.2,0.5,0.2,0.8c0,0.6-0.2,1-0.5,1.3c-0.3,0.3-0.8,0.4-1.3,0.4c-0.3,0-0.7,0-0.9-0.1c-0.3-0.1-0.5-0.2-0.6-0.3
		c-0.2-0.1-0.2-0.2-0.2-0.3c0-0.1,0-0.2,0.1-0.2c0.1-0.1,0.1-0.2,0.2-0.3s0.1-0.1,0.2-0.1c0,0,0.1,0,0.2,0.1
		c0.2,0.1,0.3,0.2,0.5,0.2s0.3,0.1,0.6,0.1c0.2,0,0.4-0.1,0.6-0.2s0.2-0.3,0.2-0.5c0-0.1,0-0.3-0.1-0.4c-0.1-0.1-0.2-0.2-0.3-0.3
		s-0.3-0.1-0.5-0.2c-0.1-0.1-0.2-0.1-0.2-0.1c-0.2-0.1-0.5-0.2-0.6-0.3c-0.2-0.1-0.3-0.3-0.4-0.5s-0.2-0.5-0.2-0.8
		c0-0.3,0.1-0.6,0.3-0.9c0.2-0.2,0.4-0.4,0.7-0.5s0.6-0.2,0.9-0.2C25.5,114.6,25.7,114.6,25.9,114.7z"/>
	<path class="st5" d="M30.6,116.6c0.3,0.4,0.4,0.9,0.4,1.5c0,0.1,0,0.1-0.1,0.3s-0.2,0.2-0.2,0.2h-2.2c0,0.4,0.1,0.6,0.3,0.8
		s0.4,0.2,0.7,0.2c0.2,0,0.3,0,0.5-0.1c0.1,0,0.3-0.1,0.4-0.2c0.1,0,0.1-0.1,0.2-0.1c0.1,0,0.1,0.1,0.2,0.2s0.1,0.2,0.1,0.3
		c0,0.1-0.1,0.2-0.2,0.3c-0.2,0.1-0.3,0.2-0.6,0.2c-0.2,0-0.4,0.1-0.6,0.1c-0.7,0-1.2-0.2-1.5-0.5c-0.3-0.4-0.5-0.9-0.5-1.6
		c0-0.7,0.2-1.3,0.5-1.6c0.3-0.4,0.8-0.5,1.4-0.5C29.9,116,30.3,116.2,30.6,116.6z M28.5,117.8H30c0-0.3-0.1-0.5-0.2-0.7
		c-0.1-0.2-0.3-0.3-0.5-0.3C28.8,116.8,28.5,117.1,28.5,117.8z"/>
	<path class="st5" d="M34.1,116.1c0.1,0.1,0.1,0.2,0.1,0.3c0,0.1,0,0.2-0.1,0.4c0,0.1-0.1,0.2-0.2,0.2c0,0-0.1,0-0.2,0s-0.2,0-0.2,0
		c-0.2,0-0.3,0-0.4,0.1c-0.1,0.1-0.2,0.2-0.3,0.3v2.7c0,0.1-0.1,0.2-0.4,0.2h-0.2c-0.3,0-0.4-0.1-0.4-0.2v-2.6c0-0.4,0-0.6,0-0.8
		c0-0.2,0-0.3,0-0.3c0-0.1,0.1-0.1,0.3-0.2s0.3-0.1,0.5-0.1c0.1,0,0.1,0,0.2,0.1c0,0.1,0.1,0.2,0.1,0.2s0,0.1,0,0.2
		c0.1-0.2,0.2-0.3,0.4-0.4c0.1-0.1,0.3-0.2,0.5-0.2C33.9,116,34,116,34.1,116.1z"/>
	<path class="st5" d="M38.1,116.2c0,0,0,0.1,0,0.1l-1.3,3.8c0,0.1-0.2,0.2-0.4,0.2h-0.3c-0.2,0-0.4-0.1-0.4-0.2l-1.3-3.8
		c0-0.1,0-0.1,0-0.1c0-0.1,0.1-0.2,0.4-0.2H35c0.2,0,0.4,0.1,0.4,0.2l0.6,1.9l0.2,0.7l0.1,0.3h0c0.1-0.4,0.2-0.7,0.2-1l0.6-1.9
		c0-0.1,0.2-0.2,0.4-0.2h0.1C37.9,116,38.1,116.1,38.1,116.2z"/>
	<path class="st5" d="M39.7,114.4v0.6c0,0.1,0,0.1-0.1,0.2c-0.1,0-0.2,0.1-0.3,0.1h-0.2c-0.1,0-0.3,0-0.3-0.1
		c-0.1,0-0.1-0.1-0.1-0.2v-0.6c0-0.1,0.1-0.2,0.4-0.2h0.2C39.6,114.2,39.7,114.3,39.7,114.4z M39.7,116.3v3.8c0,0.1-0.1,0.2-0.4,0.2
		h-0.2c-0.3,0-0.4-0.1-0.4-0.2v-3.8c0-0.1,0.1-0.2,0.4-0.2h0.2C39.6,116,39.7,116.1,39.7,116.3z"/>
	<path class="st5" d="M43.5,116.1c0.3,0.1,0.4,0.2,0.4,0.3c0,0.1,0,0.2-0.1,0.3c-0.1,0.1-0.2,0.2-0.2,0.2c0,0,0,0-0.1,0
		c-0.2-0.1-0.5-0.2-0.8-0.2c-0.3,0-0.6,0.1-0.8,0.3c-0.2,0.2-0.2,0.6-0.2,1c0,0.5,0.1,0.8,0.2,1c0.2,0.2,0.4,0.3,0.8,0.3
		c0.3,0,0.6-0.1,0.8-0.2c0.1,0,0.1,0,0.1,0c0.1,0,0.2,0.1,0.2,0.2s0.1,0.2,0.1,0.3c0,0.1-0.1,0.2-0.2,0.3s-0.3,0.1-0.6,0.2
		s-0.4,0.1-0.6,0.1c-0.7,0-1.2-0.2-1.5-0.5s-0.5-0.9-0.5-1.6c0-0.7,0.2-1.3,0.5-1.6s0.8-0.5,1.5-0.5C43,116,43.3,116,43.5,116.1z"/>
	<path class="st5" d="M47.7,116.6c0.3,0.4,0.4,0.9,0.4,1.5c0,0.1,0,0.1-0.1,0.3s-0.2,0.2-0.2,0.2h-2.2c0,0.4,0.1,0.6,0.3,0.8
		s0.4,0.2,0.7,0.2c0.2,0,0.3,0,0.5-0.1c0.1,0,0.3-0.1,0.4-0.2c0.1,0,0.1-0.1,0.2-0.1c0.1,0,0.1,0.1,0.2,0.2s0.1,0.2,0.1,0.3
		c0,0.1-0.1,0.2-0.2,0.3c-0.2,0.1-0.3,0.2-0.6,0.2c-0.2,0-0.4,0.1-0.6,0.1c-0.7,0-1.2-0.2-1.5-0.5c-0.3-0.4-0.5-0.9-0.5-1.6
		c0-0.7,0.2-1.3,0.5-1.6c0.3-0.4,0.8-0.5,1.4-0.5C47,116,47.4,116.2,47.7,116.6z M45.6,117.8h1.6c0-0.3-0.1-0.5-0.2-0.7
		c-0.1-0.2-0.3-0.3-0.5-0.3C45.9,116.8,45.6,117.1,45.6,117.8z"/>
</g>
</svg>
