<?xml version="1.0" encoding="utf-8"?>
<!-- Generator: Adobe Illustrator 19.1.0, SVG Export Plug-In . SVG Version: 6.00 Build 0)  -->
<svg version="1.1" id="Layer_1" xmlns="http://www.w3.org/2000/svg" xmlns:xlink="http://www.w3.org/1999/xlink" x="0px" y="0px"
	 width="152.2px" height="136.1px" viewBox="0 0 152.2 136.1" style="enable-background:new 0 0 152.2 136.1;" xml:space="preserve"
	>
<style type="text/css">
	.st0{fill:#D1EE83;stroke:#97BD30;stroke-width:2.5;stroke-miterlimit:10;}
	.st1{fill:#D1EE83;stroke:#97BD30;stroke-width:4;stroke-miterlimit:10;}
	.st2{fill:#97BD30;}
	.st3{fill:none;stroke:#97BD30;stroke-width:4;stroke-miterlimit:10;}
	.st4{fill:none;stroke:#C8D2D2;stroke-width:4;stroke-miterlimit:10;}
	.st5{fill:#C8D2D2;}
	.st6{fill:#D1EE83;stroke:#97BD30;stroke-width:3.4991;stroke-miterlimit:10;}
	.st7{fill:#D1EE83;stroke:#97BD30;stroke-width:5.6814;stroke-miterlimit:10;}
	.st8{fill:none;stroke:#97BD30;stroke-width:4.8706;stroke-miterlimit:10;}
	.st9{fill:none;stroke:#C8D2D2;stroke-width:4.8076;stroke-miterlimit:10;}
	.st10{fill:none;stroke:#C8D2D2;stroke-width:3.2416;stroke-miterlimit:10;}
	.st11{fill:none;stroke:#97BD30;stroke-width:2.5;stroke-miterlimit:10;}
	.st12{fill:#EE9B83;stroke:#BD3130;stroke-width:2.5;stroke-miterlimit:10;}
	.st13{fill:#BD3130;}
	.st14{fill:none;stroke:#BD3130;stroke-width:4;stroke-miterlimit:10;}
	.st15{fill:#EE9B83;stroke:#BD3130;stroke-width:4;stroke-miterlimit:10;}
	.st16{fill:none;stroke:#97BD30;stroke-width:3;stroke-miterlimit:10;}
	.st17{fill:#FF990D;}
	.st18{fill:none;stroke:#BD3130;stroke-width:2.4036;stroke-miterlimit:10;}
	.st19{fill:none;stroke:#C8D2D2;stroke-width:2.4036;stroke-miterlimit:10;}
	.st20{fill:#EE9B83;stroke:#BD3130;stroke-width:2.4036;stroke-miterlimit:10;}
	.st21{fill:#D1EE83;stroke:#97BD30;stroke-width:1.8073;stroke-miterlimit:10;}
	.st22{fill:#D1EE83;stroke:#97BD30;stroke-width:3;stroke-miterlimit:10;}
	.st23{fill:none;stroke:#C8D2D2;stroke-width:3;stroke-miterlimit:10;}
	.st24{fill:#D1EE83;stroke:#97BD30;stroke-width:2.6609;stroke-miterlimit:10;}
	.st25{fill:none;stroke:#BD3130;stroke-width:2.6609;stroke-miterlimit:10;}
	.st26{fill:none;stroke:#97BD30;stroke-width:2.6609;stroke-miterlimit:10;}
	.st27{fill:#EE9B83;stroke:#BD3130;stroke-width:2.6609;stroke-miterlimit:10;}
	.st28{fill:none;stroke:#C8D2D2;stroke-width:2.6609;stroke-miterlimit:10;}
	.st29{fill:#EE9B83;stroke:#BD3130;stroke-width:1.8073;stroke-miterlimit:10;}
	.st30{fill:none;stroke:#97BD30;stroke-width:1.8069;stroke-miterlimit:10;}
	.st31{fill:none;stroke:#BD3130;stroke-width:2.9701;stroke-miterlimit:10;}
	.st32{fill:none;stroke:#C8D2D2;stroke-width:2.9701;stroke-miterlimit:10;}
	.st33{fill:#EE9B83;stroke:#BD3130;stroke-width:2.9701;stroke-miterlimit:10;}
	.st34{fill:none;stroke:#BD3130;stroke-width:3;stroke-miterlimit:10;}
	.st35{fill:#EE9B83;stroke:#BD3130;stroke-width:3;stroke-miterlimit:10;}
	.st36{fill:none;stroke:#BD3130;stroke-width:2.6101;stroke-miterlimit:10;}
	.st37{fill:none;stroke:#C8D2D2;stroke-width:2.6101;stroke-miterlimit:10;}
	.st38{fill:#EE9B83;stroke:#BD3130;stroke-width:2.6101;stroke-miterlimit:10;}
	.st39{fill:none;stroke:#97BD30;stroke-width:2.6364;stroke-miterlimit:10;}
	.st40{fill:none;stroke:#97BD30;stroke-width:1.8073;stroke-miterlimit:10;}
</style>
<path class="st30" d="M148.8,25.4H3.4c-1.1,0-2-0.9-2-2V3.2c0-1.1,0.9-2,2-2h145.4c1.1,0,2,0.9,2,2v20.2
	C150.8,24.5,149.9,25.4,148.8,25.4z"/>
<path class="st2" d="M106.8,71.3L106.8,71.3c-1.3,0-2.3-1-2.3-2.3V57.8c0-1.3,1-2.3,2.3-2.3h0c1.3,0,2.3,1,2.3,2.3V69
	C109.1,70.3,108.1,71.3,106.8,71.3z"/>
<path class="st2" d="M40.1,71.3L40.1,71.3c-1.3,0-2.3-1-2.3-2.3V57.8c0-1.3,1-2.3,2.3-2.3h0c1.3,0,2.3,1,2.3,2.3V69
	C42.3,70.3,41.3,71.3,40.1,71.3z"/>
<path class="st16" d="M40.1,63.4c0,0-13-3.3-13,14.7s0,27.3,0,27.3"/>
<path class="st16" d="M106.5,63.4c0,0,13-3.3,13,14.7c0,4.6,0,15,0,18.4"/>
<path class="st23" d="M46.1,129.3H24.9c-5,0-9.1-4.1-9.1-9.1V117c0-5,4.1-9.1,9.1-9.1h21.2c5,0,9.1,4.1,9.1,9.1v3.1
	C55.2,125.2,51.1,129.3,46.1,129.3z"/>
<polygon class="st23" points="103.2,99.5 119.8,128.3 136.4,99.5 "/>
<path class="st5" d="M22.1,104.9v-0.3c0-0.9,0.7-1.6,1.6-1.6h6.9c0.9,0,1.6,0.7,1.6,1.6v0.3c0,0.9-0.7,1.6-1.6,1.6h-6.9
	C22.8,106.5,22.1,105.7,22.1,104.9z"/>
<path class="st5" d="M124.5,96.5v-0.3c0-0.9-0.7-1.6-1.6-1.6H116c-0.9,0-1.6,0.7-1.6,1.6v0.3c0,0.9,0.7,1.6,1.6,1.6h6.9
	C123.8,98.1,124.5,97.4,124.5,96.5z"/>
<g>
	<path d="M48.7,8.1v9.1c0,0.3-0.2,0.4-0.7,0.4h-0.3c-0.5,0-0.7-0.1-0.7-0.4v-3.9h-4.3v3.9c0,0.3-0.2,0.4-0.7,0.4h-0.4
		c-0.5,0-0.7-0.1-0.7-0.4V8.1c0-0.3,0.2-0.4,0.7-0.4h0.4c0.5,0,0.7,0.1,0.7,0.4v3.6h4.3V8.1c0-0.3,0.2-0.4,0.7-0.4H48
		C48.4,7.7,48.7,7.9,48.7,8.1z"/>
	<path d="M55.1,8l3.2,9.1c0,0.1,0,0.2,0,0.2c0,0.2-0.2,0.3-0.7,0.3h-0.4c-0.4,0-0.6-0.1-0.7-0.3l-0.7-1.9h-3.6l-0.6,1.9
		c-0.1,0.2-0.3,0.3-0.6,0.3h-0.4c-0.5,0-0.8-0.1-0.8-0.3c0,0,0-0.1,0.1-0.2L53.1,8c0.1-0.2,0.3-0.3,0.7-0.3h0.6
		C54.8,7.7,55,7.8,55.1,8z M54.1,9.9c0,0,0,0.2-0.1,0.4c0,0.2-0.1,0.4-0.1,0.5l-1,3.1h2.5l-1-3.1C54.2,10.5,54.2,10.2,54.1,9.9
		L54.1,9.9z"/>
	<path d="M61.3,8.1V16h3.4c0.1,0,0.2,0,0.3,0.1c0.1,0.1,0.1,0.2,0.1,0.5V17c0,0.2,0,0.4-0.1,0.5c-0.1,0.1-0.1,0.1-0.3,0.1H60
		c-0.2,0-0.3,0-0.4-0.1c-0.1-0.1-0.1-0.2-0.1-0.4V8.1c0-0.3,0.2-0.4,0.7-0.4h0.3C61.1,7.7,61.3,7.9,61.3,8.1z"/>
	<path d="M71.6,7.9c0.1,0.1,0.1,0.2,0.1,0.5v0.4c0,0.2,0,0.4-0.1,0.5c-0.1,0.1-0.1,0.1-0.3,0.1h-3.3v2.5h3.1c0.1,0,0.2,0,0.3,0.1
		c0.1,0.1,0.1,0.2,0.1,0.5v0.4c0,0.2,0,0.4-0.1,0.5s-0.1,0.1-0.3,0.1h-3.1v3.9c0,0.3-0.2,0.4-0.7,0.4H67c-0.5,0-0.7-0.1-0.7-0.4V8.3
		c0-0.2,0-0.3,0.1-0.4c0.1-0.1,0.2-0.1,0.4-0.1h4.6C71.5,7.8,71.6,7.8,71.6,7.9z"/>
	<path d="M76.1,13.3c0.1,0.1,0.1,0.2,0.1,0.5v0.1c0,0.2,0,0.4-0.1,0.4c-0.1,0.1-0.1,0.1-0.3,0.1H73c-0.1,0-0.2,0-0.3-0.1
		c-0.1-0.1-0.1-0.2-0.1-0.4v-0.1c0-0.2,0-0.4,0.1-0.5c0.1-0.1,0.1-0.1,0.3-0.1h2.8C76,13.2,76.1,13.2,76.1,13.3z"/>
	<path d="M85.1,8.9c0.8,0.8,1.1,2.1,1.1,3.7s-0.4,2.9-1.1,3.7c-0.8,0.9-1.9,1.3-3.3,1.3s-2.5-0.4-3.3-1.3c-0.8-0.9-1.1-2.1-1.1-3.7
		c0-1.6,0.4-2.8,1.1-3.7s1.9-1.3,3.3-1.3S84.3,8.1,85.1,8.9z M79.9,10.1c-0.4,0.6-0.7,1.4-0.7,2.6c0,1.1,0.2,2,0.7,2.6
		c0.4,0.6,1.1,0.9,1.9,0.9c0.8,0,1.5-0.3,1.9-0.9c0.4-0.6,0.7-1.4,0.7-2.6c0-1.1-0.2-2-0.7-2.6c-0.4-0.6-1.1-0.9-1.9-0.9
		C81,9.2,80.3,9.5,79.9,10.1z"/>
	<path d="M93.7,8.4c0.7,0.4,1,1.2,1,2.3c0,0.8-0.2,1.4-0.6,1.9c-0.4,0.4-0.8,0.7-1.3,0.9c-0.5,0.2-0.9,0.2-1.3,0.2h-1.7v3.5
		c0,0.3-0.2,0.4-0.7,0.4h-0.3c-0.5,0-0.7-0.1-0.7-0.4V8.3c0-0.2,0-0.3,0.1-0.4c0.1-0.1,0.2-0.1,0.4-0.1h2.9C92.2,7.8,93,8,93.7,8.4z
		 M89.8,9.3v2.8h1.6c0.4,0,0.7-0.1,1-0.3c0.3-0.2,0.4-0.6,0.4-1.1c0-0.5-0.1-0.9-0.4-1.1s-0.6-0.3-1-0.3H89.8z"/>
	<path d="M101.8,7.9c0.1,0.1,0.1,0.2,0.1,0.5v0.4c0,0.2,0,0.4-0.1,0.5c-0.1,0.1-0.2,0.1-0.3,0.1h-3.7v2.5h3.3c0.1,0,0.2,0,0.3,0.1
		s0.1,0.2,0.1,0.5v0.3c0,0.2,0,0.4-0.1,0.5s-0.2,0.1-0.3,0.1h-3.3V16h3.7c0.1,0,0.2,0,0.3,0.1s0.1,0.2,0.1,0.5V17
		c0,0.2,0,0.4-0.1,0.5c-0.1,0.1-0.2,0.1-0.3,0.1h-5c-0.2,0-0.3,0-0.4-0.1C96,17.4,96,17.2,96,17V8.3c0-0.2,0-0.3,0.1-0.4
		c0.1-0.1,0.2-0.1,0.4-0.1h5C101.7,7.8,101.8,7.8,101.8,7.9z"/>
	<path d="M111.5,8.1v9.1c0,0.3-0.2,0.4-0.7,0.4h-0.4c-0.2,0-0.3,0-0.5-0.1s-0.2-0.1-0.3-0.2l-3.9-5.9l-0.3-0.5v6.4
		c0,0.3-0.2,0.4-0.7,0.4h-0.3c-0.5,0-0.7-0.1-0.7-0.4V8.1c0-0.3,0.2-0.4,0.7-0.4h0.5c0.2,0,0.4,0,0.5,0.1c0.1,0,0.2,0.1,0.3,0.3
		l3.7,5.7l0.4,0.6V8.1c0-0.3,0.2-0.4,0.7-0.4h0.3C111.3,7.7,111.5,7.9,111.5,8.1z"/>
</g>
<polygon class="st17" points="67.8,68.9 83.2,58.6 67.8,48.2 81.5,39 76.9,39 63.2,48.2 78.7,58.6 63.2,68.9 78.6,79.3 65,87.8 
	69.8,87.8 83.3,79.4 "/>
<path class="st16" d="M102.8,89.2h-59c-1,0-1.9-0.9-1.9-1.9V39.5c0-1,0.9-1.9,1.9-1.9h59c1,0,1.9,0.9,1.9,1.9v47.9
	C104.7,88.4,103.8,89.2,102.8,89.2z"/>
</svg>
