<?xml version="1.0" encoding="utf-8"?>
<!-- Generator: Adobe Illustrator 19.1.0, SVG Export Plug-In . SVG Version: 6.00 Build 0)  -->
<svg version="1.1" id="Layer_1" xmlns="http://www.w3.org/2000/svg" xmlns:xlink="http://www.w3.org/1999/xlink" x="0px" y="0px"
	 width="153.3px" height="140.7px" viewBox="0 0 153.3 140.7" style="enable-background:new 0 0 153.3 140.7;" xml:space="preserve"
	>
<style type="text/css">
	.st0{fill:#D1EE83;stroke:#97BD30;stroke-width:2.5;stroke-miterlimit:10;}
	.st1{fill:#D1EE83;stroke:#97BD30;stroke-width:4;stroke-miterlimit:10;}
	.st2{fill:#97BD30;}
	.st3{fill:none;stroke:#97BD30;stroke-width:4;stroke-miterlimit:10;}
	.st4{fill:none;stroke:#C8D2D2;stroke-width:4;stroke-miterlimit:10;}
	.st5{fill:#C8D2D2;}
	.st6{fill:#D1EE83;stroke:#97BD30;stroke-width:3.4991;stroke-miterlimit:10;}
	.st7{fill:#D1EE83;stroke:#97BD30;stroke-width:5.6814;stroke-miterlimit:10;}
	.st8{fill:none;stroke:#97BD30;stroke-width:4.8706;stroke-miterlimit:10;}
	.st9{fill:none;stroke:#C8D2D2;stroke-width:4.8076;stroke-miterlimit:10;}
	.st10{fill:none;stroke:#C8D2D2;stroke-width:3.2416;stroke-miterlimit:10;}
	.st11{fill:none;stroke:#97BD30;stroke-width:2.5;stroke-miterlimit:10;}
	.st12{fill:#EE9B83;stroke:#BD3130;stroke-width:2.5;stroke-miterlimit:10;}
	.st13{fill:#BD3130;}
	.st14{fill:none;stroke:#BD3130;stroke-width:4;stroke-miterlimit:10;}
	.st15{fill:#EE9B83;stroke:#BD3130;stroke-width:4;stroke-miterlimit:10;}
	.st16{fill:none;stroke:#97BD30;stroke-width:3;stroke-miterlimit:10;}
	.st17{fill:#FF990D;}
	.st18{fill:none;stroke:#BD3130;stroke-width:2.4036;stroke-miterlimit:10;}
	.st19{fill:none;stroke:#C8D2D2;stroke-width:2.4036;stroke-miterlimit:10;}
	.st20{fill:#EE9B83;stroke:#BD3130;stroke-width:2.4036;stroke-miterlimit:10;}
	.st21{fill:#D1EE83;stroke:#97BD30;stroke-width:1.8073;stroke-miterlimit:10;}
	.st22{fill:#D1EE83;stroke:#97BD30;stroke-width:3;stroke-miterlimit:10;}
	.st23{fill:none;stroke:#C8D2D2;stroke-width:3;stroke-miterlimit:10;}
	.st24{fill:#D1EE83;stroke:#97BD30;stroke-width:2.6609;stroke-miterlimit:10;}
	.st25{fill:none;stroke:#BD3130;stroke-width:2.6609;stroke-miterlimit:10;}
	.st26{fill:none;stroke:#97BD30;stroke-width:2.6609;stroke-miterlimit:10;}
	.st27{fill:#EE9B83;stroke:#BD3130;stroke-width:2.6609;stroke-miterlimit:10;}
	.st28{fill:none;stroke:#C8D2D2;stroke-width:2.6609;stroke-miterlimit:10;}
	.st29{fill:#EE9B83;stroke:#BD3130;stroke-width:1.8073;stroke-miterlimit:10;}
	.st30{fill:none;stroke:#97BD30;stroke-width:1.8069;stroke-miterlimit:10;}
	.st31{fill:none;stroke:#BD3130;stroke-width:2.9701;stroke-miterlimit:10;}
	.st32{fill:none;stroke:#C8D2D2;stroke-width:2.9701;stroke-miterlimit:10;}
	.st33{fill:#EE9B83;stroke:#BD3130;stroke-width:2.9701;stroke-miterlimit:10;}
	.st34{fill:none;stroke:#BD3130;stroke-width:3;stroke-miterlimit:10;}
	.st35{fill:#EE9B83;stroke:#BD3130;stroke-width:3;stroke-miterlimit:10;}
	.st36{fill:none;stroke:#BD3130;stroke-width:2.6101;stroke-miterlimit:10;}
	.st37{fill:none;stroke:#C8D2D2;stroke-width:2.6101;stroke-miterlimit:10;}
	.st38{fill:#EE9B83;stroke:#BD3130;stroke-width:2.6101;stroke-miterlimit:10;}
	.st39{fill:none;stroke:#97BD30;stroke-width:2.6364;stroke-miterlimit:10;}
	.st40{fill:none;stroke:#97BD30;stroke-width:1.8073;stroke-miterlimit:10;}
</style>
<g>
	<path class="st29" d="M149.5,26.1H4.1c-1.1,0-2-0.9-2-2V3.9c0-1.1,0.9-2,2-2h145.4c1.1,0,2,0.9,2,2v20.2
		C151.5,25.2,150.6,26.1,149.5,26.1z"/>
	<g>
		<path d="M67,9.6c0.8,0.8,1.1,2.1,1.1,3.7s-0.4,2.9-1.1,3.7c-0.8,0.9-1.9,1.3-3.3,1.3s-2.5-0.4-3.3-1.3c-0.8-0.9-1.1-2.1-1.1-3.7
			c0-1.6,0.4-2.8,1.1-3.7c0.8-0.9,1.9-1.3,3.3-1.3S66.3,8.8,67,9.6z M61.8,10.8c-0.4,0.6-0.7,1.4-0.7,2.6c0,1.1,0.2,2,0.7,2.6
			c0.4,0.6,1.1,0.9,1.9,0.9c0.8,0,1.5-0.3,1.9-0.9c0.4-0.6,0.7-1.4,0.7-2.6c0-1.1-0.2-2-0.7-2.6c-0.4-0.6-1.1-0.9-1.9-0.9
			C62.9,9.9,62.3,10.2,61.8,10.8z"/>
		<path d="M75.6,9.1c0.7,0.4,1,1.2,1,2.3c0,0.8-0.2,1.4-0.6,1.9c-0.4,0.4-0.8,0.7-1.3,0.9c-0.5,0.2-0.9,0.2-1.3,0.2h-1.7v3.5
			c0,0.3-0.2,0.4-0.7,0.4h-0.3c-0.5,0-0.7-0.1-0.7-0.4V9c0-0.2,0-0.3,0.1-0.4c0.1-0.1,0.2-0.1,0.4-0.1h2.9
			C74.2,8.5,74.9,8.7,75.6,9.1z M71.7,10v2.8h1.6c0.4,0,0.7-0.1,1-0.3c0.3-0.2,0.4-0.6,0.4-1.1c0-0.5-0.1-0.9-0.4-1.1
			s-0.6-0.3-1-0.3H71.7z"/>
		<path d="M83.8,8.6c0.1,0.1,0.1,0.2,0.1,0.5v0.3c0,0.2,0,0.4-0.1,0.5C83.7,10,83.6,10,83.5,10h-3.7v2.5h3.3c0.1,0,0.2,0,0.3,0.1
			c0.1,0.1,0.1,0.2,0.1,0.5v0.3c0,0.2,0,0.4-0.1,0.5C83.3,14,83.2,14,83.1,14h-3.3v2.7h3.7c0.1,0,0.2,0,0.3,0.1
			c0.1,0.1,0.1,0.2,0.1,0.5v0.3c0,0.2,0,0.4-0.1,0.5c-0.1,0.1-0.2,0.1-0.3,0.1h-5c-0.2,0-0.3,0-0.4-0.1s-0.1-0.2-0.1-0.4V9
			c0-0.2,0-0.3,0.1-0.4c0.1-0.1,0.2-0.1,0.4-0.1h5C83.6,8.5,83.7,8.5,83.8,8.6z"/>
		<path d="M93.5,8.8v9.1c0,0.3-0.2,0.4-0.7,0.4h-0.4c-0.2,0-0.3,0-0.5-0.1s-0.2-0.1-0.3-0.2l-3.9-5.9l-0.3-0.5v6.4
			c0,0.3-0.2,0.4-0.7,0.4h-0.3c-0.5,0-0.7-0.1-0.7-0.4V8.8c0-0.3,0.2-0.4,0.7-0.4h0.5c0.2,0,0.4,0,0.5,0.1c0.1,0,0.2,0.1,0.3,0.3
			l3.7,5.7l0.4,0.6V8.8c0-0.3,0.2-0.4,0.7-0.4h0.3C93.2,8.4,93.5,8.6,93.5,8.8z"/>
	</g>
	<path class="st13" d="M23.9,78L23.9,78c-1.1,0.3-2.3-0.3-2.7-1.5l-3-10.1c-0.3-1.1,0.3-2.3,1.5-2.7h0c1.1-0.3,2.3,0.3,2.7,1.5
		l3,10.1C25.7,76.4,25.1,77.6,23.9,78z"/>
	<path class="st31" d="M21.8,70.9c0,0-12.6,0.5-7.8,16.8s7.3,24.8,7.3,24.8"/>
	<path class="st32" d="M45,128.9l-19.2,5.7c-4.6,1.4-9.4-1.3-10.7-5.8l-0.8-2.8c-1.4-4.6,1.3-9.4,5.8-10.7l19.2-5.7
		c4.6-1.4,9.4,1.3,10.7,5.8l0.8,2.8C52.2,122.7,49.5,127.5,45,128.9z"/>
	<path class="st5" d="M16.9,114.1l-0.1-0.3c-0.2-0.8,0.2-1.6,1-1.9l6.3-1.9c0.8-0.2,1.6,0.2,1.9,1l0.1,0.3c0.2,0.8-0.2,1.6-1,1.9
		l-6.3,1.9C18,115.4,17.2,114.9,16.9,114.1z"/>
	<path class="st33" d="M46.5,69l11.3-13.6l-16.9-5.3l11.5-13.8l-34,10.1c-0.9,0.3-1.5,1.3-1.2,2.2L30,92c0.3,0.9,1.3,1.5,2.2,1.2
		l19.6-5.8l11.5-13.1L46.5,69z"/>
	<path class="st13" d="M120.7,79.9L120.7,79.9c-0.9-0.8-0.9-2.2-0.1-3l7.3-7.6c0.8-0.9,2.2-0.9,3-0.1v0c0.9,0.8,0.9,2.2,0.1,3
		l-7.3,7.6C122.9,80.7,121.6,80.7,120.7,79.9z"/>
	<path class="st31" d="M125.7,74.3c0,0,11,6.3-0.8,18.5c-3,3.1-9.8,10.2-12.1,12.5"/>
	<polygon class="st32" points="99.8,96.8 92.2,127.2 122.4,118.5 	"/>
	<path class="st5" d="M115.5,109.3l0.2-0.2c0.6-0.6,0.6-1.6,0-2.1l-4.7-4.5c-0.6-0.6-1.6-0.6-2.1,0l-0.2,0.2c-0.6,0.6-0.6,1.6,0,2.1
		l4.7,4.5C114,110,115,109.9,115.5,109.3z"/>
	<path class="st33" d="M140.2,54.4l-14.6-14.1l-17.7-3.2l3.7,17.3l-17.4-3.1l3.7,17.3l-17.1-3.6l25.5,24.5c0.7,0.7,1.8,0.7,2.5,0
		l31.4-32.6C140.9,56.2,140.9,55.1,140.2,54.4z"/>
</g>
<g>
	<path d="M102.3,111.9l1.8,5.2c0,0,0,0.1,0,0.1c0,0.1-0.1,0.2-0.4,0.2h-0.2c-0.2,0-0.4-0.1-0.4-0.2l-0.4-1.1h-2.1l-0.4,1.1
		c0,0.1-0.2,0.2-0.4,0.2h-0.2c-0.3,0-0.4-0.1-0.4-0.2c0,0,0-0.1,0-0.1l1.8-5.2c0-0.1,0.2-0.2,0.4-0.2h0.4
		C102.1,111.7,102.3,111.8,102.3,111.9z M101.7,112.9c0,0,0,0.1,0,0.2c0,0.1,0,0.2-0.1,0.3l-0.6,1.8h1.5l-0.6-1.8
		C101.8,113.3,101.8,113.1,101.7,112.9L101.7,112.9z"/>
	<path d="M107.7,113.3c0.2,0.2,0.4,0.4,0.5,0.7s0.2,0.7,0.2,1.1c0,0.7-0.1,1.2-0.4,1.6c-0.3,0.4-0.7,0.6-1.2,0.6
		c-0.3,0-0.7-0.1-0.9-0.3v1.7c0,0.2-0.1,0.2-0.4,0.2h-0.2c-0.3,0-0.4-0.1-0.4-0.2v-4.3c0-0.4,0-0.6,0-0.8c0-0.2,0-0.3,0-0.3
		c0-0.1,0.1-0.1,0.3-0.2s0.3-0.1,0.5-0.1c0.1,0,0.1,0,0.2,0.1s0.1,0.2,0.1,0.2c0,0.1,0,0.1,0,0.2c0.1-0.2,0.3-0.3,0.5-0.4
		c0.2-0.1,0.4-0.2,0.7-0.2C107.2,113.1,107.4,113.2,107.7,113.3z M106.2,114c-0.1,0.1-0.3,0.2-0.4,0.4v1.9c0.2,0.2,0.4,0.2,0.7,0.2
		c0.6,0,0.9-0.4,0.9-1.3c0-0.4-0.1-0.8-0.2-1c-0.1-0.2-0.3-0.3-0.6-0.3C106.4,113.9,106.3,114,106.2,114z"/>
	<path d="M112.2,113.3c0.2,0.2,0.4,0.4,0.5,0.7s0.2,0.7,0.2,1.1c0,0.7-0.1,1.2-0.4,1.6c-0.3,0.4-0.7,0.6-1.2,0.6
		c-0.3,0-0.7-0.1-0.9-0.3v1.7c0,0.2-0.1,0.2-0.4,0.2h-0.2c-0.3,0-0.4-0.1-0.4-0.2v-4.3c0-0.4,0-0.6,0-0.8c0-0.2,0-0.3,0-0.3
		c0-0.1,0.1-0.1,0.3-0.2s0.3-0.1,0.5-0.1c0.1,0,0.1,0,0.2,0.1s0.1,0.2,0.1,0.2c0,0.1,0,0.1,0,0.2c0.1-0.2,0.3-0.3,0.5-0.4
		c0.2-0.1,0.4-0.2,0.7-0.2C111.7,113.1,112,113.2,112.2,113.3z M110.7,114c-0.1,0.1-0.3,0.2-0.4,0.4v1.9c0.2,0.2,0.4,0.2,0.7,0.2
		c0.6,0,0.9-0.4,0.9-1.3c0-0.4-0.1-0.8-0.2-1c-0.1-0.2-0.3-0.3-0.6-0.3C111,113.9,110.9,114,110.7,114z"/>
</g>
<g>
	<path d="M23,119.6c0.2,0.1,0.4,0.1,0.5,0.2c0.1,0.1,0.2,0.2,0.2,0.3c0,0.1,0,0.2-0.1,0.4c-0.1,0.2-0.2,0.2-0.2,0.2
		c0,0-0.1,0-0.2-0.1c-0.1-0.1-0.2-0.1-0.4-0.1c-0.1,0-0.3-0.1-0.4-0.1c-0.3,0-0.5,0.1-0.6,0.2s-0.2,0.3-0.2,0.4c0,0.2,0,0.3,0.1,0.4
		c0.1,0.1,0.2,0.2,0.3,0.2c0.1,0.1,0.3,0.1,0.5,0.2c0.3,0.1,0.6,0.2,0.8,0.4c0.2,0.1,0.4,0.3,0.5,0.5c0.1,0.2,0.2,0.5,0.2,0.8
		c0,0.6-0.2,1-0.5,1.3c-0.3,0.3-0.8,0.4-1.3,0.4c-0.3,0-0.7,0-0.9-0.1s-0.5-0.2-0.6-0.3c-0.2-0.1-0.2-0.2-0.2-0.3
		c0-0.1,0-0.2,0.1-0.2s0.1-0.2,0.2-0.3c0.1-0.1,0.1-0.1,0.2-0.1c0,0,0.1,0,0.2,0.1c0.2,0.1,0.3,0.2,0.5,0.2c0.2,0.1,0.3,0.1,0.6,0.1
		c0.2,0,0.4-0.1,0.6-0.2c0.2-0.1,0.2-0.3,0.2-0.5c0-0.1,0-0.3-0.1-0.4c-0.1-0.1-0.2-0.2-0.3-0.3c-0.1-0.1-0.3-0.1-0.5-0.2
		c-0.1-0.1-0.2-0.1-0.2-0.1c-0.2-0.1-0.5-0.2-0.6-0.3c-0.2-0.1-0.3-0.3-0.4-0.5c-0.1-0.2-0.2-0.5-0.2-0.8c0-0.3,0.1-0.6,0.3-0.9
		c0.2-0.2,0.4-0.4,0.7-0.5s0.6-0.2,0.9-0.2C22.5,119.5,22.8,119.5,23,119.6z"/>
	<path d="M27.7,121.5c0.3,0.4,0.4,0.9,0.4,1.5c0,0.1,0,0.1-0.1,0.3s-0.2,0.2-0.2,0.2h-2.2c0,0.4,0.1,0.6,0.3,0.8s0.4,0.2,0.7,0.2
		c0.2,0,0.3,0,0.5-0.1s0.3-0.1,0.4-0.2c0.1,0,0.1-0.1,0.2-0.1c0.1,0,0.1,0.1,0.2,0.2s0.1,0.2,0.1,0.3c0,0.1-0.1,0.2-0.2,0.3
		s-0.3,0.2-0.6,0.2s-0.4,0.1-0.6,0.1c-0.7,0-1.2-0.2-1.5-0.5c-0.3-0.4-0.5-0.9-0.5-1.6c0-0.7,0.2-1.3,0.5-1.6
		c0.3-0.4,0.8-0.5,1.4-0.5C27,120.9,27.4,121.1,27.7,121.5z M25.5,122.7h1.6c0-0.3-0.1-0.5-0.2-0.7c-0.1-0.2-0.3-0.3-0.5-0.3
		C25.9,121.7,25.6,122,25.5,122.7z"/>
	<path d="M31.2,121c0.1,0.1,0.1,0.2,0.1,0.3s0,0.2-0.1,0.4c0,0.1-0.1,0.2-0.2,0.2c0,0-0.1,0-0.2,0c-0.1,0-0.2,0-0.2,0
		c-0.2,0-0.3,0-0.4,0.1c-0.1,0.1-0.2,0.2-0.3,0.3v2.7c0,0.1-0.1,0.2-0.4,0.2h-0.2c-0.3,0-0.4-0.1-0.4-0.2v-2.6c0-0.4,0-0.6,0-0.8
		c0-0.2,0-0.3,0-0.3c0-0.1,0.1-0.1,0.3-0.2s0.3-0.1,0.5-0.1c0.1,0,0.1,0,0.2,0.1c0,0.1,0.1,0.2,0.1,0.2c0,0.1,0,0.1,0,0.2
		c0.1-0.2,0.2-0.3,0.4-0.4c0.1-0.1,0.3-0.2,0.5-0.2C31,120.9,31.1,121,31.2,121z"/>
	<path d="M35.1,121.1c0,0,0,0.1,0,0.1l-1.3,3.8c0,0.1-0.2,0.2-0.4,0.2h-0.3c-0.2,0-0.4-0.1-0.4-0.2l-1.3-3.8c0-0.1,0-0.1,0-0.1
		c0-0.1,0.1-0.2,0.4-0.2h0.2c0.2,0,0.4,0.1,0.4,0.2l0.6,1.9l0.2,0.7l0.1,0.3h0c0.1-0.4,0.2-0.7,0.2-1l0.6-1.9c0-0.1,0.2-0.2,0.4-0.2
		h0.1C35,121,35.1,121,35.1,121.1z"/>
	<path d="M36.8,119.4v0.6c0,0.1,0,0.1-0.1,0.2c-0.1,0-0.2,0.1-0.3,0.1h-0.2c-0.1,0-0.3,0-0.3-0.1c-0.1,0-0.1-0.1-0.1-0.2v-0.6
		c0-0.1,0.1-0.2,0.4-0.2h0.2C36.7,119.1,36.8,119.2,36.8,119.4z M36.8,121.2v3.8c0,0.1-0.1,0.2-0.4,0.2h-0.2c-0.3,0-0.4-0.1-0.4-0.2
		v-3.8c0-0.1,0.1-0.2,0.4-0.2h0.2C36.7,121,36.8,121,36.8,121.2z"/>
	<path d="M40.6,121.1c0.3,0.1,0.4,0.2,0.4,0.3c0,0.1,0,0.2-0.1,0.3c-0.1,0.1-0.2,0.2-0.2,0.2c0,0,0,0-0.1,0
		c-0.2-0.1-0.5-0.2-0.8-0.2c-0.3,0-0.6,0.1-0.8,0.3c-0.2,0.2-0.2,0.6-0.2,1c0,0.5,0.1,0.8,0.2,1c0.2,0.2,0.4,0.3,0.8,0.3
		c0.3,0,0.6-0.1,0.8-0.2c0.1,0,0.1,0,0.1,0c0.1,0,0.2,0.1,0.2,0.2s0.1,0.2,0.1,0.3c0,0.1-0.1,0.2-0.2,0.3s-0.3,0.1-0.6,0.2
		s-0.4,0.1-0.6,0.1c-0.7,0-1.2-0.2-1.5-0.5s-0.5-0.9-0.5-1.6c0-0.7,0.2-1.3,0.5-1.6c0.3-0.4,0.8-0.5,1.5-0.5
		C40,120.9,40.3,121,40.6,121.1z"/>
	<path d="M44.8,121.5c0.3,0.4,0.4,0.9,0.4,1.5c0,0.1,0,0.1-0.1,0.3s-0.2,0.2-0.2,0.2h-2.2c0,0.4,0.1,0.6,0.3,0.8s0.4,0.2,0.7,0.2
		c0.2,0,0.3,0,0.5-0.1s0.3-0.1,0.4-0.2c0.1,0,0.1-0.1,0.2-0.1c0.1,0,0.1,0.1,0.2,0.2s0.1,0.2,0.1,0.3c0,0.1-0.1,0.2-0.2,0.3
		s-0.3,0.2-0.6,0.2s-0.4,0.1-0.6,0.1c-0.7,0-1.2-0.2-1.5-0.5c-0.3-0.4-0.5-0.9-0.5-1.6c0-0.7,0.2-1.3,0.5-1.6
		c0.3-0.4,0.8-0.5,1.4-0.5C44.1,120.9,44.5,121.1,44.8,121.5z M42.7,122.7h1.6c0-0.3-0.1-0.5-0.2-0.7c-0.1-0.2-0.3-0.3-0.5-0.3
		C43,121.7,42.7,122,42.7,122.7z"/>
</g>
</svg>
