<?xml version="1.0" encoding="utf-8"?>
<!-- Generator: Adobe Illustrator 19.1.0, SVG Export Plug-In . SVG Version: 6.00 Build 0)  -->
<svg version="1.1" id="Layer_1" xmlns="http://www.w3.org/2000/svg" xmlns:xlink="http://www.w3.org/1999/xlink" x="0px" y="0px"
	 width="152.2px" height="136.1px" viewBox="0 0 152.2 136.1" style="enable-background:new 0 0 152.2 136.1;" xml:space="preserve"
	>
<style type="text/css">
	.st0{fill:#D1EE83;stroke:#97BD30;stroke-width:2.5;stroke-miterlimit:10;}
	.st1{fill:#D1EE83;stroke:#97BD30;stroke-width:4;stroke-miterlimit:10;}
	.st2{fill:#97BD30;}
	.st3{fill:none;stroke:#97BD30;stroke-width:4;stroke-miterlimit:10;}
	.st4{fill:none;stroke:#C8D2D2;stroke-width:4;stroke-miterlimit:10;}
	.st5{fill:#C8D2D2;}
	.st6{fill:#D1EE83;stroke:#97BD30;stroke-width:3.4991;stroke-miterlimit:10;}
	.st7{fill:#D1EE83;stroke:#97BD30;stroke-width:5.6814;stroke-miterlimit:10;}
	.st8{fill:none;stroke:#97BD30;stroke-width:4.8706;stroke-miterlimit:10;}
	.st9{fill:none;stroke:#C8D2D2;stroke-width:4.8076;stroke-miterlimit:10;}
	.st10{fill:none;stroke:#C8D2D2;stroke-width:3.2416;stroke-miterlimit:10;}
	.st11{fill:none;stroke:#97BD30;stroke-width:2.5;stroke-miterlimit:10;}
	.st12{fill:#EE9B83;stroke:#BD3130;stroke-width:2.5;stroke-miterlimit:10;}
	.st13{fill:#BD3130;}
	.st14{fill:none;stroke:#BD3130;stroke-width:4;stroke-miterlimit:10;}
	.st15{fill:#EE9B83;stroke:#BD3130;stroke-width:4;stroke-miterlimit:10;}
	.st16{fill:none;stroke:#97BD30;stroke-width:3;stroke-miterlimit:10;}
	.st17{fill:#FF990D;}
	.st18{fill:none;stroke:#BD3130;stroke-width:2.4036;stroke-miterlimit:10;}
	.st19{fill:none;stroke:#C8D2D2;stroke-width:2.4036;stroke-miterlimit:10;}
	.st20{fill:#EE9B83;stroke:#BD3130;stroke-width:2.4036;stroke-miterlimit:10;}
	.st21{fill:#D1EE83;stroke:#97BD30;stroke-width:1.8073;stroke-miterlimit:10;}
	.st22{fill:#D1EE83;stroke:#97BD30;stroke-width:3;stroke-miterlimit:10;}
	.st23{fill:none;stroke:#C8D2D2;stroke-width:3;stroke-miterlimit:10;}
	.st24{fill:#D1EE83;stroke:#97BD30;stroke-width:2.6609;stroke-miterlimit:10;}
	.st25{fill:none;stroke:#BD3130;stroke-width:2.6609;stroke-miterlimit:10;}
	.st26{fill:none;stroke:#97BD30;stroke-width:2.6609;stroke-miterlimit:10;}
	.st27{fill:#EE9B83;stroke:#BD3130;stroke-width:2.6609;stroke-miterlimit:10;}
	.st28{fill:none;stroke:#C8D2D2;stroke-width:2.6609;stroke-miterlimit:10;}
	.st29{fill:#EE9B83;stroke:#BD3130;stroke-width:1.8073;stroke-miterlimit:10;}
	.st30{fill:none;stroke:#97BD30;stroke-width:1.8069;stroke-miterlimit:10;}
	.st31{fill:none;stroke:#BD3130;stroke-width:2.9701;stroke-miterlimit:10;}
	.st32{fill:none;stroke:#C8D2D2;stroke-width:2.9701;stroke-miterlimit:10;}
	.st33{fill:#EE9B83;stroke:#BD3130;stroke-width:2.9701;stroke-miterlimit:10;}
	.st34{fill:none;stroke:#BD3130;stroke-width:3;stroke-miterlimit:10;}
	.st35{fill:#EE9B83;stroke:#BD3130;stroke-width:3;stroke-miterlimit:10;}
	.st36{fill:none;stroke:#BD3130;stroke-width:2.6101;stroke-miterlimit:10;}
	.st37{fill:none;stroke:#C8D2D2;stroke-width:2.6101;stroke-miterlimit:10;}
	.st38{fill:#EE9B83;stroke:#BD3130;stroke-width:2.6101;stroke-miterlimit:10;}
	.st39{fill:none;stroke:#97BD30;stroke-width:2.6364;stroke-miterlimit:10;}
	.st40{fill:none;stroke:#97BD30;stroke-width:1.8073;stroke-miterlimit:10;}
</style>
<path class="st29" d="M149,25.4H3.6c-1.1,0-2-0.9-2-2V3.2c0-1.1,0.9-2,2-2H149c1.1,0,2,0.9,2,2v20.2C151,24.5,150.1,25.4,149,25.4z"
	/>
<g>
	<path d="M66.5,8.9c0.8,0.8,1.1,2.1,1.1,3.7s-0.4,2.9-1.1,3.7c-0.8,0.9-1.9,1.3-3.3,1.3c-1.4,0-2.5-0.4-3.3-1.3
		c-0.8-0.9-1.1-2.1-1.1-3.7c0-1.6,0.4-2.8,1.1-3.7c0.8-0.9,1.9-1.3,3.3-1.3C64.7,7.7,65.8,8.1,66.5,8.9z M61.3,10.1
		c-0.4,0.6-0.7,1.4-0.7,2.6c0,1.1,0.2,2,0.7,2.6c0.4,0.6,1.1,0.9,1.9,0.9c0.8,0,1.5-0.3,1.9-0.9c0.4-0.6,0.7-1.4,0.7-2.6
		c0-1.1-0.2-2-0.7-2.6c-0.4-0.6-1.1-0.9-1.9-0.9C62.4,9.2,61.8,9.5,61.3,10.1z"/>
	<path d="M75.1,8.4c0.7,0.4,1,1.2,1,2.3c0,0.8-0.2,1.4-0.6,1.9c-0.4,0.4-0.8,0.7-1.3,0.9c-0.5,0.2-0.9,0.2-1.3,0.2h-1.7v3.5
		c0,0.3-0.2,0.4-0.7,0.4h-0.3c-0.5,0-0.7-0.1-0.7-0.4V8.3c0-0.2,0-0.3,0.1-0.4s0.2-0.1,0.4-0.1h2.9C73.7,7.8,74.4,8,75.1,8.4z
		 M71.2,9.3v2.8h1.6c0.4,0,0.7-0.1,1-0.3c0.3-0.2,0.4-0.6,0.4-1.1c0-0.5-0.1-0.9-0.4-1.1s-0.6-0.3-1-0.3H71.2z"/>
	<path d="M83.3,7.9c0.1,0.1,0.1,0.2,0.1,0.5v0.4c0,0.2,0,0.4-0.1,0.5c-0.1,0.1-0.2,0.1-0.3,0.1h-3.7v2.5h3.3c0.1,0,0.2,0,0.3,0.1
		c0.1,0.1,0.1,0.2,0.1,0.5v0.3c0,0.2,0,0.4-0.1,0.5c-0.1,0.1-0.2,0.1-0.3,0.1h-3.3V16H83c0.1,0,0.2,0,0.3,0.1
		c0.1,0.1,0.1,0.2,0.1,0.5V17c0,0.2,0,0.4-0.1,0.5s-0.2,0.1-0.3,0.1h-5c-0.2,0-0.3,0-0.4-0.1c-0.1-0.1-0.1-0.2-0.1-0.4V8.3
		c0-0.2,0-0.3,0.1-0.4s0.2-0.1,0.4-0.1h5C83.1,7.8,83.2,7.8,83.3,7.9z"/>
	<path d="M93,8.1v9.1c0,0.3-0.2,0.4-0.7,0.4h-0.4c-0.2,0-0.3,0-0.5-0.1s-0.2-0.1-0.3-0.2l-3.9-5.9l-0.3-0.5v6.4
		c0,0.3-0.2,0.4-0.7,0.4h-0.3c-0.5,0-0.7-0.1-0.7-0.4V8.1c0-0.3,0.2-0.4,0.7-0.4h0.5c0.2,0,0.4,0,0.5,0.1s0.2,0.1,0.3,0.3l3.7,5.7
		l0.4,0.6V8.1c0-0.3,0.2-0.4,0.7-0.4h0.3C92.7,7.7,93,7.9,93,8.1z"/>
</g>
<path class="st13" d="M23.4,77.3L23.4,77.3c-1.1,0.3-2.3-0.3-2.7-1.5l-3-10.1c-0.3-1.1,0.3-2.3,1.5-2.7l0,0c1.1-0.3,2.3,0.3,2.7,1.5
	l3,10.1C25.2,75.7,24.5,76.9,23.4,77.3z"/>
<path class="st31" d="M21.3,70.1c0,0-12.6,0.5-7.8,16.8s7.3,24.8,7.3,24.8"/>
<path class="st32" d="M44.5,128.2l-19.2,5.7c-4.6,1.4-9.4-1.3-10.7-5.8l-0.8-2.8c-1.4-4.6,1.3-9.4,5.8-10.7l19.2-5.7
	c4.6-1.4,9.4,1.3,10.7,5.8l0.8,2.8C51.6,122,49,126.8,44.5,128.2z"/>
<path class="st5" d="M16.4,113.4l-0.1-0.3c-0.2-0.8,0.2-1.6,1-1.9l6.3-1.9c0.8-0.2,1.6,0.2,1.9,1l0.1,0.3c0.2,0.8-0.2,1.6-1,1.9
	l-6.3,1.9C17.5,114.7,16.7,114.2,16.4,113.4z"/>
<path class="st33" d="M45.9,68.3l11.3-13.6l-16.9-5.3l11.5-13.8l-34,10.1c-0.9,0.3-1.5,1.3-1.2,2.2l12.9,43.4
	c0.3,0.9,1.3,1.5,2.2,1.2l19.6-5.8l11.5-13.1L45.9,68.3z"/>
<path class="st13" d="M120.2,79.2L120.2,79.2c-0.9-0.8-0.9-2.2-0.1-3l7.3-7.6c0.8-0.9,2.2-0.9,3-0.1v0c0.9,0.8,0.9,2.2,0.1,3
	l-7.3,7.6C122.4,80,121.1,80,120.2,79.2z"/>
<path class="st31" d="M125.2,73.6c0,0,11,6.3-0.8,18.5c-3,3.1-9.8,10.2-12.1,12.5"/>
<polygon class="st32" points="99.3,96 91.7,126.5 121.9,117.8 "/>
<path class="st5" d="M115,108.6l0.2-0.2c0.6-0.6,0.6-1.6,0-2.1l-4.7-4.5c-0.6-0.6-1.6-0.6-2.1,0l-0.2,0.2c-0.6,0.6-0.6,1.6,0,2.1
	l4.7,4.5C113.5,109.2,114.5,109.2,115,108.6z"/>
<path class="st33" d="M139.6,53.7L125,39.6l-17.7-3.2l3.7,17.3l-17.4-3.1l3.7,17.3l-17.1-3.6l25.5,24.5c0.7,0.7,1.8,0.7,2.5,0
	l31.4-32.6C140.4,55.5,140.4,54.4,139.6,53.7z"/>
</svg>
