<?xml version="1.0" encoding="utf-8"?>
<!-- Generator: Adobe Illustrator 19.1.0, SVG Export Plug-In . SVG Version: 6.00 Build 0)  -->
<svg version="1.1" id="Layer_1" xmlns="http://www.w3.org/2000/svg" xmlns:xlink="http://www.w3.org/1999/xlink" x="0px" y="0px"
	 width="151px" height="135px" viewBox="-230 329 151 135" style="enable-background:new -230 329 151 135;" xml:space="preserve">
<style type="text/css">
	.st0{fill:none;stroke:#97BD30;stroke-width:3;stroke-miterlimit:10;}
	.st1{fill:none;stroke:#C8D2D2;stroke-width:3;stroke-miterlimit:10;}
	.st2{fill:#C8D2D2;}
	.st3{fill:none;}
	.st4{enable-background:new    ;}
</style>
<path class="st0" d="M-110.9,424.5c0-3.4,0-13.8,0-18.4c0-5.4-1.6-11.2-6.9-13.6c-3-1.4-6.3-1.1-9.5-1.1c-3.5,0-7,0-10.5,0
	c-4.9,0-9.7,0-14.6,0c-5.1,0-10.2,0-15.4,0c-4.3,0-8.6,0-13,0c-2.5,0-4.9,0-7.4,0c-0.2,0-0.4,0-0.7,0c0,0-14.7-1.7-14.7,14.8
	c0,17.3,0,26.6,0,26.6h0.2"/>
<path class="st1" d="M-184.5,457.5h-21.2c-5,0-9.1-4.1-9.1-9.1v-3.1c0-5,4.1-9.1,9.1-9.1h21.2c5,0,9.1,4.1,9.1,9.1v3.1
	C-175.4,453.4-179.5,457.5-184.5,457.5z"/>
<polygon class="st1" points="-127.4,427.8 -110.8,456.6 -94.2,427.8 "/>
<path class="st2" d="M-208.5,433.1v-0.3c0-0.9,0.7-1.6,1.6-1.6h6.9c0.9,0,1.6,0.7,1.6,1.6v0.3c0,0.9-0.7,1.6-1.6,1.6h-6.9
	C-207.8,434.7-208.5,434-208.5,433.1z"/>
<path class="st2" d="M-106.1,424.8v-0.3c0-0.9-0.7-1.6-1.6-1.6h-6.9c-0.9,0-1.6,0.7-1.6,1.6v0.3c0,0.9,0.7,1.6,1.6,1.6h6.9
	C-106.9,426.4-106.1,425.7-106.1,424.8z"/>
<rect x="-122.8" y="433.7" class="st3" width="24.9" height="6.2"/>
<g class="st4">
	<path d="M-114.4,434.3l1.8,5.2c0,0,0,0.1,0,0.1c0,0.1-0.1,0.2-0.4,0.2h-0.2c-0.2,0-0.4,0-0.4-0.2l-0.4-1.1h-2.1l-0.4,1.1
		c0,0.1-0.2,0.2-0.4,0.2h-0.2c-0.3,0-0.4-0.1-0.4-0.2c0,0,0-0.1,0-0.1l1.8-5.2c0-0.1,0.2-0.2,0.4-0.2h0.4
		C-114.6,434.1-114.4,434.2-114.4,434.3z M-115,435.3c0,0,0,0.1,0,0.2c0,0.1,0,0.2-0.1,0.3l-0.6,1.8h1.5l-0.6-1.8
		C-114.9,435.7-114.9,435.5-115,435.3L-115,435.3z"/>
	<path d="M-109,435.8c0.2,0.2,0.4,0.4,0.5,0.7c0.1,0.3,0.2,0.7,0.2,1.1c0,0.7-0.1,1.2-0.4,1.6c-0.3,0.4-0.7,0.6-1.2,0.6
		c-0.3,0-0.7-0.1-0.9-0.3v1.7c0,0.2-0.1,0.2-0.4,0.2h-0.2c-0.3,0-0.4-0.1-0.4-0.2v-4.3c0-0.4,0-0.6,0-0.8c0-0.2,0-0.3,0-0.3
		c0-0.1,0.1-0.1,0.3-0.2s0.3-0.1,0.5-0.1c0.1,0,0.1,0,0.2,0.1c0,0.1,0.1,0.2,0.1,0.2c0,0.1,0,0.1,0,0.2c0.1-0.2,0.3-0.3,0.5-0.4
		s0.4-0.2,0.7-0.2C-109.5,435.5-109.3,435.6-109,435.8z M-110.6,436.5c-0.1,0.1-0.3,0.2-0.4,0.4v1.9c0.2,0.2,0.4,0.2,0.7,0.2
		c0.6,0,0.9-0.4,0.9-1.3c0-0.4-0.1-0.8-0.2-1c-0.1-0.2-0.3-0.3-0.6-0.3C-110.3,436.3-110.4,436.4-110.6,436.5z"/>
	<path d="M-104.5,435.8c0.2,0.2,0.4,0.4,0.5,0.7c0.1,0.3,0.2,0.7,0.2,1.1c0,0.7-0.1,1.2-0.4,1.6c-0.3,0.4-0.7,0.6-1.2,0.6
		c-0.3,0-0.7-0.1-0.9-0.3v1.7c0,0.2-0.1,0.2-0.4,0.2h-0.2c-0.3,0-0.4-0.1-0.4-0.2v-4.3c0-0.4,0-0.6,0-0.8c0-0.2,0-0.3,0-0.3
		c0-0.1,0.1-0.1,0.3-0.2s0.3-0.1,0.5-0.1c0.1,0,0.1,0,0.2,0.1c0,0.1,0.1,0.2,0.1,0.2c0,0.1,0,0.1,0,0.2c0.1-0.2,0.3-0.3,0.5-0.4
		s0.4-0.2,0.7-0.2C-105,435.5-104.7,435.6-104.5,435.8z M-106,436.5c-0.1,0.1-0.3,0.2-0.4,0.4v1.9c0.2,0.2,0.4,0.2,0.7,0.2
		c0.6,0,0.9-0.4,0.9-1.3c0-0.4-0.1-0.8-0.2-1c-0.1-0.2-0.3-0.3-0.6-0.3C-105.7,436.3-105.8,436.4-106,436.5z"/>
</g>
<rect x="-211.9" y="443.7" class="st3" width="34.4" height="6.2"/>
<g class="st4">
	<path d="M-204.5,444.2c0.2,0.1,0.4,0.1,0.5,0.2s0.2,0.2,0.2,0.3c0,0.1,0,0.2-0.1,0.4s-0.2,0.2-0.2,0.2c0,0-0.1,0-0.2-0.1
		c-0.1-0.1-0.2-0.1-0.4-0.1c-0.1,0-0.3-0.1-0.4-0.1c-0.3,0-0.5,0.1-0.6,0.2c-0.1,0.1-0.2,0.3-0.2,0.4c0,0.2,0,0.3,0.1,0.4
		c0.1,0.1,0.2,0.2,0.3,0.2s0.3,0.1,0.5,0.2c0.3,0.1,0.6,0.2,0.8,0.4c0.2,0.1,0.4,0.3,0.5,0.5c0.1,0.2,0.2,0.5,0.2,0.8
		c0,0.6-0.2,1-0.5,1.3c-0.3,0.3-0.8,0.4-1.3,0.4c-0.3,0-0.7,0-0.9-0.1c-0.3-0.1-0.5-0.2-0.6-0.3c-0.2-0.1-0.2-0.2-0.2-0.3
		c0-0.1,0-0.2,0.1-0.2c0.1-0.1,0.1-0.2,0.2-0.3c0.1-0.1,0.1-0.1,0.2-0.1c0,0,0.1,0,0.2,0.1c0.2,0.1,0.3,0.2,0.5,0.2
		c0.2,0.1,0.3,0.1,0.6,0.1c0.2,0,0.4-0.1,0.6-0.2c0.2-0.1,0.2-0.3,0.2-0.5c0-0.1,0-0.3-0.1-0.4c-0.1-0.1-0.2-0.2-0.3-0.3
		c-0.1-0.1-0.3-0.1-0.5-0.2c-0.1-0.1-0.2-0.1-0.2-0.1c-0.2-0.1-0.5-0.2-0.6-0.3c-0.2-0.1-0.3-0.3-0.4-0.5c-0.1-0.2-0.2-0.5-0.2-0.8
		c0-0.3,0.1-0.6,0.3-0.9s0.4-0.4,0.7-0.5c0.3-0.1,0.6-0.2,0.9-0.2C-205,444.1-204.8,444.1-204.5,444.2z"/>
	<path d="M-199.8,446.1c0.3,0.4,0.4,0.9,0.4,1.5c0,0.1,0,0.1-0.1,0.3c-0.1,0.1-0.2,0.2-0.2,0.2h-2.2c0,0.4,0.1,0.6,0.3,0.8
		c0.2,0.2,0.4,0.2,0.7,0.2c0.2,0,0.3,0,0.5-0.1c0.1,0,0.3-0.1,0.4-0.2c0.1,0,0.1-0.1,0.2-0.1c0.1,0,0.1,0.1,0.2,0.2s0.1,0.2,0.1,0.3
		c0,0.1-0.1,0.2-0.2,0.3s-0.3,0.2-0.6,0.2c-0.2,0-0.4,0.1-0.6,0.1c-0.7,0-1.2-0.2-1.5-0.5c-0.3-0.4-0.5-0.9-0.5-1.6
		c0-0.7,0.2-1.3,0.5-1.6s0.8-0.5,1.4-0.5C-200.5,445.5-200.1,445.7-199.8,446.1z M-202,447.3h1.6c0-0.3-0.1-0.5-0.2-0.7
		c-0.1-0.2-0.3-0.3-0.5-0.3C-201.6,446.3-201.9,446.6-202,447.3z"/>
	<path d="M-196.3,445.6c0.1,0.1,0.1,0.2,0.1,0.3c0,0.1,0,0.2-0.1,0.4c0,0.1-0.1,0.2-0.2,0.2c0,0-0.1,0-0.2,0c-0.1,0-0.2,0-0.2,0
		c-0.2,0-0.3,0-0.4,0.1c-0.1,0.1-0.2,0.2-0.3,0.3v2.7c0,0.1-0.1,0.2-0.4,0.2h-0.2c-0.3,0-0.4-0.1-0.4-0.2v-2.6c0-0.4,0-0.6,0-0.8
		c0-0.2,0-0.3,0-0.3c0-0.1,0.1-0.1,0.3-0.2c0.2,0,0.3-0.1,0.5-0.1c0.1,0,0.1,0,0.2,0.1c0,0.1,0.1,0.2,0.1,0.2c0,0.1,0,0.1,0,0.2
		c0.1-0.2,0.2-0.3,0.4-0.4s0.3-0.2,0.5-0.2C-196.5,445.5-196.4,445.5-196.3,445.6z"/>
	<path d="M-192.4,445.7c0,0,0,0.1,0,0.1l-1.3,3.8c0,0.1-0.2,0.2-0.4,0.2h-0.3c-0.2,0-0.4,0-0.4-0.2l-1.3-3.8c0-0.1,0-0.1,0-0.1
		c0-0.1,0.1-0.2,0.4-0.2h0.2c0.2,0,0.4,0.1,0.4,0.2l0.6,1.9l0.2,0.7l0.1,0.3h0c0.1-0.4,0.2-0.7,0.2-1l0.6-1.9c0-0.1,0.2-0.2,0.4-0.2
		h0.1C-192.5,445.5-192.4,445.6-192.4,445.7z"/>
	<path d="M-190.7,443.9v0.6c0,0.1,0,0.1-0.1,0.2c-0.1,0-0.2,0.1-0.3,0.1h-0.2c-0.1,0-0.3,0-0.3-0.1c-0.1,0-0.1-0.1-0.1-0.2v-0.6
		c0-0.1,0.1-0.2,0.4-0.2h0.2C-190.8,443.7-190.7,443.8-190.7,443.9z M-190.7,445.8v3.8c0,0.1-0.1,0.2-0.4,0.2h-0.2
		c-0.3,0-0.4-0.1-0.4-0.2v-3.8c0-0.1,0.1-0.2,0.4-0.2h0.2C-190.8,445.5-190.7,445.6-190.7,445.8z"/>
	<path d="M-186.9,445.6c0.3,0.1,0.4,0.2,0.4,0.3c0,0.1,0,0.2-0.1,0.3s-0.2,0.2-0.2,0.2c0,0,0,0-0.1,0c-0.2-0.1-0.5-0.2-0.8-0.2
		c-0.3,0-0.6,0.1-0.8,0.3s-0.2,0.6-0.2,1c0,0.5,0.1,0.8,0.2,1s0.4,0.3,0.8,0.3c0.3,0,0.6-0.1,0.8-0.2c0.1,0,0.1,0,0.1,0
		c0.1,0,0.2,0.1,0.2,0.2s0.1,0.2,0.1,0.3c0,0.1-0.1,0.2-0.2,0.3s-0.3,0.1-0.6,0.2s-0.4,0.1-0.6,0.1c-0.7,0-1.2-0.2-1.5-0.5
		c-0.3-0.3-0.5-0.9-0.5-1.6c0-0.7,0.2-1.3,0.5-1.6c0.3-0.4,0.8-0.5,1.5-0.5C-187.5,445.5-187.2,445.6-186.9,445.6z"/>
	<path d="M-182.7,446.1c0.3,0.4,0.4,0.9,0.4,1.5c0,0.1,0,0.1-0.1,0.3c-0.1,0.1-0.2,0.2-0.2,0.2h-2.2c0,0.4,0.1,0.6,0.3,0.8
		c0.2,0.2,0.4,0.2,0.7,0.2c0.2,0,0.3,0,0.5-0.1c0.1,0,0.3-0.1,0.4-0.2c0.1,0,0.1-0.1,0.2-0.1c0.1,0,0.1,0.1,0.2,0.2s0.1,0.2,0.1,0.3
		c0,0.1-0.1,0.2-0.2,0.3s-0.3,0.2-0.6,0.2c-0.2,0-0.4,0.1-0.6,0.1c-0.7,0-1.2-0.2-1.5-0.5c-0.3-0.4-0.5-0.9-0.5-1.6
		c0-0.7,0.2-1.3,0.5-1.6s0.8-0.5,1.4-0.5C-183.4,445.5-183,445.7-182.7,446.1z M-184.9,447.3h1.6c0-0.3-0.1-0.5-0.2-0.7
		c-0.1-0.2-0.3-0.3-0.5-0.3C-184.5,446.3-184.8,446.6-184.9,447.3z"/>
</g>
</svg>
