<?xml version="1.0" encoding="UTF-8"?>
<svg width="47px" height="42px" viewBox="0 0 47 42" version="1.1" xmlns="http://www.w3.org/2000/svg" xmlns:xlink="http://www.w3.org/1999/xlink">
    <!-- Generator: Sketch 47.1 (45422) - http://www.bohemiancoding.com/sketch -->
    <title>noun_192 copy</title>
    <desc>Created with Sketch.</desc>
    <defs></defs>
    <g id="Page-1" stroke="none" stroke-width="1" fill="none" fill-rule="evenodd">
        <g id="noun_192-copy" fill-rule="nonzero" fill="#E9B44A">
            <path d="M46.6762847,20.9201317 C46.4760644,18.9650277 46.4760644,19.2462187 45.7433332,17.1294891 C44.996032,14.9848766 43.4187094,10.7868617 42.2907076,8.30434756 C41.1354458,5.79442326 39.9115638,3.64981085 39.0185624,2.32750465 C38.1335509,1.00614364 37.8980806,0.893194678 37.0610092,0.527882781 C36.1962078,0.154536857 35.089826,0.217863887 33.9825043,0.1479206 C32.8831725,0.048676747 31.7344906,0 30.5101387,0 L16.5642762,0 C15.3121942,0 14.1357823,0.048676747 13.0359806,0.14744801 C11.9225488,0.217391297 10.7879669,0.154064267 9.9508956,0.527410191 C9.10019423,0.892249499 8.85814384,1.00519846 7.99334245,2.32703206 C7.08013098,3.64933826 5.87645904,5.79395067 4.72777719,8.30387497 C3.58661536,10.7863891 2.00929282,14.9844041 1.27609164,17.1290165 C0.53584045,19.2457461 0.508580406,18.9645552 0.335620128,20.9196591 C0.148559827,22.8884681 -0.204410741,26.6219273 0.155139837,28.7036853 C0.494950384,30.7150274 1.33813174,32.0789215 2.38999343,33.063326 C3.43386511,34.040169 4.76255725,34.5472579 6.40191989,34.5827021 C6.31167974,36.6568986 6.31167974,38.2599232 6.40191989,39.4201311 C6.45032997,40.5671065 6.36760983,41.0727775 6.87192064,41.5085053 C7.38375147,41.9239117 8.69176357,41.9447057 9.48653485,41.9796773 C10.2686161,42.0288266 11.1122675,42.0080327 11.5409082,41.6980138 C11.9422888,41.3468796 11.8247886,41.0789212 11.9079787,39.8903579 C11.9770689,38.6677681 12.0184289,36.8950839 12.0047989,34.4910197 L34.8675157,34.4910197 C34.9229758,36.8950839 34.9930059,38.6677681 35.1029861,39.8903579 C35.1932262,41.0793938 35.068676,41.3468796 35.4761667,41.6980138 C35.8986973,42.0075601 36.7155587,42.0288266 37.52396,41.9796773 C38.2985212,41.9447057 39.6055933,41.9239117 40.1385742,41.5085053 C40.6226749,41.0727775 40.5404248,40.5671065 40.6090449,39.4201311 C40.685185,38.2599232 40.685185,36.6564261 40.6090449,34.5827021 C42.2418276,34.5472579 43.5700497,34.0406416 44.6219114,33.063326 C45.6662531,32.0789215 46.5033244,30.7150274 46.862875,28.7036853 C47.1815355,26.6219273 46.870865,22.8884681 46.6762847,20.9201317 Z M6.92832073,29.4584112 C4.50734684,29.4584112 2.54227368,27.4607742 2.54227368,25.0004718 C2.54227368,22.5392242 4.50687684,20.5420598 6.92832073,20.5420598 C9.34882463,20.5420598 11.3134278,22.5392242 11.3134278,25.0004718 C11.3134278,27.4607742 9.34882463,29.4584112 6.92832073,29.4584112 Z M29.7388674,28.604914 L17.2805574,28.604914 C15.9791253,28.604914 14.9244436,27.8823243 14.9244436,26.9910199 C14.9244436,26.1001882 15.9791253,25.3775984 17.2805574,25.3775984 L29.7388674,25.3775984 C31.0402995,25.3775984 32.0949812,26.1001882 32.0949812,26.9910199 C32.0949812,27.8823243 31.0398295,28.604914 29.7388674,28.604914 Z M29.7388674,24.2381845 L17.2805574,24.2381845 C15.9791253,24.2381845 14.9244436,23.5174851 14.9244436,22.6280711 C14.9244436,21.7386572 15.9791253,21.0179577 17.2805574,21.0179577 L29.7388674,21.0179577 C31.0402995,21.0179577 32.0949812,21.7386572 32.0949812,22.6280711 C32.0949812,23.5174851 31.0398295,24.2381845 29.7388674,24.2381845 Z M31.7344906,15.800094 C28.1023248,15.8137991 18.7154697,15.8137991 15.1256039,15.800094 C11.5625282,15.7717386 11.8741387,15.828922 10.4561464,15.7017953 C9.02358411,15.5746687 7.34991141,15.4555761 6.63034026,15.0411148 C5.9107691,14.5902642 5.99395923,14.0836479 6.1603395,13.1417765 C6.33282978,12.1776934 6.93490075,10.7514174 7.56423176,9.34499025 C8.17288274,7.91068028 9.06541417,5.80056692 9.70884521,4.6965972 C10.3174962,3.58601123 10.6150067,3.20604905 11.2927478,2.79820407 C11.9639088,2.38327025 12.8009802,2.3204158 13.7212417,2.22873339 C14.6208231,2.10916817 15.6167547,2.08790163 16.7095065,2.13657838 L30.3033383,2.13657838 C31.3890401,2.08790163 32.3859117,2.10916817 33.2911332,2.22873339 C34.1902446,2.31994322 35.0273159,2.38279766 35.7196271,2.79820407 C36.3912581,3.20604905 36.6600986,3.58601123 37.3039996,4.6965972 C37.9474306,5.80056692 38.8253921,7.91068028 39.4547231,9.34499025 C40.042694,10.7514174 40.6861251,12.1776934 40.8520353,13.1417765 C41.0043156,14.0836479 41.0875057,14.5902642 40.3820346,15.0411148 C39.6417834,15.4555761 38.0024207,15.5751413 36.5566984,15.7017953 C35.1034561,15.828922 35.3107264,15.7722112 31.7344906,15.800094 Z M40.0864041,29.4584112 C37.6654302,29.4584112 35.700357,27.4607742 35.700357,25.0004718 C35.700357,22.5392242 37.6654302,20.5420598 40.0864041,20.5420598 C42.506908,20.5420598 44.4719811,22.5392242 44.4719811,25.0004718 C44.4724511,27.4607742 42.507378,29.4584112 40.0864041,29.4584112 Z" id="Shape"></path>
        </g>
    </g>
</svg>