<?xml version="1.0" encoding="UTF-8"?>
<svg width="16px" height="16px" viewBox="0 0 16 16" version="1.1" xmlns="http://www.w3.org/2000/svg" xmlns:xlink="http://www.w3.org/1999/xlink">
    <!-- Generator: Sketch 48.2 (47327) - http://www.bohemiancoding.com/sketch -->
    <title>Shape</title>
    <desc>Created with Sketch.</desc>
    <defs></defs>
    <g id="bank-chat" stroke="none" stroke-width="1" fill="none" fill-rule="evenodd" transform="translate(-168.000000, -695.000000)">
        <path d="M182.095793,696.904 C180.826821,695.635 179.162859,695 177.499896,695 C175.836934,695 174.172971,695.635 172.904,696.904 C171.728026,698.079 171.10504,699.593 171.018042,701.131 C170.334058,701.3 169.683072,701.637 169.149084,702.172 C167.587119,703.734 167.647118,706.208 169.149084,707.829 C169.931067,708.672 171.977021,711 171.977021,711 C171.977021,711 171.977021,709 171.977021,709 C172.999998,709 174.023975,708.61 174.804957,707.829 C174.804957,707.829 174.804957,707.829 174.804957,707.829 C174.904955,707.729 174.979953,707.615 175.066951,707.508 C175.690937,707.758 176.339922,707.925 176.999908,707.976 L176.999908,711 L182.095793,706.096 C184.634736,703.558 184.634736,699.442 182.095793,696.904 Z M180.681825,704.682 C179.831844,705.532 178.701869,706 177.499896,706 C176.946909,706 176.412921,705.89 175.909932,705.7 C176.129927,704.457 175.765935,703.132 174.805957,702.172 C174.296968,701.663 173.680982,701.337 173.032997,701.16 C173.113995,700.088 173.549985,699.086 174.317968,698.318 C175.167949,697.468 176.297923,697 177.499896,697 C178.701869,697 179.831844,697.468 180.681825,698.318 C181.531806,699.168 181.999795,700.298 181.999795,701.5 C181.999795,702.702 181.531806,703.832 180.681825,704.682 Z" id="Shape" fill="#56ACF2" fill-rule="nonzero"></path>
    </g>
</svg>