<?xml version="1.0" encoding="utf-8"?>
<!-- Generator: Adobe Illustrator 22.0.1, SVG Export Plug-In . SVG Version: 6.00 Build 0)  -->
<!DOCTYPE svg PUBLIC "-//W3C//DTD SVG 1.1//EN" "http://www.w3.org/Graphics/SVG/1.1/DTD/svg11.dtd" [
	<!ENTITY st0 "opacity:0.67;">
	<!ENTITY st1 "fill:#E6EDA8;">
	<!ENTITY st2 "fill:#FFFFFF;">
	<!ENTITY st3 "fill:#EEF2F9;">
	<!ENTITY st4 "opacity:0.35;fill:#D0DAED;">
	<!ENTITY st5 "fill:#727F9B;">
	<!ENTITY st6 "fill:#EDF2F9;">
	<!ENTITY st7 "fill:none;stroke:#727F9B;stroke-width:2.0175;stroke-linecap:round;stroke-linejoin:round;stroke-miterlimit:10;">
	<!ENTITY st8 "opacity:0.44;">
	<!ENTITY st9 "fill:#BFCADB;">
	<!ENTITY st10 "opacity:0.67;fill:#E6EDA8;">
	<!ENTITY st11 "opacity:0.75;fill:#5CA8E0;">
	<!ENTITY st12 "opacity:0.67;fill:#B6E7FF;">
	<!ENTITY st13 "fill:#B6E7FF;">
	<!ENTITY st14 "opacity:0.75;">
	<!ENTITY st15 "fill:#5CA8E0;">
	<!ENTITY st16 "fill:#F5C5A5;">
	<!ENTITY st17 "opacity:0.35;">
	<!ENTITY st18 "fill:none;stroke:#727F9B;stroke-width:2;stroke-linecap:round;stroke-linejoin:round;stroke-miterlimit:10;">
	<!ENTITY st19 "opacity:0.29;fill:#5CA8E0;stroke:#5E6B8D;stroke-miterlimit:10;">
	<!ENTITY st20 "opacity:0.72;fill:#FFFFFF;stroke:#5E6B8D;stroke-miterlimit:10;">
	<!ENTITY st21 "opacity:0.75;fill:#5CA8E0;stroke:#5E6B8D;stroke-miterlimit:10;">
	<!ENTITY st22 "opacity:0.36;fill:#5CA8E0;">
	<!ENTITY st23 "opacity:0.48;fill:#5CA8E0;">
	<!ENTITY st24 "fill:#C7E2F4;">
	<!ENTITY st25 "fill:none;stroke:#727F9B;stroke-width:1.5106;stroke-linecap:round;stroke-linejoin:round;stroke-miterlimit:10;">
	<!ENTITY st26 "opacity:0.29;fill:#5CA8E0;stroke:#5E6B8D;stroke-width:0.7553;stroke-miterlimit:10;">
	<!ENTITY st27 "opacity:0.72;fill:#FFFFFF;stroke:#5E6B8D;stroke-width:0.7553;stroke-miterlimit:10;">
	<!ENTITY st28 "opacity:0.75;fill:#5CA8E0;stroke:#5E6B8D;stroke-width:0.7553;stroke-miterlimit:10;">
	<!ENTITY st29 "fill:#232440;">
	<!ENTITY st30 "fill:none;stroke:#727F9B;stroke-width:0.8607;stroke-linecap:round;stroke-linejoin:round;stroke-miterlimit:10;">
	<!ENTITY st31 "opacity:0.29;fill:#5CA8E0;stroke:#5E6B8D;stroke-width:0.4304;stroke-miterlimit:10;">
	<!ENTITY st32 "opacity:0.72;fill:#FFFFFF;stroke:#5E6B8D;stroke-width:0.4304;stroke-miterlimit:10;">
	<!ENTITY st33 "opacity:0.75;fill:#5CA8E0;stroke:#5E6B8D;stroke-width:0.4304;stroke-miterlimit:10;">
	<!ENTITY st34 "fill:#6F7878;">
	<!ENTITY st35 "opacity:0.59;fill:#C7E2F4;">
	<!ENTITY st36 "fill:none;stroke:#727F9B;stroke-linecap:round;stroke-linejoin:round;stroke-miterlimit:10;">
	<!ENTITY st37 "opacity:0.72;fill:#FFFFFF;stroke:#5E6B8D;stroke-width:0.6369;stroke-miterlimit:10;">
	<!ENTITY st38 "opacity:0.75;fill:#5CA8E0;stroke:#5E6B8D;stroke-width:0.3773;stroke-miterlimit:10;">
	<!ENTITY st39 "opacity:0.61;">
	<!ENTITY st40 "opacity:0.56;fill:#5CA8E0;">
	<!ENTITY st41 "opacity:0.65;fill:#C7E2F4;">
	<!ENTITY st42 "opacity:0.4;fill:#5CA8E0;stroke:#5E6B8D;stroke-width:0.7553;stroke-linejoin:round;stroke-miterlimit:10;">
]>
<svg version="1.1" id="Layer_1" xmlns="http://www.w3.org/2000/svg" xmlns:xlink="http://www.w3.org/1999/xlink" x="0px" y="0px"
	 viewBox="0 0 800 768" style="enable-background:new 0 0 800 768;" xml:space="preserve">
<g>
	<path style="&st22;" d="M733.4,328.5c-3.6-8-26.7-11.1-33.9-16.4c-8.1-5.8-24.4,0.5-34.9,2c-1.6,0.2-3.3,0.5-5,0.8
		c-6.6-1.6,16.5-5,9.6-4.2c-4.7-3.3-10-5.7-15.8-6.9c-4.5-0.5-9-1-13.5-1.5c-9.1,0.2-17.6,2.5-25.5,7.1c-12.8,5.8-15.6-8.5-28.5-2.9
		c-64,27.1-129.6,49.8-196.9,68c-61.3,16.6-123.1,31.1-183.7,50c-45.9,14.3-61.2,30.6-105.9,48.1c-12,4.7-33.7,11.2-39.9,23
		c-5.2,10-7.2,20.2-5.5,31.4c1.6,10.3,6.1,20.8,14.4,27.9c10.1,8.7,32.7,10.6,46,13.8c32.5,7.7,32.3-5.4,60.9,4.6
		c20.7,7.2,32.3,0.7,48.3-0.8c3.2-0.3,6.4-0.7,9.6-1.1c1.1-0.1,2.2-0.2,3.3-0.4c6.6-0.9,13.2-2,19.7-3.6
		c10.7-2.7,20.6-7.8,30.7-12.1c6-2.6,11.9-5.2,17.8-7.7c4.4-1.1,8.7-2.8,12.8-5.2c1.1-0.6,2.2-1.2,3.3-1.8c7.3-3.2,14.7-6.5,22-9.8
		c5.2-1.5,10.5-2.7,15.9-3.7c9.5-1.3,19.1-2.5,28.5-4.3c14-2.7,26.7-7.9,39.7-13.6c11.6-5.1,23.1-20.8,34.1-26.7
		c5.6-3,11.2-5.8,16.9-8.5c16.7-5,33.2-10.4,49.3-16.8c5.1-1.6,10.2-3.4,15.3-5.3c19.6-4.8,44.1-5.5,63.5-11
		c24.8-7.1,38.7-25.9,62.1-36.4c25.6-11.5,31.5-14.1,52.6-32.2c2.6-3.4,5.2-6.7,7.8-10.1c1.6-3.9,3.3-7.9,4.9-11.8
		C736.3,339.7,737.9,338.5,733.4,328.5z"/>
	<path style="&st23;" d="M632.8,352.1c-3-6.5-5.4-9.1-11.3-13.3c-6.6-4.8-12.6-11.8-21.1-10.6c-1.3,0.2-2.7,0.4-4.1,0.6
		c-5.4-1.3-11-1.6-16.6-0.9c-3.8-2.7-8.2-4.7-12.9-5.6c-3.7-0.4-7.3-0.8-11-1.2c-7.4,0.1-14.4,2.1-20.7,5.8
		c-10.4,4.8-20.9,9.4-31.4,14c-52.2,22.1-105.6,40.6-160.5,55.4c-49.9,13.5-100.3,25.4-149.7,40.7c-37.4,11.7-49.9,24.9-86.3,39.2
		c-9.8,3.9-27.5,9.2-32.5,18.8c-4.3,8.1-5.9,16.5-4.5,25.6c1.3,8.4,5,17,11.7,22.8c8.2,7.1,26.6,8.6,37.5,11.2
		c26.5,6.3,26.3-4.4,49.6,3.7c16.8,5.9,26.3,0.6,39.3-0.7c2.6-0.3,5.2-0.5,7.8-0.9c0.9-0.1,1.8-0.2,2.7-0.3c5.4-0.7,10.8-1.6,16.1-3
		c8.7-2.2,16.8-6.3,25-9.9c4.9-2.1,9.7-4.2,14.5-6.3c3.6-0.9,7.1-2.3,10.4-4.2c0.9-0.5,1.8-1,2.7-1.5c6-2.6,12-5.3,17.9-8
		c4.2-1.2,8.5-2.2,12.9-3c7.8-1,15.6-2,23.3-3.5c11.4-2.2,21.8-6.4,32.4-11.1c9.4-4.1,18.8-16.9,27.8-21.8c4.5-2.4,9.1-4.7,13.8-6.9
		c13.6-4.1,27-8.5,40.2-13.7c4.2-1.3,8.3-2.7,12.4-4.3c15.9-3.9,31.1-8.6,46.8-13.1c20.2-5.8,31.5-21.1,50.6-29.7
		c20.8-9.4,39.5-13.9,56.7-28.7c2.1-2.7,4.2-5.5,6.3-8.2c1.3-3.2,2.7-6.4,4-9.6C635.2,361.2,636.5,360.3,632.8,352.1z"/>
	<path style="&st23;" d="M709.1,335.7c-2.4-5.2-4.4-7.3-9.1-10.7c-5.3-3.8-10.1-9.5-16.9-8.5c-1.1,0.2-2.2,0.3-3.3,0.5
		c-4.3-1-8.9-1.3-13.3-0.8c-3.1-2.1-6.5-3.7-10.3-4.5c-2.9-0.3-5.9-0.7-8.8-1c-6,0.1-11.5,1.7-16.6,4.7c-8.4,3.8-16.8,7.5-25.2,11.2
		c-41.9,17.7-84.8,32.6-128.8,44.5c-40.1,10.8-80.5,20.3-120.1,32.7c-30,9.4-40,20-69.3,31.5c-7.9,3.1-22,7.4-26.1,15.1
		c-3.4,6.5-4.7,13.2-3.6,20.5c1,6.7,4,13.6,9.4,18.3c6.6,5.7,21.4,6.9,30.1,9c21.3,5.1,21.1-3.5,39.8,3c13.5,4.7,21.1,0.5,31.6-0.5
		c2.1-0.2,4.2-0.4,6.3-0.7c0.7-0.1,1.4-0.2,2.2-0.3c4.3-0.6,8.7-1.3,12.9-2.4c7-1.8,13.5-5.1,20.1-7.9c3.9-1.7,7.8-3.4,11.7-5.1
		c2.9-0.7,5.7-1.9,8.4-3.4c0.7-0.4,1.4-0.8,2.1-1.2c4.8-2.1,9.6-4.3,14.4-6.4c3.4-1,6.9-1.8,10.4-2.4c6.2-0.8,12.5-1.6,18.7-2.8
		c9.2-1.7,17.5-5.2,26-8.9c7.6-3.3,15.1-13.6,22.3-17.5c3.6-2,7.3-3.8,11.1-5.5c10.9-3.3,21.7-6.8,32.3-11c3.4-1.1,6.7-2.2,10-3.4
		c12.8-3.1,24.9-6.9,37.6-10.5c16.2-4.6,25.3-16.9,40.6-23.8c16.7-7.5,31.7-11.2,45.5-23c1.7-2.2,3.4-4.4,5.1-6.6
		c1.1-2.6,2.1-5.1,3.2-7.7C711,343,712.1,342.3,709.1,335.7z"/>
</g>
<g>
	<g>
		<path style="&st24;" d="M239.7,439.6c1.7,0,2.2-2.3,0.2-2.3C238.2,437.3,237.8,439.6,239.7,439.6L239.7,439.6z"/>
	</g>
	<polygon style="&st6;" points="662.3,216.5 701.3,226.5 668.3,235.5 663.3,236.5 	"/>
	<path style="&st2;" d="M96.7,406.3c0,0,30.2,31,29.5,49.1c-0.8,18.1-15.9,19.6-18.1,40s7.6,30.2,19.6,33.2s57.4,2.6,71.8,1.5
		c29.5-2.3,80.8-20.4,80.8-20.4l365.9-154.5c0,0,31-23.4,51.4-74c21.5-19.3,28.4-40,28.4-40L96.7,406.3z"/>
	<path style="&st2;" d="M227.4,450.1c-49,14.6-87.2,7.9-100.5,5.3l-7.9-21.5l-18.1-23.4c0,0,35.8,2.8,74.2,0.7
		c41.2-2.3,85.2-8.3,91.2-7.5c11.9,1.5-37,14.4-37,14.4L227.4,450.1z"/>
	<path style="&st3;" d="M567.4,329.3l34.2-11.8l95.9-35.5l-23.4,43.1l-25.7,28.7l-90.1,39c0,0-0.8-18.9-0.8-28.7
		c0-3.7,4.9-9.2,7.6-14.8c1.6-3.2,1.2-3.4,2.2-6.4C569.4,337.2,567.4,329.3,567.4,329.3z"/>
	<path style="&st10;" d="M573,307.9c0,0-7.5,22.1-6.4,38.4c-8.1,5.9-10.4,27.8-10.4,27.8l-35.5-14l-0.4-34.4L573,307.9z"/>
	<path style="&st4;" d="M654.1,272.6c0.4-2.6-74.8-20.4-74.8-20.4l-294,91.4l-135.8,40c0,0-7.9-2.6-17.4,0.8s-32.1,18.5-30.2,23.4
		c4.2,4.9,65.5,3.5,65.5,3.5l74.3-5.7l24.2-2.3l5.3,2.3L529.8,318C529.8,318,653.7,275.3,654.1,272.6z"/>
	<g>
		<path style="&st5;" d="M102.3,408.4c8.3-13.2,24.4-25.6,40.4-24.1c6.4,0.6,12.9-2.2,19-3.9c24.3-6.9,48.6-13.9,72.8-20.8
			c23.7-6.8,47.1-14.3,70.6-21.7c49.1-15.5,98.1-30.9,147.2-46.4c26.6-8.4,53.1-17.1,79.8-25.1c11.6-3.5,23.2-6.9,34.8-10.4
			c3.7-1.1,7.4-2.4,11.2-3.3c1.3-0.4-1.2-0.3,0.1,0c1.2,0.3,2.3,0.6,3.5,0.9c21.9,5.9,43.8,11.8,65.7,17.7c1.9,0.5,3.8,1,5.8,1.6
			c0.5,0.1,2.5-0.7,1.8-0.9c-19.8-5.4-39.7-10.7-59.5-16.1c-4.4-1.2-8.7-2.4-13.1-3.5c-1.5-0.4-2.7-0.9-4.1-0.7
			c-3.4,0.4-7.1,2.1-10.3,3.1c-6.2,1.8-12.4,3.7-18.5,5.5c-27.2,8.1-54.3,16.7-81.4,25.3c-50.2,15.8-100.3,31.6-150.5,47.4
			c-24.6,7.8-49.1,15.9-74,23c-24.6,7-49.3,14.1-73.9,21.1c-6.9,2-13.8,4.5-20.8,5.9c-2.9,0.6-5.6-0.1-8.5-0.2
			c-3.9-0.1-7.9,0.8-11.6,2.2c-7.9,3-15.1,8.2-21,14.2c-2.8,2.8-5.5,6-7.6,9.4C99.9,409.1,102,409,102.3,408.4L102.3,408.4z"/>
	</g>
	<g>
		<polygon style="&st2;" points="640.9,174.1 639.4,207.3 643.9,209.6 643.9,174.8 		"/>
		<g>
			<path style="&st5;" d="M639.8,174.2c-0.5,11.1-1,22.2-1.5,33.2c0,0.2,0,0.2,0.2,0.3c1.5,0.8,3,1.5,4.5,2.3c0.5,0.2,2-0.1,2-0.8
				c0-11.6,0-23.2,0-34.7c0-0.1-0.1-0.2-0.2-0.2c-1-0.3-2-0.5-3-0.8c-0.6-0.1-2.5,0.8-1.8,1c3.3,0.8,2.8,0.5,2.8,3.8
				c0,4.1,0,8.1,0,12.2c0,6.4,0,12.9,0,19.3c0.7-0.3,1.3-0.5,2-0.8c-2.8-1.4-4.2-1.1-4.2-3.7c-0.1-3.8,0.3-7.6,0.5-11.4
				c0.3-6.7,0.6-13.4,0.9-20.1C642,173.1,639.8,173.6,639.8,174.2z"/>
		</g>
	</g>
	<rect x="662.3" y="236.5" style="&st6;" width="5" height="17"/>
	<g>
		<path style="&st5;" d="M95.7,406.8c2.9,4.1,11.1,4.3,15.5,4.8c10.7,1.1,21.6,1.1,32.3,0.9c27.4-0.4,54.9-2.3,82.2-4.4
			c9.9-0.8,19.9-1.6,29.8-2.6c2.8-0.3,5.6-0.5,8.4-0.8c0.6-0.1,1.3-0.2,1.9-0.2c0.1,0,0.2-0.1,0.4,0c-1.5-0.2,0,0.5,0.8,0.9
			c4,2,8.1,0,12-1.3c3.8-1.2,7.5-2.5,11.3-3.7c10.7-3.5,21.4-7.1,32.1-10.7c67.2-22.4,134.4-45.1,201.4-68.2
			c34.5-11.9,68.9-23.8,103.2-36.1c7.5-2.7,15-5.4,22.5-8.1c2-0.7,4.8-1.1,5.8-3.2c0.6-1.2-0.1-2.9,0.5-4c1.4-2.8,7.4-3.6,10-4.6
			c16.5-5.8,33.3-10.5,49.9-15.9c2.7-0.9,5.6-1.7,7.8-3.5c4.5-3.9,6.7-10.8,1.6-15c-1.6-1.3-3.1-1.5-5-2c-4.7-1.1-9.3-2.2-14-3.4
			c-12.5-3-25.1-6-37.6-9.1c-2.5-0.6-5.6-1.9-8.2-2c-1.6,0-3.3,0.8-4.8,1.2c-23,6.6-46.1,13-68.9,20.2c-3,1-6.6,1.7-9.4,3.2
			c-0.9,0.5-1.2,0.6-1.8,1.4c-0.9,1.1-0.4,2.6-1,3.7c-1.3,2.2-2,1-4,2.1c-2.2,1.2-2.3,4.6-3.5,5.5c-0.8,0.6-2.3,0.7-3.2,1
			c-30.4,9.6-61,18.6-91.6,27.8c-51.4,15.5-102.8,30.8-154.2,46.2c-45.1,13.5-90.2,27-135.4,40.4c-12,3.6-24.1,7.2-36.1,10.7
			c-1.9,0.6-3.9,1.5-5.9,1.7c-3.4,0.4-6.4-2.2-9.7-1.8c-1,0.1-1.8,0.6-2.7,1.2c-2.3,1.5-2.4,3-5.1,2c-1.6-0.6-2.2-1.2-4.2-0.8
			c-2,0.5-4.1,1.6-5.9,2.6C105,386.9,89.2,396.1,95.7,406.8c0.5,0.9,2.6,0,2-1c-4.3-7.2,3.5-13.6,8.9-17.2c2.6-1.8,5.5-3.4,8.3-4.8
			c0.9-0.5,2.1-1.2,3.2-1.4c2.2-0.5,1.4-0.2,3.9,1c1.4,0.7,2,0.9,3.5,0.1c1.5-0.7,2.4-2.6,3.9-3.2c2.7-1.2,5.8,1,8.5,1.2
			c1.4,0.1,2.5,0,3.8-0.4c8.3-2.1,16.5-4.9,24.7-7.3c39.7-11.8,79.4-23.6,119.1-35.5c50.6-15.1,101.2-30.2,151.8-45.4
			c37.5-11.3,75.1-22.5,112.6-33.9c4.4-1.3,8.8-2.7,13.1-4.1c1.6-0.5,4-0.8,5.3-1.8c2.3-1.6,1-4.4,4.4-5.4c2.3-0.7,2.7,0.1,3.7-2.5
			c0.9-2.4,0.1-3.5,2.2-4.7c1.4-0.8,3.3-1.1,4.8-1.6c10.9-3.5,21.9-6.7,32.8-9.9c11.5-3.4,23-6.7,34.6-10c2.8-0.8,5.8-2,8.8-2.5
			c1.2-0.2-0.4-0.1,0.3-0.1c1.2,0.1,2.5,0.6,3.7,0.9c11.2,2.7,22.4,5.4,33.6,8.1c5.6,1.4,11.2,2.7,16.9,4.1c2.6,0.6,5.7,0.9,8.1,2
			c5.8,2.6,3.9,11.1-1.2,14.4c-3.6,2.3-8.6,3.1-12.6,4.3c-7.8,2.4-15.5,4.7-23.3,7.1c-4.9,1.6-9.8,3.2-14.6,4.8c-2.9,1-5.7,2-8.6,3
			c-2,0.7-5.2,1.2-6.9,2.6c-2.3,1.8-0.6,5.1-2.9,6.9c-2.4,1.9-7.4,2.7-10.3,3.7c-7.3,2.6-14.7,5.3-22,7.9
			c-16.5,5.9-33.1,11.7-49.6,17.5c-68.4,23.8-136.9,47.1-205.5,70.1c-24.3,8.2-48.7,16.3-73.1,24.4c-3.8,1.3-7.6,2.5-11.4,3.8
			c-1.5,0.5-3,1-4.5,1.5c-0.6,0.2-1.2,0.4-1.7,0.6c-3.8,0.9-3.9-0.6-6.6-1.1c-3.4-0.7-7.8,0.5-11.2,0.8c-22.6,2.1-45.2,3.9-67.9,5.2
			c-24.5,1.5-49.6,3.2-74.2,1c-4.2-0.4-13.3-0.3-16.1-4.3C97.1,405,95,405.8,95.7,406.8z"/>
	</g>
	<g>
		<polygon style="&st6;" points="600.1,204.3 653,215.6 653,257.1 599.4,244.3 		"/>
		<g>
			<path style="&st5;" d="M599.2,204.7c13.4,2.9,26.9,5.8,40.3,8.6c3.2,0.7,6.3,1.4,9.5,2c1.1,0.2,2.7,0.6,2.9,0.8
				c0.8,1.5,0,5.5,0,7.2c0,4.3,0,8.6,0,12.8c0,7.1,0,14.2,0,21.3c0.7-0.2,1.3-0.5,2-0.7c-13.3-3.2-26.6-6.4-39.9-9.5
				c-3.3-0.8-6.6-1.6-10-2.4c-0.8-0.2-3.6-0.8-3.6-0.8c-0.7-1,0.1-5.2,0.1-6.4c0.1-4.2,0.2-8.4,0.2-12.6c0.1-7,0.3-14,0.4-21
				c0-0.4-2.2-0.1-2.2,0.6c-0.3,13.3-0.5,26.7-0.8,40c0,0.1,0.1,0.1,0.2,0.2c17.9,4.3,35.8,8.6,53.6,12.8c0.5,0.1,2-0.1,2-0.7
				c0-13.8,0-27.7,0-41.5c0-0.1-0.1-0.1-0.2-0.2c-17.6-3.8-35.2-7.6-52.9-11.3C600.5,203.7,598.5,204.6,599.2,204.7z"/>
		</g>
	</g>
	<g>
		<polyline style="&st6;" points="661.3,183.1 662.8,217.9 646.2,214.1 648.5,185.4 		"/>
		<g>
			<path style="&st5;" d="M660.2,183.4c0.5,11.6,1,23.2,1.5,34.7c0.7-0.2,1.3-0.5,2-0.7c-4-0.9-8-1.8-12-2.7c-0.7-0.1-4.2-0.6-4.5-1
				c-0.2-0.2,0.3-2.9,0.3-3.4c0.7-8.4,1.3-16.8,2-25.3c0-0.3-2.1-0.1-2.2,0.6c-0.8,9.6-1.5,19.1-2.3,28.7c0,0.1,0.1,0.1,0.2,0.1
				c5.5,1.3,11.1,2.5,16.6,3.8c0.4,0.1,2-0.1,2-0.7c-0.5-11.6-1-23.2-1.5-34.7C662.4,182.4,660.2,182.8,660.2,183.4L660.2,183.4z"/>
		</g>
	</g>
	<g>
		<polygon style="&st6;" points="662.1,213.3 653,216.3 653,257.1 662.8,254.1 		"/>
		<g>
			<path style="&st5;" d="M661.8,212.5c-3,1-6,2-9.1,3c-0.4,0.1-0.9,0.4-0.9,0.9c0,13.6,0,27.2,0,40.8c0,0.7,0.8,0.9,1.3,0.7
				c3.3-1,6.5-2,9.8-3c0.3-0.1,0.9-0.4,0.9-0.9c-0.3-13.6-0.5-27.2-0.8-40.8c0-1.2-2.2-0.9-2.2,0.1c0.2,9.2,0.3,18.4,0.5,27.6
				c0.1,3.7-0.8,9,0.2,12.5c0.2,0.8-0.1,0.5,0.8-0.2c-0.7,0.5-2.2,0.7-3,0.9c-2.2,0.7-4.5,1.4-6.7,2.1c0.4,0.2,0.9,0.5,1.3,0.7
				c0-9.1,0-18.1,0-27.2c0-3.7,1-9.1,0-12.7c-0.1-0.3,0.2-1.5-0.4-0.5c-0.6,0.9,1.1-0.1,1.8-0.3c2.2-0.7,4.5-1.5,6.7-2.2
				C663.6,213.7,663.2,212.1,661.8,212.5z"/>
		</g>
	</g>
	<g>
		<polygon style="&st6;" points="611.8,200.9 599.7,203.9 653.4,216 662.4,213 		"/>
		<g>
			<path style="&st5;" d="M611.7,200.4c-4,1-8.1,2-12.1,3c-0.2,0-1.5,0.7-0.8,0.9c12.1,2.7,24.2,5.5,36.3,8.2
				c5.4,1.2,11,3.1,16.5,3.7c3.7,0.4,7.7-1.8,11.2-3c0.2-0.1,1.1-0.7,0.5-0.8c-16.9-4-33.7-8.1-50.6-12.1c-0.6-0.1-2.5,0.8-1.8,1
				c16,3.8,32,7.6,47.9,11.4c0.8,0.2,1.7,0.4,2.5,0.6c0.1,0,1-0.6-0.1-0.6c-1.1,0.1-2.4,0.8-3.4,1.1c-1.2,0.4-2.5,0.7-3.7,1.2
				c-1.2,0.5-1.5,0,0,0.3c-0.7-0.1-1.4-0.3-2.1-0.5c-9.2-2.1-18.4-4.1-27.6-6.2c-8-1.8-15.9-3.6-23.9-5.4c-0.3,0.3-0.5,0.6-0.8,0.9
				c4-1,8.1-2,12.1-3C613.2,201,613,200.1,611.7,200.4z"/>
		</g>
	</g>
	<g>
		<path style="&st5;" d="M598.1,235.8c-6.4,2.1-12.8,4.3-19.3,6.4c-0.5,0.2-1.5,0.9-0.5,1.2c20.1,4.8,40.3,9.7,60.4,14.5
			c4.7,1.1,9.3,2.2,14,3.4c1.6,0.4,3.4,1.1,5,0.9c2.7-0.3,5.9-2,8.5-2.8c6-2,12-4,17.9-6c10.1-3.4,20.1-6.7,30.2-10.1
			c0.5-0.2,1.5-0.9,0.5-1.2c-3.9-0.9-7.8-1.8-11.7-2.6c-0.7-0.2-2.6,0.9-1.3,1.2c3.9,0.9,7.8,1.8,11.7,2.6c0.2-0.4,0.3-0.8,0.5-1.2
			c-8.2,2.7-16.4,5.5-24.6,8.2c-10.2,3.4-21,6.2-31,10.3c-1,0.4-1.3,0.2-0.4,0.3c-0.9-0.1-1.9-0.4-2.7-0.7c-4.1-1-8.3-2-12.4-3
			c-12.6-3-25.1-6-37.7-9.1c-8.5-2-17-4.1-25.5-6.1c-0.2,0.4-0.3,0.8-0.5,1.2c6.4-2.1,12.8-4.3,19.3-6.4
			C599.6,236.5,599.4,235.4,598.1,235.8L598.1,235.8z"/>
	</g>
	<g>
		<path style="&st5;" d="M656.4,261.8c0,1.8,0,3.5,0,5.3c0,1.1,2.2,0.8,2.2-0.2c0-1.8,0-3.5,0-5.3
			C658.6,260.5,656.4,260.8,656.4,261.8L656.4,261.8z"/>
	</g>
	<g>
		<path style="&st5;" d="M712.7,243.3c0,2,0,4,0,6c0,1,2.2,0.5,2.2-0.3c0-2,0-4,0-6C714.9,242.1,712.7,242.5,712.7,243.3
			L712.7,243.3z"/>
	</g>
	<line style="&st25;" x1="579" y1="242.8" x2="579" y2="252.6"/>
	<polygon style="&st2;" points="461.8,261 497.8,275 499.8,315 461.8,302 	"/>
	<g>
		<polygon style="&st6;" points="498.3,275.5 617.3,236.5 618.3,276.5 500.3,316.5 		"/>
		<g>
			<path style="&st9;" d="M616,237.2c0.3,6.4,0.2,12.9,0.2,19.4c0,4,0.1,7.9,0.1,11.9c0,2.2,1,6.9-1.1,8.5c-1,0.7,1.2,0.7,1.7,0.3
				c2.2-1.7,1.6-3.8,1.6-6.4c-0.1-4.1-0.1-8.2-0.1-12.2c-0.1-7.3,0.1-14.7-0.2-22C618.2,236,616,236.4,616,237.2L616,237.2z"/>
		</g>
		<g>
			<path style="&st6;" d="M617.3,236.5c-16.9,5.6-99.5,32.6-116.3,38.2c-1,0.3-2,0.7-3.1,0.7c-2.4,0.1-4.7-1.2-6.8-2.4
				c-9.3-5.2-19.4-8.7-29.5-12.2l118.6-37.7c12.1,3.9,25.5,8.9,37.3,13.6"/>
			<g>
				<path style="&st9;" d="M617.2,235.9C580.5,248,543.7,260,507,272.1c-1.6,0.5-3.1,1.1-4.7,1.5c-2,0.5-1.8,0.5-4.6,0.4
					c-3.7-0.1-5.7-1.5-8.9-3.2c-8.5-4.4-17.5-7.5-26.5-10.6c-0.2,0.4-0.3,0.8-0.5,1.2c37.5-11.9,74.9-23.8,112.4-35.7
					c1.7-0.5,4.3-2,6.2-2c1.3,0,3.8,1.5,5.1,1.9c3.7,1.2,7.3,2.5,11,3.8c6.8,2.5,13.5,5.1,20.2,7.7c0.7,0.3,2.7-0.7,1.7-1.1
					c-11.3-4.5-22.6-8.8-34.1-12.6c-3.3-1.1-3.7-1.2-6.6-0.3c-8,2.5-15.9,5.1-23.9,7.6c-24.5,7.8-49,15.6-73.6,23.4
					c-6.2,2-12.5,4-18.7,5.9c-0.6,0.2-1.5,0.9-0.5,1.2c9.1,3.2,18.3,6.4,26.9,10.9c5.5,2.9,8.5,4.5,14.5,2.5
					c7.6-2.5,15.2-5,22.9-7.5c22.4-7.3,44.7-14.7,67.1-22c8.4-2.7,16.7-5.5,25.1-8.3C618.8,236.7,618.5,235.5,617.2,235.9
					L617.2,235.9z"/>
			</g>
		</g>
		<g>
			<path style="&st6;" d="M498.4,275.7c0.1,3.3,1.8,37.1,1.6,40.3c-12.7-4.7-25.5-9.4-38.2-14.1l-0.3-41.2"/>
			<g>
				<path style="&st9;" d="M497.3,275.8c0.4,13.4,2.1,26.9,1.6,40.3c0.6-0.3,1.2-0.5,1.7-0.8c-6.1-2.2-12.1-4.5-18.2-6.7
					c-3.3-1.2-6.7-2.5-10-3.7c-1.5-0.6-3-1.1-4.6-1.7c-1.1-0.4-3.6-0.8-4.3-1.4c-0.9-0.8-0.7-1.4-0.7-3.2c0-2.6,0-5.2-0.1-7.8
					c-0.1-10.1-0.1-20.2-0.2-30.2c0-1.1-2.2-0.8-2.2,0.2c0.1,13.7,0.2,27.5,0.3,41.2c0,0.3,0.2,0.5,0.5,0.6
					c12.7,4.7,25.5,9.4,38.2,14.1c0.5,0.2,1.7-0.1,1.7-0.8c0.5-13.4-1.2-26.9-1.6-40.3C499.5,274.5,497.3,274.8,497.3,275.8
					L497.3,275.8z"/>
			</g>
		</g>
		<g>
			<path style="&st9;" d="M501.6,316.3c32.3-10.6,64.4-21.8,96.6-32.8c6.5-2.2,13-4.5,19.5-6.7c1.5-0.5,0.1-0.8-0.8-0.5
				c-32.1,11.2-64.3,22.1-96.5,33c-6.5,2.2-13,4.4-19.6,6.6C499.4,316.3,500.8,316.6,501.6,316.3L501.6,316.3z"/>
		</g>
	</g>
	<g>
		
			<ellipse transform="matrix(0.9712 -0.2384 0.2384 0.9712 -25.107 161.427)" style="&st5;" cx="654.9" cy="184.5" rx="6.5" ry="2.8"/>
		<g>
			<path style="&st5;" d="M647.4,186.4c1.1,2.7,6.1,1.8,8.2,1.3c1.8-0.4,7.4-2.2,6.7-5c-0.7-2.7-6.3-1.7-8.1-1.3
				C652.1,181.9,647.2,183.4,647.4,186.4c0,0.4,2.2,0,2.2-0.6c-0.2-2.3,3.6-3.5,5.2-3.8c1.2-0.2,4.8-0.6,5.3,1.3
				c0.8,3.4-9.1,5.9-10.5,2.5C649.4,185.3,647.3,186,647.4,186.4z"/>
		</g>
	</g>
	<polygon style="&st6;" points="334.8,304 370.8,318 372.8,358 334.8,345 	"/>
	<g>
		<polygon style="&st6;" points="371.3,318.5 490.3,279.5 491.3,319.5 373.3,359.5 		"/>
		<g>
			<path style="&st9;" d="M489,280.2c0.3,6.4,0.2,12.9,0.2,19.4c0,4,0.1,7.9,0.1,11.9c0,2.2,1,6.9-1.1,8.5c-1,0.7,1.2,0.7,1.7,0.3
				c2.2-1.7,1.6-3.8,1.6-6.4c-0.1-4.1-0.1-8.2-0.1-12.2c-0.1-7.3,0.1-14.7-0.2-22C491.2,279,489,279.4,489,280.2L489,280.2z"/>
		</g>
		<g>
			<path style="&st6;" d="M490.3,279.5c-16.9,5.6-99.5,32.6-116.3,38.2c-1,0.3-2,0.7-3.1,0.7c-2.4,0.1-4.7-1.2-6.8-2.4
				c-9.3-5.2-19.4-8.7-29.5-12.2l118.6-37.7c12.1,3.9,25.5,8.9,37.3,13.6"/>
			<g>
				<path style="&st9;" d="M490.2,278.9C453.5,291,416.7,303,380,315.1c-1.6,0.5-3.1,1.1-4.7,1.5c-2,0.5-1.8,0.5-4.6,0.4
					c-3.7-0.1-5.7-1.5-8.9-3.2c-8.5-4.4-17.5-7.5-26.5-10.6c-0.2,0.4-0.3,0.8-0.5,1.2c37.5-11.9,74.9-23.8,112.4-35.7
					c1.7-0.5,4.3-2,6.2-2c1.3,0,3.8,1.5,5.1,1.9c3.7,1.2,7.3,2.5,11,3.8c6.8,2.5,13.5,5.1,20.2,7.7c0.7,0.3,2.7-0.7,1.7-1.1
					c-11.3-4.5-22.6-8.8-34.1-12.6c-3.3-1.1-3.7-1.2-6.6-0.3c-8,2.5-15.9,5.1-23.9,7.6c-24.5,7.8-49,15.6-73.6,23.4
					c-6.2,2-12.5,4-18.7,5.9c-0.6,0.2-1.5,0.9-0.5,1.2c9.1,3.2,18.3,6.4,26.9,10.9c5.5,2.9,8.5,4.5,14.5,2.5
					c7.6-2.5,15.2-5,22.9-7.5c22.4-7.3,44.7-14.7,67.1-22c8.4-2.7,16.7-5.5,25.1-8.3C491.8,279.7,491.5,278.5,490.2,278.9
					L490.2,278.9z"/>
			</g>
		</g>
		<g>
			<path style="&st9;" d="M370.3,318.8c0.4,13.4,2.1,26.9,1.6,40.3c0.6-0.3,1.2-0.5,1.7-0.8c-6.1-2.2-12.1-4.5-18.2-6.7
				c-3.3-1.2-6.7-2.5-10-3.7c-1.5-0.6-3-1.1-4.6-1.7c-1.1-0.4-3.6-0.8-4.3-1.4c-0.9-0.8-0.7-1.4-0.7-3.2c0-2.6,0-5.2-0.1-7.8
				c-0.1-10.1-0.1-20.2-0.2-30.2c0-1.1-2.2-0.8-2.2,0.2c0.1,13.7,0.2,27.5,0.3,41.2c0,0.3,0.2,0.5,0.5,0.6
				c12.7,4.7,25.5,9.4,38.2,14.1c0.5,0.2,1.7-0.1,1.7-0.8c0.5-13.4-1.2-26.9-1.6-40.3C372.5,317.5,370.3,317.8,370.3,318.8
				L370.3,318.8z"/>
		</g>
		<g>
			<path style="&st9;" d="M374.6,359.3c32.3-10.6,64.4-21.8,96.6-32.8c6.5-2.2,13-4.5,19.5-6.7c1.5-0.5,0.1-0.8-0.8-0.5
				c-32.1,11.2-64.3,22.1-96.5,33c-6.5,2.2-13,4.4-19.6,6.6C372.4,359.3,373.8,359.6,374.6,359.3L374.6,359.3z"/>
		</g>
	</g>
	<g style="&st8;">
		<path style="&st2;" d="M638.2,168.3c-0.6-0.4-1.4,0.2-1.5,0.9c-0.1,0.7,0.4,1.3,1.1,1.6c1.2,0.5,2.7-0.1,3.2-1.3
			c0.1-0.2,0.1-0.3,0.1-0.5c0-0.3-0.3-0.6-0.6-0.7c-1.1-0.5-2.5,0.2-2.9,1.4c-0.4,1.2,0,2.5,0.7,3.4c0.4,0.6,1.1,1.1,1.8,1.2
			c0.7,0,1.3-0.4,1.8-1c0.4-0.6,0.6-1.2,0.8-1.9c-1.2-0.3-2.4,0.1-3.2,1s-1,2.2-0.5,3.3c0.5,1.1,1.6,1.8,2.8,1.9
			c1,0,1.9-0.5,2.6-1.2c0.7-0.7,1.1-1.6,1.5-2.6c0.3-0.8,0.5-1.9-0.2-2.5c-0.2-0.2-0.5-0.3-0.7,0c-0.1,0.1-0.1,0.2-0.1,0.3
			c-0.1,0.6,0,1.3,0.2,1.9c0.2,0.6,0.7,1.1,1.4,1.2"/>
		<g>
			<path style="&st5;" d="M638.5,167.2c-3.4-1-3.8,4.1-0.6,4.8c2.8,0.7,6.2-3.4,2.8-4.9c-1.3-0.6-2.9,0-3.7,1.1
				c-1.1,1.4-1,3.4-0.1,4.9c0.8,1.3,2.2,2.5,3.8,2.2c1.8-0.4,2.5-2,3-3.6c0.1-0.5-0.2-1.3-0.8-1.4c-3-0.4-5.9,1.8-5.3,5
				c0.6,3.3,4.6,4.3,7.1,2.3c1.5-1.2,4.4-6.9,0.9-7.5c-1.6-0.3-1.9,1.2-1.8,2.5c0.1,1.6,0.9,2.7,2.4,3.3c1.4,0.5,2-1.7,0.6-2.2
				c-0.7-0.6-0.9-1.3-0.7-2c-0.3,0.3-0.5,0.5-0.8,0.8c-0.4,0.2-0.9,2.1-1.1,2.5c-0.6,1-1.6,1.8-2.8,1.5c-2.5-0.7-1.4-4.2,1.1-3.9
				c-0.3-0.5-0.5-0.9-0.8-1.4c-0.2,0.9-0.2,1.2-1.2,1.4c-0.5,0.4-0.9,0.4-1.1-0.1c-0.3-0.3-0.5-0.8-0.6-1.2
				c-0.1-0.5,0.1-1.9,0.9-1.9c0.3,0.3,0.2,0.4-0.3,0.4c-0.4,0.3-0.9,0.2-1.2-0.3C639.3,169.8,639.9,167.6,638.5,167.2L638.5,167.2z"
				/>
		</g>
	</g>
	<polygon style="&st6;" points="201.8,347 237.8,361 239.8,401 201.8,388 	"/>
	<g>
		<polygon style="&st6;" points="238.3,361.5 357.3,322.5 358.3,362.5 240.3,402.5 		"/>
		<g>
			<path style="&st9;" d="M356,323.2c0.3,6.4,0.2,12.9,0.2,19.4c0,4,0.1,7.9,0.1,11.9c0,2.2,1,6.9-1.1,8.5c-1,0.7,1.2,0.7,1.7,0.3
				c2.2-1.7,1.6-3.8,1.6-6.4c-0.1-4.1-0.1-8.2-0.1-12.2c-0.1-7.3,0.1-14.7-0.2-22C358.2,322,356,322.4,356,323.2L356,323.2z"/>
		</g>
		<g>
			<path style="&st6;" d="M357.3,322.5c-16.9,5.6-99.5,32.6-116.3,38.2c-1,0.3-2,0.7-3.1,0.7c-2.4,0.1-4.7-1.2-6.8-2.4
				c-9.3-5.2-19.4-8.7-29.5-12.2l118.6-37.7c12.1,3.9,25.5,8.9,37.3,13.6"/>
			<g>
				<path style="&st9;" d="M357.2,321.9C320.5,334,283.7,346,247,358.1c-1.6,0.5-3.1,1.1-4.7,1.5c-2,0.5-1.8,0.5-4.6,0.4
					c-3.7-0.1-5.7-1.5-8.9-3.2c-8.5-4.4-17.5-7.5-26.5-10.6c-0.2,0.4-0.3,0.8-0.5,1.2c37.5-11.9,74.9-23.8,112.4-35.7
					c1.7-0.5,4.3-2,6.2-2c1.3,0,3.8,1.5,5.1,1.9c3.7,1.2,7.3,2.5,11,3.8c6.8,2.5,13.5,5.1,20.2,7.7c0.7,0.3,2.7-0.7,1.7-1.1
					c-11.3-4.5-22.6-8.8-34.1-12.6c-3.3-1.1-3.7-1.2-6.6-0.3c-8,2.5-15.9,5.1-23.9,7.6c-24.5,7.8-49,15.6-73.6,23.4
					c-6.2,2-12.5,4-18.7,5.9c-0.6,0.2-1.5,0.9-0.5,1.2c9.1,3.2,18.3,6.4,26.9,10.9c5.5,2.9,8.5,4.5,14.5,2.5
					c7.6-2.5,15.2-5,22.9-7.5c22.4-7.3,44.7-14.7,67.1-22c8.4-2.7,16.7-5.5,25.1-8.3C358.8,322.7,358.5,321.5,357.2,321.9
					L357.2,321.9z"/>
			</g>
		</g>
		<g>
			<path style="&st9;" d="M237.3,361.8c0.4,13.4,2.1,26.9,1.6,40.3c0.6-0.3,1.2-0.5,1.7-0.8c-6.1-2.2-12.1-4.5-18.2-6.7
				c-3.3-1.2-6.7-2.5-10-3.7c-1.5-0.6-3-1.1-4.6-1.7c-1.1-0.4-3.6-0.8-4.3-1.4c-0.9-0.8-0.7-1.4-0.7-3.2c0-2.6,0-5.2-0.1-7.8
				c-0.1-10.1-0.1-20.2-0.2-30.2c0-1.1-2.2-0.8-2.2,0.2c0.1,13.7,0.2,27.5,0.3,41.2c0,0.3,0.2,0.5,0.5,0.6
				c12.7,4.7,25.5,9.4,38.2,14.1c0.5,0.2,1.7-0.1,1.7-0.8c0.5-13.4-1.2-26.9-1.6-40.3C239.5,360.5,237.3,360.8,237.3,361.8
				L237.3,361.8z"/>
		</g>
		<g>
			<path style="&st9;" d="M241.6,402.3c32.3-10.6,64.4-21.8,96.6-32.8c6.5-2.2,13-4.5,19.5-6.7c1.5-0.5,0.1-0.8-0.8-0.5
				c-32.1,11.2-64.3,22.1-96.5,33c-6.5,2.2-13,4.4-19.6,6.6C239.4,402.3,240.8,402.6,241.6,402.3L241.6,402.3z"/>
		</g>
	</g>
	<g>
		<polygon style="&st6;" points="667.3,236 667.3,254.1 702.1,242.8 702.1,225.8 		"/>
		<g>
			<path style="&st5;" d="M666.2,236.3c0,6,0,12.1,0,18.1c0,0.4,1.4,0,1.5,0c11.6-3.8,23.2-7.6,34.7-11.3c0.2-0.1,0.7-0.3,0.7-0.6
				c0-5.7,0-11.3,0-17c0-0.3-1.1-0.1-1.2-0.1c-11.6,3.4-23.2,6.8-34.7,10.2c-1.3,0.4-1.1,1.1,0.2,0.7c11.6-3.4,23.2-6.8,34.7-10.2
				c-0.4,0-0.8,0-1.2-0.1c0,4.9,0,9.8,0,14.7c0,0.7,0.2,1.6,0,2.2c0.1-0.4,1.1-0.7-0.1-0.2c-1.8,0.7-3.7,1.2-5.5,1.8
				c-9.5,3.1-18.9,6.2-28.4,9.3c0.5,0,1,0,1.5,0c0-6,0-12.1,0-18.1C668.4,235.3,666.2,235.6,666.2,236.3z"/>
		</g>
	</g>
	<g>
		<path style="&st5;" d="M663.1,237.2c1.4-0.1,2.8-0.3,4.2-0.4c0.5,0,1.1-0.3,1.2-0.9c0.1-0.5-0.6-0.8-1-0.8
			c-1.4,0.1-2.8,0.3-4.2,0.4c-0.5,0-1.1,0.3-1.2,0.9C662,237,662.6,237.2,663.1,237.2L663.1,237.2z"/>
	</g>
	<g>
		<path style="&st5;" d="M662.4,254.7c1.5,0,3,0,4.5,0c0.4,0,1.2-0.2,1.4-0.6c0.2-0.4-0.2-0.6-0.6-0.6c-1.5,0-3,0-4.5,0
			c-0.4,0-1.2,0.2-1.4,0.6C661.6,254.5,662,254.7,662.4,254.7L662.4,254.7z"/>
	</g>
	<g style="&st8;">
		<path style="&st2;" d="M671.7,240.1c0,1,0,2.1,0,3.1c0-0.8,0-1.6-0.2-2.3c-0.1,0.7-0.2,1.4-0.4,2c-0.2-0.9-0.3-1.8-0.2-2.7
			c-0.1,0.5,0,1.1,0.1,1.6"/>
		<g>
			<path style="&st5;" d="M670.5,240.1c0,1,0,2.1,0,3.1c0,1.5,2.2,1.5,2.3,0c0-0.9-0.1-1.8-0.2-2.6c-0.1-0.5-0.7-0.9-1.2-0.8
				c-0.6,0.1-0.9,0.5-1,1.1c-0.1,0.6-0.2,1.2-0.3,1.7c0.7,0,1.5,0,2.2,0c-0.2-0.8-0.2-1.6-0.2-2.4c0.1-0.6-0.6-1.1-1.1-1.1
				c-0.7,0-1.1,0.5-1.1,1.1c-0.1,0.6,0,1.3,0.2,1.9c0.4,1.4,2.6,0.8,2.2-0.6c-0.1-0.4-0.1-0.8-0.1-1.3c-0.8,0-1.5,0-2.3,0
				c-0.1,1,0,2,0.2,3c0.2,1.1,1.9,1.1,2.2,0c0.2-0.8,0.3-1.5,0.4-2.3c-0.7,0.1-1.5,0.2-2.2,0.3c0.1,0.7,0.2,1.3,0.2,2
				c0.8,0,1.5,0,2.3,0c0-1,0-2.1,0-3.1C672.8,238.7,670.5,238.7,670.5,240.1L670.5,240.1z"/>
		</g>
	</g>
	<g style="&st8;">
		<path style="&st2;" d="M678.5,237.9c0,1.2,0.1,2.5,0.4,3.6c-0.2-1-0.3-2-0.2-3c0.1,0.4,0.3,0.8,0.4,1.2c0,0,0,0.1,0,0.1"/>
		<g>
			<path style="&st5;" d="M677.3,237.9c0,1.3,0.1,2.7,0.4,3.9c0.3,1.4,2.5,0.8,2.2-0.6c-0.2-0.9-0.2-1.8-0.1-2.7
				c-0.7,0.1-1.5,0.2-2.2,0.3c0.1,0.4,0.3,0.8,0.5,1.2c0.2,0.6,0.8,1,1.4,0.8c0.5-0.1,1-0.8,0.8-1.4c-0.2-0.4-0.3-0.8-0.5-1.2
				c-0.4-1.3-2.1-1-2.2,0.3c-0.1,1.1,0,2.2,0.2,3.3c0.7-0.2,1.5-0.4,2.2-0.6c-0.3-1.1-0.4-2.2-0.4-3.3
				C679.6,236.4,677.4,236.4,677.3,237.9L677.3,237.9z"/>
		</g>
	</g>
	<g style="&st8;">
		<path style="&st2;" d="M686.2,235.2c0,0.6,0,1.2,0,1.9c0.1-0.5,0.4-1,0.7-1.5c0.2,0.6,0.3,1.2,0.3,1.8c0.2-1.1,0.5-2.2,0.7-3.2
			c0,0.6,0,1.2,0,1.8"/>
		<g>
			<path style="&st5;" d="M685.1,235.2c0,0.6,0,1.2,0,1.9c0,1.3,1.9,1.5,2.2,0.3c0.1-0.4,0.3-0.8,0.6-1.2c-0.7-0.1-1.4-0.2-2.1-0.3
				c0.2,0.5,0.2,1,0.2,1.5c-0.1,1.3,2,1.6,2.2,0.3c0.2-1.1,0.5-2.2,0.7-3.2c-0.7-0.1-1.5-0.2-2.2-0.3c0,0.6,0,1.2,0,1.8
				c0,1.5,2.3,1.5,2.3,0c0-0.6,0-1.2,0-1.8c0-1.2-1.9-1.6-2.2-0.3c-0.2,1.1-0.5,2.2-0.7,3.2c0.7,0.1,1.5,0.2,2.2,0.3
				c0-0.7-0.1-1.4-0.3-2.1c-0.3-0.9-1.5-1.1-2.1-0.3c-0.3,0.5-0.6,1.1-0.8,1.7c0.7,0.1,1.5,0.2,2.2,0.3c0-0.6,0-1.2,0-1.9
				C687.3,233.8,685,233.8,685.1,235.2L685.1,235.2z"/>
		</g>
	</g>
	<g style="&st8;">
		<path style="&st2;" d="M694.7,232.4c0.2,0.9,0.5,1.7,0.7,2.6c0.3-0.8,0.6-1.6,0.9-2.4c0.2,0.5,0.4,1,0.5,1.6c0-0.4,0-0.8,0.1-1.2
			c0.2,0.3,0.2,0.8,0.1,1.2"/>
		<g>
			<path style="&st5;" d="M693.6,232.7c0.2,0.9,0.5,1.7,0.7,2.6c0.3,1.1,1.8,1,2.2,0c0.3-0.8,0.6-1.6,0.9-2.4c-0.7,0-1.5,0-2.2,0
				c0.2,0.5,0.4,1,0.5,1.6c0.4,1.2,2.2,1,2.2-0.3c0-0.4,0-0.8,0.1-1.2c-0.7,0.2-1.4,0.4-2.1,0.6c0,0.1,0.1,0.2,0,0.3
				c-0.1,0.6,0.2,1.2,0.8,1.4c0.6,0.2,1.3-0.2,1.4-0.8c0.2-0.7,0.1-1.4-0.3-2c-0.5-1.1-2.1-0.5-2.1,0.6c0,0.4,0,0.8-0.1,1.2
				c0.7-0.1,1.5-0.2,2.2-0.3c-0.2-0.5-0.4-1-0.5-1.6c-0.4-1.1-1.8-1.1-2.2,0c-0.3,0.8-0.6,1.6-0.9,2.4c0.7,0,1.5,0,2.2,0
				c-0.2-0.9-0.5-1.7-0.7-2.6C695.4,230.7,693.2,231.3,693.6,232.7L693.6,232.7z"/>
		</g>
	</g>
	<g style="&st8;">
		<path style="&st2;" d="M605.3,213.1c-0.2,2-0.4,4-0.6,6.1c0.4-1.5,0.9-2.9,1.5-4.3c0,0.9,0,1.7,0,2.6c0.4-1.2,0.7-2.3,1.1-3.5
			c0.4,1.2,0.7,2.5,1.1,3.7c0-0.7,0-1.3,0-2c-0.1,0.9-0.2,1.8-0.3,2.7"/>
		<g>
			<path style="&st5;" d="M604.1,213.1c-0.2,2-0.4,4-0.6,6.1c-0.1,1.3,1.9,1.5,2.2,0.3c0.4-1.4,0.8-2.7,1.4-4
				c-0.7-0.2-1.4-0.4-2.1-0.6c0,0.9,0,1.7,0,2.6c0,1.3,1.8,1.5,2.2,0.3c0.4-1.2,0.7-2.3,1.1-3.5c-0.7,0-1.5,0-2.2,0
				c0.4,1.2,0.7,2.5,1.1,3.7c0.3,1.2,2.2,1,2.2-0.3c0-0.7,0-1.3,0-2c0-1.5-2.1-1.4-2.3,0c-0.1,0.9-0.2,1.8-0.3,2.7
				c-0.2,1.4,2.1,1.4,2.3,0c0.1-0.9,0.2-1.8,0.3-2.7c-0.8,0-1.5,0-2.3,0c0,0.7,0,1.3,0,2c0.7-0.1,1.5-0.2,2.2-0.3
				c-0.4-1.2-0.7-2.5-1.1-3.7c-0.3-1.1-1.9-1.1-2.2,0c-0.4,1.2-0.7,2.3-1.1,3.5c0.7,0.1,1.5,0.2,2.2,0.3c0-0.9,0-1.7,0-2.6
				c0-1.1-1.6-1.6-2.1-0.6c-0.7,1.5-1.2,3-1.6,4.5c0.7,0.1,1.5,0.2,2.2,0.3c0.2-2,0.4-4,0.6-6.1
				C606.6,211.6,604.3,211.6,604.1,213.1L604.1,213.1z"/>
		</g>
	</g>
	<g style="&st8;">
		<path style="&st2;" d="M616.9,216.4c-0.3,1.2-0.6,2.3-1,3.5c0.2-1.1,0.7-2.2,1.5-3c0.3,1.2,0.4,2.5,0.4,3.8c0-1.2,0.2-2.4,0.6-3.5
			c0.2,1.1,0.3,2.3,0.2,3.4c0.1-1.2,0.4-2.4,1-3.4c0.1,1.1,0.2,2.3,0.1,3.4"/>
		<g>
			<path style="&st5;" d="M615.8,216.1c-0.3,1.2-0.6,2.3-1,3.5c0.7,0.2,1.5,0.4,2.2,0.6c0.2-1,0.5-1.8,1.2-2.5
				c-0.6-0.2-1.3-0.3-1.9-0.5c0.3,1.1,0.4,2.3,0.3,3.5c-0.1,1.5,2.2,1.5,2.3,0c0.1-1.1,0.2-2.2,0.5-3.2c-0.7,0-1.5,0-2.2,0
				c0.2,1,0.2,2.1,0.2,3.1c0,1.5,2.2,1.4,2.3,0c0.1-1,0.4-2,0.8-2.9c-0.7-0.2-1.4-0.4-2.1-0.6c0.1,1.1,0.2,2.3,0.1,3.4
				c-0.1,1.5,2.2,1.5,2.3,0c0.1-1.1,0-2.3-0.1-3.4c-0.1-1-1.5-1.6-2.1-0.6c-0.7,1.3-1.1,2.6-1.2,4c0.8,0,1.5,0,2.3,0
				c0-1.3-0.1-2.5-0.3-3.7c-0.2-1.2-1.9-1-2.2,0c-0.3,1.2-0.5,2.5-0.6,3.8c0.8,0,1.5,0,2.3,0c0.1-1.4-0.1-2.7-0.4-4.1
				c-0.2-0.8-1.3-1.1-1.9-0.5c-1,1-1.6,2.1-1.8,3.5c-0.2,1.4,1.7,2,2.2,0.6c0.4-1.2,0.7-2.3,1-3.5
				C618.4,215.2,616.2,214.6,615.8,216.1L615.8,216.1z"/>
		</g>
	</g>
	<g style="&st8;">
		<path style="&st2;" d="M628.4,218.1c0.1,1.8-0.1,3.6-0.4,5.3c0.5-1.1,1-2.2,1.6-3.3c0.3,0.7,0.5,1.5,0.4,2.2
			c-0.1-1.1,0-2.3,0.3-3.4c0.1,1.2,0.1,2.5,0.1,3.7c0.2-0.7,0.5-1.4,1.1-1.9c0.2,0.7,0.3,1.4,0.3,2.1c0-0.3,0.1-0.6,0.3-0.9"/>
		<g>
			<path style="&st5;" d="M627.3,218.1c0.1,1.7,0,3.3-0.3,5c-0.2,1.2,1.5,2.1,2.1,0.9c0.5-1.1,1-2.2,1.6-3.3c-0.7,0-1.3,0-2,0
				c0.2,0.5,0.3,1.1,0.3,1.6c0.8,0,1.5,0,2.3,0c-0.1-1.1,0-2.1,0.3-3.1c-0.7-0.1-1.5-0.2-2.2-0.3c0.1,1.2,0.1,2.5,0.1,3.7
				c0,1.3,1.9,1.5,2.2,0.3c0.1-0.6,0.4-1,0.8-1.4c-0.6-0.2-1.3-0.3-1.9-0.5c0.1,0.6,0.2,1.2,0.2,1.8c0.1,1.5,2.2,1.5,2.3,0
				c0-0.1,0.1-0.2,0.1-0.3c0.8-1.3-1.2-2.4-2-1.1c-0.3,0.5-0.4,0.9-0.4,1.5c0.8,0,1.5,0,2.3,0c0-0.8-0.2-1.6-0.3-2.4
				c-0.2-0.8-1.3-1.1-1.9-0.5c-0.7,0.7-1.1,1.5-1.4,2.4c0.7,0.1,1.5,0.2,2.2,0.3c0-1.2,0-2.5-0.1-3.7c-0.1-1.2-1.9-1.6-2.2-0.3
				c-0.3,1.2-0.4,2.4-0.3,3.7c0.1,1.4,2.2,1.5,2.3,0c0-1-0.2-1.9-0.6-2.8c-0.3-0.8-1.6-0.7-2,0c-0.5,1.1-1,2.2-1.6,3.3
				c0.7,0.3,1.4,0.6,2.1,0.9c0.3-1.9,0.5-3.7,0.4-5.6C629.5,216.7,627.3,216.7,627.3,218.1L627.3,218.1z"/>
		</g>
	</g>
	<g>
		<path style="&st5;" d="M556.7,380c-11.4-4.4-22.7-9-34.2-13.1c-3.1-1.1-5.6,0.5-8.6,1.6c-19.3,7-38.6,14-57.9,20.9
			c-30.2,10.9-60.4,21.9-90.6,32.8c-28.8,10.4-57.6,20.8-86.3,31.2c-9.8,3.6-19.6,7.1-29.5,10.7c-4.5,1.6-10.1,2.7-14.2,5.2
			c-0.2,0.1-0.4,0.2-0.6,0.2c-1.5,0.5-0.1,0.9,0.8,0.6c38.9-14.1,77.8-28.2,116.7-42.2c52.2-18.9,104.4-37.8,156.6-56.7
			c2.9-1,5.7-2.1,8.6-3.1c0.7-0.3,1.5-0.5,2.2-0.8c1.1-0.6,0.4,0.3-0.5,0c11.6,5.1,23.9,9.1,35.8,13.7
			C555.4,381.1,557.4,380.2,556.7,380L556.7,380z"/>
	</g>
	<g style="&st8;">
		<path style="&st2;" d="M641.5,221.1c-0.5,1.4-0.8,2.8-0.9,4.2c0.2-0.8,0.5-1.6,0.7-2.4c0.1-0.4,0.3-0.8,0.6-0.9
			c0.3-0.1,0.7,0.2,0.8,0.6c0.1,0.3,0,0.7-0.1,1.1c0-0.9,0.1-1.9,0.3-2.8c0.1,1.3,0,2.7-0.1,4c0.5-0.9,1.1-1.7,1.6-2.6
			c0.2,0.8,0.2,1.6,0.1,2.4c0,0.1,0,0.2-0.1,0.2c-0.1,0,0-0.2,0-0.1"/>
		<g>
			<path style="&st5;" d="M640.4,220.8c-0.5,1.5-0.8,3-0.9,4.5c-0.1,1.3,1.9,1.5,2.2,0.3c0.2-0.6,0.3-1.1,0.5-1.7
				c0-0.1,0.2-0.5,0.2-0.7c0.1-0.2,0-0.3-0.4-0.1c-0.3-0.1-0.5,0-0.5,0.3c0.7,0.1,1.5,0.2,2.2,0.3c0-0.9,0.1-1.7,0.2-2.5
				c-0.7-0.1-1.5-0.2-2.2-0.3c0,1.4,0,2.7-0.1,4c-0.1,1.2,1.6,1.4,2.1,0.6c0.5-0.9,1.1-1.7,1.6-2.6c-0.7-0.1-1.4-0.2-2.1-0.3
				c0.1,0.6,0.2,1.3,0.1,1.9c0.2-0.2,0.3-0.5,0.5-0.7c0,0-0.1,0-0.1,0.1c0.5,0.1,0.9,0.1,1.4,0.2c0,0,0,0,0,0
				c0.1,0.4,0.2,0.7,0.3,1.1c0,0,0,0,0-0.1c-0.5,0.3-0.9,0.5-1.4,0.8c0,0,0,0,0,0c0.6,0.1,1.2-0.2,1.4-0.8c0.2-0.5-0.2-1.3-0.8-1.4
				c0,0,0,0,0,0c-0.6-0.1-1.2,0.1-1.4,0.8c0,0,0,0,0,0.1c-0.1,0.4,0,0.8,0.3,1.1c0,0,0,0,0,0c0.3,0.3,1,0.5,1.4,0.2
				c1.1-0.8,0.8-2.7,0.5-3.8c-0.2-1-1.6-1-2.1-0.3c-0.5,0.9-1.1,1.7-1.6,2.6c0.7,0.2,1.4,0.4,2.1,0.6c0.1-1.3,0.2-2.7,0.1-4
				c0-1.2-2-1.6-2.2-0.3c-0.2,1-0.3,2.1-0.3,3.1c0,1.2,2,1.6,2.2,0.3c0.1-0.7,0.2-1.5-0.2-2.1c-0.4-0.6-1.1-1-1.8-0.9
				c-1.7,0.3-1.9,2.8-2.3,4.1c0.7,0.1,1.5,0.2,2.2,0.3c0.1-1.4,0.4-2.7,0.9-3.9C643.1,220,640.9,219.5,640.4,220.8L640.4,220.8z"/>
		</g>
	</g>
	<polygon style="&st10;" points="520.5,324.6 520.8,361 234.8,463 234.5,423.3 	"/>
	<g>
		<path style="&st5;" d="M557.5,373.7c-11.5-4.2-23-8.5-34.6-12.7c-3.3-1.2-5.6,0.2-8.8,1.4c-19.2,6.9-38.4,13.8-57.6,20.8
			c-30.3,10.9-60.7,21.9-91,32.8c-28.7,10.3-57.3,20.7-86,31c-9.9,3.6-19.7,7.1-29.6,10.7c-4.6,1.7-10.2,2.8-14.5,5.2
			c-0.2,0.1-0.4,0.2-0.6,0.2c-1.5,0.5-0.1,0.8,0.8,0.5c11.7-4.2,23.5-8.5,35.2-12.7c27.2-9.8,54.3-19.6,81.5-29.4
			c30.6-11,61.3-22.1,91.9-33.1c21.6-7.8,43.3-15.6,64.9-23.4c3.6-1.3,7.5-3.3,11.2-4c-1.9,0.4-0.3,0.5,1.1,1
			c2.9,1.1,5.8,2.1,8.8,3.2c7.1,2.6,14.2,5.2,21.3,7.8c1.4,0.5,2.8,1,4.2,1.6C556.2,374.7,558.1,373.9,557.5,373.7L557.5,373.7z"/>
	</g>
	<g style="&st8;">
		<path style="&st2;" d="M619.9,234c-0.1,1.7-0.3,3.4-0.4,5.1c0.6-1.6,1.4-3.1,2.4-4.5c0.1,0.9,0.1,1.8-0.1,2.7
			c0.1-0.6,0.2-1.3,0.5-1.9c0,0.9,0,1.8-0.1,2.6c0.7-0.8,1.4-1.5,2.1-2.3c0.2,0.4,0.3,0.9,0.3,1.4"/>
		<g>
			<path style="&st5;" d="M618.8,234c-0.1,1.7-0.3,3.4-0.4,5.1c-0.1,1.3,1.8,1.4,2.2,0.3c0.5-1.5,1.3-2.9,2.3-4.2
				c-0.7-0.2-1.4-0.4-2.1-0.6c0.1,0.8,0.1,1.6-0.1,2.4c0.7,0.1,1.5,0.2,2.2,0.3c0.1-0.5,0.2-1.1,0.4-1.6c-0.7-0.1-1.5-0.2-2.2-0.3
				c0,0.9,0,1.8-0.1,2.6c0,1,1.3,1.5,1.9,0.8c0.7-0.8,1.4-1.5,2.1-2.3c-0.6-0.1-1.2-0.2-1.8-0.2c0.1,0.3,0.2,0.5,0.1,0.8
				c-0.1,1.5,2.2,1.5,2.3,0c0-0.7-0.1-1.3-0.4-1.9c-0.3-0.7-1.3-0.7-1.8-0.2c-0.7,0.8-1.4,1.5-2.1,2.3c0.6,0.3,1.3,0.5,1.9,0.8
				c0-0.9,0.1-1.8,0.1-2.6c0-1.4-1.8-1.4-2.2-0.3c-0.3,0.7-0.4,1.4-0.5,2.2c-0.1,1.3,2,1.6,2.2,0.3c0.2-1,0.3-2,0.1-3
				c-0.1-1.2-1.4-1.5-2.1-0.6c-1.1,1.4-1.9,3-2.6,4.8c0.7,0.1,1.5,0.2,2.2,0.3c0.1-1.7,0.3-3.4,0.4-5.1
				C621.2,232.5,618.9,232.5,618.8,234L618.8,234z"/>
		</g>
	</g>
	<g style="&st8;">
		<path style="&st2;" d="M631.6,236.4c-0.1,1.6-0.2,3.3-0.3,4.9c0.9-1.4,2-2.7,3.1-3.9c0.2,0.8,0.3,1.6,0.3,2.4c0-0.3,0-0.5,0.1-0.7
			c0,0.4,0,0.8,0,1.1c0-0.4,0.1-0.8,0.2-1.2c0,0.2,0,0.5,0,0.7"/>
		<g>
			<path style="&st5;" d="M630.5,236.4c-0.1,1.6-0.2,3.3-0.3,4.9c0,1.2,1.5,1.5,2.1,0.6c0.9-1.3,1.9-2.5,3-3.6
				c-0.6-0.2-1.3-0.3-1.9-0.5c0.2,0.7,0.2,1.4,0.2,2.1c0.8,0,1.5,0,2.3,0c0-0.2,0-0.3,0.1-0.4c-0.7-0.1-1.5-0.2-2.2-0.3
				c0,0.4,0,0.8,0,1.1c0,1.5,2.3,1.5,2.3,0c0-0.3,0.1-0.6,0.2-0.9c-0.7-0.1-1.5-0.2-2.2-0.3c0,0.2,0,0.5,0,0.7
				c0.1,1.5,2.3,1.5,2.3,0c0-0.2,0-0.5,0-0.7c-0.1-1.3-1.8-1.5-2.2-0.3c-0.2,0.5-0.3,1-0.3,1.5c0.8,0,1.5,0,2.3,0c0-0.4,0-0.8,0-1.1
				c0-1.3-1.8-1.5-2.2-0.3c-0.1,0.3-0.2,0.7-0.1,1c0,1.5,2.3,1.5,2.3,0c0-0.9-0.1-1.8-0.3-2.7c-0.2-0.8-1.3-1.1-1.9-0.5
				c-1.2,1.3-2.3,2.6-3.3,4.1c0.7,0.2,1.4,0.4,2.1,0.6c0-1.6,0.1-3.3,0.3-4.9C632.9,234.9,630.6,234.9,630.5,236.4L630.5,236.4z"/>
		</g>
	</g>
	
		<ellipse transform="matrix(0.9526 -0.3042 0.3042 0.9526 -25.0919 207.8792)" style="&st2;" cx="654.7" cy="184.5" rx="3.8" ry="1.7"/>
	<g style="&st8;">
		<path style="&st5;" d="M655.1,185.3c2.5-1.2,4.2-7.1,0.6-7.9c0,0.7,0,1.5,0,2.2c3-0.4,3.3-4.6,1-6.2c-2.7-1.8-5.2,1.7-3.5,4.1
			c2.1,2.9,6.1,0.9,6.9-1.9c1-3.4-1.1-7-4.8-6.4c-1.4,0.2-0.8,2.4,0.6,2.2c3.4-0.6,2.5,5.6-0.8,6.1c-1.1,0.2-1,2,0,2.2
			c1.4,0.3-0.6,3.5-1.2,3.8C652.6,184,653.8,185.9,655.1,185.3L655.1,185.3z"/>
	</g>
	<polygon style="&st28;" points="235.3,491 558.5,364.3 557.2,380.1 235.7,509.8 	"/>
	<g>
		<path style="&st5;" d="M556.9,380c-10.6,4.3-21.2,8.6-31.9,12.9c-25.7,10.4-51.3,20.8-77,31.1c-30.9,12.5-61.8,25-92.7,37.5
			c-26.7,10.8-53.5,21.6-80.2,32.4c-8.9,3.6-17.7,7.2-26.6,10.8c-2.8,1.1-5.5,2.2-8.3,3.4c-1,0.4-3.6,0.9-4.3,1.8
			c-0.1,0.1-0.4,0.2-0.5,0.2c0.5,0.1,1,0.1,1.5,0.2c-0.4-25.5-0.9-51-1.3-76.4c-0.1-3.7-0.1-7.4-0.2-11.2c-0.3,0.3-0.6,0.6-0.9,0.9
			c11.3-3.9,22.6-7.7,33.9-11.6c27.1-9.3,54.2-18.5,81.3-27.8c32.8-11.2,65.6-22.4,98.5-33.6c28.5-9.7,57-19.5,85.6-29.2
			c9.3-3.2,18.6-6.4,27.9-9.5c4.3-1.5,9.3-2.5,13.4-4.6c0.2-0.1,0.4-0.1,0.6-0.2c1.3-0.4,1-1.6-0.3-1.2
			c-11.3,3.9-22.6,7.7-33.9,11.6c-27.1,9.3-54.2,18.5-81.3,27.8c-32.8,11.2-65.6,22.4-98.5,33.6c-28.5,9.7-57,19.5-85.6,29.2
			c-9.3,3.2-18.6,6.4-27.9,9.5c-4.3,1.5-9.3,2.5-13.4,4.6c-0.2,0.1-0.4,0.1-0.6,0.2c-0.4,0.1-0.9,0.4-0.9,0.9
			c0.4,25.5,0.9,51,1.3,76.4c0.1,3.7,0.1,7.4,0.2,11.2c0,0.6,1.3,0.3,1.5,0.2c10.6-4.3,21.2-8.6,31.9-12.9
			c25.7-10.4,51.3-20.8,77-31.1c30.9-12.5,61.8-25,92.7-37.5c26.7-10.8,53.5-21.6,80.2-32.4c8.9-3.6,17.7-7.2,26.6-10.8
			c3.8-1.6,9.2-2.7,12.6-5.1c0.1-0.1,0.4-0.2,0.5-0.2C559.2,380.4,557.9,379.6,556.9,380L556.9,380z"/>
	</g>
	<polygon style="&st42;" points="559.3,363.5 520.3,349.5 234.9,449.3 235.3,491 	"/>
	<path style="&st3;" d="M227,449.7c0,0-6.8,21.9,1.5,34.7c9.8,23.4,12.1,17.4,24.2,21.9c12.1,4.5,37.6-10.8,37.6-10.8
		s44.7-17.9,56.8-21.3s22.8-14.2,36-16.7c14.5-2.2,64.3-25.9,90.8-35.5c11.1-4,45-19,71-29c17.4-6.7,13-17.8,13-17.8l1.5,15.9
		c0,0-275.7,117.6-290.8,122.9c-15.1,5.3-64.2,16.6-80.8,16.6s-59.7,3-72.5-9.1c-12.8-12.1-7.6-32.5-0.8-42.3
		c6.8-9.8,12.8-19.6,12.1-24.2c0,0,22.1,5.4,46.8,4.5C198.5,458.7,227,449.7,227,449.7z"/>
	<polyline style="&st27;" points="234.9,431.4 256.1,418.4 235.8,438 261.4,422.9 240.2,442.6 271.2,422.2 256.1,439.5 275,428.2 
		257.6,444.8 294.6,435 259.5,454.3 288.5,451.4 241.7,466.7 275.7,459.2 250,469.8 256.8,472 235.1,478.7 	"/>
	<polygon style="&st28;" points="234.6,447.5 244.4,442.2 238.3,450.5 249.7,442.9 242.1,452 254.9,446.7 241.8,454.3 256.4,450.5 
		242.9,458 252.6,458.7 234.9,466.6 	"/>
	<g>
		<path style="&st5;" d="M270.8,405.3c-5.8,1.9-11.7,3.8-17.6,5.6c-7.3,2.3-15.9,6-23.6,6.2c-0.2,0-2,0.3-1.8,0.7
			c2.4,3.9,1.4,11,1.2,15.3c-0.3,6.2-1,12-3.4,17.8c-2.5,6.2-1.6,13.2-1.4,19.7c0.3,8.5,1.9,17.7,7.1,24.8
			c5.6,7.5,17.9,12.2,27.1,11.8c7.1-0.2,13.8-2.7,20.2-5.7c9.2-4.3,18.4-8.5,27.8-12.4c9.4-3.9,19-7.6,28.7-10.6
			c6.7-2.1,13.1-4.2,19.5-7.2c7.1-3.4,13.9-7.4,21-10.8c4.1-2,8.1-2.7,12.4-3.9c12-3.4,23.5-8.7,35-13.4
			c17.9-7.4,35.7-15.1,53.6-22.5c19.5-8.1,39.1-15.9,58.9-23.3c6.3-2.4,12.9-4.6,18.1-9c1.9-1.7,4.6-4.3,4.7-7.1
			c0-0.3-2.2,0-2.2,0.6c-0.1,2.8-2.9,5.4-4.9,7c-5.5,4.5-12.7,6.6-19.3,9.1c-16.2,6.1-32.2,12.4-48.2,19
			c-30.3,12.5-60.1,26.7-91,37.4c-3.4,1.2-6.6,1.9-10.1,2.7c-4.8,1-9.4,3.8-13.6,6c-6.8,3.6-13.6,7.3-20.7,10.4
			c-6.9,3-14.4,4.7-21.5,7.2c-17.5,6.1-34.2,13.9-51.2,21.5c-8.1,3.6-16.9,5.7-25.6,2.9c-4.5-1.5-10.1-3.8-13.6-7
			c-6.3-5.6-8.8-14.9-9.7-22.9c-0.8-7.6-1.9-17.3,1-24.5c2.2-5.5,3-10.9,3.3-16.8c0.3-4.6,1.4-12.3-1.1-16.5
			c-0.6,0.2-1.2,0.5-1.8,0.7c7.7-0.2,15.9-3.6,23.2-5.8c6.8-2.1,13.5-4.2,20.2-6.4C273,405.3,271.6,405,270.8,405.3L270.8,405.3z"/>
	</g>
	<g>
		<path style="&st5;" d="M95.7,406.8c10.2,10.5,20.5,22.8,26.4,36.3c4.1,9.3,3.8,18.6-2.2,27.1c-5.3,7.5-11,13.6-12.6,23
			c-1.7,10-0.5,21.5,6.9,29.1c5,5.1,11.7,7.2,18.6,8.1c18.8,2.3,38.3,1.7,57.1,1.1c19.4-0.7,38.2-5.1,56.9-10.3
			c11.4-3.2,23-6.4,34-10.7c10.2-4,20.2-8.5,30.3-12.8c23.5-9.9,47.1-19.9,70.6-29.8c30.1-12.7,60.2-25.4,90.3-38.1
			c29.3-12.4,58.7-24.8,88-37.2c21.7-9.2,43.4-18.3,65.1-27.5c5.8-2.4,11.6-4.9,17.4-7.3c2.2-0.9,4.1-1.6,5.9-3.1
			c11.3-9.3,20.8-21.1,29-33.2c7.1-10.5,13.3-21.7,18.4-33.4c1.5-3.4,2.7-6.4,5.5-9c3-2.8,5.8-5.8,8.4-9c3.7-4.3,7-8.9,9.9-13.8
			c2.9-4.7,5.6-9.6,7.4-14.8c0.4-1.2-1.8-1.3-2.1-0.3c-1.9,5.7-5,11.2-8.3,16.3c-3.3,5.1-7,10-11,14.5c-2.6,2.9-6.8,5.7-8.8,8.8
			c-1.7,2.5-2.6,5.9-3.8,8.7c-9.1,20.1-21.2,39.1-36.5,55.1c-3.4,3.5-8.1,8.8-11.8,10.5c-3.9,1.8-7.9,3.3-11.9,5
			c-46.3,19.6-92.6,39.1-139,58.7c-55.7,23.5-111.3,47-167,70.5c-14.5,6.1-29,12.3-43.5,18.4c-18.8,8-41.6,14-62.4,18.4
			c-18.6,4-37.3,4.3-56.3,4.2c-9.5-0.1-19.1-0.2-28.6-1.1c-8.4-0.8-16.6-3-22-10.1c-7.2-9.5-6.8-24.6-1.7-34.9
			c3.8-7.6,10.9-13,13.6-21.2c5.6-16.9-8.9-34.4-19-46.6c-3-3.6-6-7.1-9.3-10.5C97,405.1,94.9,406,95.7,406.8L95.7,406.8z"/>
	</g>
	<g>
		<path style="&st5;" d="M574.3,306.2c-2.1,2.9-3.4,6.5-4.6,9.8c-1.4,4.1-2.3,8.3-2.8,12.6c-0.7,5.4,0.1,10.8-0.4,16.1
			c-0.2,2.2-1.7,3.3-2.9,4.9c-1.4,1.9-2.5,4-3.5,6.2c-1.5,3.7-2.5,7.6-3.2,11.5c-0.8,4.7-1.1,9.5-0.8,14.3c0,0.8,2.2,0.3,2.2-0.6
			c-0.3-4.8,0.1-9.7,0.9-14.5c0.7-4.2,1.8-8.4,3.7-12.2c1.1-2.2,2.4-4.4,4.1-6.2c0.7-0.7,1.5-1.3,1.9-2.2c0.5-1.2-0.2-4-0.3-5.2
			c0-1.6-0.1-3.3,0-4.9c0.1-2.5,0.3-5,0.6-7.4c0.5-4,1.3-7.9,2.5-11.7c1.1-3.6,2.5-7.3,4.7-10.4C577,305.5,574.8,305.5,574.3,306.2
			L574.3,306.2z"/>
	</g>
	<g>
		<polygon style="&st2;" points="170.3,466.4 170.3,443.7 179.4,462.6 181.3,458.7 184.7,466.4 199,454.3 188.5,470.1 199,470.1 
			191.5,476.9 196,480.7 190.7,483 203.6,496.6 184.7,488.3 184.7,496.6 173.4,488.3 170.3,507.1 163.5,488.3 140.1,499.6 
			153.7,483 140.1,476.9 149.9,475.4 143.5,459.8 		"/>
		<g>
			<path style="&st5;" d="M171.5,466.3c0-7.6,0-15.1,0-22.7c-0.7,0.1-1.5,0.2-2.2,0.4c3,6.3,6,12.6,9.1,18.9
				c0.4,0.8,1.8,0.6,2.1-0.2c0.6-1.3,1.3-2.6,1.9-3.9c-0.7,0.1-1.4,0.1-2.1,0.2c1.1,2.6,2.3,5.1,3.4,7.7c0.3,0.7,1.3,0.6,1.8,0.2
				c4.8-4,9.6-8.1,14.4-12.1c-0.5-0.3-1.1-0.6-1.6-0.8c-3.5,5.3-7,10.6-10.6,15.9c-0.5,0.7,0.1,1.1,0.8,1.1c3.5,0,7,0,10.6,0
				c-0.2-0.4-0.4-0.9-0.6-1.3c-2.5,2.3-5,4.5-7.6,6.8c-0.4,0.3-0.6,0.8-0.1,1.1c1.5,1.3,3,2.5,4.5,3.8c0.1-0.4,0.2-0.9,0.4-1.3
				c-1.8,0.8-3.5,1.5-5.3,2.3c-0.4,0.2-0.9,0.7-0.5,1.1c4.3,4.5,8.6,9.1,12.8,13.6c0.5-0.4,1.1-0.8,1.6-1.2
				c-6.3-2.8-12.6-5.5-18.9-8.3c-0.5-0.2-1.7,0.1-1.7,0.8c0,2.8,0,5.5,0,8.3c0.7-0.2,1.3-0.5,2-0.7c-3.8-2.8-7.6-5.5-11.3-8.3
				c-0.6-0.4-1.8-0.1-2,0.7c-1,6.3-2,12.6-3,18.9c0.7-0.1,1.5-0.2,2.2-0.4c-2.3-6.3-4.5-12.6-6.8-18.9c-0.2-0.6-1.1-0.6-1.6-0.4
				c-7.8,3.8-15.6,7.6-23.4,11.3c0.5,0.3,0.9,0.7,1.4,1c4.5-5.5,9.1-11.1,13.6-16.6c0.3-0.4,0.2-0.9-0.3-1.1c-4.5-2-9.1-4-13.6-6
				c-0.2,0.5-0.5,1-0.7,1.6c3.3-0.5,6.5-1,9.8-1.5c0.4-0.1,1.5-0.5,1.2-1.1c-2.1-5.2-4.3-10.4-6.4-15.6c-0.6,0.3-1.1,0.7-1.7,1
				c8.9,2.2,17.9,4.4,26.8,6.5c1,0.2,2.6-1.2,1.3-1.5c-8.9-2.2-17.9-4.4-26.8-6.5c-0.5-0.1-2.1,0.2-1.7,1c2.1,5.2,4.3,10.4,6.4,15.6
				c0.4-0.4,0.8-0.7,1.2-1.1c-3.3,0.5-6.5,1-9.8,1.5c-0.7,0.1-1.9,1.1-0.7,1.6c3,1.3,6,2.7,9,4c1.4,0.6,2.9,1.3,4.3,1.9
				c0.7,0.3,0.2-1.3-0.1-0.8c-0.2,0.3-0.6,0.8-0.9,1.1c-2.8,2.3-5,6.2-7.3,8.9c-1.8,2.1-3.5,4.3-5.3,6.4c-0.8,0.9,0.7,1.3,1.4,1
				c7.8-3.8,15.6-7.6,23.4-11.3c-0.5-0.1-1.1-0.2-1.6-0.4c2.3,6.3,4.5,12.6,6.8,18.9c0.3,0.9,2.1,0.5,2.2-0.4c1-6.3,2-12.6,3-18.9
				c-0.7,0.2-1.3,0.5-2,0.7c3.8,2.8,7.6,5.5,11.3,8.3c0.5,0.4,2,0.1,2-0.7c0-2.8,0-5.5,0-8.3c-0.6,0.3-1.2,0.6-1.7,0.8
				c6.3,2.8,12.6,5.5,18.9,8.3c0.6,0.3,2.4-0.5,1.6-1.2c-4.3-4.5-8.6-9.1-12.8-13.6c-0.2,0.4-0.3,0.8-0.5,1.1
				c1.8-0.8,3.5-1.5,5.3-2.3c0.5-0.2,0.9-0.9,0.4-1.3c-1.5-1.3-3-2.5-4.5-3.8c0,0.4-0.1,0.8-0.1,1.1c2.5-2.3,5-4.5,7.6-6.8
				c0.7-0.6,0.2-1.3-0.6-1.3c-3.5,0-7,0-10.6,0c0.3,0.4,0.5,0.8,0.8,1.1c3.5-5.3,7-10.6,10.6-15.9c0.7-1.1-1-1.4-1.6-0.8
				c-4.8,4-9.6,8.1-14.4,12.1c0.6,0.1,1.2,0.1,1.8,0.2c-1.1-2.6-2.3-5.1-3.4-7.7c-0.4-0.9-1.8-0.6-2.1,0.2c-0.6,1.3-1.3,2.6-1.9,3.9
				c0.7-0.1,1.4-0.1,2.1-0.2c-3-6.3-6-12.6-9.1-18.9c-0.4-0.8-2.2-0.6-2.2,0.4c0,7.6,0,15.1,0,22.7
				C169.2,467.6,171.5,467.3,171.5,466.3z"/>
		</g>
	</g>
	<g>
		<polygon style="&st16;" points="174.2,471.9 174.2,461.1 178.5,470.1 179.4,468.2 181,471.9 187.8,466.1 182.8,473.7 187.8,473.7 
			184.2,476.9 186.4,478.7 183.9,479.8 190,486.2 181,482.3 181,486.2 175.6,482.3 168.9,491.3 170.9,482.3 159.8,487.7 
			166.2,479.8 159.8,476.9 164.4,476.2 161.4,468.7 		"/>
		<g>
			<path style="&st5;" d="M175.2,471.6c0-3.6,0-7.2,0-10.8c-0.7,0.2-1.5,0.4-2.2,0.6c1.4,3,2.9,6,4.3,9c0.4,0.7,1.9,0.1,2.2-0.4
				c0.3-0.6,0.6-1.2,0.9-1.9c-0.7,0.1-1.5,0.3-2.2,0.4c0.5,1.2,1.1,2.4,1.6,3.7c0.3,0.6,1.6,0.2,2-0.1c2.3-1.9,4.6-3.8,6.8-5.8
				c-0.6,0-1.3-0.1-1.9-0.1c-1.7,2.5-3.4,5-5,7.6c-0.3,0.4,0.2,0.6,0.6,0.6c1,0,4.7,0.2,4.6-0.3c-0.1-0.5-3.1,2.3-3.6,2.8
				c-0.1,0.1-0.4,0.4-0.2,0.6c0.7,0.6,1.4,1.2,2.2,1.8c0.2-0.3,0.4-0.5,0.6-0.8c-0.8,0.4-1.7,0.7-2.5,1.1c-0.2,0.1-0.9,0.5-0.6,0.8
				c2,2.2,4.1,4.3,6.1,6.5c0.6-0.3,1.3-0.6,1.9-0.9c-3-1.3-6-2.6-9-4c-0.5-0.2-2,0.1-2,0.8c0,1.3,0,2.6,0,4c0.7-0.2,1.4-0.5,2.1-0.7
				c-1.8-1.3-3.6-2.6-5.4-4c-0.5-0.4-1.6-0.1-2,0.4c-2.2,3-4.5,6-6.7,9c0.7,0,1.4-0.1,2.1-0.1c0.7-3,1.4-6,2.1-9
				c0.2-0.7-1.3-0.4-1.5-0.3c-3.7,1.8-7.4,3.6-11.1,5.4c0.5,0.1,1,0.3,1.4,0.4c2.2-2.6,4.3-5.3,6.5-7.9c0.2-0.2,0.1-0.4-0.1-0.5
				c-2.2-1-4.3-1.9-6.5-2.9c-0.3,0.4-0.7,0.7-1,1.1c1.6-0.2,3.1-0.5,4.7-0.7c0.2,0,1.5-0.4,1.3-0.9c-1-2.5-2-5-3.1-7.4
				c-0.6,0.3-1.2,0.6-1.8,0.9c4.3,1,8.5,2.1,12.8,3.1c0.6,0.2,2.6-0.8,1.4-1.1c-4.3-1-8.5-2.1-12.8-3.1c-0.3-0.1-2,0.2-1.8,0.9
				c1,2.5,2,5,3.1,7.4c0.4-0.3,0.8-0.6,1.3-0.9c-1.6,0.2-3.1,0.5-4.7,0.7c-0.3,0-1.9,0.7-1,1.1c1.4,0.6,2.7,1.2,4.1,1.8
				c0.3,0.2,2.1,0.7,2.2,1c-0.2-0.5-0.4-0.2-0.6,0.3c-1,2.5-4.1,5.1-5.9,7.2c-0.6,0.7,1.2,0.5,1.4,0.4c3.7-1.8,7.4-3.6,11.1-5.4
				c-0.5-0.1-1-0.2-1.5-0.3c-0.7,3-1.4,6-2.1,9c-0.2,0.9,1.8,0.2,2.1-0.1c2.2-3,4.5-6,6.7-9c-0.7,0.1-1.4,0.3-2,0.4
				c1.8,1.3,3.6,2.6,5.4,4c0.5,0.4,2.1,0.1,2.1-0.7c0-1.3,0-2.6,0-4c-0.7,0.3-1.3,0.5-2,0.8c3,1.3,6,2.6,9,4
				c0.4,0.2,2.5-0.3,1.9-0.9c-2-2.2-4.1-4.3-6.1-6.5c-0.2,0.3-0.4,0.5-0.6,0.8c0.8-0.4,1.7-0.7,2.5-1.1c0.2-0.1,1-0.5,0.6-0.8
				c-1.1-0.9-1.9-1.2-1.7-1.7c0.2-0.9,2.3-2.1,3-2.7c0.5-0.4,0.1-0.7-0.4-0.7c-1.1,0-2.4-0.2-3.4,0c-1.7,0.3-1.2,0.5-0.2-0.6
				c1.6-1.9,2.9-4.3,4.2-6.4c0.6-0.9-1.6-0.4-1.9-0.1c-2.3,1.9-4.6,3.8-6.8,5.8c0.7,0,1.3-0.1,2-0.1c-0.5-1.2-1.1-2.4-1.6-3.7
				c-0.3-0.8-1.9-0.1-2.2,0.4c-0.3,0.6-0.6,1.2-0.9,1.9c0.7-0.1,1.5-0.3,2.2-0.4c-1.4-3-2.9-6-4.3-9c-0.3-0.7-2.2-0.2-2.2,0.6
				c0,3.6,0,7.2,0,10.8C173.1,472.8,175.2,472.4,175.2,471.6z"/>
		</g>
	</g>
	<g style="&st8;">
		<path style="&st2;" d="M658.2,194.3c-2.4,0.1-4.8,0.4-7.2,0.9c1.4-0.1,2.8-0.2,4.1-0.3c0.6,0,1.3-0.1,1.6,0.3
			c0.2,0.3-0.2,0.8-0.7,1s-1.2,0.3-1.8,0.4c1.6-0.4,3.1-0.7,4.7-0.9c-2.2,0.6-5.5,1.2-7.7,1.7c1.5,0.2,4.1,0.2,5.6,0.4"/>
		<g>
			<path style="&st5;" d="M658.2,192.8c-2.6,0.1-5.1,0.4-7.6,0.9c-1.6,0.3-1.3,3,0.4,2.9c0.9-0.1,1.8-0.1,2.7-0.2
				c0.5,0,1.8-0.4,2.3-0.1c-0.2-0.3-0.5-0.6-0.7-0.9c0,0.1,0,0.2,0.1,0.3c0-0.4,0.1-0.8,0.1-1.1c-0.2,0.3-1,0.4-1.3,0.4
				c0.1,1,0.3,1.9,0.4,2.9c1.4-0.4,2.9-0.7,4.3-0.8c-0.1-1-0.3-1.9-0.4-2.9c-2.5,0.7-5.1,1.2-7.7,1.7c-1.8,0.3-1.1,2.7,0.4,2.9
				c1.9,0.2,3.8,0.2,5.6,0.4c1.9,0.2,1.9-2.8,0-3c-1.9-0.2-3.8-0.2-5.6-0.4c0.1,1,0.3,1.9,0.4,2.9c2.6-0.5,5.2-1,7.7-1.7
				c1.6-0.4,1.3-3.1-0.4-2.9c-1.7,0.2-3.4,0.5-5.1,0.9c-1.6,0.4-1.3,3.1,0.4,2.9c1.6-0.2,5-1.1,3.8-3.4c-0.5-1-1.5-1.2-2.5-1.2
				c-1.5,0-3.1,0.2-4.6,0.3c0.1,1,0.3,1.9,0.4,2.9c2.3-0.5,4.5-0.8,6.8-0.8C660.1,195.7,660.1,192.7,658.2,192.8L658.2,192.8z"/>
		</g>
	</g>
	<line style="&st36;" x1="521.1" y1="360.1" x2="520.7" y2="325.8"/>
</g>
</svg>
