<?xml version="1.0" encoding="utf-8"?>
<!-- Generator: Adobe Illustrator 22.0.1, SVG Export Plug-In . SVG Version: 6.00 Build 0)  -->
<!DOCTYPE svg PUBLIC "-//W3C//DTD SVG 1.1//EN" "http://www.w3.org/Graphics/SVG/1.1/DTD/svg11.dtd" [
	<!ENTITY st0 "opacity:0.67;">
	<!ENTITY st1 "fill:#E6EDA8;">
	<!ENTITY st2 "fill:#FFFFFF;">
	<!ENTITY st3 "fill:#EEF2F9;">
	<!ENTITY st4 "opacity:0.35;fill:#D0DAED;">
	<!ENTITY st5 "fill:#727F9B;">
	<!ENTITY st6 "fill:#EDF2F9;">
	<!ENTITY st7 "fill:none;stroke:#727F9B;stroke-width:2.0175;stroke-linecap:round;stroke-linejoin:round;stroke-miterlimit:10;">
	<!ENTITY st8 "opacity:0.44;">
	<!ENTITY st9 "fill:#BFCADB;">
	<!ENTITY st10 "opacity:0.67;fill:#E6EDA8;">
	<!ENTITY st11 "opacity:0.75;fill:#5CA8E0;">
	<!ENTITY st12 "opacity:0.67;fill:#B6E7FF;">
	<!ENTITY st13 "fill:#B6E7FF;">
	<!ENTITY st14 "opacity:0.75;">
	<!ENTITY st15 "fill:#5CA8E0;">
	<!ENTITY st16 "fill:#F5C5A5;">
	<!ENTITY st17 "opacity:0.35;">
	<!ENTITY st18 "fill:none;stroke:#727F9B;stroke-width:2;stroke-linecap:round;stroke-linejoin:round;stroke-miterlimit:10;">
	<!ENTITY st19 "opacity:0.29;fill:#5CA8E0;stroke:#5E6B8D;stroke-miterlimit:10;">
	<!ENTITY st20 "opacity:0.72;fill:#FFFFFF;stroke:#5E6B8D;stroke-miterlimit:10;">
	<!ENTITY st21 "opacity:0.75;fill:#5CA8E0;stroke:#5E6B8D;stroke-miterlimit:10;">
	<!ENTITY st22 "opacity:0.36;fill:#5CA8E0;">
	<!ENTITY st23 "opacity:0.48;fill:#5CA8E0;">
	<!ENTITY st24 "fill:#C7E2F4;">
	<!ENTITY st25 "fill:none;stroke:#727F9B;stroke-width:1.5106;stroke-linecap:round;stroke-linejoin:round;stroke-miterlimit:10;">
	<!ENTITY st26 "opacity:0.29;fill:#5CA8E0;stroke:#5E6B8D;stroke-width:0.7553;stroke-miterlimit:10;">
	<!ENTITY st27 "opacity:0.72;fill:#FFFFFF;stroke:#5E6B8D;stroke-width:0.7553;stroke-miterlimit:10;">
	<!ENTITY st28 "opacity:0.75;fill:#5CA8E0;stroke:#5E6B8D;stroke-width:0.7553;stroke-miterlimit:10;">
	<!ENTITY st29 "fill:#232440;">
	<!ENTITY st30 "fill:none;stroke:#727F9B;stroke-width:0.8607;stroke-linecap:round;stroke-linejoin:round;stroke-miterlimit:10;">
	<!ENTITY st31 "opacity:0.29;fill:#5CA8E0;stroke:#5E6B8D;stroke-width:0.4304;stroke-miterlimit:10;">
	<!ENTITY st32 "opacity:0.72;fill:#FFFFFF;stroke:#5E6B8D;stroke-width:0.4304;stroke-miterlimit:10;">
	<!ENTITY st33 "opacity:0.75;fill:#5CA8E0;stroke:#5E6B8D;stroke-width:0.4304;stroke-miterlimit:10;">
	<!ENTITY st34 "fill:#6F7878;">
	<!ENTITY st35 "opacity:0.59;fill:#C7E2F4;">
	<!ENTITY st36 "fill:none;stroke:#727F9B;stroke-linecap:round;stroke-linejoin:round;stroke-miterlimit:10;">
	<!ENTITY st37 "opacity:0.72;fill:#FFFFFF;stroke:#5E6B8D;stroke-width:0.6369;stroke-miterlimit:10;">
	<!ENTITY st38 "opacity:0.75;fill:#5CA8E0;stroke:#5E6B8D;stroke-width:0.3773;stroke-miterlimit:10;">
	<!ENTITY st39 "opacity:0.61;">
	<!ENTITY st40 "opacity:0.56;fill:#5CA8E0;">
	<!ENTITY st41 "opacity:0.65;fill:#C7E2F4;">
	<!ENTITY st42 "opacity:0.4;fill:#5CA8E0;stroke:#5E6B8D;stroke-width:0.7553;stroke-linejoin:round;stroke-miterlimit:10;">
]>
<svg version="1.1" id="Layer_1" xmlns="http://www.w3.org/2000/svg" xmlns:xlink="http://www.w3.org/1999/xlink" x="0px" y="0px"
	 viewBox="0 0 800 768" style="enable-background:new 0 0 800 768;" xml:space="preserve">
<g>
	<path style="&st22;" d="M733.4,328.5c-3.6-8-26.7-11.1-33.9-16.4c-8.1-5.8-24.4,0.5-34.9,2c-1.6,0.2-3.3,0.5-5,0.8
		c-6.6-1.6,16.5-5,9.6-4.2c-4.7-3.3-10-5.7-15.8-6.9c-4.5-0.5-9-1-13.5-1.5c-9.1,0.2-17.6,2.5-25.5,7.1c-12.8,5.8-15.6-8.5-28.5-2.9
		c-64,27.1-129.6,49.8-196.9,68c-61.3,16.6-123.1,31.1-183.7,50c-45.9,14.3-61.2,30.6-105.9,48.1c-12,4.7-33.7,11.2-39.9,23
		c-5.2,10-7.2,20.2-5.5,31.4c1.6,10.3,6.1,20.8,14.4,27.9c10.1,8.7,32.7,10.6,46,13.8c32.5,7.7,32.3-5.4,60.9,4.6
		c20.7,7.2,32.3,0.7,48.3-0.8c3.2-0.3,6.4-0.7,9.6-1.1c1.1-0.1,2.2-0.2,3.3-0.4c6.6-0.9,13.2-2,19.7-3.6
		c10.7-2.7,20.6-7.8,30.7-12.1c6-2.6,11.9-5.2,17.8-7.7c4.4-1.1,8.7-2.8,12.8-5.2c1.1-0.6,2.2-1.2,3.3-1.8c7.3-3.2,14.7-6.5,22-9.8
		c5.2-1.5,10.5-2.7,15.9-3.7c9.5-1.3,19.1-2.5,28.5-4.3c14-2.7,26.7-7.9,39.7-13.6c11.6-5.1,23.1-20.8,34.1-26.7
		c5.6-3,11.2-5.8,16.9-8.5c16.7-5,33.2-10.4,49.3-16.8c5.1-1.6,10.2-3.4,15.3-5.3c19.6-4.8,44.1-5.5,63.5-11
		c24.8-7.1,38.7-25.9,62.1-36.4c25.6-11.5,31.5-14.1,52.6-32.2c2.6-3.4,5.2-6.7,7.8-10.1c1.6-3.9,3.3-7.9,4.9-11.8
		C736.3,339.7,737.9,338.5,733.4,328.5z"/>
	<path style="&st23;" d="M632.8,352.1c-3-6.5-5.4-9.1-11.3-13.3c-6.6-4.8-12.6-11.8-21.1-10.6c-1.3,0.2-2.7,0.4-4.1,0.6
		c-5.4-1.3-11-1.6-16.6-0.9c-3.8-2.7-8.2-4.7-12.9-5.6c-3.7-0.4-7.3-0.8-11-1.2c-7.4,0.1-14.4,2.1-20.7,5.8
		c-10.4,4.8-20.9,9.4-31.4,14c-52.2,22.1-105.6,40.6-160.5,55.4c-49.9,13.5-100.3,25.4-149.7,40.7c-37.4,11.7-49.9,24.9-86.3,39.2
		c-9.8,3.9-27.5,9.2-32.5,18.8c-4.3,8.1-5.9,16.5-4.5,25.6c1.3,8.4,5,17,11.7,22.8c8.2,7.1,26.6,8.6,37.5,11.2
		c26.5,6.3,26.3-4.4,49.6,3.7c16.8,5.9,26.3,0.6,39.3-0.7c2.6-0.3,5.2-0.5,7.8-0.9c0.9-0.1,1.8-0.2,2.7-0.3c5.4-0.7,10.8-1.6,16.1-3
		c8.7-2.2,16.8-6.3,25-9.9c4.9-2.1,9.7-4.2,14.5-6.3c3.6-0.9,7.1-2.3,10.4-4.2c0.9-0.5,1.8-1,2.7-1.5c6-2.6,12-5.3,17.9-8
		c4.2-1.2,8.5-2.2,12.9-3c7.8-1,15.6-2,23.3-3.5c11.4-2.2,21.8-6.4,32.4-11.1c9.4-4.1,18.8-16.9,27.8-21.8c4.5-2.4,9.1-4.7,13.8-6.9
		c13.6-4.1,27-8.5,40.2-13.7c4.2-1.3,8.3-2.7,12.4-4.3c15.9-3.9,31.1-8.6,46.8-13.1c20.2-5.8,31.5-21.1,50.6-29.7
		c20.8-9.4,39.5-13.9,56.7-28.7c2.1-2.7,4.2-5.5,6.3-8.2c1.3-3.2,2.7-6.4,4-9.6C635.2,361.2,636.5,360.3,632.8,352.1z"/>
	<path style="&st23;" d="M709.1,335.7c-2.4-5.2-4.4-7.3-9.1-10.7c-5.3-3.8-10.1-9.5-16.9-8.5c-1.1,0.2-2.2,0.3-3.3,0.5
		c-4.3-1-8.9-1.3-13.3-0.8c-3.1-2.1-6.5-3.7-10.3-4.5c-2.9-0.3-5.9-0.7-8.8-1c-6,0.1-11.5,1.7-16.6,4.7c-8.4,3.8-16.8,7.5-25.2,11.2
		c-41.9,17.7-84.8,32.6-128.8,44.5c-40.1,10.8-80.5,20.3-120.1,32.7c-30,9.4-40,20-69.3,31.5c-7.9,3.1-22,7.4-26.1,15.1
		c-3.4,6.5-4.7,13.2-3.6,20.5c1,6.7,4,13.6,9.4,18.3c6.6,5.7,21.4,6.9,30.1,9c21.3,5.1,21.1-3.5,39.8,3c13.5,4.7,21.1,0.5,31.6-0.5
		c2.1-0.2,4.2-0.4,6.3-0.7c0.7-0.1,1.4-0.2,2.2-0.3c4.3-0.6,8.7-1.3,12.9-2.4c7-1.8,13.5-5.1,20.1-7.9c3.9-1.7,7.8-3.4,11.7-5.1
		c2.9-0.7,5.7-1.9,8.4-3.4c0.7-0.4,1.4-0.8,2.1-1.2c4.8-2.1,9.6-4.3,14.4-6.4c3.4-1,6.9-1.8,10.4-2.4c6.2-0.8,12.5-1.6,18.7-2.8
		c9.2-1.7,17.5-5.2,26-8.9c7.6-3.3,15.1-13.6,22.3-17.5c3.6-2,7.3-3.8,11.1-5.5c10.9-3.3,21.7-6.8,32.3-11c3.4-1.1,6.7-2.2,10-3.4
		c12.8-3.1,24.9-6.9,37.6-10.5c16.2-4.6,25.3-16.9,40.6-23.8c16.7-7.5,31.7-11.2,45.5-23c1.7-2.2,3.4-4.4,5.1-6.6
		c1.1-2.6,2.1-5.1,3.2-7.7C711,343,712.1,342.3,709.1,335.7z"/>
	<g>
		<g>
			<path style="&st24;" d="M239.9,441.1c1.7,0,2.2-2.3,0.2-2.3C238.4,438.8,237.9,441.1,239.9,441.1L239.9,441.1z"/>
		</g>
		<polygon style="&st6;" points="662.5,218 701.5,228 668.5,237 663.5,238 		"/>
		<path style="&st2;" d="M96.9,407.8c0,0,30.2,31,29.5,49.1c-0.8,18.1-15.9,19.6-18.1,40c-2.3,20.4,7.6,30.2,19.6,33.2
			s57.4,2.6,71.8,1.5c29.5-2.3,80.8-20.4,80.8-20.4l365.9-154.5c0,0,31-23.4,51.4-74c21.5-19.3,28.4-40,28.4-40L96.9,407.8z"/>
		<path style="&st2;" d="M227.5,451.6c-49,14.6-87.2,7.9-100.5,5.3l-7.9-21.5L101,412c0,0,35.8,2.8,74.2,0.7
			c41.2-2.3,85.2-8.3,91.2-7.5c11.9,1.5-37,14.4-37,14.4L227.5,451.6z"/>
		<path style="&st3;" d="M497.6,359.8L601.8,322l95.9-38.5l-23.4,43.1l-25.7,28.7l-160.1,68c0,0-0.8-18.9-0.8-28.7
			c0-5.7,7-16.1,9.8-24.2C499.6,364.7,497.6,359.8,497.6,359.8z"/>
		<path style="&st4;" d="M654.3,274.1c0.4-2.6-74.8-20.4-74.8-20.4l-294,91.4l-135.8,40c0,0-7.9-2.6-17.4,0.8s-32.1,18.5-30.2,23.4
			c4.2,4.9,65.5,3.5,65.5,3.5l74.3-5.7l24.2-2.3l5.3,2.3L530,319.5C530,319.5,653.9,276.8,654.3,274.1z"/>
		<g>
			<path style="&st5;" d="M102.5,409.9c8.3-13.2,24.4-25.6,40.4-24.1c6.4,0.6,12.9-2.2,19-3.9c24.3-6.9,48.6-13.9,72.8-20.8
				c23.7-6.8,47.1-14.3,70.6-21.7c49.1-15.5,98.1-30.9,147.2-46.4c26.6-8.4,53.1-17.1,79.8-25.1c11.6-3.5,23.2-6.9,34.8-10.4
				c3.7-1.1,7.4-2.4,11.2-3.3c1.3-0.4-1.2-0.3,0.1,0c1.2,0.3,2.3,0.6,3.5,0.9c21.9,5.9,43.8,11.8,65.7,17.7c1.9,0.5,3.8,1,5.8,1.6
				c0.5,0.1,2.5-0.7,1.8-0.9c-19.8-5.4-39.7-10.7-59.5-16.1c-4.4-1.2-8.7-2.4-13.1-3.5c-1.5-0.4-2.7-0.9-4.1-0.7
				c-3.4,0.4-7.1,2.1-10.3,3.1c-6.2,1.8-12.4,3.7-18.5,5.5c-27.2,8.1-54.3,16.7-81.4,25.3c-50.2,15.8-100.3,31.6-150.5,47.4
				c-24.6,7.8-49.1,15.9-74,23c-24.6,7-49.3,14.1-73.9,21.1c-6.9,2-13.8,4.5-20.8,5.9c-2.9,0.6-5.6-0.1-8.5-0.2
				c-3.9-0.1-7.9,0.8-11.6,2.2c-7.9,3-15.1,8.2-21,14.2c-2.8,2.8-5.5,6-7.6,9.4C100.1,410.6,102.1,410.5,102.5,409.9L102.5,409.9z"
				/>
		</g>
		<g>
			<polygon style="&st2;" points="641.1,175.6 639.6,208.8 644.1,211.1 644.1,176.3 			"/>
			<g>
				<path style="&st5;" d="M640,175.7c-0.5,11.1-1,22.2-1.5,33.2c0,0.2,0,0.2,0.2,0.3c1.5,0.8,3,1.5,4.5,2.3c0.5,0.2,2-0.1,2-0.8
					c0-11.6,0-23.2,0-34.7c0-0.1-0.1-0.2-0.2-0.2c-1-0.3-2-0.5-3-0.8c-0.6-0.1-2.5,0.8-1.8,1c3.3,0.8,2.8,0.5,2.8,3.8
					c0,4.1,0,8.1,0,12.2c0,6.4,0,12.9,0,19.3c0.7-0.3,1.3-0.5,2-0.8c-2.8-1.4-4.2-1.1-4.2-3.7c-0.1-3.8,0.3-7.6,0.5-11.4
					c0.3-6.7,0.6-13.4,0.9-20.1C642.2,174.6,640,175.1,640,175.7z"/>
			</g>
		</g>
		<rect x="662.5" y="238" style="&st6;" width="5" height="17"/>
		<g>
			<path style="&st5;" d="M95.9,408.3c2.9,4.1,11.1,4.3,15.5,4.8c10.7,1.1,21.6,1.1,32.3,0.9c27.4-0.4,54.9-2.3,82.2-4.4
				c9.9-0.8,19.9-1.6,29.8-2.6c2.8-0.3,5.6-0.5,8.4-0.8c0.6-0.1,1.3-0.2,1.9-0.2c0.1,0,0.2-0.1,0.4,0c-1.5-0.2,0,0.5,0.8,0.9
				c4,2,8.1,0,12-1.3c3.8-1.2,7.5-2.5,11.3-3.7c10.7-3.5,21.4-7.1,32.1-10.7c67.2-22.4,134.4-45.1,201.4-68.2
				c34.5-11.9,68.9-23.8,103.2-36.1c7.5-2.7,15-5.4,22.5-8.1c2-0.7,4.8-1.1,5.8-3.2c0.6-1.2-0.1-2.9,0.5-4c1.4-2.8,7.4-3.6,10-4.6
				c16.5-5.8,33.3-10.5,49.9-15.9c2.7-0.9,5.6-1.7,7.8-3.5c4.5-3.9,6.7-10.8,1.6-15c-1.6-1.3-3.1-1.5-5-2c-4.7-1.1-9.3-2.2-14-3.4
				c-12.5-3-25.1-6-37.6-9.1c-2.5-0.6-5.6-1.9-8.2-2c-1.6,0-3.3,0.8-4.8,1.2c-23,6.6-46.1,13-68.9,20.2c-3,1-6.6,1.7-9.4,3.2
				c-0.9,0.5-1.2,0.6-1.8,1.4c-0.9,1.1-0.4,2.6-1,3.7c-1.3,2.2-2,1-4,2.1c-2.2,1.2-2.3,4.6-3.5,5.5c-0.8,0.6-2.3,0.7-3.2,1
				c-30.4,9.6-61,18.6-91.6,27.8c-51.4,15.5-102.8,30.8-154.2,46.2c-45.1,13.5-90.2,27-135.4,40.4c-12,3.6-24.1,7.2-36.1,10.7
				c-1.9,0.6-3.9,1.5-5.9,1.7c-3.4,0.4-6.4-2.2-9.7-1.8c-1,0.1-1.8,0.6-2.7,1.2c-2.3,1.5-2.4,3-5.1,2c-1.6-0.6-2.2-1.2-4.2-0.8
				c-2,0.5-4.1,1.6-5.9,2.6C105.2,388.4,89.4,397.6,95.9,408.3c0.5,0.9,2.6,0,2-1c-4.3-7.2,3.5-13.6,8.9-17.2
				c2.6-1.8,5.5-3.4,8.3-4.8c0.9-0.5,2.1-1.2,3.2-1.4c2.2-0.5,1.4-0.2,3.9,1c1.4,0.7,2,0.9,3.5,0.1c1.5-0.7,2.4-2.6,3.9-3.2
				c2.7-1.2,5.8,1,8.5,1.2c1.4,0.1,2.5,0,3.8-0.4c8.3-2.1,16.5-4.9,24.7-7.3c39.7-11.8,79.4-23.6,119.1-35.5
				c50.6-15.1,101.2-30.2,151.8-45.4c37.5-11.3,75.1-22.5,112.6-33.9c4.4-1.3,8.8-2.7,13.1-4.1c1.6-0.5,4-0.8,5.3-1.8
				c2.3-1.6,1-4.4,4.4-5.4c2.3-0.7,2.7,0.1,3.7-2.5c0.9-2.4,0.1-3.5,2.2-4.7c1.4-0.8,3.3-1.1,4.8-1.6c10.9-3.5,21.9-6.7,32.8-9.9
				c11.5-3.4,23-6.7,34.6-10c2.8-0.8,5.8-2,8.8-2.5c1.2-0.2-0.4-0.1,0.3-0.1c1.2,0.1,2.5,0.6,3.7,0.9c11.2,2.7,22.4,5.4,33.6,8.1
				c5.6,1.4,11.2,2.7,16.9,4.1c2.6,0.6,5.7,0.9,8.1,2c5.8,2.6,3.9,11.1-1.2,14.4c-3.6,2.3-8.6,3.1-12.6,4.3
				c-7.8,2.4-15.5,4.7-23.3,7.1c-4.9,1.6-9.8,3.2-14.6,4.8c-2.9,1-5.7,2-8.6,3c-2,0.7-5.2,1.2-6.9,2.6c-2.3,1.8-0.6,5.1-2.9,6.9
				c-2.4,1.9-7.4,2.7-10.3,3.7c-7.3,2.6-14.7,5.3-22,7.9c-16.5,5.9-33.1,11.7-49.6,17.5c-68.4,23.8-136.9,47.1-205.5,70.1
				c-24.3,8.2-48.7,16.3-73.1,24.4c-3.8,1.3-7.6,2.5-11.4,3.8c-1.5,0.5-3,1-4.5,1.5c-0.6,0.2-1.2,0.4-1.7,0.6
				c-3.8,0.9-3.9-0.6-6.6-1.1c-3.4-0.7-7.8,0.5-11.2,0.8c-22.6,2.1-45.2,3.9-67.9,5.2c-24.5,1.5-49.6,3.2-74.2,1
				c-4.2-0.4-13.3-0.3-16.1-4.3C97.3,406.5,95.2,407.3,95.9,408.3z"/>
		</g>
		<g>
			<polygon style="&st6;" points="600.3,205.8 653.2,217.1 653.2,258.6 599.5,245.8 			"/>
			<g>
				<path style="&st5;" d="M599.4,206.2c13.4,2.9,26.9,5.8,40.3,8.6c3.2,0.7,6.3,1.4,9.5,2c1.1,0.2,2.7,0.6,2.9,0.8
					c0.8,1.5,0,5.5,0,7.2c0,4.3,0,8.6,0,12.8c0,7.1,0,14.2,0,21.3c0.7-0.2,1.3-0.5,2-0.7c-13.3-3.2-26.6-6.4-39.9-9.5
					c-3.3-0.8-6.6-1.6-10-2.4c-0.8-0.2-3.6-0.8-3.6-0.8c-0.7-1,0.1-5.2,0.1-6.4c0.1-4.2,0.2-8.4,0.2-12.6c0.1-7,0.3-14,0.4-21
					c0-0.4-2.2-0.1-2.2,0.6c-0.3,13.3-0.5,26.7-0.8,40c0,0.1,0.1,0.1,0.2,0.2c17.9,4.3,35.8,8.6,53.6,12.8c0.5,0.1,2-0.1,2-0.7
					c0-13.8,0-27.7,0-41.5c0-0.1-0.1-0.1-0.2-0.2c-17.6-3.8-35.2-7.6-52.9-11.3C600.6,205.2,598.7,206.1,599.4,206.2z"/>
			</g>
		</g>
		<g>
			<polyline style="&st6;" points="661.5,184.6 663,219.4 646.4,215.6 648.6,186.9 			"/>
			<g>
				<path style="&st5;" d="M660.4,184.9c0.5,11.6,1,23.2,1.5,34.7c0.7-0.2,1.3-0.5,2-0.7c-4-0.9-8-1.8-12-2.7
					c-0.7-0.1-4.2-0.6-4.5-1c-0.2-0.2,0.3-2.9,0.3-3.4c0.7-8.4,1.3-16.8,2-25.3c0-0.3-2.1-0.1-2.2,0.6c-0.8,9.6-1.5,19.1-2.3,28.7
					c0,0.1,0.1,0.1,0.2,0.1c5.5,1.3,11.1,2.5,16.6,3.8c0.4,0.1,2-0.1,2-0.7c-0.5-11.6-1-23.2-1.5-34.7
					C662.6,183.9,660.4,184.3,660.4,184.9L660.4,184.9z"/>
			</g>
		</g>
		<g>
			<polygon style="&st6;" points="662.2,214.8 653.2,217.8 653.2,258.6 663,255.6 			"/>
			<g>
				<path style="&st5;" d="M662,214c-3,1-6,2-9.1,3c-0.4,0.1-0.9,0.4-0.9,0.9c0,13.6,0,27.2,0,40.8c0,0.7,0.8,0.9,1.3,0.7
					c3.3-1,6.5-2,9.8-3c0.3-0.1,0.9-0.4,0.9-0.9c-0.3-13.6-0.5-27.2-0.8-40.8c0-1.2-2.2-0.9-2.2,0.1c0.2,9.2,0.3,18.4,0.5,27.6
					c0.1,3.7-0.8,9,0.2,12.5c0.2,0.8-0.1,0.5,0.8-0.2c-0.7,0.5-2.2,0.7-3,0.9c-2.2,0.7-4.5,1.4-6.7,2.1c0.4,0.2,0.9,0.5,1.3,0.7
					c0-9.1,0-18.1,0-27.2c0-3.7,1-9.1,0-12.7c-0.1-0.3,0.2-1.5-0.4-0.5c-0.6,0.9,1.1-0.1,1.8-0.3c2.2-0.7,4.5-1.5,6.7-2.2
					C663.8,215.2,663.4,213.6,662,214z"/>
			</g>
		</g>
		<g>
			<polygon style="&st6;" points="612,202.4 599.9,205.4 653.5,217.5 662.6,214.5 			"/>
			<g>
				<path style="&st5;" d="M611.9,201.9c-4,1-8.1,2-12.1,3c-0.2,0-1.5,0.7-0.8,0.9c12.1,2.7,24.2,5.5,36.3,8.2
					c5.4,1.2,11,3.1,16.5,3.7c3.7,0.4,7.7-1.8,11.2-3c0.2-0.1,1.1-0.7,0.5-0.8c-16.9-4-33.7-8.1-50.6-12.1c-0.6-0.1-2.5,0.8-1.8,1
					c16,3.8,32,7.6,47.9,11.4c0.8,0.2,1.7,0.4,2.5,0.6c0.1,0,1-0.6-0.1-0.6c-1.1,0.1-2.4,0.8-3.4,1.1c-1.2,0.4-2.5,0.7-3.7,1.2
					c-1.2,0.5-1.5,0,0,0.3c-0.7-0.1-1.4-0.3-2.1-0.5c-9.2-2.1-18.4-4.1-27.6-6.2c-8-1.8-15.9-3.6-23.9-5.4c-0.3,0.3-0.5,0.6-0.8,0.9
					c4-1,8.1-2,12.1-3C613.4,202.5,613.2,201.6,611.9,201.9z"/>
			</g>
		</g>
		<g>
			<path style="&st5;" d="M598.3,237.3c-6.4,2.1-12.8,4.3-19.3,6.4c-0.5,0.2-1.5,0.9-0.5,1.2c20.1,4.8,40.3,9.7,60.4,14.5
				c4.7,1.1,9.3,2.2,14,3.4c1.6,0.4,3.4,1.1,5,0.9c2.7-0.3,5.9-2,8.5-2.8c6-2,12-4,17.9-6c10.1-3.4,20.1-6.7,30.2-10.1
				c0.5-0.2,1.5-0.9,0.5-1.2c-3.9-0.9-7.8-1.8-11.7-2.6c-0.7-0.2-2.6,0.9-1.3,1.2c3.9,0.9,7.8,1.8,11.7,2.6c0.2-0.4,0.3-0.8,0.5-1.2
				c-8.2,2.7-16.4,5.5-24.6,8.2c-10.2,3.4-21,6.2-31,10.3c-1,0.4-1.3,0.2-0.4,0.3c-0.9-0.1-1.9-0.4-2.7-0.7c-4.1-1-8.3-2-12.4-3
				c-12.6-3-25.1-6-37.7-9.1c-8.5-2-17-4.1-25.5-6.1c-0.2,0.4-0.3,0.8-0.5,1.2c6.4-2.1,12.8-4.3,19.3-6.4
				C599.8,238,599.6,236.9,598.3,237.3L598.3,237.3z"/>
		</g>
		<g>
			<path style="&st5;" d="M656.6,263.3c0,1.8,0,3.5,0,5.3c0,1.1,2.2,0.8,2.2-0.2c0-1.8,0-3.5,0-5.3
				C658.8,262,656.6,262.3,656.6,263.3L656.6,263.3z"/>
		</g>
		<g>
			<path style="&st5;" d="M712.9,244.8c0,2,0,4,0,6c0,1,2.2,0.5,2.2-0.3c0-2,0-4,0-6C715.1,243.6,712.9,244,712.9,244.8L712.9,244.8
				z"/>
		</g>
		<line style="&st25;" x1="579.1" y1="244.3" x2="579.1" y2="254.1"/>
		<polygon style="&st2;" points="462,262.5 498,276.5 500,316.5 462,303.5 		"/>
		<g>
			<polygon style="&st6;" points="498.5,277 617.5,238 618.5,278 500.5,318 			"/>
			<g>
				<path style="&st9;" d="M616.2,238.7c0.3,6.4,0.2,12.9,0.2,19.4c0,4,0.1,7.9,0.1,11.9c0,2.2,1,6.9-1.1,8.5
					c-1,0.7,1.2,0.7,1.7,0.3c2.2-1.7,1.6-3.8,1.6-6.4c-0.1-4.1-0.1-8.2-0.1-12.2c-0.1-7.3,0.1-14.7-0.2-22
					C618.3,237.5,616.1,237.9,616.2,238.7L616.2,238.7z"/>
			</g>
			<g>
				<path style="&st6;" d="M617.5,238c-16.9,5.6-99.5,32.6-116.3,38.2c-1,0.3-2,0.7-3.1,0.7c-2.4,0.1-4.7-1.2-6.8-2.4
					c-9.3-5.2-19.4-8.7-29.5-12.2l118.6-37.7c12.1,3.9,25.5,8.9,37.3,13.6"/>
				<g>
					<path style="&st9;" d="M617.3,237.4c-36.7,12.1-73.4,24.1-110.1,36.2c-1.6,0.5-3.1,1.1-4.7,1.5c-2,0.5-1.8,0.5-4.6,0.4
						c-3.7-0.1-5.7-1.5-8.9-3.2c-8.5-4.4-17.5-7.5-26.5-10.6c-0.2,0.4-0.3,0.8-0.5,1.2c37.5-11.9,74.9-23.8,112.4-35.7
						c1.7-0.5,4.3-2,6.2-2c1.3,0,3.8,1.5,5.1,1.9c3.7,1.2,7.3,2.5,11,3.8c6.8,2.5,13.5,5.1,20.2,7.7c0.7,0.3,2.7-0.7,1.7-1.1
						c-11.3-4.5-22.6-8.8-34.1-12.6c-3.3-1.1-3.7-1.2-6.6-0.3c-8,2.5-15.9,5.1-23.9,7.6c-24.5,7.8-49,15.6-73.6,23.4
						c-6.2,2-12.5,4-18.7,5.9c-0.6,0.2-1.5,0.9-0.5,1.2c9.1,3.2,18.3,6.4,26.9,10.9c5.5,2.9,8.5,4.5,14.5,2.5
						c7.6-2.5,15.2-5,22.9-7.5c22.4-7.3,44.7-14.7,67.1-22c8.4-2.7,16.7-5.5,25.1-8.3C618.9,238.2,618.7,237,617.3,237.4
						L617.3,237.4z"/>
				</g>
			</g>
			<g>
				<path style="&st6;" d="M498.6,277.2c0.1,3.3,1.8,37.1,1.6,40.3c-12.7-4.7-25.5-9.4-38.2-14.1l-0.3-41.2"/>
				<g>
					<path style="&st9;" d="M497.5,277.3c0.4,13.4,2.1,26.9,1.6,40.3c0.6-0.3,1.2-0.5,1.7-0.8c-6.1-2.2-12.1-4.5-18.2-6.7
						c-3.3-1.2-6.7-2.5-10-3.7c-1.5-0.6-3-1.1-4.6-1.7c-1.1-0.4-3.6-0.8-4.3-1.4c-0.9-0.8-0.7-1.4-0.7-3.2c0-2.6,0-5.2-0.1-7.8
						c-0.1-10.1-0.1-20.2-0.2-30.2c0-1.1-2.2-0.8-2.2,0.2c0.1,13.7,0.2,27.5,0.3,41.2c0,0.3,0.2,0.5,0.5,0.6
						c12.7,4.7,25.5,9.4,38.2,14.1c0.5,0.2,1.7-0.1,1.7-0.8c0.5-13.4-1.2-26.9-1.6-40.3C499.7,276,497.5,276.3,497.5,277.3
						L497.5,277.3z"/>
				</g>
			</g>
			<g>
				<path style="&st9;" d="M501.8,317.8c32.3-10.6,64.4-21.8,96.6-32.8c6.5-2.2,13-4.5,19.5-6.7c1.5-0.5,0.1-0.8-0.8-0.5
					c-32.1,11.2-64.3,22.1-96.5,33c-6.5,2.2-13,4.4-19.6,6.6C499.6,317.8,500.9,318.1,501.8,317.8L501.8,317.8z"/>
			</g>
		</g>
		<g>
			
				<ellipse transform="matrix(0.9712 -0.2384 0.2384 0.9712 -25.4594 161.5133)" style="&st5;" cx="655.1" cy="186" rx="6.5" ry="2.8"/>
			<g>
				<path style="&st5;" d="M647.6,187.9c1.1,2.7,6.1,1.8,8.2,1.3c1.8-0.4,7.4-2.2,6.7-5c-0.7-2.7-6.3-1.7-8.1-1.3
					C652.3,183.4,647.4,184.9,647.6,187.9c0,0.4,2.2,0,2.2-0.6c-0.2-2.3,3.6-3.5,5.2-3.8c1.2-0.2,4.8-0.6,5.3,1.3
					c0.8,3.4-9.1,5.9-10.5,2.5C649.6,186.8,647.5,187.5,647.6,187.9z"/>
			</g>
		</g>
		<polygon style="&st6;" points="335,305.5 371,319.5 373,359.5 335,346.5 		"/>
		<g>
			<polygon style="&st6;" points="371.5,320 490.5,281 491.5,321 373.5,361 			"/>
			<g>
				<path style="&st9;" d="M489.2,281.7c0.3,6.4,0.2,12.9,0.2,19.4c0,4,0.1,7.9,0.1,11.9c0,2.2,1,6.9-1.1,8.5
					c-1,0.7,1.2,0.7,1.7,0.3c2.2-1.7,1.6-3.8,1.6-6.4c-0.1-4.1-0.1-8.2-0.1-12.2c-0.1-7.3,0.1-14.7-0.2-22
					C491.3,280.5,489.1,280.9,489.2,281.7L489.2,281.7z"/>
			</g>
			<g>
				<path style="&st6;" d="M490.5,281c-16.9,5.6-99.5,32.6-116.3,38.2c-1,0.3-2,0.7-3.1,0.7c-2.4,0.1-4.7-1.2-6.8-2.4
					c-9.3-5.2-19.4-8.7-29.5-12.2l118.6-37.7c12.1,3.9,25.5,8.9,37.3,13.6"/>
				<g>
					<path style="&st9;" d="M490.3,280.4c-36.7,12.1-73.4,24.1-110.1,36.2c-1.6,0.5-3.1,1.1-4.7,1.5c-2,0.5-1.8,0.5-4.6,0.4
						c-3.7-0.1-5.7-1.5-8.9-3.2c-8.5-4.4-17.5-7.5-26.5-10.6c-0.2,0.4-0.3,0.8-0.5,1.2c37.5-11.9,74.9-23.8,112.4-35.7
						c1.7-0.5,4.3-2,6.2-2c1.3,0,3.8,1.5,5.1,1.9c3.7,1.2,7.3,2.5,11,3.8c6.8,2.5,13.5,5.1,20.2,7.7c0.7,0.3,2.7-0.7,1.7-1.1
						c-11.3-4.5-22.6-8.8-34.1-12.6c-3.3-1.1-3.7-1.2-6.6-0.3c-8,2.5-15.9,5.1-23.9,7.6c-24.5,7.8-49,15.6-73.6,23.4
						c-6.2,2-12.5,4-18.7,5.9c-0.6,0.2-1.5,0.9-0.5,1.2c9.1,3.2,18.3,6.4,26.9,10.9c5.5,2.9,8.5,4.5,14.5,2.5
						c7.6-2.5,15.2-5,22.9-7.5c22.4-7.3,44.7-14.7,67.1-22c8.4-2.7,16.7-5.5,25.1-8.3C491.9,281.2,491.7,280,490.3,280.4
						L490.3,280.4z"/>
				</g>
			</g>
			<g>
				<path style="&st9;" d="M370.5,320.3c0.4,13.4,2.1,26.9,1.6,40.3c0.6-0.3,1.2-0.5,1.7-0.8c-6.1-2.2-12.1-4.5-18.2-6.7
					c-3.3-1.2-6.7-2.5-10-3.7c-1.5-0.6-3-1.1-4.6-1.7c-1.1-0.4-3.6-0.8-4.3-1.4c-0.9-0.8-0.7-1.4-0.7-3.2c0-2.6,0-5.2-0.1-7.8
					c-0.1-10.1-0.1-20.2-0.2-30.2c0-1.1-2.2-0.8-2.2,0.2c0.1,13.7,0.2,27.5,0.3,41.2c0,0.3,0.2,0.5,0.5,0.6
					c12.7,4.7,25.5,9.4,38.2,14.1c0.5,0.2,1.7-0.1,1.7-0.8c0.5-13.4-1.2-26.9-1.6-40.3C372.7,319,370.5,319.3,370.5,320.3
					L370.5,320.3z"/>
			</g>
			<g>
				<path style="&st9;" d="M374.8,360.8c32.3-10.6,64.4-21.8,96.6-32.8c6.5-2.2,13-4.5,19.5-6.7c1.5-0.5,0.1-0.8-0.8-0.5
					c-32.1,11.2-64.3,22.1-96.5,33c-6.5,2.2-13,4.4-19.6,6.6C372.6,360.8,373.9,361.1,374.8,360.8L374.8,360.8z"/>
			</g>
		</g>
		<g style="&st8;">
			<path style="&st2;" d="M638.4,169.8c-0.6-0.4-1.4,0.2-1.5,0.9c-0.1,0.7,0.4,1.3,1.1,1.6c1.2,0.5,2.7-0.1,3.2-1.3
				c0.1-0.2,0.1-0.3,0.1-0.5c0-0.3-0.3-0.6-0.6-0.7c-1.1-0.5-2.5,0.2-2.9,1.4s0,2.5,0.7,3.4c0.4,0.6,1.1,1.1,1.8,1.2
				c0.7,0,1.3-0.4,1.8-1c0.4-0.6,0.6-1.2,0.8-1.9c-1.2-0.3-2.4,0.1-3.2,1s-1,2.2-0.5,3.3c0.5,1.1,1.6,1.8,2.8,1.9
				c1,0,1.9-0.5,2.6-1.2c0.7-0.7,1.1-1.6,1.5-2.6c0.3-0.8,0.5-1.9-0.2-2.5c-0.2-0.2-0.5-0.3-0.7,0c-0.1,0.1-0.1,0.2-0.1,0.3
				c-0.1,0.6,0,1.3,0.2,1.9c0.2,0.6,0.7,1.1,1.4,1.2"/>
			<g>
				<path style="&st5;" d="M638.7,168.7c-3.4-1-3.8,4.1-0.6,4.8c2.8,0.7,6.2-3.4,2.8-4.9c-1.3-0.6-2.9,0-3.7,1.1
					c-1.1,1.4-1,3.4-0.1,4.9c0.8,1.3,2.2,2.5,3.8,2.2c1.8-0.4,2.5-2,3-3.6c0.1-0.5-0.2-1.3-0.8-1.4c-3-0.4-5.9,1.8-5.3,5
					c0.6,3.3,4.6,4.3,7.1,2.3c1.5-1.2,4.4-6.9,0.9-7.5c-1.6-0.3-1.9,1.2-1.8,2.5c0.1,1.6,0.9,2.7,2.4,3.3c1.4,0.5,2-1.7,0.6-2.2
					c-0.7-0.6-0.9-1.3-0.7-2c-0.3,0.3-0.5,0.5-0.8,0.8c-0.4,0.2-0.9,2.1-1.1,2.5c-0.6,1-1.6,1.8-2.8,1.5c-2.5-0.7-1.4-4.2,1.1-3.9
					c-0.3-0.5-0.5-0.9-0.8-1.4c-0.2,0.9-0.2,1.2-1.2,1.4c-0.5,0.4-0.9,0.4-1.1-0.1c-0.3-0.3-0.5-0.8-0.6-1.2
					c-0.1-0.5,0.1-1.9,0.9-1.9c0.3,0.3,0.2,0.4-0.3,0.4c-0.4,0.3-0.9,0.2-1.2-0.3C639.5,171.3,640.1,169.1,638.7,168.7L638.7,168.7z
					"/>
			</g>
		</g>
		<polygon style="&st6;" points="202,348.5 238,362.5 240,402.5 202,389.5 		"/>
		<g>
			<polygon style="&st6;" points="238.5,363 357.5,324 358.5,364 240.5,404 			"/>
			<g>
				<path style="&st9;" d="M356.2,324.7c0.3,6.4,0.2,12.9,0.2,19.4c0,4,0.1,7.9,0.1,11.9c0,2.2,1,6.9-1.1,8.5
					c-1,0.7,1.2,0.7,1.7,0.3c2.2-1.7,1.6-3.8,1.6-6.4c-0.1-4.1-0.1-8.2-0.1-12.2c-0.1-7.3,0.1-14.7-0.2-22
					C358.3,323.5,356.1,323.9,356.2,324.7L356.2,324.7z"/>
			</g>
			<g>
				<path style="&st6;" d="M357.5,324c-16.9,5.6-99.5,32.6-116.3,38.2c-1,0.3-2,0.7-3.1,0.7c-2.4,0.1-4.7-1.2-6.8-2.4
					c-9.3-5.2-19.4-8.7-29.5-12.2l118.6-37.7c12.1,3.9,25.5,8.9,37.3,13.6"/>
				<g>
					<path style="&st9;" d="M357.3,323.4c-36.7,12.1-73.4,24.1-110.1,36.2c-1.6,0.5-3.1,1.1-4.7,1.5c-2,0.5-1.8,0.5-4.6,0.4
						c-3.7-0.1-5.7-1.5-8.9-3.2c-8.5-4.4-17.5-7.5-26.5-10.6c-0.2,0.4-0.3,0.8-0.5,1.2c37.5-11.9,74.9-23.8,112.4-35.7
						c1.7-0.5,4.3-2,6.2-2c1.3,0,3.8,1.5,5.1,1.9c3.7,1.2,7.3,2.5,11,3.8c6.8,2.5,13.5,5.1,20.2,7.7c0.7,0.3,2.7-0.7,1.7-1.1
						c-11.3-4.5-22.6-8.8-34.1-12.6c-3.3-1.1-3.7-1.2-6.6-0.3c-8,2.5-15.9,5.1-23.9,7.6c-24.5,7.8-49,15.6-73.6,23.4
						c-6.2,2-12.5,4-18.7,5.9c-0.6,0.2-1.5,0.9-0.5,1.2c9.1,3.2,18.3,6.4,26.9,10.9c5.5,2.9,8.5,4.5,14.5,2.5
						c7.6-2.5,15.2-5,22.9-7.5c22.4-7.3,44.7-14.7,67.1-22c8.4-2.7,16.7-5.5,25.1-8.3C358.9,324.2,358.7,323,357.3,323.4
						L357.3,323.4z"/>
				</g>
			</g>
			<g>
				<path style="&st9;" d="M237.5,363.3c0.4,13.4,2.1,26.9,1.6,40.3c0.6-0.3,1.2-0.5,1.7-0.8c-6.1-2.2-12.1-4.5-18.2-6.7
					c-3.3-1.2-6.7-2.5-10-3.7c-1.5-0.6-3-1.1-4.6-1.7c-1.1-0.4-3.6-0.8-4.3-1.4c-0.9-0.8-0.7-1.4-0.7-3.2c0-2.6,0-5.2-0.1-7.8
					c-0.1-10.1-0.1-20.2-0.2-30.2c0-1.1-2.2-0.8-2.2,0.2c0.1,13.7,0.2,27.5,0.3,41.2c0,0.3,0.2,0.5,0.5,0.6
					c12.7,4.7,25.5,9.4,38.2,14.1c0.5,0.2,1.7-0.1,1.7-0.8c0.5-13.4-1.2-26.9-1.6-40.3C239.7,362,237.5,362.3,237.5,363.3
					L237.5,363.3z"/>
			</g>
			<g>
				<path style="&st9;" d="M241.8,403.8c32.3-10.6,64.4-21.8,96.6-32.8c6.5-2.2,13-4.5,19.5-6.7c1.5-0.5,0.1-0.8-0.8-0.5
					c-32.1,11.2-64.3,22.1-96.5,33c-6.5,2.2-13,4.4-19.6,6.6C239.6,403.8,240.9,404.1,241.8,403.8L241.8,403.8z"/>
			</g>
		</g>
		<g>
			<polygon style="&st6;" points="667.5,237.5 667.5,255.6 702.3,244.3 702.3,227.3 			"/>
			<g>
				<path style="&st5;" d="M666.4,237.8c0,6,0,12.1,0,18.1c0,0.4,1.4,0,1.5,0c11.6-3.8,23.2-7.6,34.7-11.3c0.2-0.1,0.7-0.3,0.7-0.6
					c0-5.7,0-11.3,0-17c0-0.3-1.1-0.1-1.2-0.1c-11.6,3.4-23.2,6.8-34.7,10.2c-1.3,0.4-1.1,1.1,0.2,0.7c11.6-3.4,23.2-6.8,34.7-10.2
					c-0.4,0-0.8,0-1.2-0.1c0,4.9,0,9.8,0,14.7c0,0.7,0.2,1.6,0,2.2c0.1-0.4,1.1-0.7-0.1-0.2c-1.8,0.7-3.7,1.2-5.5,1.8
					c-9.5,3.1-18.9,6.2-28.4,9.3c0.5,0,1,0,1.5,0c0-6,0-12.1,0-18.1C668.6,236.8,666.4,237.1,666.4,237.8z"/>
			</g>
		</g>
		<g>
			<path style="&st5;" d="M663.3,238.7c1.4-0.1,2.8-0.3,4.2-0.4c0.5,0,1.1-0.3,1.2-0.9c0.1-0.5-0.6-0.8-1-0.8
				c-1.4,0.1-2.8,0.3-4.2,0.4c-0.5,0-1.1,0.3-1.2,0.9C662.2,238.5,662.8,238.7,663.3,238.7L663.3,238.7z"/>
		</g>
		<g>
			<path style="&st5;" d="M662.5,256.2c1.5,0,3,0,4.5,0c0.4,0,1.2-0.2,1.4-0.6c0.2-0.4-0.2-0.6-0.6-0.6c-1.5,0-3,0-4.5,0
				c-0.4,0-1.2,0.2-1.4,0.6C661.8,256,662.2,256.2,662.5,256.2L662.5,256.2z"/>
		</g>
		<g style="&st8;">
			<path style="&st2;" d="M671.9,241.6c0,1,0,2.1,0,3.1c0-0.8,0-1.6-0.2-2.3c-0.1,0.7-0.2,1.4-0.4,2c-0.2-0.9-0.3-1.8-0.2-2.7
				c-0.1,0.5,0,1.1,0.1,1.6"/>
			<g>
				<path style="&st5;" d="M670.7,241.6c0,1,0,2.1,0,3.1c0,1.5,2.2,1.5,2.3,0c0-0.9-0.1-1.8-0.2-2.6c-0.1-0.5-0.7-0.9-1.2-0.8
					c-0.6,0.1-0.9,0.5-1,1.1c-0.1,0.6-0.2,1.2-0.3,1.7c0.7,0,1.5,0,2.2,0c-0.2-0.8-0.2-1.6-0.2-2.4c0.1-0.6-0.6-1.1-1.1-1.1
					c-0.7,0-1.1,0.5-1.1,1.1c-0.1,0.6,0,1.3,0.2,1.9c0.4,1.4,2.6,0.8,2.2-0.6c-0.1-0.4-0.1-0.8-0.1-1.3c-0.8,0-1.5,0-2.3,0
					c-0.1,1,0,2,0.2,3c0.2,1.1,1.9,1.1,2.2,0c0.2-0.8,0.3-1.5,0.4-2.3c-0.7,0.1-1.5,0.2-2.2,0.3c0.1,0.7,0.2,1.3,0.2,2
					c0.8,0,1.5,0,2.3,0c0-1,0-2.1,0-3.1C673,240.2,670.7,240.2,670.7,241.6L670.7,241.6z"/>
			</g>
		</g>
		<g style="&st8;">
			<path style="&st2;" d="M678.7,239.4c0,1.2,0.1,2.5,0.4,3.6c-0.2-1-0.3-2-0.2-3c0.1,0.4,0.3,0.8,0.4,1.2c0,0,0,0.1,0,0.1"/>
			<g>
				<path style="&st5;" d="M677.5,239.4c0,1.3,0.1,2.7,0.4,3.9c0.3,1.4,2.5,0.8,2.2-0.6c-0.2-0.9-0.2-1.8-0.1-2.7
					c-0.7,0.1-1.5,0.2-2.2,0.3c0.1,0.4,0.3,0.8,0.5,1.2c0.2,0.6,0.8,1,1.4,0.8c0.5-0.1,1-0.8,0.8-1.4c-0.2-0.4-0.3-0.8-0.5-1.2
					c-0.4-1.3-2.1-1-2.2,0.3c-0.1,1.1,0,2.2,0.2,3.3c0.7-0.2,1.5-0.4,2.2-0.6c-0.3-1.1-0.4-2.2-0.4-3.3
					C679.8,237.9,677.6,237.9,677.5,239.4L677.5,239.4z"/>
			</g>
		</g>
		<g style="&st8;">
			<path style="&st2;" d="M686.4,236.7c0,0.6,0,1.2,0,1.9c0.1-0.5,0.4-1,0.7-1.5c0.2,0.6,0.3,1.2,0.3,1.8c0.2-1.1,0.5-2.2,0.7-3.2
				c0,0.6,0,1.2,0,1.8"/>
			<g>
				<path style="&st5;" d="M685.3,236.7c0,0.6,0,1.2,0,1.9c0,1.3,1.9,1.5,2.2,0.3c0.1-0.4,0.3-0.8,0.6-1.2c-0.7-0.1-1.4-0.2-2.1-0.3
					c0.2,0.5,0.2,1,0.2,1.5c-0.1,1.3,2,1.6,2.2,0.3c0.2-1.1,0.5-2.2,0.7-3.2c-0.7-0.1-1.5-0.2-2.2-0.3c0,0.6,0,1.2,0,1.8
					c0,1.5,2.3,1.5,2.3,0c0-0.6,0-1.2,0-1.8c0-1.2-1.9-1.6-2.2-0.3c-0.2,1.1-0.5,2.2-0.7,3.2c0.7,0.1,1.5,0.2,2.2,0.3
					c0-0.7-0.1-1.4-0.3-2.1c-0.3-0.9-1.5-1.1-2.1-0.3c-0.3,0.5-0.6,1.1-0.8,1.7c0.7,0.1,1.5,0.2,2.2,0.3c0-0.6,0-1.2,0-1.9
					C687.5,235.3,685.2,235.3,685.3,236.7L685.3,236.7z"/>
			</g>
		</g>
		<g style="&st8;">
			<path style="&st2;" d="M694.8,233.9c0.2,0.9,0.5,1.7,0.7,2.6c0.3-0.8,0.6-1.6,0.9-2.4c0.2,0.5,0.4,1,0.5,1.6c0-0.4,0-0.8,0.1-1.2
				c0.2,0.3,0.2,0.8,0.1,1.2"/>
			<g>
				<path style="&st5;" d="M693.8,234.2c0.2,0.9,0.5,1.7,0.7,2.6c0.3,1.1,1.8,1,2.2,0c0.3-0.8,0.6-1.6,0.9-2.4c-0.7,0-1.5,0-2.2,0
					c0.2,0.5,0.4,1,0.5,1.6c0.4,1.2,2.2,1,2.2-0.3c0-0.4,0-0.8,0.1-1.2c-0.7,0.2-1.4,0.4-2.1,0.6c0,0.1,0.1,0.2,0,0.3
					c-0.1,0.6,0.2,1.2,0.8,1.4c0.6,0.2,1.3-0.2,1.4-0.8c0.2-0.7,0.1-1.4-0.3-2c-0.5-1.1-2.1-0.5-2.1,0.6c0,0.4,0,0.8-0.1,1.2
					c0.7-0.1,1.5-0.2,2.2-0.3c-0.2-0.5-0.4-1-0.5-1.6c-0.4-1.1-1.8-1.1-2.2,0c-0.3,0.8-0.6,1.6-0.9,2.4c0.7,0,1.5,0,2.2,0
					c-0.2-0.9-0.5-1.7-0.7-2.6C695.6,232.2,693.4,232.8,693.8,234.2L693.8,234.2z"/>
			</g>
		</g>
		<g style="&st8;">
			<path style="&st2;" d="M605.5,214.6c-0.2,2-0.4,4-0.6,6.1c0.4-1.5,0.9-2.9,1.5-4.3c0,0.9,0,1.7,0,2.6c0.4-1.2,0.7-2.3,1.1-3.5
				c0.4,1.2,0.7,2.5,1.1,3.7c0-0.7,0-1.3,0-2c-0.1,0.9-0.2,1.8-0.3,2.7"/>
			<g>
				<path style="&st5;" d="M604.3,214.6c-0.2,2-0.4,4-0.6,6.1c-0.1,1.3,1.9,1.5,2.2,0.3c0.4-1.4,0.8-2.7,1.4-4
					c-0.7-0.2-1.4-0.4-2.1-0.6c0,0.9,0,1.7,0,2.6c0,1.3,1.8,1.5,2.2,0.3c0.4-1.2,0.7-2.3,1.1-3.5c-0.7,0-1.5,0-2.2,0
					c0.4,1.2,0.7,2.5,1.1,3.7c0.3,1.2,2.2,1,2.2-0.3c0-0.7,0-1.3,0-2c0-1.5-2.1-1.4-2.3,0c-0.1,0.9-0.2,1.8-0.3,2.7
					c-0.2,1.4,2.1,1.4,2.3,0c0.1-0.9,0.2-1.8,0.3-2.7c-0.8,0-1.5,0-2.3,0c0,0.7,0,1.3,0,2c0.7-0.1,1.5-0.2,2.2-0.3
					c-0.4-1.2-0.7-2.5-1.1-3.7c-0.3-1.1-1.9-1.1-2.2,0c-0.4,1.2-0.7,2.3-1.1,3.5c0.7,0.1,1.5,0.2,2.2,0.3c0-0.9,0-1.7,0-2.6
					c0-1.1-1.6-1.6-2.1-0.6c-0.7,1.5-1.2,3-1.6,4.5c0.7,0.1,1.5,0.2,2.2,0.3c0.2-2,0.4-4,0.6-6.1
					C606.7,213.1,604.5,213.1,604.3,214.6L604.3,214.6z"/>
			</g>
		</g>
		<g style="&st8;">
			<path style="&st2;" d="M617.1,217.9c-0.3,1.2-0.6,2.3-1,3.5c0.2-1.1,0.7-2.2,1.5-3c0.3,1.2,0.4,2.5,0.4,3.8
				c0-1.2,0.2-2.4,0.6-3.5c0.2,1.1,0.3,2.3,0.2,3.4c0.1-1.2,0.4-2.4,1-3.4c0.1,1.1,0.2,2.3,0.1,3.4"/>
			<g>
				<path style="&st5;" d="M616,217.6c-0.3,1.2-0.6,2.3-1,3.5c0.7,0.2,1.5,0.4,2.2,0.6c0.2-1,0.5-1.8,1.2-2.5
					c-0.6-0.2-1.3-0.3-1.9-0.5c0.3,1.1,0.4,2.3,0.3,3.5c-0.1,1.5,2.2,1.5,2.3,0c0.1-1.1,0.2-2.2,0.5-3.2c-0.7,0-1.5,0-2.2,0
					c0.2,1,0.2,2.1,0.2,3.1c0,1.5,2.2,1.4,2.3,0c0.1-1,0.4-2,0.8-2.9c-0.7-0.2-1.4-0.4-2.1-0.6c0.1,1.1,0.2,2.3,0.1,3.4
					c-0.1,1.5,2.2,1.5,2.3,0c0.1-1.1,0-2.3-0.1-3.4c-0.1-1-1.5-1.6-2.1-0.6c-0.7,1.3-1.1,2.6-1.2,4c0.8,0,1.5,0,2.3,0
					c0-1.3-0.1-2.5-0.3-3.7c-0.2-1.2-1.9-1-2.2,0c-0.3,1.2-0.5,2.5-0.6,3.8c0.8,0,1.5,0,2.3,0c0.1-1.4-0.1-2.7-0.4-4.1
					c-0.2-0.8-1.3-1.1-1.9-0.5c-1,1-1.6,2.1-1.8,3.5c-0.2,1.4,1.7,2,2.2,0.6c0.4-1.2,0.7-2.3,1-3.5
					C618.5,216.7,616.3,216.1,616,217.6L616,217.6z"/>
			</g>
		</g>
		<g style="&st8;">
			<path style="&st2;" d="M628.6,219.6c0.1,1.8-0.1,3.6-0.4,5.3c0.5-1.1,1-2.2,1.6-3.3c0.3,0.7,0.5,1.5,0.4,2.2
				c-0.1-1.1,0-2.3,0.3-3.4c0.1,1.2,0.1,2.5,0.1,3.7c0.2-0.7,0.5-1.4,1.1-1.9c0.2,0.7,0.3,1.4,0.3,2.1c0-0.3,0.1-0.6,0.3-0.9"/>
			<g>
				<path style="&st5;" d="M627.5,219.6c0.1,1.7,0,3.3-0.3,5c-0.2,1.2,1.5,2.1,2.1,0.9c0.5-1.1,1-2.2,1.6-3.3c-0.7,0-1.3,0-2,0
					c0.2,0.5,0.3,1.1,0.3,1.6c0.8,0,1.5,0,2.3,0c-0.1-1.1,0-2.1,0.3-3.1c-0.7-0.1-1.5-0.2-2.2-0.3c0.1,1.2,0.1,2.5,0.1,3.7
					c0,1.3,1.9,1.5,2.2,0.3c0.1-0.6,0.4-1,0.8-1.4c-0.6-0.2-1.3-0.3-1.9-0.5c0.1,0.6,0.2,1.2,0.2,1.8c0.1,1.5,2.2,1.5,2.3,0
					c0-0.1,0.1-0.2,0.1-0.3c0.8-1.3-1.2-2.4-2-1.1c-0.3,0.5-0.4,0.9-0.4,1.5c0.8,0,1.5,0,2.3,0c0-0.8-0.2-1.6-0.3-2.4
					c-0.2-0.8-1.3-1.1-1.9-0.5c-0.7,0.7-1.1,1.5-1.4,2.4c0.7,0.1,1.5,0.2,2.2,0.3c0-1.2,0-2.5-0.1-3.7c-0.1-1.2-1.9-1.6-2.2-0.3
					c-0.3,1.2-0.4,2.4-0.3,3.7c0.1,1.4,2.2,1.5,2.3,0c0-1-0.2-1.9-0.6-2.8c-0.3-0.8-1.6-0.7-2,0c-0.5,1.1-1,2.2-1.6,3.3
					c0.7,0.3,1.4,0.6,2.1,0.9c0.3-1.9,0.5-3.7,0.4-5.6C629.7,218.2,627.4,218.2,627.5,219.6L627.5,219.6z"/>
			</g>
		</g>
		<g style="&st8;">
			<path style="&st2;" d="M641.7,222.6c-0.5,1.4-0.8,2.8-0.9,4.2c0.2-0.8,0.5-1.6,0.7-2.4c0.1-0.4,0.3-0.8,0.6-0.9
				c0.3-0.1,0.7,0.2,0.8,0.6c0.1,0.3,0,0.7-0.1,1.1c0-0.9,0.1-1.9,0.3-2.8c0.1,1.3,0,2.7-0.1,4c0.5-0.9,1.1-1.7,1.6-2.6
				c0.2,0.8,0.2,1.6,0.1,2.4c0,0.1,0,0.2-0.1,0.2c-0.1,0,0-0.2,0-0.1"/>
			<g>
				<path style="&st5;" d="M640.6,222.3c-0.5,1.5-0.8,3-0.9,4.5c-0.1,1.3,1.9,1.5,2.2,0.3c0.2-0.6,0.3-1.1,0.5-1.7
					c0-0.1,0.2-0.5,0.2-0.7c0.1-0.2,0-0.3-0.4-0.1c-0.3-0.1-0.5,0-0.5,0.3c0.7,0.1,1.5,0.2,2.2,0.3c0-0.9,0.1-1.7,0.2-2.5
					c-0.7-0.1-1.5-0.2-2.2-0.3c0,1.4,0,2.7-0.1,4c-0.1,1.2,1.6,1.4,2.1,0.6c0.5-0.9,1.1-1.7,1.6-2.6c-0.7-0.1-1.4-0.2-2.1-0.3
					c0.1,0.6,0.2,1.3,0.1,1.9c0.2-0.2,0.3-0.5,0.5-0.7c0,0-0.1,0-0.1,0.1c0.5,0.1,0.9,0.1,1.4,0.2c0,0,0,0,0,0
					c0.1,0.4,0.2,0.7,0.3,1.1c0,0,0,0,0-0.1c-0.5,0.3-0.9,0.5-1.4,0.8c0,0,0,0,0,0c0.6,0.1,1.2-0.2,1.4-0.8c0.2-0.5-0.2-1.3-0.8-1.4
					c0,0,0,0,0,0c-0.6-0.1-1.2,0.1-1.4,0.8c0,0,0,0,0,0.1c-0.1,0.4,0,0.8,0.3,1.1c0,0,0,0,0,0c0.3,0.3,1,0.5,1.4,0.2
					c1.1-0.8,0.8-2.7,0.5-3.8c-0.2-1-1.6-1-2.1-0.3c-0.5,0.9-1.1,1.7-1.6,2.6c0.7,0.2,1.4,0.4,2.1,0.6c0.1-1.3,0.2-2.7,0.1-4
					c0-1.2-2-1.6-2.2-0.3c-0.2,1-0.3,2.1-0.3,3.1c0,1.2,2,1.6,2.2,0.3c0.1-0.7,0.2-1.5-0.2-2.1c-0.4-0.6-1.1-1-1.8-0.9
					c-1.7,0.3-1.9,2.8-2.3,4.1c0.7,0.1,1.5,0.2,2.2,0.3c0.1-1.4,0.4-2.7,0.9-3.9C643.3,221.5,641.1,221,640.6,222.3L640.6,222.3z"/>
			</g>
		</g>
		<g style="&st8;">
			<path style="&st2;" d="M620.1,235.5c-0.1,1.7-0.3,3.4-0.4,5.1c0.6-1.6,1.4-3.1,2.4-4.5c0.1,0.9,0.1,1.8-0.1,2.7
				c0.1-0.6,0.2-1.3,0.5-1.9c0,0.9,0,1.8-0.1,2.6c0.7-0.8,1.4-1.5,2.1-2.3c0.2,0.4,0.3,0.9,0.3,1.4"/>
			<g>
				<path style="&st5;" d="M619,235.5c-0.1,1.7-0.3,3.4-0.4,5.1c-0.1,1.3,1.8,1.4,2.2,0.3c0.5-1.5,1.3-2.9,2.3-4.2
					c-0.7-0.2-1.4-0.4-2.1-0.6c0.1,0.8,0.1,1.6-0.1,2.4c0.7,0.1,1.5,0.2,2.2,0.3c0.1-0.5,0.2-1.1,0.4-1.6c-0.7-0.1-1.5-0.2-2.2-0.3
					c0,0.9,0,1.8-0.1,2.6c0,1,1.3,1.5,1.9,0.8c0.7-0.8,1.4-1.5,2.1-2.3c-0.6-0.1-1.2-0.2-1.8-0.2c0.1,0.3,0.2,0.5,0.1,0.8
					c-0.1,1.5,2.2,1.5,2.3,0c0-0.7-0.1-1.3-0.4-1.9c-0.3-0.7-1.3-0.7-1.8-0.2c-0.7,0.8-1.4,1.5-2.1,2.3c0.6,0.3,1.3,0.5,1.9,0.8
					c0-0.9,0.1-1.8,0.1-2.6c0-1.4-1.8-1.4-2.2-0.3c-0.3,0.7-0.4,1.4-0.5,2.2c-0.1,1.3,2,1.6,2.2,0.3c0.2-1,0.3-2,0.1-3
					c-0.1-1.2-1.4-1.5-2.1-0.6c-1.1,1.4-1.9,3-2.6,4.8c0.7,0.1,1.5,0.2,2.2,0.3c0.1-1.7,0.3-3.4,0.4-5.1
					C621.3,234,619.1,234,619,235.5L619,235.5z"/>
			</g>
		</g>
		<g style="&st8;">
			<path style="&st2;" d="M631.8,237.9c-0.1,1.6-0.2,3.3-0.3,4.9c0.9-1.4,2-2.7,3.1-3.9c0.2,0.8,0.3,1.6,0.3,2.4
				c0-0.3,0-0.5,0.1-0.7c0,0.4,0,0.8,0,1.1c0-0.4,0.1-0.8,0.2-1.2c0,0.2,0,0.5,0,0.7"/>
			<g>
				<path style="&st5;" d="M630.7,237.9c-0.1,1.6-0.2,3.3-0.3,4.9c0,1.2,1.5,1.5,2.1,0.6c0.9-1.3,1.9-2.5,3-3.6
					c-0.6-0.2-1.3-0.3-1.9-0.5c0.2,0.7,0.2,1.4,0.2,2.1c0.8,0,1.5,0,2.3,0c0-0.2,0-0.3,0.1-0.4c-0.7-0.1-1.5-0.2-2.2-0.3
					c0,0.4,0,0.8,0,1.1c0,1.5,2.3,1.5,2.3,0c0-0.3,0.1-0.6,0.2-0.9c-0.7-0.1-1.5-0.2-2.2-0.3c0,0.2,0,0.5,0,0.7
					c0.1,1.5,2.3,1.5,2.3,0c0-0.2,0-0.5,0-0.7c-0.1-1.3-1.8-1.5-2.2-0.3c-0.2,0.5-0.3,1-0.3,1.5c0.8,0,1.5,0,2.3,0
					c0-0.4,0-0.8,0-1.1c0-1.3-1.8-1.5-2.2-0.3c-0.1,0.3-0.2,0.7-0.1,1c0,1.5,2.3,1.5,2.3,0c0-0.9-0.1-1.8-0.3-2.7
					c-0.2-0.8-1.3-1.1-1.9-0.5c-1.2,1.3-2.3,2.6-3.3,4.1c0.7,0.2,1.4,0.4,2.1,0.6c0-1.6,0.1-3.3,0.3-4.9
					C633,236.4,630.8,236.4,630.7,237.9L630.7,237.9z"/>
			</g>
		</g>
		
			<ellipse transform="matrix(0.9526 -0.3042 0.3042 0.9526 -25.5396 208.0053)" style="&st2;" cx="654.9" cy="186" rx="3.8" ry="1.7"/>
		<polygon style="&st10;" points="381.3,374.5 379.7,448.7 318.5,424.4 318.1,396.1 		"/>
		<polygon style="&st10;" points="443.3,353.3 443.3,423 388.8,404 388.4,371.9 		"/>
		<path style="&st10;" d="M504.5,331.4c0,0-6.9,23.1-6.4,38.4c-8.1,5.9-10.4,27.8-10.4,27.8l-35.5-14l-0.4-34.4L504.5,331.4z"/>
		<g style="&st8;">
			<path style="&st5;" d="M655.3,186.8c2.5-1.2,4.2-7.1,0.6-7.9c0,0.7,0,1.5,0,2.2c3-0.4,3.3-4.6,1-6.2c-2.7-1.8-5.2,1.7-3.5,4.1
				c2.1,2.9,6.1,0.9,6.9-1.9c1-3.4-1.1-7-4.8-6.4c-1.4,0.2-0.8,2.4,0.6,2.2c3.4-0.6,2.5,5.6-0.8,6.1c-1.1,0.2-1,2,0,2.2
				c1.4,0.3-0.6,3.5-1.2,3.8C652.8,185.5,654,187.4,655.3,186.8L655.3,186.8z"/>
		</g>
		<g>
			<path style="&st5;" d="M318.2,396.1c21.1-7.4,42.3-14.7,63.4-22.1c-0.5,0-1,0-1.5,0c-0.2,21.3-0.4,42.5-0.6,63.8
				c0,4.5-0.1,8.9-0.1,13.4c0,0.8,0.1,1.7,0,2.5c0.1-0.5,1-0.4-0.7,0.2c-10.5,3.6-20.7,8.5-31,12.6c-9.6,3.9-19.2,7.8-28.8,11.7
				c0.5,0,1,0,1.5,0c-0.5-27.5-1-55.1-1.5-82.6c0-0.4-2.2,0-2.2,0.6c0.5,27.5,1,55.1,1.5,82.6c0,0.4,1.4,0,1.5,0
				c20.4-8.3,40.8-16.6,61.2-24.9c0.2-0.1,0.7-0.2,0.7-0.5c0.2-26.6,0.5-53.2,0.7-79.8c0-0.4-1.4,0-1.5,0
				c-21.1,7.4-42.3,14.7-63.4,22.1C316,396.1,317.3,396.4,318.2,396.1z"/>
		</g>
		<g>
			<path style="&st5;" d="M388.6,372.2c18.4-6.3,36.8-12.6,55.1-18.9c-0.4-0.2-0.8-0.3-1.3-0.5c0,19.5,0,39,0,58.5
				c0,4.6,0,9.2,0,13.7c0,1.1-0.1,2.2,0,3.3c0.1,1.3,1-0.2,0.1,0.3c-2.8,1.8-6.7,2.7-9.7,3.9c-5.6,2.2-11.2,4.5-16.9,6.7
				c-9.3,3.7-18.7,7.4-28,11.1c0.5,0.1,1,0.3,1.5,0.4c0-26.4,0-52.9,0-79.3c0-1-2.2-0.6-2.2,0.2c0,26.4,0,52.9,0,79.3
				c0,0.8,1.1,0.6,1.5,0.4c18.4-7.3,36.8-14.6,55.1-21.9c0.2-0.1,0.6-0.3,0.6-0.6c0-25.4,0-50.9,0-76.3c0-0.6-0.8-0.6-1.3-0.5
				c-18.4,6.3-36.8,12.6-55.1,18.9C387,371.4,387.3,372.6,388.6,372.2z"/>
		</g>
		<polygon style="&st10;" points="307.7,400.1 307.7,477.4 235.1,444.1 234.7,424.8 		"/>
		<g>
			<path style="&st5;" d="M451.3,350.3c18.1-6.3,36.3-12.6,54.4-18.9c-0.4-0.2-0.8-0.5-1.2-0.7c-3.7,5.3-5.6,12.3-6.8,18.5
				c-0.6,3.2-1,6.5-1.1,9.8c-0.2,3.1,1.1,9.4-0.3,12.2c-0.9,1.8-2.8,3.4-3.8,5.2c-1.2,2.2-2.1,4.5-2.9,6.8c-1.7,5.3-2.6,10.8-3,16.4
				c-0.3,3.2-1,7.4-0.3,10.6c0.3,1.2-0.2,0.6,0.5,0.2c-0.7,0.5-1.8,0.7-2.6,1.1c-3.7,1.6-7.5,3.1-11.2,4.7
				c-7.4,3.1-14.8,6.2-22.2,9.3c0.5,0.1,1,0.3,1.6,0.4c0-25.4,0-50.9,0-76.3c0-1-2.2-0.6-2.2,0.2c0,25.4,0,50.9,0,76.3
				c0,0.8,1.1,0.6,1.6,0.4c12.1-5,24.2-10.1,36.3-15.1c0.4-0.1,0.7-0.4,0.6-0.8c-0.2-4.9,0-9.9,0.6-14.8c0.5-4.1,1.2-8.2,2.5-12.2
				c0.8-2.4,1.7-4.8,2.9-7c1-1.8,3.1-3.4,3.9-5.2c0.7-1.5,0.4-2.5,0.3-4.5c-0.2-3.4-0.1-6.9,0.2-10.4c0.4-4.7,1.1-9.3,2.4-13.8
				c1.2-4.1,2.7-8.4,5.2-11.9c0.5-0.7-0.8-0.8-1.2-0.7c-18.1,6.3-36.3,12.6-54.4,18.9C449.7,349.5,450,350.7,451.3,350.3z"/>
		</g>
		<g>
			<path style="&st5;" d="M450.2,389.6c12,4.6,23.9,9.1,35.9,13.7c0.5,0.2,2.5-0.6,1.8-0.9c-12-4.6-23.9-9.1-35.9-13.7
				C451.5,388.5,449.5,389.4,450.2,389.6L450.2,389.6z"/>
		</g>
		<g>
			<path style="&st5;" d="M450.1,383.5c12.2,4.8,24.4,9.6,36.6,14.5c0.6,0.2,2.3-0.7,2.1-0.7c-12.2-4.8-24.4-9.6-36.6-14.5
				C451.6,382.5,449.9,383.4,450.1,383.5L450.1,383.5z"/>
		</g>
		<g>
			<path style="&st5;" d="M388,411.5c17.1,6.3,34.1,12.7,51.2,19c1,0.4,2.6-1,1.3-1.5c-17.1-6.3-34.1-12.7-51.2-19
				C388.3,409.6,386.7,411,388,411.5L388,411.5z"/>
		</g>
		<g>
			<path style="&st5;" d="M317.7,432.7c18.8,7.9,37.6,15.7,56.4,23.6c0.7,0.3,2.7-0.7,1.7-1.1c-18.8-7.9-37.6-15.7-56.4-23.6
				C318.7,431.3,316.7,432.3,317.7,432.7L317.7,432.7z"/>
		</g>
		<g>
			<path style="&st5;" d="M317.5,425c20.3,8.1,40.6,16.2,60.9,24.4c0.6,0.2,2.3-0.7,2.1-0.7c-20.3-8.1-40.6-16.2-60.9-24.4
				C319,424,317.3,424.9,317.5,425L317.5,425z"/>
		</g>
		<g>
			<path style="&st5;" d="M234.4,444.9c24.2,11.5,48.5,22.9,72.7,34.4c0.9,0.4,2.5-0.9,1.3-1.5c-24.2-11.5-48.5-22.9-72.7-34.4
				C234.7,442.9,233.1,444.3,234.4,444.9L234.4,444.9z"/>
		</g>
		<polygon style="&st26;" points="307.7,463.8 235,436.8 235.5,492.5 		"/>
		<g>
			<path style="&st5;" d="M234,452.1c22.5,10.7,44.9,21.4,67.4,32.1c0.6,0.3,2.3-0.6,2.1-0.8c-22.5-10.7-44.9-21.4-67.4-32.1
				C235.5,451,233.7,451.9,234,452.1L234,452.1z"/>
		</g>
		<polyline style="&st27;" points="235,432.9 256.3,419.9 236,439.5 261.5,424.4 240.4,444.1 271.4,423.7 256.3,441 275.1,429.7 
			257.8,446.3 294.8,436.5 259.7,455.8 288.7,450.9 241.9,468.2 275.9,460.7 250.2,471.3 257,473.5 235.3,480.2 		"/>
		<polygon style="&st28;" points="234.8,449 244.5,443.7 238.5,452 249.8,444.4 242.3,453.5 255.1,448.2 242,455.8 256.6,452 
			243,459.5 252.8,460.2 235.1,468.1 		"/>
		<polygon style="&st28;" points="235.5,492.5 307.7,463.8 308.4,482.6 235.9,511.3 		"/>
		<g>
			<path style="&st5;" d="M234.5,425c24.7-8.3,49.3-16.6,74-24.9c-0.4-0.2-0.8-0.3-1.3-0.5c0,23.7,0,47.3,0,71c0,3.8-0.2,7.6,0,11.3
				c0.1,1.3,0.8-0.1,0.3,0.3c-1.1,0.8-2.9,1.2-4.2,1.7c-12.4,5-24.8,10.1-37.2,15.1c-10.2,4.2-20.5,8.3-30.7,12.5
				c0.5,0.1,1,0.1,1.5,0.2c-0.4-25.5-0.9-51-1.3-76.4c-0.1-3.7-0.1-7.4-0.2-11.2c0-0.7-2.2-0.3-2.2,0.6c0.4,25.5,0.9,51,1.3,76.4
				c0.1,3.7,0.1,7.4,0.2,11.2c0,0.6,1.3,0.3,1.5,0.2c24.2-9.8,48.3-19.6,72.5-29.5c0.2-0.1,0.7-0.3,0.7-0.6c0-27.7,0-55.4,0-83.1
				c0-0.6-0.8-0.6-1.3-0.5c-24.7,8.3-49.3,16.6-74,24.9C232.9,424.3,233.2,425.5,234.5,425z"/>
		</g>
		<g>
			<path style="&st5;" d="M387.9,403.8c18.3,6.8,36.6,13.7,55,20.5c0.8,0.3,2.6-0.9,1.3-1.3c-18.3-6.8-36.6-13.7-55-20.5
				C388.4,402.2,386.7,403.4,387.9,403.8L387.9,403.8z"/>
		</g>
		<path style="&st3;" d="M227.2,451.2c0,0-6.8,21.9,1.5,34.7c9.8,23.4,12.1,17.4,24.2,21.9c12.1,4.5,37.6-10.8,37.6-10.8
			s44.7-17.9,56.8-21.3s22.8-14.2,36-16.7c14.5-2.2,58-23.4,85.3-33.1c17.8-6.4,21.6-19.2,21.6-19.2l-1.5,15.9
			c0,0-204.7,87.6-219.8,92.9c-15.1,5.3-64.2,16.6-80.8,16.6s-59.7,3-72.5-9.1c-12.8-12.1-7.6-32.5-0.8-42.3
			c6.8-9.8,12.8-19.6,12.1-24.2c0,0,22.1,5.4,46.8,4.5C198.7,460.2,227.2,451.2,227.2,451.2z"/>
		<g>
			<path style="&st5;" d="M271,406.8c-5.8,1.9-11.7,3.8-17.6,5.6c-7.3,2.3-15.9,6-23.6,6.2c-0.2,0-2,0.3-1.8,0.7
				c2.1,3.4,1.4,9.3,1.3,13c-0.1,5.7-0.3,12-2.3,17.4c-1.9,5.1-2.9,8.9-2.8,14.5c0.2,8.3,0.3,16.8,3.2,24.7
				c3.7,10,11.6,15.4,21.5,18.4c12.2,3.8,23.9-1.6,34.8-6.7c16.8-7.9,34-15.2,51.7-20.7c13.3-4.1,25-10.1,37.3-16.5
				c4.5-2.3,8.6-4,13.5-4.9c3.9-0.7,7.8-2,11.6-3.3c11.8-4.1,23.2-9.1,34.6-14c12.3-5.3,24.4-11,36.9-15.8
				c6.2-2.4,19.1-7.2,19.3-15.8c0-0.3-2.2,0-2.2,0.6c-0.2,8.9-14.1,13.2-20.4,15.8c-9.9,4-19.7,8.4-29.4,12.7
				c-11.4,5-22.9,10-34.5,14.4c-4.3,1.6-8.7,3.2-13.2,4.3c-3.1,0.8-6.2,0.9-9.2,2.1c-11.7,4.5-22.1,12-33.9,16.6
				c-6.1,2.4-12.5,3.9-18.6,6c-7,2.4-13.9,5.1-20.8,7.9c-8.3,3.4-16.5,7-24.6,10.8c-8.4,4-17.2,8.2-26.7,6.7
				c-9.6-1.5-19.7-7.2-24-16.1c-3.7-7.9-4.1-16.4-4.4-25c-0.1-3.1-0.3-6.3,0.1-9.4c0.4-2.9,1.7-5.3,2.7-8c1.7-5.1,2-10.8,2.2-16.1
				c0.1-4,1-10.5-1.3-14.1c-0.6,0.2-1.2,0.5-1.8,0.7c7.7-0.2,15.9-3.6,23.2-5.8c6.8-2.1,13.5-4.2,20.2-6.4
				C273.2,406.8,271.8,406.5,271,406.8L271,406.8z"/>
		</g>
		<g>
			<path style="&st5;" d="M95.9,408.3c10.2,10.5,20.5,22.8,26.4,36.3c4.1,9.3,3.8,18.6-2.2,27.1c-5.3,7.5-11,13.6-12.6,23
				c-1.7,10-0.5,21.5,6.9,29.1c5,5.1,11.7,7.2,18.6,8.1c18.8,2.3,38.3,1.7,57.1,1.1c19.4-0.7,38.2-5.1,56.9-10.3
				c11.4-3.2,23-6.4,34-10.7c10.2-4,20.2-8.5,30.3-12.8c23.5-9.9,47.1-19.9,70.6-29.8c30.1-12.7,60.2-25.4,90.3-38.1
				c29.3-12.4,58.7-24.8,88-37.2c21.7-9.2,43.4-18.3,65.1-27.5c5.8-2.4,11.6-4.9,17.4-7.3c2.2-0.9,4.1-1.6,5.9-3.1
				c11.3-9.3,20.8-21.1,29-33.2c7.1-10.5,13.3-21.7,18.4-33.4c1.5-3.4,2.7-6.4,5.5-9c3-2.8,5.8-5.8,8.4-9c3.7-4.3,7-8.9,9.9-13.8
				c2.9-4.7,5.6-9.6,7.4-14.8c0.4-1.2-1.8-1.3-2.1-0.3c-1.9,5.7-5,11.2-8.3,16.3c-3.3,5.1-7,10-11,14.5c-2.6,2.9-6.8,5.7-8.8,8.8
				c-1.7,2.5-2.6,5.9-3.8,8.7C684.1,311,672,330,656.7,346c-3.4,3.5-8.1,8.8-11.8,10.5c-3.9,1.8-7.9,3.3-11.9,5
				c-46.3,19.6-92.6,39.1-139,58.7c-55.7,23.5-111.3,47-167,70.5c-14.5,6.1-29,12.3-43.5,18.4c-18.8,8-41.6,14-62.4,18.4
				c-18.6,4-37.3,4.3-56.3,4.2c-9.5-0.1-19.1-0.2-28.6-1.1c-8.4-0.8-16.6-3-22-10.1c-7.2-9.5-6.8-24.6-1.7-34.9
				c3.8-7.6,10.9-13,13.6-21.2c5.6-16.9-8.9-34.4-19-46.6c-3-3.6-6-7.1-9.3-10.5C97.2,406.6,95.1,407.5,95.9,408.3L95.9,408.3z"/>
		</g>
		<g>
			<polygon style="&st2;" points="170.5,467.9 170.5,445.2 179.6,464.1 181.5,460.2 184.9,467.9 199.2,455.8 188.7,471.6 
				199.2,471.6 191.7,478.4 196.2,482.2 190.9,484.5 203.8,498.1 184.9,489.8 184.9,498.1 173.5,489.8 170.5,508.6 163.7,489.8 
				140.3,501.1 153.9,484.5 140.3,478.4 150.1,476.9 143.7,461.3 			"/>
			<g>
				<path style="&st5;" d="M171.6,467.8c0-7.6,0-15.1,0-22.7c-0.7,0.1-1.5,0.2-2.2,0.4c3,6.3,6,12.6,9.1,18.9
					c0.4,0.8,1.8,0.6,2.1-0.2c0.6-1.3,1.3-2.6,1.9-3.9c-0.7,0.1-1.4,0.1-2.1,0.2c1.1,2.6,2.3,5.1,3.4,7.7c0.3,0.7,1.3,0.6,1.8,0.2
					c4.8-4,9.6-8.1,14.4-12.1c-0.5-0.3-1.1-0.6-1.6-0.8c-3.5,5.3-7,10.6-10.6,15.9c-0.5,0.7,0.1,1.1,0.8,1.1c3.5,0,7,0,10.6,0
					c-0.2-0.4-0.4-0.9-0.6-1.3c-2.5,2.3-5,4.5-7.6,6.8c-0.4,0.3-0.6,0.8-0.1,1.1c1.5,1.3,3,2.5,4.5,3.8c0.1-0.4,0.2-0.9,0.4-1.3
					c-1.8,0.8-3.5,1.5-5.3,2.3c-0.4,0.2-0.9,0.7-0.5,1.1c4.3,4.5,8.6,9.1,12.8,13.6c0.5-0.4,1.1-0.8,1.6-1.2
					c-6.3-2.8-12.6-5.5-18.9-8.3c-0.5-0.2-1.7,0.1-1.7,0.8c0,2.8,0,5.5,0,8.3c0.7-0.2,1.3-0.5,2-0.7c-3.8-2.8-7.6-5.5-11.3-8.3
					c-0.6-0.4-1.8-0.1-2,0.7c-1,6.3-2,12.6-3,18.9c0.7-0.1,1.5-0.2,2.2-0.4c-2.3-6.3-4.5-12.6-6.8-18.9c-0.2-0.6-1.1-0.6-1.6-0.4
					c-7.8,3.8-15.6,7.6-23.4,11.3c0.5,0.3,0.9,0.7,1.4,1c4.5-5.5,9.1-11.1,13.6-16.6c0.3-0.4,0.2-0.9-0.3-1.1c-4.5-2-9.1-4-13.6-6
					c-0.2,0.5-0.5,1-0.7,1.6c3.3-0.5,6.5-1,9.8-1.5c0.4-0.1,1.5-0.5,1.2-1.1c-2.1-5.2-4.3-10.4-6.4-15.6c-0.6,0.3-1.1,0.7-1.7,1
					c8.9,2.2,17.9,4.4,26.8,6.5c1,0.2,2.6-1.2,1.3-1.5c-8.9-2.2-17.9-4.4-26.8-6.5c-0.5-0.1-2.1,0.2-1.7,1
					c2.1,5.2,4.3,10.4,6.4,15.6c0.4-0.4,0.8-0.7,1.2-1.1c-3.3,0.5-6.5,1-9.8,1.5c-0.7,0.1-1.9,1.1-0.7,1.6c3,1.3,6,2.7,9,4
					c1.4,0.6,2.9,1.3,4.3,1.9c0.7,0.3,0.2-1.3-0.1-0.8c-0.2,0.3-0.6,0.8-0.9,1.1c-2.8,2.3-5,6.2-7.3,8.9c-1.8,2.1-3.5,4.3-5.3,6.4
					c-0.8,0.9,0.7,1.3,1.4,1c7.8-3.8,15.6-7.6,23.4-11.3c-0.5-0.1-1.1-0.2-1.6-0.4c2.3,6.3,4.5,12.6,6.8,18.9
					c0.3,0.9,2.1,0.5,2.2-0.4c1-6.3,2-12.6,3-18.9c-0.7,0.2-1.3,0.5-2,0.7c3.8,2.8,7.6,5.5,11.3,8.3c0.5,0.4,2,0.1,2-0.7
					c0-2.8,0-5.5,0-8.3c-0.6,0.3-1.2,0.6-1.7,0.8c6.3,2.8,12.6,5.5,18.9,8.3c0.6,0.3,2.4-0.5,1.6-1.2c-4.3-4.5-8.6-9.1-12.8-13.6
					c-0.2,0.4-0.3,0.8-0.5,1.1c1.8-0.8,3.5-1.5,5.3-2.3c0.5-0.2,0.9-0.9,0.4-1.3c-1.5-1.3-3-2.5-4.5-3.8c0,0.4-0.1,0.8-0.1,1.1
					c2.5-2.3,5-4.5,7.6-6.8c0.7-0.6,0.2-1.3-0.6-1.3c-3.5,0-7,0-10.6,0c0.3,0.4,0.5,0.8,0.8,1.1c3.5-5.3,7-10.6,10.6-15.9
					c0.7-1.1-1-1.4-1.6-0.8c-4.8,4-9.6,8.1-14.4,12.1c0.6,0.1,1.2,0.1,1.8,0.2c-1.1-2.6-2.3-5.1-3.4-7.7c-0.4-0.9-1.8-0.6-2.1,0.2
					c-0.6,1.3-1.3,2.6-1.9,3.9c0.7-0.1,1.4-0.1,2.1-0.2c-3-6.3-6-12.6-9.1-18.9c-0.4-0.8-2.2-0.6-2.2,0.4c0,7.6,0,15.1,0,22.7
					C169.4,469.1,171.6,468.8,171.6,467.8z"/>
			</g>
		</g>
		<g>
			<polygon style="&st16;" points="174.3,473.4 174.3,462.6 178.7,471.6 179.6,469.7 181.2,473.4 188,467.6 183,475.2 188,475.2 
				184.4,478.4 186.6,480.2 184,481.3 190.2,487.7 181.2,483.8 181.2,487.7 175.8,483.8 169,492.8 171.1,483.8 159.9,489.2 
				166.4,481.3 159.9,478.4 164.6,477.7 161.6,470.2 			"/>
			<g>
				<path style="&st5;" d="M175.4,473.1c0-3.6,0-7.2,0-10.8c-0.7,0.2-1.5,0.4-2.2,0.6c1.4,3,2.9,6,4.3,9c0.4,0.7,1.9,0.1,2.2-0.4
					c0.3-0.6,0.6-1.2,0.9-1.9c-0.7,0.1-1.5,0.3-2.2,0.4c0.5,1.2,1.1,2.4,1.6,3.7c0.3,0.6,1.6,0.2,2-0.1c2.3-1.9,4.6-3.8,6.8-5.8
					c-0.6,0-1.3-0.1-1.9-0.1c-1.7,2.5-3.4,5-5,7.6c-0.3,0.4,0.2,0.6,0.6,0.6c1,0,4.7,0.2,4.6-0.3c-0.1-0.5-3.1,2.3-3.6,2.8
					c-0.1,0.1-0.4,0.4-0.2,0.6c0.7,0.6,1.4,1.2,2.2,1.8c0.2-0.3,0.4-0.5,0.6-0.8c-0.8,0.4-1.7,0.7-2.5,1.1c-0.2,0.1-0.9,0.5-0.6,0.8
					c2,2.2,4.1,4.3,6.1,6.5c0.6-0.3,1.3-0.6,1.9-0.9c-3-1.3-6-2.6-9-4c-0.5-0.2-2,0.1-2,0.8c0,1.3,0,2.6,0,4
					c0.7-0.2,1.4-0.5,2.1-0.7c-1.8-1.3-3.6-2.6-5.4-4c-0.5-0.4-1.6-0.1-2,0.4c-2.2,3-4.5,6-6.7,9c0.7,0,1.4-0.1,2.1-0.1
					c0.7-3,1.4-6,2.1-9c0.2-0.7-1.3-0.4-1.5-0.3c-3.7,1.8-7.4,3.6-11.1,5.4c0.5,0.1,1,0.3,1.4,0.4c2.2-2.6,4.3-5.3,6.5-7.9
					c0.2-0.2,0.1-0.4-0.1-0.5c-2.2-1-4.3-1.9-6.5-2.9c-0.3,0.4-0.7,0.7-1,1.1c1.6-0.2,3.1-0.5,4.7-0.7c0.2,0,1.5-0.4,1.3-0.9
					c-1-2.5-2-5-3.1-7.4c-0.6,0.3-1.2,0.6-1.8,0.9c4.3,1,8.5,2.1,12.8,3.1c0.6,0.2,2.6-0.8,1.4-1.1c-4.3-1-8.5-2.1-12.8-3.1
					c-0.3-0.1-2,0.2-1.8,0.9c1,2.5,2,5,3.1,7.4c0.4-0.3,0.8-0.6,1.3-0.9c-1.6,0.2-3.1,0.5-4.7,0.7c-0.3,0-1.9,0.7-1,1.1
					c1.4,0.6,2.7,1.2,4.1,1.8c0.3,0.2,2.1,0.7,2.2,1c-0.2-0.5-0.4-0.2-0.6,0.3c-1,2.5-4.1,5.1-5.9,7.2c-0.6,0.7,1.2,0.5,1.4,0.4
					c3.7-1.8,7.4-3.6,11.1-5.4c-0.5-0.1-1-0.2-1.5-0.3c-0.7,3-1.4,6-2.1,9c-0.2,0.9,1.8,0.2,2.1-0.1c2.2-3,4.5-6,6.7-9
					c-0.7,0.1-1.4,0.3-2,0.4c1.8,1.3,3.6,2.6,5.4,4c0.5,0.4,2.1,0.1,2.1-0.7c0-1.3,0-2.6,0-4c-0.7,0.3-1.3,0.5-2,0.8
					c3,1.3,6,2.6,9,4c0.4,0.2,2.5-0.3,1.9-0.9c-2-2.2-4.1-4.3-6.1-6.5c-0.2,0.3-0.4,0.5-0.6,0.8c0.8-0.4,1.7-0.7,2.5-1.1
					c0.2-0.1,1-0.5,0.6-0.8c-1.1-0.9-1.9-1.2-1.7-1.7c0.2-0.9,2.3-2.1,3-2.7c0.5-0.4,0.1-0.7-0.4-0.7c-1.1,0-2.4-0.2-3.4,0
					c-1.7,0.3-1.2,0.5-0.2-0.6c1.6-1.9,2.9-4.3,4.2-6.4c0.6-0.9-1.6-0.4-1.9-0.1c-2.3,1.9-4.6,3.8-6.8,5.8c0.7,0,1.3-0.1,2-0.1
					c-0.5-1.2-1.1-2.4-1.6-3.7c-0.3-0.8-1.9-0.1-2.2,0.4c-0.3,0.6-0.6,1.2-0.9,1.9c0.7-0.1,1.5-0.3,2.2-0.4c-1.4-3-2.9-6-4.3-9
					c-0.3-0.7-2.2-0.2-2.2,0.6c0,3.6,0,7.2,0,10.8C173.2,474.3,175.4,473.9,175.4,473.1z"/>
			</g>
		</g>
		<g style="&st8;">
			<path style="&st2;" d="M658.4,195.8c-2.4,0.1-4.8,0.4-7.2,0.9c1.4-0.1,2.8-0.2,4.1-0.3c0.6,0,1.3-0.1,1.6,0.3
				c0.2,0.3-0.2,0.8-0.7,1s-1.2,0.3-1.8,0.4c1.6-0.4,3.1-0.7,4.7-0.9c-2.2,0.6-5.5,1.2-7.7,1.7c1.5,0.2,4.1,0.2,5.6,0.4"/>
			<g>
				<path style="&st5;" d="M658.4,194.3c-2.6,0.1-5.1,0.4-7.6,0.9c-1.6,0.3-1.3,3,0.4,2.9c0.9-0.1,1.8-0.1,2.7-0.2
					c0.5,0,1.8-0.4,2.3-0.1c-0.2-0.3-0.5-0.6-0.7-0.9c0,0.1,0,0.2,0.1,0.3c0-0.4,0.1-0.8,0.1-1.1c-0.2,0.3-1,0.4-1.3,0.4
					c0.1,1,0.3,1.9,0.4,2.9c1.4-0.4,2.9-0.7,4.3-0.8c-0.1-1-0.3-1.9-0.4-2.9c-2.5,0.7-5.1,1.2-7.7,1.7c-1.8,0.3-1.1,2.7,0.4,2.9
					c1.9,0.2,3.8,0.2,5.6,0.4c1.9,0.2,1.9-2.8,0-3c-1.9-0.2-3.8-0.2-5.6-0.4c0.1,1,0.3,1.9,0.4,2.9c2.6-0.5,5.2-1,7.7-1.7
					c1.6-0.4,1.3-3.1-0.4-2.9c-1.7,0.2-3.4,0.5-5.1,0.9c-1.6,0.4-1.3,3.1,0.4,2.9c1.6-0.2,5-1.1,3.8-3.4c-0.5-1-1.5-1.2-2.5-1.2
					c-1.5,0-3.1,0.2-4.6,0.3c0.1,1,0.3,1.9,0.4,2.9c2.3-0.5,4.5-0.8,6.8-0.8C660.3,197.2,660.3,194.2,658.4,194.3L658.4,194.3z"/>
			</g>
		</g>
	</g>
</g>
</svg>
