<?xml version="1.0" encoding="UTF-8"?>
<svg width="639px" height="411px" viewBox="0 0 639 411" version="1.1" xmlns="http://www.w3.org/2000/svg" xmlns:xlink="http://www.w3.org/1999/xlink">
    <!-- Generator: Sketch 53.2 (72643) - https://sketchapp.com -->
    <title>Artboard</title>
    <desc>Created with Sketch.</desc>
    <g id="Artboard" stroke="none" stroke-width="1" fill="none" fill-rule="evenodd">
        <g id="Group-4" transform="translate(24.000000, 15.000000)">
            <g id="Group-3">
                <rect id="Rectangle" fill="#5E6B8D" x="0" y="0" width="274" height="376" rx="12"></rect>
                <path d="M39,79 C35.6862915,79 33,81.6862915 33,85 L33,121 C33,124.313708 35.6862915,127 39,127 L235,127 C238.313708,127 241,124.313708 241,121 L241,85 C241,81.6862915 238.313708,79 235,79 L39,79 Z" id="Rectangle-2-Copy-3" stroke="#E6EEA4" stroke-width="2" fill="#E6EDA8"></path>
                <text id="App-Instance-A" font-family="Asap-Medium, Asap" font-size="16" font-weight="400" fill="#24253A">
                    <tspan x="84.924" y="109">App Instance A</tspan>
                </text>
                <path d="M39,277 C35.6862915,277 33,279.686292 33,283 L33,319 C33,322.313708 35.6862915,325 39,325 L235,325 C238.313708,325 241,322.313708 241,319 L241,283 C241,279.686292 238.313708,277 235,277 L39,277 Z" id="Rectangle-2-Copy-3" stroke="#E6EEA4" stroke-width="2" fill="#E6EDA8"></path>
                <text id="JCache" font-family="Asap-Medium, Asap" font-size="16" font-weight="400" fill="#24253A">
                    <tspan x="112.26" y="307">JCache</tspan>
                </text>
                <path d="M41,178 C37.6862915,178 35,180.686292 35,184 L35,220 C35,223.313708 37.6862915,226 41,226 L234,226 C237.313708,226 240,223.313708 240,220 L240,184 C240,180.686292 237.313708,178 234,178 L41,178 Z" id="Rectangle-2-Copy-3" stroke="#E6EEA4" stroke-width="2" fill="#E6EDA8"></path>
                <text id="Local-HTTP-Session-C" font-family="Asap-Medium, Asap" font-size="16" font-weight="400" fill="#24253A">
                    <tspan x="45.42" y="208">Local HTTP Session Cache</tspan>
                </text>
                <g id="Group" transform="translate(130.000000, 141.000000)" fill="#FFFFFF">
                    <path d="M6.849471,24 L7.89150945,23.0020202 L13.414434,17.8994461 C14.1509849,17.2060606 14.1992834,16.0310199 13.521898,15.275725 C12.8469275,14.5191919 11.6986326,14.4696644 10.9632891,15.1630499 L10.921028,15.2039101 L10.9005011,15.2237211 L8.66066182,17.2209189 L8.66066182,6.8572825 C8.66066182,5.83206256 7.84924833,5 6.849471,5 C5.84848621,5 5.03828018,5.83206256 5.03828018,6.8572825 L5.03828018,17.1354839 L3.05321504,15.1890518 C3.05200757,15.1878136 3.04959265,15.1878136 3.04838519,15.1865754 L2.9747301,15.1135223 L2.96024057,15.1283806 C2.23576424,14.5030955 1.15991689,14.5352884 0.493398672,15.2484848 C-0.169497169,15.9579668 -0.155007643,17.0550016 0.480116606,17.7706745 L0.463212158,17.7892473" id="Fill-1"></path>
                    <path d="M6.849471,19 L7.89150945,18.0020202 L13.414434,12.8994461 C14.1509849,12.2060606 14.1992834,11.0310199 13.521898,10.275725 C12.8469275,9.51919192 11.6986326,9.46966439 10.9632891,10.1630499 L10.921028,10.2039101 L10.9005011,10.2237211 L8.66066182,12.2209189 L8.66066182,1.8572825 C8.66066182,0.832062561 7.84924833,0 6.849471,0 C5.84848621,0 5.03828018,0.832062561 5.03828018,1.8572825 L5.03828018,12.1354839 L3.05321504,10.1890518 C3.05200757,10.1878136 3.04959265,10.1878136 3.04838519,10.1865754 L2.9747301,10.1135223 L2.96024057,10.1283806 C2.23576424,9.50309547 1.15991689,9.53528837 0.493398672,10.2484848 C-0.169497169,10.9579668 -0.155007643,12.0550016 0.480116606,12.7706745 L0.463212158,12.7892473" id="Fill-1" transform="translate(7.000000, 9.500000) scale(1, -1) translate(-7.000000, -9.500000) "></path>
                </g>
                <g id="Group" transform="translate(130.000000, 240.000000)" fill="#FFFFFF">
                    <path d="M6.849471,24 L7.89150945,23.0020202 L13.414434,17.8994461 C14.1509849,17.2060606 14.1992834,16.0310199 13.521898,15.275725 C12.8469275,14.5191919 11.6986326,14.4696644 10.9632891,15.1630499 L10.921028,15.2039101 L10.9005011,15.2237211 L8.66066182,17.2209189 L8.66066182,6.8572825 C8.66066182,5.83206256 7.84924833,5 6.849471,5 C5.84848621,5 5.03828018,5.83206256 5.03828018,6.8572825 L5.03828018,17.1354839 L3.05321504,15.1890518 C3.05200757,15.1878136 3.04959265,15.1878136 3.04838519,15.1865754 L2.9747301,15.1135223 L2.96024057,15.1283806 C2.23576424,14.5030955 1.15991689,14.5352884 0.493398672,15.2484848 C-0.169497169,15.9579668 -0.155007643,17.0550016 0.480116606,17.7706745 L0.463212158,17.7892473" id="Fill-1"></path>
                    <path d="M6.849471,19 L7.89150945,18.0020202 L13.414434,12.8994461 C14.1509849,12.2060606 14.1992834,11.0310199 13.521898,10.275725 C12.8469275,9.51919192 11.6986326,9.46966439 10.9632891,10.1630499 L10.921028,10.2039101 L10.9005011,10.2237211 L8.66066182,12.2209189 L8.66066182,1.8572825 C8.66066182,0.832062561 7.84924833,0 6.849471,0 C5.84848621,0 5.03828018,0.832062561 5.03828018,1.8572825 L5.03828018,12.1354839 L3.05321504,10.1890518 C3.05200757,10.1878136 3.04959265,10.1878136 3.04838519,10.1865754 L2.9747301,10.1135223 L2.96024057,10.1283806 C2.23576424,9.50309547 1.15991689,9.53528837 0.493398672,10.2484848 C-0.169497169,10.9579668 -0.155007643,12.0550016 0.480116606,12.7706745 L0.463212158,12.7892473" id="Fill-1" transform="translate(7.000000, 9.500000) scale(1, -1) translate(-7.000000, -9.500000) "></path>
                </g>
                <text id="Liberty-Server-A" font-family="BunueloCleanPro-SemiBold, Bunuelo Clean Pro" font-size="24" font-weight="500" fill="#FFFFFF">
                    <tspan x="60" y="50">Liberty Server A</tspan>
                </text>
            </g>
            <g id="Group-2" transform="translate(317.000000, 0.000000)">
                <rect id="Rectangle" fill="#5E6B8D" x="0" y="0" width="274" height="376" rx="12"></rect>
                <path d="M39,79 C35.6862915,79 33,81.6862915 33,85 L33,121 C33,124.313708 35.6862915,127 39,127 L235,127 C238.313708,127 241,124.313708 241,121 L241,85 C241,81.6862915 238.313708,79 235,79 L39,79 Z" id="Rectangle-2-Copy-3" stroke="#E6EEA4" stroke-width="2" fill="#E6EDA8"></path>
                <text id="App-Instance-B" font-family="Asap-Medium, Asap" font-size="16" font-weight="400" fill="#24253A">
                    <tspan x="85.084" y="109">App Instance B</tspan>
                </text>
                <path d="M39,277 C35.6862915,277 33,279.686292 33,283 L33,319 C33,322.313708 35.6862915,325 39,325 L235,325 C238.313708,325 241,322.313708 241,319 L241,283 C241,279.686292 238.313708,277 235,277 L39,277 Z" id="Rectangle-2-Copy-3" stroke="#E6EEA4" stroke-width="2" fill="#E6EDA8"></path>
                <text id="JCache" font-family="Asap-Medium, Asap" font-size="16" font-weight="400" fill="#24253A">
                    <tspan x="112.26" y="307">JCache</tspan>
                </text>
                <path d="M41,178 C37.6862915,178 35,180.686292 35,184 L35,220 C35,223.313708 37.6862915,226 41,226 L234,226 C237.313708,226 240,223.313708 240,220 L240,184 C240,180.686292 237.313708,178 234,178 L41,178 Z" id="Rectangle-2-Copy-3" stroke="#E6EEA4" stroke-width="2" fill="#E6EDA8"></path>
                <text id="Local-HTTP-Session-C" font-family="Asap-Medium, Asap" font-size="16" font-weight="400" fill="#24253A">
                    <tspan x="45.42" y="208">Local HTTP Session Cache</tspan>
                </text>
                <g id="Group" transform="translate(130.000000, 141.000000)" fill="#FFFFFF">
                    <path d="M6.849471,24 L7.89150945,23.0020202 L13.414434,17.8994461 C14.1509849,17.2060606 14.1992834,16.0310199 13.521898,15.275725 C12.8469275,14.5191919 11.6986326,14.4696644 10.9632891,15.1630499 L10.921028,15.2039101 L10.9005011,15.2237211 L8.66066182,17.2209189 L8.66066182,6.8572825 C8.66066182,5.83206256 7.84924833,5 6.849471,5 C5.84848621,5 5.03828018,5.83206256 5.03828018,6.8572825 L5.03828018,17.1354839 L3.05321504,15.1890518 C3.05200757,15.1878136 3.04959265,15.1878136 3.04838519,15.1865754 L2.9747301,15.1135223 L2.96024057,15.1283806 C2.23576424,14.5030955 1.15991689,14.5352884 0.493398672,15.2484848 C-0.169497169,15.9579668 -0.155007643,17.0550016 0.480116606,17.7706745 L0.463212158,17.7892473" id="Fill-1"></path>
                    <path d="M6.849471,19 L7.89150945,18.0020202 L13.414434,12.8994461 C14.1509849,12.2060606 14.1992834,11.0310199 13.521898,10.275725 C12.8469275,9.51919192 11.6986326,9.46966439 10.9632891,10.1630499 L10.921028,10.2039101 L10.9005011,10.2237211 L8.66066182,12.2209189 L8.66066182,1.8572825 C8.66066182,0.832062561 7.84924833,0 6.849471,0 C5.84848621,0 5.03828018,0.832062561 5.03828018,1.8572825 L5.03828018,12.1354839 L3.05321504,10.1890518 C3.05200757,10.1878136 3.04959265,10.1878136 3.04838519,10.1865754 L2.9747301,10.1135223 L2.96024057,10.1283806 C2.23576424,9.50309547 1.15991689,9.53528837 0.493398672,10.2484848 C-0.169497169,10.9579668 -0.155007643,12.0550016 0.480116606,12.7706745 L0.463212158,12.7892473" id="Fill-1" transform="translate(7.000000, 9.500000) scale(1, -1) translate(-7.000000, -9.500000) "></path>
                </g>
                <g id="Group" transform="translate(130.000000, 240.000000)" fill="#FFFFFF">
                    <path d="M6.849471,24 L7.89150945,23.0020202 L13.414434,17.8994461 C14.1509849,17.2060606 14.1992834,16.0310199 13.521898,15.275725 C12.8469275,14.5191919 11.6986326,14.4696644 10.9632891,15.1630499 L10.921028,15.2039101 L10.9005011,15.2237211 L8.66066182,17.2209189 L8.66066182,6.8572825 C8.66066182,5.83206256 7.84924833,5 6.849471,5 C5.84848621,5 5.03828018,5.83206256 5.03828018,6.8572825 L5.03828018,17.1354839 L3.05321504,15.1890518 C3.05200757,15.1878136 3.04959265,15.1878136 3.04838519,15.1865754 L2.9747301,15.1135223 L2.96024057,15.1283806 C2.23576424,14.5030955 1.15991689,14.5352884 0.493398672,15.2484848 C-0.169497169,15.9579668 -0.155007643,17.0550016 0.480116606,17.7706745 L0.463212158,17.7892473" id="Fill-1"></path>
                    <path d="M6.849471,19 L7.89150945,18.0020202 L13.414434,12.8994461 C14.1509849,12.2060606 14.1992834,11.0310199 13.521898,10.275725 C12.8469275,9.51919192 11.6986326,9.46966439 10.9632891,10.1630499 L10.921028,10.2039101 L10.9005011,10.2237211 L8.66066182,12.2209189 L8.66066182,1.8572825 C8.66066182,0.832062561 7.84924833,0 6.849471,0 C5.84848621,0 5.03828018,0.832062561 5.03828018,1.8572825 L5.03828018,12.1354839 L3.05321504,10.1890518 C3.05200757,10.1878136 3.04959265,10.1878136 3.04838519,10.1865754 L2.9747301,10.1135223 L2.96024057,10.1283806 C2.23576424,9.50309547 1.15991689,9.53528837 0.493398672,10.2484848 C-0.169497169,10.9579668 -0.155007643,12.0550016 0.480116606,12.7706745 L0.463212158,12.7892473" id="Fill-1" transform="translate(7.000000, 9.500000) scale(1, -1) translate(-7.000000, -9.500000) "></path>
                </g>
                <text id="Liberty-Server-B" font-family="BunueloCleanPro-SemiBold, Bunuelo Clean Pro" font-size="24" font-weight="500" fill="#FFFFFF">
                    <tspan x="60" y="50">Liberty Server B</tspan>
                </text>
            </g>
        </g>
        <g id="Group" transform="translate(320.000000, 320.000000) rotate(90.000000) translate(-320.000000, -320.000000) translate(307.000000, 274.000000)" fill="#FFFFFF" stroke="#5E6B8D">
            <path d="M9.49692889,31.1780363 L9.49692889,13.2386423 L5.95216971,16.7217313 C5.95001353,16.723947 5.94570117,16.723947 5.94354499,16.7261627 L5.81201804,16.8568893 L5.78614388,16.8303009 C4.49243615,17.9492321 2.57128017,17.8916238 1.38106906,16.6153774 C0.197326484,15.3457782 0.223200638,13.3826632 1.35735108,12.1019855 L1.32716457,12.0687499 L12.7311982,0.954771378 L14.5919812,2.74062996 L24.4543464,11.8715521 C25.769616,13.1123471 25.8558631,15.2150516 24.6462464,16.5666319 C23.440942,17.9204279 21.3904153,18.0090562 20.0773019,16.7682611 L20.0018357,16.6951428 L19.9651806,16.6596915 L15.9654675,13.0857587 L15.9654675,31.1780363 L15.9654675,79.3690127 L19.9651806,75.7950798 L20.0018357,75.7596285 L20.0773019,75.6865103 C21.3904153,74.4457152 23.440942,74.5343434 24.6462464,75.8881395 C25.8558631,77.2397198 25.769616,79.3424242 24.4543464,80.5832193 L14.5919812,89.7141414 L12.7311982,91.5 L1.32716457,80.3860215 L1.35735108,80.3527859 C0.223200638,79.0721082 0.197326484,77.1089932 1.38106906,75.8393939 C2.57128017,74.5631476 4.49243615,74.5055393 5.78614388,75.6244705 L5.81201804,75.597882 L5.94354499,75.7286087 C5.94570117,75.7308244 5.95001353,75.7308244 5.95216971,75.7330401 L9.49692889,79.216129 L9.49692889,31.1780363 Z" id="Combined-Shape"></path>
        </g>
    </g>
</svg>