<?xml version="1.0" encoding="UTF-8"?>
<svg width="61px" height="51px" viewBox="0 0 61 51" version="1.1" xmlns="http://www.w3.org/2000/svg" xmlns:xlink="http://www.w3.org/1999/xlink">
    <!-- Generator: Sketch 50.2 (55047) - http://www.bohemiancoding.com/sketch -->
    <title>Smoke 5</title>
    <desc>Created with Sketch.</desc>
    <defs></defs>
    <g id="Page-1" stroke="none" stroke-width="1" fill="none" fill-rule="evenodd" fill-opacity="0.1">
        <g id="Desktop-HD-Copy-2" transform="translate(-818.000000, -582.000000)" fill="#E6EDA8" stroke="#E6EDA8" stroke-width="4">
            <g id="Smoke" transform="translate(772.000000, 523.000000)">
                <path d="M48.117262,89.9283356 C48.7664402,92.8363114 51.4448299,94.2902993 56.1524311,94.2902993 C55.5804433,101.926099 58.0294163,106.380308 63.4993502,107.652925 C68.9692842,108.925542 73.0273346,106.698438 75.6735015,100.971612 C80.7676333,105.271743 85.2787887,106.746279 89.2069678,105.395221 C93.1351468,104.044163 95.491256,100.342523 96.2752955,94.2902993 C102.091765,92.8901119 105,89.8989702 105,85.3168741 C105,80.734778 102.091765,77.8818491 96.2752955,76.7580874 C98.2494304,71.2857351 97.2271369,67.374462 93.2084148,65.0242681 C89.1896927,62.6740741 85.6395915,63.096727 82.5581111,66.2922268 C79.324197,61.9266936 75.5700436,60.2619914 71.2956507,61.2981201 C67.0212579,62.3342488 64.4224911,65.2425118 63.4993502,70.0229091 C57.3371749,67.5357875 53.0431969,68.2224343 50.6174163,72.0828495 C48.1916356,75.9432647 49.404526,79.8079173 54.2560873,83.6768073 C49.5143589,84.9365171 47.4680838,87.0203598 48.117262,89.9283356 Z" id="Smoke-5"></path>
            </g>
        </g>
    </g>
</svg>