<?xml version="1.0" encoding="UTF-8"?>
<svg width="91px" height="68px" viewBox="0 0 91 68" version="1.1" xmlns="http://www.w3.org/2000/svg" xmlns:xlink="http://www.w3.org/1999/xlink">
    <!-- Generator: Sketch 50.2 (55047) - http://www.bohemiancoding.com/sketch -->
    <title>Smoke 6</title>
    <desc>Created with Sketch.</desc>
    <defs></defs>
    <g id="Page-1" stroke="none" stroke-width="1" fill="none" fill-rule="evenodd" fill-opacity="0.1">
        <g id="Desktop-HD-Copy-2" transform="translate(-770.000000, -521.000000)" fill="#E6EDA8" stroke="#E6EDA8" stroke-width="4">
            <g id="Smoke" transform="translate(772.000000, 523.000000)">
                <path d="M38.9629479,1.0985783 C30.5674664,4.11934469 27.0207547,10.1752164 28.3228128,19.2661933 C22.8613142,17.3878904 18.2740267,18.0857436 14.5609505,21.3597527 C10.8478743,24.6337619 9.62750631,29.0568156 10.8998464,34.6289139 C4.59090987,35.2352361 1.01414668,38.2568316 0.169556834,43.6937005 C-0.675033011,49.1305693 1.63565548,52.5513649 7.10162229,53.9560871 C8.76471675,58.7253722 11.2511595,61.1100147 14.5609505,61.1100147 C17.8707416,61.1100147 19.9420847,59.8615086 20.7749798,57.3644964 C22.7351863,60.8386949 25.2511307,62.9604504 28.3228128,63.7297629 C31.394495,64.4990753 34.0417421,63.6258259 36.2645542,61.1100147 C41.5260217,63.9943451 46.5129853,63.6586124 51.2254452,60.1028168 C55.9379051,56.5470212 57.9968943,52.3682274 57.402413,47.5664355 C61.1943542,50.1375327 64.9139137,50.7710629 68.5610916,49.4670261 C72.2082694,48.1629893 74.3859009,44.7537537 75.093986,39.2393193 C81.1055854,39.610158 84.8866263,37.1970516 86.4371089,32 C87.9875915,26.8029484 86.3349727,23.2561993 81.4792525,21.3597527 C84.4153721,16.5889738 84.4153721,13.0441452 81.4792525,10.7252671 C78.5431329,8.40638893 74.054738,8.40638893 68.014068,10.7252671 C67.2994784,8.42839648 65.8957622,7.19694971 63.8029194,7.03092676 C61.7100766,6.8649038 60.2392589,8.09635056 59.3904662,10.7252671 C54.1676023,1.28670816 47.3584295,-1.92218809 38.9629479,1.0985783 Z" id="Smoke-6"></path>
            </g>
        </g>
    </g>
</svg>