<svg width="91" height="68" xmlns="http://www.w3.org/2000/svg"><path d="M40.963 3.099c-8.396 3.02-11.942 9.076-10.64 18.167-5.462-1.878-10.049-1.18-13.762 2.094-3.713 3.274-4.933 7.697-3.661 13.269-6.31.606-9.886 3.628-10.73 9.065-.845 5.437 1.466 8.857 6.932 10.262 1.663 4.77 4.15 7.154 7.459 7.154 3.31 0 5.381-1.248 6.214-3.746 1.96 3.475 4.476 5.596 7.548 6.366 3.071.77 5.719-.104 7.942-2.62 5.261 2.884 10.248 2.549 14.96-1.007 4.713-3.556 6.772-7.735 6.177-12.537 3.792 2.572 7.512 3.205 11.16 1.901 3.646-1.304 5.824-4.713 6.532-10.228 6.012.371 9.793-2.042 11.343-7.239 1.55-5.197-.102-8.744-4.958-10.64 2.936-4.771 2.936-8.316 0-10.635-2.936-2.319-7.424-2.319-13.465 0-.715-2.297-2.118-3.528-4.211-3.694-2.093-.166-3.564 1.065-4.413 3.694C56.168 3.287 49.358.078 40.963 3.1z" fill="#E6EDA8" stroke="#E6EDA8" stroke-width="4" fill-rule="evenodd" fill-opacity=".1"/></svg>