<?xml version="1.0" encoding="UTF-8"?>
<svg width="912px" height="411px" viewBox="0 0 912 411" version="1.1" xmlns="http://www.w3.org/2000/svg" xmlns:xlink="http://www.w3.org/1999/xlink">
    <!-- Generator: Sketch 50.2 (55047) - http://www.bohemiancoding.com/sketch -->
    <title>ShipPlanet</title>
    <desc>Created with Sketch.</desc>
    <defs>
        <linearGradient x1="50.0035254%" y1="-0.00408792551%" x2="25.8102265%" y2="97.0182799%" id="linearGradient-1">
            <stop stop-color="#3C4262" offset="0%"></stop>
            <stop stop-color="#495172" offset="100%"></stop>
        </linearGradient>
    </defs>
    <g id="Page-1" stroke="none" stroke-width="1" fill="none" fill-rule="evenodd">
        <g id="Desktop-HD-Copy-2" transform="translate(-297.000000, -613.000000)">
            <g id="ShipPlanet" transform="translate(284.000000, 604.000000)">
                <g id="Planet" transform="translate(0.000000, 64.000000)" stroke-width="8">
                    <ellipse id="Oval-3" stroke="url(#linearGradient-1)" fill="#5C6B8F" fill-rule="nonzero" cx="468.9094" cy="485.214462" rx="468.455741" ry="485.158123"></ellipse>
                    <path d="M739.079468,88.8623195 C760.781253,107.335881 743.419825,151.046548 687.096123,219.994322 C602.610569,323.466456 494.101644,389.183879 470.986719,412.20012 C447.871795,435.21636 410.625475,474.889091 454.533738,538.486598 C498.442001,602.084104 580.101276,608.847649 664.788706,601.983156 C702.842534,598.954703 762.900962,587.446583 832.245736,555.849727 C854.553152,545.653936 889.578824,525.060457 937.322751,494.069291" id="Path-11" stroke="#3F4667"></path>
                    <path d="M639.957827,400.591051 C631.983683,408.666925 607.152803,440.869472 614.117562,473.879607 C621.082321,506.889741 652.676082,512.038111 668.624371,512.038111 C684.572659,512.038111 717.377683,496.492054 738.97853,481.652635 C753.311802,471.75969 766.736627,457.929756 779.353944,440.061885 C798.633204,408.767874 809.635504,382.11749 812.360845,360.009785 C816.499324,326.898702 815.590878,310.343161 792.980646,292.374341 C770.370414,274.50647 716.570175,306.204275 697.59373,327.605341 C678.617286,349.006407 647.931971,392.414229 639.957827,400.591051 Z" id="Path-11_1_" stroke="#404768"></path>
                    <path d="M66.8288253,230.392009 C179.577169,242.606768 248.013496,258.758516 272.036867,278.847253 C308.172862,308.929883 312.816035,355.568054 272.036867,390.900003 C231.257699,426.231951 165.344835,397.966392 122.849712,439.557143 C80.3545889,481.147893 83.1808679,504.870773 89.035303,531.117363 C94.889738,557.363953 125.877868,588.758913 183.816587,599.1566 C241.755306,609.554288 319.780794,599.1566 349.557662,620.456718 C379.33453,641.857783 383.674887,657.000047 383.674887,694.048118 C383.674887,730.995241 362.174979,758.150367 337.848792,798.226891 C313.522605,838.303415 314.834806,895.743068 383.674887,889.585215 C452.514967,883.427361 456.552509,835.073066 569.300852,782.176092 C644.500061,746.945092 741.501993,732.206622 860.20571,737.960682" id="Path-12" stroke="#3F4667"></path>
                </g>
                <g id="Ship" transform="translate(239.189405, 0.341432)">
                    <g id="Group" transform="translate(168.224187, 132.236869) rotate(9.000000) translate(-168.224187, -132.236869) translate(15.224187, 23.236869)">
                        <path d="M3.12909458,11.911914 C1.11032388,15.8489025 0.504692675,20.0887363 1.31220095,24.6314153 C2.52346337,31.3949597 3.63378726,34.2215156 9.38728375,45.7296358 C15.1407802,57.2377561 20.4905226,64.2031973 22.8121089,67.3325985 C25.1336952,70.4619996 28.6665439,75.3075239 34.4200404,82.3739136 C38.2557048,87.1184895 42.3941847,91.7621169 46.6336032,96.304796 L61.5725063,113.97077 L97.3047477,119.926727 L124.961906,122.753283 L121.93375,98.7275582 L43.3026315,67.3325985 L3.12909458,11.911914 Z" id="Path-6" fill="#CBD8FF" fill-rule="nonzero"></path>
                        <path d="M3.23003312,11.911914 C1.21126242,15.9498509 0.504692675,20.1896847 1.31220095,24.7323638 C2.52346337,31.4959081 3.63378726,34.322464 9.38728375,45.8305843 C15.1407802,57.3387045 20.4905226,64.2031973 22.8121089,67.4335469 C25.1336952,70.562948 28.6665439,75.4084723 34.4200404,82.474862 C38.2557048,87.2194379 42.3941847,91.8630654 46.6336032,96.304796 L61.5725063,113.97077 L97.3047477,119.926727 L124.961906,122.753283 L97.3047477,111.144214 C71.7672984,99.5351455 52.8917923,88.5317674 40.5772911,77.9321829 C22.2064777,62.0832804 16.7557968,53.401716 9.38728375,41.1869568 C6.46006624,36.3414325 3.23003312,30.6883207 2.22064777,24.7323638 C2.0187707,23.3190858 1.71595509,21.5020142 1.81689363,19.2811489 C2.0187707,17.867871 2.42252484,15.4451088 3.23003312,11.911914 Z" id="Path-6_1_" fill="#23223A" fill-rule="nonzero"></path>
                        <path d="M179.266838,56.026375 L126.07223,28.1646101 C110.628634,22.7133953 98.8188257,18.7764068 90.5418659,16.2526962 C78.1264261,12.4166561 60.1593668,8.1768223 49.4598821,7.06638964 C38.7603974,5.95595699 34.4200404,5.35026644 28.2627898,5.35026644 C22.1055392,5.35026644 5.55161942,6.56164753 3.23003312,12.9213982 C0.908446815,19.2811489 2.42252484,25.1361574 4.74411114,30.3854755 C7.06569745,35.6347935 10.8004232,42.90308 24.2252484,57.3387045 C37.6500735,71.7743291 43.201693,75.5094208 54.6077474,84.5947789 C66.0138019,93.680137 64.8025395,92.4687559 80.5489509,102.664547 C91.0465585,109.428091 101.544166,115.484996 112.142712,120.633366 L176.844313,145.264781 L245.28064,172.722753 L275.057508,129.718724 C273.341553,126.387426 271.625598,123.964664 270.11152,122.349489 C268.597442,120.835263 266.578671,119.421985 263.954269,118.311552 C263.146761,110.437575 260.926113,104.683515 257.191387,101.15032 C253.456661,97.6171255 247.703165,95.6991055 239.930898,95.3962602 C239.426205,94.0839307 237.508373,91.7621169 234.379278,88.3298705 C231.250184,84.9985726 222.872285,80.0520998 209.245583,73.7932976 L179.266838,56.026375 Z" id="Path-4" fill="#23223A" fill-rule="nonzero"></path>
                        <path d="M101.140412,34.8272061 C114.868053,23.0162406 126.677861,14.4356246 136.569838,8.88346127 C153.426573,-0.403793694 173.816157,-1.41327793 190.370077,5.24931802 C206.923997,11.911914 216.31128,22.41055 224.285425,36.5433293 C232.259569,50.6761086 231.048307,73.6923491 231.048307,80.7587388 C231.048307,84.4938304 230.644552,91.5602201 229.937983,101.856959 C229.534229,106.803432 225.698564,110.740421 220.752576,111.144214 C204.097718,112.658441 188.452245,111.346111 173.715219,107.207226 C147.975892,99.9389392 136.771715,93.2763433 117.391516,76.0141629 C107.196724,66.9288048 100.534781,57.5406014 97.4056862,47.6476559 C95.9925468,43.1049768 97.4056862,38.0575557 101.140412,34.8272061 Z" id="Path-2" fill="#C9D6FE" fill-rule="nonzero"></path>
                        <path d="M101.140412,34.8272061 C114.868053,23.0162406 126.677861,14.3346761 136.670776,8.88346127 C141.818642,6.05690541 127.788185,30.4864239 128.494755,42.7011831 C128.797571,48.0514496 130.816341,54.5121487 134.853883,60.2662088 C138.48767,65.5155268 140.809256,69.0487217 148.278708,73.7932976 C202.684578,108.822401 231.250184,77.3264924 231.250184,80.8596872 C231.250184,84.5947789 230.846429,91.6611685 230.13986,101.957908 C229.736106,106.90438 225.900441,110.841369 220.954453,111.245163 C204.299595,112.759389 188.553183,111.44706 173.917096,107.308174 C148.177769,100.039888 136.973592,93.2763433 117.593393,76.1151113 C107.398601,67.0297532 100.736658,57.5406014 97.6075633,47.6476559 C95.9925468,43.0040284 97.4056862,37.9566072 101.140412,34.8272061 Z" id="Path-2_1_" fill="#FFFFFF" fill-rule="nonzero"></path>
                        <path d="M101.140412,34.8272061 C114.868053,23.0162406 126.677861,14.4356246 136.569838,8.88346127 C153.426573,-0.403793694 173.816157,-1.41327793 190.370077,5.24931802 C206.923997,11.911914 214.999079,21.0982205 222.771347,36.1395356 C230.543614,51.1808507 231.149245,73.6923491 231.149245,80.7587388 C231.149245,84.4938304 230.745491,91.5602201 230.038921,101.856959 C229.635167,106.803432 225.799503,110.740421 220.853515,111.144214 C204.198656,112.658441 188.452245,111.346111 173.816157,107.207226 C148.076831,99.9389392 136.872653,93.2763433 117.492455,76.0141629 C107.297663,66.9288048 100.635719,57.5406014 97.5066248,47.6476559 C95.9925468,43.1049768 97.4056862,38.0575557 101.140412,34.8272061 Z" id="Path-2_2_" stroke="#23223A" stroke-width="4"></path>
                        <path d="M137.07453,27.8617649 C132.532296,31.3949597 132.532296,30.8902176 126.274107,37.2499683 C120.015918,43.7106674 119.612164,48.2533464 117.492455,47.0419653 C116.584008,46.5372232 115.877438,45.8305843 115.170868,44.1144611 C114.36336,41.8935957 116.281192,40.4803178 118.804656,36.0385872 C121.731873,31.0921144 131.321034,23.5209827 134.046374,21.8048595 C142.020519,16.6564899 142.928966,17.6659741 145.149613,18.3726131 C146.562753,18.7764068 148.682462,20.3915815 148.884339,20.6944268 C149.48997,21.6029626 141.515826,24.3285701 137.07453,27.8617649 Z" id="Path-8" fill="#23223B" fill-rule="nonzero"></path>
                        <path d="M132.936051,28.366507 C130.715403,30.0826302 130.715403,29.7797849 127.586308,32.9091861 C124.356275,36.0385872 121.22718,40.6822147 120.318734,40.278421 C120.116857,40.1774725 120.318734,39.571782 120.116857,39.3698852 C120.015918,39.1679883 119.91498,38.5622978 119.814041,38.2594525 C119.511225,37.3509167 121.22718,35.5338451 124.154398,32.6063408 C125.971292,30.7892692 130.614464,27.1551259 131.926665,26.3475385 C135.76233,23.7228795 136.065145,23.5209827 137.07453,23.7228795 C137.680162,23.8238279 141.414887,23.117189 141.515826,23.2181374 C141.717703,23.5209827 135.156698,26.6503838 132.936051,28.366507 Z" id="Path-8_1_" fill="#C9D6FE" fill-rule="nonzero"></path>
                        <path d="M33.9153477,129.617776 C39.3660286,123.258025 55.2133786,112.254647 65.4081707,108.519555 C75.6029627,104.784464 88.4221566,105.793948 93.8728375,108.418607 C99.3235184,111.043266 108.407987,121.844747 125.36566,121.844747 C142.323334,121.844747 146.562753,138.198392 154.738774,136.684165 C162.914795,135.169939 163.621365,139.813567 178.964023,138.501237 C194.30668,137.289856 202.684578,142.034432 210.15403,140.520205 C217.623481,139.005979 227.919212,131.333899 242.151545,133.251919 C256.28294,135.068991 277.278156,129.516827 282.526959,129.012085 C285.151361,128.70924 295.850846,146.072369 302.008097,159.397561 C308.266286,172.621804 303.925929,190.590624 299.484633,193.820973 C290.602042,200.079775 280.811004,216.332472 260.623297,217.745749 C240.43559,219.159027 229.837044,200.180724 211.869985,200.180724 C193.902926,200.180724 191.177585,213.102122 167.154214,214.919194 C143.130843,216.837214 140.607379,206.136681 125.36566,206.136681 C110.123942,206.136681 110.123942,211.083153 91.1474971,212.59738 C72.1710525,214.111606 46.8354802,209.770824 30.4834376,200.180724 C14.1313949,190.388727 28.4646669,135.977526 33.9153477,129.617776 Z" id="Path-3" fill="#5C6B8F" fill-rule="nonzero"></path>
                    </g>
                    <path d="M206.622795,94.1848791 C204.90684,99.636094 203.190885,105.087309 201.47493,110.437575 C201.172114,111.346111 201.979623,112.355595 202.888069,112.355595 C206.219041,112.254647 209.146259,111.44706 212.073476,109.730936 C211.265968,109.327143 210.559398,108.822401 209.75189,108.418607 C209.348136,111.749905 208.237812,114.576461 206.420918,117.302068 C205.411533,118.917243 207.934996,120.431469 209.04532,118.816294 C211.165029,115.585945 212.275353,112.153698 212.780046,108.317658 C212.880984,107.106277 211.366906,106.500587 210.45846,107.005329 C208.035935,108.418607 205.61341,109.125246 202.787131,109.226194 C203.291824,109.831885 203.796516,110.538524 204.20027,111.144214 C205.916226,105.692999 207.632181,100.241785 209.348136,94.8915181 C210.155644,93.0744464 207.228426,92.2668591 206.622795,94.1848791 Z" id="Shape" fill="#23223A" fill-rule="nonzero"></path>
                    <path d="M223.479531,119.522933 C221.662637,115.88879 219.946682,112.153698 218.432604,108.317658 C218.129788,108.923349 217.726034,109.529039 217.423219,110.13473 C222.369207,108.822401 227.315195,108.014813 232.46306,107.510071 C233.371507,107.409123 234.380892,106.601535 233.8762,105.592051 C230.848044,98.3237645 227.517072,91.2573748 223.883285,84.2919336 C223.479531,85.099521 222.974838,85.80616 222.571084,86.6137473 C224.993609,86.9165926 226.810502,87.4213347 228.930212,88.5317674 C230.040535,89.0365095 231.655552,88.1279737 231.150859,86.8156442 C228.728334,79.9511514 225.498301,73.6923491 221.258883,67.7363922 C220.148559,66.2221658 217.524157,67.6354437 218.634481,69.2506185 C222.772961,74.9037302 225.902055,80.9606356 228.223642,87.5222832 C228.930212,86.9165926 229.73772,86.4118505 230.44429,85.80616 C227.819888,84.4938304 225.397363,83.7871915 222.470145,83.4843462 C221.258883,83.3833978 220.653252,84.8976241 221.157944,85.80616 C224.690793,92.5697043 227.920826,99.3332487 230.848044,106.399638 C231.352736,105.793948 231.857429,105.087309 232.261183,104.481618 C226.911441,104.885412 221.662637,105.793948 216.413833,107.207226 C215.707263,107.409123 215.101632,108.317658 215.404448,109.024297 C217.019464,113.062234 218.735419,117.100171 220.75419,121.03716 C221.763576,122.854231 224.287039,121.239057 223.479531,119.522933 Z" id="Shape" fill="#23223A" fill-rule="nonzero"></path>
                </g>
                <g id="Cracks" transform="translate(472.000000, 93.000000)" fill="#23223A" fill-rule="nonzero">
                    <path d="M3.62793103,21.3644828 C5.94577586,22.2714655 8.36439655,23.1784483 10.6822414,24.085431 C12.4962069,24.7908621 13.3024138,21.8683621 11.4884483,21.162931 C9.17060345,20.2559483 6.75198276,19.3489655 4.43413793,18.4419828 C2.62017241,17.7365517 1.81396552,20.6590517 3.62793103,21.3644828 Z" id="Shape"></path>
                    <path d="M4.83724138,20.6590517 C7.9612931,18.9458621 10.3799138,16.6280172 12.395431,13.7055172 C12.7985345,13.2016379 12.5969828,12.2946552 12.1938793,11.8915517 C8.66672414,8.66672414 5.74422414,4.93801724 3.32560345,0.806206897 C2.31784483,-0.906982759 -0.302327586,0.604655172 0.705431034,2.31784483 C3.22482759,6.6512069 6.34887931,10.5814655 10.0775862,14.0078448 C9.97681034,13.4031897 9.87603448,12.7985345 9.87603448,12.1938793 C8.16284483,14.7132759 6.04655172,16.5272414 3.42637931,18.0388793 C1.61241379,18.9458621 3.12405172,21.5660345 4.83724138,20.6590517 Z" id="Shape"></path>
                </g>
                <g id="Lines" transform="translate(483.000000, 136.000000)" fill="#E6EDA8" fill-rule="nonzero">
                    <path d="M0.906982759,15.317931 C7.05431034,13.0000862 11.1861207,7.25586207 11.5892241,0.705431034 C11.5892241,0.100775862 10.5814655,0.100775862 10.5814655,0.705431034 C10.2791379,6.75198276 6.34887931,12.1938793 0.705431034,14.3101724 C0.100775862,14.6125 0.302327586,15.6202586 0.906982759,15.317931 Z" id="Shape"></path>
                    <path d="M22.2714655,30.9381897 C25.6978448,31.0389655 28.7211207,28.9226724 29.930431,25.6978448 C30.1319828,25.0931897 29.225,24.7908621 28.9226724,25.3955172 C27.9149138,28.1164655 25.1939655,29.930431 22.2714655,29.8296552 C21.6668103,29.930431 21.6668103,30.9381897 22.2714655,30.9381897 Z" id="Shape"></path>
                </g>
                <g id="Rocks" transform="translate(252.000000, 120.000000)" fill-rule="nonzero">
                    <path d="M270.956466,74.4733621 C268.126633,73.0625 265.397866,75.279569 264.892539,78.202069 C264.589343,80.1168103 264.993604,82.0315517 265.296801,83.9462931 C265.701062,86.7680172 266.307455,89.4889655 266.913848,92.3106897 C267.217044,93.6207759 269.137288,93.0161207 268.834091,91.8068103 C268.227699,89.3881897 267.722371,86.8687931 267.31811,84.4501724 C267.115979,83.0393103 266.711717,81.6284483 266.711717,80.2175862 C266.711717,78.8067241 267.115979,75.0780172 269.74368,76.3881034 C271.057531,76.7912069 272.068186,74.9772414 270.956466,74.4733621 Z" id="Shape" fill="#23223A"></path>
                    <path d="M269.137288,92.4114655 C272.573513,91.4037069 276.414,90.6982759 279.74916,89.2874138 C281.568338,88.4812069 281.770469,87.3726724 281.366207,85.5587069 C280.658749,83.0393103 280.254487,79.7137069 278.132113,77.8997414 C275.908673,76.0857759 272.472447,75.3803448 269.844746,74.4733621 C268.63196,74.0702586 268.126633,75.985 269.339419,76.3881034 C271.360728,77.1943103 273.584167,77.7989655 275.605476,78.7059483 C278.132113,79.9152586 278.435309,82.3338793 279.142767,84.7525 C279.445963,85.8610345 279.951291,86.7680172 278.839571,87.5742241 C278.031047,88.1788793 276.211869,88.380431 275.201215,88.6827586 C273.07884,89.2874138 270.956466,89.892069 268.733026,90.5975 C267.31811,90.7990517 267.823437,92.814569 269.137288,92.4114655 Z" id="Shape" fill="#23223A"></path>
                    <path d="M292.988733,77.1943103 C290.462097,77.4966379 288.541854,79.3106034 288.238657,81.83 C287.73333,85.2563793 290.057835,88.1788793 292.18021,90.6982759 C292.584472,91.1013793 293.190864,91.0006034 293.595126,90.6982759 C296.323893,88.380431 298.648398,85.8610345 300.770773,82.9385345 C301.478231,81.83 299.760118,80.8222414 299.05266,81.9307759 C297.132417,84.6517241 294.807911,87.0703448 292.18021,89.2874138 C292.685537,89.2874138 293.089799,89.2874138 293.595126,89.2874138 C292.382341,87.7757759 290.967424,86.2641379 290.462097,84.3493966 C289.855705,82.2331034 290.462097,79.5121552 293.089799,79.2098276 C294.302584,79.0082759 294.302584,76.9927586 292.988733,77.1943103 Z" id="Shape" fill="#23223A"></path>
                    <path d="M337.760727,64.4965517 C333.111716,64.295 333.212782,69.6361207 334.223436,72.7601724 C335.638352,77.3958621 338.670316,79.2098276 343.319326,77.6981897 C344.633177,77.1943103 347.058748,76.5896552 347.867272,75.279569 C348.776861,73.767931 347.260879,71.9539655 346.654486,70.6438793 C345.744897,68.9306897 344.936374,66.512069 343.218261,65.5043103 C341.399083,64.4965517 338.56925,64.7988793 336.649007,64.6981034 C335.335156,64.5973276 335.335156,66.6128448 336.649007,66.7136207 C337.760727,66.7136207 338.872447,66.8143966 339.984167,66.9151724 C341.803345,67.0159483 342.510803,67.3182759 343.521457,68.9306897 C344.329981,70.14 346.553421,73.4656034 345.542766,74.5741379 C344.936374,75.1787931 343.319326,75.5818966 342.510803,75.7834483 C340.590559,76.3881034 338.670316,76.4888793 337.356465,74.6749138 C336.244745,73.0625 334.021305,66.3105172 337.861792,66.512069 C339.074578,66.512069 339.074578,64.4965517 337.760727,64.4965517 Z" id="Shape" fill="#23223A"></path>
                    <path d="M333.718109,46.8607759 C331.6968,48.5739655 330.180818,51.7987931 332.303193,54.1166379 C333.92024,55.9306034 337.2554,55.4267241 337.760727,52.8065517 C337.962858,51.4964655 336.042614,50.9925862 335.840483,52.3026724 C335.537287,53.9150862 333.617043,53.1088793 333.414913,51.899569 C333.111716,50.387931 334.223436,49.1786207 335.234091,48.2716379 C336.14368,47.3646552 334.627698,45.9537931 333.718109,46.8607759 Z" id="Shape" fill="#23223A"></path>
                    <path d="M231.743072,81.7292241 C226.790865,83.0393103 226.083407,88.9850862 229.317501,92.4114655 C232.147334,95.4347414 238.110195,95.3339655 238.413392,90.3959483 C238.413392,89.7912931 237.402737,89.7912931 237.402737,90.3959483 C237.200606,95.4347414 230.934548,93.6207759 229.317501,90.6982759 C227.599389,87.675 228.508978,83.7447414 232.147334,82.7369828 C232.652661,82.535431 232.349465,81.6284483 231.743072,81.7292241 Z" id="Shape" fill="#23223A"></path>
                    <path d="M244.780515,79.9152586 C242.354944,80.1168103 240.535766,82.2331034 240.636831,84.7525 C240.838962,87.1711207 243.062402,88.7835345 245.285842,88.9850862 C247.913544,89.1866379 250.238049,87.1711207 250.743376,84.5509483 C251.248703,81.83 249.429525,79.4113793 246.902889,78.5043966 C246.296496,78.3028448 245.9933,79.2098276 246.599693,79.5121552 C250.844442,81.0237931 250.541245,87.8765517 245.690104,88.0781034 C244.073057,88.0781034 242.253879,87.1711207 241.748551,85.5587069 C241.142159,83.5431897 242.557075,81.2253448 244.679449,81.124569 C245.386907,80.8222414 245.386907,79.8144828 244.780515,79.9152586 Z" id="Shape" fill="#23223A"></path>
                    <path d="M252.360423,91.2021552 C251.450834,94.6285345 251.248703,99.1634483 253.168947,102.388276 C254.684929,104.907672 258.020088,103.396034 259.940332,102.2875 C262.466968,100.876638 263.881884,98.5587931 262.770164,95.737069 C261.557379,92.6130172 258.121154,91.5044828 255.08919,91.302931 C254.482798,91.2021552 254.482798,92.2099138 255.08919,92.3106897 C257.514761,92.5122414 260.344594,93.2176724 261.557379,95.6362931 C263.073361,98.4580172 261.254183,100.57431 258.828612,101.783621 C257.919023,102.186724 256.605172,102.992931 255.594518,102.892155 C253.674274,102.791379 253.270012,100.473534 252.966816,99.0626724 C252.461489,96.5432759 252.562554,94.0238793 253.270012,91.6052586 C253.472143,90.8998276 252.461489,90.5975 252.360423,91.2021552 Z" id="Shape" fill="#23223A"></path>
                    <path d="M237.604868,95.0316379 C235.583559,96.8456034 234.977166,99.9696552 236.291017,102.2875 C236.998475,103.49681 238.211261,104.605345 239.626177,104.706121 C241.142159,104.806897 242.051748,103.799138 243.062402,102.892155 C245.285842,100.57431 247.812478,97.2487069 245.892235,94.0238793 C243.971991,90.5975 239.929373,92.4114655 237.503803,94.225431 C236.998475,94.6285345 237.503803,95.4347414 238.00913,95.1324138 C240.030439,93.6207759 244.073057,91.4037069 245.285842,95.2331897 C246.094366,97.7525862 244.376253,99.9696552 242.759206,101.682845 C241.849617,102.589828 240.838962,104.00069 239.221915,103.698362 C238.00913,103.396034 237.099541,102.085948 236.695279,100.977414 C236.088886,99.0626724 236.695279,97.0471552 238.211261,95.737069 C238.817653,95.3339655 238.110195,94.6285345 237.604868,95.0316379 Z" id="Shape" fill="#23223A"></path>
                    <path d="M42.7506845,18.8450862 C39.8197865,17.8373276 37.7984775,20.4575 37.4952812,23.0776724 C36.9899539,27.9149138 38.5059356,33.3568103 39.8197865,37.8917241 C39.9208519,38.1940517 40.1229828,38.2948276 40.4261792,38.1940517 C43.7613389,37.3878448 47.8039568,36.6824138 50.9369857,34.9692241 C53.3625565,33.5583621 53.6657528,31.3412931 53.261491,28.8218966 C52.2508366,22.9768966 49.1178077,17.3334483 42.2453572,18.240431 C41.6389645,18.3412069 41.6389645,19.3489655 42.2453572,19.2481897 C48.2082186,18.5427586 51.0380512,23.1784483 52.0487057,28.3180172 C52.351902,29.930431 52.7561638,31.8451724 51.442313,33.3568103 C50.4316585,34.364569 48.8146113,34.7676724 47.5007605,35.1707759 C45.0751898,35.9769828 42.649619,36.5816379 40.1229828,37.1862931 C40.3251137,37.287069 40.5272446,37.3878448 40.7293755,37.4886207 C39.9208519,34.7676724 35.5750377,17.2326724 42.4474881,19.6512931 C43.0538808,20.0543966 43.3570771,19.0466379 42.7506845,18.8450862 Z" id="Shape" fill="#23223A"></path>
                    <path d="M40.3251137,1.10853448 C38.1016739,3.02327586 36.4846267,6.24810345 37.0910194,9.17060345 C37.6974121,12.1938793 41.4368336,11.2868966 43.7613389,11.2868966 C44.7719934,11.2868966 45.7826479,11.2868966 46.2879751,10.2791379 C46.7933024,9.17060345 46.5911715,7.65896552 46.1869097,6.6512069 C45.2773207,4.03103448 43.0538808,2.1162931 40.4261792,1.71318966 C39.8197865,1.61241379 39.5165901,2.62017241 40.1229828,2.72094828 C42.0432263,3.02327586 43.6602735,4.03103448 44.5698625,5.64344828 C45.0751898,6.44965517 45.580517,7.65896552 45.4794515,8.56594828 C45.2773207,10.1783621 44.0645353,10.3799138 42.7506845,10.2791379 C41.8410954,10.2791379 41.0325718,10.2791379 40.1229828,10.2791379 C38.9101974,10.2791379 38.3038047,10.3799138 38.0006084,8.66672414 C37.899543,8.26362069 38.0006084,7.86051724 38.0006084,7.45741379 C38.2027393,5.24034483 39.3144592,3.22482759 40.9315064,1.81396552 C41.5378991,1.41086207 40.7293755,0.705431034 40.3251137,1.10853448 Z" id="Shape" fill="#23223A"></path>
                    <path d="M41.1336373,1.31008621 C43.0538808,1.71318966 44.4687971,2.9225 45.2773207,4.73646552 C45.4794515,4.53491379 45.7826479,4.23258621 45.9847788,4.03103448 C45.0751898,3.52715517 44.4687971,2.9225 43.9634698,2.1162931 C43.7613389,2.31784483 43.4581426,2.62017241 43.2560117,2.82172414 C45.0751898,4.03103448 45.9847788,5.94577586 45.7826479,8.06206897 C45.6815824,8.66672414 46.6922369,8.66672414 46.7933024,8.06206897 C46.9954333,5.54267241 45.8837133,3.32560345 43.7613389,1.91474138 C43.3570771,1.61241379 42.8517499,2.21706897 43.0538808,2.62017241 C43.6602735,3.62793103 44.3677316,4.33336207 45.3783861,4.93801724 C45.8837133,5.24034483 46.2879751,4.73646552 46.0858442,4.23258621 C45.2773207,2.21706897 43.559208,0.806206897 41.3357682,0.403103448 C40.7293755,0.201551724 40.4261792,1.20931034 41.1336373,1.31008621 Z" id="Shape" fill="#23223A"></path>
                    <path d="M21.3248095,4.93801724 C16.5747335,8.66672414 13.3406391,14.1086207 12.5321155,20.0543966 C12.2289192,21.8683621 12.2289192,23.38 14.2502282,23.9846552 C15.564079,24.3877586 17.2821916,24.1862069 18.5960424,24.2869828 C20.5162859,24.3877586 22.5375949,24.3877586 24.4578384,24.4885345 C26.7823437,24.5893103 28.5004563,24.4885345 29.4100453,22.1706897 C30.4206998,19.6512931 31.0270925,16.6280172 30.7238962,13.907069 C30.1175035,8.66672414 25.3674274,5.24034483 20.1120241,6.34887931 C19.5056314,6.44965517 19.7077623,7.45741379 20.4152205,7.35663793 C25.8727547,6.24810345 29.9153726,10.3799138 29.8143071,15.6202586 C29.8143071,17.3334483 29.4100453,20.2559483 28.3993909,21.8683621 C26.8834091,24.2869828 22.8407912,23.38 20.4152205,23.2792241 C18.3939115,23.1784483 13.6438355,23.9846552 13.2395737,21.2637069 C12.9363773,19.5505172 14.0480973,16.829569 14.6544899,15.317931 C16.1704717,11.4884483 18.6971079,8.16284483 21.9312022,5.54267241 C22.5375949,5.24034483 21.8301367,4.53491379 21.3248095,4.93801724 Z" id="Shape" fill="#23223A"></path>
                    <path d="M23.245053,5.74422414 C24.8621002,5.44189655 26.0748856,5.845 27.3887364,6.75198276 C27.4898018,6.44965517 27.6919327,6.14732759 27.7929982,5.845 C26.6812782,5.44189655 25.5695583,5.13956897 24.4578384,4.73646552 C23.9525111,4.53491379 23.5482494,5.44189655 24.0535766,5.64344828 C26.9844746,6.85275862 30.3196344,8.96905172 30.6228307,12.4962069 C30.9260271,15.8218103 28.5004563,19.9536207 27.3887364,23.0776724 C27.1866055,23.6823276 28.0961945,23.9846552 28.3993909,23.38 C30.016438,19.2481897 31.8356161,14.3101724 30.016438,9.87603448 C28.7025872,6.75198276 25.9738201,4.53491379 22.5375949,4.63568966 C21.9312022,4.63568966 21.9312022,5.64344828 22.5375949,5.64344828 C26.3780819,5.44189655 29.106849,8.7675 29.6121762,12.2946552 C30.1175035,16.0233621 28.7025872,19.6512931 27.3887364,23.0776724 C27.6919327,23.1784483 27.9951291,23.2792241 28.3993909,23.38 C29.2079144,21.162931 30.016438,18.8450862 30.8249616,16.6280172 C31.4313543,14.9148276 31.9366815,13.2016379 31.4313543,11.3876724 C30.5217653,8.16284483 27.3887364,6.14732759 24.4578384,4.83724138 C24.3567729,5.13956897 24.154642,5.44189655 24.0535766,5.74422414 C25.1652965,6.14732759 26.2770164,6.44965517 27.3887364,6.85275862 C27.9951291,7.05431034 28.19726,6.24810345 27.7929982,5.94577586 C26.2770164,4.83724138 24.7610347,4.53491379 22.9418567,4.83724138 C22.335464,4.83724138 22.6386603,5.845 23.245053,5.74422414 Z" id="Shape" fill="#23223A"></path>
                    <path d="M4.24474881,6.34887931 C4.75007605,5.64344828 4.14368336,4.83724138 3.33515978,4.83724138 C1.92024351,4.93801724 1.21278537,7.35663793 0.909589031,8.46517241 C0.505327239,9.87603448 -4.27435864e-14,11.7907759 0.909589031,13.1008621 C1.71811261,14.3101724 3.23409433,14.8140517 4.6490106,14.7132759 C7.1756468,14.5117241 9.702283,12.395431 9.2980212,9.67448276 C8.99482486,6.6512069 5.55859963,4.53491379 2.72876709,5.54267241 C2.12237441,5.74422414 2.42557075,6.75198276 3.03196344,6.55043103 C6.9735159,5.13956897 10.5108066,10.6822414 6.56925411,13.1008621 C5.25540329,13.907069 3.03196344,14.1086207 1.92024351,12.7985345 C0.404261792,11.0853448 2.22343985,7.35663793 3.33515978,5.845 C3.03196344,6.34887931 3.84048702,6.85275862 4.24474881,6.34887931 Z" id="Shape" fill="#23223A"></path>
                    <path d="M136.438355,73.5663793 C137.044747,76.4888793 133.810653,79.1090517 135.326635,81.9307759 C136.034093,83.2408621 137.550075,84.1478448 138.661794,84.9540517 C140.076711,86.0625862 141.390562,87.1711207 142.906543,88.0781034 C145.129983,89.4889655 148.161947,90.2951724 150.284321,88.4812069 C152.507761,86.6672414 152.507761,82.6362069 152.608826,79.9152586 C152.709892,76.690431 151.800303,73.8687069 149.273667,71.8531897 C147.151292,70.14 144.220394,68.6283621 141.390562,69.0314655 C138.661794,69.434569 137.145813,71.6516379 136.135158,74.0702586 C135.023438,76.7912069 134.214915,79.2098276 136.53942,81.3261207 C139.066056,83.6439655 142.704412,87.3726724 146.241703,87.9773276 C148.768339,88.380431 151.294975,86.7680172 151.19391,84.1478448 C151.19391,83.5431897 150.183256,83.5431897 150.183256,84.1478448 C150.183256,87.5742241 146.241703,87.2718966 144.119329,86.1633621 C142.805478,85.457931 141.693758,84.4501724 140.582038,83.4424138 C139.470318,82.4346552 138.156467,81.6284483 137.145813,80.6206897 C135.730897,79.1090517 135.933027,77.0935345 136.640486,75.279569 C137.752205,71.9539655 139.975645,69.1322414 144.018263,70.2407759 C147.151292,71.1477586 150.486452,73.5663793 151.19391,76.8919828 C151.800303,79.4113793 151.598172,82.8377586 150.789648,85.3571552 C149.071536,91.1013793 143.512936,87.4734483 140.582038,85.2563793 C138.358598,83.5431897 135.124504,81.9307759 136.034093,78.6051724 C136.53942,76.690431 137.65114,75.279569 137.246878,73.2640517 C137.347944,72.6593966 136.337289,72.8609483 136.438355,73.5663793 Z" id="Shape" fill="#23223A"></path>
                    <g id="Group" transform="translate(70.745814, 12.093103)" fill="#3F4667">
                        <path d="M4.04261792,9.06982759 C3.73942157,6.85275862 5.55859963,4.43413793 7.88310493,4.33336207 C10.2076102,4.23258621 12.3299846,6.24810345 12.3299846,8.46517241 C12.3299846,9.27137931 12.0267883,10.1783621 11.4203956,10.6822414 C10.4097411,11.69 8.48949762,11.4884483 7.47884314,10.4806897 C6.46818866,9.47293103 6.16499232,7.86051724 6.36712322,6.44965517" id="Shape"></path>
                        <path d="M7.57990859,9.06982759 C7.57990859,8.66672414 7.47884314,8.16284483 7.88310493,7.86051724 C8.38843217,7.55818966 8.28736673,7.86051724 8.59056307,8.06206897 C9.19695576,8.46517241 8.79269397,8.46517241 8.79269397,8.46517241 C8.59056307,8.46517241 10.2076102,7.35663793 10.0054793,7.86051724 C9.90441389,8.06206897 10.0054793,6.55043103 10.0054793,6.34887931 C10.2076102,4.43413793 8.18630128,2.82172414 6.46818866,2.82172414 C4.34581426,2.82172414 3.13302888,4.43413793 2.93089799,6.34887931 C2.42557075,10.2791379 4.95220695,14.3101724 8.99482486,14.7132759 C13.54277,15.2171552 16.7768643,10.7830172 15.6651444,6.55043103 C14.6544899,2.72094828 10.8140029,0.201551724 6.9735159,0.806206897 C3.13302888,1.41086207 0.202130896,5.13956897 0.505327239,8.96905172 C0.707458135,10.8837931 2.02130896,12.4962069 4.04261792,12.4962069 C5.86179598,12.5969828 7.78203949,10.984569 7.57990859,9.06982759 Z" id="Shape"></path>
                    </g>
                    <g id="Group" transform="translate(68.716724, 30.232759)" fill="#3F4667">
                        <path d="M4.45466062,4.33336207 C3.3429407,6.75198276 3.24187525,9.67448276 4.25252973,12.1938793 C6.17277324,11.9923276 8.09301675,11.7907759 10.0132603,11.5892241 C11.8324383,11.3876724 14.1569436,10.8837931 14.6622709,9.06982759 C15.1675981,7.55818966 14.0558782,5.94577586 12.6409619,5.24034483 C11.2260456,4.53491379 9.60899846,4.63568966 7.9919513,4.63568966 C6.88023137,4.63568966 5.26318421,5.34112069 5.667446,6.34887931" id="Shape"></path>
                        <path d="M1.01843539,3.32560345 C-0.295415428,6.44965517 -0.295415428,9.97681034 0.816304499,13.1008621 C1.32163174,14.4109483 2.63548256,15.8218103 4.25252973,15.7210345 C7.58768951,15.317931 11.8324383,15.5194828 14.8644018,13.8062931 C17.8963652,12.0931034 19.3112815,8.46517241 17.5931688,5.34112069 C14.5612054,-0.302327586 1.22056629,-1.10853448 2.33228622,7.35663793 C2.63548256,9.27137931 5.06105331,10.2791379 6.67810048,9.77525862 C8.69940943,9.17060345 9.40686757,7.35663793 9.10367122,5.44189655 C9.10367122,5.34112069 9.10367122,5.13956897 9.00260578,5.0387931 C9.00260578,5.64344828 9.00260578,6.24810345 9.00260578,6.95353448 C9.00260578,6.85275862 9.10367122,6.75198276 9.10367122,6.55043103 C8.80047488,7.05431034 8.49727854,7.55818966 8.19408219,8.06206897 C7.89088585,8.36439655 7.38555861,8.06206897 8.59834399,8.16284483 C9.20473667,8.16284483 9.81112936,8.06206897 10.3164566,8.26362069 C10.417522,8.26362069 11.1249802,8.56594828 11.1249802,8.56594828 C11.4281765,8.86827586 11.4281765,8.66672414 11.3271111,7.75974138 C11.6303074,7.45741379 11.7313729,7.45741379 11.4281765,7.65896552 C10.9228493,7.55818966 9.71006391,8.06206897 9.10367122,8.16284483 C7.48662406,8.36439655 5.76851144,8.56594828 4.15146428,8.66672414 C5.26318421,9.5737069 6.47596958,10.3799138 7.58768951,11.2868966 C6.77916592,9.17060345 6.88023137,7.35663793 7.7898204,5.24034483 C8.49727854,3.52715517 6.98129682,1.41086207 5.36424965,0.906982759 C3.3429407,0.302327586 1.72589353,1.61241379 1.01843539,3.32560345 Z" id="Shape"></path>
                    </g>
                    <g id="Group" transform="translate(90.958903, 17.131897)" fill="#3F4667">
                        <path d="M6.36712322,3.82948276 C5.35646874,5.0387931 4.24474881,6.34887931 4.24474881,7.86051724 C4.24474881,9.47293103 5.86179598,11.0853448 7.27671225,10.3799138 C8.38843217,9.77525862 8.59056307,8.26362069 9.702283,7.55818966 C10.1065448,7.35663793 10.611872,7.25586207 10.9150684,6.95353448 C11.723592,6.24810345 11.2182647,4.73646552 10.2076102,4.23258621 C9.19695576,3.7287069 7.98417038,4.03103448 6.87245046,4.23258621" id="Shape"></path>
                        <path d="M3.84048702,1.31008621 C1.51598172,3.93025862 -0.505327239,7.45741379 1.41491627,10.984569 C3.43622523,14.5117241 8.18630128,15.1163793 10.7129375,11.8915517 C10.9150684,11.5892241 11.1171993,11.2868966 11.4203956,10.984569 C11.5214611,10.8837931 11.5214611,10.7830172 11.6225265,10.6822414 C11.8246574,10.3799138 11.9257228,10.2791379 11.723592,10.4806897 C11.723592,10.4806897 11.2182647,10.7830172 11.2182647,10.7830172 C11.4203956,10.4806897 12.2289192,10.3799138 12.5321155,10.1783621 C14.2502282,9.06982759 15.0587517,7.25586207 14.7555554,5.24034483 C14.452359,3.42637931 13.2395737,1.81396552 11.5214611,1.10853448 C9.702283,0.302327586 7.78203949,0.50387931 5.96286142,1.00775862 C4.14368336,1.41086207 3.03196344,3.52715517 3.53729068,5.34112069 C4.04261792,7.25586207 6.06392687,8.26362069 7.88310493,7.75974138 C8.18630128,7.65896552 8.89375941,7.45741379 8.99482486,7.55818966 C8.89375941,7.45741379 8.28736673,7.25586207 8.08523583,6.95353448 C7.98417038,6.6512069 7.88310493,6.34887931 7.88310493,6.04655172 C8.18630128,5.44189655 8.59056307,4.83724138 8.89375941,4.23258621 C9.2980212,4.13181034 9.19695576,4.13181034 8.69162852,4.33336207 C8.48949762,4.43413793 8.28736673,4.53491379 8.08523583,4.63568966 C7.68097404,4.83724138 7.27671225,5.13956897 6.9735159,5.44189655 C6.46818866,5.94577586 6.06392687,6.55043103 5.65966508,7.05431034 C5.55859963,7.25586207 5.35646874,7.45741379 5.25540329,7.65896552 C5.15433784,7.86051724 5.15433784,7.86051724 5.25540329,7.75974138 C5.45753419,7.45741379 5.65966508,7.35663793 6.06392687,7.25586207 C6.77138501,7.05431034 7.27671225,7.25586207 7.68097404,7.65896552 C7.98417038,7.9612931 7.57990859,8.36439655 7.88310493,7.86051724 C8.18630128,7.25586207 8.48949762,6.95353448 8.89375941,6.55043103 C10.1065448,5.13956897 10.3086757,3.02327586 8.89375941,1.61241379 C7.57990859,0.100775862 5.15433784,-0.100775862 3.84048702,1.31008621 Z" id="Shape"></path>
                    </g>
                    <g id="Group" transform="translate(170.800607, 53.411207)" fill="#3F4667">
                        <path d="M6.77138501,4.13181034 C4.8511415,5.44189655 3.73942157,7.86051724 4.14368336,10.1783621 C4.54794515,12.4962069 6.46818866,14.4109483 8.79269397,14.9148276 C9.19695576,15.0156034 9.702283,15.0156034 10.2076102,14.9148276 C10.7129375,14.7132759 11.0161338,14.3101724 11.3193302,13.907069 C13.2395737,10.8837931 10.7129375,6.24810345 7.1756468,6.14732759" id="Shape"></path>
                        <path d="M4.95220695,1.10853448 C1.61704717,3.52715517 -0.404261792,7.55818966 0.808523583,11.69 C1.92024351,15.5194828 6.16499232,19.1474138 10.3086757,18.3412069 C14.3512936,17.535 15.9683408,13.0000862 15.0587517,9.37215517 C14.0480973,5.54267241 10.9150684,2.9225 6.9735159,2.62017241 C2.42557075,2.21706897 2.42557075,9.27137931 6.9735159,9.67448276 C7.47884314,9.67448276 7.98417038,10.4806897 8.18630128,10.8837931 C8.28736673,11.0853448 8.18630128,11.3876724 8.28736673,11.4884483 C8.38843217,11.5892241 8.38843217,11.7907759 8.18630128,11.9923276 C7.78203949,12.2946552 8.08523583,12.0931034 9.09589031,11.2868966 C9.09589031,11.1861207 8.38843217,10.8837931 8.18630128,10.6822414 C7.88310493,10.3799138 7.57990859,9.97681034 7.47884314,9.5737069 C7.27671225,8.7675 7.68097404,7.65896552 8.38843217,7.15508621 C9.90441389,6.04655172 10.7129375,4.13181034 9.702283,2.31784483 C8.89375941,0.806206897 6.56925411,1.66533454e-15 4.95220695,1.10853448 Z" id="Shape"></path>
                    </g>
                    <g id="Group" transform="translate(191.013696, 57.442241)" fill="#3F4667">
                        <path d="M4.14368336,7.65896552 C3.73942157,8.16284483 3.94155247,9.06982759 4.54794515,9.47293103 C5.15433784,9.87603448 5.86179598,9.77525862 6.56925411,9.5737069 C7.88310493,9.06982759 8.89375941,7.75974138 8.79269397,6.34887931 C8.69162852,4.93801724 7.47884314,3.7287069 6.06392687,3.82948276 C5.05327239,4.53491379 4.44687971,5.845 4.54794515,7.05431034" id="Shape"></path>
                        <path d="M1.11171993,5.845 C-0.909589031,9.27137931 1.92024351,13.5039655 5.86179598,13.2016379 C9.19695576,13.0000862 11.9257228,10.2791379 12.2289192,6.95353448 C12.5321155,4.03103448 10.3086757,1.00775862 7.3777777,0.403103448 C5.15433784,-0.100775862 3.43622523,0.906982759 2.12237441,2.72094828 C1.21278537,3.93025862 0.808523583,5.54267241 0.808523583,7.05431034 C0.808523583,8.86827586 2.42557075,10.6822414 4.34581426,10.5814655 C6.26605777,10.4806897 7.88310493,9.06982759 7.88310493,7.05431034 C7.88310493,6.6512069 7.88310493,6.55043103 7.88310493,6.95353448 C7.98417038,6.55043103 7.98417038,6.55043103 7.88310493,6.85275862 C8.08523583,6.55043103 8.08523583,6.44965517 7.88310493,6.75198276 C8.08523583,6.55043103 8.18630128,6.44965517 8.38843217,6.34887931 C7.57990859,6.6512069 6.77138501,7.05431034 5.86179598,7.35663793 C5.76073053,7.35663793 5.05327239,6.95353448 5.45753419,7.25586207 C5.76073053,7.45741379 5.35646874,7.15508621 5.25540329,7.05431034 C5.15433784,6.75198276 5.15433784,6.6512069 5.05327239,6.34887931 C5.15433784,6.85275862 5.15433784,6.55043103 5.15433784,6.24810345 C5.15433784,5.94577586 4.95220695,6.55043103 5.15433784,6.24810345 C5.35646874,5.94577586 4.75007605,6.6512069 5.25540329,6.14732759 C4.8511415,6.55043103 5.05327239,6.04655172 5.15433784,6.14732759 C5.55859963,6.04655172 5.96286142,6.14732759 6.26605777,6.6512069 C7.47884314,7.05431034 7.68097404,7.9612931 7.07458135,9.37215517 C7.98417038,7.75974138 7.47884314,5.44189655 5.76073053,4.53491379 C4.24474881,3.7287069 2.12237441,4.23258621 1.11171993,5.845 Z" id="Shape"></path>
                    </g>
                    <g id="Group" transform="translate(180.907152, 71.550862)" fill="#3F4667">
                        <path d="M5.86179598,3.82948276 C5.05327239,4.73646552 4.34581426,5.64344828 3.53729068,6.44965517 C4.44687971,7.55818966 5.35646874,8.66672414 6.77138501,9.17060345 C8.08523583,9.67448276 9.90441389,9.27137931 10.4097411,7.86051724 C10.8140029,6.75198276 10.1065448,5.54267241 9.19695576,4.83724138 C8.18630128,4.33336207 6.9735159,4.03103448 5.86179598,3.82948276" id="Shape"></path>
                        <path d="M3.33515978,1.41086207 C2.5266362,2.31784483 1.81917806,3.22482759 1.01065448,4.03103448 C-0.303196344,5.64344828 -0.303196344,7.45741379 1.01065448,8.96905172 C2.42557075,10.6822414 4.14368336,12.2946552 6.36712322,12.7985345 C8.59056307,13.2016379 10.9150684,12.6977586 12.4310501,10.984569 C14.2502282,9.06982759 14.2502282,6.14732759 12.9363773,3.93025862 C11.5214611,1.71318966 9.09589031,0.806206897 6.67031956,0.403103448 C4.75007605,0.100775862 2.82983254,0.906982759 2.3245053,2.82172414 C1.81917806,4.53491379 2.93089799,6.85275862 4.75007605,7.15508621 C5.35646874,7.25586207 6.56925411,7.45741379 6.87245046,7.65896552 C7.3777777,7.9612931 6.87245046,8.06206897 6.87245046,7.15508621 C6.87245046,6.75198276 7.1756468,6.24810345 7.47884314,6.04655172 C7.68097404,5.94577586 8.38843217,5.845 7.68097404,5.94577586 C8.18630128,5.94577586 8.18630128,6.14732759 7.68097404,5.845 C7.1756468,5.54267241 6.46818866,4.63568966 5.96286142,4.03103448 C5.96286142,5.64344828 5.96286142,7.35663793 5.96286142,8.96905172 C6.77138501,8.06206897 7.47884314,7.15508621 8.28736673,6.34887931 C9.5001521,4.93801724 9.702283,2.82172414 8.28736673,1.41086207 C7.07458135,0.100775862 4.6490106,-0.100775862 3.33515978,1.41086207 Z" id="Shape"></path>
                    </g>
                    <g id="Group" transform="translate(274.898018, 27.209483)" fill="#3F4667">
                        <path d="M3.63835612,5.845 C3.84048702,7.05431034 4.14368336,8.16284483 4.34581426,9.37215517 C6.16499232,9.87603448 8.38843217,8.56594828 8.38843217,6.75198276 C8.38843217,4.83724138 5.45753419,3.7287069 4.34581426,5.34112069" id="Shape"></path>
                        <path d="M0.202130896,6.75198276 C0.404261792,7.9612931 0.707458135,9.06982759 0.909589031,10.2791379 C1.11171993,11.4884483 2.22343985,12.4962069 3.33515978,12.6977586 C7.78203949,13.8062931 13.0374428,10.0775862 11.723592,5.24034483 C11.1171993,3.22482759 9.39908665,1.71318966 7.47884314,1.10853448 C5.05327239,0.403103448 2.82983254,1.41086207 1.41491627,3.42637931 C0.303196344,4.93801724 1.11171993,7.45741379 2.72876709,8.26362069 C4.54794515,9.27137931 6.36712322,8.56594828 7.57990859,6.95353448 C7.3777777,7.25586207 7.1756468,7.55818966 6.87245046,7.65896552 C6.36712322,7.86051724 6.16499232,7.9612931 6.46818866,7.86051724 C6.67031956,7.86051724 6.56925411,7.86051724 6.26605777,7.86051724 C5.55859963,7.9612931 6.67031956,7.9612931 5.86179598,7.86051724 C5.25540329,7.75974138 5.76073053,7.86051724 5.86179598,7.86051724 C6.26605777,7.9612931 5.15433784,7.45741379 5.65966508,7.75974138 C5.55859963,7.65896552 5.05327239,7.25586207 5.35646874,7.55818966 C5.65966508,7.86051724 5.25540329,7.45741379 5.15433784,7.25586207 C5.05327239,7.05431034 5.05327239,6.95353448 4.95220695,6.75198276 C5.05327239,7.05431034 5.05327239,6.95353448 4.95220695,6.6512069 C4.8511415,6.44965517 4.8511415,6.34887931 4.95220695,6.14732759 C5.05327239,5.845 5.05327239,5.845 4.95220695,6.04655172 C4.8511415,6.44965517 5.25540329,5.44189655 5.05327239,5.845 C4.95220695,6.04655172 4.95220695,5.94577586 5.15433784,5.74422414 C5.35646874,5.54267241 5.35646874,5.54267241 5.15433784,5.74422414 C5.05327239,5.845 5.05327239,5.845 4.95220695,5.94577586 C5.05327239,5.845 5.15433784,5.74422414 5.25540329,5.64344828 C4.75007605,5.94577586 5.45753419,5.54267241 5.45753419,5.64344828 C5.45753419,5.64344828 4.95220695,5.74422414 5.05327239,5.74422414 C5.05327239,5.54267241 5.86179598,5.74422414 5.15433784,5.74422414 C4.6490106,5.64344828 6.06392687,5.94577586 5.25540329,5.74422414 C6.06392687,6.55043103 6.87245046,7.35663793 7.68097404,8.16284483 C7.47884314,6.95353448 7.1756468,5.845 6.9735159,4.63568966 C6.56925411,2.82172414 4.34581426,1.61241379 2.62770164,2.21706897 C0.707458135,3.02327586 -0.202130896,4.83724138 0.202130896,6.75198276 Z" id="Shape"></path>
                    </g>
                    <g id="Group" transform="translate(277.929982, 40.310345)" fill="#3F4667">
                        <path d="M3.84048702,5.13956897 C3.94155247,6.04655172 4.24474881,6.85275862 4.75007605,7.65896552 C5.76073053,7.75974138 6.67031956,6.85275862 6.67031956,5.94577586 C6.67031956,5.0387931 5.65966508,4.13181034 4.6490106,4.33336207" id="Shape"></path>
                        <path d="M0.505327239,6.14732759 C0.808523583,7.86051724 1.51598172,9.77525862 3.03196344,10.7830172 C5.05327239,12.0931034 7.88310493,10.8837931 9.19695576,9.17060345 C10.5108066,7.55818966 10.611872,5.24034483 9.60121755,3.52715517 C8.69162852,1.91474138 6.67031956,0.705431034 4.75007605,0.906982759 C3.84048702,1.00775862 2.93089799,1.20931034 2.22343985,1.91474138 C1.61704717,2.51939655 1.11171993,3.52715517 1.21278537,4.43413793 C1.31385082,6.24810345 2.72876709,8.16284483 4.75007605,7.9612931 C5.35646874,7.86051724 4.04261792,7.75974138 4.44687971,7.86051724 C4.8511415,7.9612931 3.63835612,7.45741379 4.14368336,7.75974138 C4.04261792,7.65896552 3.84048702,7.55818966 3.73942157,7.45741379 C3.43622523,6.95353448 3.33515978,6.85275862 3.43622523,7.05431034 C3.53729068,7.25586207 3.53729068,7.15508621 3.33515978,6.85275862 C3.23409433,6.55043103 3.13302888,6.34887931 3.13302888,6.04655172 C3.13302888,5.94577586 3.33515978,5.13956897 3.13302888,5.64344828 C3.23409433,5.34112069 3.33515978,5.13956897 3.53729068,4.93801724 C3.73942157,4.73646552 3.73942157,4.63568966 3.63835612,4.83724138 C3.33515978,5.13956897 4.34581426,4.43413793 3.84048702,4.63568966 C4.04261792,4.53491379 4.14368336,4.43413793 4.34581426,4.43413793 C4.95220695,4.33336207 5.15433784,4.33336207 4.75007605,4.33336207 C5.76073053,4.93801724 6.77138501,5.54267241 7.78203949,6.04655172 C7.68097404,5.94577586 7.57990859,5.54267241 7.47884314,5.44189655 C7.68097404,5.64344828 7.78203949,6.14732759 7.57990859,5.54267241 C7.47884314,5.13956897 7.3777777,4.73646552 7.27671225,4.33336207 C7.1756468,3.52715517 6.36712322,2.62017241 5.65966508,2.21706897 C4.8511415,1.81396552 3.73942157,1.61241379 2.93089799,1.81396552 C2.12237441,2.1162931 1.21278537,2.62017241 0.808523583,3.42637931 C0.303196344,4.33336207 0.303196344,5.13956897 0.505327239,6.14732759 Z" id="Shape"></path>
                    </g>
                    <g id="Group" transform="translate(289.047181, 28.217241)" fill="#3F4667">
                        <path d="M5.25540329,5.34112069 C4.8511415,6.85275862 4.75007605,8.46517241 5.05327239,9.97681034 C7.1756468,9.87603448 9.60121755,8.46517241 9.5001521,6.34887931 C9.39908665,5.13956897 8.48949762,4.03103448 7.27671225,3.93025862 C6.06392687,3.7287069 4.8511415,4.53491379 4.44687971,5.64344828" id="Shape"></path>
                        <path d="M1.81917806,4.33336207 C1.31385082,6.55043103 1.31385082,8.56594828 1.61704717,10.7830172 C1.81917806,12.1938793 3.63835612,13.5039655 5.05327239,13.4031897 C7.27671225,13.2016379 9.5001521,12.4962069 11.1171993,10.8837931 C12.7342464,9.27137931 13.4417046,6.85275862 12.8353119,4.63568966 C11.3193302,-0.50387931 3.63835612,-1.41086207 1.41491627,3.62793103 C0.606392687,5.34112069 0.909589031,7.45741379 2.72876709,8.46517241 C4.24474881,9.37215517 6.77138501,8.96905172 7.57990859,7.15508621 C7.78203949,6.75198276 7.78203949,6.75198276 7.57990859,7.05431034 C7.27671225,7.25586207 7.27671225,7.25586207 7.47884314,7.05431034 C7.78203949,6.85275862 7.1756468,7.15508621 6.9735159,7.15508621 C6.67031956,7.15508621 6.36712322,6.95353448 6.26605777,6.6512069 C6.16499232,6.44965517 6.26605777,5.74422414 6.16499232,6.44965517 C6.16499232,6.44965517 6.26605777,5.44189655 6.46818866,5.54267241 C6.56925411,5.64344828 5.65966508,6.14732759 6.26605777,5.845 C6.16499232,5.94577586 5.35646874,6.24810345 5.96286142,6.04655172 C5.76073053,6.14732759 4.54794515,6.34887931 5.25540329,6.24810345 C6.36712322,7.15508621 7.47884314,7.9612931 8.69162852,8.86827586 C8.59056307,8.16284483 8.69162852,6.95353448 8.89375941,6.14732759 C9.2980212,4.33336207 8.28736673,2.31784483 6.46818866,1.81396552 C4.44687971,1.41086207 2.3245053,2.51939655 1.81917806,4.33336207 Z" id="Shape"></path>
                    </g>
                    <path d="M175.348552,54.0158621 C173.630439,56.7368103 170.699541,59.2562069 170.598476,62.6825862 C170.497411,65.8066379 173.125112,67.4190517 175.348552,69.1322414 C177.369861,70.7446552 179.694366,73.3648276 182.524199,72.357069 C185.252966,71.3493103 186.06149,68.3260345 186.566817,65.8066379 C186.667882,65.2019828 185.758293,64.8996552 185.556162,65.5043103 C184.94977,68.2252586 183.939115,71.8531897 180.401824,71.5508621 C178.986908,71.4500862 177.369861,69.5353448 176.359207,68.7291379 C175.550683,68.1244828 174.742159,67.4190517 173.933636,66.8143966 C168.880363,62.5818103 173.731505,58.45 176.258141,54.5197414 C176.561337,53.9150862 175.752814,53.4112069 175.348552,54.0158621 Z" id="Shape" fill="#23223A"></path>
                    <path d="M186.06149,72.4578448 C183.029526,74.4733621 180.401824,78.202069 183.029526,81.6284483 C184.94977,84.1478448 188.689191,84.9540517 191.620089,83.6439655 C194.652053,82.3338793 195.864838,78.7059483 194.652053,75.6826724 C193.237136,72.2562931 189.295584,71.1477586 186.06149,72.5586207 C185.455097,72.8609483 185.960424,73.6671552 186.566817,73.4656034 C189.497715,72.1555172 193.136071,73.5663793 193.944594,76.8919828 C194.652053,79.612931 193.136071,82.3338793 190.407304,83.0393103 C188.48706,83.5431897 186.06149,83.1400862 184.545508,81.7292241 C181.513544,78.9075 183.939115,75.1787931 186.667882,73.3648276 C187.072144,72.9617241 186.566817,72.0547414 186.06149,72.4578448 Z" id="Shape" fill="#23223A"></path>
                    <path d="M196.168034,57.5430172 C193.742464,60.0624138 191.013696,63.0856897 191.82222,66.8143966 C192.428613,69.7368966 195.056314,71.5508621 198.088278,70.5431034 C199.503194,70.0392241 200.614914,69.1322414 201.524503,67.922931 C202.434092,66.7136207 203.950074,64.5973276 204.051139,62.9849138 C204.354336,59.7600862 199.199998,57.744569 196.673362,57.2406897 C196.2691,57.1399138 195.763773,57.6437931 196.066969,57.9461207 C196.2691,58.1476724 196.471231,58.45 196.572296,58.6515517 C196.976558,59.155431 197.886147,58.6515517 197.481885,58.1476724 C197.279754,57.9461207 197.077623,57.6437931 196.976558,57.4422414 C196.774427,57.6437931 196.572296,57.9461207 196.370165,58.1476724 C198.391474,58.5507759 201.322372,59.4577586 202.434092,61.3725 C203.849008,63.7911207 200.513849,68.0237069 198.593605,69.1322414 C195.359511,70.9462069 192.428613,68.4268103 192.731809,65.1012069 C192.93394,62.2794828 195.056314,60.0624138 196.976558,58.1476724 C197.279754,57.744569 196.572296,57.0391379 196.168034,57.5430172 Z" id="Shape" fill="#23223A"></path>
                    <path d="M276.414,38.697931 C280.456618,42.1243103 286.318414,39.8064655 286.924807,34.6668966 C287.025872,34.0622414 286.015217,34.0622414 285.914152,34.6668966 C285.408825,39.0002586 280.456618,40.915 277.121458,37.9925 C276.717196,37.4886207 276.009738,38.1940517 276.414,38.697931 Z" id="Shape" fill="#23223A"></path>
                    <path d="M278.435309,44.542931 C278.738505,46.3568966 278.738505,48.8762931 279.547029,50.4887069 C279.951291,51.3956897 280.759814,51.5972414 281.669403,51.4964655 C284.297105,51.2949138 287.935461,49.5817241 288.541854,46.8607759 C289.148246,44.3413793 287.531199,41.7212069 285.307759,40.7134483 C282.781123,39.5041379 279.951291,40.6126724 278.334243,42.7289655 C277.929982,43.2328448 278.839571,43.7367241 279.243832,43.2328448 C280.658749,41.3181034 283.387516,40.5118966 285.50989,41.8219828 C287.531199,43.132069 288.642919,46.054569 286.823741,47.9693103 C285.914152,48.977069 283.690712,50.2871552 282.17473,50.2871552 C279.648094,50.1863793 279.74916,45.9537931 279.445963,44.1398276 C279.344898,43.6359483 278.334243,43.9382759 278.435309,44.542931 Z" id="Shape" fill="#23223A"></path>
                    <path d="M289.653574,35.1707759 C290.158901,36.8839655 290.462097,38.7987069 291.06849,40.5118966 C291.270621,41.2173276 291.573817,41.8219828 292.18021,42.1243103 C293.898322,43.132069 296.728155,42.1243103 298.244137,41.1165517 C302.084624,38.697931 302.893147,33.5583621 299.861184,30.2327586 C299.456922,29.7288793 298.749464,30.4343103 299.153726,30.9381897 C301.882493,33.9614655 300.972904,38.3956034 297.536679,40.4111207 C295.7175,41.4188793 293.190864,42.1243103 291.978079,39.9072414 C291.270621,38.5971552 291.06849,36.3800862 290.664228,34.8684483 C290.462097,34.2637931 289.451443,34.5661207 289.653574,35.1707759 Z" id="Shape" fill="#23223A"></path>
                    <path d="M73.4745806,14.5117241 C72.5649916,16.829569 70.5436826,21.8683621 72.8681879,24.085431 C73.4745806,24.6900862 74.2831042,24.6900862 74.9905623,24.9924138 C76.0012168,25.2947414 76.8097404,25.8993966 77.8203949,26.3025 C79.2353111,26.9071552 80.6502274,26.9071552 82.0651437,26.5040517 C88.1290706,24.7908621 87.9269397,16.7287931 82.36834,14.4109483 C81.7619473,14.2093966 81.458751,15.1163793 82.0651437,15.4187069 C87.7248088,17.7365517 86.0066961,26.3025 79.7406384,25.7986207 C78.527853,25.6978448 73.4745806,23.7831034 72.9692534,22.4730172 C72.1607298,20.3567241 73.6767115,16.829569 74.3841696,14.8140517 C74.687366,14.2093966 73.777777,13.907069 73.4745806,14.5117241 Z" id="Shape" fill="#23223A"></path>
                    <path d="M95.2036519,18.240431 C93.1823429,20.4575 90.8578376,22.9768966 91.0599685,26.2017241 C91.2620994,28.8218966 92.980212,30.5350862 95.5068482,30.9381897 C101.975037,31.7443966 106.421917,25.0931897 104.400608,19.2481897 C104.198477,18.6435345 103.187822,18.9458621 103.389953,19.5505172 C105.108066,24.3877586 102.076102,29.8296552 96.6185682,29.930431 C93.5866047,30.0312069 91.6663612,27.9149138 92.070623,24.9924138 C92.3738194,22.5737931 94.1929974,20.6590517 95.8100446,18.9458621 C96.3153718,18.5427586 95.6079137,17.8373276 95.2036519,18.240431 Z" id="Shape" fill="#23223A"></path>
                    <path d="M72.1607298,31.6436207 C69.735159,35.1707759 68.9266355,39.7056897 70.3415517,43.7367241 C71.756468,47.7677586 77.7193294,45.9537931 80.9534238,45.2483621 C85.0971071,44.3413793 88.0280051,43.132069 87.6237433,38.2948276 C87.320547,34.7676724 84.9960417,31.5428448 81.1555546,31.6436207 C80.549162,31.6436207 80.549162,32.6513793 81.1555546,32.6513793 C84.8949762,32.5506034 86.7141543,36.1785345 86.6130888,39.5041379 C86.5120234,43.7367241 81.6608819,44.2406034 78.3257221,44.6437069 C77.0118713,44.8452586 75.2937587,45.2483621 73.9799078,45.0468103 C71.4532717,44.6437069 70.6447481,42.3258621 70.5436826,40.1087931 C70.4426172,37.1862931 71.2511408,34.4653448 72.9692534,32.1475 C73.3735152,31.5428448 72.4639261,31.0389655 72.1607298,31.6436207 Z" id="Shape" fill="#23223A"></path>
                    <path d="M39.2366199,21.3336377 L39.2366199,24.5639873 C39.2366199,24.8668325 39.2366199,25.0687294 39.3375585,25.2706262 L43.6779155,36.2740044 C44.0816696,37.2834886 45.292932,37.7882307 46.3023174,37.384437 C46.4032559,37.2834886 46.605133,37.2834886 46.7060715,37.1825402 L56.3961709,30.4189958 C57.3046177,29.8133053 57.5064948,28.6019242 57.0018021,27.6933884 L53.5698919,21.9393283 L51.7529983,18.8099271 C51.3492441,18.2042366 50.7436129,17.8004429 50.0370432,17.8004429 L43.3750999,17.8004429 C42.9713457,17.8004429 42.6685301,17.9013913 42.3657145,18.1032882 L40.1450667,19.4156177 C39.6403741,20.0213082 39.2366199,20.6269988 39.2366199,21.3336377 Z" id="Path-15" fill="#3F4667"></path>
                    <path d="M335.597599,47.5201025 L335.193845,47.7219993 C334.89103,47.8229478 334.689153,48.0248446 334.487275,48.2267415 L332.872259,49.9428647 C332.064751,50.7504521 332.165689,52.0627816 332.973197,52.7694205 C333.074136,52.8703689 333.074136,52.8703689 333.175075,52.9713174 L334.386337,53.8798532 C335.294784,54.4855437 336.606985,54.2836469 337.212616,53.3751111 C337.212616,53.3751111 337.212616,53.3751111 337.212616,53.3751111 L337.717309,52.6684721 L338.020124,52.16373 C338.423878,51.5580394 338.423878,50.8514005 338.222001,50.2457099 L337.61637,48.832432 C337.515432,48.5295867 337.313554,48.2267415 337.010739,48.0248446 L336.808862,47.8229478 C336.606985,47.3182057 336.102292,47.3182057 335.597599,47.5201025 Z" id="Path-15_1_" fill="#404768"></path>
                    <path d="M39.4767634,3.37983029 L39.1739478,4.08646925 C39.0730093,4.38931452 38.9720708,4.59121137 39.0730093,4.89405664 L39.1739478,9.33578727 C39.1739478,10.4462199 40.1833332,11.3547557 41.2936571,11.2538073 C41.3945956,11.2538073 41.4955341,11.2538073 41.5964727,11.2538073 L45.5330755,10.5471684 C46.6433994,10.3452715 47.3499692,9.33578727 47.1480921,8.22535461 C47.1480921,8.22535461 47.1480921,8.22535461 47.1480921,8.12440619 L46.7443379,6.0044893 L46.5424609,4.79310822 C46.4415223,4.08646925 45.9368297,3.58172714 45.3311985,3.27888186 L42.605858,2.16844921 C42.3030424,2.06750078 41.8992883,1.96655236 41.5964727,2.06750078 L40.9908414,2.16844921 C40.2842717,2.26939763 39.6786405,2.77413975 39.4767634,3.37983029 Z" id="Path-15_2_" fill="#3F4667"></path>
                    <path d="M19.8377342,6.54780627 L18.4245947,9.47531055 C18.3236562,9.6772074 18.2227176,9.98005267 18.2227176,10.1819495 L17.3142708,21.9929151 C17.2133323,23.1033477 18.0208406,24.112832 19.1311644,24.112832 C19.3330415,24.112832 19.43398,24.112832 19.6358571,24.112832 L31.3447272,22.2957603 C32.3541125,22.0938635 33.1616208,21.1853277 33.0606823,20.1758434 L32.5559896,13.5132475 L32.253174,9.98005267 C32.1522355,9.27341371 31.7484813,8.66772317 31.1428501,8.3648779 L25.1874765,5.43737362 C24.8846609,5.23547677 24.4809068,5.23547677 24.0771527,5.23547677 L21.4527507,5.43737362 C20.8471195,5.53832204 20.1405498,5.94211573 19.8377342,6.54780627 Z" id="Path-15_3_" fill="#3F4667"></path>
                    <path d="M2.55259328,5.86488107 L2.24977768,6.57152004 C2.14883914,6.87436531 2.04790061,7.07626215 2.04790061,7.37910742 L1.84602354,11.8208381 C1.84602354,12.9312707 2.65353182,13.8398065 3.7638557,13.9407549 C3.86479424,13.9407549 3.96573277,13.9407549 4.06667131,13.9407549 L8.10421271,13.5369613 C9.21453659,13.4360128 10.0220449,12.4265286 9.92110634,11.3160959 C9.92110634,11.3160959 9.92110634,11.3160959 9.92110634,11.2151475 L9.61829073,9.09523062 L9.41641366,7.88384954 C9.31547513,7.17721058 8.91172099,6.67246846 8.30608978,6.36962319 L5.68168787,5.05729368 C5.37887226,4.95634526 5.07605666,4.85539684 4.67230252,4.85539684 L4.06667131,4.85539684 C3.4610401,4.85539684 2.85540889,5.25919053 2.55259328,5.86488107 Z" id="Path-15_4_" fill="#3F4667"></path>
                    <path d="M265.706732,77.1148581 L265.706732,79.941414 C265.706732,80.2442593 265.80767,80.5471045 265.908609,80.7490014 L270.65272,91.146689 C271.157413,92.1561732 272.267737,92.6609153 273.277122,92.1561732 C273.378061,92.1561732 273.378061,92.0552248 273.478999,92.0552248 L283.976607,85.6954741 C284.885053,85.0897836 285.187869,83.8784025 284.683176,82.9698667 C284.683176,82.9698667 284.683176,82.8689183 284.582238,82.8689183 L281.150328,77.7205487 L279.131557,74.7930444 C278.727803,74.1873538 278.122172,73.8845086 277.415602,73.8845086 L270.047089,73.8845086 C269.744273,73.8845086 269.340519,73.985457 269.138642,74.0864054 L266.716117,75.3987349 C266.211425,75.7015802 265.706732,76.4082192 265.706732,77.1148581 Z" id="Path-15_5_" fill="#3F4667"></path>
                    <path d="M252.233978,93.3652104 C252.233978,92.3557262 252.738671,91.4471904 253.647118,90.9424483 L254.15181,90.7405514 C254.757442,90.4377062 255.56495,90.2358093 256.27152,90.2358093 L259.400614,90.2358093 C260.914692,90.2358093 262.226893,90.9424483 263.13534,92.2547778 L264.447541,94.2737463 C264.447541,94.3746947 264.54848,94.3746947 264.54848,94.4756431 C265.860681,96.59556 265.154111,99.4221158 263.034402,100.633497 L260.813754,101.945826 C260.712815,102.046775 260.510938,102.147723 260.41,102.147723 C258.189352,103.157208 255.464011,102.147723 254.454626,99.926858 L252.637732,95.9898695 C252.334917,95.3841789 252.233978,94.7784884 252.233978,94.0718494 L252.233978,93.3652104 Z" id="Path-15_6_" fill="#3F4667"></path>
                    <path d="M246.456281,77.977204 C247.162851,77.5734103 248.071298,77.5734103 248.676929,77.977204 L248.979745,78.1791008 C249.484437,78.4819461 249.888191,78.8857398 250.191007,79.3904819 L251.402269,81.6113472 C252.007901,82.6208315 252.007901,83.933161 251.503208,84.9426452 L250.6957,86.6587684 C250.6957,86.7597168 250.594761,86.7597168 250.594761,86.8606652 C249.585376,88.5767884 247.364728,89.2834274 245.648773,88.2739432 L243.831879,87.2644589 C243.730941,87.1635105 243.630002,87.1635105 243.529064,87.0625621 C241.914047,85.9521294 241.510293,83.6303157 242.721555,82.0151409 L244.740326,79.1885851 C245.043142,78.7847914 245.446896,78.3809977 245.85065,78.1791008 L246.456281,77.977204 Z" id="Path-15_7_" fill="#3F4667"></path>
                    <path d="M148.692476,70.2592686 L145.260566,69.6535781 C143.140856,69.3507328 141.021147,70.3602171 140.011762,72.1772887 L138.194868,75.5085867 C136.882667,77.9313488 137.791114,81.06075 140.213639,82.3730795 C140.516454,82.4740279 140.718332,82.6759247 141.021147,82.7768732 L147.784029,84.9977385 C150.307492,85.8053259 153.133771,84.4929963 154.042218,81.9692858 L154.849726,79.8493689 C155.455358,78.2341941 155.152542,76.316174 154.042218,74.9028961 L151.720632,71.9753918 C151.014062,71.066856 149.903738,70.4611655 148.692476,70.2592686 Z" id="Path-9" fill="#3F4667"></path>
                    <path d="M290.833761,80.4031623 C291.237515,79.1917812 292.145962,78.0813485 293.155347,77.5766064 L294.568486,76.8699674 C295.981626,76.1633285 297.495704,76.1633285 298.908843,76.9709159 L299.716352,77.475658 C299.81729,77.475658 299.81729,77.5766064 299.81729,77.5766064 C301.331368,78.5860906 301.836061,80.806956 300.927614,82.5230792 L299.009782,86.1572224 C298.908843,86.2581708 298.908843,86.3591192 298.807905,86.4600677 C297.495704,88.5799846 294.871302,88.9837783 293.054408,87.5705003 L291.742207,86.4600677 C290.329068,85.349635 289.824375,83.3306665 290.430006,81.6145433 L290.833761,80.4031623 Z" id="Path-9_1_" fill="#3F4667"></path>
                    <path d="M236.355308,82.8058345 L235.144045,82.4020408 C233.327152,81.6954019 231.207443,82.3010924 229.99618,83.9162672 L228.986795,85.2285967 C227.573655,87.0456683 227.876471,89.7712758 229.794303,91.1845537 C229.99618,91.2855021 230.097119,91.3864505 230.298996,91.5883474 L234.235599,93.8092127 C236.052492,94.8186969 238.27314,94.2130064 239.282525,92.3959348 L239.787218,91.5883474 C240.594726,90.074121 240.695665,88.2570494 239.888157,86.742823 L239.181587,85.3295451 C238.475017,84.0172156 237.465632,83.2096282 236.355308,82.8058345 Z" id="Path-9_2_" fill="#3F4667"></path>
                    <path d="M237.630796,96.0642339 C238.034551,94.8528528 238.942997,93.7424201 239.952383,93.237678 L241.365522,92.5310391 C242.778662,91.8244001 244.29274,91.8244001 245.705879,92.6319875 L246.513388,93.1367296 C246.614326,93.1367296 246.614326,93.237678 246.614326,93.237678 C248.128404,94.2471623 248.633097,96.4680276 247.72465,98.1841508 L245.806818,101.818294 C245.705879,101.919242 245.705879,102.020191 245.604941,102.121139 C244.29274,104.241056 241.668338,104.64485 239.851444,103.231572 L238.640182,101.919242 C237.227042,100.80881 236.72235,98.7898413 237.327981,97.0737181 L237.630796,96.0642339 Z" id="Path-9_3_" fill="#3F4667"></path>
                    <path d="M335.108316,67.197669 L335.108316,68.6109469 C335.108316,68.9137922 335.209255,69.2166375 335.310193,69.5194827 L338.742104,76.3839755 C339.246796,77.3934598 340.458059,77.7972535 341.467444,77.2925114 C341.467444,77.2925114 341.467444,77.2925114 341.568383,77.2925114 L349.037834,73.2545744 C350.04722,72.7498323 350.350035,71.5384512 349.845343,70.528967 C349.845343,70.4280186 349.744404,70.3270701 349.744404,70.3270701 L347.422818,67.197669 L346.009678,65.279649 C345.605924,64.7749068 345.000293,64.4720616 344.394662,64.4720616 L338.742104,64.4720616 C338.439288,64.4720616 338.136472,64.57301 337.833657,64.6739584 L336.319579,65.3805974 C335.512071,65.7843911 335.108316,66.49103 335.108316,67.197669 Z" id="Path-15_8_" fill="#3F4667"></path>
                </g>
                <g id="Lights" transform="translate(297.000000, 22.000000)" fill="#7B8145">
                    <path d="M7.16287999,12.0266287 C8.63607235,12.3493317 11.4158811,12.5338301 12.7462957,11.3339542 C14.1605719,10.0584452 14.1388325,8.10749307 14.1394541,8.032075 C14.1648508,4.95068009 10.1816633,2.58277395 7.16287999,2.58277395 C4.00070659,2.58277395 1.61458806,3.28738607 1.61458806,6.66811298 C1.61458806,10.0488399 4.00070659,11.3339542 7.16287999,12.0266287 Z" id="Light-1" transform="translate(7.877081, 7.425372) rotate(32.000000) translate(-7.877081, -7.425372) "></path>
                    <path d="M37.4182741,68.640078 C38.8914665,68.9627809 41.6712752,69.1472793 43.0016898,67.9474035 C44.415966,66.6718945 44.3942266,64.7209423 44.3948482,64.6455243 C44.4202449,61.5641294 40.4370574,59.1962232 37.4182741,59.1962232 C34.2561007,59.1962232 31.8699822,59.9008353 31.8699822,63.2815622 C31.8699822,66.6622892 34.2561007,67.9474035 37.4182741,68.640078 Z" id="Light-2" transform="translate(38.132476, 64.038821) rotate(12.000000) translate(-38.132476, -64.038821) "></path>
                    <path d="M96.5768836,113.354752 C97.9553329,113.693783 101.177164,113.889685 102.422017,112.629098 C103.745339,111.289051 103.453762,110.804257 103.454344,110.725023 C103.478107,107.487717 99.7510844,105 96.9264434,105 C93.9676338,105 92,106.366948 92,108.039885 C92,109.712822 93.6180741,112.62703 96.5768836,113.354752 Z" id="Light-3"></path>
                </g>
            </g>
        </g>
    </g>
</svg>