<svg width="61" height="51" xmlns="http://www.w3.org/2000/svg"><path d="M2.117 30.928c.65 2.908 3.328 4.362 8.035 4.362-.572 7.636 1.877 12.09 7.347 13.363 5.47 1.273 9.528-.955 12.175-6.681 5.094 4.3 9.605 5.774 13.533 4.423 3.928-1.35 6.284-5.052 7.068-11.105C56.092 33.89 59 30.9 59 26.317c0-4.582-2.908-7.435-8.725-8.559 1.974-5.472.952-9.384-3.067-11.734-4.018-2.35-7.568-1.927-10.65 1.268-3.234-4.365-6.988-6.03-11.262-4.994-4.275 1.036-6.874 3.945-7.797 8.725-6.162-2.487-10.456-1.8-12.882 2.06-2.425 3.86-1.212 7.725 3.64 11.594-4.743 1.26-6.789 3.343-6.14 6.251z" fill="#E6EDA8" stroke="#E6EDA8" stroke-width="4" fill-rule="evenodd" fill-opacity=".1"/></svg>