<?xml version="1.0" encoding="UTF-8"?>
<svg width="35px" height="27px" viewBox="0 0 35 27" version="1.1" xmlns="http://www.w3.org/2000/svg" xmlns:xlink="http://www.w3.org/1999/xlink">
    <!-- Generator: Sketch 50.2 (55047) - http://www.bohemiancoding.com/sketch -->
    <title>Smoke 3</title>
    <desc>Created with Sketch.</desc>
    <defs></defs>
    <g id="Page-1" stroke="none" stroke-width="1" fill="none" fill-rule="evenodd" fill-opacity="0.1">
        <g id="Desktop-HD-Copy-2" transform="translate(-825.000000, -688.000000)" fill="#E6EDA8" stroke="#E6EDA8" stroke-width="2">
            <g id="Smoke" transform="translate(772.000000, 523.000000)">
                <path d="M54.087335,181.697918 C53.6549362,179.933816 54.8281543,178.528438 57.6069894,177.481784 C56.0223853,174.972544 56.355976,173.069467 58.6077614,171.772554 C59.7076769,171.139058 61.459406,170.957065 63.8629488,171.226574 C64.7023437,168.569487 66.0128405,166.956433 67.794439,166.387414 C71.2772781,165.27504 73.3631734,166.558121 74.0521252,170.236658 C75.5571977,168.235376 77.2992067,167.78601 79.2781522,168.88856 C80.3188865,169.468395 80.9177605,170.866063 81.0747741,173.081565 C84.3392763,173.105914 86.186868,173.585904 86.617549,174.521533 C87.5259739,176.495034 86.816082,178.253621 84.4878733,179.797294 C84.7950484,181.687425 84.4790889,182.982722 83.5399947,183.683185 C82.6009005,184.383649 81.1802864,184.383649 79.2781522,183.683185 C78.3347836,186.332444 77.1489854,187.926111 75.7207578,188.464188 C74.2925302,189.002265 72.3486229,188.587697 69.8890362,187.220484 C68.8206577,189.740161 67.4338009,191 65.7284656,191 C64.0231303,191 62.6152312,189.740161 61.5047686,187.220484 C59.8416966,188.773376 58.4118891,188.934917 57.215346,187.705108 C56.6319739,187.105517 56.7625217,185.764876 57.6069894,183.683185 C55.4821368,183.263692 54.3089187,182.601936 54.087335,181.697918 Z" id="Smoke-3"></path>
            </g>
        </g>
    </g>
</svg>