<?xml version="1.0" encoding="UTF-8"?>
<svg width="41px" height="36px" viewBox="0 0 41 36" version="1.1" xmlns="http://www.w3.org/2000/svg" xmlns:xlink="http://www.w3.org/1999/xlink">
    <!-- Generator: Sketch 50.2 (55047) - http://www.bohemiancoding.com/sketch -->
    <title>Smoke 4</title>
    <desc>Created with Sketch.</desc>
    <defs></defs>
    <g id="Page-1" stroke="none" stroke-width="1" fill="none" fill-rule="evenodd" fill-opacity="0.1">
        <g id="Desktop-HD-Copy-2" transform="translate(-832.000000, -644.000000)" fill="#E6EDA8" stroke="#E6EDA8" stroke-width="3">
            <g id="Smoke" transform="translate(772.000000, 523.000000)">
                <path d="M62.1691999,142.405645 C62.6019853,144.385543 64.3875785,145.375492 67.5259793,145.375492 C67.1446541,150.574335 68.7773028,153.606987 72.4239254,154.47345 C76.070548,155.339913 78.7759149,153.823587 80.5400262,149.924471 C83.9361141,152.85222 86.9435511,153.856159 89.5623371,152.93629 C92.1811231,152.016421 93.7518626,149.496155 94.2745556,145.375492 C98.152202,144.422173 100.091025,142.385651 100.091025,139.265926 C100.091025,136.146201 98.152202,134.203781 94.2745556,133.438667 C95.5906455,129.71281 94.9091165,127.049816 92.2299684,125.449684 C89.5508204,123.849552 87.1840862,124.137315 85.129766,126.312975 C82.9738232,123.340697 80.4710543,122.207283 77.6214591,122.912732 C74.7718638,123.618181 73.0393526,125.598275 72.4239254,128.853014 C68.3158085,127.159654 65.4531565,127.627159 63.8359694,130.255526 C62.2187823,132.883894 63.0273759,135.515147 66.2617501,138.149285 C63.1005978,139.00696 61.7364144,140.425746 62.1691999,142.405645 Z" id="Smoke-4" transform="translate(81.091025, 138.709757) rotate(26.000000) translate(-81.091025, -138.709757) "></path>
            </g>
        </g>
    </g>
</svg>