<?xml version="1.0" encoding="UTF-8"?>
<svg width="29px" height="36px" viewBox="0 0 29 36" version="1.1" xmlns="http://www.w3.org/2000/svg" xmlns:xlink="http://www.w3.org/1999/xlink">
    <!-- Generator: Sketch 50.2 (55047) - http://www.bohemiancoding.com/sketch -->
    <title>Smoke 1</title>
    <desc>Created with Sketch.</desc>
    <defs></defs>
    <g id="Page-1" stroke="none" stroke-width="1" fill="none" fill-rule="evenodd">
        <g id="Desktop-HD-Copy-2" transform="translate(-790.000000, -732.000000)">
            <g id="Smoke" transform="translate(772.000000, 523.000000)">
                <g id="Smoke-1" transform="translate(18.000000, 209.000000)">
                    <g id="Group-10" transform="translate(0.000000, 21.000000)">
                        <path d="M3.71052545,8.99814381 C3.19868002,7.75974502 2.78071032,6.80156701 2.45661636,6.12360976 C1.97047541,5.10667389 0.8613835,3.47809802 0.653089936,2.60243517 C0.444796372,1.72677232 0.556570706,0.898543951 1.6087646,0.775311294 C2.31022719,0.69315619 3.18288209,1.16268293 4.22672928,2.18389152 C5.46134692,1.02023684 6.45732579,0.673689586 7.21466588,1.14424977 C7.97200597,1.61480995 8.22941892,2.4045312 7.98690474,3.5134135 C9.24666945,3.15993491 10.1105401,3.43190216 10.5785167,4.32931526 C11.0464933,5.22672836 10.4657855,6.09214916 8.83639333,6.92557767 C9.22267881,7.95208645 9.22267881,8.64294183 8.83639333,8.99814381 C8.45010786,9.35334579 7.69879617,9.35334579 6.58245828,8.99814381 C6.8386332,9.74516471 6.68551167,10.2740282 6.12309371,10.5847343 C5.56067574,10.8954403 4.75648632,10.8954403 3.71052545,10.5847343 L3.71052545,8.99814381 Z" id="Path-22" fill-opacity="0.1" fill="#F6FAD0"></path>
                        <path d="M3.71052545,8.99814381 C3.19868002,7.75974502 2.78071032,6.80156701 2.45661636,6.12360976 C1.97047541,5.10667389 0.8613835,3.47809802 0.653089936,2.60243517 C0.444796372,1.72677232 0.556570706,0.898543951 1.6087646,0.775311294 C2.31022719,0.69315619 3.18288209,1.16268293 4.22672928,2.18389152 C5.46134692,1.02023684 6.45732579,0.673689586 7.21466588,1.14424977 C7.97200597,1.61480995 8.22941892,2.4045312 7.98690474,3.5134135 C9.24666945,3.15993491 10.1105401,3.43190216 10.5785167,4.32931526 C11.0464933,5.22672836 10.4657855,6.09214916 8.83639333,6.92557767 C9.22267881,7.95208645 9.22267881,8.64294183 8.83639333,8.99814381 C8.45010786,9.35334579 7.69879617,9.35334579 6.58245828,8.99814381 C6.8386332,9.74516471 6.68551167,10.2740282 6.12309371,10.5847343 C5.56067574,10.8954403 4.75648632,10.8954403 3.71052545,10.5847343" id="Path-22" stroke="#F6FAD0" stroke-width="0.7"></path>
                    </g>
                    <g id="Group-2" transform="translate(10.000000, 0.000000)" stroke="#E6EDA8">
                        <path d="M4.97572276,23.9501438 C5.51644958,22.7016502 5.51644958,20.9065137 4.97572276,18.5647343 C4.43499595,16.2229549 3.53308555,14.1120984 2.26999158,12.2321647 C0.995495312,9.70455434 0.316177273,7.66808569 0.232037462,6.12275873 C0.105827747,3.80476828 0.425713441,2.67627281 1.68208724,1.43460725 C2.93846104,0.192941687 3.95262912,0.673372947 4.97572276,1.43460725 C5.65778519,1.94209679 6.25361806,2.8619757 6.76322139,4.19424399 C7.64758379,1.28500127 8.82843903,0.157592178 10.3057871,0.812016713 C11.7831352,1.46644125 12.0173199,2.86383497 11.0083412,5.00419787 C12.2360701,5.34883509 12.8499345,6.01208112 12.8499345,6.99393596 C12.8499345,7.97579079 11.729981,8.77059324 9.49007395,9.3783433 C11.8865061,9.90231517 12.8970845,10.6777319 12.5218092,11.7045934 C12.1465339,12.7314549 10.5275973,13.6206816 7.66499948,14.3722736" id="Path-23"></path>
                        <path d="M4.97572276,23.9501438 C5.51644958,22.7016502 5.51644958,20.9065137 4.97572276,18.5647343 C4.43499595,16.2229549 3.53308555,14.1120984 2.26999158,12.2321647 C0.995495312,9.70455434 0.316177273,7.66808569 0.232037462,6.12275873 C0.105827747,3.80476828 0.425713441,2.67627281 1.68208724,1.43460725 C2.93846104,0.192941687 3.95262912,0.673372947 4.97572276,1.43460725 C5.65778519,1.94209679 6.25361806,2.8619757 6.76322139,4.19424399 C7.64758379,1.28500127 8.82843903,0.157592178 10.3057871,0.812016713 C11.7831352,1.46644125 12.0173199,2.86383497 11.0083412,5.00419787 C12.2360701,5.34883509 12.8499345,6.01208112 12.8499345,6.99393596 C12.8499345,7.97579079 11.729981,8.77059324 9.49007395,9.3783433 C11.8865061,9.90231517 12.8970845,10.6777319 12.5218092,11.7045934 C12.1465339,12.7314549 10.5275973,13.6206816 7.66499948,14.3722736" id="Path-23" fill-opacity="0.1" fill="#E6EDA8"></path>
                    </g>
                    <path d="M12.0038516,34.5323971 C14.0631917,33.6528651 15.7891613,32.4902739 17.1817606,31.0446234 C19.2706596,28.8761478 19.4104348,28.1129155 20.4420363,26.3521489 C21.4736378,24.5913824 21.3610012,24.566475 22.3790236,22.173788 C23.397046,19.7811011 26.2797421,17.8152587 27.3209893,19.7811011 C28.0151541,21.0916627 27.3077934,22.7388673 25.198907,24.7227149 C26.8477537,24.419267 27.6721771,24.7692819 27.6721771,25.7727594 C27.6721771,26.776237 27.0726711,27.7279278 25.8736591,28.6278319 C27.0726711,29.5248036 27.4422746,30.3304008 26.9824696,31.0446234 C26.5226646,31.7588461 24.9881826,32.0865158 22.3790236,32.0276326 C23.1301252,32.5617946 23.3100591,33.1487498 22.9188254,33.7884982 C22.3319747,34.7481208 21.5398916,34.9527984 20.4420363,35.195009 C19.7101328,35.3564826 18.4106557,35.3564826 16.5436052,35.195009" id="Path-24" stroke="#E6EDA8" fill-opacity="0.1" fill="#E6EDA8"></path>
                </g>
            </g>
        </g>
    </g>
</svg>