<svg width="912" height="411" xmlns="http://www.w3.org/2000/svg"><defs><linearGradient x1="50.004%" y1="-.004%" x2="25.81%" y2="97.018%" id="a"><stop stop-color="#3C4262" offset="0%"/><stop stop-color="#495172" offset="100%"/></linearGradient></defs><g fill="none" fill-rule="evenodd"><g transform="translate(-13 55)" stroke-width="8"><ellipse stroke="url(#a)" fill="#5C6B8F" fill-rule="nonzero" cx="468.909" cy="485.214" rx="468.456" ry="485.158"/><path d="M739.08 88.862c21.701 18.474 4.34 62.185-51.984 131.132-84.485 103.472-192.994 169.19-216.11 192.206-23.114 23.016-60.36 62.69-16.452 126.287 43.908 63.597 125.567 70.36 210.255 63.496 38.054-3.028 98.112-14.536 167.457-46.133 22.307-10.196 57.333-30.79 105.077-61.78" stroke="#3F4667"/><path d="M639.958 400.591c-7.974 8.076-32.805 40.278-25.84 73.289 6.964 33.01 38.558 38.158 54.506 38.158 15.949 0 48.754-15.546 70.355-30.385 14.333-9.893 27.758-23.723 40.375-41.591 19.28-31.294 30.282-57.945 33.007-80.052 4.138-33.111 3.23-49.667-19.38-67.636-22.61-17.868-76.41 13.83-95.387 35.231-18.977 21.401-49.662 64.81-57.636 72.986z" stroke="#404768"/><path d="M66.829 230.392c112.748 12.215 181.184 28.367 205.208 48.455 36.136 30.083 40.779 76.721 0 112.053-40.78 35.332-106.692 7.066-149.187 48.657-42.495 41.59-39.67 65.314-33.815 91.56 5.855 26.247 36.843 57.642 94.782 68.04 57.938 10.397 135.964 0 165.74 21.3 29.778 21.4 34.118 36.543 34.118 73.591 0 36.947-21.5 64.102-45.826 104.179-24.326 40.076-23.014 97.516 45.826 91.358 68.84-6.158 72.878-54.512 185.626-107.409 75.2-35.23 172.201-49.97 290.905-44.215" stroke="#3F4667"/></g><path d="M261.576 4.24c-2.61 3.573-3.871 7.666-3.785 12.28.139 6.869.793 9.834 4.676 22.1 3.882 12.267 8.076 19.984 9.88 23.438 1.803 3.454 4.535 8.793 9.112 16.672 3.046 5.286 6.407 10.52 9.884 15.67l11.991 19.785 34.36 11.473 26.875 7.118.768-24.204-72.752-43.309-31.01-61.022z" fill="#CBD8FF" fill-rule="nonzero"/><path d="M261.675 4.256c-2.625 3.673-3.986 7.75-3.9 12.363.139 6.87.793 9.835 4.676 22.102 3.882 12.266 8.092 19.883 9.88 23.437 1.803 3.454 4.535 8.792 9.112 16.672 3.046 5.286 6.407 10.52 9.9 15.57l11.991 19.785 34.36 11.473 26.875 7.118-25.5-15.793c-23.407-15.46-40.33-29.281-50.834-41.677-15.665-18.527-19.69-27.955-25.058-41.172-2.133-5.244-4.439-11.332-4.504-17.373.022-1.427.007-3.27.454-5.447.42-1.365 1.198-3.694 2.548-7.058z" fill="#23223A" fill-rule="nonzero"/><path d="M428.644 75.366l-48.181-35.84c-14.4-7.8-25.45-13.536-33.23-17.324-11.662-5.73-28.745-12.73-39.139-15.5-10.394-2.77-14.586-4.047-20.668-5.01-6.081-.964-22.62-2.357-25.908 3.561-3.288 5.919-2.709 11.938-1.237 17.486s4.024 13.311 15.025 29.67c11.001 16.357 15.9 20.915 25.745 31.673 9.844 10.757 8.837 9.371 22.795 21.905 9.31 8.322 18.73 15.947 28.393 22.69l60.052 34.45 63.299 37.825 36.137-37.816c-1.173-3.559-2.49-6.22-3.732-8.052-1.259-1.733-3.031-3.444-5.45-4.952.434-7.903-.859-13.934-3.995-18.008s-8.518-6.868-16.148-8.383c-.293-1.375-1.824-3.968-4.378-7.848-2.569-3.78-10.07-9.976-22.55-18.29l-26.83-22.237z" fill="#23223A" fill-rule="nonzero"/><path d="M354.796 42.206c15.406-9.518 28.413-16.146 39.051-20.082 18.102-6.536 38.399-4.343 53.707 4.827s22.937 21.008 28.602 36.214c5.665 15.206.868 37.75-.237 44.73-.584 3.688-2.089 10.605-4.397 20.664-1.173 4.822-5.577 8.11-10.525 7.736-16.687-1.11-31.935-4.854-45.843-11.247-24.285-11.205-34.31-19.538-50.75-39.62-8.648-10.568-13.76-20.883-15.303-31.144-.685-4.707 1.5-9.472 5.695-12.078z" fill="#C9D6FE" fill-rule="nonzero"/><path d="M354.796 42.206c15.406-9.518 28.428-16.245 39.151-20.066 5.527-1.987-12.153 19.947-13.366 32.122-.537 5.332.446 12.029 3.534 18.344 2.767 5.753 4.508 9.606 11.143 15.46 48.256 43.11 81.397 16.47 80.845 19.96-.585 3.689-2.089 10.605-4.398 20.664-1.172 4.823-5.577 8.111-10.525 7.736-16.686-1.11-32.034-4.869-45.842-11.247-24.286-11.205-34.294-19.638-50.75-39.62-8.649-10.568-13.744-20.982-15.287-31.243a11.645 11.645 0 0 1 5.495-12.11z" fill="#FFF" fill-rule="nonzero"/><path d="M354.796 42.206c15.406-9.518 28.413-16.146 39.051-20.082 18.102-6.536 38.399-4.343 53.707 4.827s21.846 19.507 27.17 35.579c5.323 16.071 2.4 38.4 1.295 45.38-.585 3.69-2.089 10.605-4.398 20.665-1.172 4.822-5.576 8.11-10.525 7.736-16.686-1.11-32.034-4.87-45.842-11.247-24.286-11.205-34.31-19.539-50.75-39.62-8.649-10.568-13.76-20.883-15.303-31.144-.785-4.723 1.4-9.488 5.595-12.094z" stroke="#23223A" stroke-width="4"/><path d="M391.377 40.948c-5.039 2.779-4.96 2.28-12.136 7.583-7.192 5.402-8.301 9.826-10.205 8.297-.819-.64-1.406-1.449-1.835-3.254-.45-2.32 1.665-3.416 4.852-7.408 3.665-4.428 14.32-10.406 17.28-11.674 8.682-3.838 9.421-2.699 11.504-1.653 1.333.62 3.174 2.546 3.326 2.877.456.992-7.847 2.437-12.786 5.232z" fill="#23223B" fill-rule="nonzero"/><path d="M387.21 40.799c-2.461 1.347-2.414 1.048-5.994 3.65-3.68 2.585-7.497 6.682-8.33 6.141-.184-.131.11-.698-.058-.929-.068-.215-.073-.829-.126-1.144-.156-.944 1.823-2.47 5.172-4.904 2.079-1.51 7.233-4.374 8.655-4.966 4.2-1.992 4.53-2.145 5.495-1.787.583.194 4.382.08 4.466.196.152.33-6.818 2.395-9.28 3.743z" fill="#C9D6FE" fill-rule="nonzero"/><path d="M273.57 125.313c6.378-5.428 23.752-13.817 34.405-15.912 10.654-2.094 23.157.909 28.13 4.354 4.973 3.445 12.256 15.534 29.005 18.187 16.749 2.653 18.378 19.468 26.69 19.252 8.312-.217 8.284 4.48 23.643 5.584 15.343 1.204 22.876 7.2 30.49 6.873 7.614-.327 18.984-6.294 32.74-2.173 13.674 4.005 35.28 1.806 40.542 2.128 2.64.112 10.491 18.935 14.488 33.06 4.113 14.04-2.985 31.108-7.877 33.604-9.752 4.792-21.965 19.313-42.126 17.551-20.16-1.762-27.66-22.165-45.405-24.975-17.746-2.81-22.459 9.525-46.47 7.562-24.029-1.864-24.847-12.828-39.901-15.212-15.054-2.384-15.828 2.501-34.808 1.028-18.98-1.473-43.324-9.723-57.974-21.753-14.62-12.23 8.05-63.729 14.428-69.158z" fill="#5C6B8F" fill-rule="nonzero"/><path d="M432.812 85.526c-1.716 5.452-3.432 10.903-5.148 16.253-.302.909.505 1.918 1.413 1.918 3.331-.1 6.259-.909 9.186-2.625-.808-.403-1.514-.908-2.322-1.312-.403 3.331-1.514 6.158-3.33 8.883-1.01 1.616 1.513 3.13 2.624 1.515 2.12-3.23 3.23-6.663 3.734-10.499.101-1.211-1.413-1.817-2.321-1.312-2.423 1.413-4.845 2.12-7.671 2.22.504.606 1.009 1.313 1.413 1.919 1.716-5.452 3.432-10.903 5.148-16.253.807-1.817-2.12-2.625-2.726-.707zM449.669 110.864c-1.817-3.634-3.533-7.369-5.047-11.205-.303.606-.707 1.211-1.01 1.817 4.947-1.312 9.893-2.12 15.04-2.624.909-.101 1.918-.909 1.414-1.919a272.712 272.712 0 0 0-9.993-21.3c-.404.808-.909 1.515-1.313 2.322 2.423.303 4.24.808 6.36 1.918 1.11.505 2.725-.404 2.22-1.716-2.422-6.864-5.652-13.123-9.892-19.08-1.11-1.513-3.734-.1-2.624 1.515 4.138 5.653 7.267 11.71 9.589 18.272.707-.606 1.514-1.11 2.22-1.716-2.624-1.313-5.046-2.02-7.973-2.322-1.212-.101-1.817 1.413-1.313 2.322 3.533 6.763 6.763 13.527 9.69 20.593a23.288 23.288 0 0 0 1.414-1.918 85.357 85.357 0 0 0-15.848 2.726c-.706.202-1.312 1.11-1.01 1.817 1.616 4.038 3.332 8.076 5.35 12.013 1.01 1.817 3.533.201 2.726-1.515z" fill="#23223A" fill-rule="nonzero"/><g fill="#23223A" fill-rule="nonzero"><path d="M462.628 105.364c2.318.907 4.736 1.814 7.054 2.721 1.814.706 2.62-2.217.806-2.922-2.317-.907-4.736-1.814-7.054-2.721-1.814-.705-2.62 2.217-.806 2.922z"/><path d="M463.837 104.66c3.124-1.714 5.543-4.032 7.558-6.954.404-.504.202-1.411-.201-1.814-3.527-3.225-6.45-6.954-8.868-11.086-1.008-1.713-3.628-.201-2.62 1.512a49.812 49.812 0 0 0 9.372 11.69c-.101-.605-.202-1.21-.202-1.814-1.713 2.52-3.83 4.333-6.45 5.845-1.814.907-.302 3.527 1.411 2.62z"/></g><g fill="#E6EDA8" fill-rule="nonzero"><path d="M470.907 142.318c6.147-2.318 10.28-8.062 10.682-14.613 0-.604-1.008-.604-1.008 0-.302 6.047-4.232 11.489-9.876 13.605-.604.302-.403 1.31.202 1.008zM492.271 157.938c3.427.101 6.45-2.015 7.66-5.24.201-.605-.706-.907-1.008-.302-1.008 2.72-3.729 4.534-6.652 4.434-.604.1-.604 1.108 0 1.108z"/></g><g fill-rule="nonzero"><path d="M509.956 185.473c-2.83-1.41-5.558.807-6.063 3.73-.304 1.914.1 3.829.404 5.743.404 2.822 1.01 5.543 1.617 8.365.303 1.31 2.223.705 1.92-.504a95.03 95.03 0 0 1-1.516-7.357c-.202-1.41-.606-2.822-.606-4.232 0-1.411.404-5.14 3.032-3.83 1.314.403 2.324-1.41 1.212-1.915z" fill="#23223A"/><path d="M508.137 203.411c3.437-1.007 7.277-1.713 10.612-3.124 1.82-.806 2.021-1.914 1.617-3.728-.707-2.52-1.112-5.845-3.234-7.66-2.223-1.813-5.66-2.519-8.287-3.426-1.213-.403-1.718 1.512-.506 1.915 2.022.806 4.245 1.411 6.266 2.318 2.527 1.21 2.83 3.628 3.538 6.047.303 1.108.808 2.015-.303 2.821-.809.605-2.628.806-3.639 1.109-2.122.604-4.245 1.21-6.468 1.915-1.415.201-.91 2.217.404 1.813zM531.989 188.194c-2.527.303-4.447 2.117-4.75 4.636-.506 3.426 1.819 6.349 3.941 8.868.404.403 1.01.303 1.415 0a43.672 43.672 0 0 0 7.176-7.76c.707-1.108-1.01-2.116-1.718-1.007-1.92 2.72-4.245 5.14-6.873 7.356h1.415c-1.213-1.511-2.628-3.023-3.133-4.938-.606-2.116 0-4.837 2.628-5.14 1.213-.2 1.213-2.216-.101-2.015zM576.76 175.497c-4.648-.202-4.547 5.14-3.537 8.263 1.415 4.636 4.447 6.45 9.096 4.938 1.314-.504 3.74-1.108 4.548-2.418.91-1.512-.606-3.326-1.213-4.636-.91-1.713-1.718-4.132-3.436-5.14-1.819-1.007-4.649-.705-6.569-.806-1.314-.1-1.314 1.915 0 2.016 1.112 0 2.223.1 3.335.201 1.82.1 2.527.403 3.537 2.016.809 1.209 3.032 4.535 2.022 5.643-.607.605-2.224 1.008-3.032 1.21-1.92.604-3.84.705-5.155-1.11-1.111-1.612-3.335-8.363.506-8.162 1.213 0 1.213-2.015-.101-2.015zM572.718 157.86c-2.021 1.714-3.537 4.939-1.415 7.257 1.617 1.814 4.952 1.31 5.458-1.31.202-1.31-1.718-1.814-1.92-.504-.304 1.612-2.224.806-2.426-.403-.303-1.512.808-2.721 1.82-3.628.909-.907-.607-2.318-1.517-1.411zM470.743 192.73c-4.952 1.31-5.66 7.255-2.425 10.681 2.83 3.024 8.792 2.923 9.095-2.015 0-.605-1.01-.605-1.01 0-.202 5.039-6.468 3.225-8.085.302-1.719-3.023-.809-6.953 2.83-7.961.505-.202.201-1.109-.405-1.008zM483.78 190.915c-2.425.202-4.244 2.318-4.143 4.838.202 2.418 2.425 4.03 4.649 4.232 2.628.202 4.952-1.814 5.457-4.434.506-2.721-1.313-5.14-3.84-6.047-.607-.201-.91.706-.303 1.008 4.244 1.512 3.941 8.365-.91 8.566-1.617 0-3.436-.907-3.941-2.52-.607-2.015.808-4.333 2.93-4.433.708-.303.708-1.31.102-1.21zM491.36 202.202c-.91 3.427-1.111 7.961.809 11.186 1.516 2.52 4.851 1.008 6.771-.1 2.527-1.411 3.942-3.73 2.83-6.55-1.213-3.125-4.649-4.234-7.68-4.435-.607-.1-.607.907 0 1.008 2.425.201 5.255.907 6.467 3.325 1.516 2.822-.303 4.938-2.728 6.148-.91.403-2.224 1.209-3.234 1.108-1.92-.1-2.325-2.418-2.628-3.83-.506-2.519-.404-5.038.303-7.457.202-.705-.809-1.008-.91-.403zM476.605 206.032c-2.021 1.814-2.628 4.938-1.314 7.255.707 1.21 1.92 2.318 3.335 2.42 1.516.1 2.426-.908 3.436-1.815 2.224-2.318 4.75-5.643 2.83-8.868-1.92-3.426-5.963-1.613-8.388.201-.506.404 0 1.21.505.907 2.021-1.511 6.064-3.728 7.277.101.808 2.52-.91 4.737-2.527 6.45-.91.907-1.92 2.318-3.537 2.015-1.213-.302-2.122-1.612-2.527-2.72-.606-1.915 0-3.93 1.516-5.24.607-.404-.1-1.11-.606-.706zM281.75 129.845c-2.93-1.008-4.952 1.612-5.255 4.233-.505 4.837 1.01 10.279 2.325 14.814.1.302.303.403.606.302 3.335-.806 7.378-1.512 10.511-3.225 2.426-1.41 2.729-3.628 2.324-6.147-1.01-5.845-4.143-11.489-11.016-10.582-.606.101-.606 1.109 0 1.008 5.963-.705 8.793 3.93 9.804 9.07.303 1.612.707 3.527-.607 5.039-1.01 1.008-2.627 1.41-3.941 1.814-2.426.806-4.851 1.41-7.378 2.015l.606.303c-.808-2.721-5.154-20.256 1.718-17.838.607.403.91-.604.304-.806zM279.325 112.109c-2.223 1.914-3.84 5.14-3.234 8.062.606 3.023 4.346 2.116 6.67 2.116 1.011 0 2.022 0 2.527-1.008.505-1.108.303-2.62-.101-3.628-.91-2.62-3.133-4.535-5.76-4.938-.607-.1-.91.907-.304 1.008 1.92.302 3.537 1.31 4.447 2.922.505.807 1.01 2.016.91 2.923-.203 1.612-1.415 1.814-2.73 1.713h-2.627c-1.213 0-1.82.1-2.122-1.612-.101-.403 0-.806 0-1.21.202-2.217 1.313-4.232 2.93-5.643.607-.403-.202-1.109-.606-.705z" fill="#23223A"/><path d="M280.134 112.31c1.92.403 3.335 1.612 4.143 3.426l.708-.705a5.285 5.285 0 0 1-2.022-1.915l-.707.706c1.82 1.209 2.729 3.124 2.527 5.24-.101.605.91.605 1.01 0 .202-2.52-.91-4.736-3.032-6.147-.404-.303-.91.302-.707.705a6.399 6.399 0 0 0 2.324 2.318c.506.302.91-.202.708-.705-.809-2.016-2.527-3.427-4.75-3.83-.607-.201-.91.806-.202.907zM260.325 115.938c-4.75 3.729-7.984 9.17-8.793 15.116-.303 1.814-.303 3.326 1.718 3.93 1.314.404 3.032.202 4.346.303 1.92.1 3.942.1 5.862.202 2.324.1 4.042 0 4.952-2.318 1.01-2.52 1.617-5.543 1.314-8.264-.606-5.24-5.357-8.667-10.612-7.558-.606.1-.404 1.108.303 1.008 5.458-1.109 9.5 3.023 9.4 8.263 0 1.713-.405 4.636-1.416 6.248-1.516 2.419-5.558 1.512-7.984 1.411-2.021-.1-6.771.706-7.175-2.015-.304-1.713.808-4.434 1.414-5.946 1.516-3.83 4.043-7.155 7.277-9.775.607-.303-.1-1.008-.606-.605z" fill="#23223A"/><path d="M262.245 116.744c1.617-.302 2.83.101 4.144 1.008.1-.302.303-.605.404-.907-1.112-.403-2.223-.705-3.335-1.109-.505-.201-.91.706-.404.907 2.93 1.21 6.266 3.326 6.569 6.853.303 3.326-2.123 7.458-3.234 10.582-.202.604.707.907 1.01.302 1.617-4.132 3.437-9.07 1.617-13.504-1.313-3.124-4.042-5.341-7.478-5.24-.607 0-.607 1.007 0 1.007 3.84-.201 6.569 3.125 7.074 6.652.506 3.728-.91 7.356-2.223 10.783.303.1.606.201 1.01.302.809-2.217 1.617-4.535 2.426-6.752.606-1.713 1.112-3.426.606-5.24-.91-3.225-4.042-5.24-6.973-6.55-.101.302-.303.604-.404.906 1.111.403 2.223.706 3.335 1.109.606.201.808-.605.404-.907-1.516-1.109-3.032-1.411-4.851-1.109-.607 0-.303 1.008.303.907zM243.245 117.349c.505-.706-.101-1.512-.91-1.512-1.415.101-2.122 2.52-2.425 3.628-.405 1.411-.91 3.326 0 4.636.808 1.21 2.324 1.713 3.739 1.612 2.527-.201 5.053-2.318 4.649-5.039-.303-3.023-3.74-5.14-6.57-4.131-.606.201-.302 1.209.304 1.007 3.942-1.41 7.479 4.132 3.537 6.55-1.314.807-3.537 1.009-4.649-.301-1.516-1.714.303-5.442 1.415-6.954-.303.504.505 1.008.91.504zM375.438 184.566c.607 2.923-2.627 5.543-1.111 8.365.707 1.31 2.223 2.217 3.335 3.023 1.415 1.109 2.729 2.217 4.245 3.124 2.223 1.411 5.255 2.217 7.377.403 2.224-1.814 2.224-5.845 2.325-8.566.1-3.225-.809-6.046-3.335-8.062-2.123-1.713-5.054-3.225-7.883-2.822-2.73.404-4.245 2.62-5.256 5.04-1.112 2.72-1.92 5.139.404 7.255 2.527 2.318 6.165 6.047 9.703 6.651 2.526.403 5.053-1.209 4.952-3.83 0-.604-1.01-.604-1.01 0 0 3.427-3.942 3.125-6.065 2.016-1.314-.705-2.425-1.713-3.537-2.72-1.112-1.008-2.426-1.815-3.436-2.822-1.415-1.512-1.213-3.527-.506-5.341 1.112-3.326 3.336-6.148 7.378-5.04 3.133.908 6.468 3.326 7.176 6.652.606 2.52.404 5.946-.404 8.465-1.718 5.744-7.277 2.116-10.208-.1-2.223-1.714-5.457-3.326-4.548-6.652.505-1.915 1.617-3.325 1.213-5.34.1-.606-.91-.404-.809.301z" fill="#23223A"/><g fill="#3F4667"><path d="M313.788 132.163c-.303-2.217 1.516-4.636 3.84-4.737 2.325-.1 4.448 1.915 4.448 4.132 0 .806-.303 1.713-.91 2.217-1.01 1.008-2.93.807-3.941-.201-1.011-1.008-1.314-2.62-1.112-4.031"/><path d="M317.326 132.163c0-.403-.101-.907.303-1.21.505-.302.404 0 .707.202.607.403.203.403.203.403-.203 0 1.414-1.108 1.212-.604-.1.201 0-1.31 0-1.512.202-1.915-1.819-3.527-3.537-3.527-2.122 0-3.335 1.612-3.537 3.527-.506 3.93 2.021 7.961 6.064 8.364 4.548.504 7.782-3.93 6.67-8.162-1.01-3.83-4.851-6.35-8.692-5.745-3.84.605-6.771 4.334-6.468 8.163.202 1.915 1.516 3.527 3.537 3.527 1.82.101 3.74-1.511 3.538-3.426z"/></g><g fill="#3F4667"><path d="M312.171 145.566c-1.111 2.419-1.212 5.341-.202 7.86 1.92-.2 3.84-.402 5.761-.604 1.82-.202 4.144-.705 4.649-2.52.505-1.511-.606-3.123-2.021-3.829-1.415-.705-3.032-.605-4.65-.605-1.111 0-2.728.706-2.324 1.714"/><path d="M308.735 144.558c-1.314 3.124-1.314 6.652-.202 9.776.505 1.31 1.82 2.72 3.436 2.62 3.335-.403 7.58-.202 10.612-1.915s4.447-5.341 2.729-8.465c-3.032-5.644-16.373-6.45-15.261 2.015.303 1.915 2.729 2.923 4.346 2.419 2.021-.605 2.729-2.419 2.425-4.333 0-.101 0-.303-.1-.403v1.914c0-.1.1-.201.1-.403l-.91 1.512c-.302.302-.808 0 .405.1.606 0 1.213-.1 1.718.101.101 0 .809.303.809.303.303.302.303.1.202-.806.303-.303.404-.303.1-.101-.504-.101-1.717.403-2.324.504-1.617.201-3.335.403-4.952.503 1.112.907 2.325 1.714 3.436 2.62-.808-2.116-.707-3.93.203-6.046.707-1.713-.809-3.83-2.426-4.333-2.021-.605-3.638.705-4.346 2.418z"/></g><g fill="#3F4667"><path d="M336.326 131.961c-1.01 1.21-2.122 2.52-2.122 4.031 0 1.613 1.617 3.225 3.032 2.52 1.111-.605 1.313-2.116 2.425-2.822.404-.201.91-.302 1.213-.605.808-.705.303-2.217-.707-2.72-1.011-.504-2.224-.202-3.336 0"/><path d="M333.8 129.442c-2.325 2.62-4.346 6.147-2.426 9.674 2.021 3.528 6.771 4.132 9.298.907.202-.302.404-.604.707-.907.101-.1.101-.201.202-.302.203-.302.304-.403.101-.201l-.505.302c.202-.302 1.01-.403 1.314-.605 1.718-1.108 2.527-2.922 2.223-4.938-.303-1.814-1.516-3.426-3.234-4.132-1.819-.806-3.74-.604-5.558-.1-1.82.403-2.931 2.52-2.426 4.333.506 1.915 2.527 2.923 4.346 2.419.303-.101 1.01-.303 1.112-.202-.101-.1-.708-.302-.91-.605-.1-.302-.202-.604-.202-.907.303-.604.707-1.209 1.01-1.814.405-.1.304-.1-.201.101l-.607.303a4.487 4.487 0 0 0-1.112.806c-.505.504-.91 1.108-1.313 1.612-.101.202-.304.403-.405.605-.1.201-.1.201 0 .1.202-.302.405-.402.809-.503.707-.202 1.213 0 1.617.403.303.302-.101.705.202.201.303-.604.606-.907 1.01-1.31 1.213-1.41 1.416-3.527 0-4.938-1.313-1.511-3.739-1.713-5.053-.302z"/></g><g fill="#3F4667"><path d="M416.572 168.543c-1.92 1.31-3.032 3.729-2.628 6.047.405 2.317 2.325 4.232 4.65 4.736.404.1.909.1 1.414 0 .506-.202.809-.605 1.112-1.008 1.92-3.023-.606-7.659-4.144-7.76"/><path d="M414.753 165.52c-3.335 2.418-5.357 6.45-4.144 10.581 1.112 3.83 5.357 7.458 9.5 6.651 4.043-.806 5.66-5.34 4.75-8.969-1.01-3.83-4.143-6.45-8.085-6.752-4.548-.403-4.548 6.652 0 7.055.505 0 1.01.806 1.213 1.209.101.202 0 .504.101.605.101.1.101.302-.101.504-.404.302-.101.1.91-.706 0-.1-.708-.403-.91-.605-.303-.302-.606-.705-.708-1.108-.202-.806.203-1.915.91-2.419 1.516-1.108 2.325-3.023 1.314-4.837-.809-1.512-3.133-2.318-4.75-1.21z"/></g><g fill="#3F4667"><path d="M434.157 176.101c-.404.504-.202 1.411.405 1.814.606.403 1.313.302 2.021.1 1.314-.503 2.324-1.813 2.223-3.224-.1-1.41-1.313-2.62-2.728-2.52-1.011.706-1.617 2.016-1.516 3.226"/><path d="M431.125 174.287c-2.02 3.427.809 7.66 4.75 7.357 3.336-.202 6.064-2.923 6.368-6.248.303-2.923-1.92-5.946-4.852-6.55-2.223-.505-3.941.503-5.255 2.317-.91 1.21-1.314 2.822-1.314 4.334 0 1.814 1.617 3.627 3.538 3.527 1.92-.101 3.537-1.512 3.537-3.527v-.101c.1-.403.1-.403 0-.101.202-.302.202-.403 0-.1.202-.202.303-.303.505-.404-.808.302-1.617.706-2.527 1.008-.1 0-.808-.403-.404-.1.303.2-.1-.102-.202-.202-.101-.303-.101-.404-.202-.706.101.504.101.202.101-.1 0-.303-.202.302 0 0 .202-.303-.404.402.101-.101-.404.403-.202-.101-.101 0 .404-.101.809 0 1.112.503 1.213.404 1.415 1.31.808 2.721.91-1.612.405-3.93-1.314-4.837-1.516-.806-3.638-.302-4.649 1.31z"/></g><g fill="#3F4667"><path d="M425.769 186.38c-.809.907-1.516 1.814-2.325 2.62.91 1.11 1.82 2.218 3.235 2.721 1.313.504 3.133.101 3.638-1.31.404-1.108-.303-2.317-1.213-3.023-1.01-.504-2.223-.806-3.335-1.008"/><path d="M423.242 183.962c-.808.907-1.516 1.814-2.324 2.62-1.314 1.612-1.314 3.426 0 4.938 1.415 1.713 3.133 3.326 5.356 3.83 2.224.402 4.548-.101 6.064-1.815 1.82-1.914 1.82-4.837.506-7.054-1.415-2.217-3.841-3.124-6.267-3.527-1.92-.302-3.84.504-4.345 2.419-.506 1.713.606 4.03 2.425 4.333.607.1 1.82.302 2.123.504.505.302 0 .403 0-.504 0-.403.303-.907.606-1.109.202-.1.91-.201.202-.1.505 0 .505.201 0-.101-.505-.302-1.213-1.21-1.718-1.814v4.938c.809-.907 1.516-1.814 2.325-2.62 1.212-1.411 1.414-3.527 0-4.938-1.213-1.31-3.639-1.512-4.953 0z"/></g><g fill="#3F4667"><path d="M517.536 144.054c.203 1.21.506 2.318.708 3.528 1.819.504 4.042-.807 4.042-2.62 0-1.915-2.93-3.024-4.042-1.411"/><path d="M514.1 144.961c.202 1.21.505 2.318.708 3.528.202 1.209 1.313 2.217 2.425 2.418 4.447 1.109 9.702-2.62 8.389-7.457-.607-2.016-2.325-3.527-4.245-4.132-2.426-.705-4.65.302-6.064 2.318-1.112 1.512-.303 4.03 1.314 4.837 1.819 1.008 3.638.302 4.85-1.31-.201.302-.403.605-.707.705-.505.202-.707.303-.404.202h-.202c-.707.1.404.1-.404 0-.607-.1-.101 0 0 0 .404.1-.708-.403-.202-.1-.101-.102-.607-.505-.304-.202.304.302-.1-.101-.202-.303-.1-.201-.1-.302-.202-.504.101.303.101.202 0-.1-.1-.202-.1-.303 0-.504.101-.303.101-.303 0-.101-.1.403.303-.605.101-.202-.1.202-.1.101.101-.1.202-.202.202-.202 0 0l-.202.201.303-.302c-.505.302.203-.1.203 0 0 0-.506.1-.405.1 0-.2.809 0 .101 0-.505-.1.91.202.101 0l2.426 2.42c-.202-1.21-.505-2.319-.707-3.528-.405-1.814-2.628-3.023-4.346-2.418-1.92.806-2.83 2.62-2.426 4.534z"/></g><g fill="#3F4667"><path d="M520.77 156.45c.102.907.405 1.713.91 2.52 1.01.1 1.92-.807 1.92-1.714 0-.907-1.01-1.814-2.021-1.612"/><path d="M517.435 157.458c.304 1.713 1.011 3.628 2.527 4.635 2.021 1.31 4.851.101 6.165-1.612 1.314-1.612 1.415-3.93.404-5.643-.91-1.613-2.93-2.822-4.85-2.62-.91.1-1.82.302-2.528 1.007-.606.605-1.111 1.613-1.01 2.52.1 1.813 1.516 3.728 3.537 3.527.606-.101-.707-.202-.303-.101.404.1-.809-.403-.303-.1-.101-.102-.304-.202-.405-.303-.303-.504-.404-.605-.303-.403.101.201.101.1-.1-.202-.102-.302-.203-.504-.203-.806 0-.1.202-.907 0-.403.101-.303.202-.504.404-.706.202-.201.202-.302.101-.1-.303.302.708-.404.202-.202.203-.1.304-.202.506-.202.606-.1.808-.1.404-.1 1.01.604 2.021 1.209 3.032 1.713-.101-.1-.202-.504-.303-.605.202.202.303.706.1.101l-.302-1.21c-.101-.805-.91-1.712-1.617-2.116-.809-.403-1.92-.604-2.73-.403-.808.303-1.717.807-2.121 1.613-.506.907-.506 1.713-.304 2.72z"/></g><g fill="#3F4667"><path d="M533.303 144.558c-.405 1.512-.506 3.124-.203 4.636 2.123-.1 4.548-1.512 4.447-3.628-.1-1.21-1.01-2.318-2.223-2.419-1.213-.201-2.426.605-2.83 1.714"/><path d="M529.866 143.55c-.505 2.218-.505 4.233-.202 6.45.202 1.411 2.022 2.721 3.436 2.62 2.224-.201 4.447-.907 6.064-2.519s2.325-4.031 1.718-6.248c-1.515-5.14-9.196-6.047-11.42-1.008-.808 1.713-.505 3.83 1.314 4.837 1.516.907 4.043.504 4.851-1.31.202-.403.202-.403 0-.1-.303.201-.303.201-.101 0 .303-.202-.303.1-.505.1a.76.76 0 0 1-.708-.504c-.1-.201 0-.907-.1-.201 0 0 .1-1.008.302-.907.101.1-.808.605-.202.302-.1.101-.91.403-.303.202-.202.1-1.415.302-.707.201 1.111.907 2.223 1.714 3.436 2.62-.101-.705 0-1.914.202-2.72.404-1.814-.606-3.83-2.426-4.334-2.02-.403-4.143.706-4.649 2.52z"/></g><path d="M414.349 165.016c-1.719 2.72-4.65 5.24-4.75 8.667-.102 3.124 2.526 4.736 4.75 6.45 2.02 1.612 4.345 4.232 7.175 3.224 2.729-1.008 3.537-4.031 4.043-6.55.1-.605-.809-.907-1.01-.303-.607 2.721-1.618 6.35-5.155 6.047-1.415-.1-3.032-2.016-4.043-2.822-.808-.605-1.617-1.31-2.425-1.915-5.054-4.232-.202-8.364 2.324-12.294a.52.52 0 0 0-.91-.504zM425.061 183.458c-3.031 2.015-5.66 5.744-3.031 9.17 1.92 2.52 5.66 3.326 8.59 2.016 3.032-1.31 4.245-4.938 3.032-7.961-1.415-3.427-5.356-4.535-8.59-3.124-.607.302-.102 1.108.505.907 2.93-1.31 6.57.1 7.378 3.426.707 2.72-.809 5.442-3.538 6.147-1.92.504-4.346.101-5.861-1.31-3.032-2.822-.607-6.55 2.122-8.364.404-.403-.101-1.31-.607-.907zM435.168 168.543c-2.426 2.52-5.154 5.543-4.346 9.271.607 2.923 3.234 4.737 6.266 3.73 1.415-.505 2.527-1.412 3.437-2.621.91-1.21 2.425-3.326 2.526-4.938.303-3.225-4.851-5.24-7.378-5.744-.404-.101-.91.403-.606.705.202.202.404.504.505.706.405.503 1.314 0 .91-.504a3.063 3.063 0 0 1-.505-.706c-.203.202-.405.504-.607.706 2.021.403 4.952 1.31 6.064 3.225 1.415 2.418-1.92 6.65-3.84 7.76-3.234 1.813-6.165-.706-5.862-4.032.202-2.822 2.324-5.039 4.245-6.953.303-.403-.405-1.109-.809-.605zM515.414 149.698c4.043 3.426 9.904 1.108 10.51-4.031.102-.605-.909-.605-1.01 0-.505 4.333-5.457 6.248-8.793 3.325-.404-.503-1.111.202-.707.706z" fill="#23223A"/><path d="M517.435 155.543c.304 1.814.304 4.333 1.112 5.946.404.907 1.213 1.108 2.122 1.007 2.628-.201 6.266-1.914 6.873-4.635.606-2.52-1.01-5.14-3.234-6.148-2.527-1.209-5.357-.1-6.974 2.016-.404.504.506 1.008.91.504 1.415-1.915 4.144-2.721 6.266-1.411 2.021 1.31 3.133 4.233 1.314 6.147-.91 1.008-3.133 2.318-4.65 2.318-2.526-.1-2.425-4.333-2.728-6.147-.101-.504-1.112-.202-1.01.403zM528.654 146.17c.505 1.714.808 3.629 1.414 5.342.203.705.506 1.31 1.112 1.612 1.718 1.008 4.548 0 6.064-1.007 3.84-2.42 4.65-7.559 1.617-10.884-.404-.504-1.112.201-.707.705 2.728 3.023 1.819 7.458-1.617 9.473-1.82 1.008-4.346 1.713-5.559-.504-.707-1.31-.91-3.527-1.314-5.039-.202-.604-1.213-.302-1.01.303zM312.475 125.512c-.91 2.318-2.931 7.356-.607 9.573.607.605 1.415.605 2.123.907 1.01.303 1.819.907 2.83 1.31 1.414.605 2.83.605 4.244.202 6.064-1.713 5.862-9.775.303-12.093-.606-.202-.91.705-.303 1.008 5.66 2.318 3.942 10.884-2.324 10.38-1.213-.101-6.266-2.016-6.772-3.326-.808-2.116.708-5.643 1.415-7.659.303-.605-.606-.907-.91-.302zM334.204 129.24c-2.022 2.217-4.346 4.737-4.144 7.962.202 2.62 1.92 4.333 4.447 4.736 6.468.806 10.915-5.845 8.894-11.69-.203-.604-1.213-.302-1.011.303 1.718 4.837-1.314 10.279-6.771 10.38-3.032.1-4.953-2.016-4.548-4.939.303-2.418 2.122-4.333 3.739-6.046.505-.403-.202-1.109-.606-.706zM311.16 142.644c-2.425 3.527-3.233 8.062-1.818 12.093 1.414 4.03 7.377 2.217 10.611 1.511 4.144-.907 7.075-2.116 6.67-6.953-.302-3.527-2.627-6.752-6.467-6.651-.607 0-.607 1.007 0 1.007 3.739-.1 5.558 3.528 5.457 6.853-.101 4.233-4.952 4.737-8.287 5.14-1.314.201-3.032.604-4.346.403-2.527-.403-3.335-2.721-3.436-4.938-.101-2.923.707-5.644 2.425-7.961.405-.605-.505-1.109-.808-.504z" fill="#23223A"/><path d="M278.237 132.334v3.23c0 .303 0 .505.1.707l4.34 11.003c.405 1.01 1.616 1.514 2.625 1.11.101-.1.303-.1.404-.201l9.69-6.764c.909-.606 1.11-1.817.606-2.726l-3.432-5.754-1.817-3.13c-.404-.605-1.01-1.009-1.716-1.009h-6.662c-.404 0-.706.101-1.01.303l-2.22 1.313c-.505.605-.908 1.211-.908 1.918z" fill="#3F4667"/><path d="M574.598 158.52l-.404.202c-.303.1-.505.303-.707.505l-1.615 1.716c-.807.807-.706 2.12.101 2.826l.202.202 1.211.909c.909.606 2.221.404 2.827-.505l.504-.707.303-.504c.404-.606.404-1.313.202-1.918l-.606-1.414a1.57 1.57 0 0 0-.605-.807l-.202-.202c-.202-.505-.707-.505-1.211-.303z" fill="#404768"/><path d="M278.477 114.38l-.303.706c-.101.303-.202.505-.101.808l.1 4.442c0 1.11 1.01 2.019 2.12 1.918h.303l3.937-.707c1.11-.202 1.817-1.211 1.615-2.322v-.1l-.404-2.12-.202-1.212c-.1-.707-.605-1.211-1.21-1.514l-2.726-1.11c-.303-.101-.707-.202-1.01-.101l-.605.1c-.707.101-1.312.606-1.514 1.212zM258.838 117.548l-1.413 2.927c-.101.202-.202.505-.202.707l-.909 11.81c-.1 1.111.707 2.12 1.817 2.12h.505l11.709-1.816c1.01-.202 1.817-1.11 1.716-2.12l-.505-6.663-.303-3.533c-.1-.707-.505-1.312-1.11-1.615l-5.956-2.928c-.302-.202-.706-.202-1.11-.202l-2.624.202c-.606.101-1.312.505-1.615 1.11zM241.553 116.865l-.303.707c-.101.302-.202.504-.202.807l-.202 4.442c0 1.11.808 2.019 1.918 2.12h.303l4.037-.404c1.11-.101 1.918-1.11 1.817-2.22v-.102l-.303-2.12-.202-1.211c-.1-.707-.504-1.212-1.11-1.514l-2.624-1.313c-.303-.1-.606-.202-1.01-.202h-.605c-.606 0-1.212.404-1.514 1.01zM504.707 188.115v2.826c0 .303.1.606.202.808l4.744 10.398c.504 1.01 1.615 1.514 2.624 1.01.101 0 .101-.102.202-.102l10.498-6.36c.908-.605 1.21-1.817.706-2.725 0 0 0-.101-.1-.101l-3.433-5.148-2.018-2.928c-.404-.606-1.01-.908-1.716-.908h-7.369c-.303 0-.706.1-.908.201l-2.423 1.313c-.505.303-1.01 1.01-1.01 1.716zM491.234 204.365c0-1.01.505-1.918 1.413-2.423l.505-.201a5.036 5.036 0 0 1 2.12-.505h3.129c1.514 0 2.826.706 3.734 2.019l1.313 2.019c0 .1.1.1.1.202 1.313 2.12.606 4.946-1.514 6.157l-2.22 1.313c-.101.1-.303.202-.404.202-2.22 1.01-4.946 0-5.955-2.221l-1.817-3.937c-.303-.606-.404-1.212-.404-1.918v-.707zM485.456 188.977c.707-.404 1.615-.404 2.22 0l.304.202a3.48 3.48 0 0 1 1.211 1.211l1.211 2.221c.606 1.01.606 2.322.101 3.332l-.807 1.716c0 .1-.101.1-.101.202-1.01 1.716-3.23 2.422-4.946 1.413l-1.817-1.01c-.101-.1-.202-.1-.303-.201-1.615-1.11-2.019-3.433-.807-5.048l2.018-2.826c.303-.404.707-.808 1.11-1.01l.606-.202zM387.692 181.26l-3.431-.606c-2.12-.303-4.24.706-5.25 2.523l-1.816 3.332c-1.312 2.422-.404 5.552 2.019 6.864.302.101.504.303.807.404l6.763 2.22c2.523.808 5.35-.504 6.258-3.028l.808-2.12c.605-1.615.303-3.533-.808-4.946l-2.321-2.928c-.707-.908-1.817-1.514-3.029-1.716zM529.834 191.403c.404-1.211 1.312-2.322 2.321-2.826l1.413-.707c1.414-.707 2.928-.707 4.34.1l.808.506c.101 0 .101.1.101.1 1.514 1.01 2.02 3.231 1.11 4.947l-1.917 3.634c-.101.101-.101.202-.202.303-1.312 2.12-3.937 2.524-5.754 1.11l-1.312-1.11c-1.413-1.11-1.918-3.13-1.312-4.845l.404-1.212zM475.355 193.806l-1.211-.404c-1.817-.707-3.937-.1-5.148 1.514l-1.01 1.313c-1.412 1.817-1.11 4.542.808 5.956.202.1.303.201.505.403l3.937 2.221c1.816 1.01 4.037.404 5.047-1.413l.504-.808c.808-1.514.909-3.331.101-4.845l-.706-1.413c-.707-1.313-1.716-2.12-2.827-2.524zM476.63 207.064c.405-1.211 1.313-2.322 2.322-2.826l1.414-.707c1.413-.707 2.927-.707 4.34.101l.807.505c.101 0 .101.1.101.1 1.514 1.01 2.02 3.231 1.11 4.947l-1.917 3.634c-.101.101-.101.202-.202.303-1.312 2.12-3.937 2.524-5.754 1.11l-1.21-1.312c-1.414-1.11-1.919-3.13-1.313-4.845l.303-1.01zM574.108 178.198v1.413c0 .303.101.606.202.908l3.432 6.865a2.023 2.023 0 0 0 2.725.909h.101l7.47-4.038c1.01-.505 1.312-1.717.807-2.726 0-.101-.1-.202-.1-.202l-2.322-3.13-1.413-1.917c-.404-.505-1.01-.808-1.615-.808h-5.653c-.303 0-.606.101-.908.202l-1.514.707c-.808.403-1.212 1.11-1.212 1.817z" fill="#3F4667"/></g><g fill="#7B8145"><path d="M288.833 23.949c1.078 1.054 3.338 2.684 5.102 2.371 1.875-.332 2.89-1.998 2.931-2.062 1.655-2.6-.468-6.718-3.028-8.318-2.682-1.676-5.079-2.342-6.87.525-1.792 2.867-.45 5.22 1.865 7.484zM320.477 81.391c1.374.622 4.055 1.38 5.606.483 1.648-.953 2.033-2.866 2.049-2.94.665-3.008-2.738-6.153-5.691-6.78-3.093-.658-5.574-.465-6.277 2.842-.703 3.307 1.364 5.06 4.313 6.395zM380.577 126.355c1.378.339 4.6.535 5.845-.726 1.323-1.34 1.032-1.825 1.032-1.904.024-3.237-3.703-5.725-6.528-5.725-2.958 0-4.926 1.367-4.926 3.04s1.618 4.587 4.577 5.315z"/></g></g></svg>