<svg width="29" height="36" xmlns="http://www.w3.org/2000/svg"><g fill="none" fill-rule="evenodd"><path d="M3.71 29.998a61.82 61.82 0 0 0-1.253-2.874C1.97 26.107.86 24.478.653 23.602c-.208-.875-.096-1.703.956-1.827.701-.082 1.574.388 2.618 1.409 1.234-1.164 2.23-1.51 2.988-1.04.757.47 1.014 1.26.772 2.37 1.26-.354 2.124-.082 2.592.815.467.898-.113 1.763-1.743 2.597.387 1.026.387 1.717 0 2.072-.386.355-1.137.355-2.254 0 .257.747.104 1.276-.459 1.587-.562.31-1.367.31-2.412 0v-1.587z" fill-opacity=".1" fill="#F6FAD0"/><path d="M3.71 29.998a61.82 61.82 0 0 0-1.253-2.874C1.97 26.107.86 24.478.653 23.602c-.208-.875-.096-1.703.956-1.827.701-.082 1.574.388 2.618 1.409 1.234-1.164 2.23-1.51 2.988-1.04.757.47 1.014 1.26.772 2.37 1.26-.354 2.124-.082 2.592.815.467.898-.113 1.763-1.743 2.597.387 1.026.387 1.717 0 2.072-.386.355-1.137.355-2.254 0 .257.747.104 1.276-.459 1.587-.562.31-1.367.31-2.412 0" stroke="#F6FAD0" stroke-width=".7"/><g stroke="#E6EDA8"><path d="M14.976 23.95c.54-1.248.54-3.043 0-5.385-.541-2.342-1.443-4.453-2.706-6.333-1.275-2.527-1.954-4.564-2.038-6.11-.126-2.317.194-3.446 1.45-4.687 1.256-1.242 2.27-.762 3.294 0 .682.507 1.278 1.427 1.787 2.76.885-2.91 2.065-4.037 3.543-3.383 1.477.654 1.711 2.052.702 4.192 1.228.345 1.842 1.008 1.842 1.99s-1.12 1.777-3.36 2.384c2.397.524 3.407 1.3 3.032 2.327-.375 1.026-1.994 1.916-4.857 2.667"/><path d="M14.976 23.95c.54-1.248.54-3.043 0-5.385-.541-2.342-1.443-4.453-2.706-6.333-1.275-2.527-1.954-4.564-2.038-6.11-.126-2.317.194-3.446 1.45-4.687 1.256-1.242 2.27-.762 3.294 0 .682.507 1.278 1.427 1.787 2.76.885-2.91 2.065-4.037 3.543-3.383 1.477.654 1.711 2.052.702 4.192 1.228.345 1.842 1.008 1.842 1.99s-1.12 1.777-3.36 2.384c2.397.524 3.407 1.3 3.032 2.327-.375 1.026-1.994 1.916-4.857 2.667" fill-opacity=".1" fill="#E6EDA8"/></g><path d="M12.004 34.532c2.06-.88 3.785-2.042 5.178-3.487 2.089-2.169 2.228-2.932 3.26-4.693 1.032-1.76.919-1.786 1.937-4.178 1.018-2.393 3.9-4.359 4.942-2.393.694 1.31-.013 2.958-2.122 4.942 1.649-.304 2.473.046 2.473 1.05 0 1.003-.6 1.955-1.798 2.855 1.199.897 1.568 1.702 1.108 2.417-.46.714-1.994 1.042-4.603.983.751.534.931 1.12.54 1.76-.587.96-1.38 1.165-2.477 1.407-.732.161-2.031.161-3.898 0" stroke="#E6EDA8" fill-opacity=".1" fill="#E6EDA8"/></g></svg>