<svg width="41" height="36" xmlns="http://www.w3.org/2000/svg"><path d="M2.464 12.737c-.479 1.97.692 3.642 3.513 5.017-2.622 4.506-2.484 7.947.414 10.325 2.897 2.377 5.994 2.2 9.289-.531 1.769 4.12 4.031 6.34 6.788 6.662 2.757.321 5.274-1.255 7.55-4.73 3.903.843 6.539-.137 7.906-2.941 1.368-2.804.477-5.4-2.673-7.788 2.816-2.771 3.371-5.464 1.664-8.076-1.706-2.613-3.96-3.392-6.76-2.337-.634-3.616-2.387-5.732-5.257-6.347-2.87-.616-5.296.405-7.276 3.06-2.95-3.323-5.728-4.157-8.334-2.504C6.683 4.2 6.256 6.92 8.008 10.705c-3.217-.615-5.065.063-5.544 2.032z" fill="#E6EDA8" stroke="#E6EDA8" stroke-width="3" fill-rule="evenodd" fill-opacity=".1"/></svg>