<svg width="59" height="58" xmlns="http://www.w3.org/2000/svg"><g transform="rotate(-124 28.284 27.095)" fill="none" fill-rule="evenodd"><ellipse stroke="#3F4667" stroke-width="4" fill="#5C6B8F" cx="26.298" cy="27.23" rx="26.298" ry="27.23"/><path d="M41.596 5.01c1.128 1.016.11 3.461-3.052 7.335-4.745 5.81-10.832 9.496-12.131 10.786-1.3 1.29-3.389 3.52-.922 7.086 2.467 3.567 7.05 3.95 11.806 3.567 2.137-.172 5.51-.817 9.4-2.592 1.255-.572 3.221-1.728 5.9-3.466" stroke="#3F4667" stroke-width="2"/><path d="M35.902 22.477c-.449.455-1.842 2.261-1.45 4.115.392 1.853 2.165 2.141 3.06 2.141.896 0 2.74-.873 3.948-1.708.807-.556 1.561-1.334 2.264-2.333 1.08-1.754 1.698-3.252 1.853-4.493.231-1.86.18-2.789-1.09-3.794-1.271-1.004-4.293.776-5.353 1.978-1.06 1.202-2.783 3.639-3.232 4.094z" stroke="#404768" stroke-width="2"/><path d="M3.727 12.924c6.33.686 10.17 1.593 11.52 2.719 2.027 1.689 2.288 4.307 0 6.292-2.287 1.984-5.986.396-8.372 2.732-2.385 2.336-2.23 3.666-1.899 5.14.33 1.474 2.066 3.233 5.318 3.818 3.251.584 7.633-.003 9.306 1.198 1.674 1.2 1.914 2.052 1.914 4.129 0 2.076-1.205 3.597-2.57 5.847-1.365 2.25-1.292 5.473 2.57 5.127 3.862-.346 4.093-3.061 10.422-6.027 4.22-1.978 9.664-2.806 16.333-2.485" stroke="#3F4667" stroke-width="2"/></g></svg>