<?xml version="1.0" encoding="UTF-8"?>
<svg width="222px" height="108px" viewBox="0 0 222 108" version="1.1" xmlns="http://www.w3.org/2000/svg" xmlns:xlink="http://www.w3.org/1999/xlink">
    <!-- Generator: Sketch 50.2 (55047) - http://www.bohemiancoding.com/sketch -->
    <title>Planet 2</title>
    <desc>Created with Sketch.</desc>
    <defs></defs>
    <g id="Page-1" stroke="none" stroke-width="1" fill="none" fill-rule="evenodd">
        <g id="Desktop-HD-Copy-2" transform="translate(-1045.000000, -448.000000)">
            <g id="Planet-2" transform="translate(1155.881162, 500.328585) rotate(22.000000) translate(-1155.881162, -500.328585) translate(1068.881162, 414.328585)">
                <g id="Layer_11" transform="translate(33.000000, 39.000000)" fill="#E6EDA8" fill-rule="nonzero">
                    <path d="M3.85714286,82.160119 C9.64285714,75.3422619 15.8241758,68.8702381 22.3516484,62.7934524 C24.4285714,60.8172619 21.3131868,57.7047619 19.1868132,59.6315476 C12.6593407,65.7577381 6.52747253,72.2297619 0.692307692,78.9982143 C-1.13736264,81.1720238 1.97802198,84.3339286 3.85714286,82.160119 Z" id="Shape"></path>
                    <path d="M86.043956,1.18571429 C82.4340659,5.73095238 78.8736264,10.2267857 75.2637363,14.7720238 C73.4835165,16.9952381 76.6483516,20.1571429 78.4285714,17.9339286 C82.0384615,13.3886905 85.5989011,8.89285714 89.2087912,4.34761905 C90.9395604,2.075 87.8241758,-1.08690476 86.043956,1.18571429 Z" id="Shape"></path>
                </g>
                <g id="Layer_6" transform="translate(13.000000, 14.000000)">
                    <g id="Page-1" transform="translate(0.000000, 0.000000)">
                        <g id="Desktop-HD-Copy-2" transform="translate(0.000000, 0.000000)">
                            <g id="Planet-1" transform="translate(74.462915, 73.322723) rotate(-124.000000) translate(-74.462915, -73.322723) translate(22.462915, 19.322723)">
                                <ellipse id="Oval-3" stroke="#3F4667" stroke-width="4" fill="#5C6B8F" fill-rule="nonzero" transform="translate(51.882810, 54.463932) rotate(-90.000155) translate(-51.882810, -54.463932) " cx="51.88281" cy="54.4639317" rx="53.4885906" ry="51.3466216"></ellipse>
                                <path d="M81.9463087,11.1114865 C84.1812081,13.0844595 82.1449664,17.8689189 75.9369128,25.4155405 C66.6,36.7601351 54.6308725,43.9614865 52.0979866,46.477027 C49.5651007,48.9925676 45.442953,53.3331081 50.3100671,60.2878378 C55.1771812,67.2425676 64.166443,67.9824324 73.5033557,67.2425676 C77.7248322,66.8972973 84.3302013,65.6641892 91.9785235,62.1621622 C94.461745,61.0277027 98.285906,58.8081081 103.550336,55.4047297" id="Path-11" stroke="#3F4667" stroke-width="2"></path>
                                <path d="M70.7718121,45.1945946 C69.8778523,46.0824324 67.1463087,49.5844595 67.9409396,53.2344595 C68.7355705,56.8351351 72.2120805,57.427027 73.9503356,57.427027 C75.6885906,57.427027 79.314094,55.7006757 81.6979866,54.072973 C83.2872483,52.9878378 84.7771812,51.4587838 86.1677852,49.5351351 C88.3033557,46.1317568 89.495302,43.1722973 89.7932886,40.7554054 C90.2402685,37.1054054 90.1409396,35.3297297 87.6577181,33.3567568 C85.1744966,31.3837838 79.2147651,34.8858108 77.1288591,37.2040541 C75.042953,39.5716216 71.6657718,44.3067568 70.7718121,45.1945946 Z" id="Path-11_1_" stroke="#404768" stroke-width="2"></path>
                                <path d="M7.54899329,26.55 C19.9651007,27.8817568 27.514094,29.6574324 30.1959732,31.877027 C34.1691275,35.1817568 34.7154362,40.2621622 30.1959732,44.1587838 C25.6765101,48.0554054 18.4255034,44.947973 13.757047,49.4858108 C9.0885906,54.0236486 9.38657718,56.6378378 10.0322148,59.4986486 C10.6778523,62.3594595 14.104698,65.8121622 20.461745,66.9466216 C26.8684564,68.0810811 35.4604027,66.9466216 38.738255,69.2648649 C42.0161074,71.6324324 42.5127517,73.2601351 42.5127517,77.3047297 C42.5127517,81.3493243 40.1288591,84.3087838 37.4469799,88.6986486 C34.7651007,93.0885135 34.914094,99.402027 42.5127517,98.7114865 C50.1114094,98.0209459 50.5583893,92.7432432 62.9744966,86.922973 C71.2684564,83.0756757 81.9463087,81.447973 95.0577181,82.0891892" id="Path-12" stroke="#3F4667" stroke-width="2"></path>
                            </g>
                        </g>
                    </g>
                </g>
                <g id="Layer_10" fill="#E6EDA8" fill-rule="nonzero">
                    <path d="M34.8991453,116.1 C25.9760684,125.54023 17.7470085,135.622989 10.3606838,146.348276 C8.57606838,148.918391 6.84102564,151.537931 5.20512821,154.157471 C3.51965812,156.826437 1.38803419,159.594253 0.495726496,162.658621 C-0.991452991,167.749425 2.72649573,173.383908 8.42735043,171.406897 C13.8307692,169.528736 18.8376068,165.08046 23.0512821,161.422989 C27.7111111,157.370115 32.0239316,153.02069 36.4358974,148.770115 C45.7555556,139.873563 55.2735043,131.224138 64.8410256,122.624138 C83.7777778,105.671264 103.011966,88.916092 121.254701,71.1724138 C130.425641,62.2264368 139.398291,53.0333333 147.875214,43.3954023 C156.401709,33.7574713 165.275214,23.7241379 171.670085,12.5045977 C173.157265,9.93448276 174.347009,7.0183908 173.206838,4.10229885 C172.264957,1.68045977 169.984615,0.148275862 167.357265,0.543678161 C164.283761,0.988505747 161.309402,3.55862069 158.781197,5.18965517 C155.65812,7.21609195 152.634188,9.3908046 149.610256,11.6149425 C138.406838,19.9678161 128.145299,29.408046 118.974359,39.9356322 C117.090598,42.1103448 120.263248,45.2241379 122.147009,43.0988506 C129.483761,34.6965517 137.51453,26.8873563 146.239316,19.8689655 C150.750427,16.2114943 155.459829,12.7517241 160.317949,9.53908046 C162.449573,8.15517241 164.581197,6.57356322 166.811966,5.43678161 C168.844444,4.39885057 169.538462,5.93103448 169.042735,7.71034483 C168.646154,9.19310345 167.654701,10.5770115 166.861538,11.862069 C160.764103,21.845977 152.981197,30.8413793 145.297436,39.6390805 C137.811966,48.1896552 129.929915,56.3942529 121.849573,64.4011494 C105.639316,80.4643678 88.5367521,95.5885057 71.5333333,110.762069 C63.0068376,118.373563 54.4803419,125.935632 46.1025641,133.695402 C37.774359,141.356322 29.8923077,149.412644 21.5145299,156.925287 C19.1350427,159.050575 16.7059829,161.126437 14.0786325,163.004598 C12.4923077,164.141379 6.98974359,168.688506 5.20512821,167.057471 C2.87521368,164.981609 6.74188034,160.187356 7.88205128,158.358621 C9.61709402,155.590805 11.4017094,152.822989 13.2358974,150.154023 C20.6717949,139.231034 29,128.950575 38.0717949,119.362069 C40.0547009,117.187356 36.8820513,114.024138 34.8991453,116.1 Z" id="Shape"></path>
                </g>
            </g>
        </g>
    </g>
</svg>