<svg width="35" height="27" xmlns="http://www.w3.org/2000/svg"><path d="M1.087 16.698c-.432-1.764.741-3.17 3.52-4.216-1.585-2.51-1.251-4.413 1-5.71 1.1-.633 2.852-.815 5.256-.545.84-2.658 2.15-4.27 3.931-4.84 3.483-1.112 5.57.171 6.258 3.85 1.505-2.002 3.247-2.451 5.226-1.348 1.04.58 1.64 1.977 1.797 4.193 3.264.024 5.112.504 5.543 1.44.908 1.973.198 3.732-2.13 5.275.307 1.89-.009 3.186-.948 3.886-.94.7-2.36.7-4.262 0-.943 2.65-2.129 4.243-3.557 4.781-1.428.538-3.372.124-5.832-1.244-1.068 2.52-2.455 3.78-4.16 3.78-1.706 0-3.114-1.26-4.224-3.78-1.663 1.553-3.093 1.715-4.29.485-.583-.6-.452-1.94.392-4.022-2.125-.42-3.298-1.081-3.52-1.985z" fill="#E6EDA8" stroke="#E6EDA8" stroke-width="2" fill-rule="evenodd" fill-opacity=".1"/></svg>