<?xml version="1.0" encoding="UTF-8"?>
<svg width="18px" height="17px" viewBox="0 0 18 17" version="1.1" xmlns="http://www.w3.org/2000/svg" xmlns:xlink="http://www.w3.org/1999/xlink">
    <!-- Generator: Sketch 50.2 (55047) - http://www.bohemiancoding.com/sketch -->
    <title>Smoke 2</title>
    <desc>Created with Sketch.</desc>
    <defs></defs>
    <g id="Page-1" stroke="none" stroke-width="1" fill="none" fill-rule="evenodd" fill-opacity="0.1">
        <g id="Desktop-HD-Copy-2" transform="translate(-815.000000, -721.000000)" fill="#E6EDA8" stroke="#E6EDA8">
            <g id="Smoke" transform="translate(772.000000, 523.000000)">
                <path d="M55.9903648,210.263271 C56.487156,212.754424 55.750291,214 53.7797696,214 C51.8092483,214 50.7590096,212.886579 50.6290537,210.659736 C48.8427907,212.408608 47.3308135,212.408608 46.0931224,210.659736 C44.8554312,208.910865 45.1744368,207.347995 47.0501391,205.971128 C43.839741,204.140665 43.1636509,202.387817 45.0218689,200.712586 C46.8800868,199.037354 48.7081695,199.32163 50.5061168,201.565413 C51.2963596,199.403568 52.5666238,198.608045 54.3169095,199.178844 C56.0671951,199.749643 56.6250135,201.30992 55.9903648,203.859673 C58.6634549,203.350068 60,204.280141 60,206.649891 C60,209.019641 58.6634549,210.224101 55.9903648,210.263271 Z" id="Smoke-2"></path>
            </g>
        </g>
    </g>
</svg>