<?xml version="1.0" encoding="UTF-8" standalone="no"?>
<svg width="218px" height="68px" viewBox="0 0 218 68" version="1.1" xmlns="http://www.w3.org/2000/svg" xmlns:xlink="http://www.w3.org/1999/xlink">
    <!-- Generator: Sketch 45.2 (43514) - http://www.bohemiancoding.com/sketch -->
    <title>About Copy</title>
    <desc>Created with Sketch.</desc>
    <defs></defs>
    <g id="Page-1" stroke="none" stroke-width="1" fill="none" fill-rule="evenodd">
        <g id="About-v4" transform="translate(-184.000000, -182.000000)" fill="#FFFFFF">
            <g id="Group-2" transform="translate(148.000000, 176.000000)">
                <path d="M77.89125,71.91 L75.46125,72.18 C75.01125,72.27 74.83125,72.18 74.56125,71.64 L69.70125,54.99 L45.04125,54.99 L40.18125,71.64 C40.09125,72.09 39.82125,72.27 39.37125,72.18 L37.12125,71.91 C36.67125,71.73 36.40125,71.64 36.67125,71.1 L54.58125,9.9 C54.67125,9.36 54.94125,9.27 55.39125,9.27 L59.44125,9.27 C59.98125,9.27 60.25125,9.36 60.34125,9.9 L78.34125,71.1 C78.52125,71.55 78.34125,71.73 77.89125,71.91 Z M68.98125,51.75 L57.55125,12.69 L57.37125,12.69 L45.85125,51.75 L68.98125,51.75 Z M90.225,60.03 L90.225,7.83 C90.225,7.29 90.405,7.02 90.945,6.93 L93.285,6.75 C93.825,6.75 94.005,6.93 94.005,7.38 L94.005,25.38 C94.005,28.44 93.825,31.23 93.825,31.23 C96.075,27.9 99.855,26.37 106.785,26.37 L107.325,26.37 C115.785,26.37 122.355,28.8 122.355,40.05 L122.355,59.4 C122.355,70.65 115.335,73.08 106.515,73.08 L105.795,73.08 C96.705,73.08 90.225,70.83 90.225,60.03 Z M105.705,69.75 L106.515,69.75 C113.625,69.75 118.575,67.68 118.575,59.13 L118.575,40.05 C118.575,31.5 113.895,29.52 106.875,29.52 L106.245,29.52 C99.045,29.52 94.005,31.5 94.005,40.05 L94.005,59.4 C94.005,67.95 98.685,69.75 105.705,69.75 Z M138.19875,59.4 L138.19875,40.05 C138.19875,28.8 145.12875,26.37 154.03875,26.37 L154.75875,26.37 C163.57875,26.37 170.23875,28.8 170.23875,40.05 L170.23875,59.4 C170.23875,70.56 163.30875,73.08 154.39875,73.08 L153.67875,73.08 C144.85875,73.08 138.19875,70.56 138.19875,59.4 Z M153.67875,69.75 L154.39875,69.75 C161.50875,69.75 166.54875,67.68 166.54875,59.13 L166.54875,40.05 C166.54875,31.5 161.77875,29.52 154.75875,29.52 L154.03875,29.52 C146.92875,29.52 141.88875,31.59 141.88875,40.05 L141.88875,59.13 C141.88875,67.68 146.56875,69.75 153.67875,69.75 Z M186.4425,59.31 C186.4425,70.29 192.6525,72.81 201.2025,72.81 C207.8625,72.81 213.3525,71.28 216.4125,70.02 C216.9525,69.84 217.1325,69.66 217.1325,69.03 L217.1325,28.26 C217.1325,27.81 216.9525,27.54 216.5025,27.45 L213.9825,27.27 C213.6225,27.27 213.3525,27.36 213.3525,27.9 L213.3525,67.41 C210.9225,68.4 206.3325,69.48 201.3825,69.48 C194.4525,69.48 190.2225,67.41 190.2225,59.04 L190.2225,27.9 C190.2225,27.45 190.0425,27.27 189.5025,27.27 L187.0725,27.45 C186.5325,27.54 186.4425,27.81 186.4425,28.35 L186.4425,59.31 Z M235.31625,60.75 C235.31625,71.19 240.62625,72.54 247.46625,72.54 C249.17625,72.54 250.88625,72.36 252.14625,72.09 C252.68625,72 252.77625,71.73 252.86625,71.19 L253.13625,69.39 C253.22625,68.85 252.95625,68.76 252.50625,68.76 C251.42625,68.94 249.53625,69.21 247.73625,69.21 C242.51625,69.21 239.09625,68.49 239.09625,60.84 L239.09625,30.42 L252.05625,30.42 C252.50625,30.42 252.68625,30.24 252.68625,29.79 L252.41625,27.99 C252.32625,27.54 252.14625,27.45 251.60625,27.45 L239.09625,27.45 L239.09625,14.76 C239.09625,14.22 238.73625,14.04 238.28625,14.13 L235.94625,14.31 C235.40625,14.4 235.31625,14.67 235.31625,15.21 L235.31625,27.45 L229.10625,27.45 C228.56625,27.45 228.38625,27.54 228.38625,28.08 L228.38625,29.7 C228.38625,30.24 228.56625,30.42 229.10625,30.42 L235.31625,30.42 L235.31625,60.75 Z" id="About-Copy"></path>
            </g>
        </g>
    </g>
</svg>