<svg width="218" height="68" xmlns="http://www.w3.org/2000/svg"><path d="M41.891 65.91l-2.43.27c-.45.09-.63 0-.9-.54l-4.86-16.65H9.041l-4.86 16.65c-.09.45-.36.63-.81.54l-2.25-.27c-.45-.18-.72-.27-.45-.81l17.91-61.2c.09-.54.36-.63.81-.63h4.05c.54 0 .81.09.9.63l18 61.2c.18.45 0 .63-.45.81zm-8.91-20.16L21.551 6.69h-.18L9.851 45.75h23.13zm21.244 8.28V1.83c0-.54.18-.81.72-.9l2.34-.18c.54 0 .72.18.72.63v18c0 3.06-.18 5.85-.18 5.85 2.25-3.33 6.03-4.86 12.96-4.86h.54c8.46 0 15.03 2.43 15.03 13.68V53.4c0 11.25-7.02 13.68-15.84 13.68h-.72c-9.09 0-15.57-2.25-15.57-13.05zm15.48 9.72h.81c7.11 0 12.06-2.07 12.06-10.62V34.05c0-8.55-4.68-10.53-11.7-10.53h-.63c-7.2 0-12.24 1.98-12.24 10.53V53.4c0 8.55 4.68 10.35 11.7 10.35zm32.494-10.35V34.05c0-11.25 6.93-13.68 15.84-13.68h.72c8.82 0 15.48 2.43 15.48 13.68V53.4c0 11.16-6.93 13.68-15.84 13.68h-.72c-8.82 0-15.48-2.52-15.48-13.68zm15.48 10.35h.72c7.11 0 12.15-2.07 12.15-10.62V34.05c0-8.55-4.77-10.53-11.79-10.53h-.72c-7.11 0-12.15 2.07-12.15 10.53v19.08c0 8.55 4.68 10.62 11.79 10.62zm32.763-10.44c0 10.98 6.21 13.5 14.76 13.5 6.66 0 12.15-1.53 15.21-2.79.54-.18.72-.36.72-.99V22.26c0-.45-.18-.72-.63-.81l-2.52-.18c-.36 0-.63.09-.63.63v39.51c-2.43.99-7.02 2.07-11.97 2.07-6.93 0-11.16-2.07-11.16-10.44V21.9c0-.45-.18-.63-.72-.63l-2.43.18c-.54.09-.63.36-.63.9v30.96zm48.874 1.44c0 10.44 5.31 11.79 12.15 11.79 1.71 0 3.42-.18 4.68-.45.54-.09.63-.36.72-.9l.27-1.8c.09-.54-.18-.63-.63-.63-1.08.18-2.97.45-4.77.45-5.22 0-8.64-.72-8.64-8.37V24.42h12.96c.45 0 .63-.18.63-.63l-.27-1.8c-.09-.45-.27-.54-.81-.54h-12.51V8.76c0-.54-.36-.72-.81-.63l-2.34.18c-.54.09-.63.36-.63.9v12.24h-6.21c-.54 0-.72.09-.72.63v1.62c0 .54.18.72.72.72h6.21v30.33z" fill="#FFF" fill-rule="evenodd"/></svg>