<?xml version="1.0" encoding="utf-8"?>
<!-- Generator: Adobe Illustrator 19.1.0, SVG Export Plug-In . SVG Version: 6.00 Build 0)  -->
<svg version="1.1" id="Layer_1" xmlns="http://www.w3.org/2000/svg" xmlns:xlink="http://www.w3.org/1999/xlink" x="0px" y="0px"
	 width="10.4px" height="10.4px" viewBox="0 0 10.4 10.4" style="enable-background:new 0 0 10.4 10.4;" xml:space="preserve">
<style type="text/css">
	.st0{fill:#F4914D;}
</style>
<g>
	<path class="st0" d="M4.1,6.3H0.5C0.1,6.3,0,6.1,0,5.8V4.6c0-0.4,0.1-0.5,0.5-0.5h3.6V0.5C4.1,0.1,4.2,0,4.6,0h1.2
		c0.4,0,0.5,0.1,0.5,0.5v3.6h3.6c0.4,0,0.5,0.1,0.5,0.5v1.1c0,0.4-0.1,0.5-0.5,0.5H6.3v3.6c0,0.4-0.1,0.5-0.5,0.5H4.6
		c-0.4,0-0.5-0.1-0.5-0.5V6.3z"/>
</g>
</svg>
