<?xml version="1.0" encoding="UTF-8"?>
<svg width="1024px" height="207px" viewBox="0 0 1024 207" version="1.1" xmlns="http://www.w3.org/2000/svg" xmlns:xlink="http://www.w3.org/1999/xlink">
    <!-- Generator: Sketch 53.2 (72643) - https://sketchapp.com -->
    <title>Combined-Shape-Copy-5</title>
    <desc>Created with Sketch.</desc>
    <g id="Page-1" stroke="none" stroke-width="1" fill="none" fill-rule="evenodd">
        <g id="Blog_Page_Wide" transform="translate(-988.000000, -693.000000)" fill="#E9EFFD" fill-rule="nonzero">
            <g id="Blog_Illustration" transform="translate(-74.000000, 441.000000)">
                <g id="Group-2" transform="translate(0.000000, 1.000000)">
                    <path d="M1480.54561,612.269378 C1476.42909,638.605016 1444.84817,659.089078 1406.5,659.089078 C1387.73919,659.089078 1370.59804,654.186435 1357.5,646.094474 C1344.40196,654.186435 1327.26081,659.089078 1308.5,659.089078 C1292.26314,659.089078 1277.23947,655.416839 1265,649.183046 C1252.76053,655.416839 1237.73686,659.089078 1221.5,659.089078 C1207.15901,659.089078 1193.76443,656.224337 1182.39873,651.260138 C1168.41512,656.243027 1152.23815,659.089078 1135,659.089078 C1081.98066,659.089078 1039,632.165686 1039,598.954 C1039,569.760057 1072.2106,545.424998 1116.25721,539.964434 C1124.64087,499.903043 1173.93878,469.145178 1233.5,469.145178 C1237.1747,469.145178 1240.81033,469.262255 1244.3997,469.491371 C1244.13485,467.324067 1244,465.134032 1244,462.924308 C1244,421.151521 1292.19191,386.415159 1355.71573,379.257206 C1367.40447,322.212911 1437.3995,278.371828 1522,278.371828 C1567.15144,278.371828 1608.1427,290.859421 1638.33044,311.177085 C1650.58383,307.672889 1663.97377,305.743657 1678,305.743657 C1710.50223,305.743657 1739.58781,316.102917 1759.03208,332.413354 C1773.90282,301.919943 1814.61136,280.030727 1862.5,280.030727 C1877.12025,280.030727 1891.07127,282.070937 1903.82215,285.773325 C1935.13684,264.267935 1978.09852,251 2025.5,251 C2113.55487,251 2186.28877,296.785324 2197.50078,356.108634 C2263.19998,363.556857 2313,399.263142 2313,442.188074 C2313,463.538349 2300.67982,483.102779 2280.21095,498.292466 C2280.73112,500.965248 2281,503.695409 2281,506.470398 C2281,514.512031 2278.74201,522.177203 2274.65392,529.160475 C2309.96805,535.828369 2336,558.79288 2336,586.097535 C2336,618.622083 2299.06349,644.988439 2253.5,644.988439 C2232.84934,644.988439 2213.9708,639.572372 2199.5,630.621624 C2185.0292,639.572372 2166.15066,644.988439 2145.5,644.988439 C2127.3739,644.988439 2110.61311,640.815663 2097,633.74241 C2083.38689,640.815663 2066.6261,644.988439 2048.5,644.988439 C2047.62474,644.988439 2046.75266,644.978709 2045.88397,644.959393 C2045.78727,647.255542 2045.50644,649.560919 2045.03354,651.868418 C2037.62753,688.005988 1985.92008,710.979469 1929.54171,703.181123 C1881.06668,696.475982 1844.92174,669.2049 1840.44807,638.719962 C1829.35508,646.180674 1814.42326,650.75108 1798,650.75108 C1794.81542,650.75108 1791.68691,650.579233 1788.6316,650.247789 C1771.85948,667.613119 1743.79279,678.995862 1712,678.995862 C1676.40283,678.995862 1645.47684,664.72597 1629.8456,643.766146 C1617.89518,666.199606 1592.23147,681.711895 1562.5,681.711895 C1521.35479,681.711895 1488,652.003325 1488,615.355948 C1488,614.923156 1488.00465,614.491331 1488.01391,614.060512 C1485.48006,613.520482 1482.98927,612.922594 1480.54561,612.269378 Z" id="Combined-Shape-Copy-5" transform="translate(1687.500000, 477.850635) scale(-1, 1) translate(-1687.500000, -477.850635) "></path>
                </g>
            </g>
        </g>
    </g>
</svg>