<svg width="89" height="49" viewBox="0 0 89 49" xmlns="http://www.w3.org/2000/svg"><title>Blog</title><path d="M10.2 37H.75c-.25 0-.4-.1-.4-.35V2.5c0-.25.15-.35.4-.35H9.3c6.75 0 9.3 2.1 9.3 8.4v.9c0 4.4-1.5 6.5-4.6 7.2 3.95.5 5.9 3.1 5.9 8.15v1.45C19.9 34.7 17 37 10.2 37zm6.3-25.45V10.4c0-4.95-1.75-6.5-7.25-6.5h-6.8v14.05h6.4c5.4 0 7.65-1.45 7.65-6.4zm1.3 16.75v-1.55c0-5.2-2-6.95-7.55-6.95h-7.8v15.3h7.75c5.45 0 7.6-1.7 7.6-6.8zm10.852 2.6c0 5.8 3 6.4 5.55 6.4.75 0 1.35-.05 1.7-.1.25-.05.4-.2.4-.45l.15-1c0-.3-.1-.4-.35-.4-.35.05-.9.1-1.45.1-2.05 0-3.9-.3-3.9-4.7V1.1c0-.25-.15-.35-.45-.35l-1.3.15c-.25.05-.35.2-.35.45V30.9zm13.252-.9V19.25c0-6.25 3.85-7.6 8.8-7.6h.4c4.9 0 8.6 1.35 8.6 7.6V30c0 6.2-3.85 7.6-8.8 7.6h-.4c-4.9 0-8.6-1.4-8.6-7.6zm8.6 5.75h.4c3.95 0 6.75-1.15 6.75-5.9v-10.6c0-4.75-2.65-5.85-6.55-5.85h-.4c-3.95 0-6.75 1.15-6.75 5.85v10.6c0 4.75 2.6 5.9 6.55 5.9zm16.052 5.4v-1c0-4.2 2.4-6.05 5-6.6-1.85-.45-2.4-1.85-2.4-3.25v-.4c0-1.4.45-2.9 2.6-3.4-1.85-.7-3.7-2.25-3.7-6.4v-1.2c0-6.25 4-7.25 8.95-7.25h.45c4.85 0 8.55 1 8.55 7.25v1.2c0 6.2-4.1 7.45-8.9 7.45-.75 0-2.05-.1-2.8-.05-2.7.15-3.15 1.2-3.15 2.6v.1c0 1.75.75 2.6 4.9 2.6h.8c5.9 0 11.15.2 11.15 7.3v1.05c0 6.8-5.35 7.45-10.85 7.45s-10.6-.6-10.6-7.45zm10.05-15.35h.65c3.85 0 6.65-1 6.65-5.75v-1.1c0-4.8-2.45-5.6-6.5-5.6h-.4c-4.05 0-6.85.8-6.85 5.6v1.1c0 4.75 2.6 5.75 6.45 5.75zm-7.95 14.4v.95c0 5.45 3.95 5.7 8.45 5.7 4.4 0 8.8-.25 8.8-5.7v-.95c0-5.45-3.85-5.7-8.55-5.7-4.65 0-8.7.35-8.7 5.7z" fill="#FFF" fill-rule="evenodd"/></svg>