<svg width="312" height="46" xmlns="http://www.w3.org/2000/svg" xmlns:xlink="http://www.w3.org/1999/xlink"><defs><path d="M22.5 1h267C301.926 1 312 11.074 312 23.5S301.926 46 289.5 46h-267C10.074 46 0 35.926 0 23.5S10.074 1 22.5 1z" id="a"/></defs><g fill="none" fill-rule="evenodd"><use fill="#ABD155" xlink:href="#a"/><path stroke="#ABD155" stroke-width="3" d="M22.5 2.5c-11.598 0-21 9.402-21 21s9.402 21 21 21h267c11.598 0 21-9.402 21-21s-9.402-21-21-21h-267z"/><path d="M48.94 19.94l-5 5a1.5 1.5 0 0 0 2.12 2.12l5-5a1.5 1.5 0 0 0-2.12-2.12z" fill="#4F660A" fill-rule="nonzero"/><path d="M43.5 12v12a1.5 1.5 0 0 0 3 0V12a1.5 1.5 0 0 0-3 0z" fill="#4F660A" fill-rule="nonzero"/><path d="M38.94 22.06l5 5a1.5 1.5 0 0 0 2.12-2.12l-5-5a1.5 1.5 0 0 0-2.12 2.12zM39 36.5h12a1.5 1.5 0 0 0 0-3H39a1.5 1.5 0 0 0 0 3z" fill="#4F660A" fill-rule="nonzero"/><path d="M76.07 18.67c1.127 1.113 1.69 2.89 1.69 5.33 0 2.453-.563 4.233-1.69 5.34-1.127 1.107-2.623 1.66-4.49 1.66h-4.04c-.213 0-.367-.047-.46-.14-.093-.093-.14-.247-.14-.46V17.6c0-.213.047-.367.14-.46.093-.093.247-.14.46-.14h4.04c1.867 0 3.363.557 4.49 1.67zm-7.37-.15v10.96h2.74c1.347 0 2.433-.44 3.26-1.32.827-.88 1.24-2.267 1.24-4.16 0-1.88-.413-3.263-1.24-4.15-.827-.887-1.913-1.33-3.26-1.33H68.7zm19.31 3.29c.78.927 1.17 2.263 1.17 4.01 0 1.733-.383 3.05-1.15 3.95-.767.9-1.897 1.35-3.39 1.35-1.507 0-2.657-.453-3.45-1.36-.793-.907-1.19-2.22-1.19-3.94 0-1.733.4-3.067 1.2-4 .8-.933 1.947-1.4 3.44-1.4 1.467 0 2.59.463 3.37 1.39zm-5.57 1c-.453.633-.68 1.623-.68 2.97 0 1.333.227 2.317.68 2.95.453.633 1.167.95 2.14.95.973 0 1.693-.317 2.16-.95.467-.633.7-1.617.7-2.95 0-1.333-.233-2.32-.7-2.96-.467-.64-1.187-.96-2.16-.96-.973 0-1.687.317-2.14.95zm22.14-1.97a.96.96 0 0 1-.06.28l-2.68 9.6c-.053.213-.32.32-.8.32h-.6c-.467 0-.727-.107-.78-.32l-1.6-6.34a19.52 19.52 0 0 1-.3-1.56c-.107.667-.207 1.18-.3 1.54l-1.64 6.36c-.053.213-.32.32-.8.32h-.6c-.48 0-.747-.107-.8-.32l-2.64-9.48c-.067-.2-.1-.333-.1-.4 0-.227.307-.34.92-.34.48 0 .747.107.8.32l1.68 6.4c.2.907.32 1.46.36 1.66.04.147.087.353.14.62.147-.893.313-1.66.5-2.3l1.66-6.36c.053-.227.313-.34.78-.34h.14c.453 0 .713.113.78.34l1.68 6.36c.16.627.277 1.13.35 1.51.073.38.123.637.15.77.013-.107.047-.267.1-.48.107-.64.227-1.227.36-1.76l1.68-6.42c.053-.213.327-.32.82-.32.533 0 .8.113.8.34zm9.41.44c.58.573.87 1.367.87 2.38v6.94c0 .293-.267.44-.8.44h-.08c-.533 0-.8-.147-.8-.44v-6.78c0-.613-.177-1.09-.53-1.43-.353-.34-.857-.51-1.51-.51-.453 0-.903.127-1.35.38a3.953 3.953 0 0 0-1.17 1.02v7.32c0 .293-.267.44-.8.44h-.08c-.533 0-.8-.147-.8-.44v-7.02c0-.88-.04-1.51-.12-1.89-.08-.38-.12-.59-.12-.63 0-.16.127-.277.38-.35.253-.073.487-.11.7-.11.187 0 .323.097.41.29.087.193.153.397.2.61.047.213.077.353.09.42a4.845 4.845 0 0 1 1.46-1.1c.547-.267 1.1-.4 1.66-.4 1.013 0 1.81.287 2.39.86zm5.69-4.88v11.8c0 .56.097.947.29 1.16.193.213.457.32.79.32.253 0 .443-.017.57-.05.127-.033.223-.05.29-.05.12 0 .22.123.3.37.08.247.12.437.12.57 0 .4-.487.6-1.46.6a2.852 2.852 0 0 1-1.79-.61c-.527-.407-.79-1.123-.79-2.15V16.4c0-.293.267-.44.8-.44h.08c.533 0 .8.147.8.44zm11.73 5.41c.78.927 1.17 2.263 1.17 4.01 0 1.733-.383 3.05-1.15 3.95-.767.9-1.897 1.35-3.39 1.35-1.507 0-2.657-.453-3.45-1.36-.793-.907-1.19-2.22-1.19-3.94 0-1.733.4-3.067 1.2-4 .8-.933 1.947-1.4 3.44-1.4 1.467 0 2.59.463 3.37 1.39zm-5.57 1c-.453.633-.68 1.623-.68 2.97 0 1.333.227 2.317.68 2.95.453.633 1.167.95 2.14.95.973 0 1.693-.317 2.16-.95.467-.633.7-1.617.7-2.95 0-1.333-.233-2.32-.7-2.96-.467-.64-1.187-.96-2.16-.96-.973 0-1.687.317-2.14.95zm16.1-1.56c.693.553 1.04 1.323 1.04 2.31v4.48c0 .88.04 1.51.12 1.89.08.38.12.59.12.63 0 .16-.127.277-.38.35-.253.073-.487.11-.7.11-.187 0-.323-.103-.41-.31a3.503 3.503 0 0 1-.2-.65 104.71 104.71 0 0 1-.09-.44c-.907 1-2.027 1.5-3.36 1.5-1.027 0-1.853-.253-2.48-.76s-.94-1.253-.94-2.24c0-1.053.317-1.843.95-2.37.633-.527 1.41-.867 2.33-1.02.92-.153 2.04-.237 3.36-.25v-.94c0-.493-.173-.897-.52-1.21-.347-.313-.907-.47-1.68-.47-.587 0-1.1.07-1.54.21-.44.14-.807.28-1.1.42-.293.14-.453.21-.48.21-.133 0-.283-.133-.45-.4-.167-.267-.25-.467-.25-.6 0-.173.177-.36.53-.56.353-.2.823-.37 1.41-.51a7.814 7.814 0 0 1 1.82-.21c1.24 0 2.207.277 2.9.83zm-3.09 4.79c-.633.067-1.19.253-1.67.56-.48.307-.72.78-.72 1.42 0 .533.143.94.43 1.22.287.28.71.42 1.27.42.653 0 1.217-.12 1.69-.36.473-.24.957-.58 1.45-1.02v-2.36c-1 .013-1.817.053-2.45.12zm15.37-9.64v11.64c0 .88.04 1.51.12 1.89.08.38.12.59.12.63 0 .16-.127.277-.38.35-.253.073-.487.11-.7.11-.187 0-.323-.103-.41-.31a3.503 3.503 0 0 1-.2-.65 104.71 104.71 0 0 1-.09-.44c-.96 1-2.02 1.5-3.18 1.5-.787 0-1.473-.227-2.06-.68-.587-.453-1.037-1.087-1.35-1.9-.313-.813-.47-1.733-.47-2.76 0-1.133.17-2.103.51-2.91.34-.807.817-1.417 1.43-1.83.613-.413 1.32-.62 2.12-.62.587 0 1.103.087 1.55.26.447.173.883.427 1.31.76V16.4c0-.293.267-.44.8-.44h.08c.533 0 .8.147.8.44zm-6.16 6.47c-.453.633-.68 1.55-.68 2.75 0 1.293.213 2.29.64 2.99.427.7 1.033 1.05 1.82 1.05.453 0 .917-.12 1.39-.36.473-.24.91-.58 1.31-1.02V22.8c-.72-.6-1.54-.9-2.46-.9-.893.013-1.567.337-2.02.97zm24.52-4.2c1.053 1.193 1.58 2.957 1.58 5.29s-.527 4.11-1.58 5.33c-1.053 1.22-2.587 1.83-4.6 1.83-2 0-3.527-.61-4.58-1.83-1.053-1.22-1.58-2.997-1.58-5.33s.523-4.097 1.57-5.29c1.047-1.193 2.577-1.79 4.59-1.79s3.547.597 4.6 1.79zm-7.83 1.14c-.74.94-1.11 2.323-1.11 4.15 0 1.84.37 3.24 1.11 4.2.74.96 1.817 1.44 3.23 1.44s2.493-.48 3.24-1.44c.747-.96 1.12-2.36 1.12-4.2 0-1.827-.373-3.21-1.12-4.15-.747-.94-1.827-1.41-3.24-1.41-1.413 0-2.49.47-3.23 1.41zm19.08 1.3c.58.46 1.023 1.093 1.33 1.9.307.807.46 1.73.46 2.77 0 1.133-.17 2.1-.51 2.9-.34.8-.817 1.407-1.43 1.82-.613.413-1.32.62-2.12.62-.587 0-1.103-.087-1.55-.26a5.174 5.174 0 0 1-1.31-.76v4.62c0 .293-.267.44-.8.44h-.08c-.533 0-.8-.147-.8-.44V23.58c0-.88-.04-1.51-.12-1.89-.08-.38-.12-.59-.12-.63 0-.16.127-.277.38-.35.253-.073.487-.11.7-.11.187 0 .323.097.41.29.087.193.153.397.2.61.047.213.077.353.09.42.96-1 2.02-1.5 3.18-1.5.813 0 1.51.23 2.09.69zm-3.82 1.13c-.473.24-.91.58-1.31 1.02v5.48c.72.6 1.547.9 2.48.9.88-.013 1.547-.337 2-.97.453-.633.68-1.55.68-2.75 0-1.293-.213-2.29-.64-2.99-.427-.7-1.033-1.05-1.82-1.05-.453 0-.917.12-1.39.36zm15.59-.49c.693.887 1.04 2.183 1.04 3.89 0 .12-.08.287-.24.5-.16.213-.3.32-.42.32h-6.32c.08 1.107.367 1.92.86 2.44s1.233.78 2.22.78c.56 0 1.043-.07 1.45-.21.407-.14.743-.28 1.01-.42.267-.14.42-.21.46-.21.133 0 .283.133.45.4.167.267.25.467.25.6 0 .16-.167.343-.5.55-.333.207-.777.38-1.33.52s-1.143.21-1.77.21c-1.667 0-2.9-.433-3.7-1.3-.8-.867-1.2-2.193-1.2-3.98 0-1.773.393-3.12 1.18-4.04.787-.92 1.947-1.38 3.48-1.38 1.36 0 2.387.443 3.08 1.33zm-5.94 3.27h5.2c0-2.107-.8-3.16-2.4-3.16-1.72 0-2.653 1.053-2.8 3.16zm16.65-3.74c.58.573.87 1.367.87 2.38v6.94c0 .293-.267.44-.8.44h-.08c-.533 0-.8-.147-.8-.44v-6.78c0-.613-.177-1.09-.53-1.43-.353-.34-.857-.51-1.51-.51-.453 0-.903.127-1.35.38a3.953 3.953 0 0 0-1.17 1.02v7.32c0 .293-.267.44-.8.44h-.08c-.533 0-.8-.147-.8-.44v-7.02c0-.88-.04-1.51-.12-1.89-.08-.38-.12-.59-.12-.63 0-.16.127-.277.38-.35.253-.073.487-.11.7-.11.187 0 .323.097.41.29.087.193.153.397.2.61.047.213.077.353.09.42a4.845 4.845 0 0 1 1.46-1.1c.547-.267 1.1-.4 1.66-.4 1.013 0 1.81.287 2.39.86zm10.87-3.88v12.08h5.5c.147 0 .25.047.31.14.06.093.09.247.09.46v.32c0 .213-.03.367-.09.46-.06.093-.163.14-.31.14h-6.66c-.213 0-.367-.047-.46-.14-.093-.093-.14-.247-.14-.46v-13c0-.293.267-.44.8-.44h.16c.533 0 .8.147.8.44zm9.56-1v1.18c0 .293-.267.44-.8.44h-.24c-.533 0-.8-.147-.8-.44V16.4c0-.293.267-.44.8-.44h.24c.533 0 .8.147.8.44zm-.08 4.54v9.66c0 .293-.267.44-.8.44h-.08c-.533 0-.8-.147-.8-.44v-9.66c0-.293.267-.44.8-.44h.08c.533 0 .8.147.8.44zm5.18-4.54v5.04a5.174 5.174 0 0 1 1.31-.76c.447-.173.963-.26 1.55-.26.8 0 1.507.207 2.12.62.613.413 1.09 1.02 1.43 1.82.34.8.51 1.767.51 2.9 0 1.04-.157 1.967-.47 2.78-.313.813-.763 1.447-1.35 1.9-.587.453-1.273.68-2.06.68-1.16 0-2.22-.5-3.18-1.5a6.19 6.19 0 0 1-.32 1.18c-.067.16-.247.24-.54.24h-.08c-.4 0-.6-.147-.6-.44V16.4c0-.293.267-.44.8-.44h.08c.533 0 .8.147.8.44zm1.17 5.73a3.713 3.713 0 0 0-1.17.67v5.48c.4.44.837.78 1.31 1.02.473.24.937.36 1.39.36.787 0 1.393-.35 1.82-1.05.427-.7.64-1.697.64-2.99 0-1.2-.227-2.117-.68-2.75-.453-.633-1.12-.957-2-.97-.44 0-.877.077-1.31.23zm15.67-.38c.693.887 1.04 2.183 1.04 3.89 0 .12-.08.287-.24.5-.16.213-.3.32-.42.32h-6.32c.08 1.107.367 1.92.86 2.44s1.233.78 2.22.78c.56 0 1.043-.07 1.45-.21.407-.14.743-.28 1.01-.42.267-.14.42-.21.46-.21.133 0 .283.133.45.4.167.267.25.467.25.6 0 .16-.167.343-.5.55-.333.207-.777.38-1.33.52s-1.143.21-1.77.21c-1.667 0-2.9-.433-3.7-1.3-.8-.867-1.2-2.193-1.2-3.98 0-1.773.393-3.12 1.18-4.04.787-.92 1.947-1.38 3.48-1.38 1.36 0 2.387.443 3.08 1.33zm-5.94 3.27h5.2c0-2.107-.8-3.16-2.4-3.16-1.72 0-2.653 1.053-2.8 3.16zm14.4-4.38c.2.147.3.333.3.56a2.3 2.3 0 0 1-.12.71c-.08.247-.173.37-.28.37-.067 0-.197-.037-.39-.11a2.011 2.011 0 0 0-.71-.11c-.307 0-.597.09-.87.27-.273.18-.503.377-.69.59-.187.213-.28.333-.28.36v7.32c0 .293-.267.44-.8.44h-.08c-.533 0-.8-.147-.8-.44v-7.02c0-.88-.04-1.51-.12-1.89-.08-.38-.12-.59-.12-.63 0-.16.127-.277.38-.35.253-.073.487-.11.7-.11.187 0 .323.097.41.29.087.193.153.397.2.61.047.213.077.353.09.42.707-1 1.48-1.5 2.32-1.5.373 0 .66.073.86.22zm4.62-2.2v2.1h1.68c.147 0 .25.047.31.14.06.093.09.247.09.46v.24c0 .213-.03.367-.09.46-.06.093-.163.14-.31.14h-1.68v6.22c0 .56.097.947.29 1.16.193.213.457.32.79.32.253 0 .443-.017.57-.05.127-.033.223-.05.29-.05.12 0 .22.123.3.37.08.247.12.437.12.57 0 .4-.487.6-1.46.6a2.852 2.852 0 0 1-1.79-.61c-.527-.407-.79-1.123-.79-2.15v-6.38h-1c-.133 0-.233-.047-.3-.14-.067-.093-.1-.247-.1-.46v-.24c0-.213.033-.367.1-.46.067-.093.167-.14.3-.14h1l.24-2.1c.027-.293.24-.44.64-.44h.2c.4 0 .6.147.6.44zm12.26 2.4a.96.96 0 0 1-.06.28l-5.14 13.62c-.107.28-.42.42-.94.42h-.3c-.44 0-.66-.107-.66-.32 0-.053.033-.167.1-.34l1.68-4.06-3.5-9.34a.952.952 0 0 1-.06-.26c0-.227.287-.34.86-.34h.16c.44 0 .707.107.8.32l2.04 5.42a28.5 28.5 0 0 1 .64 2.02h.04l.18-.58.48-1.44 2-5.42c.067-.213.34-.32.82-.32h.06c.533 0 .8.113.8.34z" fill="#24253A"/></g></svg>