<?xml version="1.0" encoding="UTF-8" standalone="no"?>
<svg width="89px" height="49px" viewBox="0 0 89 49" version="1.1" xmlns="http://www.w3.org/2000/svg" xmlns:xlink="http://www.w3.org/1999/xlink">
    <!-- Generator: Sketch 46.1 (44463) - http://www.bohemiancoding.com/sketch -->
    <title>Blog</title>
    <desc>Created with Sketch.</desc>
    <defs></defs>
    <g id="Page-1" stroke="none" stroke-width="1" fill="none" fill-rule="evenodd">
        <g id="About-v4" transform="translate(-152.000000, -215.000000)" fill="#FFFFFF">
            <g id="Group-2" transform="translate(148.000000, 214.000000)">
                <path d="M14.2,38 L4.75,38 C4.5,38 4.35,37.9 4.35,37.65 L4.35,3.5 C4.35,3.25 4.5,3.15 4.75,3.15 L13.3,3.15 C20.05,3.15 22.6,5.25 22.6,11.55 L22.6,12.45 C22.6,16.85 21.1,18.95 18,19.65 C21.95,20.15 23.9,22.75 23.9,27.8 L23.9,29.25 C23.9,35.7 21,38 14.2,38 Z M20.5,12.55 L20.5,11.4 C20.5,6.45 18.75,4.9 13.25,4.9 L6.45,4.9 L6.45,18.95 L12.85,18.95 C18.25,18.95 20.5,17.5 20.5,12.55 Z M21.8,29.3 L21.8,27.75 C21.8,22.55 19.8,20.8 14.25,20.8 L6.45,20.8 L6.45,36.1 L14.2,36.1 C19.65,36.1 21.8,34.4 21.8,29.3 Z M32.6520834,31.9 C32.6520834,37.7 35.6520834,38.3 38.2020834,38.3 C38.9520834,38.3 39.5520834,38.25 39.9020834,38.2 C40.1520834,38.15 40.3020834,38 40.3020834,37.75 L40.4520834,36.75 C40.4520834,36.45 40.3520834,36.35 40.1020834,36.35 C39.7520834,36.4 39.2020834,36.45 38.6520834,36.45 C36.6020834,36.45 34.7520834,36.15 34.7520834,31.75 L34.7520834,2.1 C34.7520834,1.85 34.6020834,1.75 34.3020834,1.75 L33.0020834,1.9 C32.7520834,1.95 32.6520834,2.1 32.6520834,2.35 L32.6520834,31.9 Z M45.9041667,31 L45.9041667,20.25 C45.9041667,14 49.7541667,12.65 54.7041667,12.65 L55.1041667,12.65 C60.0041667,12.65 63.7041667,14 63.7041667,20.25 L63.7041667,31 C63.7041667,37.2 59.8541667,38.6 54.9041667,38.6 L54.5041667,38.6 C49.6041667,38.6 45.9041667,37.2 45.9041667,31 Z M54.5041667,36.75 L54.9041667,36.75 C58.8541667,36.75 61.6541667,35.6 61.6541667,30.85 L61.6541667,20.25 C61.6541667,15.5 59.0041667,14.4 55.1041667,14.4 L54.7041667,14.4 C50.7541667,14.4 47.9541667,15.55 47.9541667,20.25 L47.9541667,30.85 C47.9541667,35.6 50.5541667,36.75 54.5041667,36.75 Z M70.5562501,42.15 L70.5562501,41.15 C70.5562501,36.95 72.9562501,35.1 75.5562501,34.55 C73.7062501,34.1 73.1562501,32.7 73.1562501,31.3 L73.1562501,30.9 C73.1562501,29.5 73.6062501,28 75.7562501,27.5 C73.9062501,26.8 72.0562501,25.25 72.0562501,21.1 L72.0562501,19.9 C72.0562501,13.65 76.0562501,12.65 81.0062501,12.65 L81.4562501,12.65 C86.3062501,12.65 90.0062501,13.65 90.0062501,19.9 L90.0062501,21.1 C90.0062501,27.3 85.9062501,28.55 81.1062501,28.55 C80.3562501,28.55 79.0562501,28.45 78.3062501,28.5 C75.6062501,28.65 75.1562501,29.7 75.1562501,31.1 L75.1562501,31.2 C75.1562501,32.95 75.9062501,33.8 80.0562501,33.8 L80.8562501,33.8 C86.7562501,33.8 92.0062501,34 92.0062501,41.1 L92.0062501,42.15 C92.0062501,48.95 86.6562501,49.6 81.1562501,49.6 C75.6562501,49.6 70.5562501,49 70.5562501,42.15 Z M80.6062501,26.8 L81.2562501,26.8 C85.1062501,26.8 87.9062501,25.8 87.9062501,21.05 L87.9062501,19.95 C87.9062501,15.15 85.4562501,14.35 81.4062501,14.35 L81.0062501,14.35 C76.9562501,14.35 74.1562501,15.15 74.1562501,19.95 L74.1562501,21.05 C74.1562501,25.8 76.7562501,26.8 80.6062501,26.8 Z M72.6562501,41.2 L72.6562501,42.15 C72.6562501,47.6 76.6062501,47.85 81.1062501,47.85 C85.5062501,47.85 89.9062501,47.6 89.9062501,42.15 L89.9062501,41.2 C89.9062501,35.75 86.0562501,35.5 81.3562501,35.5 C76.7062501,35.5 72.6562501,35.85 72.6562501,41.2 Z" id="Blog"></path>
            </g>
        </g>
    </g>
</svg>