<svg width="909" height="309" xmlns="http://www.w3.org/2000/svg"><path d="M808.42 422.707C812.33 453.794 843.11 478 880.5 478c18.17 0 34.777-5.716 47.5-15.159C940.723 472.284 957.33 478 975.5 478c15.875 0 30.559-4.363 42.5-11.764 11.941 7.4 26.625 11.764 42.5 11.764 13.899 0 26.884-3.345 37.916-9.144 13.6 5.82 29.328 9.144 46.084 9.144 51.639 0 93.5-31.564 93.5-70.5 0-34.516-32.897-63.239-76.339-69.315-8.492-46.54-56.37-82.185-114.161-82.185-3.375 0-6.716.122-10.018.36.343-2.92.518-5.874.518-8.86 0-48.6-46.399-89.06-107.745-97.766C918.676 83.126 850.89 32 769 32c-43.866 0-83.685 14.67-112.986 38.532C643.981 66.322 630.808 64 617 64c-31.655 0-59.976 12.2-78.87 31.398C523.71 59.652 484.325 34 438 34c-14.252 0-27.848 2.428-40.261 6.831C367.321 15.581 325.569 0 279.5 0c-85.262 0-155.733 53.367-166.945 122.627C48.555 131.25 0 173.133 0 223.5c0 24.691 11.669 47.343 31.106 65.037A59.802 59.802 0 0 0 30 300c0 9.373 2.18 18.31 6.13 26.458C2.043 334.482-23 361.234-23 393c0 38.108 36.041 69 80.5 69 20.06 0 38.405-6.289 52.5-16.692C124.095 455.711 142.44 462 162.5 462c17.543 0 33.775-4.81 47-12.975 13.225 8.165 29.457 12.975 47 12.975 15.983 0 30.877-3.992 43.4-10.877 10.492 4.41 22.113 7.492 34.458 8.94C348.656 471.207 367.652 478 388.5 478c20.297 0 38.84-6.439 53-17.064 14.16 10.625 32.703 17.064 53 17.064 17.543 0 33.775-4.81 47-12.975 13.225 8.165 29.457 12.975 47 12.975 15.356 0 29.709-3.686 41.918-10.081C645.49 474.335 662.923 478 681.5 478c43.921 0 81.453-20.486 96.483-49.393 10.712-.806 20.941-2.836 30.436-5.9z" fill="#E9EFFD" fill-rule="nonzero" opacity=".301"/></svg>