<svg width="159" height="87" xmlns="http://www.w3.org/2000/svg"><path d="M18.625 66H1.615c-.45 0-.72-.18-.72-.63V3.9c0-.45.27-.63.72-.63h15.39c12.15 0 16.74 3.78 16.74 15.12v1.62c0 7.92-2.7 11.7-8.28 12.96 7.11.9 10.62 5.58 10.62 14.67v2.61c0 11.61-5.22 15.75-17.46 15.75zm11.34-45.81v-2.07c0-8.91-3.15-11.7-13.05-11.7H4.675v25.29h11.52c9.72 0 13.77-2.61 13.77-11.52zm2.34 30.15v-2.79c0-9.36-3.6-12.51-13.59-12.51H4.675v27.54h13.95c9.81 0 13.68-3.06 13.68-12.24zm19.534 4.68c0 10.44 5.4 11.52 9.99 11.52 1.35 0 2.43-.09 3.06-.18.45-.09.72-.36.72-.81l.27-1.8c0-.54-.18-.72-.63-.72-.63.09-1.62.18-2.61.18-3.69 0-7.02-.54-7.02-8.46V1.38c0-.45-.27-.63-.81-.63l-2.34.27c-.45.09-.63.36-.63.81v53.19zm23.853-1.62V34.05c0-11.25 6.93-13.68 15.84-13.68h.72c8.82 0 15.48 2.43 15.48 13.68V53.4c0 11.16-6.93 13.68-15.84 13.68h-.72c-8.82 0-15.48-2.52-15.48-13.68zm15.48 10.35h.72c7.11 0 12.15-2.07 12.15-10.62V34.05c0-8.55-4.77-10.53-11.79-10.53h-.72c-7.11 0-12.15 2.07-12.15 10.53v19.08c0 8.55 4.68 10.62 11.79 10.62zm28.894 9.72v-1.8c0-7.56 4.32-10.89 9-11.88-3.33-.81-4.32-3.33-4.32-5.85v-.72c0-2.52.81-5.22 4.68-6.12-3.33-1.26-6.66-4.05-6.66-11.52v-2.16c0-11.25 7.2-13.05 16.11-13.05h.81c8.73 0 15.39 1.8 15.39 13.05v2.16c0 11.16-7.38 13.41-16.02 13.41-1.35 0-3.69-.18-5.04-.09-4.86.27-5.67 2.16-5.67 4.68v.18c0 3.15 1.35 4.68 8.82 4.68h1.44c10.62 0 20.07.36 20.07 13.14v1.89c0 12.24-9.63 13.41-19.53 13.41s-19.08-1.08-19.08-13.41zm18.09-27.63h1.17c6.93 0 11.97-1.8 11.97-10.35v-1.98c0-8.64-4.41-10.08-11.7-10.08h-.72c-7.29 0-12.33 1.44-12.33 10.08v1.98c0 8.55 4.68 10.35 11.61 10.35zm-14.31 25.92v1.71c0 9.81 7.11 10.26 15.21 10.26 7.92 0 15.84-.45 15.84-10.26v-1.71c0-9.81-6.93-10.26-15.39-10.26-8.37 0-15.66.63-15.66 10.26z" fill="#FFF" fill-rule="evenodd"/></svg>