<?xml version="1.0" encoding="UTF-8" standalone="no"?>
<svg width="312px" height="46px" viewBox="0 0 312 46" version="1.1" xmlns="http://www.w3.org/2000/svg" xmlns:xlink="http://www.w3.org/1999/xlink">
    <!-- Generator: Sketch 46.2 (44496) - http://www.bohemiancoding.com/sketch -->
    <title>Artboard 4 Copy 3</title>
    <desc>Created with Sketch.</desc>
    <defs>
        <path d="M22.5,1 L289.5,1 L289.5,1 C301.926407,1 312,11.0735931 312,23.5 L312,23.5 L312,23.5 C312,35.9264069 301.926407,46 289.5,46 L22.5,46 L22.5,46 C10.0735931,46 1.52179594e-15,35.9264069 0,23.5 L0,23.5 L0,23.5 C-1.52179594e-15,11.0735931 10.0735931,1 22.5,1 Z" id="path-1"></path>
    </defs>
    <g id="Page-1" stroke="none" stroke-width="1" fill="none" fill-rule="evenodd">
        <g id="Artboard-4-Copy-3">
            <g id="Rectangle-2-Copy-3">
                <use fill="#ABD155" fill-rule="evenodd" xlink:href="#path-1"></use>
                <path stroke="#ABD155" stroke-width="3" d="M22.5,2.5 C10.9020203,2.5 1.5,11.9020203 1.5,23.5 C1.5,35.0979797 10.9020203,44.5 22.5,44.5 L289.5,44.5 C301.09798,44.5 310.5,35.0979797 310.5,23.5 C310.5,11.9020203 301.09798,2.5 289.5,2.5 L22.5,2.5 Z"></path>
            </g>
            <path d="M43.9393398,22.0606602 L48.9393398,27.0606602 C49.5251263,27.6464466 50.4748737,27.6464466 51.0606602,27.0606602 C51.6464466,26.4748737 51.6464466,25.5251263 51.0606602,24.9393398 L46.0606602,19.9393398 C45.4748737,19.3535534 44.5251263,19.3535534 43.9393398,19.9393398 C43.3535534,20.5251263 43.3535534,21.4748737 43.9393398,22.0606602 Z" id="Stroke-7" fill="#4F660A" fill-rule="nonzero" transform="translate(47.500000, 23.500000) rotate(-270.000000) translate(-47.500000, -23.500000) "></path>
            <path d="M39,19.5 L51,19.5 C51.8284271,19.5 52.5,18.8284271 52.5,18 C52.5,17.1715729 51.8284271,16.5 51,16.5 L39,16.5 C38.1715729,16.5 37.5,17.1715729 37.5,18 C37.5,18.8284271 38.1715729,19.5 39,19.5 Z" id="Stroke-1" fill="#4F660A" fill-rule="nonzero" transform="translate(45.000000, 18.000000) rotate(-270.000000) translate(-45.000000, -18.000000) "></path>
            <path d="M43.9393398,19.9393398 L38.9393398,24.9393398 C38.3535534,25.5251263 38.3535534,26.4748737 38.9393398,27.0606602 C39.5251263,27.6464466 40.4748737,27.6464466 41.0606602,27.0606602 L46.0606602,22.0606602 C46.6464466,21.4748737 46.6464466,20.5251263 46.0606602,19.9393398 C45.4748737,19.3535534 44.5251263,19.3535534 43.9393398,19.9393398 Z" id="Stroke-9" fill="#4F660A" fill-rule="nonzero" transform="translate(42.500000, 23.500000) rotate(-90.000000) translate(-42.500000, -23.500000) "></path>
            <path d="M39,36.5 L51,36.5 C51.8284271,36.5 52.5,35.8284271 52.5,35 C52.5,34.1715729 51.8284271,33.5 51,33.5 L39,33.5 C38.1715729,33.5 37.5,34.1715729 37.5,35 C37.5,35.8284271 38.1715729,36.5 39,36.5 Z" id="Stroke-1-Copy-2" fill="#4F660A" fill-rule="nonzero"></path>
            <path d="M76.07,18.67 C77.1966723,19.7833389 77.76,21.5599878 77.76,24 C77.76,26.4533456 77.1966723,28.2333278 76.07,29.34 C74.9433277,30.4466722 73.446676,31 71.58,31 L67.54,31 C67.3266656,31 67.1733338,30.9533338 67.08,30.86 C66.9866662,30.7666662 66.94,30.6133344 66.94,30.4 L66.94,17.6 C66.94,17.3866656 66.9866662,17.2333338 67.08,17.14 C67.1733338,17.0466662 67.3266656,17 67.54,17 L71.58,17 C73.446676,17 74.9433277,17.5566611 76.07,18.67 Z M68.7,18.52 L68.7,29.48 L71.44,29.48 C72.7866734,29.48 73.8733292,29.0400044 74.7,28.16 C75.5266708,27.2799956 75.94,25.8933428 75.94,24 C75.94,22.1199906 75.5266708,20.7366711 74.7,19.85 C73.8733292,18.9633289 72.7866734,18.52 71.44,18.52 L68.7,18.52 Z M88.01,21.81 C88.7900039,22.7366713 89.18,24.0733246 89.18,25.82 C89.18,27.553342 88.7966705,28.8699955 88.03,29.77 C87.2633295,30.6700045 86.1333408,31.12 84.64,31.12 C83.1333258,31.12 81.9833373,30.6666712 81.19,29.76 C80.3966627,28.8533288 80,27.5400086 80,25.82 C80,24.086658 80.399996,22.753338 81.2,21.82 C82.000004,20.886662 83.1466592,20.42 84.64,20.42 C86.106674,20.42 87.2299961,20.8833287 88.01,21.81 Z M82.44,22.81 C81.9866644,23.4433365 81.76,24.4333266 81.76,25.78 C81.76,27.11334 81.9866644,28.0966635 82.44,28.73 C82.8933356,29.3633365 83.6066618,29.68 84.58,29.68 C85.5533382,29.68 86.273331,29.3633365 86.74,28.73 C87.206669,28.0966635 87.44,27.11334 87.44,25.78 C87.44,24.44666 87.206669,23.4600032 86.74,22.82 C86.273331,22.1799968 85.5533382,21.86 84.58,21.86 C83.6066618,21.86 82.8933356,22.1766635 82.44,22.81 Z M104.58,20.84 C104.58,20.906667 104.56,20.9999994 104.52,21.12 L101.84,30.72 C101.786666,30.9333344 101.520002,31.04 101.04,31.04 L100.44,31.04 C99.973331,31.04 99.7133336,30.9333344 99.66,30.72 L98.06,24.38 C97.9666662,24.0066648 97.8666672,23.48667 97.76,22.82 C97.6533328,23.48667 97.5533338,23.9999982 97.46,24.36 L95.82,30.72 C95.7666664,30.9333344 95.5000024,31.04 95.02,31.04 L94.42,31.04 C93.9399976,31.04 93.6733336,30.9333344 93.62,30.72 L90.98,21.24 C90.913333,21.039999 90.88,20.906667 90.88,20.84 C90.88,20.6133322 91.1866636,20.5 91.8,20.5 C92.2800024,20.5 92.5466664,20.6066656 92.6,20.82 L94.28,27.22 C94.480001,28.1266712 94.5999998,28.679999 94.64,28.88 C94.6800002,29.0266674 94.7266664,29.233332 94.78,29.5 C94.9266674,28.6066622 95.0933324,27.8400032 95.28,27.2 L96.94,20.84 C96.9933336,20.6133322 97.253331,20.5 97.72,20.5 L97.86,20.5 C98.3133356,20.5 98.573333,20.6133322 98.64,20.84 L100.32,27.2 C100.480001,27.8266698 100.596666,28.3299981 100.67,28.71 C100.743334,29.0900019 100.793333,29.346666 100.82,29.48 C100.833333,29.3733328 100.866666,29.2133344 100.92,29 C101.026667,28.3599968 101.146666,27.773336 101.28,27.24 L102.96,20.82 C103.013334,20.6066656 103.286664,20.5 103.78,20.5 C104.313336,20.5 104.58,20.6133322 104.58,20.84 Z M113.99,21.28 C114.570003,21.8533362 114.86,22.6466616 114.86,23.66 L114.86,30.6 C114.86,30.8933348 114.593336,31.04 114.06,31.04 L113.98,31.04 C113.446664,31.04 113.18,30.8933348 113.18,30.6 L113.18,23.82 C113.18,23.2066636 113.003335,22.7300017 112.65,22.39 C112.296665,22.0499983 111.793337,21.88 111.14,21.88 C110.686664,21.88 110.236669,22.0066654 109.79,22.26 C109.343331,22.5133346 108.953335,22.8533312 108.62,23.28 L108.62,30.6 C108.62,30.8933348 108.353336,31.04 107.82,31.04 L107.74,31.04 C107.206664,31.04 106.94,30.8933348 106.94,30.6 L106.94,23.58 C106.94,22.6999956 106.9,22.0700019 106.82,21.69 C106.74,21.3099981 106.7,21.1000002 106.7,21.06 C106.7,20.8999992 106.826665,20.7833337 107.08,20.71 C107.333335,20.6366663 107.566666,20.6 107.78,20.6 C107.966668,20.6 108.103333,20.6966657 108.19,20.89 C108.276667,21.0833343 108.343333,21.2866656 108.39,21.5 C108.436667,21.7133344 108.466667,21.853333 108.48,21.92 C108.906669,21.453331 109.393331,21.086668 109.94,20.82 C110.486669,20.553332 111.039997,20.42 111.6,20.42 C112.613338,20.42 113.409997,20.7066638 113.99,21.28 Z M119.68,16.4 L119.68,28.2 C119.68,28.7600028 119.776666,29.1466656 119.97,29.36 C120.163334,29.5733344 120.426665,29.68 120.76,29.68 C121.013335,29.68 121.203333,29.6633335 121.33,29.63 C121.456667,29.5966665 121.553333,29.58 121.62,29.58 C121.740001,29.58 121.84,29.7033321 121.92,29.95 C122,30.1966679 122.04,30.386666 122.04,30.52 C122.04,30.920002 121.553338,31.12 120.58,31.12 C119.91333,31.12 119.316669,30.9166687 118.79,30.51 C118.263331,30.1033313 118,29.3866718 118,28.36 L118,16.4 C118,16.1066652 118.266664,15.96 118.8,15.96 L118.88,15.96 C119.413336,15.96 119.68,16.1066652 119.68,16.4 Z M131.41,21.81 C132.190004,22.7366713 132.58,24.0733246 132.58,25.82 C132.58,27.553342 132.19667,28.8699955 131.43,29.77 C130.66333,30.6700045 129.533341,31.12 128.04,31.12 C126.533326,31.12 125.383337,30.6666712 124.59,29.76 C123.796663,28.8533288 123.4,27.5400086 123.4,25.82 C123.4,24.086658 123.799996,22.753338 124.6,21.82 C125.400004,20.886662 126.546659,20.42 128.04,20.42 C129.506674,20.42 130.629996,20.8833287 131.41,21.81 Z M125.84,22.81 C125.386664,23.4433365 125.16,24.4333266 125.16,25.78 C125.16,27.11334 125.386664,28.0966635 125.84,28.73 C126.293336,29.3633365 127.006662,29.68 127.98,29.68 C128.953338,29.68 129.673331,29.3633365 130.14,28.73 C130.606669,28.0966635 130.84,27.11334 130.84,25.78 C130.84,24.44666 130.606669,23.4600032 130.14,22.82 C129.673331,22.1799968 128.953338,21.86 127.98,21.86 C127.006662,21.86 126.293336,22.1766635 125.84,22.81 Z M141.94,21.25 C142.633337,21.8033361 142.98,22.5733284 142.98,23.56 L142.98,28.04 C142.98,28.9200044 143.02,29.5499981 143.1,29.93 C143.18,30.3100019 143.22,30.5199998 143.22,30.56 C143.22,30.7200008 143.093335,30.8366663 142.84,30.91 C142.586665,30.9833337 142.353334,31.02 142.14,31.02 C141.953332,31.02 141.816667,30.9166677 141.73,30.71 C141.643333,30.5033323 141.576667,30.2866678 141.53,30.06 C141.483333,29.8333322 141.453333,29.686667 141.44,29.62 C140.533329,30.620005 139.41334,31.12 138.08,31.12 C137.053328,31.12 136.22667,30.8666692 135.6,30.36 C134.97333,29.8533308 134.66,29.1066716 134.66,28.12 C134.66,27.0666614 134.976664,26.2766693 135.61,25.75 C136.243336,25.2233307 137.019995,24.8833341 137.94,24.73 C138.860005,24.5766659 139.979993,24.4933334 141.3,24.48 L141.3,23.54 C141.3,23.0466642 141.126668,22.6433349 140.78,22.33 C140.433332,22.0166651 139.873337,21.86 139.1,21.86 C138.51333,21.86 138.000002,21.9299993 137.56,22.07 C137.119998,22.2100007 136.753335,22.3499993 136.46,22.49 C136.166665,22.6300007 136.006667,22.7 135.98,22.7 C135.846666,22.7 135.696667,22.566668 135.53,22.3 C135.363332,22.033332 135.28,21.833334 135.28,21.7 C135.28,21.5266658 135.456665,21.340001 135.81,21.14 C136.163335,20.939999 136.63333,20.7700007 137.22,20.63 C137.80667,20.4899993 138.41333,20.42 139.04,20.42 C140.280006,20.42 141.246663,20.6966639 141.94,21.25 Z M138.85,26.04 C138.216663,26.106667 137.660002,26.2933318 137.18,26.6 C136.699998,26.9066682 136.46,27.3799968 136.46,28.02 C136.46,28.553336 136.603332,28.9599986 136.89,29.24 C137.176668,29.5200014 137.599997,29.66 138.16,29.66 C138.813337,29.66 139.376664,29.5400012 139.85,29.3 C140.323336,29.0599988 140.806664,28.7200022 141.3,28.28 L141.3,25.92 C140.299995,25.9333334 139.483337,25.973333 138.85,26.04 Z M154.22,16.4 L154.22,28.04 C154.22,28.9200044 154.26,29.5499981 154.34,29.93 C154.42,30.3100019 154.46,30.5199998 154.46,30.56 C154.46,30.7200008 154.333335,30.8366663 154.08,30.91 C153.826665,30.9833337 153.593334,31.02 153.38,31.02 C153.193332,31.02 153.056667,30.9166677 152.97,30.71 C152.883333,30.5033323 152.816667,30.2866678 152.77,30.06 C152.723333,29.8333322 152.693333,29.686667 152.68,29.62 C151.719995,30.620005 150.660006,31.12 149.5,31.12 C148.713329,31.12 148.02667,30.8933356 147.44,30.44 C146.85333,29.9866644 146.403335,29.3533374 146.09,28.54 C145.776665,27.7266626 145.62,26.8066718 145.62,25.78 C145.62,24.646661 145.789998,23.6766707 146.13,22.87 C146.470002,22.0633293 146.946664,21.4533354 147.56,21.04 C148.173336,20.6266646 148.879996,20.42 149.68,20.42 C150.26667,20.42 150.783331,20.5066658 151.23,20.68 C151.676669,20.8533342 152.113331,21.106665 152.54,21.44 L152.54,16.4 C152.54,16.1066652 152.806664,15.96 153.34,15.96 L153.42,15.96 C153.953336,15.96 154.22,16.1066652 154.22,16.4 Z M148.06,22.87 C147.606664,23.5033365 147.38,24.419994 147.38,25.62 C147.38,26.9133398 147.593331,27.9099965 148.02,28.61 C148.446669,29.3100035 149.053329,29.66 149.84,29.66 C150.293336,29.66 150.756664,29.5400012 151.23,29.3 C151.703336,29.0599988 152.139998,28.7200022 152.54,28.28 L152.54,22.8 C151.819996,22.199997 151.000005,21.9 150.08,21.9 C149.186662,21.9133334 148.513336,22.2366635 148.06,22.87 Z M172.58,18.67 C173.633339,19.8633393 174.16,21.626655 174.16,23.96 C174.16,26.293345 173.633339,28.0699939 172.58,29.29 C171.526661,30.5100061 169.993343,31.12 167.98,31.12 C165.97999,31.12 164.453339,30.5100061 163.4,29.29 C162.346661,28.0699939 161.82,26.293345 161.82,23.96 C161.82,21.626655 162.343328,19.8633393 163.39,18.67 C164.436672,17.4766607 165.966657,16.88 167.98,16.88 C169.993343,16.88 171.526661,17.4766607 172.58,18.67 Z M164.75,19.81 C164.009996,20.7500047 163.64,22.1333242 163.64,23.96 C163.64,25.8000092 164.009996,27.1999952 164.75,28.16 C165.490004,29.1200048 166.56666,29.6 167.98,29.6 C169.39334,29.6 170.47333,29.1200048 171.22,28.16 C171.96667,27.1999952 172.34,25.8000092 172.34,23.96 C172.34,22.1333242 171.96667,20.7500047 171.22,19.81 C170.47333,18.8699953 169.39334,18.4 167.98,18.4 C166.56666,18.4 165.490004,18.8699953 164.75,19.81 Z M183.83,21.11 C184.410003,21.5700023 184.853332,22.2033293 185.16,23.01 C185.466668,23.8166707 185.62,24.7399948 185.62,25.78 C185.62,26.913339 185.450002,27.879996 185.11,28.68 C184.769998,29.480004 184.293336,30.0866646 183.68,30.5 C183.066664,30.9133354 182.360004,31.12 181.56,31.12 C180.97333,31.12 180.456669,31.0333342 180.01,30.86 C179.563331,30.6866658 179.126669,30.433335 178.7,30.1 L178.7,34.72 C178.7,35.0133348 178.433336,35.16 177.9,35.16 L177.82,35.16 C177.286664,35.16 177.02,35.0133348 177.02,34.72 L177.02,23.58 C177.02,22.6999956 176.98,22.0700019 176.9,21.69 C176.82,21.3099981 176.78,21.1000002 176.78,21.06 C176.78,20.8999992 176.906665,20.7833337 177.16,20.71 C177.413335,20.6366663 177.646666,20.6 177.86,20.6 C178.046668,20.6 178.183333,20.6966657 178.27,20.89 C178.356667,21.0833343 178.423333,21.2866656 178.47,21.5 C178.516667,21.7133344 178.546667,21.853333 178.56,21.92 C179.520005,20.919995 180.579994,20.42 181.74,20.42 C182.553337,20.42 183.249997,20.6499977 183.83,21.11 Z M180.01,22.24 C179.536664,22.4800012 179.100002,22.8199978 178.7,23.26 L178.7,28.74 C179.420004,29.340003 180.246662,29.64 181.18,29.64 C182.060004,29.6266666 182.726664,29.3033365 183.18,28.67 C183.633336,28.0366635 183.86,27.120006 183.86,25.92 C183.86,24.6266602 183.646669,23.6300035 183.22,22.93 C182.793331,22.2299965 182.186671,21.88 181.4,21.88 C180.946664,21.88 180.483336,21.9999988 180.01,22.24 Z M195.6,21.75 C196.293337,22.6366711 196.64,23.9333248 196.64,25.64 C196.64,25.7600006 196.560001,25.9266656 196.4,26.14 C196.239999,26.3533344 196.100001,26.46 195.98,26.46 L189.66,26.46 C189.74,27.5666722 190.026664,28.3799974 190.52,28.9 C191.013336,29.4200026 191.753328,29.68 192.74,29.68 C193.300003,29.68 193.783331,29.6100007 194.19,29.47 C194.596669,29.3299993 194.933332,29.1900007 195.2,29.05 C195.466668,28.9099993 195.62,28.84 195.66,28.84 C195.793334,28.84 195.943332,28.973332 196.11,29.24 C196.276667,29.506668 196.36,29.706666 196.36,29.84 C196.36,30.0000008 196.193335,30.1833323 195.86,30.39 C195.526665,30.5966677 195.083336,30.7699993 194.53,30.91 C193.976664,31.0500007 193.38667,31.12 192.76,31.12 C191.093325,31.12 189.860004,30.686671 189.06,29.82 C188.259996,28.953329 187.86,27.6266756 187.86,25.84 C187.86,24.0666578 188.253329,22.7200046 189.04,21.8 C189.826671,20.8799954 190.986659,20.42 192.52,20.42 C193.880007,20.42 194.906663,20.8633289 195.6,21.75 Z M189.66,25.02 L194.86,25.02 C194.86,22.9133228 194.060008,21.86 192.46,21.86 C190.739991,21.86 189.806667,22.9133228 189.66,25.02 Z M206.31,21.28 C206.890003,21.8533362 207.18,22.6466616 207.18,23.66 L207.18,30.6 C207.18,30.8933348 206.913336,31.04 206.38,31.04 L206.3,31.04 C205.766664,31.04 205.5,30.8933348 205.5,30.6 L205.5,23.82 C205.5,23.2066636 205.323335,22.7300017 204.97,22.39 C204.616665,22.0499983 204.113337,21.88 203.46,21.88 C203.006664,21.88 202.556669,22.0066654 202.11,22.26 C201.663331,22.5133346 201.273335,22.8533312 200.94,23.28 L200.94,30.6 C200.94,30.8933348 200.673336,31.04 200.14,31.04 L200.06,31.04 C199.526664,31.04 199.26,30.8933348 199.26,30.6 L199.26,23.58 C199.26,22.6999956 199.22,22.0700019 199.14,21.69 C199.06,21.3099981 199.02,21.1000002 199.02,21.06 C199.02,20.8999992 199.146665,20.7833337 199.4,20.71 C199.653335,20.6366663 199.886666,20.6 200.1,20.6 C200.286668,20.6 200.423333,20.6966657 200.51,20.89 C200.596667,21.0833343 200.663333,21.2866656 200.71,21.5 C200.756667,21.7133344 200.786667,21.853333 200.8,21.92 C201.226669,21.453331 201.713331,21.086668 202.26,20.82 C202.806669,20.553332 203.359997,20.42 203.92,20.42 C204.933338,20.42 205.729997,20.7066638 206.31,21.28 Z M217.18,17.4 L217.18,29.48 L222.68,29.48 C222.826667,29.48 222.93,29.5266662 222.99,29.62 C223.05,29.7133338 223.08,29.8666656 223.08,30.08 L223.08,30.4 C223.08,30.6133344 223.05,30.7666662 222.99,30.86 C222.93,30.9533338 222.826667,31 222.68,31 L216.02,31 C215.806666,31 215.653334,30.9533338 215.56,30.86 C215.466666,30.7666662 215.42,30.6133344 215.42,30.4 L215.42,17.4 C215.42,17.1066652 215.686664,16.96 216.22,16.96 L216.38,16.96 C216.913336,16.96 217.18,17.1066652 217.18,17.4 Z M226.74,16.4 L226.74,17.58 C226.74,17.8733348 226.473336,18.02 225.94,18.02 L225.7,18.02 C225.166664,18.02 224.9,17.8733348 224.9,17.58 L224.9,16.4 C224.9,16.1066652 225.166664,15.96 225.7,15.96 L225.94,15.96 C226.473336,15.96 226.74,16.1066652 226.74,16.4 Z M226.66,20.94 L226.66,30.6 C226.66,30.8933348 226.393336,31.04 225.86,31.04 L225.78,31.04 C225.246664,31.04 224.98,30.8933348 224.98,30.6 L224.98,20.94 C224.98,20.6466652 225.246664,20.5 225.78,20.5 L225.86,20.5 C226.393336,20.5 226.66,20.6466652 226.66,20.94 Z M231.84,16.4 L231.84,21.44 C232.266669,21.106665 232.703331,20.8533342 233.15,20.68 C233.596669,20.5066658 234.11333,20.42 234.7,20.42 C235.500004,20.42 236.206664,20.6266646 236.82,21.04 C237.433336,21.4533354 237.909998,22.059996 238.25,22.86 C238.590002,23.660004 238.76,24.626661 238.76,25.76 C238.76,26.8000052 238.603335,27.7266626 238.29,28.54 C237.976665,29.3533374 237.52667,29.9866644 236.94,30.44 C236.35333,30.8933356 235.666671,31.12 234.88,31.12 C233.719994,31.12 232.660005,30.620005 231.7,29.62 C231.633333,30.020002 231.526667,30.4133314 231.38,30.8 C231.313333,30.9600008 231.133335,31.04 230.84,31.04 L230.76,31.04 C230.359998,31.04 230.16,30.8933348 230.16,30.6 L230.16,16.4 C230.16,16.1066652 230.426664,15.96 230.96,15.96 L231.04,15.96 C231.573336,15.96 231.84,16.1066652 231.84,16.4 Z M233.01,22.13 C232.576665,22.2833341 232.186668,22.5066652 231.84,22.8 L231.84,28.28 C232.240002,28.7200022 232.676664,29.0599988 233.15,29.3 C233.623336,29.5400012 234.086664,29.66 234.54,29.66 C235.326671,29.66 235.933331,29.3100035 236.36,28.61 C236.786669,27.9099965 237,26.9133398 237,25.62 C237,24.419994 236.773336,23.5033365 236.32,22.87 C235.866664,22.2366635 235.200004,21.9133334 234.32,21.9 C233.879998,21.9 233.443336,21.9766659 233.01,22.13 Z M248.68,21.75 C249.373337,22.6366711 249.72,23.9333248 249.72,25.64 C249.72,25.7600006 249.640001,25.9266656 249.48,26.14 C249.319999,26.3533344 249.180001,26.46 249.06,26.46 L242.74,26.46 C242.82,27.5666722 243.106664,28.3799974 243.6,28.9 C244.093336,29.4200026 244.833328,29.68 245.82,29.68 C246.380003,29.68 246.863331,29.6100007 247.27,29.47 C247.676669,29.3299993 248.013332,29.1900007 248.28,29.05 C248.546668,28.9099993 248.7,28.84 248.74,28.84 C248.873334,28.84 249.023333,28.973332 249.19,29.24 C249.356668,29.506668 249.44,29.706666 249.44,29.84 C249.44,30.0000008 249.273335,30.1833323 248.94,30.39 C248.606665,30.5966677 248.163336,30.7699993 247.61,30.91 C247.056664,31.0500007 246.46667,31.12 245.84,31.12 C244.173325,31.12 242.940004,30.686671 242.14,29.82 C241.339996,28.953329 240.94,27.6266756 240.94,25.84 C240.94,24.0666578 241.333329,22.7200046 242.12,21.8 C242.906671,20.8799954 244.066659,20.42 245.6,20.42 C246.960007,20.42 247.986663,20.8633289 248.68,21.75 Z M242.74,25.02 L247.94,25.02 C247.94,22.9133228 247.140008,21.86 245.54,21.86 C243.819991,21.86 242.886667,22.9133228 242.74,25.02 Z M257.14,20.64 C257.340001,20.7866674 257.44,20.9733322 257.44,21.2 C257.44,21.4266678 257.4,21.6633321 257.32,21.91 C257.24,22.1566679 257.146667,22.28 257.04,22.28 C256.973333,22.28 256.843334,22.2433337 256.65,22.17 C256.456666,22.0966663 256.220001,22.06 255.94,22.06 C255.633332,22.06 255.343335,22.1499991 255.07,22.33 C254.796665,22.5100009 254.566668,22.7066656 254.38,22.92 C254.193332,23.1333344 254.1,23.2533332 254.1,23.28 L254.1,30.6 C254.1,30.8933348 253.833336,31.04 253.3,31.04 L253.22,31.04 C252.686664,31.04 252.42,30.8933348 252.42,30.6 L252.42,23.58 C252.42,22.6999956 252.38,22.0700019 252.3,21.69 C252.22,21.3099981 252.18,21.1000002 252.18,21.06 C252.18,20.8999992 252.306665,20.7833337 252.56,20.71 C252.813335,20.6366663 253.046666,20.6 253.26,20.6 C253.446668,20.6 253.583333,20.6966657 253.67,20.89 C253.756667,21.0833343 253.823333,21.2866656 253.87,21.5 C253.916667,21.7133344 253.946667,21.853333 253.96,21.92 C254.66667,20.919995 255.439996,20.42 256.28,20.42 C256.653335,20.42 256.939999,20.4933326 257.14,20.64 Z M261.76,18.44 L261.76,20.54 L263.44,20.54 C263.586667,20.54 263.69,20.5866662 263.75,20.68 C263.81,20.7733338 263.84,20.9266656 263.84,21.14 L263.84,21.38 C263.84,21.5933344 263.81,21.7466662 263.75,21.84 C263.69,21.9333338 263.586667,21.98 263.44,21.98 L261.76,21.98 L261.76,28.2 C261.76,28.7600028 261.856666,29.1466656 262.05,29.36 C262.243334,29.5733344 262.506665,29.68 262.84,29.68 C263.093335,29.68 263.283333,29.6633335 263.41,29.63 C263.536667,29.5966665 263.633333,29.58 263.7,29.58 C263.820001,29.58 263.92,29.7033321 264,29.95 C264.08,30.1966679 264.12,30.386666 264.12,30.52 C264.12,30.920002 263.633338,31.12 262.66,31.12 C261.99333,31.12 261.396669,30.9166687 260.87,30.51 C260.343331,30.1033313 260.08,29.3866718 260.08,28.36 L260.08,21.98 L259.08,21.98 C258.946666,21.98 258.846667,21.9333338 258.78,21.84 C258.713333,21.7466662 258.68,21.5933344 258.68,21.38 L258.68,21.14 C258.68,20.9266656 258.713333,20.7733338 258.78,20.68 C258.846667,20.5866662 258.946666,20.54 259.08,20.54 L260.08,20.54 L260.32,18.44 C260.346667,18.1466652 260.559998,18 260.96,18 L261.16,18 C261.560002,18 261.76,18.1466652 261.76,18.44 Z M274.02,20.84 C274.02,20.906667 274,20.9999994 273.96,21.12 L268.82,34.74 C268.713333,35.0200014 268.400003,35.16 267.88,35.16 L267.58,35.16 C267.139998,35.16 266.92,35.0533344 266.92,34.84 C266.92,34.7866664 266.953333,34.6733342 267.02,34.5 L268.7,30.44 L265.2,21.1 C265.16,20.9799994 265.14,20.8933336 265.14,20.84 C265.14,20.6133322 265.426664,20.5 266,20.5 L266.16,20.5 C266.600002,20.5 266.866666,20.6066656 266.96,20.82 L269,26.24 C269.213334,26.8266696 269.426666,27.4999962 269.64,28.26 L269.68,28.26 L269.86,27.68 L270.34,26.24 L272.34,20.82 C272.406667,20.6066656 272.679998,20.5 273.16,20.5 L273.22,20.5 C273.753336,20.5 274.02,20.6133322 274.02,20.84 Z" id="Download-Open-Libert" fill="#24253A"></path>
        </g>
    </g>
</svg>
