<svg width="369" height="46" xmlns="http://www.w3.org/2000/svg"><g fill="none" fill-rule="evenodd"><path d="M22.5 3C11.178 3 2 12.178 2 23.5S11.178 44 22.5 44h324c11.322 0 20.5-9.178 20.5-20.5S357.822 3 346.5 3h-324zm0-2h324C358.926 1 369 11.074 369 23.5S358.926 46 346.5 46h-324C10.074 46 0 35.926 0 23.5S10.074 1 22.5 1z" fill="#AECA63" fill-rule="nonzero"/><path d="M45.22 17.28l4.74 13.16c.04.093.06.18.06.26 0 .227-.287.34-.86.34H49c-.467 0-.733-.107-.8-.32l-1.18-3.28h-5.88L40 30.72c-.067.213-.333.32-.8.32h-.1c-.573 0-.86-.113-.86-.34 0-.067.02-.16.06-.28l4.74-13.14c.067-.213.333-.32.8-.32h.58c.467 0 .733.107.8.32zM44.1 18.8c-.107.533-.207.92-.3 1.16l-2.1 5.96h4.78l-2.1-5.96c-.067-.213-.147-.6-.24-1.16h-.04zm12.25 1.86c.54.173.81.373.81.6 0 .173-.077.397-.23.67-.153.273-.29.41-.41.41a7.933 7.933 0 0 1-.53-.27c-.313-.167-.743-.25-1.29-.25-.507 0-.93.113-1.27.34-.34.227-.51.533-.51.92 0 .453.12.813.36 1.08.24.267.64.487 1.2.66.853.267 1.503.53 1.95.79.447.26.767.58.96.96.193.38.29.877.29 1.49 0 .587-.157 1.117-.47 1.59-.313.473-.74.847-1.28 1.12-.54.273-1.137.41-1.79.41-.573 0-1.103-.07-1.59-.21-.487-.14-.873-.31-1.16-.51-.287-.2-.43-.38-.43-.54 0-.133.083-.333.25-.6.167-.267.317-.4.45-.4.027 0 .153.073.38.22.227.147.51.28.85.4.34.12.717.18 1.13.18 1.307 0 1.96-.54 1.96-1.62 0-.453-.147-.813-.44-1.08-.293-.267-.813-.507-1.56-.72-1.053-.307-1.78-.69-2.18-1.15-.4-.46-.6-1.077-.6-1.85 0-.56.143-1.06.43-1.5.287-.44.68-.783 1.18-1.03.5-.247 1.07-.37 1.71-.37.68 0 1.29.087 1.83.26zm5.73-4.26v8.94h.08l3.82-4.56c.147-.187.5-.28 1.06-.28h.08c.227 0 .4.023.52.07.12.047.18.11.18.19 0 .12-.067.253-.2.4l-3.72 4.4 4.12 4.88c.12.133.18.24.18.32 0 .107-.067.18-.2.22-.133.04-.36.06-.68.06h-.08c-.28 0-.507-.017-.68-.05a.683.683 0 0 1-.4-.21l-4-4.74h-.08v4.56c0 .293-.267.44-.8.44h-.08c-.533 0-.8-.147-.8-.44V16.4c0-.293.267-.44.8-.44h.08c.533 0 .8.147.8.44zM82 21.25c.693.553 1.04 1.323 1.04 2.31v4.48c0 .88.04 1.51.12 1.89.08.38.12.59.12.63 0 .16-.127.277-.38.35-.253.073-.487.11-.7.11-.187 0-.323-.103-.41-.31a3.503 3.503 0 0 1-.2-.65l-.09-.44c-.907 1-2.027 1.5-3.36 1.5-1.027 0-1.853-.253-2.48-.76s-.94-1.253-.94-2.24c0-1.053.317-1.843.95-2.37.633-.527 1.41-.867 2.33-1.02.92-.153 2.04-.237 3.36-.25v-.94c0-.493-.173-.897-.52-1.21-.347-.313-.907-.47-1.68-.47-.587 0-1.1.07-1.54.21-.44.14-.807.28-1.1.42-.293.14-.453.21-.48.21-.133 0-.283-.133-.45-.4-.167-.267-.25-.467-.25-.6 0-.173.177-.36.53-.56.353-.2.823-.37 1.41-.51a7.814 7.814 0 0 1 1.82-.21c1.24 0 2.207.277 2.9.83zm-3.09 4.79c-.633.067-1.19.253-1.67.56-.48.307-.72.78-.72 1.42 0 .533.143.94.43 1.22.287.28.71.42 1.27.42.653 0 1.217-.12 1.69-.36.473-.24.957-.58 1.45-1.02v-2.36c-1 .013-1.817.053-2.45.12zm18.63-4.12c.107-.507.213-.9.32-1.18.067-.16.247-.24.54-.24h.08c.4 0 .6.147.6.44v13.78c0 .293-.267.44-.8.44h-.08c-.533 0-.8-.147-.8-.44V30.1a5.174 5.174 0 0 1-1.31.76c-.447.173-.963.26-1.55.26-.8 0-1.507-.207-2.12-.62-.613-.413-1.09-1.02-1.43-1.82-.34-.8-.51-1.76-.51-2.88 0-1.04.157-1.967.47-2.78.313-.813.763-1.45 1.35-1.91.587-.46 1.273-.69 2.06-.69 1.16 0 2.22.5 3.18 1.5zm-4.66 1.01c-.427.7-.64 1.697-.64 2.99 0 1.2.227 2.117.68 2.75.453.633 1.12.957 2 .97.933 0 1.76-.3 2.48-.9v-5.48c-.4-.44-.837-.78-1.31-1.02-.473-.24-.937-.36-1.39-.36-.787 0-1.393.35-1.82 1.05zm17.3-1.99v7.1c0 .88.04 1.51.12 1.89.08.38.12.59.12.63 0 .16-.127.277-.38.35-.253.073-.487.11-.7.11-.187 0-.323-.103-.41-.31a3.503 3.503 0 0 1-.2-.65 104.71 104.71 0 0 1-.09-.44 4.845 4.845 0 0 1-1.46 1.1c-.547.267-1.1.4-1.66.4-1.013 0-1.81-.287-2.39-.86-.58-.573-.87-1.367-.87-2.38v-6.94c0-.293.267-.44.8-.44h.08c.533 0 .8.147.8.44v6.78c0 .613.177 1.09.53 1.43.353.34.857.51 1.51.51.453 0 .903-.127 1.35-.38a3.953 3.953 0 0 0 1.17-1.02v-7.32c0-.293.267-.44.8-.44h.08c.533 0 .8.147.8.44zm10.56.81c.693.887 1.04 2.183 1.04 3.89 0 .12-.08.287-.24.5-.16.213-.3.32-.42.32h-6.32c.08 1.107.367 1.92.86 2.44s1.233.78 2.22.78c.56 0 1.043-.07 1.45-.21.407-.14.743-.28 1.01-.42.267-.14.42-.21.46-.21.133 0 .283.133.45.4.167.267.25.467.25.6 0 .16-.167.343-.5.55-.333.207-.777.38-1.33.52s-1.143.21-1.77.21c-1.667 0-2.9-.433-3.7-1.3-.8-.867-1.2-2.193-1.2-3.98 0-1.773.393-3.12 1.18-4.04.787-.92 1.947-1.38 3.48-1.38 1.36 0 2.387.443 3.08 1.33zm-5.94 3.27h5.2c0-2.107-.8-3.16-2.4-3.16-1.72 0-2.653 1.053-2.8 3.16zm13.97-4.36c.54.173.81.373.81.6 0 .173-.077.397-.23.67-.153.273-.29.41-.41.41a7.933 7.933 0 0 1-.53-.27c-.313-.167-.743-.25-1.29-.25-.507 0-.93.113-1.27.34-.34.227-.51.533-.51.92 0 .453.12.813.36 1.08.24.267.64.487 1.2.66.853.267 1.503.53 1.95.79.447.26.767.58.96.96.193.38.29.877.29 1.49 0 .587-.157 1.117-.47 1.59-.313.473-.74.847-1.28 1.12-.54.273-1.137.41-1.79.41-.573 0-1.103-.07-1.59-.21-.487-.14-.873-.31-1.16-.51-.287-.2-.43-.38-.43-.54 0-.133.083-.333.25-.6.167-.267.317-.4.45-.4.027 0 .153.073.38.22.227.147.51.28.85.4.34.12.717.18 1.13.18 1.307 0 1.96-.54 1.96-1.62 0-.453-.147-.813-.44-1.08-.293-.267-.813-.507-1.56-.72-1.053-.307-1.78-.69-2.18-1.15-.4-.46-.6-1.077-.6-1.85 0-.56.143-1.06.43-1.5.287-.44.68-.783 1.18-1.03.5-.247 1.07-.37 1.71-.37.68 0 1.29.087 1.83.26zm5.99-2.22v2.1h1.68c.147 0 .25.047.31.14.06.093.09.247.09.46v.24c0 .213-.03.367-.09.46-.06.093-.163.14-.31.14h-1.68v6.22c0 .56.097.947.29 1.16.193.213.457.32.79.32.253 0 .443-.017.57-.05.127-.033.223-.05.29-.05.12 0 .22.123.3.37.08.247.12.437.12.57 0 .4-.487.6-1.46.6a2.852 2.852 0 0 1-1.79-.61c-.527-.407-.79-1.123-.79-2.15v-6.38h-1c-.133 0-.233-.047-.3-.14-.067-.093-.1-.247-.1-.46v-.24c0-.213.033-.367.1-.46.067-.093.167-.14.3-.14h1l.24-2.1c.027-.293.24-.44.64-.44h.2c.4 0 .6.147.6.44zm6.6-2.04v1.18c0 .293-.267.44-.8.44h-.24c-.533 0-.8-.147-.8-.44V16.4c0-.293.267-.44.8-.44h.24c.533 0 .8.147.8.44zm-.08 4.54v9.66c0 .293-.267.44-.8.44h-.08c-.533 0-.8-.147-.8-.44v-9.66c0-.293.267-.44.8-.44h.08c.533 0 .8.147.8.44zm10.91.87c.78.927 1.17 2.263 1.17 4.01 0 1.733-.383 3.05-1.15 3.95-.767.9-1.897 1.35-3.39 1.35-1.507 0-2.657-.453-3.45-1.36-.793-.907-1.19-2.22-1.19-3.94 0-1.733.4-3.067 1.2-4 .8-.933 1.947-1.4 3.44-1.4 1.467 0 2.59.463 3.37 1.39zm-5.57 1c-.453.633-.68 1.623-.68 2.97 0 1.333.227 2.317.68 2.95.453.633 1.167.95 2.14.95.973 0 1.693-.317 2.16-.95.467-.633.7-1.617.7-2.95 0-1.333-.233-2.32-.7-2.96-.467-.64-1.187-.96-2.16-.96-.973 0-1.687.317-2.14.95zm16.61-1.53c.58.573.87 1.367.87 2.38v6.94c0 .293-.267.44-.8.44h-.08c-.533 0-.8-.147-.8-.44v-6.78c0-.613-.177-1.09-.53-1.43-.353-.34-.857-.51-1.51-.51-.453 0-.903.127-1.35.38a3.953 3.953 0 0 0-1.17 1.02v7.32c0 .293-.267.44-.8.44h-.08c-.533 0-.8-.147-.8-.44v-7.02c0-.88-.04-1.51-.12-1.89-.08-.38-.12-.59-.12-.63 0-.16.127-.277.38-.35.253-.073.487-.11.7-.11.187 0 .323.097.41.29.087.193.153.397.2.61.047.213.077.353.09.42a4.845 4.845 0 0 1 1.46-1.1c.547-.267 1.1-.4 1.66-.4 1.013 0 1.81.287 2.39.86zm16.28.53c.78.927 1.17 2.263 1.17 4.01 0 1.733-.383 3.05-1.15 3.95-.767.9-1.897 1.35-3.39 1.35-1.507 0-2.657-.453-3.45-1.36-.793-.907-1.19-2.22-1.19-3.94 0-1.733.4-3.067 1.2-4 .8-.933 1.947-1.4 3.44-1.4 1.467 0 2.59.463 3.37 1.39zm-5.57 1c-.453.633-.68 1.623-.68 2.97 0 1.333.227 2.317.68 2.95.453.633 1.167.95 2.14.95.973 0 1.693-.317 2.16-.95.467-.633.7-1.617.7-2.95 0-1.333-.233-2.32-.7-2.96-.467-.64-1.187-.96-2.16-.96-.973 0-1.687.317-2.14.95zm16.61-1.53c.58.573.87 1.367.87 2.38v6.94c0 .293-.267.44-.8.44h-.08c-.533 0-.8-.147-.8-.44v-6.78c0-.613-.177-1.09-.53-1.43-.353-.34-.857-.51-1.51-.51-.453 0-.903.127-1.35.38a3.953 3.953 0 0 0-1.17 1.02v7.32c0 .293-.267.44-.8.44h-.08c-.533 0-.8-.147-.8-.44v-7.02c0-.88-.04-1.51-.12-1.89-.08-.38-.12-.59-.12-.63 0-.16.127-.277.38-.35.253-.073.487-.11.7-.11.187 0 .323.097.41.29.087.193.153.397.2.61.047.213.077.353.09.42a4.845 4.845 0 0 1 1.46-1.1c.547-.267 1.1-.4 1.66-.4 1.013 0 1.81.287 2.39.86zm13.98-4.24c.513.107.95.253 1.31.44.36.187.54.393.54.62 0 .147-.083.36-.25.64-.167.28-.297.42-.39.42a.472.472 0 0 1-.2-.06l-.2-.1c-.707-.4-1.447-.6-2.22-.6-.773 0-1.397.2-1.87.6-.473.4-.71.953-.71 1.66 0 .453.117.823.35 1.11.233.287.51.503.83.65.32.147.833.353 1.54.62.8.307 1.453.603 1.96.89.507.287.937.7 1.29 1.24s.53 1.23.53 2.07c0 1.2-.4 2.147-1.2 2.84-.8.693-1.88 1.04-3.24 1.04-.733 0-1.417-.08-2.05-.24-.633-.16-1.14-.357-1.52-.59-.38-.233-.57-.443-.57-.63 0-.16.09-.38.27-.66.18-.28.323-.42.43-.42.04 0 .167.06.38.18a9.6 9.6 0 0 0 1.4.61c.453.153 1.007.23 1.66.23.773 0 1.403-.217 1.89-.65.487-.433.73-1.003.73-1.71 0-.493-.133-.903-.4-1.23a2.985 2.985 0 0 0-.97-.78c-.38-.193-.93-.43-1.65-.71-.773-.307-1.387-.587-1.84-.84-.453-.253-.84-.63-1.16-1.13-.32-.5-.48-1.157-.48-1.97 0-.72.183-1.36.55-1.92.367-.56.887-.997 1.56-1.31.673-.313 1.45-.47 2.33-.47.4 0 .857.053 1.37.16zm7.01 1.4v2.1h1.68c.147 0 .25.047.31.14.06.093.09.247.09.46v.24c0 .213-.03.367-.09.46-.06.093-.163.14-.31.14h-1.68v6.22c0 .56.097.947.29 1.16.193.213.457.32.79.32.253 0 .443-.017.57-.05.127-.033.223-.05.29-.05.12 0 .22.123.3.37.08.247.12.437.12.57 0 .4-.487.6-1.46.6a2.852 2.852 0 0 1-1.79-.61c-.527-.407-.79-1.123-.79-2.15v-6.38h-1c-.133 0-.233-.047-.3-.14-.067-.093-.1-.247-.1-.46v-.24c0-.213.033-.367.1-.46.067-.093.167-.14.3-.14h1l.24-2.1c.027-.293.24-.44.64-.44h.2c.4 0 .6.147.6.44zm11.28 2.81c.693.553 1.04 1.323 1.04 2.31v4.48c0 .88.04 1.51.12 1.89.08.38.12.59.12.63 0 .16-.127.277-.38.35-.253.073-.487.11-.7.11-.187 0-.323-.103-.41-.31a3.503 3.503 0 0 1-.2-.65 104.71 104.71 0 0 1-.09-.44c-.907 1-2.027 1.5-3.36 1.5-1.027 0-1.853-.253-2.48-.76s-.94-1.253-.94-2.24c0-1.053.317-1.843.95-2.37.633-.527 1.41-.867 2.33-1.02.92-.153 2.04-.237 3.36-.25v-.94c0-.493-.173-.897-.52-1.21-.347-.313-.907-.47-1.68-.47-.587 0-1.1.07-1.54.21-.44.14-.807.28-1.1.42-.293.14-.453.21-.48.21-.133 0-.283-.133-.45-.4-.167-.267-.25-.467-.25-.6 0-.173.177-.36.53-.56.353-.2.823-.37 1.41-.51a7.814 7.814 0 0 1 1.82-.21c1.24 0 2.207.277 2.9.83zm-3.09 4.79c-.633.067-1.19.253-1.67.56-.48.307-.72.78-.72 1.42 0 .533.143.94.43 1.22.287.28.71.42 1.27.42.653 0 1.217-.12 1.69-.36.473-.24.957-.58 1.45-1.02v-2.36c-1 .013-1.817.053-2.45.12zm13.59-5.34c.613.187.92.4.92.64 0 .173-.077.397-.23.67-.153.273-.29.41-.41.41a.18.18 0 0 1-.09-.03.481.481 0 0 0-.13-.05 5.324 5.324 0 0 0-2.18-.48c-1.933 0-2.9 1.273-2.9 3.82 0 1.413.237 2.433.71 3.06.473.627 1.27.94 2.39.94.813 0 1.567-.173 2.26-.52l.22-.08c.133 0 .28.13.44.39.16.26.24.47.24.63 0 .16-.143.317-.43.47-.287.153-.67.283-1.15.39-.48.107-1 .16-1.56.16-1.653 0-2.887-.427-3.7-1.28-.813-.853-1.22-2.227-1.22-4.12 0-1.907.453-3.267 1.36-4.08.907-.813 2.033-1.22 3.38-1.22.773 0 1.467.093 2.08.28zm5.4-4.3v8.94h.08l3.82-4.56c.147-.187.5-.28 1.06-.28h.08c.227 0 .4.023.52.07.12.047.18.11.18.19 0 .12-.067.253-.2.4l-3.72 4.4 4.12 4.88c.12.133.18.24.18.32 0 .107-.067.18-.2.22-.133.04-.36.06-.68.06h-.08c-.28 0-.507-.017-.68-.05a.683.683 0 0 1-.4-.21l-4-4.74h-.08v4.56c0 .293-.267.44-.8.44h-.08c-.533 0-.8-.147-.8-.44V16.4c0-.293.267-.44.8-.44h.08c.533 0 .8.147.8.44zm23.56 2.27c1.053 1.193 1.58 2.957 1.58 5.29s-.527 4.11-1.58 5.33c-1.053 1.22-2.587 1.83-4.6 1.83-2 0-3.527-.61-4.58-1.83-1.053-1.22-1.58-2.997-1.58-5.33s.523-4.097 1.57-5.29c1.047-1.193 2.577-1.79 4.59-1.79s3.547.597 4.6 1.79zm-7.83 1.14c-.74.94-1.11 2.323-1.11 4.15 0 1.84.37 3.24 1.11 4.2.74.96 1.817 1.44 3.23 1.44s2.493-.48 3.24-1.44c.747-.96 1.12-2.36 1.12-4.2 0-1.827-.373-3.21-1.12-4.15-.747-.94-1.827-1.41-3.24-1.41-1.413 0-2.49.47-3.23 1.41zm19.83 1.03a.96.96 0 0 1-.06.28l-3.22 9.6c-.067.213-.333.32-.8.32h-.7c-.467 0-.733-.107-.8-.32l-3.22-9.62a.952.952 0 0 1-.06-.26c0-.227.287-.34.86-.34h.1c.467 0 .733.107.8.32l2.04 6.38c.133.427.367 1.26.7 2.5h.08l.14-.6c.147-.76.3-1.38.46-1.86l2.06-6.42c.067-.213.34-.32.82-.32h.06c.493 0 .74.113.74.34zm9.26.91c.693.887 1.04 2.183 1.04 3.89 0 .12-.08.287-.24.5-.16.213-.3.32-.42.32h-6.32c.08 1.107.367 1.92.86 2.44s1.233.78 2.22.78c.56 0 1.043-.07 1.45-.21.407-.14.743-.28 1.01-.42.267-.14.42-.21.46-.21.133 0 .283.133.45.4.167.267.25.467.25.6 0 .16-.167.343-.5.55-.333.207-.777.38-1.33.52s-1.143.21-1.77.21c-1.667 0-2.9-.433-3.7-1.3-.8-.867-1.2-2.193-1.2-3.98 0-1.773.393-3.12 1.18-4.04.787-.92 1.947-1.38 3.48-1.38 1.36 0 2.387.443 3.08 1.33zm-5.94 3.27h5.2c0-2.107-.8-3.16-2.4-3.16-1.72 0-2.653 1.053-2.8 3.16zm14.4-4.38c.2.147.3.333.3.56a2.3 2.3 0 0 1-.12.71c-.08.247-.173.37-.28.37-.067 0-.197-.037-.39-.11a2.011 2.011 0 0 0-.71-.11c-.307 0-.597.09-.87.27-.273.18-.503.377-.69.59-.187.213-.28.333-.28.36v7.32c0 .293-.267.44-.8.44h-.08c-.533 0-.8-.147-.8-.44v-7.02c0-.88-.04-1.51-.12-1.89-.08-.38-.12-.59-.12-.63 0-.16.127-.277.38-.35.253-.073.487-.11.7-.11.187 0 .323.097.41.29.087.193.153.397.2.61.047.213.077.353.09.42.707-1 1.48-1.5 2.32-1.5.373 0 .66.073.86.22zm7-4.16c0 .133-.04.323-.12.57-.08.247-.18.37-.3.37-.067 0-.163-.017-.29-.05a2.41 2.41 0 0 0-.57-.05c-.347 0-.613.097-.8.29-.187.193-.28.59-.28 1.19v1.74h1.74c.147 0 .25.047.31.14.06.093.09.247.09.46v.24c0 .213-.03.367-.09.46-.06.093-.163.14-.31.14h-1.74v8.62c0 .293-.267.44-.8.44h-.08c-.533 0-.8-.147-.8-.44v-8.62h-.8c-.133 0-.233-.047-.3-.14-.067-.093-.1-.247-.1-.46v-.24c0-.213.033-.367.1-.46.067-.093.167-.14.3-.14h.8v-1.9c0-1.053.26-1.777.78-2.17s1.12-.59 1.8-.59c.973 0 1.46.2 1.46.6zm3.08-.08v11.8c0 .56.097.947.29 1.16.193.213.457.32.79.32.253 0 .443-.017.57-.05.127-.033.223-.05.29-.05.12 0 .22.123.3.37.08.247.12.437.12.57 0 .4-.487.6-1.46.6a2.852 2.852 0 0 1-1.79-.61c-.527-.407-.79-1.123-.79-2.15V16.4c0-.293.267-.44.8-.44h.08c.533 0 .8.147.8.44zm11.65 5.41c.78.927 1.17 2.263 1.17 4.01 0 1.733-.383 3.05-1.15 3.95-.767.9-1.897 1.35-3.39 1.35-1.507 0-2.657-.453-3.45-1.36-.793-.907-1.19-2.22-1.19-3.94 0-1.733.4-3.067 1.2-4 .8-.933 1.947-1.4 3.44-1.4 1.467 0 2.59.463 3.37 1.39zm-5.57 1c-.453.633-.68 1.623-.68 2.97 0 1.333.227 2.317.68 2.95.453.633 1.167.95 2.14.95.973 0 1.693-.317 2.16-.95.467-.633.7-1.617.7-2.95 0-1.333-.233-2.32-.7-2.96-.467-.64-1.187-.96-2.16-.96-.973 0-1.687.317-2.14.95zm22.14-1.97a.96.96 0 0 1-.06.28l-2.68 9.6c-.053.213-.32.32-.8.32h-.6c-.467 0-.727-.107-.78-.32l-1.6-6.34a19.52 19.52 0 0 1-.3-1.56c-.107.667-.207 1.18-.3 1.54l-1.64 6.36c-.053.213-.32.32-.8.32h-.6c-.48 0-.747-.107-.8-.32l-2.64-9.48c-.067-.2-.1-.333-.1-.4 0-.227.307-.34.92-.34.48 0 .747.107.8.32l1.68 6.4c.2.907.32 1.46.36 1.66.04.147.087.353.14.62.147-.893.313-1.66.5-2.3l1.66-6.36c.053-.227.313-.34.78-.34h.14c.453 0 .713.113.78.34l1.68 6.36c.16.627.277 1.13.35 1.51.073.38.123.637.15.77.013-.107.047-.267.1-.48.107-.64.227-1.227.36-1.76l1.68-6.42c.053-.213.327-.32.82-.32.533 0 .8.113.8.34z" fill="#4F660A"/></g></svg>