<?xml version="1.0" encoding="UTF-8" standalone="no"?>
<svg width="159px" height="87px" viewBox="0 0 159 87" version="1.1" xmlns="http://www.w3.org/2000/svg" xmlns:xlink="http://www.w3.org/1999/xlink">
    <!-- Generator: Sketch 45.2 (43514) - http://www.bohemiancoding.com/sketch -->
    <title>Blog Copy</title>
    <desc>Created with Sketch.</desc>
    <defs></defs>
    <g id="Page-1" stroke="none" stroke-width="1" fill="none" fill-rule="evenodd">
        <g id="Blog-v2" transform="translate(-244.000000, -206.000000)" fill="#FFFFFF">
            <path d="M262.625,272 L245.615,272 C245.165,272 244.895,271.82 244.895,271.37 L244.895,209.9 C244.895,209.45 245.165,209.27 245.615,209.27 L261.005,209.27 C273.155,209.27 277.745,213.05 277.745,224.39 L277.745,226.01 C277.745,233.93 275.045,237.71 269.465,238.97 C276.575,239.87 280.085,244.55 280.085,253.64 L280.085,256.25 C280.085,267.86 274.865,272 262.625,272 Z M273.965,226.19 L273.965,224.12 C273.965,215.21 270.815,212.42 260.915,212.42 L248.675,212.42 L248.675,237.71 L260.195,237.71 C269.915,237.71 273.965,235.1 273.965,226.19 Z M276.305,256.34 L276.305,253.55 C276.305,244.19 272.705,241.04 262.715,241.04 L248.675,241.04 L248.675,268.58 L262.625,268.58 C272.435,268.58 276.305,265.52 276.305,256.34 Z M295.83875,261.02 C295.83875,271.46 301.23875,272.54 305.82875,272.54 C307.17875,272.54 308.25875,272.45 308.88875,272.36 C309.33875,272.27 309.60875,272 309.60875,271.55 L309.87875,269.75 C309.87875,269.21 309.69875,269.03 309.24875,269.03 C308.61875,269.12 307.62875,269.21 306.63875,269.21 C302.94875,269.21 299.61875,268.67 299.61875,260.75 L299.61875,207.38 C299.61875,206.93 299.34875,206.75 298.80875,206.75 L296.46875,207.02 C296.01875,207.11 295.83875,207.38 295.83875,207.83 L295.83875,261.02 Z M319.6925,259.4 L319.6925,240.05 C319.6925,228.8 326.6225,226.37 335.5325,226.37 L336.2525,226.37 C345.0725,226.37 351.7325,228.8 351.7325,240.05 L351.7325,259.4 C351.7325,270.56 344.8025,273.08 335.8925,273.08 L335.1725,273.08 C326.3525,273.08 319.6925,270.56 319.6925,259.4 Z M335.1725,269.75 L335.8925,269.75 C343.0025,269.75 348.0425,267.68 348.0425,259.13 L348.0425,240.05 C348.0425,231.5 343.2725,229.52 336.2525,229.52 L335.5325,229.52 C328.4225,229.52 323.3825,231.59 323.3825,240.05 L323.3825,259.13 C323.3825,267.68 328.0625,269.75 335.1725,269.75 Z M364.06625,279.47 L364.06625,277.67 C364.06625,270.11 368.38625,266.78 373.06625,265.79 C369.73625,264.98 368.74625,262.46 368.74625,259.94 L368.74625,259.22 C368.74625,256.7 369.55625,254 373.42625,253.1 C370.09625,251.84 366.76625,249.05 366.76625,241.58 L366.76625,239.42 C366.76625,228.17 373.96625,226.37 382.87625,226.37 L383.68625,226.37 C392.41625,226.37 399.07625,228.17 399.07625,239.42 L399.07625,241.58 C399.07625,252.74 391.69625,254.99 383.05625,254.99 C381.70625,254.99 379.36625,254.81 378.01625,254.9 C373.15625,255.17 372.34625,257.06 372.34625,259.58 L372.34625,259.76 C372.34625,262.91 373.69625,264.44 381.16625,264.44 L382.60625,264.44 C393.22625,264.44 402.67625,264.8 402.67625,277.58 L402.67625,279.47 C402.67625,291.71 393.04625,292.88 383.14625,292.88 C373.24625,292.88 364.06625,291.8 364.06625,279.47 Z M382.15625,251.84 L383.32625,251.84 C390.25625,251.84 395.29625,250.04 395.29625,241.49 L395.29625,239.51 C395.29625,230.87 390.88625,229.43 383.59625,229.43 L382.87625,229.43 C375.58625,229.43 370.54625,230.87 370.54625,239.51 L370.54625,241.49 C370.54625,250.04 375.22625,251.84 382.15625,251.84 Z M367.84625,277.76 L367.84625,279.47 C367.84625,289.28 374.95625,289.73 383.05625,289.73 C390.97625,289.73 398.89625,289.28 398.89625,279.47 L398.89625,277.76 C398.89625,267.95 391.96625,267.5 383.50625,267.5 C375.13625,267.5 367.84625,268.13 367.84625,277.76 Z" id="Blog-Copy"></path>
        </g>
    </g>
</svg>