<?xml version="1.0" encoding="UTF-8" standalone="no"?>
<svg width="369px" height="46px" viewBox="0 0 369 46" version="1.1" xmlns="http://www.w3.org/2000/svg" xmlns:xlink="http://www.w3.org/1999/xlink">
    <!-- Generator: Sketch 46.2 (44496) - http://www.bohemiancoding.com/sketch -->
    <title>Artboard 4 Copy 2</title>
    <desc>Created with Sketch.</desc>
    <defs></defs>
    <g id="Page-1" stroke="none" stroke-width="1" fill="none" fill-rule="evenodd">
        <g id="Artboard-4-Copy-2">
            <path d="M22.5,3 C11.1781626,3 2,12.1781626 2,23.5 C2,34.8218374 11.1781626,44 22.5,44 L346.5,44 C357.821837,44 367,34.8218374 367,23.5 C367,12.1781626 357.821837,3 346.5,3 L22.5,3 Z M22.5,1 L346.5,1 C358.926407,1 369,11.0735931 369,23.5 C369,35.9264069 358.926407,46 346.5,46 L22.5,46 C10.0735931,46 1.52179594e-15,35.9264069 0,23.5 C-1.52179594e-15,11.0735931 10.0735931,1 22.5,1 Z" id="Rectangle-2-Copy-3" fill="#AECA63" fill-rule="nonzero"></path>
            <path d="M45.22,17.28 L49.96,30.44 C50.0000002,30.5333338 50.02,30.6199996 50.02,30.7 C50.02,30.9266678 49.7333362,31.04 49.16,31.04 L49,31.04 C48.533331,31.04 48.266667,30.9333344 48.2,30.72 L47.02,27.44 L41.14,27.44 L40,30.72 C39.933333,30.9333344 39.666669,31.04 39.2,31.04 L39.1,31.04 C38.5266638,31.04 38.24,30.9266678 38.24,30.7 C38.24,30.633333 38.2599998,30.5400006 38.3,30.42 L43.04,17.28 C43.106667,17.0666656 43.373331,16.96 43.84,16.96 L44.42,16.96 C44.886669,16.96 45.153333,17.0666656 45.22,17.28 Z M44.1,18.8 C43.9933328,19.333336 43.8933338,19.7199988 43.8,19.96 L41.7,25.92 L46.48,25.92 L44.38,19.96 C44.313333,19.7466656 44.2333338,19.3600028 44.14,18.8 L44.1,18.8 Z M56.35,20.66 C56.8900027,20.8333342 57.16,21.0333322 57.16,21.26 C57.16,21.4333342 57.0833341,21.6566653 56.93,21.93 C56.7766659,22.2033347 56.6400006,22.34 56.52,22.34 C56.4799998,22.3266666 56.3033349,22.2366675 55.99,22.07 C55.6766651,21.9033325 55.2466694,21.82 54.7,21.82 C54.1933308,21.82 53.7700017,21.9333322 53.43,22.16 C53.0899983,22.3866678 52.92,22.6933314 52.92,23.08 C52.92,23.5333356 53.0399988,23.893332 53.28,24.16 C53.5200012,24.426668 53.9199972,24.6466658 54.48,24.82 C55.3333376,25.086668 55.9833311,25.3499987 56.43,25.61 C56.8766689,25.8700013 57.1966657,26.1899981 57.39,26.57 C57.5833343,26.9500019 57.68,27.4466636 57.68,28.06 C57.68,28.6466696 57.5233349,29.1766643 57.21,29.65 C56.8966651,30.1233357 56.4700027,30.4966653 55.93,30.77 C55.3899973,31.0433347 54.7933366,31.18 54.14,31.18 C53.5666638,31.18 53.0366691,31.1100007 52.55,30.97 C52.0633309,30.8299993 51.6766681,30.660001 51.39,30.46 C51.1033319,30.259999 50.96,30.0800008 50.96,29.92 C50.96,29.786666 51.0433325,29.586668 51.21,29.32 C51.3766675,29.053332 51.526666,28.92 51.66,28.92 C51.6866668,28.92 51.8133322,28.9933326 52.04,29.14 C52.2666678,29.2866674 52.5499983,29.4199994 52.89,29.54 C53.2300017,29.6600006 53.6066646,29.72 54.02,29.72 C55.3266732,29.72 55.98,29.1800054 55.98,28.1 C55.98,27.6466644 55.8333348,27.286668 55.54,27.02 C55.2466652,26.753332 54.7266704,26.5133344 53.98,26.3 C52.9266614,25.9933318 52.200002,25.6100023 51.8,25.15 C51.399998,24.6899977 51.2,24.0733372 51.2,23.3 C51.2,22.7399972 51.3433319,22.2400022 51.63,21.8 C51.9166681,21.3599978 52.3099975,21.0166679 52.81,20.77 C53.3100025,20.5233321 53.8799968,20.4 54.52,20.4 C55.2000034,20.4 55.8099973,20.4866658 56.35,20.66 Z M62.08,16.4 L62.08,25.34 L62.16,25.34 L65.98,20.78 C66.1266674,20.5933324 66.4799972,20.5 67.04,20.5 L67.12,20.5 C67.3466678,20.5 67.5199994,20.5233331 67.64,20.57 C67.7600006,20.6166669 67.82,20.6799996 67.82,20.76 C67.82,20.8800006 67.753334,21.0133326 67.62,21.16 L63.9,25.56 L68.02,30.44 C68.1400006,30.573334 68.2,30.6799996 68.2,30.76 C68.2,30.8666672 68.133334,30.9399998 68,30.98 C67.866666,31.0200002 67.6400016,31.04 67.32,31.04 L67.24,31.04 C66.9599986,31.04 66.7333342,31.0233335 66.56,30.99 C66.3866658,30.9566665 66.2533338,30.8866672 66.16,30.78 L62.16,26.04 L62.08,26.04 L62.08,30.6 C62.08,30.8933348 61.813336,31.04 61.28,31.04 L61.2,31.04 C60.666664,31.04 60.4,30.8933348 60.4,30.6 L60.4,16.4 C60.4,16.1066652 60.666664,15.96 61.2,15.96 L61.28,15.96 C61.813336,15.96 62.08,16.1066652 62.08,16.4 Z M82,21.25 C82.6933368,21.8033361 83.04,22.5733284 83.04,23.56 L83.04,28.04 C83.04,28.9200044 83.0799996,29.5499981 83.16,29.93 C83.2400004,30.3100019 83.28,30.5199998 83.28,30.56 C83.28,30.7200008 83.1533346,30.8366663 82.9,30.91 C82.6466654,30.9833337 82.4133344,31.02 82.2,31.02 C82.0133324,31.02 81.8766671,30.9166677 81.79,30.71 C81.7033329,30.5033323 81.6366669,30.2866678 81.59,30.06 C81.5433331,29.8333322 81.5133334,29.686667 81.5,29.62 C80.5933288,30.620005 79.47334,31.12 78.14,31.12 C77.1133282,31.12 76.2866698,30.8666692 75.66,30.36 C75.0333302,29.8533308 74.72,29.1066716 74.72,28.12 C74.72,27.0666614 75.0366635,26.2766693 75.67,25.75 C76.3033365,25.2233307 77.0799954,24.8833341 78,24.73 C78.9200046,24.5766659 80.0399934,24.4933334 81.36,24.48 L81.36,23.54 C81.36,23.0466642 81.1866684,22.6433349 80.84,22.33 C80.4933316,22.0166651 79.9333372,21.86 79.16,21.86 C78.5733304,21.86 78.0600022,21.9299993 77.62,22.07 C77.1799978,22.2100007 76.8133348,22.3499993 76.52,22.49 C76.2266652,22.6300007 76.0666668,22.7 76.04,22.7 C75.906666,22.7 75.7566675,22.566668 75.59,22.3 C75.4233325,22.033332 75.34,21.833334 75.34,21.7 C75.34,21.5266658 75.5166649,21.340001 75.87,21.14 C76.2233351,20.939999 76.6933304,20.7700007 77.28,20.63 C77.8666696,20.4899993 78.4733302,20.42 79.1,20.42 C80.3400062,20.42 81.3066632,20.6966639 82,21.25 Z M78.91,26.04 C78.2766635,26.106667 77.7200024,26.2933318 77.24,26.6 C76.7599976,26.9066682 76.52,27.3799968 76.52,28.02 C76.52,28.553336 76.6633319,28.9599986 76.95,29.24 C77.2366681,29.5200014 77.6599972,29.66 78.22,29.66 C78.8733366,29.66 79.4366643,29.5400012 79.91,29.3 C80.3833357,29.0599988 80.8666642,28.7200022 81.36,28.28 L81.36,25.92 C80.359995,25.9333334 79.5433365,25.973333 78.91,26.04 Z M97.54,21.92 C97.6466672,21.4133308 97.7533328,21.0200014 97.86,20.74 C97.926667,20.5799992 98.1066652,20.5 98.4,20.5 L98.48,20.5 C98.880002,20.5 99.08,20.6466652 99.08,20.94 L99.08,34.72 C99.08,35.0133348 98.813336,35.16 98.28,35.16 L98.2,35.16 C97.666664,35.16 97.4,35.0133348 97.4,34.72 L97.4,30.1 C96.9733312,30.433335 96.5366689,30.6866658 96.09,30.86 C95.6433311,31.0333342 95.1266696,31.12 94.54,31.12 C93.739996,31.12 93.0333364,30.9133354 92.42,30.5 C91.8066636,30.0866646 91.3300017,29.480004 90.99,28.68 C90.6499983,27.879996 90.48,26.9200056 90.48,25.8 C90.48,24.7599948 90.6366651,23.8333374 90.95,23.02 C91.2633349,22.2066626 91.7133304,21.5700023 92.3,21.11 C92.8866696,20.6499977 93.5733294,20.42 94.36,20.42 C95.5200058,20.42 96.5799952,20.919995 97.54,21.92 Z M92.88,22.93 C92.4533312,23.6300035 92.24,24.6266602 92.24,25.92 C92.24,27.120006 92.4666644,28.0366635 92.92,28.67 C93.3733356,29.3033365 94.0399956,29.6266666 94.92,29.64 C95.853338,29.64 96.6799964,29.340003 97.4,28.74 L97.4,23.26 C96.999998,22.8199978 96.5633357,22.4800012 96.09,22.24 C95.6166643,21.9999988 95.1533356,21.88 94.7,21.88 C93.9133294,21.88 93.3066688,22.2299965 92.88,22.93 Z M110.18,20.94 L110.18,28.04 C110.18,28.9200044 110.22,29.5499981 110.3,29.93 C110.38,30.3100019 110.42,30.5199998 110.42,30.56 C110.42,30.7200008 110.293335,30.8366663 110.04,30.91 C109.786665,30.9833337 109.553334,31.02 109.34,31.02 C109.153332,31.02 109.016667,30.9166677 108.93,30.71 C108.843333,30.5033323 108.776667,30.2866678 108.73,30.06 C108.683333,29.8333322 108.653333,29.686667 108.64,29.62 C108.213331,30.086669 107.726669,30.453332 107.18,30.72 C106.633331,30.986668 106.080003,31.12 105.52,31.12 C104.506662,31.12 103.710003,30.8333362 103.13,30.26 C102.549997,29.6866638 102.26,28.8933384 102.26,27.88 L102.26,20.94 C102.26,20.6466652 102.526664,20.5 103.06,20.5 L103.14,20.5 C103.673336,20.5 103.94,20.6466652 103.94,20.94 L103.94,27.72 C103.94,28.3333364 104.116665,28.8099983 104.47,29.15 C104.823335,29.4900017 105.326663,29.66 105.98,29.66 C106.433336,29.66 106.883331,29.5333346 107.33,29.28 C107.776669,29.0266654 108.166665,28.6866688 108.5,28.26 L108.5,20.94 C108.5,20.6466652 108.766664,20.5 109.3,20.5 L109.38,20.5 C109.913336,20.5 110.18,20.6466652 110.18,20.94 Z M120.74,21.75 C121.433337,22.6366711 121.78,23.9333248 121.78,25.64 C121.78,25.7600006 121.700001,25.9266656 121.54,26.14 C121.379999,26.3533344 121.240001,26.46 121.12,26.46 L114.8,26.46 C114.88,27.5666722 115.166664,28.3799974 115.66,28.9 C116.153336,29.4200026 116.893328,29.68 117.88,29.68 C118.440003,29.68 118.923331,29.6100007 119.33,29.47 C119.736669,29.3299993 120.073332,29.1900007 120.34,29.05 C120.606668,28.9099993 120.76,28.84 120.8,28.84 C120.933334,28.84 121.083332,28.973332 121.25,29.24 C121.416667,29.506668 121.5,29.706666 121.5,29.84 C121.5,30.0000008 121.333335,30.1833323 121,30.39 C120.666665,30.5966677 120.223336,30.7699993 119.67,30.91 C119.116664,31.0500007 118.52667,31.12 117.9,31.12 C116.233325,31.12 115.000004,30.686671 114.2,29.82 C113.399996,28.953329 113,27.6266756 113,25.84 C113,24.0666578 113.393329,22.7200046 114.18,21.8 C114.966671,20.8799954 116.126659,20.42 117.66,20.42 C119.020007,20.42 120.046663,20.8633289 120.74,21.75 Z M114.8,25.02 L120,25.02 C120,22.9133228 119.200008,21.86 117.6,21.86 C115.879991,21.86 114.946667,22.9133228 114.8,25.02 Z M128.77,20.66 C129.310003,20.8333342 129.58,21.0333322 129.58,21.26 C129.58,21.4333342 129.503334,21.6566653 129.35,21.93 C129.196666,22.2033347 129.060001,22.34 128.94,22.34 C128.9,22.3266666 128.723335,22.2366675 128.41,22.07 C128.096665,21.9033325 127.666669,21.82 127.12,21.82 C126.613331,21.82 126.190002,21.9333322 125.85,22.16 C125.509998,22.3866678 125.34,22.6933314 125.34,23.08 C125.34,23.5333356 125.459999,23.893332 125.7,24.16 C125.940001,24.426668 126.339997,24.6466658 126.9,24.82 C127.753338,25.086668 128.403331,25.3499987 128.85,25.61 C129.296669,25.8700013 129.616666,26.1899981 129.81,26.57 C130.003334,26.9500019 130.1,27.4466636 130.1,28.06 C130.1,28.6466696 129.943335,29.1766643 129.63,29.65 C129.316665,30.1233357 128.890003,30.4966653 128.35,30.77 C127.809997,31.0433347 127.213337,31.18 126.56,31.18 C125.986664,31.18 125.456669,31.1100007 124.97,30.97 C124.483331,30.8299993 124.096668,30.660001 123.81,30.46 C123.523332,30.259999 123.38,30.0800008 123.38,29.92 C123.38,29.786666 123.463332,29.586668 123.63,29.32 C123.796667,29.053332 123.946666,28.92 124.08,28.92 C124.106667,28.92 124.233332,28.9933326 124.46,29.14 C124.686668,29.2866674 124.969998,29.4199994 125.31,29.54 C125.650002,29.6600006 126.026665,29.72 126.44,29.72 C127.746673,29.72 128.4,29.1800054 128.4,28.1 C128.4,27.6466644 128.253335,27.286668 127.96,27.02 C127.666665,26.753332 127.14667,26.5133344 126.4,26.3 C125.346661,25.9933318 124.620002,25.6100023 124.22,25.15 C123.819998,24.6899977 123.62,24.0733372 123.62,23.3 C123.62,22.7399972 123.763332,22.2400022 124.05,21.8 C124.336668,21.3599978 124.729997,21.0166679 125.23,20.77 C125.730002,20.5233321 126.299997,20.4 126.94,20.4 C127.620003,20.4 128.229997,20.4866658 128.77,20.66 Z M134.76,18.44 L134.76,20.54 L136.44,20.54 C136.586667,20.54 136.69,20.5866662 136.75,20.68 C136.81,20.7733338 136.84,20.9266656 136.84,21.14 L136.84,21.38 C136.84,21.5933344 136.81,21.7466662 136.75,21.84 C136.69,21.9333338 136.586667,21.98 136.44,21.98 L134.76,21.98 L134.76,28.2 C134.76,28.7600028 134.856666,29.1466656 135.05,29.36 C135.243334,29.5733344 135.506665,29.68 135.84,29.68 C136.093335,29.68 136.283333,29.6633335 136.41,29.63 C136.536667,29.5966665 136.633333,29.58 136.7,29.58 C136.820001,29.58 136.92,29.7033321 137,29.95 C137.08,30.1966679 137.12,30.386666 137.12,30.52 C137.12,30.920002 136.633338,31.12 135.66,31.12 C134.99333,31.12 134.396669,30.9166687 133.87,30.51 C133.343331,30.1033313 133.08,29.3866718 133.08,28.36 L133.08,21.98 L132.08,21.98 C131.946666,21.98 131.846667,21.9333338 131.78,21.84 C131.713333,21.7466662 131.68,21.5933344 131.68,21.38 L131.68,21.14 C131.68,20.9266656 131.713333,20.7733338 131.78,20.68 C131.846667,20.5866662 131.946666,20.54 132.08,20.54 L133.08,20.54 L133.32,18.44 C133.346667,18.1466652 133.559998,18 133.96,18 L134.16,18 C134.560002,18 134.76,18.1466652 134.76,18.44 Z M141.36,16.4 L141.36,17.58 C141.36,17.8733348 141.093336,18.02 140.56,18.02 L140.32,18.02 C139.786664,18.02 139.52,17.8733348 139.52,17.58 L139.52,16.4 C139.52,16.1066652 139.786664,15.96 140.32,15.96 L140.56,15.96 C141.093336,15.96 141.36,16.1066652 141.36,16.4 Z M141.28,20.94 L141.28,30.6 C141.28,30.8933348 141.013336,31.04 140.48,31.04 L140.4,31.04 C139.866664,31.04 139.6,30.8933348 139.6,30.6 L139.6,20.94 C139.6,20.6466652 139.866664,20.5 140.4,20.5 L140.48,20.5 C141.013336,20.5 141.28,20.6466652 141.28,20.94 Z M152.19,21.81 C152.970004,22.7366713 153.36,24.0733246 153.36,25.82 C153.36,27.553342 152.976671,28.8699955 152.21,29.77 C151.44333,30.6700045 150.313341,31.12 148.82,31.12 C147.313326,31.12 146.163337,30.6666712 145.37,29.76 C144.576663,28.8533288 144.18,27.5400086 144.18,25.82 C144.18,24.086658 144.579996,22.753338 145.38,21.82 C146.180004,20.886662 147.326659,20.42 148.82,20.42 C150.286674,20.42 151.409996,20.8833287 152.19,21.81 Z M146.62,22.81 C146.166664,23.4433365 145.94,24.4333266 145.94,25.78 C145.94,27.11334 146.166664,28.0966635 146.62,28.73 C147.073336,29.3633365 147.786662,29.68 148.76,29.68 C149.733338,29.68 150.453331,29.3633365 150.92,28.73 C151.386669,28.0966635 151.62,27.11334 151.62,25.78 C151.62,24.44666 151.386669,23.4600032 150.92,22.82 C150.453331,22.1799968 149.733338,21.86 148.76,21.86 C147.786662,21.86 147.073336,22.1766635 146.62,22.81 Z M163.23,21.28 C163.810003,21.8533362 164.1,22.6466616 164.1,23.66 L164.1,30.6 C164.1,30.8933348 163.833336,31.04 163.3,31.04 L163.22,31.04 C162.686664,31.04 162.42,30.8933348 162.42,30.6 L162.42,23.82 C162.42,23.2066636 162.243335,22.7300017 161.89,22.39 C161.536665,22.0499983 161.033337,21.88 160.38,21.88 C159.926664,21.88 159.476669,22.0066654 159.03,22.26 C158.583331,22.5133346 158.193335,22.8533312 157.86,23.28 L157.86,30.6 C157.86,30.8933348 157.593336,31.04 157.06,31.04 L156.98,31.04 C156.446664,31.04 156.18,30.8933348 156.18,30.6 L156.18,23.58 C156.18,22.6999956 156.14,22.0700019 156.06,21.69 C155.98,21.3099981 155.94,21.1000002 155.94,21.06 C155.94,20.8999992 156.066665,20.7833337 156.32,20.71 C156.573335,20.6366663 156.806666,20.6 157.02,20.6 C157.206668,20.6 157.343333,20.6966657 157.43,20.89 C157.516667,21.0833343 157.583333,21.2866656 157.63,21.5 C157.676667,21.7133344 157.706667,21.853333 157.72,21.92 C158.146669,21.453331 158.633331,21.086668 159.18,20.82 C159.726669,20.553332 160.279997,20.42 160.84,20.42 C161.853338,20.42 162.649997,20.7066638 163.23,21.28 Z M179.51,21.81 C180.290004,22.7366713 180.68,24.0733246 180.68,25.82 C180.68,27.553342 180.296671,28.8699955 179.53,29.77 C178.763329,30.6700045 177.633341,31.12 176.14,31.12 C174.633326,31.12 173.483337,30.6666712 172.69,29.76 C171.896663,28.8533288 171.5,27.5400086 171.5,25.82 C171.5,24.086658 171.899996,22.753338 172.7,21.82 C173.500004,20.886662 174.646659,20.42 176.14,20.42 C177.606674,20.42 178.729996,20.8833287 179.51,21.81 Z M173.94,22.81 C173.486664,23.4433365 173.26,24.4333266 173.26,25.78 C173.26,27.11334 173.486664,28.0966635 173.94,28.73 C174.393336,29.3633365 175.106662,29.68 176.08,29.68 C177.053338,29.68 177.773331,29.3633365 178.24,28.73 C178.706669,28.0966635 178.94,27.11334 178.94,25.78 C178.94,24.44666 178.706669,23.4600032 178.24,22.82 C177.773331,22.1799968 177.053338,21.86 176.08,21.86 C175.106662,21.86 174.393336,22.1766635 173.94,22.81 Z M190.55,21.28 C191.130003,21.8533362 191.42,22.6466616 191.42,23.66 L191.42,30.6 C191.42,30.8933348 191.153336,31.04 190.62,31.04 L190.54,31.04 C190.006664,31.04 189.74,30.8933348 189.74,30.6 L189.74,23.82 C189.74,23.2066636 189.563335,22.7300017 189.21,22.39 C188.856665,22.0499983 188.353337,21.88 187.7,21.88 C187.246664,21.88 186.796669,22.0066654 186.35,22.26 C185.903331,22.5133346 185.513335,22.8533312 185.18,23.28 L185.18,30.6 C185.18,30.8933348 184.913336,31.04 184.38,31.04 L184.3,31.04 C183.766664,31.04 183.5,30.8933348 183.5,30.6 L183.5,23.58 C183.5,22.6999956 183.46,22.0700019 183.38,21.69 C183.3,21.3099981 183.26,21.1000002 183.26,21.06 C183.26,20.8999992 183.386665,20.7833337 183.64,20.71 C183.893335,20.6366663 184.126666,20.6 184.34,20.6 C184.526668,20.6 184.663333,20.6966657 184.75,20.89 C184.836667,21.0833343 184.903333,21.2866656 184.95,21.5 C184.996667,21.7133344 185.026667,21.853333 185.04,21.92 C185.466669,21.453331 185.953331,21.086668 186.5,20.82 C187.046669,20.553332 187.599997,20.42 188.16,20.42 C189.173338,20.42 189.969997,20.7066638 190.55,21.28 Z M204.53,17.04 C205.043336,17.1466672 205.479998,17.2933324 205.84,17.48 C206.200002,17.6666676 206.38,17.8733322 206.38,18.1 C206.38,18.2466674 206.296667,18.4599986 206.13,18.74 C205.963333,19.0200014 205.833334,19.16 205.74,19.16 C205.686666,19.16 205.62,19.1400002 205.54,19.1 L205.34,19 C204.63333,18.599998 203.893337,18.4 203.12,18.4 C202.346663,18.4 201.723336,18.599998 201.25,19 C200.776664,19.400002 200.54,19.9533298 200.54,20.66 C200.54,21.1133356 200.656666,21.4833319 200.89,21.77 C201.123334,22.0566681 201.399998,22.2733326 201.72,22.42 C202.040002,22.5666674 202.55333,22.773332 203.26,23.04 C204.060004,23.3466682 204.713331,23.6433319 205.22,23.93 C205.726669,24.2166681 206.156665,24.6299973 206.51,25.17 C206.863335,25.7100027 207.04,26.3999958 207.04,27.24 C207.04,28.440006 206.640004,29.3866632 205.84,30.08 C205.039996,30.7733368 203.960007,31.12 202.6,31.12 C201.866663,31.12 201.183336,31.0400008 200.55,30.88 C199.916663,30.7199992 199.410002,30.5233345 199.03,30.29 C198.649998,30.0566655 198.46,29.8466676 198.46,29.66 C198.46,29.4999992 198.549999,29.2800014 198.73,29 C198.910001,28.7199986 199.053333,28.58 199.16,28.58 C199.2,28.58 199.326666,28.6399994 199.54,28.76 C200.020002,29.0133346 200.486664,29.2166659 200.94,29.37 C201.393336,29.5233341 201.946663,29.6 202.6,29.6 C203.373337,29.6 204.003331,29.3833355 204.49,28.95 C204.976669,28.5166645 205.22,27.9466702 205.22,27.24 C205.22,26.7466642 205.086668,26.3366683 204.82,26.01 C204.553332,25.6833317 204.230002,25.4233343 203.85,25.23 C203.469998,25.0366657 202.920004,24.8000014 202.2,24.52 C201.426663,24.2133318 200.813336,23.9333346 200.36,23.68 C199.906664,23.4266654 199.520002,23.0500025 199.2,22.55 C198.879998,22.0499975 198.72,21.3933374 198.72,20.58 C198.72,19.8599964 198.903332,19.2200028 199.27,18.66 C199.636669,18.0999972 200.156663,17.6633349 200.83,17.35 C201.503337,17.0366651 202.279996,16.88 203.16,16.88 C203.560002,16.88 204.016664,16.9333328 204.53,17.04 Z M211.54,18.44 L211.54,20.54 L213.22,20.54 C213.366667,20.54 213.47,20.5866662 213.53,20.68 C213.59,20.7733338 213.62,20.9266656 213.62,21.14 L213.62,21.38 C213.62,21.5933344 213.59,21.7466662 213.53,21.84 C213.47,21.9333338 213.366667,21.98 213.22,21.98 L211.54,21.98 L211.54,28.2 C211.54,28.7600028 211.636666,29.1466656 211.83,29.36 C212.023334,29.5733344 212.286665,29.68 212.62,29.68 C212.873335,29.68 213.063333,29.6633335 213.19,29.63 C213.316667,29.5966665 213.413333,29.58 213.48,29.58 C213.600001,29.58 213.7,29.7033321 213.78,29.95 C213.86,30.1966679 213.9,30.386666 213.9,30.52 C213.9,30.920002 213.413338,31.12 212.44,31.12 C211.77333,31.12 211.176669,30.9166687 210.65,30.51 C210.123331,30.1033313 209.86,29.3866718 209.86,28.36 L209.86,21.98 L208.86,21.98 C208.726666,21.98 208.626667,21.9333338 208.56,21.84 C208.493333,21.7466662 208.46,21.5933344 208.46,21.38 L208.46,21.14 C208.46,20.9266656 208.493333,20.7733338 208.56,20.68 C208.626667,20.5866662 208.726666,20.54 208.86,20.54 L209.86,20.54 L210.1,18.44 C210.126667,18.1466652 210.339998,18 210.74,18 L210.94,18 C211.340002,18 211.54,18.1466652 211.54,18.44 Z M222.82,21.25 C223.513337,21.8033361 223.86,22.5733284 223.86,23.56 L223.86,28.04 C223.86,28.9200044 223.9,29.5499981 223.98,29.93 C224.06,30.3100019 224.1,30.5199998 224.1,30.56 C224.1,30.7200008 223.973335,30.8366663 223.72,30.91 C223.466665,30.9833337 223.233334,31.02 223.02,31.02 C222.833332,31.02 222.696667,30.9166677 222.61,30.71 C222.523333,30.5033323 222.456667,30.2866678 222.41,30.06 C222.363333,29.8333322 222.333333,29.686667 222.32,29.62 C221.413329,30.620005 220.29334,31.12 218.96,31.12 C217.933328,31.12 217.10667,30.8666692 216.48,30.36 C215.85333,29.8533308 215.54,29.1066716 215.54,28.12 C215.54,27.0666614 215.856664,26.2766693 216.49,25.75 C217.123337,25.2233307 217.899995,24.8833341 218.82,24.73 C219.740005,24.5766659 220.859993,24.4933334 222.18,24.48 L222.18,23.54 C222.18,23.0466642 222.006668,22.6433349 221.66,22.33 C221.313332,22.0166651 220.753337,21.86 219.98,21.86 C219.39333,21.86 218.880002,21.9299993 218.44,22.07 C217.999998,22.2100007 217.633335,22.3499993 217.34,22.49 C217.046665,22.6300007 216.886667,22.7 216.86,22.7 C216.726666,22.7 216.576668,22.566668 216.41,22.3 C216.243333,22.033332 216.16,21.833334 216.16,21.7 C216.16,21.5266658 216.336665,21.340001 216.69,21.14 C217.043335,20.939999 217.51333,20.7700007 218.1,20.63 C218.68667,20.4899993 219.29333,20.42 219.92,20.42 C221.160006,20.42 222.126663,20.6966639 222.82,21.25 Z M219.73,26.04 C219.096663,26.106667 218.540002,26.2933318 218.06,26.6 C217.579998,26.9066682 217.34,27.3799968 217.34,28.02 C217.34,28.553336 217.483332,28.9599986 217.77,29.24 C218.056668,29.5200014 218.479997,29.66 219.04,29.66 C219.693337,29.66 220.256664,29.5400012 220.73,29.3 C221.203336,29.0599988 221.686664,28.7200022 222.18,28.28 L222.18,25.92 C221.179995,25.9333334 220.363336,25.973333 219.73,26.04 Z M233.32,20.7 C233.933336,20.8866676 234.24,21.0999988 234.24,21.34 C234.24,21.5133342 234.163334,21.7366653 234.01,22.01 C233.856666,22.2833347 233.720001,22.42 233.6,22.42 C233.573333,22.42 233.543334,22.4100001 233.51,22.39 C233.476667,22.3699999 233.433334,22.3533334 233.38,22.34 C232.659996,22.0199984 231.933337,21.86 231.2,21.86 C229.266657,21.86 228.3,23.1333206 228.3,25.68 C228.3,27.0933404 228.536664,28.1133302 229.01,28.74 C229.483336,29.3666698 230.279994,29.68 231.4,29.68 C232.213337,29.68 232.966663,29.5066684 233.66,29.16 L233.88,29.08 C234.013334,29.08 234.159999,29.2099987 234.32,29.47 C234.480001,29.7300013 234.56,29.9399992 234.56,30.1 C234.56,30.2600008 234.416668,30.4166659 234.13,30.57 C233.843332,30.7233341 233.460002,30.8533328 232.98,30.96 C232.499998,31.0666672 231.980003,31.12 231.42,31.12 C229.766658,31.12 228.533337,30.6933376 227.72,29.84 C226.906663,28.9866624 226.5,27.6133428 226.5,25.72 C226.5,23.8133238 226.953329,22.4533374 227.86,21.64 C228.766671,20.8266626 229.893327,20.42 231.24,20.42 C232.013337,20.42 232.706664,20.5133324 233.32,20.7 Z M238.72,16.4 L238.72,25.34 L238.8,25.34 L242.62,20.78 C242.766667,20.5933324 243.119997,20.5 243.68,20.5 L243.76,20.5 C243.986668,20.5 244.159999,20.5233331 244.28,20.57 C244.400001,20.6166669 244.46,20.6799996 244.46,20.76 C244.46,20.8800006 244.393334,21.0133326 244.26,21.16 L240.54,25.56 L244.66,30.44 C244.780001,30.573334 244.84,30.6799996 244.84,30.76 C244.84,30.8666672 244.773334,30.9399998 244.64,30.98 C244.506666,31.0200002 244.280002,31.04 243.96,31.04 L243.88,31.04 C243.599999,31.04 243.373334,31.0233335 243.2,30.99 C243.026666,30.9566665 242.893334,30.8866672 242.8,30.78 L238.8,26.04 L238.72,26.04 L238.72,30.6 C238.72,30.8933348 238.453336,31.04 237.92,31.04 L237.84,31.04 C237.306664,31.04 237.04,30.8933348 237.04,30.6 L237.04,16.4 C237.04,16.1066652 237.306664,15.96 237.84,15.96 L237.92,15.96 C238.453336,15.96 238.72,16.1066652 238.72,16.4 Z M262.28,18.67 C263.333339,19.8633393 263.86,21.626655 263.86,23.96 C263.86,26.293345 263.333339,28.0699939 262.28,29.29 C261.226661,30.5100061 259.693343,31.12 257.68,31.12 C255.67999,31.12 254.153339,30.5100061 253.1,29.29 C252.046661,28.0699939 251.52,26.293345 251.52,23.96 C251.52,21.626655 252.043328,19.8633393 253.09,18.67 C254.136672,17.4766607 255.666657,16.88 257.68,16.88 C259.693343,16.88 261.226661,17.4766607 262.28,18.67 Z M254.45,19.81 C253.709996,20.7500047 253.34,22.1333242 253.34,23.96 C253.34,25.8000092 253.709996,27.1999952 254.45,28.16 C255.190004,29.1200048 256.26666,29.6 257.68,29.6 C259.09334,29.6 260.17333,29.1200048 260.92,28.16 C261.66667,27.1999952 262.04,25.8000092 262.04,23.96 C262.04,22.1333242 261.66667,20.7500047 260.92,19.81 C260.17333,18.8699953 259.09334,18.4 257.68,18.4 C256.26666,18.4 255.190004,18.8699953 254.45,19.81 Z M274.28,20.84 C274.28,20.906667 274.26,20.9999994 274.22,21.12 L271,30.72 C270.933333,30.9333344 270.666669,31.04 270.2,31.04 L269.5,31.04 C269.033331,31.04 268.766667,30.9333344 268.7,30.72 L265.48,21.1 C265.44,20.9799994 265.42,20.8933336 265.42,20.84 C265.42,20.6133322 265.706664,20.5 266.28,20.5 L266.38,20.5 C266.846669,20.5 267.113333,20.6066656 267.18,20.82 L269.22,27.2 C269.353334,27.6266688 269.586665,28.4599938 269.92,29.7 L270,29.7 L270.14,29.1 C270.286667,28.3399962 270.439999,27.7200024 270.6,27.24 L272.66,20.82 C272.726667,20.6066656 272.999998,20.5 273.48,20.5 L273.54,20.5 C274.033336,20.5 274.28,20.6133322 274.28,20.84 Z M283.54,21.75 C284.233337,22.6366711 284.58,23.9333248 284.58,25.64 C284.58,25.7600006 284.500001,25.9266656 284.34,26.14 C284.179999,26.3533344 284.040001,26.46 283.92,26.46 L277.6,26.46 C277.68,27.5666722 277.966664,28.3799974 278.46,28.9 C278.953336,29.4200026 279.693328,29.68 280.68,29.68 C281.240003,29.68 281.723331,29.6100007 282.13,29.47 C282.536669,29.3299993 282.873332,29.1900007 283.14,29.05 C283.406668,28.9099993 283.56,28.84 283.6,28.84 C283.733334,28.84 283.883332,28.973332 284.05,29.24 C284.216667,29.506668 284.3,29.706666 284.3,29.84 C284.3,30.0000008 284.133335,30.1833323 283.8,30.39 C283.466665,30.5966677 283.023336,30.7699993 282.47,30.91 C281.916664,31.0500007 281.32667,31.12 280.7,31.12 C279.033325,31.12 277.800004,30.686671 277,29.82 C276.199996,28.953329 275.8,27.6266756 275.8,25.84 C275.8,24.0666578 276.193329,22.7200046 276.98,21.8 C277.766671,20.8799954 278.926659,20.42 280.46,20.42 C281.820007,20.42 282.846663,20.8633289 283.54,21.75 Z M277.6,25.02 L282.8,25.02 C282.8,22.9133228 282.000008,21.86 280.4,21.86 C278.679991,21.86 277.746667,22.9133228 277.6,25.02 Z M292,20.64 C292.200001,20.7866674 292.3,20.9733322 292.3,21.2 C292.3,21.4266678 292.26,21.6633321 292.18,21.91 C292.1,22.1566679 292.006667,22.28 291.9,22.28 C291.833333,22.28 291.703334,22.2433337 291.51,22.17 C291.316666,22.0966663 291.080001,22.06 290.8,22.06 C290.493332,22.06 290.203335,22.1499991 289.93,22.33 C289.656665,22.5100009 289.426668,22.7066656 289.24,22.92 C289.053332,23.1333344 288.96,23.2533332 288.96,23.28 L288.96,30.6 C288.96,30.8933348 288.693336,31.04 288.16,31.04 L288.08,31.04 C287.546664,31.04 287.28,30.8933348 287.28,30.6 L287.28,23.58 C287.28,22.6999956 287.24,22.0700019 287.16,21.69 C287.08,21.3099981 287.04,21.1000002 287.04,21.06 C287.04,20.8999992 287.166665,20.7833337 287.42,20.71 C287.673335,20.6366663 287.906666,20.6 288.12,20.6 C288.306668,20.6 288.443333,20.6966657 288.53,20.89 C288.616667,21.0833343 288.683333,21.2866656 288.73,21.5 C288.776667,21.7133344 288.806667,21.853333 288.82,21.92 C289.52667,20.919995 290.299996,20.42 291.14,20.42 C291.513335,20.42 291.799999,20.4933326 292,20.64 Z M299,16.48 C299,16.613334 298.96,16.8033321 298.88,17.05 C298.8,17.2966679 298.700001,17.42 298.58,17.42 C298.513333,17.42 298.416667,17.4033335 298.29,17.37 C298.163333,17.3366665 297.973335,17.32 297.72,17.32 C297.373332,17.32 297.106668,17.4166657 296.92,17.61 C296.733332,17.8033343 296.64,18.199997 296.64,18.8 L296.64,20.54 L298.38,20.54 C298.526667,20.54 298.63,20.5866662 298.69,20.68 C298.75,20.7733338 298.78,20.9266656 298.78,21.14 L298.78,21.38 C298.78,21.5933344 298.75,21.7466662 298.69,21.84 C298.63,21.9333338 298.526667,21.98 298.38,21.98 L296.64,21.98 L296.64,30.6 C296.64,30.8933348 296.373336,31.04 295.84,31.04 L295.76,31.04 C295.226664,31.04 294.96,30.8933348 294.96,30.6 L294.96,21.98 L294.16,21.98 C294.026666,21.98 293.926667,21.9333338 293.86,21.84 C293.793333,21.7466662 293.76,21.5933344 293.76,21.38 L293.76,21.14 C293.76,20.9266656 293.793333,20.7733338 293.86,20.68 C293.926667,20.5866662 294.026666,20.54 294.16,20.54 L294.96,20.54 L294.96,18.64 C294.96,17.5866614 295.219997,16.8633353 295.74,16.47 C296.260003,16.0766647 296.859997,15.88 297.54,15.88 C298.513338,15.88 299,16.079998 299,16.48 Z M302.08,16.4 L302.08,28.2 C302.08,28.7600028 302.176666,29.1466656 302.37,29.36 C302.563334,29.5733344 302.826665,29.68 303.16,29.68 C303.413335,29.68 303.603333,29.6633335 303.73,29.63 C303.856667,29.5966665 303.953333,29.58 304.02,29.58 C304.140001,29.58 304.24,29.7033321 304.32,29.95 C304.4,30.1966679 304.44,30.386666 304.44,30.52 C304.44,30.920002 303.953338,31.12 302.98,31.12 C302.31333,31.12 301.716669,30.9166687 301.19,30.51 C300.663331,30.1033313 300.4,29.3866718 300.4,28.36 L300.4,16.4 C300.4,16.1066652 300.666664,15.96 301.2,15.96 L301.28,15.96 C301.813336,15.96 302.08,16.1066652 302.08,16.4 Z M313.73,21.81 C314.510004,22.7366713 314.9,24.0733246 314.9,25.82 C314.9,27.553342 314.516671,28.8699955 313.75,29.77 C312.98333,30.6700045 311.853341,31.12 310.36,31.12 C308.853326,31.12 307.703337,30.6666712 306.91,29.76 C306.116663,28.8533288 305.72,27.5400086 305.72,25.82 C305.72,24.086658 306.119996,22.753338 306.92,21.82 C307.720004,20.886662 308.866659,20.42 310.36,20.42 C311.826674,20.42 312.949996,20.8833287 313.73,21.81 Z M308.16,22.81 C307.706664,23.4433365 307.48,24.4333266 307.48,25.78 C307.48,27.11334 307.706664,28.0966635 308.16,28.73 C308.613336,29.3633365 309.326662,29.68 310.3,29.68 C311.273338,29.68 311.993331,29.3633365 312.46,28.73 C312.926669,28.0966635 313.16,27.11334 313.16,25.78 C313.16,24.44666 312.926669,23.4600032 312.46,22.82 C311.993331,22.1799968 311.273338,21.86 310.3,21.86 C309.326662,21.86 308.613336,22.1766635 308.16,22.81 Z M330.3,20.84 C330.3,20.906667 330.28,20.9999994 330.24,21.12 L327.56,30.72 C327.506666,30.9333344 327.240002,31.04 326.76,31.04 L326.16,31.04 C325.693331,31.04 325.433334,30.9333344 325.38,30.72 L323.78,24.38 C323.686666,24.0066648 323.586667,23.48667 323.48,22.82 C323.373333,23.48667 323.273334,23.9999982 323.18,24.36 L321.54,30.72 C321.486666,30.9333344 321.220002,31.04 320.74,31.04 L320.14,31.04 C319.659998,31.04 319.393334,30.9333344 319.34,30.72 L316.7,21.24 C316.633333,21.039999 316.6,20.906667 316.6,20.84 C316.6,20.6133322 316.906664,20.5 317.52,20.5 C318.000002,20.5 318.266666,20.6066656 318.32,20.82 L320,27.22 C320.200001,28.1266712 320.32,28.679999 320.36,28.88 C320.4,29.0266674 320.446666,29.233332 320.5,29.5 C320.646667,28.6066622 320.813332,27.8400032 321,27.2 L322.66,20.84 C322.713334,20.6133322 322.973331,20.5 323.44,20.5 L323.58,20.5 C324.033336,20.5 324.293333,20.6133322 324.36,20.84 L326.04,27.2 C326.200001,27.8266698 326.316666,28.3299981 326.39,28.71 C326.463334,29.0900019 326.513333,29.346666 326.54,29.48 C326.553333,29.3733328 326.586666,29.2133344 326.64,29 C326.746667,28.3599968 326.866666,27.773336 327,27.24 L328.68,20.82 C328.733334,20.6066656 329.006664,20.5 329.5,20.5 C330.033336,20.5 330.3,20.6133322 330.3,20.84 Z" id="Ask-a-question-on-St" fill="#4F660A"></path>
        </g>
    </g>
</svg>
