<?xml version="1.0" encoding="UTF-8"?>
<svg width="909px" height="309px" viewBox="0 0 909 309" version="1.1" xmlns="http://www.w3.org/2000/svg" xmlns:xlink="http://www.w3.org/1999/xlink">
    <!-- Generator: Sketch 53.2 (72643) - https://sketchapp.com -->
    <title>Combined-Shape-Copy-2</title>
    <desc>Created with Sketch.</desc>
    <g id="Page-1" stroke="none" stroke-width="1" fill="none" fill-rule="evenodd" opacity="0.300725446">
        <g id="Blog_Page_Wide" transform="translate(-1103.000000, -591.000000)" fill="#E9EFFD" fill-rule="nonzero">
            <g id="Blog_Illustration" transform="translate(-74.000000, 441.000000)">
                <g id="Group-2" transform="translate(0.000000, 1.000000)">
                    <path d="M1583.58065,571.707484 C1579.67015,602.794432 1548.89055,627 1511.5,627 C1493.33082,627 1476.72267,621.284396 1464,611.840991 C1451.27733,621.284396 1434.66918,627 1416.5,627 C1400.62476,627 1385.94125,622.636527 1374,615.235535 C1362.05875,622.636527 1347.37524,627 1331.5,627 C1317.60116,627 1304.61579,623.655365 1293.58442,617.855916 C1279.98329,623.676445 1264.25639,627 1247.5,627 C1195.86138,627 1154,595.436075 1154,556.5 C1154,521.98401 1186.89651,493.26138 1230.33864,487.184915 C1238.83143,440.645325 1286.70909,405 1344.5,405 C1347.87514,405 1351.21647,405.121581 1354.51811,405.359814 C1354.17513,402.440911 1354,399.485814 1354,396.5 C1354,347.900772 1400.39853,307.439487 1461.74534,298.733506 C1473.32392,232.126273 1541.10974,181 1623,181 C1666.86625,181 1706.68532,195.670356 1735.9857,219.532119 C1748.0189,215.321325 1761.19215,213 1775,213 C1806.65546,213 1834.97558,225.2006 1853.86977,244.398173 C1868.29029,208.651968 1907.67475,183 1954,183 C1968.25224,183 1981.84751,185.428013 1994.26098,189.830995 C2024.679,164.580943 2066.43037,149 2112.5,149 C2197.7621,149 2268.23342,202.367439 2279.44492,271.626927 C2343.44468,280.251293 2392,322.13323 2392,372.5 C2392,397.191058 2380.33115,419.843036 2360.89429,437.537424 C2361.62152,441.265526 2362,445.094878 2362,449 C2362,458.373158 2359.81955,467.309798 2355.86971,475.457591 C2389.9566,483.481981 2415,510.23419 2415,542 C2415,580.107648 2378.95892,611 2334.5,611 C2314.44065,611 2296.09493,604.711214 2282,594.308353 C2267.90507,604.711214 2249.55935,611 2229.5,611 C2211.95696,611 2195.72459,606.190024 2182.5,598.024746 C2169.27541,606.190024 2153.04304,611 2135.5,611 C2119.51744,611 2104.62274,607.007674 2092.09924,600.123015 C2081.60837,604.533773 2069.98688,607.61538 2057.6418,609.063033 C2043.34427,620.207246 2024.34762,627 2003.5,627 C1983.2026,627 1964.65975,620.561069 1950.5,609.936261 C1936.34025,620.561069 1917.7974,627 1897.5,627 C1879.95696,627 1863.72458,622.190024 1850.5,614.024746 C1837.27542,622.190024 1821.04304,627 1803.5,627 C1788.14357,627 1773.79144,623.314353 1761.58194,616.918772 C1746.5104,623.335322 1729.07674,627 1710.5,627 C1666.57862,627 1629.04709,606.5144 1614.01693,577.607384 C1603.30542,576.800614 1593.07573,574.770886 1583.58064,571.707481 L1583.58065,571.707484 Z" id="Combined-Shape-Copy-2" transform="translate(1784.500000, 388.000000) scale(-1, 1) translate(-1784.500000, -388.000000) "></path>
                </g>
            </g>
        </g>
    </g>
</svg>