<svg width="1024" height="207" xmlns="http://www.w3.org/2000/svg"><path d="M832.454 361.27c4.117 26.335 35.698 46.82 74.046 46.82 18.76 0 35.902-4.904 49-12.996 13.098 8.092 30.24 12.995 49 12.995 16.237 0 31.26-3.672 43.5-9.906 12.24 6.234 27.263 9.906 43.5 9.906 14.341 0 27.736-2.865 39.101-7.829 13.984 4.983 30.16 7.83 47.399 7.83 53.02 0 96-26.924 96-60.136 0-29.194-33.21-53.529-77.257-58.99-8.384-40.061-57.682-70.819-117.243-70.819-3.675 0-7.31.117-10.9.346.265-2.167.4-4.357.4-6.567 0-41.772-48.192-76.509-111.716-83.667C945.596 71.213 875.601 27.372 791 27.372c-45.151 0-86.143 12.487-116.33 32.805-12.254-3.504-25.644-5.433-39.67-5.433-32.502 0-61.588 10.359-81.032 26.67C539.098 50.92 498.388 29.03 450.5 29.03c-14.62 0-28.571 2.04-41.322 5.742C377.863 13.268 334.9 0 287.5 0c-88.055 0-160.789 45.785-172 105.109C49.8 112.557 0 148.263 0 191.189c0 21.35 12.32 40.914 32.789 56.103A42.746 42.746 0 0 0 32 255.47c0 8.042 2.258 15.707 6.346 22.69C3.032 284.828-23 307.793-23 335.098c0 32.524 36.937 58.89 82.5 58.89 20.65 0 39.53-5.416 54-14.366 14.47 8.95 33.35 14.366 54 14.366 18.126 0 34.887-4.172 48.5-11.246 13.613 7.074 30.374 11.246 48.5 11.246.875 0 1.747-.01 2.616-.029a43.49 43.49 0 0 0 .85 6.91c7.406 36.137 59.114 59.11 115.492 51.312 48.475-6.705 84.62-33.976 89.094-64.461 11.093 7.46 26.025 12.031 42.448 12.031 3.185 0 6.313-.172 9.368-.503 16.773 17.365 44.84 28.748 76.632 28.748 35.597 0 66.523-14.27 82.154-35.23 11.95 22.434 37.615 37.946 67.346 37.946 41.145 0 74.5-29.709 74.5-66.356 0-.433-.005-.865-.014-1.295 2.534-.54 5.025-1.138 7.468-1.792z" fill="#E9EFFD" fill-rule="nonzero"/></svg>