<?xml version="1.0" encoding="UTF-8"?>
<svg width="1440px" height="714px" viewBox="0 0 1440 714" version="1.1" xmlns="http://www.w3.org/2000/svg" xmlns:xlink="http://www.w3.org/1999/xlink">
    <!-- Generator: Sketch 50.2 (55047) - http://www.bohemiancoding.com/sketch -->
    <title>Group 5</title>
    <desc>Created with Sketch.</desc>
    <defs>
        <path d="M28.5095632,471.586011 C10.7328468,455.761735 0,435.228475 0,412.789973 C0,369.041728 40.7989025,332.535903 95.0562175,324.052154 C104.658673,262.149335 165.696481,214.422764 239.561798,214.422764 C279.545761,214.422764 315.771066,228.407388 342.114047,251.055154 C352.792002,247.288723 364.468276,245.214092 376.702247,245.214092 C403.54663,245.214092 427.705845,255.20288 444.524877,271.135948 C457.883634,239.397516 492.428551,216.791328 532.938202,216.791328 C546.058197,216.791328 558.552528,219.16258 569.904086,223.447342 C597.09602,200.299642 634.534305,186 675.865169,186 C751.980367,186 814.893828,234.497459 824.920905,297.442662 C882.866412,304.865772 927,343.079218 927,389.104336 C927,412.64199 915.457344,434.136587 896.427657,450.514652 C896.746293,452.901996 896.910112,455.330627 896.910112,457.792683 C896.910112,468.936493 893.553998,479.395554 887.676544,488.440639 C893.756985,499.30258 897.169915,511.51203 897.169915,524.417821 C897.169915,569.706404 855.142224,606.420054 803.298441,606.420054 C781.783327,606.420054 761.958782,600.097079 746.127057,589.462282 C733.380147,599.975206 716.18929,606.420054 697.275281,606.420054 C683.282417,606.420054 670.232678,602.892621 659.22777,596.800158 C649.641002,601.100987 638.947034,604.110813 627.552685,605.518066 C614.745224,616.340528 597.299397,623 578.073034,623 C560.121917,623 543.722971,617.19465 531.202247,607.615891 C518.681523,617.19465 502.282577,623 484.331461,623 C468.773052,623 454.380611,618.639103 442.668539,611.240224 C430.956467,618.639103 416.564027,623 401.005618,623 C387.012754,623 373.963016,619.472567 362.958107,613.380104 C349.32795,619.494883 333.459674,623 316.522472,623 C277.19371,623 243.628433,604.100963 230.464972,577.514016 C221.767956,576.732777 213.441808,575.022559 205.66025,572.51642 C202.301981,600.873789 174.460667,623 140.61236,623 C104.499763,623 75.2247191,597.814501 75.2247191,566.746612 C75.2247191,562.274726 75.8312538,557.924713 76.9774101,553.754141 C45.2412344,549.891586 20.8314607,526.427318 20.8314607,498.058266 C20.8314607,488.487897 23.6094552,479.475726 28.5095632,471.586011 Z" id="path-1"></path>
        <filter x="-3.2%" y="-12.7%" width="107.9%" height="116.9%" filterUnits="objectBoundingBox" id="filter-2">
            <feOffset dx="7" dy="-19" in="SourceAlpha" result="shadowOffsetOuter1"></feOffset>
            <feGaussianBlur stdDeviation="9" in="shadowOffsetOuter1" result="shadowBlurOuter1"></feGaussianBlur>
            <feColorMatrix values="0 0 0 0 0.94693024   0 0 0 0 0.96019768   0 0 0 0 1  0 0 0 1 0" type="matrix" in="shadowBlurOuter1"></feColorMatrix>
        </filter>
        <path d="M1444.50956,724.586011 C1426.73285,708.761735 1416,688.228475 1416,665.789973 C1416,622.041728 1456.7989,585.535903 1511.05622,577.052154 C1520.65867,515.149335 1581.69648,467.422764 1655.5618,467.422764 C1695.54576,467.422764 1731.77107,481.407388 1758.11405,504.055154 C1768.792,500.288723 1780.46828,498.214092 1792.70225,498.214092 C1819.54663,498.214092 1843.70584,508.20288 1860.52488,524.135948 C1873.88363,492.397516 1908.42855,469.791328 1948.9382,469.791328 C1962.0582,469.791328 1974.55253,472.16258 1985.90409,476.447342 C2013.09602,453.299642 2050.53431,439 2091.86517,439 C2167.98037,439 2230.89383,487.497459 2240.92091,550.442662 C2298.86641,557.865772 2343,596.079218 2343,642.104336 C2343,665.64199 2331.45734,687.136587 2312.42766,703.514652 C2312.74629,705.901996 2312.91011,708.330627 2312.91011,710.792683 C2312.91011,721.936493 2309.554,732.395554 2303.67654,741.440639 C2309.75699,752.30258 2313.16992,764.51203 2313.16992,777.417821 C2313.16992,822.706404 2271.14222,859.420054 2219.29844,859.420054 C2197.78333,859.420054 2177.95878,853.097079 2162.12706,842.462282 C2149.38015,852.975206 2132.18929,859.420054 2113.27528,859.420054 C2099.28242,859.420054 2086.23268,855.892621 2075.22777,849.800158 C2065.641,854.100987 2054.94703,857.110813 2043.55269,858.518066 C2030.74522,869.340528 2013.2994,876 1994.07303,876 C1976.12192,876 1959.72297,870.19465 1947.20225,860.615891 C1934.68152,870.19465 1918.28258,876 1900.33146,876 C1884.77305,876 1870.38061,871.639103 1858.66854,864.240224 C1846.95647,871.639103 1832.56403,876 1817.00562,876 C1803.01275,876 1789.96302,872.472567 1778.95811,866.380104 C1765.32795,872.494883 1749.45967,876 1732.52247,876 C1693.19371,876 1659.62843,857.100963 1646.46497,830.514016 C1637.76796,829.732777 1629.44181,828.022559 1621.66025,825.51642 C1618.30198,853.873789 1590.46067,876 1556.61236,876 C1520.49976,876 1491.22472,850.814501 1491.22472,819.746612 C1491.22472,815.274726 1491.83125,810.924713 1492.97741,806.754141 C1461.24123,802.891586 1436.83146,779.427318 1436.83146,751.058266 C1436.83146,741.487897 1439.60946,732.475726 1444.50956,724.586011 Z" id="path-3"></path>
        <filter x="-3.2%" y="-12.7%" width="107.9%" height="116.9%" filterUnits="objectBoundingBox" id="filter-4">
            <feOffset dx="7" dy="-19" in="SourceAlpha" result="shadowOffsetOuter1"></feOffset>
            <feGaussianBlur stdDeviation="9" in="shadowOffsetOuter1" result="shadowBlurOuter1"></feGaussianBlur>
            <feColorMatrix values="0 0 0 0 0.94693024   0 0 0 0 0.96019768   0 0 0 0 1  0 0 0 1 0" type="matrix" in="shadowBlurOuter1"></feColorMatrix>
        </filter>
    </defs>
    <g id="v2_Support_Intermediate_Page" stroke="none" stroke-width="1" fill="none" fill-rule="evenodd">
        <g id="IntermediatePage_Final_Desktop" transform="translate(0.000000, -1931.000000)">
            <g id="Group-5" transform="translate(-608.000000, 1931.000000)">
                <g id="Group-Copy-23" transform="translate(1143.000000, 192.000000)" fill="#FFFFFF">
                    <ellipse id="Oval-2" cx="294.5" cy="143.5" rx="178.5" ry="143.5"></ellipse>
                    <ellipse id="Oval-2-Copy" cx="145" cy="224.5" rx="145" ry="103.5"></ellipse>
                    <ellipse id="Oval-2-Copy-2" cx="275.5" cy="236.5" rx="112.5" ry="91.5"></ellipse>
                    <ellipse id="Oval-2-Copy-6" cx="407.5" cy="236.5" rx="112.5" ry="91.5"></ellipse>
                    <ellipse id="Oval-2-Copy-7" cx="554.5" cy="236.5" rx="112.5" ry="91.5"></ellipse>
                    <ellipse id="Oval-2-Copy-3" cx="461.5" cy="125.5" rx="112.5" ry="91.5"></ellipse>
                </g>
                <g id="Group">
                    <g id="Group-Copy-24" transform="translate(849.000000, 209.000000)" fill="#FFFFFF">
                        <ellipse id="Oval-2" cx="294.5" cy="143.5" rx="178.5" ry="143.5"></ellipse>
                        <ellipse id="Oval-2-Copy" cx="145" cy="224.5" rx="145" ry="103.5"></ellipse>
                        <ellipse id="Oval-2-Copy-2" cx="275.5" cy="236.5" rx="112.5" ry="91.5"></ellipse>
                        <ellipse id="Oval-2-Copy-6" cx="407.5" cy="236.5" rx="112.5" ry="91.5"></ellipse>
                        <ellipse id="Oval-2-Copy-7" cx="554.5" cy="236.5" rx="112.5" ry="91.5"></ellipse>
                        <ellipse id="Oval-2-Copy-3" cx="461.5" cy="125.5" rx="112.5" ry="91.5"></ellipse>
                    </g>
                    <path d="M1091.71909,300.623387 C1089.01461,322.750822 1067.11505,340 1040.5,340 C1027.47014,340 1015.57048,335.865783 1006.5,329.048925 C997.429523,335.865783 985.529856,340 972.5,340 C961.307005,340 950.948006,336.94925 942.5,331.767901 C934.051994,336.94925 923.692995,340 912.5,340 C902.574179,340 893.304208,337.600908 885.441147,333.444406 C875.729989,337.616045 864.485268,340 852.5,340 C815.773064,340 786,317.614237 786,290 C786,265.63219 809.18411,245.335763 839.872165,240.900315 C845.679924,207.580313 879.789836,182 921,182 C923.46367,182 925.901963,182.091424 928.310349,182.270461 C928.104786,180.367345 928,178.44285 928,176.5 C928,141.87711 961.277604,113.08352 1005.15297,107.129109 C1013.12809,59.5740633 1061.50838,23 1120,23 C1151.32753,23 1179.75455,33.4915119 1200.6268,50.5424781 C1209.08,47.613108 1218.31997,46 1228,46 C1250.43993,46 1270.51504,54.6686853 1283.90607,68.3080666 C1293.9442,42.5543654 1322.20527,24 1355.5,24 C1365.61023,24 1375.25632,25.7108719 1384.06896,28.8146755 C1405.70796,10.9888471 1435.32928,0 1468,0 C1528.69454,0 1578.86469,37.9257278 1586.88215,87.1566967 C1632.43673,93.2944668 1667,123.125152 1667,159 C1667,176.787964 1658.50258,193.089963 1644.38119,205.75459 C1644.78882,208.118888 1645,210.538244 1645,213 C1645,219.603472 1643.48049,225.901855 1640.72565,231.650853 C1665.06843,237.231264 1683,256.315466 1683,279 C1683,306.061953 1657.48023,328 1626,328 C1611.64128,328 1598.5226,323.435917 1588.5,315.903293 C1578.4774,323.435917 1565.35872,328 1551,328 C1538.48054,328 1526.90379,324.530291 1517.5,318.648463 C1508.09621,324.530291 1496.51946,328 1484,328 C1473.02648,328 1462.77722,325.334282 1454.08069,320.715041 C1446.22564,324.094392 1437.45716,326.418852 1428.12058,327.430033 C1418.0219,335.244326 1404.657,340 1390,340 C1375.64128,340 1362.5226,335.435917 1352.5,327.903293 C1342.4774,335.435917 1329.35872,340 1315,340 C1302.48054,340 1290.90379,336.530291 1281.5,330.648463 C1272.09621,336.530291 1260.51946,340 1248,340 C1237.02648,340 1226.77722,337.334282 1218.08069,332.715041 C1207.30817,337.349524 1194.81773,340 1181.5,340 C1150.18754,340 1123.44835,325.347962 1112.85862,304.70635 C1105.42767,304.131961 1098.32524,302.729132 1091.71908,300.623385 Z" id="Combined-Shape-Copy" fill="#FFFFFF" transform="translate(1234.500000, 170.000000) scale(-1, 1) translate(-1234.500000, -170.000000) "></path>
                    <g id="Group-Copy-22" transform="translate(496.000000, 184.000000)" fill="#FFFFFF">
                        <ellipse id="Oval-2" cx="329.5" cy="160" rx="199.5" ry="160"></ellipse>
                        <ellipse id="Oval-2-Copy" cx="162" cy="250.5" rx="162" ry="115.5"></ellipse>
                        <ellipse id="Oval-2-Copy-2" cx="307.5" cy="264" rx="125.5" ry="102"></ellipse>
                        <ellipse id="Oval-2-Copy-6" cx="454.5" cy="264" rx="125.5" ry="102"></ellipse>
                        <ellipse id="Oval-2-Copy-7" cx="619.5" cy="264" rx="125.5" ry="102"></ellipse>
                        <ellipse id="Oval-2-Copy-3" cx="515.5" cy="140" rx="125.5" ry="102"></ellipse>
                    </g>
                    <g id="Group-Copy-27" transform="translate(364.000000, 25.000000)" fill="#FFFFFF">
                        <ellipse id="Oval-2" cx="294.5" cy="143.5" rx="178.5" ry="143.5"></ellipse>
                        <ellipse id="Oval-2-Copy" cx="145" cy="224.5" rx="145" ry="103.5"></ellipse>
                        <ellipse id="Oval-2-Copy-2" cx="275.5" cy="236.5" rx="112.5" ry="91.5"></ellipse>
                        <ellipse id="Oval-2-Copy-6" cx="407.5" cy="236.5" rx="112.5" ry="91.5"></ellipse>
                        <ellipse id="Oval-2-Copy-7" cx="554.5" cy="236.5" rx="112.5" ry="91.5"></ellipse>
                        <ellipse id="Oval-2-Copy-3" cx="461.5" cy="125.5" rx="112.5" ry="91.5"></ellipse>
                    </g>
                    <g id="RightofCodebox-Copy" transform="translate(463.500000, 404.500000) scale(-1, 1) translate(-463.500000, -404.500000) ">
                        <use fill="black" fill-opacity="1" filter="url(#filter-2)" xlink:href="#path-1"></use>
                        <use fill="#FFFFFF" fill-rule="evenodd" xlink:href="#path-1"></use>
                    </g>
                    <g id="Group-Copy-26" transform="translate(1477.000000, 152.000000)" fill="#FFFFFF">
                        <ellipse id="Oval-2" cx="294.5" cy="143.5" rx="178.5" ry="143.5"></ellipse>
                        <ellipse id="Oval-2-Copy" cx="145" cy="224.5" rx="145" ry="103.5"></ellipse>
                        <ellipse id="Oval-2-Copy-2" cx="275.5" cy="236.5" rx="112.5" ry="91.5"></ellipse>
                        <ellipse id="Oval-2-Copy-6" cx="407.5" cy="236.5" rx="112.5" ry="91.5"></ellipse>
                        <ellipse id="Oval-2-Copy-7" cx="554.5" cy="236.5" rx="112.5" ry="91.5"></ellipse>
                        <ellipse id="Oval-2-Copy-3" cx="461.5" cy="125.5" rx="112.5" ry="91.5"></ellipse>
                    </g>
                    <g id="Group-Copy-25" transform="translate(1338.000000, 34.000000)" fill="#FFFFFF">
                        <ellipse id="Oval-2" cx="296.5" cy="144.5" rx="179.5" ry="144.5"></ellipse>
                        <ellipse id="Oval-2-Copy" cx="146" cy="226" rx="146" ry="104"></ellipse>
                        <ellipse id="Oval-2-Copy-2" cx="277" cy="238" rx="113" ry="92"></ellipse>
                        <ellipse id="Oval-2-Copy-6" cx="410" cy="238" rx="113" ry="92"></ellipse>
                        <ellipse id="Oval-2-Copy-7" cx="558" cy="238" rx="113" ry="92"></ellipse>
                        <ellipse id="Oval-2-Copy-3" cx="464" cy="126" rx="113" ry="92"></ellipse>
                    </g>
                    <g id="Group-Copy-33" transform="translate(1730.000000, 34.000000)" fill="#FFFFFF">
                        <ellipse id="Oval-2" cx="296.5" cy="144.5" rx="179.5" ry="144.5"></ellipse>
                        <ellipse id="Oval-2-Copy" cx="146" cy="226" rx="146" ry="104"></ellipse>
                        <ellipse id="Oval-2-Copy-2" cx="277" cy="238" rx="113" ry="92"></ellipse>
                        <ellipse id="Oval-2-Copy-6" cx="410" cy="238" rx="113" ry="92"></ellipse>
                    </g>
                    <g id="RightofCodebox">
                        <use fill="black" fill-opacity="1" filter="url(#filter-4)" xlink:href="#path-3"></use>
                        <use fill="#FFFFFF" fill-rule="evenodd" xlink:href="#path-3"></use>
                    </g>
                </g>
            </g>
        </g>
    </g>
</svg>