<svg width="1440" height="714" xmlns="http://www.w3.org/2000/svg" xmlns:xlink="http://www.w3.org/1999/xlink"><defs><path d="M28.51 471.586C10.733 455.762 0 435.228 0 412.79c0-43.748 40.799-80.254 95.056-88.738 9.603-61.903 70.64-109.63 144.506-109.63 39.984 0 76.21 13.985 102.552 36.633 10.678-3.766 22.354-5.84 34.588-5.84 26.845 0 51.004 9.988 67.823 25.92 13.359-31.737 47.904-54.344 88.413-54.344 13.12 0 25.615 2.372 36.966 6.656C597.096 200.3 634.534 186 675.865 186c76.115 0 139.029 48.497 149.056 111.443C882.866 304.866 927 343.079 927 389.104c0 23.538-11.543 45.033-30.572 61.41.318 2.388.482 4.817.482 7.279 0 11.143-3.356 21.603-9.233 30.648 6.08 10.862 9.493 23.071 9.493 35.977 0 45.288-42.028 82.002-93.872 82.002-21.515 0-41.34-6.323-57.17-16.958-12.748 10.513-29.939 16.958-48.853 16.958-13.993 0-27.042-3.527-38.047-9.62-9.587 4.301-20.281 7.31-31.675 8.718C614.745 616.341 597.299 623 578.073 623c-17.951 0-34.35-5.805-46.87-15.384C518.681 617.195 502.282 623 484.33 623c-15.558 0-29.95-4.36-41.662-11.76-11.713 7.4-26.105 11.76-41.663 11.76-13.993 0-27.043-3.527-38.048-9.62-13.63 6.115-29.498 9.62-46.436 9.62-39.328 0-72.894-18.899-86.057-45.486-8.697-.781-17.023-2.491-24.805-4.998-3.358 28.358-31.2 50.484-65.048 50.484-36.112 0-65.387-25.185-65.387-56.253 0-4.472.606-8.822 1.752-12.993-31.736-3.862-56.146-27.327-56.146-55.696 0-9.57 2.778-18.582 7.679-26.472z" id="b"/><filter x="-3.2%" y="-12.7%" width="107.9%" height="116.9%" filterUnits="objectBoundingBox" id="a"><feOffset dx="7" dy="-19" in="SourceAlpha" result="shadowOffsetOuter1"/><feGaussianBlur stdDeviation="9" in="shadowOffsetOuter1" result="shadowBlurOuter1"/><feColorMatrix values="0 0 0 0 0.94693024 0 0 0 0 0.96019768 0 0 0 0 1 0 0 0 1 0" in="shadowBlurOuter1"/></filter><path d="M1444.51 724.586c-17.777-15.824-28.51-36.358-28.51-58.796 0-43.748 40.799-80.254 95.056-88.738 9.603-61.903 70.64-109.63 144.506-109.63 39.984 0 76.21 13.985 102.552 36.633 10.678-3.766 22.354-5.84 34.588-5.84 26.845 0 51.004 9.988 67.823 25.92 13.359-31.737 47.904-54.344 88.413-54.344 13.12 0 25.615 2.372 36.966 6.656C2013.096 453.3 2050.534 439 2091.865 439c76.115 0 139.029 48.497 149.056 111.443 57.945 7.423 102.079 45.636 102.079 91.661 0 23.538-11.543 45.033-30.572 61.41.318 2.388.482 4.817.482 7.279 0 11.143-3.356 21.603-9.233 30.648 6.08 10.862 9.493 23.071 9.493 35.977 0 45.288-42.028 82.002-93.872 82.002-21.515 0-41.34-6.323-57.17-16.958-12.748 10.513-29.939 16.958-48.853 16.958-13.993 0-27.042-3.527-38.047-9.62-9.587 4.301-20.281 7.31-31.675 8.718-12.808 10.823-30.254 17.482-49.48 17.482-17.951 0-34.35-5.805-46.87-15.384-12.521 9.579-28.92 15.384-46.872 15.384-15.558 0-29.95-4.36-41.662-11.76-11.713 7.4-26.105 11.76-41.663 11.76-13.993 0-27.043-3.527-38.048-9.62-13.63 6.115-29.498 9.62-46.436 9.62-39.328 0-72.894-18.899-86.057-45.486-8.697-.781-17.023-2.491-24.805-4.998-3.358 28.358-31.2 50.484-65.048 50.484-36.112 0-65.387-25.185-65.387-56.253 0-4.472.606-8.822 1.752-12.993-31.736-3.862-56.146-27.327-56.146-55.696 0-9.57 2.778-18.582 7.679-26.472z" id="d"/><filter x="-3.2%" y="-12.7%" width="107.9%" height="116.9%" filterUnits="objectBoundingBox" id="c"><feOffset dx="7" dy="-19" in="SourceAlpha" result="shadowOffsetOuter1"/><feGaussianBlur stdDeviation="9" in="shadowOffsetOuter1" result="shadowBlurOuter1"/><feColorMatrix values="0 0 0 0 0.94693024 0 0 0 0 0.96019768 0 0 0 0 1 0 0 0 1 0" in="shadowBlurOuter1"/></filter></defs><g fill="none" fill-rule="evenodd"><g transform="translate(535 192)" fill="#FFF"><ellipse cx="294.5" cy="143.5" rx="178.5" ry="143.5"/><ellipse cx="145" cy="224.5" rx="145" ry="103.5"/><ellipse cx="275.5" cy="236.5" rx="112.5" ry="91.5"/><ellipse cx="407.5" cy="236.5" rx="112.5" ry="91.5"/><ellipse cx="554.5" cy="236.5" rx="112.5" ry="91.5"/><ellipse cx="461.5" cy="125.5" rx="112.5" ry="91.5"/></g><g transform="translate(241 209)" fill="#FFF"><ellipse cx="294.5" cy="143.5" rx="178.5" ry="143.5"/><ellipse cx="145" cy="224.5" rx="145" ry="103.5"/><ellipse cx="275.5" cy="236.5" rx="112.5" ry="91.5"/><ellipse cx="407.5" cy="236.5" rx="112.5" ry="91.5"/><ellipse cx="554.5" cy="236.5" rx="112.5" ry="91.5"/><ellipse cx="461.5" cy="125.5" rx="112.5" ry="91.5"/></g><path d="M769.28 300.623C771.986 322.751 793.886 340 820.5 340c13.03 0 24.93-4.134 34-10.951 9.07 6.817 20.97 10.951 34 10.951 11.193 0 21.552-3.05 30-8.232 8.448 5.181 18.807 8.232 30 8.232 9.926 0 19.196-2.4 27.059-6.556 9.711 4.172 20.956 6.556 32.941 6.556 36.727 0 66.5-22.386 66.5-50 0-24.368-23.184-44.664-53.872-49.1C1015.32 207.58 981.21 182 940 182c-2.464 0-4.902.091-7.31.27a53.71 53.71 0 0 0 .31-5.77c0-34.623-33.278-63.416-77.153-69.37C847.872 59.573 799.492 23 741 23c-31.328 0-59.755 10.492-80.627 27.542C651.92 47.613 642.68 46 633 46c-22.44 0-42.515 8.669-55.906 22.308C567.056 42.554 538.794 24 505.5 24c-10.11 0-19.756 1.71-28.569 4.815C455.292 10.989 425.671 0 393 0c-60.695 0-110.865 37.926-118.882 87.157C228.563 93.294 194 123.125 194 159c0 17.788 8.497 34.09 22.619 46.755A42.606 42.606 0 0 0 216 213c0 6.603 1.52 12.902 4.274 18.65C195.932 237.232 178 256.316 178 279c0 27.062 25.52 49 57 49 14.359 0 27.477-4.564 37.5-12.097C282.523 323.436 295.641 328 310 328c12.52 0 24.096-3.47 33.5-9.352C352.904 324.53 364.48 328 377 328c10.974 0 21.223-2.666 29.92-7.285 7.854 3.38 16.623 5.704 25.96 6.715C442.977 335.244 456.342 340 471 340c14.359 0 27.477-4.564 37.5-12.097C518.523 335.436 531.641 340 546 340c12.52 0 24.096-3.47 33.5-9.352C588.904 336.53 600.48 340 613 340c10.974 0 21.223-2.666 29.92-7.285C653.691 337.35 666.181 340 679.5 340c31.312 0 58.052-14.652 68.641-35.294 7.431-.574 14.534-1.977 21.14-4.083z" fill="#FFF"/><g transform="translate(-112 184)" fill="#FFF"><ellipse cx="329.5" cy="160" rx="199.5" ry="160"/><ellipse cx="162" cy="250.5" rx="162" ry="115.5"/><ellipse cx="307.5" cy="264" rx="125.5" ry="102"/><ellipse cx="454.5" cy="264" rx="125.5" ry="102"/><ellipse cx="619.5" cy="264" rx="125.5" ry="102"/><ellipse cx="515.5" cy="140" rx="125.5" ry="102"/></g><g transform="translate(-244 25)" fill="#FFF"><ellipse cx="294.5" cy="143.5" rx="178.5" ry="143.5"/><ellipse cx="145" cy="224.5" rx="145" ry="103.5"/><ellipse cx="275.5" cy="236.5" rx="112.5" ry="91.5"/><ellipse cx="407.5" cy="236.5" rx="112.5" ry="91.5"/><ellipse cx="554.5" cy="236.5" rx="112.5" ry="91.5"/><ellipse cx="461.5" cy="125.5" rx="112.5" ry="91.5"/></g><g transform="matrix(-1 0 0 1 319 0)"><use fill="#000" filter="url(#a)" xlink:href="#b"/><use fill="#FFF" xlink:href="#b"/></g><g transform="translate(869 152)" fill="#FFF"><ellipse cx="294.5" cy="143.5" rx="178.5" ry="143.5"/><ellipse cx="145" cy="224.5" rx="145" ry="103.5"/><ellipse cx="275.5" cy="236.5" rx="112.5" ry="91.5"/><ellipse cx="407.5" cy="236.5" rx="112.5" ry="91.5"/><ellipse cx="554.5" cy="236.5" rx="112.5" ry="91.5"/><ellipse cx="461.5" cy="125.5" rx="112.5" ry="91.5"/></g><g transform="translate(730 34)" fill="#FFF"><ellipse cx="296.5" cy="144.5" rx="179.5" ry="144.5"/><ellipse cx="146" cy="226" rx="146" ry="104"/><ellipse cx="277" cy="238" rx="113" ry="92"/><ellipse cx="410" cy="238" rx="113" ry="92"/><ellipse cx="558" cy="238" rx="113" ry="92"/><ellipse cx="464" cy="126" rx="113" ry="92"/></g><g transform="translate(1122 34)" fill="#FFF"><ellipse cx="296.5" cy="144.5" rx="179.5" ry="144.5"/><ellipse cx="146" cy="226" rx="146" ry="104"/><ellipse cx="277" cy="238" rx="113" ry="92"/><ellipse cx="410" cy="238" rx="113" ry="92"/></g><g transform="translate(-608)"><use fill="#000" filter="url(#c)" xlink:href="#d"/><use fill="#FFF" xlink:href="#d"/></g></g></svg>