<svg xmlns="http://www.w3.org/2000/svg" data-name="Logo — FIXED" width="64" height="64"><path fill="none" d="M16 16h32v32H16z"/><path d="M26.063 45.003c12.076 0 18.681-10.005 18.681-18.68 0-.285 0-.568-.02-.85A13.358 13.358 0 0 0 48 22.075a13.105 13.105 0 0 1-3.77 1.033 6.588 6.588 0 0 0 2.886-3.631 13.157 13.157 0 0 1-4.17 1.593 6.572 6.572 0 0 0-11.188 5.988 18.64 18.64 0 0 1-13.53-6.86 6.57 6.57 0 0 0 2.032 8.765 6.517 6.517 0 0 1-2.98-.822v.083a6.568 6.568 0 0 0 5.267 6.436 6.555 6.555 0 0 1-2.964.113 6.573 6.573 0 0 0 6.134 4.56 13.174 13.174 0 0 1-8.154 2.815A13.365 13.365 0 0 1 16 42.054a18.587 18.587 0 0 0 10.063 2.944" fill="#1da1f2"/></svg>