<svg xmlns="http://www.w3.org/2000/svg" viewBox="0 0 445 96"><g fill="#FFF"><path d="M12.4 54V19.5c0-6 1.6-10.3 4.8-13 3.2-2.7 8.1-4 14.7-4 2.1 0 4.2.1 6.2.3 2 .2 3.6.4 4.5.6l1.4.4c.5.2.8.5.8.9l.3 2.1c0 .4-.3.6-.8.6-3.6-1-7.8-1.5-12.5-1.5-5.3 0-9.2 1.1-11.7 3.2s-3.7 5.6-3.7 10.3V54c0 4.8 1.1 8.2 3.3 10.3 2.2 2.1 5.9 3.1 11 3.1 2.5 0 4.9-.1 7.2-.4 2.3-.3 4-.6 5.1-.8l1.6-.5c.5-.1.8.1.8.7l-.2 2.1c-.1.4-.4.7-.9.9-3.3 1.2-7.9 1.7-13.8 1.7-6.3 0-11-1.3-13.9-4-2.8-2.7-4.2-7-4.2-13.1zM57.5 56.8V36.2c0-5.6 1.5-9.4 4.4-11.5 2.9-2.1 7.1-3.1 12.5-3.1h.8c5.3 0 9.4 1 12.2 3.1 2.8 2.1 4.3 5.9 4.3 11.5v20.6c0 5.5-1.5 9.3-4.4 11.4-2.9 2.1-7.1 3.2-12.5 3.2H74c-5.2 0-9.3-1.1-12.2-3.2-2.9-2.1-4.3-5.9-4.3-11.4zM74 67.9h.8c4.2 0 7.4-.8 9.6-2.4 2.2-1.6 3.4-4.6 3.4-8.9V36.2c0-4.3-1.1-7.2-3.2-8.8-2.1-1.6-5.3-2.4-9.4-2.4h-.8c-4.2 0-7.4.8-9.6 2.4-2.2 1.6-3.4 4.6-3.4 8.8v20.4c0 4.3 1.1 7.2 3.2 8.9 2.1 1.6 5.3 2.4 9.4 2.4zM106.8 69.6V25.7c0-.4.3-.8.8-1 4.4-1.9 9-2.9 14-2.9h.4c6.8 0 11.1 2.2 12.9 6.7 1.7-4.5 6.1-6.7 13.2-6.7h.3c4.6 0 8.2 1 10.7 3.1 2.5 2 3.7 5.6 3.7 10.7v34c0 .4-.2.7-.7.7h-2.6c-.5 0-.8-.2-.8-.7V35.4c0-3.9-.9-6.6-2.8-8-1.9-1.4-4.4-2.2-7.8-2.2h-.3c-3.4 0-6.1.7-8.1 2.2-2 1.5-3 4.1-3 8v34.2c0 .4-.2.7-.7.7h-2.6c-.5 0-.8-.2-.8-.7V35.4c0-3.8-.9-6.5-2.8-8s-4.5-2.2-7.8-2.2h-.3c-3.8 0-7.5.7-10.9 2.1v42.2c0 .4-.2.7-.7.7h-2.6c-.5.1-.7-.2-.7-.6zM178.2 69.6V25.7c0-.4.3-.8.8-1 4.4-1.9 9-2.9 14-2.9h.4c6.8 0 11.1 2.2 12.9 6.7 1.7-4.5 6.1-6.7 13.2-6.7h.3c4.6 0 8.2 1 10.7 3.1 2.5 2 3.7 5.6 3.7 10.7v34c0 .4-.2.7-.7.7h-2.6c-.5 0-.8-.2-.8-.7V35.4c0-3.9-.9-6.6-2.8-8-1.9-1.4-4.4-2.2-7.8-2.2h-.3c-3.4 0-6.1.7-8.1 2.2-2 1.5-3 4.1-3 8v34.2c0 .4-.2.7-.7.7h-2.6c-.5 0-.8-.2-.8-.7V35.4c0-3.8-.9-6.5-2.8-8s-4.5-2.2-7.8-2.2h-.3c-3.8 0-7.5.7-10.9 2.1v42.2c0 .4-.2.7-.7.7h-2.6c-.5.1-.7-.2-.7-.6zM249.3 56.7v-33c0-.6.2-.9.7-1l2.6-.2c.5 0 .8.2.8.7v33.2c0 4.2 1 7.1 3 8.7 2 1.6 5 2.4 8.9 2.4 4.9 0 9.2-.7 12.8-2.2V23.2c0-.4.2-.7.7-.7l2.7.2c.4.1.7.4.7.9v43.5c0 .5-.3.9-.8 1.1-4.8 2-10.2 3-16.2 3-5.1 0-8.9-1-11.7-3.1-2.8-2.2-4.2-5.9-4.2-11.4zM297.8 69.6V25.8c0-.5.3-.9.8-1.1 4.7-1.9 10.1-2.9 16.2-2.9 5.1 0 9 1 11.7 3.1 2.7 2 4 5.8 4 11.3v33.3c0 .4-.2.7-.7.7h-2.6c-.5 0-.8-.2-.8-.7V36.4c0-4.3-1-7.2-2.9-8.8-1.9-1.6-4.9-2.4-8.9-2.4-5 0-9.3.7-12.9 2.2v42.1c0 .4-.2.7-.7.7h-2.6c-.4.1-.6-.2-.6-.6zM346 12.5V6.1c0-.4.2-.7.7-.7h3.1c.5 0 .8.2.8.7v6.3c0 .5-.3.8-.8.8h-3.1c-.5 0-.7-.2-.7-.7zm.2 57.1v-46c0-.5.2-.8.7-.9l2.6-.2c.5 0 .8.2.8.7v46.4c0 .4-.2.7-.7.7H347c-.6 0-.8-.3-.8-.7zM367.3 58.3V25.9h-6.6c-.5 0-.8-.3-.8-.8v-1.7c0-.4.3-.7.8-.7h6.6v-13c0-.6.2-.9.7-1l2.5-.2c.6-.1.9.1.9.7v13.5h13.3c.5 0 .8.2.9.6l.3 1.9c0 .4-.2.7-.7.7h-13.8v32.4c0 3.8.7 6.2 2.2 7.3 1.5 1.1 3.8 1.6 7 1.6 1.5 0 3.2-.2 5.1-.5.5 0 .7.2.7.7l-.3 1.9c-.1.6-.3.9-.8 1-1.5.3-3.1.5-5 .5-4.3 0-7.5-.8-9.7-2.4-2.2-1.6-3.3-5-3.3-10.1zM407 90.6l-.3-2c0-.3 0-.5.1-.6.1-.1.3-.1.6 0 1.5.4 3.6.6 6.2.6 3.7 0 6.6-.7 8.7-2.1 2.1-1.4 3.1-4.3 3.1-8.6v-6.2l.1-6.4c-2.2 3.5-6.6 5.2-13.2 5.2h-.5c-4.9 0-8.6-1.1-11.3-3.2-2.7-2.1-4-5.9-4-11.4v-32c0-.6.2-.9.7-1l2.6-.2c.5 0 .8.2.8.7v32.2c0 4.2 1 7.2 2.9 8.8 1.9 1.7 4.9 2.5 8.9 2.5h.6c4 0 7.1-.8 9.2-2.4 2.1-1.6 3.1-4.5 3.1-8.7V23.2c0-.4.3-.7.8-.7l2.6.2c.4.1.7.4.7.9v53.9c0 5.6-1.3 9.5-4 11.5s-6.4 3.1-11.1 3.1c-3 0-5.2-.2-6.7-.7-.4 0-.6-.3-.6-.8z"/></g></svg>