<?xml version="1.0" encoding="UTF-8" standalone="no"?>
<svg width="360px" height="68px" viewBox="0 0 360 68" version="1.1" xmlns="http://www.w3.org/2000/svg" xmlns:xlink="http://www.w3.org/1999/xlink">
    <!-- Generator: Sketch 45.2 (43514) - http://www.bohemiancoding.com/sketch -->
    <title>Contribute Copy</title>
    <desc>Created with Sketch.</desc>
    <defs></defs>
    <g id="Page-1" stroke="none" stroke-width="1" fill="none" fill-rule="evenodd">
        <g id="Contribute---V6" transform="translate(-142.000000, -192.000000)" fill="#FFFFFF">
            <g id="Group-10" transform="translate(135.000000, 190.000000)">
                <path d="M7.11,52.79 C7.11,64.22 12.51,68.81 24.21,68.81 C32.58,68.81 37.17,67.19 37.17,67.19 C37.62,67.01 37.89,66.74 37.98,66.38 L38.16,64.4 C38.16,63.95 38.07,63.59 37.44,63.77 C37.44,63.77 32.22,65.39 24.3,65.39 C14.67,65.39 10.89,61.79 10.89,52.79 L10.89,20.3 C10.89,11.3 15.48,7.61 25.38,7.61 C31.95,7.61 37.08,9.05 37.08,9.05 C37.71,9.14 37.8,8.96 37.8,8.51 L37.53,6.53 C37.53,6.08 37.35,5.9 36.81,5.72 C36.81,5.72 32.13,4.46 25.38,4.46 C13.32,4.46 7.11,8.96 7.11,20.39 L7.11,52.79 Z M49.41,55.4 L49.41,36.05 C49.41,24.8 56.34,22.37 65.25,22.37 L65.97,22.37 C74.79,22.37 81.45,24.8 81.45,36.05 L81.45,55.4 C81.45,66.56 74.52,69.08 65.61,69.08 L64.89,69.08 C56.07,69.08 49.41,66.56 49.41,55.4 Z M64.89,65.75 L65.61,65.75 C72.72,65.75 77.76,63.68 77.76,55.13 L77.76,36.05 C77.76,27.5 72.99,25.52 65.97,25.52 L65.25,25.52 C58.14,25.52 53.1,27.59 53.1,36.05 L53.1,55.13 C53.1,63.68 57.78,65.75 64.89,65.75 Z M95.58,67.37 C95.58,67.82 95.76,68 96.3,68 L98.73,68 C99.18,68 99.36,67.82 99.36,67.37 L99.36,27.86 C101.79,26.87 106.47,25.79 111.42,25.79 C118.35,25.79 122.49,27.77 122.49,36.23 L122.49,67.37 C122.49,67.82 122.76,68 123.21,68 L125.64,68 C126.09,68 126.27,67.82 126.27,67.37 L126.27,36.14 C126.27,25.07 120.06,22.64 111.51,22.64 C104.85,22.64 99.36,24.08 96.3,25.34 C95.85,25.52 95.58,25.79 95.58,26.33 L95.58,67.37 Z M141.84,56.75 C141.84,67.19 147.15,68.54 153.99,68.54 C155.7,68.54 157.41,68.36 158.67,68.09 C159.21,68 159.3,67.73 159.39,67.19 L159.66,65.39 C159.75,64.85 159.48,64.76 159.03,64.76 C157.95,64.94 156.06,65.21 154.26,65.21 C149.04,65.21 145.62,64.49 145.62,56.84 L145.62,26.42 L158.58,26.42 C159.03,26.42 159.21,26.24 159.21,25.79 L158.94,23.99 C158.85,23.54 158.67,23.45 158.13,23.45 L145.62,23.45 L145.62,10.76 C145.62,10.22 145.26,10.04 144.81,10.13 L142.47,10.31 C141.93,10.4 141.84,10.67 141.84,11.21 L141.84,23.45 L135.63,23.45 C135.09,23.45 134.91,23.54 134.91,24.08 L134.91,25.7 C134.91,26.24 135.09,26.42 135.63,26.42 L141.84,26.42 L141.84,56.75 Z M169.29,67.37 C169.29,67.82 169.47,68 170.01,68 L172.44,68 C172.89,68 173.07,67.82 173.07,67.37 L173.07,35.78 C173.07,27.05 177.39,26.06 181.98,26.06 C184.32,26.06 186.21,26.42 187.56,26.6 C188.01,26.69 188.19,26.51 188.19,26.06 L187.92,23.99 C187.83,23.45 187.65,23.27 187.2,23.18 C186.3,22.91 184.14,22.64 181.53,22.64 C175.41,22.64 169.29,24.44 169.29,35.51 L169.29,67.37 Z M196.92,13.82 C196.92,14.36 197.01,14.54 197.55,14.54 L200.43,14.54 C200.88,14.54 201.15,14.36 201.15,13.82 L201.15,7.88 C201.15,7.43 200.97,7.25 200.43,7.25 L197.55,7.25 C197.01,7.25 196.92,7.43 196.92,7.88 L196.92,13.82 Z M197.1,67.37 C197.1,67.82 197.28,68 197.82,68 L200.25,68 C200.7,68 200.88,67.82 200.88,67.37 L200.88,23.9 C200.88,23.36 200.7,23.27 200.16,23.27 L197.73,23.45 C197.28,23.54 197.1,23.81 197.1,24.26 L197.1,67.37 Z M215.64,56.03 L215.64,3.83 C215.64,3.29 215.82,3.02 216.36,2.93 L218.7,2.75 C219.24,2.75 219.42,2.93 219.42,3.38 L219.42,21.38 C219.42,24.44 219.24,27.23 219.24,27.23 C221.49,23.9 225.27,22.37 232.2,22.37 L232.74,22.37 C241.2,22.37 247.77,24.8 247.77,36.05 L247.77,55.4 C247.77,66.65 240.75,69.08 231.93,69.08 L231.21,69.08 C222.12,69.08 215.64,66.83 215.64,56.03 Z M231.12,65.75 L231.93,65.75 C239.04,65.75 243.99,63.68 243.99,55.13 L243.99,36.05 C243.99,27.5 239.31,25.52 232.29,25.52 L231.66,25.52 C224.46,25.52 219.42,27.5 219.42,36.05 L219.42,55.4 C219.42,63.95 224.1,65.75 231.12,65.75 Z M261.63,55.31 C261.63,66.29 267.84,68.81 276.39,68.81 C283.05,68.81 288.54,67.28 291.6,66.02 C292.14,65.84 292.32,65.66 292.32,65.03 L292.32,24.26 C292.32,23.81 292.14,23.54 291.69,23.45 L289.17,23.27 C288.81,23.27 288.54,23.36 288.54,23.9 L288.54,63.41 C286.11,64.4 281.52,65.48 276.57,65.48 C269.64,65.48 265.41,63.41 265.41,55.04 L265.41,23.9 C265.41,23.45 265.23,23.27 264.69,23.27 L262.26,23.45 C261.72,23.54 261.63,23.81 261.63,24.35 L261.63,55.31 Z M308.16,56.75 C308.16,67.19 313.47,68.54 320.31,68.54 C322.02,68.54 323.73,68.36 324.99,68.09 C325.53,68 325.62,67.73 325.71,67.19 L325.98,65.39 C326.07,64.85 325.8,64.76 325.35,64.76 C324.27,64.94 322.38,65.21 320.58,65.21 C315.36,65.21 311.94,64.49 311.94,56.84 L311.94,26.42 L324.9,26.42 C325.35,26.42 325.53,26.24 325.53,25.79 L325.26,23.99 C325.17,23.54 324.99,23.45 324.45,23.45 L311.94,23.45 L311.94,10.76 C311.94,10.22 311.58,10.04 311.13,10.13 L308.79,10.31 C308.25,10.4 308.16,10.67 308.16,11.21 L308.16,23.45 L301.95,23.45 C301.41,23.45 301.23,23.54 301.23,24.08 L301.23,25.7 C301.23,26.24 301.41,26.42 301.95,26.42 L308.16,26.42 L308.16,56.75 Z M335.25,55.13 L335.25,36.14 C335.25,25.7 341.01,22.37 351.18,22.37 L352.08,22.37 C361.08,22.37 366.48,25.52 366.48,34.43 L366.48,35.87 C366.48,45.41 361.35,46.49 353.16,46.49 C346.86,46.49 340.38,44.96 338.94,44.69 L338.94,54.59 C338.94,63.59 343.53,65.48 351.09,65.48 C356.85,65.48 360.72,64.76 363.69,64.13 C364.14,64.04 364.32,64.22 364.32,64.58 L364.05,66.65 C364.05,67.1 363.87,67.28 363.33,67.55 C361.35,68 356.94,68.81 351.27,68.81 L350.64,68.81 C341.82,68.81 335.25,66.38 335.25,55.13 Z M338.94,36.05 L338.94,41.54 C339.93,41.81 346.59,43.52 353.16,43.52 C359.1,43.52 362.79,42.89 362.79,35.78 L362.79,34.52 C362.79,28.49 360,25.52 351.81,25.52 L351.18,25.52 C343.62,25.52 338.94,27.59 338.94,36.05 Z" id="Contribute-Copy"></path>
            </g>
        </g>
    </g>
</svg>