<svg width="360" height="68" viewBox="0 0 360 68" xmlns="http://www.w3.org/2000/svg"><title>Contribute Copy</title><path d="M.11 50.79c0 11.43 5.4 16.02 17.1 16.02 8.37 0 12.96-1.62 12.96-1.62.45-.18.72-.45.81-.81l.18-1.98c0-.45-.09-.81-.72-.63 0 0-5.22 1.62-13.14 1.62-9.63 0-13.41-3.6-13.41-12.6V18.3c0-9 4.59-12.69 14.49-12.69 6.57 0 11.7 1.44 11.7 1.44.63.09.72-.09.72-.54l-.27-1.98c0-.45-.18-.63-.72-.81 0 0-4.68-1.26-11.43-1.26C6.32 2.46.11 6.96.11 18.39v32.4zm42.3 2.61V34.05c0-11.25 6.93-13.68 15.84-13.68h.72c8.82 0 15.48 2.43 15.48 13.68V53.4c0 11.16-6.93 13.68-15.84 13.68h-.72c-8.82 0-15.48-2.52-15.48-13.68zm15.48 10.35h.72c7.11 0 12.15-2.07 12.15-10.62V34.05c0-8.55-4.77-10.53-11.79-10.53h-.72c-7.11 0-12.15 2.07-12.15 10.53v19.08c0 8.55 4.68 10.62 11.79 10.62zm30.69 1.62c0 .45.18.63.72.63h2.43c.45 0 .63-.18.63-.63V25.86c2.43-.99 7.11-2.07 12.06-2.07 6.93 0 11.07 1.98 11.07 10.44v31.14c0 .45.27.63.72.63h2.43c.45 0 .63-.18.63-.63V34.14c0-11.07-6.21-13.5-14.76-13.5-6.66 0-12.15 1.44-15.21 2.7-.45.18-.72.45-.72.99v41.04zm46.26-10.62c0 10.44 5.31 11.79 12.15 11.79 1.71 0 3.42-.18 4.68-.45.54-.09.63-.36.72-.9l.27-1.8c.09-.54-.18-.63-.63-.63-1.08.18-2.97.45-4.77.45-5.22 0-8.64-.72-8.64-8.37V24.42h12.96c.45 0 .63-.18.63-.63l-.27-1.8c-.09-.45-.27-.54-.81-.54h-12.51V8.76c0-.54-.36-.72-.81-.63l-2.34.18c-.54.09-.63.36-.63.9v12.24h-6.21c-.54 0-.72.09-.72.63v1.62c0 .54.18.72.72.72h6.21v30.33zm27.45 10.62c0 .45.18.63.72.63h2.43c.45 0 .63-.18.63-.63V33.78c0-8.73 4.32-9.72 8.91-9.72 2.34 0 4.23.36 5.58.54.45.09.63-.09.63-.54l-.27-2.07c-.09-.54-.27-.72-.72-.81-.9-.27-3.06-.54-5.67-.54-6.12 0-12.24 1.8-12.24 12.87v31.86zm27.63-53.55c0 .54.09.72.63.72h2.88c.45 0 .72-.18.72-.72V5.88c0-.45-.18-.63-.72-.63h-2.88c-.54 0-.63.18-.63.63v5.94zm.18 53.55c0 .45.18.63.72.63h2.43c.45 0 .63-.18.63-.63V21.9c0-.54-.18-.63-.72-.63l-2.43.18c-.45.09-.63.36-.63.81v43.11zm18.54-11.34V1.83c0-.54.18-.81.72-.9l2.34-.18c.54 0 .72.18.72.63v18c0 3.06-.18 5.85-.18 5.85 2.25-3.33 6.03-4.86 12.96-4.86h.54c8.46 0 15.03 2.43 15.03 13.68V53.4c0 11.25-7.02 13.68-15.84 13.68h-.72c-9.09 0-15.57-2.25-15.57-13.05zm15.48 9.72h.81c7.11 0 12.06-2.07 12.06-10.62V34.05c0-8.55-4.68-10.53-11.7-10.53h-.63c-7.2 0-12.24 1.98-12.24 10.53V53.4c0 8.55 4.68 10.35 11.7 10.35zm30.51-10.44c0 10.98 6.21 13.5 14.76 13.5 6.66 0 12.15-1.53 15.21-2.79.54-.18.72-.36.72-.99V22.26c0-.45-.18-.72-.63-.81l-2.52-.18c-.36 0-.63.09-.63.63v39.51c-2.43.99-7.02 2.07-11.97 2.07-6.93 0-11.16-2.07-11.16-10.44V21.9c0-.45-.18-.63-.72-.63l-2.43.18c-.54.09-.63.36-.63.9v30.96zm46.53 1.44c0 10.44 5.31 11.79 12.15 11.79 1.71 0 3.42-.18 4.68-.45.54-.09.63-.36.72-.9l.27-1.8c.09-.54-.18-.63-.63-.63-1.08.18-2.97.45-4.77.45-5.22 0-8.64-.72-8.64-8.37V24.42h12.96c.45 0 .63-.18.63-.63l-.27-1.8c-.09-.45-.27-.54-.81-.54h-12.51V8.76c0-.54-.36-.72-.81-.63l-2.34.18c-.54.09-.63.36-.63.9v12.24h-6.21c-.54 0-.72.09-.72.63v1.62c0 .54.18.72.72.72h6.21v30.33zm27.09-1.62V34.14c0-10.44 5.76-13.77 15.93-13.77h.9c9 0 14.4 3.15 14.4 12.06v1.44c0 9.54-5.13 10.62-13.32 10.62-6.3 0-12.78-1.53-14.22-1.8v9.9c0 9 4.59 10.89 12.15 10.89 5.76 0 9.63-.72 12.6-1.35.45-.09.63.09.63.45l-.27 2.07c0 .45-.18.63-.72.9-1.98.45-6.39 1.26-12.06 1.26h-.63c-8.82 0-15.39-2.43-15.39-13.68zm3.69-19.08v5.49c.99.27 7.65 1.98 14.22 1.98 5.94 0 9.63-.63 9.63-7.74v-1.26c0-6.03-2.79-9-10.98-9h-.63c-7.56 0-12.24 2.07-12.24 10.53z" fill="#FFF" fill-rule="evenodd"/></svg>