<svg width="26" height="22" xmlns="http://www.w3.org/2000/svg"><g fill="none" fill-rule="evenodd"><path d="M-8-10h43v43H-8z"/><path d="M8.514 22.42c10.142 0 15.689-8.401 15.689-15.688 0-.238 0-.476-.016-.712a11.205 11.205 0 0 0 2.75-2.854 11.006 11.006 0 0 1-3.166.867 5.533 5.533 0 0 0 2.424-3.05 11.05 11.05 0 0 1-3.502 1.339 5.519 5.519 0 0 0-9.396 5.029A15.654 15.654 0 0 1 1.933 1.59 5.518 5.518 0 0 0 3.64 8.95a5.473 5.473 0 0 1-2.503-.69v.07a5.516 5.516 0 0 0 4.424 5.405 5.505 5.505 0 0 1-2.49.095 5.52 5.52 0 0 0 5.152 3.829 11.064 11.064 0 0 1-8.16 2.285 15.61 15.61 0 0 0 8.451 2.473" fill="#5e6b8d" fill-rule="nonzero"/></g></svg>