<svg width="54" height="22" xmlns="http://www.w3.org/2000/svg"><path d="M5.86 21H.85c-.15 0-.24-.06-.24-.21V.3C.61.15.7.09.85.09h5.28c4.02 0 5.85 1.44 5.85 5.31v10.29c0 3.81-2.1 5.31-6.12 5.31zm4.86-5.34V5.37c0-3.06-1.29-4.23-4.59-4.23H1.87v18.72h3.99c3.3 0 4.86-1.17 4.86-4.2zm5.91 1.14v-6.45c0-3.75 2.31-4.56 5.28-4.56h.24c2.94 0 5.16.81 5.16 4.56v6.45c0 3.72-2.31 4.56-5.28 4.56h-.24c-2.94 0-5.16-.84-5.16-4.56zm5.16 3.45h.24c2.37 0 4.05-.69 4.05-3.54v-6.36c0-2.85-1.59-3.51-3.93-3.51h-.24c-2.37 0-4.05.69-4.05 3.51v6.36c0 2.85 1.56 3.54 3.93 3.54zm18.78-.3l-.09.6c-.03.15-.09.24-.27.3-.63.21-2.04.42-3.3.42h-.21c-2.76 0-4.89-.84-4.89-4.56v-6.27c0-3.75 2.19-4.56 4.92-4.56h.12c1.11 0 2.58.18 3.27.36.18.06.27.12.27.27l.06.6c0 .15 0 .27-.21.24-.78-.24-2.25-.42-3.33-.42h-.15c-2.19 0-3.72.66-3.72 3.51v6.18c0 2.85 1.44 3.54 3.75 3.54h.12c1.29 0 2.64-.21 3.39-.42.21-.06.27.06.27.21zm2.94.45l-.09-.6c-.03-.21.09-.27.24-.21.87.27 2.55.57 4.41.57h.24c2.16 0 3.51-.45 3.51-2.76v-.6c0-1.92-.78-2.52-3.15-2.97l-1.2-.21c-2.55-.51-3.96-1.26-3.96-3.69v-.54c0-2.94 2.25-3.51 4.5-3.51h.12c1.14 0 2.73.18 3.57.42.18.03.27.12.27.24l.09.63c0 .15-.06.24-.24.21-.66-.21-2.28-.45-3.57-.45h-.15c-1.92 0-3.36.48-3.36 2.43v.51c0 1.59.93 2.19 3.03 2.61l1.23.24c2.88.54 4.05 1.35 4.05 3.99v.72c0 3.27-2.04 3.84-4.74 3.84h-.24c-1.83 0-3.66-.3-4.29-.54-.15-.03-.24-.09-.27-.33z" fill="#FFF" fill-rule="evenodd"/></svg>