<?xml version="1.0" encoding="UTF-8"?>
<svg width="54px" height="22px" viewBox="0 0 54 22" version="1.1" xmlns="http://www.w3.org/2000/svg" xmlns:xlink="http://www.w3.org/1999/xlink">
    <!-- Generator: Sketch 48.1 (47250) - http://www.bohemiancoding.com/sketch -->
    <title>Docs</title>
    <desc>Created with Sketch.</desc>
    <defs></defs>
    <g id="Features_Home-v1-Copy" stroke="none" stroke-width="1" fill="none" fill-rule="evenodd" transform="translate(-98.000000, -22.000000)">
        <g id="Group-2" fill="#FFFFFF">
            <path d="M103.86,43 L98.85,43 C98.7,43 98.61,42.94 98.61,42.79 L98.61,22.3 C98.61,22.15 98.7,22.09 98.85,22.09 L104.13,22.09 C108.15,22.09 109.98,23.53 109.98,27.4 L109.98,37.69 C109.98,41.5 107.88,43 103.86,43 Z M108.72,37.66 L108.72,27.37 C108.72,24.31 107.43,23.14 104.13,23.14 L99.87,23.14 L99.87,41.86 L103.86,41.86 C107.16,41.86 108.72,40.69 108.72,37.66 Z M114.63,38.8 L114.63,32.35 C114.63,28.6 116.94,27.79 119.91,27.79 L120.15,27.79 C123.09,27.79 125.31,28.6 125.31,32.35 L125.31,38.8 C125.31,42.52 123,43.36 120.03,43.36 L119.79,43.36 C116.85,43.36 114.63,42.52 114.63,38.8 Z M119.79,42.25 L120.03,42.25 C122.4,42.25 124.08,41.56 124.08,38.71 L124.08,32.35 C124.08,29.5 122.49,28.84 120.15,28.84 L119.91,28.84 C117.54,28.84 115.86,29.53 115.86,32.35 L115.86,38.71 C115.86,41.56 117.42,42.25 119.79,42.25 Z M138.57,41.95 L138.48,42.55 C138.45,42.7 138.39,42.79 138.21,42.85 C137.58,43.06 136.17,43.27 134.91,43.27 L134.7,43.27 C131.94,43.27 129.81,42.43 129.81,38.71 L129.81,32.44 C129.81,28.69 132,27.88 134.73,27.88 L134.85,27.88 C135.96,27.88 137.43,28.06 138.12,28.24 C138.3,28.3 138.39,28.36 138.39,28.51 L138.45,29.11 C138.45,29.26 138.45,29.38 138.24,29.35 C137.46,29.11 135.99,28.93 134.91,28.93 L134.76,28.93 C132.57,28.93 131.04,29.59 131.04,32.44 L131.04,38.62 C131.04,41.47 132.48,42.16 134.79,42.16 L134.91,42.16 C136.2,42.16 137.55,41.95 138.3,41.74 C138.51,41.68 138.57,41.8 138.57,41.95 Z M141.51,42.4 L141.42,41.8 C141.39,41.59 141.51,41.53 141.66,41.59 C142.53,41.86 144.21,42.16 146.07,42.16 L146.31,42.16 C148.47,42.16 149.82,41.71 149.82,39.4 L149.82,38.8 C149.82,36.88 149.04,36.28 146.67,35.83 L145.47,35.62 C142.92,35.11 141.51,34.36 141.51,31.93 L141.51,31.39 C141.51,28.45 143.76,27.88 146.01,27.88 L146.13,27.88 C147.27,27.88 148.86,28.06 149.7,28.3 C149.88,28.33 149.97,28.42 149.97,28.54 L150.06,29.17 C150.06,29.32 150,29.41 149.82,29.38 C149.16,29.17 147.54,28.93 146.25,28.93 L146.1,28.93 C144.18,28.93 142.74,29.41 142.74,31.36 L142.74,31.87 C142.74,33.46 143.67,34.06 145.77,34.48 L147,34.72 C149.88,35.26 151.05,36.07 151.05,38.71 L151.05,39.43 C151.05,42.7 149.01,43.27 146.31,43.27 L146.07,43.27 C144.24,43.27 142.41,42.97 141.78,42.73 C141.63,42.7 141.54,42.64 141.51,42.4 Z" id="Docs"></path>
        </g>
    </g>
</svg>