<svg id="Layer_1" xmlns="http://www.w3.org/2000/svg" width="24" height="23" viewBox="0 0 24 23"><style>.st0{fill:#3f4659}.st0,.st1{fill-rule:evenodd;clip-rule:evenodd}.st1,.st2{#3f4659}.st3,.st4{fill:none;stroke:#3f4659;stroke-linecap:round;stroke-miterlimit:10}.st4{stroke-dasharray:.9999,1.9999}.st5{fill:#3f4659}.st6{fill-rule:evenodd;clip-rule:evenodd}.st6,.st7{fill:#3f4659}</style><path class="st0" d="M12 .2C5.6.2.4 5.4.4 11.8c0 5.1 3.3 9.5 8 11 .6.1.8-.3.8-.6v-2c-3.2.7-3.9-1.6-3.9-1.6-.6-1.2-1.4-1.6-1.4-1.6-1.1-.7.1-.7.1-.7 1.2.1 1.8 1.2 1.8 1.2 1 1.8 2.7 1.3 3.4 1 .1-.8.4-1.3.7-1.6-2.6-.3-5.3-1.3-5.3-5.8 0-1.3.5-2.3 1.2-3.1-.1-.2-.5-1.4.1-3 0 0 1-.3 3.2 1.2.9-.3 1.9-.4 2.9-.4s2 .1 2.9.4C17.1 4.7 18.1 5 18.1 5c.6 1.6.2 2.8.1 3.1.7.8 1.2 1.9 1.2 3.1 0 4.5-2.7 5.5-5.3 5.7.4.4.8 1.1.8 2.2v3.2c0 .3.2.7.8.6 4.6-1.5 8-5.9 8-11C23.6 5.4 18.4.2 12 .2z"/></svg> 