<svg width="172" height="69" xmlns="http://www.w3.org/2000/svg"><path d="M17.152 67H1.12c-.48 0-.768-.192-.768-.672V.76c0-.48.288-.672.768-.672h16.896c12.864 0 18.72 4.608 18.72 16.992v32.928C36.736 62.2 30.016 67 17.152 67zm15.552-17.088V16.984c0-9.792-4.128-13.536-14.688-13.536H4.384v59.904h12.768c10.56 0 15.552-3.744 15.552-13.44zm19.912 3.648V32.92c0-12 7.392-14.592 16.896-14.592h.768c9.408 0 16.512 2.592 16.512 14.592v20.64c0 11.904-7.392 14.592-16.896 14.592h-.768c-9.408 0-16.512-2.688-16.512-14.592zM69.128 64.6h.768c7.584 0 12.96-2.208 12.96-11.328V32.92c0-9.12-5.088-11.232-12.576-11.232h-.768c-7.584 0-12.96 2.208-12.96 11.232v20.352c0 9.12 4.992 11.328 12.576 11.328zm61.096-.96l-.288 1.92c-.096.48-.288.768-.864.96-2.016.672-6.528 1.344-10.56 1.344h-.672c-8.832 0-15.648-2.688-15.648-14.592V33.208c0-12 7.008-14.592 15.744-14.592h.384c3.552 0 8.256.576 10.464 1.152.576.192.864.384.864.864l.192 1.92c0 .48 0 .864-.672.768-2.496-.768-7.2-1.344-10.656-1.344h-.48c-7.008 0-11.904 2.112-11.904 11.232v19.776c0 9.12 4.608 11.328 12 11.328h.384c4.128 0 8.448-.672 10.848-1.344.672-.192.864.192.864.672zm10.408 1.44l-.288-1.92c-.096-.672.288-.864.768-.672 2.784.864 8.16 1.824 14.112 1.824h.768c6.912 0 11.232-1.44 11.232-8.832v-1.92c0-6.144-2.496-8.064-10.08-9.504l-3.84-.672c-8.16-1.632-12.672-4.032-12.672-11.808v-1.728c0-9.408 7.2-11.232 14.4-11.232h.384c3.648 0 8.736.576 11.424 1.344.576.096.864.384.864.768l.288 2.016c0 .48-.192.768-.768.672-2.112-.672-7.296-1.44-11.424-1.44h-.48c-6.144 0-10.752 1.536-10.752 7.776v1.632c0 5.088 2.976 7.008 9.696 8.352l3.936.768c9.216 1.728 12.96 4.32 12.96 12.768v2.304c0 10.464-6.528 12.288-15.168 12.288h-.768c-5.856 0-11.712-.96-13.728-1.728-.48-.096-.768-.288-.864-1.056z" fill="#FFF" fill-rule="evenodd"/></svg>