<?xml version="1.0" encoding="UTF-8"?>
<svg width="172px" height="69px" viewBox="0 0 172 69" version="1.1" xmlns="http://www.w3.org/2000/svg" xmlns:xlink="http://www.w3.org/1999/xlink">
    <!-- Generator: Sketch 48.1 (47250) - http://www.bohemiancoding.com/sketch -->
    <title>Docs</title>
    <desc>Created with Sketch.</desc>
    <defs></defs>
    <g id="DocsandGuidesmicrosite_Nav" stroke="none" stroke-width="1" fill="none" fill-rule="evenodd" transform="translate(-157.000000, -199.000000)">
        <path d="M174.152,266 L158.12,266 C157.64,266 157.352,265.808 157.352,265.328 L157.352,199.76 C157.352,199.28 157.64,199.088 158.12,199.088 L175.016,199.088 C187.88,199.088 193.736,203.696 193.736,216.08 L193.736,249.008 C193.736,261.2 187.016,266 174.152,266 Z M189.704,248.912 L189.704,215.984 C189.704,206.192 185.576,202.448 175.016,202.448 L161.384,202.448 L161.384,262.352 L174.152,262.352 C184.712,262.352 189.704,258.608 189.704,248.912 Z M209.616,252.56 L209.616,231.92 C209.616,219.92 217.008,217.328 226.512,217.328 L227.28,217.328 C236.688,217.328 243.792,219.92 243.792,231.92 L243.792,252.56 C243.792,264.464 236.4,267.152 226.896,267.152 L226.128,267.152 C216.72,267.152 209.616,264.464 209.616,252.56 Z M226.128,263.6 L226.896,263.6 C234.48,263.6 239.856,261.392 239.856,252.272 L239.856,231.92 C239.856,222.8 234.768,220.688 227.28,220.688 L226.512,220.688 C218.928,220.688 213.552,222.896 213.552,231.92 L213.552,252.272 C213.552,261.392 218.544,263.6 226.128,263.6 Z M287.224,262.64 L286.936,264.56 C286.84,265.04 286.648,265.328 286.072,265.52 C284.056,266.192 279.544,266.864 275.512,266.864 L274.84,266.864 C266.008,266.864 259.192,264.176 259.192,252.272 L259.192,232.208 C259.192,220.208 266.2,217.616 274.936,217.616 L275.32,217.616 C278.872,217.616 283.576,218.192 285.784,218.768 C286.36,218.96 286.648,219.152 286.648,219.632 L286.84,221.552 C286.84,222.032 286.84,222.416 286.168,222.32 C283.672,221.552 278.968,220.976 275.512,220.976 L275.032,220.976 C268.024,220.976 263.128,223.088 263.128,232.208 L263.128,251.984 C263.128,261.104 267.736,263.312 275.128,263.312 L275.512,263.312 C279.64,263.312 283.96,262.64 286.36,261.968 C287.032,261.776 287.224,262.16 287.224,262.64 Z M297.632,264.08 L297.344,262.16 C297.248,261.488 297.632,261.296 298.112,261.488 C300.896,262.352 306.272,263.312 312.224,263.312 L312.992,263.312 C319.904,263.312 324.224,261.872 324.224,254.48 L324.224,252.56 C324.224,246.416 321.728,244.496 314.144,243.056 L310.304,242.384 C302.144,240.752 297.632,238.352 297.632,230.576 L297.632,228.848 C297.632,219.44 304.832,217.616 312.032,217.616 L312.416,217.616 C316.064,217.616 321.152,218.192 323.84,218.96 C324.416,219.056 324.704,219.344 324.704,219.728 L324.992,221.744 C324.992,222.224 324.8,222.512 324.224,222.416 C322.112,221.744 316.928,220.976 312.8,220.976 L312.32,220.976 C306.176,220.976 301.568,222.512 301.568,228.752 L301.568,230.384 C301.568,235.472 304.544,237.392 311.264,238.736 L315.2,239.504 C324.416,241.232 328.16,243.824 328.16,252.272 L328.16,254.576 C328.16,265.04 321.632,266.864 312.992,266.864 L312.224,266.864 C306.368,266.864 300.512,265.904 298.496,265.136 C298.016,265.04 297.728,264.848 297.632,264.08 Z" id="Docs" fill="#FFFFFF"></path>
    </g>
</svg>