<?xml version="1.0" encoding="UTF-8" standalone="no"?>
<svg width="386px" height="68px" viewBox="0 0 386 68" version="1.1" xmlns="http://www.w3.org/2000/svg" xmlns:xlink="http://www.w3.org/1999/xlink">
    <!-- Generator: Sketch 45.2 (43514) - http://www.bohemiancoding.com/sketch -->
    <title>Downloads Copy</title>
    <desc>Created with Sketch.</desc>
    <defs></defs>
    <g id="Page-1" stroke="none" stroke-width="1" fill="none" fill-rule="evenodd">
        <g id="Downloads-Just-in-case-design" transform="translate(-142.000000, -169.000000)" fill="#FFFFFF">
            <g id="Group-9" transform="translate(135.000000, 167.000000)">
                <path d="M23.58,68 L8.55,68 C8.1,68 7.83,67.82 7.83,67.37 L7.83,5.9 C7.83,5.45 8.1,5.27 8.55,5.27 L24.39,5.27 C36.45,5.27 41.94,9.59 41.94,21.2 L41.94,52.07 C41.94,63.5 35.64,68 23.58,68 Z M38.16,51.98 L38.16,21.11 C38.16,11.93 34.29,8.42 24.39,8.42 L11.61,8.42 L11.61,64.58 L23.58,64.58 C33.48,64.58 38.16,61.07 38.16,51.98 Z M55.89,55.4 L55.89,36.05 C55.89,24.8 62.82,22.37 71.73,22.37 L72.45,22.37 C81.27,22.37 87.93,24.8 87.93,36.05 L87.93,55.4 C87.93,66.56 81,69.08 72.09,69.08 L71.37,69.08 C62.55,69.08 55.89,66.56 55.89,55.4 Z M71.37,65.75 L72.09,65.75 C79.2,65.75 84.24,63.68 84.24,55.13 L84.24,36.05 C84.24,27.5 79.47,25.52 72.45,25.52 L71.73,25.52 C64.62,25.52 59.58,27.59 59.58,36.05 L59.58,55.13 C59.58,63.68 64.26,65.75 71.37,65.75 Z M108.36,67.28 C108.45,67.82 108.72,68 109.26,68 L112.68,68 C113.22,68 113.4,67.82 113.58,67.28 L122.85,36.59 C123.75,33.62 124.92,29.48 125.37,27.23 L125.64,27.23 C126.18,29.48 127.26,33.44 128.25,36.86 L137.25,67.37 C137.34,67.82 137.61,68 138.06,68 L141.66,68 C142.11,68 142.38,67.82 142.47,67.37 L153.9,24.26 C153.99,23.81 153.81,23.54 153.36,23.45 L151.02,23.27 C150.66,23.27 150.39,23.36 150.3,23.81 L143.28,50.9 C141.84,56.48 140.13,63.59 139.95,64.67 L139.77,64.67 C139.59,63.68 137.88,57.2 136.08,51.44 L128.07,24.26 C127.89,23.72 127.71,23.63 127.17,23.63 L123.93,23.63 C123.48,23.63 123.21,23.81 123.03,24.26 L115.11,50.9 C113.4,56.66 111.42,63.5 111.24,64.67 L110.97,64.67 C110.88,63.59 109.26,57.11 107.82,51.44 L100.8,23.9 C100.62,23.45 100.44,23.27 99.99,23.27 L97.56,23.45 C97.11,23.54 96.93,23.9 97.02,24.35 L108.36,67.28 Z M163.62,67.37 C163.62,67.82 163.8,68 164.34,68 L166.77,68 C167.22,68 167.4,67.82 167.4,67.37 L167.4,27.86 C169.83,26.87 174.51,25.79 179.46,25.79 C186.39,25.79 190.53,27.77 190.53,36.23 L190.53,67.37 C190.53,67.82 190.8,68 191.25,68 L193.68,68 C194.13,68 194.31,67.82 194.31,67.37 L194.31,36.14 C194.31,25.07 188.1,22.64 179.55,22.64 C172.89,22.64 167.4,24.08 164.34,25.34 C163.89,25.52 163.62,25.79 163.62,26.33 L163.62,67.37 Z M208.71,57.02 C208.71,67.46 214.11,68.54 218.7,68.54 C220.05,68.54 221.13,68.45 221.76,68.36 C222.21,68.27 222.48,68 222.48,67.55 L222.75,65.75 C222.75,65.21 222.57,65.03 222.12,65.03 C221.49,65.12 220.5,65.21 219.51,65.21 C215.82,65.21 212.49,64.67 212.49,56.75 L212.49,3.38 C212.49,2.93 212.22,2.75 211.68,2.75 L209.34,3.02 C208.89,3.11 208.71,3.38 208.71,3.83 L208.71,57.02 Z M230.22,55.4 L230.22,36.05 C230.22,24.8 237.15,22.37 246.06,22.37 L246.78,22.37 C255.6,22.37 262.26,24.8 262.26,36.05 L262.26,55.4 C262.26,66.56 255.33,69.08 246.42,69.08 L245.7,69.08 C236.88,69.08 230.22,66.56 230.22,55.4 Z M245.7,65.75 L246.42,65.75 C253.53,65.75 258.57,63.68 258.57,55.13 L258.57,36.05 C258.57,27.5 253.8,25.52 246.78,25.52 L246.06,25.52 C238.95,25.52 233.91,27.59 233.91,36.05 L233.91,55.13 C233.91,63.68 238.59,65.75 245.7,65.75 Z M273.87,56.3 L273.87,54.32 C273.87,43.88 280.44,42.17 291.51,41.54 C296.64,41.27 301.23,41.27 301.23,41.27 L301.23,36.32 C301.23,27.68 296.64,25.79 289.8,25.79 C285.84,25.79 281.61,26.42 279.09,27.05 C278.46,27.23 278.37,26.87 278.46,26.51 L278.64,24.71 C278.73,24.17 278.82,23.99 279.36,23.81 C281.25,23.36 285.21,22.64 289.98,22.64 C298.26,22.64 304.92,25.07 304.92,36.32 L304.92,65.03 C304.92,65.66 304.65,65.84 304.2,66.02 C301.23,67.37 295.65,68.81 289.08,68.81 C281.07,68.81 273.87,67.19 273.87,56.3 Z M277.56,54.5 L277.56,56.3 C277.56,64.13 282.42,65.66 289.08,65.66 C294.03,65.66 298.8,64.67 301.23,63.68 L301.23,44.33 C301.23,44.33 296.28,44.33 291.6,44.6 C281.16,45.23 277.56,46.85 277.56,54.5 Z M318.78,55.4 L318.78,36.05 C318.78,24.8 325.44,22.37 334.08,22.37 L334.62,22.37 C341.46,22.37 345.15,23.99 347.31,27.23 C347.31,27.23 347.13,24.62 347.13,21.2 L347.13,3.47 C347.13,2.84 347.4,2.75 347.85,2.75 L350.19,3.02 C350.73,3.11 350.82,3.29 350.82,3.92 L350.82,55.76 C350.82,66.83 343.89,69.08 334.98,69.08 L334.26,69.08 C325.53,69.08 318.78,66.47 318.78,55.4 Z M334.26,65.75 L334.98,65.75 C342.09,65.75 347.13,63.95 347.13,55.31 L347.13,36.05 C347.13,28.04 342.36,25.52 335.25,25.52 L334.62,25.52 C327.24,25.52 322.47,27.59 322.47,36.05 L322.47,55.22 C322.47,63.77 327.51,65.75 334.26,65.75 Z M363.69,66.2 C363.78,66.92 364.05,67.1 364.5,67.19 C366.39,67.91 371.88,68.81 377.37,68.81 L378.09,68.81 C386.19,68.81 392.31,67.1 392.31,57.29 L392.31,55.13 C392.31,47.21 388.8,44.78 380.16,43.16 L376.47,42.44 C370.17,41.18 367.38,39.38 367.38,34.61 L367.38,33.08 C367.38,27.23 371.7,25.79 377.46,25.79 L377.91,25.79 C381.78,25.79 386.64,26.51 388.62,27.14 C389.16,27.23 389.34,26.96 389.34,26.51 L389.07,24.62 C389.07,24.26 388.8,23.99 388.26,23.9 C385.74,23.18 380.97,22.64 377.55,22.64 L377.19,22.64 C370.44,22.64 363.69,24.35 363.69,33.17 L363.69,34.79 C363.69,42.08 367.92,44.33 375.57,45.86 L379.17,46.49 C386.28,47.84 388.62,49.64 388.62,55.4 L388.62,57.2 C388.62,64.13 384.57,65.48 378.09,65.48 L377.37,65.48 C371.79,65.48 366.75,64.58 364.14,63.77 C363.69,63.59 363.33,63.77 363.42,64.4 L363.69,66.2 Z" id="Downloads-Copy"></path>
            </g>
        </g>
    </g>
</svg>