<?xml version="1.0" encoding="utf-8"?>
<!-- Generator: Adobe Illustrator 19.1.0, SVG Export Plug-In . SVG Version: 6.00 Build 0)  -->
<svg version="1.1" id="Layer_1" xmlns="http://www.w3.org/2000/svg" xmlns:xlink="http://www.w3.org/1999/xlink" x="0px" y="0px"
	 width="257px" height="45px" viewBox="-177 374 257 45" style="enable-background:new -177 374 257 45;" xml:space="preserve">
<style type="text/css">
	.st0{enable-background:new    ;}
	.st1{fill:#2C2E50;}
</style>
<title>Downloads</title>
<desc>Created with Sketch.</desc>
<g id="All-page">
	<g id="Downloads_PageOnLoad" transform="translate(-145.000000, -160.000000)">
		<g class="st0">
			<path class="st1" d="M-31.2,577.8c-0.3,0-0.5-0.1-0.5-0.4v-41c0-0.3,0.2-0.4,0.5-0.4h10.6c8,0,11.7,2.9,11.7,10.6v20.6
				c0,7.6-4.2,10.6-12.2,10.6L-31.2,577.8L-31.2,577.8z M-11.5,546.6c0-6.1-2.6-8.5-9.2-8.5h-8.5v37.4h8c6.6,0,9.7-2.3,9.7-8.4
				C-11.5,567.1-11.5,546.6-11.5,546.6z"/>
			<path class="st1" d="M0.4,556.6c0-7.5,4.6-9.1,10.6-9.1h0.5c5.9,0,10.3,1.6,10.3,9.1v12.9c0,7.4-4.6,9.1-10.6,9.1h-0.5
				c-5.9,0-10.3-1.7-10.3-9.1C0.4,569.5,0.4,556.6,0.4,556.6z M11.2,576.3c4.7,0,8.1-1.4,8.1-7.1v-12.7c0-5.7-3.2-7-7.9-7h-0.5
				c-4.7,0-8.1,1.4-8.1,7v12.7c0,5.7,3.1,7.1,7.9,7.1H11.2z"/>
			<path class="st1" d="M27.8,548.8c-0.1-0.3,0.1-0.5,0.4-0.6l1.6-0.1c0.3,0,0.4,0.1,0.5,0.4l4.7,18.4c1,3.8,2,8.1,2.1,8.8h0.2
				c0.1-0.8,1.4-5.3,2.6-9.2l5.3-17.8c0.1-0.3,0.3-0.4,0.6-0.4H48c0.4,0,0.5,0.1,0.6,0.4l5.3,18.1c1.2,3.8,2.3,8.2,2.5,8.8h0.1
				c0.1-0.7,1.3-5.5,2.2-9.2l4.7-18.1c0.1-0.3,0.2-0.4,0.5-0.4l1.6,0.1c0.3,0.1,0.4,0.2,0.4,0.5l-7.8,29c-0.1,0.3-0.2,0.4-0.5,0.4
				h-2.5c-0.3,0-0.5-0.1-0.5-0.4l-6-20.3c-0.7-2.3-1.4-4.9-1.7-6.4h-0.2c-0.3,1.5-1.1,4.3-1.7,6.2l-6.2,20.5
				c-0.1,0.4-0.2,0.5-0.6,0.5h-2.3c-0.4,0-0.5-0.1-0.6-0.5L27.8,548.8z"/>
			<path class="st1" d="M72.2,550.1c0-0.4,0.2-0.5,0.5-0.7c2-0.8,5.7-1.8,10.1-1.8c5.7,0,9.8,1.6,9.8,9v20.8c0,0.3-0.1,0.4-0.4,0.4
				h-1.6c-0.3,0-0.5-0.1-0.5-0.4v-20.8c0-5.6-2.8-7-7.4-7c-3.3,0-6.4,0.7-8,1.4v26.3c0,0.3-0.1,0.4-0.4,0.4h-1.6
				c-0.4,0-0.5-0.1-0.5-0.4V550.1z"/>
			<path class="st1" d="M102.2,535.1c0-0.3,0.1-0.5,0.4-0.5l1.6-0.2c0.4,0,0.5,0.1,0.5,0.4v35.6c0,5.3,2.2,5.6,4.7,5.6
				c0.7,0,1.3-0.1,1.7-0.1c0.3,0,0.4,0.1,0.4,0.5l-0.2,1.2c0,0.3-0.2,0.5-0.5,0.5c-0.4,0.1-1.1,0.1-2,0.1c-3.1,0-6.7-0.7-6.7-7.7
				L102.2,535.1L102.2,535.1z"/>
			<path class="st1" d="M116.6,556.6c0-7.5,4.6-9.1,10.6-9.1h0.5c5.9,0,10.3,1.6,10.3,9.1v12.9c0,7.4-4.6,9.1-10.6,9.1h-0.5
				c-5.9,0-10.3-1.7-10.3-9.1C116.6,569.5,116.6,556.6,116.6,556.6z M127.4,576.3c4.7,0,8.1-1.4,8.1-7.1v-12.7c0-5.7-3.2-7-7.9-7
				h-0.5c-4.7,0-8.1,1.4-8.1,7v12.7c0,5.7,3.1,7.1,7.9,7.1H127.4z"/>
			<path class="st1" d="M145.7,568.8c0-7,4.4-8.1,11.8-8.5c3.4-0.2,6.5-0.2,6.5-0.2v-3.3c0-5.8-3.1-7-7.6-7c-2.6,0-5.5,0.4-7.1,0.8
				c-0.4,0.1-0.5-0.1-0.4-0.4l0.1-1.2c0.1-0.4,0.1-0.5,0.5-0.6c1.3-0.3,3.9-0.8,7.1-0.8c5.5,0,10,1.6,10,9.1v19.2
				c0,0.4-0.2,0.5-0.5,0.7c-2,0.9-5.7,1.9-10.1,1.9c-5.3,0-10.1-1.1-10.1-8.3v-1.4H145.7z M148.1,570.1c0,5.2,3.2,6.2,7.7,6.2
				c3.3,0,6.5-0.7,8.1-1.3v-12.9c0,0-3.3,0-6.4,0.2c-7,0.4-9.4,1.5-9.4,6.6L148.1,570.1L148.1,570.1z"/>
			<path class="st1" d="M175.6,556.6c0-7.5,4.4-9.1,10.2-9.1h0.4c4.6,0,7,1.1,8.5,3.2c0,0-0.1-1.7-0.1-4v-11.8
				c0-0.4,0.2-0.5,0.5-0.5l1.6,0.2c0.4,0.1,0.4,0.2,0.4,0.6v34.6c0,7.4-4.6,8.9-10.6,8.9H186c-5.8,0-10.3-1.7-10.3-9.1L175.6,556.6
				L175.6,556.6z M186.4,576.3c4.7,0,8.1-1.2,8.1-7v-12.8c0-5.3-3.2-7-7.9-7h-0.4c-4.9,0-8.1,1.4-8.1,7v12.8c0,5.7,3.4,7,7.9,7
				H186.4z"/>
			<path class="st1" d="M205.4,575.4c-0.1-0.4,0.2-0.5,0.5-0.4c1.7,0.5,5.1,1.1,8.8,1.1h0.5c4.3,0,7-0.9,7-5.5v-1.2
				c0-3.8-1.6-5-6.3-5.9l-2.4-0.4c-5.1-1-7.9-2.5-7.9-7.4v-1.1c0-5.9,4.5-7,9-7h0.2c2.3,0,5.5,0.4,7.1,0.8c0.4,0.1,0.5,0.2,0.5,0.5
				l0.2,1.3c0,0.3-0.1,0.5-0.5,0.4c-1.3-0.4-4.6-0.9-7.1-0.9h-0.3c-3.8,0-6.7,1-6.7,4.9v1c0,3.2,1.9,4.4,6.1,5.2l2.5,0.5
				c5.8,1.1,8.1,2.7,8.1,8v1.4c0,6.5-4.1,7.7-9.5,7.7h-0.5c-3.7,0-7.3-0.6-8.6-1.1c-0.3-0.1-0.5-0.2-0.5-0.7L205.4,575.4z"/>
		</g>
	</g>
</g>
</svg>
