<?xml version="1.0" encoding="utf-8"?>
<!-- Generator: Adobe Illustrator 19.1.0, SVG Export Plug-In . SVG Version: 6.00 Build 0)  -->
<svg version="1.1" id="Layer_1" xmlns="http://www.w3.org/2000/svg" xmlns:xlink="http://www.w3.org/1999/xlink" x="0px" y="0px"
	 width="12.3px" height="7.8px" viewBox="-194.3 203 12.3 7.8" style="enable-background:new -194.3 203 12.3 7.8;"
	 xml:space="preserve">
<style type="text/css">
	.st0{fill:white;}
</style>
<path class="st0" d="M-182,204.6c0-0.2-0.2-0.5-0.5-0.8l-0.3-0.3c-0.3-0.3-0.6-0.5-0.8-0.5c-0.2,0-0.4,0-0.6,0.2l-3.9,3.9l-3.9-3.9
	c-0.2-0.2-0.4-0.3-0.6-0.2c-0.2,0-0.5,0.2-0.8,0.5l-0.3,0.3c-0.3,0.3-0.5,0.6-0.5,0.8s0,0.4,0.2,0.6l4.7,4.7c0,0,0.1,0.1,0.1,0.1
	l0.3,0.3c0,0,0.1,0.1,0.1,0.1l0.2,0.2c0.1,0.1,0.3,0.2,0.5,0.2c0,0,0,0,0,0c0,0,0,0,0.1,0c0,0,0,0,0.1,0c0,0,0,0,0,0
	c0.2,0,0.3-0.1,0.5-0.2l0.2-0.2c0,0,0.1-0.1,0.1-0.1l0.3-0.3c0,0,0.1-0.1,0.1-0.1l4.7-4.7C-182.1,205.1-182,204.8-182,204.6z"/>
</svg>
