<svg width="386" height="68" xmlns="http://www.w3.org/2000/svg"><path d="M16.58 66H1.55c-.45 0-.72-.18-.72-.63V3.9c0-.45.27-.63.72-.63h15.84c12.06 0 17.55 4.32 17.55 15.93v30.87C34.94 61.5 28.64 66 16.58 66zm14.58-16.02V19.11c0-9.18-3.87-12.69-13.77-12.69H4.61v56.16h11.97c9.9 0 14.58-3.51 14.58-12.6zm17.73 3.42V34.05c0-11.25 6.93-13.68 15.84-13.68h.72c8.82 0 15.48 2.43 15.48 13.68V53.4c0 11.16-6.93 13.68-15.84 13.68h-.72c-8.82 0-15.48-2.52-15.48-13.68zm15.48 10.35h.72c7.11 0 12.15-2.07 12.15-10.62V34.05c0-8.55-4.77-10.53-11.79-10.53h-.72c-7.11 0-12.15 2.07-12.15 10.53v19.08c0 8.55 4.68 10.62 11.79 10.62zm36.99 1.53c.09.54.36.72.9.72h3.42c.54 0 .72-.18.9-.72l9.27-30.69c.9-2.97 2.07-7.11 2.52-9.36h.27c.54 2.25 1.62 6.21 2.61 9.63l9 30.51c.09.45.36.63.81.63h3.6c.45 0 .72-.18.81-.63l11.43-43.11c.09-.45-.09-.72-.54-.81l-2.34-.18c-.36 0-.63.09-.72.54l-7.02 27.09c-1.44 5.58-3.15 12.69-3.33 13.77h-.18c-.18-.99-1.89-7.47-3.69-13.23l-8.01-27.18c-.18-.54-.36-.63-.9-.63h-3.24c-.45 0-.72.18-.9.63l-7.92 26.64c-1.71 5.76-3.69 12.6-3.87 13.77h-.27c-.09-1.08-1.71-7.56-3.15-13.23L93.8 21.9c-.18-.45-.36-.63-.81-.63l-2.43.18c-.45.09-.63.45-.54.9l11.34 42.93zm55.26.09c0 .45.18.63.72.63h2.43c.45 0 .63-.18.63-.63V25.86c2.43-.99 7.11-2.07 12.06-2.07 6.93 0 11.07 1.98 11.07 10.44v31.14c0 .45.27.63.72.63h2.43c.45 0 .63-.18.63-.63V34.14c0-11.07-6.21-13.5-14.76-13.5-6.66 0-12.15 1.44-15.21 2.7-.45.18-.72.45-.72.99v41.04zm45.09-10.35c0 10.44 5.4 11.52 9.99 11.52 1.35 0 2.43-.09 3.06-.18.45-.09.72-.36.72-.81l.27-1.8c0-.54-.18-.72-.63-.72-.63.09-1.62.18-2.61.18-3.69 0-7.02-.54-7.02-8.46V1.38c0-.45-.27-.63-.81-.63l-2.34.27c-.45.09-.63.36-.63.81v53.19zm21.51-1.62V34.05c0-11.25 6.93-13.68 15.84-13.68h.72c8.82 0 15.48 2.43 15.48 13.68V53.4c0 11.16-6.93 13.68-15.84 13.68h-.72c-8.82 0-15.48-2.52-15.48-13.68zm15.48 10.35h.72c7.11 0 12.15-2.07 12.15-10.62V34.05c0-8.55-4.77-10.53-11.79-10.53h-.72c-7.11 0-12.15 2.07-12.15 10.53v19.08c0 8.55 4.68 10.62 11.79 10.62zm28.17-9.45v-1.98c0-10.44 6.57-12.15 17.64-12.78 5.13-.27 9.72-.27 9.72-.27v-4.95c0-8.64-4.59-10.53-11.43-10.53-3.96 0-8.19.63-10.71 1.26-.63.18-.72-.18-.63-.54l.18-1.8c.09-.54.18-.72.72-.9 1.89-.45 5.85-1.17 10.62-1.17 8.28 0 14.94 2.43 14.94 13.68v28.71c0 .63-.27.81-.72.99-2.97 1.35-8.55 2.79-15.12 2.79-8.01 0-15.21-1.62-15.21-12.51zm3.69-1.8v1.8c0 7.83 4.86 9.36 11.52 9.36 4.95 0 9.72-.99 12.15-1.98V42.33s-4.95 0-9.63.27c-10.44.63-14.04 2.25-14.04 9.9zm41.22.9V34.05c0-11.25 6.66-13.68 15.3-13.68h.54c6.84 0 10.53 1.62 12.69 4.86 0 0-.18-2.61-.18-6.03V1.47c0-.63.27-.72.72-.72l2.34.27c.54.09.63.27.63.9v51.84c0 11.07-6.93 13.32-15.84 13.32h-.72c-8.73 0-15.48-2.61-15.48-13.68zm15.48 10.35h.72c7.11 0 12.15-1.8 12.15-10.44V34.05c0-8.01-4.77-10.53-11.88-10.53h-.63c-7.38 0-12.15 2.07-12.15 10.53v19.17c0 8.55 5.04 10.53 11.79 10.53zm29.43.45c.09.72.36.9.81.99 1.89.72 7.38 1.62 12.87 1.62h.72c8.1 0 14.22-1.71 14.22-11.52v-2.16c0-7.92-3.51-10.35-12.15-11.97l-3.69-.72c-6.3-1.26-9.09-3.06-9.09-7.83v-1.53c0-5.85 4.32-7.29 10.08-7.29h.45c3.87 0 8.73.72 10.71 1.35.54.09.72-.18.72-.63l-.27-1.89c0-.36-.27-.63-.81-.72-2.52-.72-7.29-1.26-10.71-1.26h-.36c-6.75 0-13.5 1.71-13.5 10.53v1.62c0 7.29 4.23 9.54 11.88 11.07l3.6.63c7.11 1.35 9.45 3.15 9.45 8.91v1.8c0 6.93-4.05 8.28-10.53 8.28h-.72c-5.58 0-10.62-.9-13.23-1.71-.45-.18-.81 0-.72.63l.27 1.8z" fill="#FFF" fill-rule="evenodd"/></svg>