<svg width="12" height="17" xmlns="http://www.w3.org/2000/svg" xmlns:xlink="http://www.w3.org/1999/xlink"><defs><path id="a" d="M.39.92h11.595v15.345H.39z"/></defs><g fill="none" fill-rule="evenodd"><mask id="b" fill="#fff"><use xlink:href="#a"/></mask><path d="M6.063 16.265l.863-.806 4.574-4.121c.61-.56.65-1.51.089-2.12a1.5 1.5 0 0 0-2.12-.09l-.034.033-.017.016-1.855 1.613V2.42a1.5 1.5 0 0 0-3 0v8.3L2.919 9.15l-.004-.002-.061-.06-.012.013a1.492 1.492 0 0 0-2.043.097 1.488 1.488 0 0 0-.011 2.037l-.014.015" fill="#3F465A" mask="url(#b)"/></g></svg>