<svg id="Layer_1" xmlns="http://www.w3.org/2000/svg" width="257" height="45" viewBox="-177 374 257 45"><style>.st1{fill:#2c2e50}</style><g id="All-page"><g id="Downloads_PageOnLoad"><path class="st1" d="M-31.2 577.8c-.3 0-.5-.1-.5-.4v-41c0-.3.2-.4.5-.4h10.6c8 0 11.7 2.9 11.7 10.6v20.6c0 7.6-4.2 10.6-12.2 10.6h-10.1zm19.7-31.2c0-6.1-2.6-8.5-9.2-8.5h-8.5v37.4h8c6.6 0 9.7-2.3 9.7-8.4v-20.5zM.4 556.6c0-7.5 4.6-9.1 10.6-9.1h.5c5.9 0 10.3 1.6 10.3 9.1v12.9c0 7.4-4.6 9.1-10.6 9.1h-.5c-5.9 0-10.3-1.7-10.3-9.1v-12.9zm10.8 19.7c4.7 0 8.1-1.4 8.1-7.1v-12.7c0-5.7-3.2-7-7.9-7h-.5c-4.7 0-8.1 1.4-8.1 7v12.7c0 5.7 3.1 7.1 7.9 7.1h.5zM27.8 548.8c-.1-.3.1-.5.4-.6l1.6-.1c.3 0 .4.1.5.4l4.7 18.4c1 3.8 2 8.1 2.1 8.8h.2c.1-.8 1.4-5.3 2.6-9.2l5.3-17.8c.1-.3.3-.4.6-.4H48c.4 0 .5.1.6.4l5.3 18.1c1.2 3.8 2.3 8.2 2.5 8.8h.1c.1-.7 1.3-5.5 2.2-9.2l4.7-18.1c.1-.3.2-.4.5-.4l1.6.1c.3.1.4.2.4.5l-7.8 29c-.1.3-.2.4-.5.4h-2.5c-.3 0-.5-.1-.5-.4l-6-20.3c-.7-2.3-1.4-4.9-1.7-6.4h-.2c-.3 1.5-1.1 4.3-1.7 6.2l-6.2 20.5c-.1.4-.2.5-.6.5h-2.3c-.4 0-.5-.1-.6-.5l-7.5-28.7zM72.2 550.1c0-.4.2-.5.5-.7 2-.8 5.7-1.8 10.1-1.8 5.7 0 9.8 1.6 9.8 9v20.8c0 .3-.1.4-.4.4h-1.6c-.3 0-.5-.1-.5-.4v-20.8c0-5.6-2.8-7-7.4-7-3.3 0-6.4.7-8 1.4v26.3c0 .3-.1.4-.4.4h-1.6c-.4 0-.5-.1-.5-.4v-27.2zM102.2 535.1c0-.3.1-.5.4-.5l1.6-.2c.4 0 .5.1.5.4v35.6c0 5.3 2.2 5.6 4.7 5.6.7 0 1.3-.1 1.7-.1.3 0 .4.1.4.5l-.2 1.2c0 .3-.2.5-.5.5-.4.1-1.1.1-2 .1-3.1 0-6.7-.7-6.7-7.7l.1-35.4zM116.6 556.6c0-7.5 4.6-9.1 10.6-9.1h.5c5.9 0 10.3 1.6 10.3 9.1v12.9c0 7.4-4.6 9.1-10.6 9.1h-.5c-5.9 0-10.3-1.7-10.3-9.1v-12.9zm10.8 19.7c4.7 0 8.1-1.4 8.1-7.1v-12.7c0-5.7-3.2-7-7.9-7h-.5c-4.7 0-8.1 1.4-8.1 7v12.7c0 5.7 3.1 7.1 7.9 7.1h.5zM145.7 568.8c0-7 4.4-8.1 11.8-8.5 3.4-.2 6.5-.2 6.5-.2v-3.3c0-5.8-3.1-7-7.6-7-2.6 0-5.5.4-7.1.8-.4.1-.5-.1-.4-.4l.1-1.2c.1-.4.1-.5.5-.6 1.3-.3 3.9-.8 7.1-.8 5.5 0 10 1.6 10 9.1v19.2c0 .4-.2.5-.5.7-2 .9-5.7 1.9-10.1 1.9-5.3 0-10.1-1.1-10.1-8.3v-1.4h-.2zm2.4 1.3c0 5.2 3.2 6.2 7.7 6.2 3.3 0 6.5-.7 8.1-1.3v-12.9s-3.3 0-6.4.2c-7 .4-9.4 1.5-9.4 6.6v1.2zM175.6 556.6c0-7.5 4.4-9.1 10.2-9.1h.4c4.6 0 7 1.1 8.5 3.2 0 0-.1-1.7-.1-4v-11.8c0-.4.2-.5.5-.5l1.6.2c.4.1.4.2.4.6v34.6c0 7.4-4.6 8.9-10.6 8.9h-.5c-5.8 0-10.3-1.7-10.3-9.1l-.1-13zm10.8 19.7c4.7 0 8.1-1.2 8.1-7v-12.8c0-5.3-3.2-7-7.9-7h-.4c-4.9 0-8.1 1.4-8.1 7v12.8c0 5.7 3.4 7 7.9 7h.4zM205.4 575.4c-.1-.4.2-.5.5-.4 1.7.5 5.1 1.1 8.8 1.1h.5c4.3 0 7-.9 7-5.5v-1.2c0-3.8-1.6-5-6.3-5.9l-2.4-.4c-5.1-1-7.9-2.5-7.9-7.4v-1.1c0-5.9 4.5-7 9-7h.2c2.3 0 5.5.4 7.1.8.4.1.5.2.5.5l.2 1.3c0 .3-.1.5-.5.4-1.3-.4-4.6-.9-7.1-.9h-.3c-3.8 0-6.7 1-6.7 4.9v1c0 3.2 1.9 4.4 6.1 5.2l2.5.5c5.8 1.1 8.1 2.7 8.1 8v1.4c0 6.5-4.1 7.7-9.5 7.7h-.5c-3.7 0-7.3-.6-8.6-1.1-.3-.1-.5-.2-.5-.7l-.2-1.2z" transform="translate(-145 -160)"/></g></g></svg>