<?xml version="1.0" encoding="UTF-8"?>
<svg width="45px" height="45px" viewBox="0 0 45 45" version="1.1" xmlns="http://www.w3.org/2000/svg" xmlns:xlink="http://www.w3.org/1999/xlink">
    <!-- Generator: Sketch 50.2 (55047) - http://www.bohemiancoding.com/sketch -->
    <title>Group 6</title>
    <desc>Created with Sketch.</desc>
    <defs></defs>
    <g id="V2_Navigation" stroke="none" stroke-width="1" fill="none" fill-rule="evenodd">
        <g id="Final_tablet_Footer--SuggestedHoverState" transform="translate(-594.000000, -63.000000)">
            <g id="Group-6" transform="translate(595.000000, 64.000000)">
                <circle id="Oval-6" stroke="#5E6B8D" fill="#5D6A8E" cx="21.5" cy="21.5" r="21.5"></circle>
                <g id="so-icon" transform="translate(11.000000, 7.000000)" fill="#F7F8F8" fill-rule="nonzero">
                    <polygon id="Shape" points="18.6733813 24.7572816 18.6733813 18 21 18 21 27 0 27 0 18 2.32661871 18 2.32661871 24.7572816"></polygon>
                    <path d="M6.23570191,15.8016878 L17.372617,18.1350211 L17.8440208,15.8902954 L6.70710572,13.556962 L6.23570191,15.8016878 Z M7.70883882,10.4852321 L18.0207972,15.2995781 L18.9636049,13.2320675 L8.65164645,8.38818565 L7.70883882,10.4852321 Z M10.5667244,5.40506329 L19.3171577,12.7004219 L20.7608319,10.9578059 L12.0103986,3.66244726 L10.5667244,5.40506329 Z M16.2235702,1.04932472e-15 L14.3968804,1.35864979 L21.1733102,10.5147679 L23,9.15611814 L16.2235702,1.04932472e-15 Z M6,21 L17.372617,21 L17.372617,18.7257384 L6,18.7257384 L6,21 Z" id="Shape"></path>
                </g>
            </g>
        </g>
    </g>
</svg>