<svg width="45" height="45" xmlns="http://www.w3.org/2000/svg"><g transform="translate(1 1)" fill="none" fill-rule="evenodd"><circle stroke="#5E6B8D" fill="#5D6A8E" cx="21.5" cy="21.5" r="21.5"/><g fill="#F7F8F8" fill-rule="nonzero"><path d="M29.673 31.757V25H32v9H11v-9h2.327v6.757z"/><path d="M17.236 22.802l11.137 2.333.471-2.245-11.137-2.333-.471 2.245zm1.473-5.317L29.02 22.3l.943-2.068-10.312-4.844-.943 2.097zm2.858-5.08l8.75 7.295 1.444-1.742-8.75-7.296-1.444 1.743zM27.224 7l-1.827 1.359 6.776 9.156L34 16.156 27.224 7zM17 28h11.373v-2.274H17V28z"/></g></g></svg>