<?xml version="1.0" encoding="utf-8"?>
<!-- Generator: Adobe Illustrator 19.1.0, SVG Export Plug-In . SVG Version: 6.00 Build 0)  -->
<svg version="1.1" id="Layer_1" xmlns="http://www.w3.org/2000/svg" xmlns:xlink="http://www.w3.org/1999/xlink" x="0px" y="0px"
	 width="24px" height="23px" viewBox="-467 269 24 23" style="enable-background:new -467 269 24 23;" xml:space="preserve">
<style type="text/css">
	.st0{fill:#FFFFFF;}
</style>
<path class="st0" d="M-455,269.2c-6.4,0-11.6,5.2-11.6,11.6c0,5.1,3.3,9.5,8,11c0.6,0.1,0.8-0.3,0.8-0.6c0-0.3,0-1,0-2
	c-3.2,0.7-3.9-1.6-3.9-1.6c-0.6-1.2-1.4-1.6-1.4-1.6c-1.1-0.7,0.1-0.7,0.1-0.7c1.2,0.1,1.8,1.2,1.8,1.2c1,1.8,2.7,1.3,3.4,1
	c0.1-0.8,0.4-1.3,0.7-1.6c-2.6-0.3-5.3-1.3-5.3-5.8c0-1.3,0.5-2.3,1.2-3.1c-0.1-0.2-0.5-1.4,0.1-3c0,0,1-0.3,3.2,1.2
	c0.9-0.3,1.9-0.4,2.9-0.4s2,0.1,2.9,0.4c2.2-1.5,3.2-1.2,3.2-1.2c0.6,1.6,0.2,2.8,0.1,3.1c0.7,0.8,1.2,1.9,1.2,3.1
	c0,4.5-2.7,5.5-5.3,5.7c0.4,0.4,0.8,1.1,0.8,2.2c0,1.6,0,2.8,0,3.2c0,0.3,0.2,0.7,0.8,0.6c4.6-1.5,8-5.9,8-11
	C-443.4,274.4-448.6,269.2-455,269.2z"/>
</svg>
