<svg id="Layer_1" xmlns="http://www.w3.org/2000/svg" width="24" height="23" viewBox="-467 269 24 23"><style>.st0{fill:#fff}</style><path class="st0" d="M-455 269.2c-6.4 0-11.6 5.2-11.6 11.6 0 5.1 3.3 9.5 8 11 .6.1.8-.3.8-.6v-2c-3.2.7-3.9-1.6-3.9-1.6-.6-1.2-1.4-1.6-1.4-1.6-1.1-.7.1-.7.1-.7 1.2.1 1.8 1.2 1.8 1.2 1 1.8 2.7 1.3 3.4 1 .1-.8.4-1.3.7-1.6-2.6-.3-5.3-1.3-5.3-5.8 0-1.3.5-2.3 1.2-3.1-.1-.2-.5-1.4.1-3 0 0 1-.3 3.2 1.2.9-.3 1.9-.4 2.9-.4s2 .1 2.9.4c2.2-1.5 3.2-1.2 3.2-1.2.6 1.6.2 2.8.1 3.1.7.8 1.2 1.9 1.2 3.1 0 4.5-2.7 5.5-5.3 5.7.4.4.8 1.1.8 2.2v3.2c0 .3.2.7.8.6 4.6-1.5 8-5.9 8-11-.1-6.5-5.3-11.7-11.7-11.7z"/></svg>