<?xml version="1.0" encoding="utf-8"?>
<!-- Generator: Adobe Illustrator 19.1.0, SVG Export Plug-In . SVG Version: 6.00 Build 0)  -->
<svg version="1.1" id="Layer_1" xmlns="http://www.w3.org/2000/svg" xmlns:xlink="http://www.w3.org/1999/xlink" x="0px" y="0px"
	 width="24px" height="23px" viewBox="0 0 24 23" style="enable-background:new 0 0 24 23;" xml:space="preserve">
<style type="text/css">
	.st0{fill-rule:evenodd;clip-rule:evenodd;fill:#C9D3D2;}
	.st1{fill-rule:evenodd;clip-rule:evenodd;fill:#191717;}
	.st2{fill:#191717;}
	.st3{fill:none;stroke:#1981BC;stroke-linecap:round;stroke-miterlimit:10;}
	.st4{fill:none;stroke:#1981BC;stroke-linecap:round;stroke-miterlimit:10;stroke-dasharray:0.9999,1.9999;}
	.st5{fill:#0072BC;}
	.st6{fill-rule:evenodd;clip-rule:evenodd;fill:#FFFFFF;}
	.st7{fill:#FFFFFF;}
</style>
<path class="st0" d="M12,0.2C5.6,0.2,0.4,5.4,0.4,11.8c0,5.1,3.3,9.5,8,11c0.6,0.1,0.8-0.3,0.8-0.6c0-0.3,0-1,0-2
	c-3.2,0.7-3.9-1.6-3.9-1.6C4.7,17.4,3.9,17,3.9,17C2.8,16.3,4,16.3,4,16.3c1.2,0.1,1.8,1.2,1.8,1.2c1,1.8,2.7,1.3,3.4,1
	c0.1-0.8,0.4-1.3,0.7-1.6c-2.6-0.3-5.3-1.3-5.3-5.8c0-1.3,0.5-2.3,1.2-3.1C5.7,7.8,5.3,6.6,5.9,5c0,0,1-0.3,3.2,1.2
	C10,5.9,11,5.8,12,5.8c1,0,2,0.1,2.9,0.4C17.1,4.7,18.1,5,18.1,5c0.6,1.6,0.2,2.8,0.1,3.1c0.7,0.8,1.2,1.9,1.2,3.1
	c0,4.5-2.7,5.5-5.3,5.7c0.4,0.4,0.8,1.1,0.8,2.2c0,1.6,0,2.8,0,3.2c0,0.3,0.2,0.7,0.8,0.6c4.6-1.5,8-5.9,8-11
	C23.6,5.4,18.4,0.2,12,0.2z"/>
</svg>
