<?xml version="1.0" encoding="UTF-8"?>
<svg width="15px" height="15px" viewBox="0 0 15 15" version="1.1" xmlns="http://www.w3.org/2000/svg" xmlns:xlink="http://www.w3.org/1999/xlink">
    <!-- Generator: Sketch 48.1 (47250) - http://www.bohemiancoding.com/sketch -->
    <title>magnify</title>
    <desc>Created with Sketch.</desc>
    <defs></defs>
    <g id="GuidesHome_v1_Simplest" stroke="none" stroke-width="1" fill="none" fill-rule="evenodd" transform="translate(-645.000000, -220.000000)">
        <g id="magnify" transform="translate(645.000000, 220.000000)" fill="#5D6A8E" fill-rule="nonzero">
            <path d="M5.45454545,0 C2.44227273,0 0,2.44227273 0,5.45454545 C0,8.46613636 2.44227273,10.9090909 5.45454545,10.9090909 C8.46681819,10.9090909 10.9090909,8.46613636 10.9090909,5.45454545 C10.9090909,2.44227273 8.46681819,0 5.45454545,0 M5.45454545,1.36363636 C7.71068181,1.36363636 9.54545455,3.19840909 9.54545455,5.45454545 C9.54545455,7.71068181 7.71068181,9.54545455 5.45454545,9.54545455 C3.19840909,9.54545455 1.36363636,7.71068181 1.36363636,5.45454545 C1.36363636,3.19840909 3.19840909,1.36363636 5.45454545,1.36363636" id="Fill-5"></path>
            <polygon id="Fill-7" points="11.5909091 9.54545455 9.54545455 11.5909091 12.9545455 15 15 12.9545455"></polygon>
        </g>
    </g>
</svg>