<?xml version="1.0" encoding="UTF-8"?>
<svg width="12px" height="12px" viewBox="0 0 12 12" version="1.1" xmlns="http://www.w3.org/2000/svg" xmlns:xlink="http://www.w3.org/1999/xlink">
    <!-- Generator: Sketch 44.1 (41455) - http://www.bohemiancoding.com/sketch -->
    <title>clock100</title>
    <desc>Created with Sketch.</desc>
    <defs></defs>
    <g id="Page-1" stroke="none" stroke-width="1" fill="none" fill-rule="evenodd">
        <g id="Blog-Main-v3-Copy-2" transform="translate(-592.000000, -1060.000000)" fill-rule="nonzero" fill="#96BC32">
            <g id="Group-7-Copy" transform="translate(558.000000, 886.000000)">
                <g id="Group-4" transform="translate(34.000000, 174.000000)">
                    <g id="clock100">
                        <path d="M6,0 C2.7,0 0,2.7 0,6 C0,9.3 2.7,12 6,12 C9.3,12 12,9.3 12,6 C12,2.7 9.3,0 6,0 Z M6,10.8 C3.36,10.8 1.2,8.64 1.2,6 C1.2,3.36 3.36,1.2 6,1.2 C8.64,1.2 10.8,3.36 10.8,6 C10.8,8.64 8.64,10.8 6,10.8 Z" id="Shape"></path>
                        <polygon id="Shape" points="6.3 3 5.4 3 5.4 6.6 8.52 8.52 9 7.74 6.3 6.12"></polygon>
                    </g>
                </g>
            </g>
        </g>
    </g>
</svg>