<?xml version="1.0" encoding="UTF-8"?>
<svg width="18px" height="18px" viewBox="0 0 18 18" version="1.1" xmlns="http://www.w3.org/2000/svg" xmlns:xlink="http://www.w3.org/1999/xlink">
    <!-- Generator: Sketch 44.1 (41455) - http://www.bohemiancoding.com/sketch -->
    <title>clock100</title>
    <desc>Created with Sketch.</desc>
    <defs></defs>
    <g id="Page-1" stroke="none" stroke-width="1" fill="none" fill-rule="evenodd">
        <g id="Guides-Single-Page-v3" transform="translate(-414.000000, -347.000000)" fill-rule="nonzero" fill="#96BC32">
            <g id="Group-15" transform="translate(412.000000, 282.000000)">
                <g id="Group-3" transform="translate(2.000000, 64.000000)">
                    <g id="Group">
                        <g id="clock100" transform="translate(0.000000, 1.000000)">
                            <path d="M9,0 C4.05,0 0,4.05 0,9 C0,13.95 4.05,18 9,18 C13.95,18 18,13.95 18,9 C18,4.05 13.95,0 9,0 Z M9,16.2 C5.04,16.2 1.8,12.96 1.8,9 C1.8,5.04 5.04,1.8 9,1.8 C12.96,1.8 16.2,5.04 16.2,9 C16.2,12.96 12.96,16.2 9,16.2 Z" id="Shape"></path>
                            <polygon id="Shape" points="9.45 4.5 8.1 4.5 8.1 9.9 12.78 12.78 13.5 11.61 9.45 9.18"></polygon>
                        </g>
                    </g>
                </g>
            </g>
        </g>
    </g>
</svg>