<?xml version="1.0" encoding="UTF-8"?>
<svg width="29px" height="40px" viewBox="0 0 29 40" version="1.1" xmlns="http://www.w3.org/2000/svg" xmlns:xlink="http://www.w3.org/1999/xlink">
    <!-- Generator: Sketch 44.1 (41455) - http://www.bohemiancoding.com/sketch -->
    <title>Group 6</title>
    <desc>Created with Sketch.</desc>
    <defs></defs>
    <g id="Page-1" stroke="none" stroke-width="1" fill="none" fill-rule="evenodd">
        <g id="Guides-Single-Page-v3" transform="translate(-1214.000000, -959.000000)" fill="#5E6B8D">
            <g id="Group-15" transform="translate(412.000000, 282.000000)">
                <g id="Group-7" transform="translate(2.000000, 657.000000)">
                    <g id="Group-6" transform="translate(800.000000, 20.000000)">
                        <rect id="Rectangle" x="0.90625" y="0.909090909" width="19.03125" height="7.27272727"></rect>
                        <rect id="Rectangle-2" x="0.90625" y="6.36363636" width="7.25" height="24.5454545"></rect>
                        <g id="copy_64" fill-rule="nonzero">
                            <path d="M21.0909091,8 L21.0909091,0 L0,0 L0,32 L7.90909091,32 L7.90909091,40 L29,40 L29,8 L21.0909091,8 Z M7.90909091,30.6666667 L1.31818182,30.6666667 L1.31818182,1.33333333 L19.7727273,1.33333333 L19.7727273,8 L7.90909091,8 L7.90909091,30.6666667 Z M27.6818182,38.6666667 L9.22727273,38.6666667 L9.22727273,9.33333333 L27.6818182,9.33333333 L27.6818182,38.6666667 Z" id="Shape"></path>
                            <rect id="Rectangle-path" x="13.1818182" y="16" width="10.5454545" height="1.33333333"></rect>
                            <rect id="Rectangle-path" x="13.1818182" y="18.6666667" width="10.5454545" height="1.33333333"></rect>
                            <rect id="Rectangle-path" x="13.1818182" y="21.3333333" width="10.5454545" height="1.33333333"></rect>
                            <rect id="Rectangle-path" x="13.1818182" y="24" width="5.27272727" height="1.33333333"></rect>
                        </g>
                    </g>
                </g>
            </g>
        </g>
    </g>
</svg>