<?xml version="1.0" encoding="utf-8"?>
<!-- Generator: Adobe Illustrator 19.1.0, SVG Export Plug-In . SVG Version: 6.00 Build 0)  -->
<svg version="1.1" id="Layer_1" xmlns="http://www.w3.org/2000/svg" xmlns:xlink="http://www.w3.org/1999/xlink" x="0px" y="0px"
	 width="128px" height="38px" viewBox="-241 378 128 38" style="enable-background:new -241 378 128 38;" xml:space="preserve">
<style type="text/css">
	.st0{enable-background:new    ;}
	.st1{fill:#FFFFFF;}
</style>
<title>Guides</title>
<desc>Created with Sketch.</desc>
<g id="Page-1">
	<g id="Guides-Single-Page-v3" transform="translate(-139.000000, -98.000000)">
		<g class="st0">
			<path class="st1" d="M-101,486.5c0-6.4,3.5-8.9,10.2-8.9c4.5,0,7.6,0.8,7.6,0.8c0.4,0.1,0.5,0.2,0.5,0.5l0.1,1.1
				c0,0.2-0.1,0.4-0.4,0.3c0,0-3.4-1-7.6-1h-0.1c-5.6,0-8.1,2-8.1,7v18.1c0,5,2.4,7,7.9,7h0.2c4,0,7.2-1,7.2-1v-14.3h-5.7
				c-0.3,0-0.4-0.1-0.4-0.4v-1.1c0-0.2,0.1-0.3,0.4-0.3h7.3c0.3,0,0.4,0.1,0.4,0.3v16.7c0,0.3-0.1,0.4-0.4,0.5c0,0-3.9,1.4-9,1.4
				c-6.7,0-10.1-2.6-10.1-8.9V486.5z"/>
			<path class="st1" d="M-74.1,488.7c0-0.3,0.1-0.4,0.4-0.5l1.4-0.1c0.3,0,0.4,0.1,0.4,0.3v17.3c0,4.7,2.4,5.8,6.2,5.8
				c2.8,0,5.3-0.6,6.7-1.1v-22c0-0.3,0.1-0.3,0.3-0.3l1.4,0.1c0.2,0.1,0.4,0.2,0.4,0.5v22.7c0,0.4-0.1,0.5-0.4,0.6
				c-1.7,0.7-4.8,1.5-8.5,1.5c-4.8,0-8.2-1.4-8.2-7.5V488.7z"/>
			<path class="st1" d="M-48.8,479.6c0-0.2,0.1-0.3,0.4-0.3h1.6c0.3,0,0.4,0.1,0.4,0.3v3.3c0,0.3-0.1,0.4-0.4,0.4h-1.6
				c-0.3,0-0.4-0.1-0.4-0.4V479.6z M-48.7,488.7c0-0.2,0.1-0.4,0.4-0.5l1.4-0.1c0.3,0,0.4,0,0.4,0.3v24.2c0,0.2-0.1,0.3-0.4,0.3
				h-1.4c-0.3,0-0.4-0.1-0.4-0.3V488.7z"/>
			<path class="st1" d="M-38.7,495.2c0-6.3,3.7-7.6,8.5-7.6h0.3c3.8,0,5.8,0.9,7,2.7c0,0-0.1-1.5-0.1-3.4v-9.9
				c0-0.3,0.2-0.4,0.4-0.4l1.3,0.1c0.3,0.1,0.3,0.2,0.3,0.5v28.8c0,6.2-3.8,7.4-8.8,7.4h-0.4c-4.8,0-8.6-1.4-8.6-7.6V495.2z
				 M-29.7,511.8c4,0,6.8-1,6.8-5.8v-10.7c0-4.5-2.6-5.9-6.6-5.9h-0.3c-4.1,0-6.8,1.2-6.8,5.9v10.7c0,4.8,2.8,5.9,6.5,5.9H-29.7z"/>
			<path class="st1" d="M-13,495.3c0-5.8,3.2-7.7,8.9-7.7h0.5c5,0,8,1.8,8,6.7v0.8c0,5.3-2.8,5.9-7.4,5.9c-3.5,0-7.1-0.8-7.9-1v5.5
				c0,5,2.6,6,6.8,6c3.2,0,5.4-0.4,7-0.8c0.2,0,0.4,0,0.4,0.2L3,512.2c0,0.2-0.1,0.3-0.4,0.5c-1.1,0.2-3.6,0.7-6.7,0.7h-0.4
				c-4.9,0-8.6-1.4-8.6-7.6V495.3z M-11,498.3c0.6,0.2,4.2,1.1,7.9,1.1c3.3,0,5.4-0.4,5.4-4.3v-0.7c0-3.3-1.5-5-6.1-5h-0.3
				c-4.2,0-6.8,1.2-6.8,5.9V498.3z"/>
			<path class="st1" d="M10.3,511c-0.1-0.4,0.1-0.5,0.4-0.4c1.5,0.5,4.2,1,7.4,1h0.4c3.6,0,5.8-0.8,5.8-4.6v-1c0-3.2-1.3-4.2-5.2-5
				l-2-0.3c-4.2-0.8-6.6-2.1-6.6-6.2v-0.9c0-4.9,3.8-5.8,7.5-5.8h0.2c1.9,0,4.6,0.3,6,0.7c0.3,0.1,0.4,0.2,0.4,0.4l0.2,1
				c0,0.2-0.1,0.4-0.4,0.4c-1.1-0.4-3.8-0.8-6-0.8h-0.2c-3.2,0-5.6,0.8-5.6,4v0.9c0,2.6,1.6,3.6,5.1,4.3l2,0.4
				c4.8,0.9,6.8,2.2,6.8,6.7v1.2c0,5.5-3.4,6.4-7.9,6.4H18c-3.1,0-6.1-0.5-7.2-0.9c-0.2,0-0.4-0.1-0.5-0.5L10.3,511z"/>
		</g>
	</g>
</g>
</svg>
