<?xml version="1.0" encoding="utf-8"?>
<!-- Generator: Adobe Illustrator 19.1.0, SVG Export Plug-In . SVG Version: 6.00 Build 0)  -->
<svg version="1.1" id="Layer_1" xmlns="http://www.w3.org/2000/svg" xmlns:xlink="http://www.w3.org/1999/xlink" x="0px" y="0px"
	 width="258px" height="72px" viewBox="-176 361 258 72" style="enable-background:new -176 361 258 72;" xml:space="preserve">
<style type="text/css">
	.st0{enable-background:new    ;}
	.st1{fill:#FFFFFF;}
</style>
<title>Guides</title>
<desc>Created with Sketch.</desc>
<g id="Page-1">
	<g id="Guides-TOC" transform="translate(-181.000000, -342.000000)">
		<g class="st0">
			<path class="st1" d="M5.6,722.2c0-12.2,6.6-17,19.5-17c8.6,0,14.5,1.6,14.5,1.6c0.8,0.2,0.9,0.4,1,0.9l0.3,2.1
				c0,0.5-0.2,0.7-0.9,0.6c0,0-6.4-1.8-14.5-1.8h-0.3c-10.8,0-15.6,3.9-15.6,13.5v34.7c0,9.6,4.5,13.4,15.1,13.4h0.4
				c7.6,0,13.8-1.8,13.8-1.8V741H28.1c-0.6,0-0.8-0.2-0.8-0.8v-2c0-0.5,0.2-0.7,0.8-0.7h14c0.6,0,0.8,0.2,0.8,0.7v32
				c0,0.6-0.1,0.8-0.8,1.1c0,0-7.4,2.6-17.2,2.6c-12.9,0-19.3-4.9-19.3-17.1V722.2z"/>
			<path class="st1" d="M59.9,726.4c0-0.6,0.1-0.9,0.7-1l2.6-0.2c0.6,0,0.8,0.2,0.8,0.7v33.2c0,8.9,4.5,11.1,11.9,11.1
				c5.3,0,10.2-1.2,12.8-2.2V726c0-0.6,0.3-0.7,0.7-0.7l2.7,0.2c0.5,0.1,0.7,0.4,0.7,0.9v43.5c0,0.7-0.2,0.9-0.8,1.1
				c-3.3,1.3-9.1,3-16.2,3c-9.1,0-15.7-2.7-15.7-14.4V726.4z"/>
			<path class="st1" d="M110.9,708.9c0-0.5,0.1-0.7,0.7-0.7h3.1c0.6,0,0.8,0.2,0.8,0.7v6.3c0,0.6-0.3,0.8-0.8,0.8h-3.1
				c-0.6,0-0.7-0.2-0.7-0.8V708.9z M111.1,726.3c0-0.5,0.2-0.8,0.7-0.9l2.6-0.2c0.6,0,0.8,0.1,0.8,0.7v46.4c0,0.5-0.2,0.7-0.7,0.7
				h-2.6c-0.6,0-0.8-0.2-0.8-0.7V726.3z"/>
			<path class="st1" d="M132.9,738.9c0-12,7.1-14.6,16.3-14.6h0.6c7.3,0,11.2,1.7,13.5,5.2c0,0-0.2-2.8-0.2-6.4v-18.9
				c0-0.7,0.3-0.8,0.8-0.8l2.5,0.3c0.6,0.1,0.7,0.3,0.7,1v55.3c0,11.8-7.4,14.2-16.9,14.2h-0.8c-9.3,0-16.5-2.8-16.5-14.6V738.9z
				 M150.2,770.6c7.6,0,13-1.9,13-11.1v-20.5c0-8.5-5.1-11.2-12.7-11.2h-0.7c-7.9,0-13,2.2-13,11.2v20.4c0,9.1,5.4,11.2,12.6,11.2
				H150.2z"/>
			<path class="st1" d="M184.6,739c0-11.1,6.1-14.7,17-14.7h1c9.6,0,15.4,3.4,15.4,12.9v1.5c0,10.2-5.5,11.3-14.2,11.3
				c-6.7,0-13.6-1.6-15.2-1.9v10.6c0,9.6,4.9,11.6,13,11.6c6.1,0,10.3-0.8,13.4-1.4c0.5-0.1,0.7,0.1,0.7,0.5l-0.3,2.2
				c0,0.5-0.2,0.7-0.8,1c-2.1,0.5-6.8,1.3-12.9,1.3H201c-9.4,0-16.4-2.6-16.4-14.6V739z M188.6,744.8c1.1,0.3,8.2,2.1,15.2,2.1
				c6.3,0,10.3-0.7,10.3-8.3v-1.3c0-6.4-3-9.6-11.7-9.6h-0.7c-8.1,0-13.1,2.2-13.1,11.2V744.8z"/>
			<path class="st1" d="M231.9,769.2c-0.1-0.7,0.3-0.9,0.8-0.7c2.8,0.9,8.2,1.8,14.1,1.8h0.8c6.9,0,11.2-1.4,11.2-8.8v-1.9
				c0-6.1-2.5-8.1-10.1-9.5l-3.8-0.7c-8.2-1.6-12.7-4-12.7-11.8v-1.7c0-9.4,7.2-11.2,14.4-11.2h0.4c3.6,0,8.7,0.6,11.4,1.3
				c0.6,0.1,0.9,0.4,0.9,0.8l0.3,2c0,0.5-0.2,0.8-0.8,0.7c-2.1-0.7-7.3-1.4-11.4-1.4h-0.5c-6.1,0-10.8,1.5-10.8,7.8v1.6
				c0,5.1,3,7,9.7,8.4l3.9,0.8c9.2,1.7,13,4.3,13,12.8v2.3c0,10.5-6.5,12.3-15.2,12.3h-0.8c-5.9,0-11.7-1-13.7-1.7
				c-0.5-0.1-0.8-0.3-0.9-1.1L231.9,769.2z"/>
		</g>
	</g>
</g>
</svg>
