<svg id="Layer_1" xmlns="http://www.w3.org/2000/svg" width="258" height="72" viewBox="-176 361 258 72"><style>.st0{enable-background:new}.st1{fill:#fff}</style><title>Guides</title><g id="Page-1"><g class="st0" id="Guides-TOC"><path class="st1" d="M5.6 722.2c0-12.2 6.6-17 19.5-17 8.6 0 14.5 1.6 14.5 1.6.8.2.9.4 1 .9l.3 2.1c0 .5-.2.7-.9.6 0 0-6.4-1.8-14.5-1.8h-.3c-10.8 0-15.6 3.9-15.6 13.5v34.7c0 9.6 4.5 13.4 15.1 13.4h.4c7.6 0 13.8-1.8 13.8-1.8V741H28.1c-.6 0-.8-.2-.8-.8v-2c0-.5.2-.7.8-.7h14c.6 0 .8.2.8.7v32c0 .6-.1.8-.8 1.1 0 0-7.4 2.6-17.2 2.6-12.9 0-19.3-4.9-19.3-17.1v-34.6zM59.9 726.4c0-.6.1-.9.7-1l2.6-.2c.6 0 .8.2.8.7v33.2c0 8.9 4.5 11.1 11.9 11.1 5.3 0 10.2-1.2 12.8-2.2v-42c0-.6.3-.7.7-.7l2.7.2c.5.1.7.4.7.9v43.5c0 .7-.2.9-.8 1.1-3.3 1.3-9.1 3-16.2 3-9.1 0-15.7-2.7-15.7-14.4v-33.2zM110.9 708.9c0-.5.1-.7.7-.7h3.1c.6 0 .8.2.8.7v6.3c0 .6-.3.8-.8.8h-3.1c-.6 0-.7-.2-.7-.8v-6.3zm.2 17.4c0-.5.2-.8.7-.9l2.6-.2c.6 0 .8.1.8.7v46.4c0 .5-.2.7-.7.7h-2.6c-.6 0-.8-.2-.8-.7v-46zM132.9 738.9c0-12 7.1-14.6 16.3-14.6h.6c7.3 0 11.2 1.7 13.5 5.2 0 0-.2-2.8-.2-6.4v-18.9c0-.7.3-.8.8-.8l2.5.3c.6.1.7.3.7 1V760c0 11.8-7.4 14.2-16.9 14.2h-.8c-9.3 0-16.5-2.8-16.5-14.6v-20.7zm17.3 31.7c7.6 0 13-1.9 13-11.1V739c0-8.5-5.1-11.2-12.7-11.2h-.7c-7.9 0-13 2.2-13 11.2v20.4c0 9.1 5.4 11.2 12.6 11.2h.8zM184.6 739c0-11.1 6.1-14.7 17-14.7h1c9.6 0 15.4 3.4 15.4 12.9v1.5c0 10.2-5.5 11.3-14.2 11.3-6.7 0-13.6-1.6-15.2-1.9v10.6c0 9.6 4.9 11.6 13 11.6 6.1 0 10.3-.8 13.4-1.4.5-.1.7.1.7.5l-.3 2.2c0 .5-.2.7-.8 1-2.1.5-6.8 1.3-12.9 1.3h-.7c-9.4 0-16.4-2.6-16.4-14.6V739zm4 5.8c1.1.3 8.2 2.1 15.2 2.1 6.3 0 10.3-.7 10.3-8.3v-1.3c0-6.4-3-9.6-11.7-9.6h-.7c-8.1 0-13.1 2.2-13.1 11.2v5.9zM231.9 769.2c-.1-.7.3-.9.8-.7 2.8.9 8.2 1.8 14.1 1.8h.8c6.9 0 11.2-1.4 11.2-8.8v-1.9c0-6.1-2.5-8.1-10.1-9.5l-3.8-.7c-8.2-1.6-12.7-4-12.7-11.8v-1.7c0-9.4 7.2-11.2 14.4-11.2h.4c3.6 0 8.7.6 11.4 1.3.6.1.9.4.9.8l.3 2c0 .5-.2.8-.8.7-2.1-.7-7.3-1.4-11.4-1.4h-.5c-6.1 0-10.8 1.5-10.8 7.8v1.6c0 5.1 3 7 9.7 8.4l3.9.8c9.2 1.7 13 4.3 13 12.8v2.3c0 10.5-6.5 12.3-15.2 12.3h-.8c-5.9 0-11.7-1-13.7-1.7-.5-.1-.8-.3-.9-1.1l-.2-2.1z" transform="translate(-181 -342)"/></g></g></svg>