<?xml version="1.0" encoding="utf-8"?>
<!-- Generator: Adobe Illustrator 19.1.0, SVG Export Plug-In . SVG Version: 6.00 Build 0)  -->
<svg version="1.1" id="Layer_1" xmlns="http://www.w3.org/2000/svg" xmlns:xlink="http://www.w3.org/1999/xlink" x="0px" y="0px"
	 width="15px" height="15px" viewBox="-298 389 15 15" style="enable-background:new -298 389 15 15;" xml:space="preserve">
<style type="text/css">
	.st0{fill:#FFFFFF;}
	.st1{filter:url(#Adobe_OpacityMaskFilter);}
	.st2{mask:url(#mask-2);fill:#8194C7;}
	.st3{fill:#8194C7;}
</style>
<g>
	<polygon id="path-3" class="st0" points="-288.5,404 -283,404 -283,389 -298,389 -298,404 -288.5,404 -283,404 -283,398.5 
		-288.5,398.5 	"/>
</g>
<title>Page 1</title>
<desc>Created with Sketch.</desc>
<g id="Page-1_1_">
	<g id="Blog-Main-v3-SEARCH" transform="translate(-440.000000, -672.000000)">
		<g id="Page-1" transform="translate(440.000000, 672.000000)">
			<g id="Group-3">
				<g id="Clip-2">
				</g>
				<defs>
					<filter id="Adobe_OpacityMaskFilter" filterUnits="userSpaceOnUse" x="-298" y="389" width="10.9" height="10.9">
						<feColorMatrix  type="matrix" values="1 0 0 0 0  0 1 0 0 0  0 0 1 0 0  0 0 0 1 0"/>
					</filter>
				</defs>
				<mask maskUnits="userSpaceOnUse" x="-298" y="389" width="10.9" height="10.9" id="mask-2">
					<g class="st1">
						<polygon id="path-1" class="st0" points="-298,399.9 -298,389 -287.1,389 -287.1,399.9 						"/>
					</g>
				</mask>
				<path id="Fill-1" class="st2" d="M-292.5,390.4c2.3,0,4.1,1.8,4.1,4.1c0,2.3-1.8,4.1-4.1,4.1s-4.1-1.8-4.1-4.1
					C-296.6,392.2-294.8,390.4-292.5,390.4 M-292.5,389c-3,0-5.5,2.4-5.5,5.5c0,3,2.4,5.5,5.5,5.5s5.5-2.4,5.5-5.5
					C-287.1,391.4-289.5,389-292.5,389"/>
			</g>
			<g id="Group-6">
				<g id="Clip-5">
				</g>
			</g>
			<polygon id="Fill-4" class="st3" points="-286.4,398.5 -288.5,400.6 -285,404 -283,402 			"/>
		</g>
	</g>
</g>
</svg>
