<svg id="Layer_1" xmlns="http://www.w3.org/2000/svg" width="15" height="15" viewBox="-298 389 15 15" enable-background="new -298 389 15 15"><style>.st0{fill:#EEEFF3}.st1{filter:url(#Adobe_OpacityMaskFilter)}.st2{mask:url(#mask-2)}.st2,.st3{fill:#8194c7}</style><path id="path-3" class="st0" d="M-288.5 404h5.5v-15h-15v15h15v-5.5h-5.5z"/><title>Page 1</title><g id="Page-1_1_"><g id="Blog-Main-v3-SEARCH" transform="translate(-440 -672)"><g id="Page-1" transform="translate(440 672)"><g id="Group-3"><defs><filter id="Adobe_OpacityMaskFilter" filterUnits="userSpaceOnUse" x="-298" y="389" width="10.9" height="10.9"><feColorMatrix values="1 0 0 0 0 0 1 0 0 0 0 0 1 0 0 0 0 0 1 0"/></filter></defs><mask maskUnits="userSpaceOnUse" x="-298" y="389" width="10.9" height="10.9" id="mask-2"><g class="st1"><path id="path-1" class="st0" d="M-298 399.9V389h10.9v10.9z"/></g></mask><path id="Fill-1" class="st2" d="M-292.5 390.4c2.3 0 4.1 1.8 4.1 4.1s-1.8 4.1-4.1 4.1-4.1-1.8-4.1-4.1 1.8-4.1 4.1-4.1m0-1.4c-3 0-5.5 2.4-5.5 5.5 0 3 2.4 5.5 5.5 5.5s5.5-2.4 5.5-5.5c-.1-3.1-2.5-5.5-5.5-5.5"/></g><path id="Fill-4" class="st3" d="M-286.4 398.5l-2.1 2.1 3.5 3.4 2-2z"/></g></g></g></svg>