<svg width="68" height="68" xmlns="http://www.w3.org/2000/svg"><g transform="translate(1 1)" fill="none" fill-rule="evenodd"><circle stroke="#C9D6FE" opacity=".2" cx="33" cy="33" r="33"/><g fill="#FAFFC7" fill-rule="nonzero"><path d="M45.416 49.511V39h3.54v14H17V39h3.54v10.511z"/><path d="M26.49 35.58l16.947 3.63.717-3.492-16.948-3.63-.717 3.492zm2.24-8.27l15.693 7.49 1.435-3.217-15.692-7.535-1.435 3.262zm4.35-7.902l13.316 11.348 2.197-2.71-13.316-11.349-2.197 2.71zM41.688 11l-2.78 2.113L49.22 27.356 52 25.243 41.688 11zM26.13 43.667h17.307v-3.538H26.13v3.538z"/></g></g></svg>