<?xml version="1.0" encoding="UTF-8"?>
<svg width="68px" height="68px" viewBox="0 0 68 68" version="1.1" xmlns="http://www.w3.org/2000/svg" xmlns:xlink="http://www.w3.org/1999/xlink">
    <!-- Generator: Sketch 52.5 (67469) - http://www.bohemiancoding.com/sketch -->
    <title>Group 2</title>
    <desc>Created with Sketch.</desc>
    <g id="v1_Navigation" stroke="none" stroke-width="1" fill="none" fill-rule="evenodd">
        <g id="Docs_Mobile-Start" transform="translate(-126.000000, -460.000000)">
            <g id="Group-2" transform="translate(127.000000, 461.000000)">
                <circle id="Oval-6" stroke="#C9D6FE" opacity="0.200223214" cx="33" cy="33" r="33"></circle>
                <g id="so-icon" transform="translate(17.000000, 11.000000)" fill="#FAFFC7" fill-rule="nonzero">
                    <polygon id="Shape" points="28.416015 38.5113269 28.416015 28 31.9565217 28 31.9565217 42 0 42 0 28 3.54050673 28 3.54050673 38.5113269"></polygon>
                    <path d="M9.4891116,24.5804032 L26.4365911,28.2100328 L27.1539447,24.7182372 L10.2064652,21.0886076 L9.4891116,24.5804032 Z M11.7308417,16.310361 L27.4229523,23.7993436 L28.8576596,20.5832161 L13.1655489,13.0482888 L11.7308417,16.310361 Z M16.0797981,8.40787623 L29.3956748,19.7562119 L31.5925703,17.0454759 L18.2766935,5.69714018 L16.0797981,8.40787623 Z M24.6880416,1.63228289e-15 L21.9082963,2.11345523 L32.2202547,16.3563057 L35,14.2428504 L24.6880416,1.63228289e-15 Z M9.13043478,32.6666667 L26.4365911,32.6666667 L26.4365911,29.1289264 L9.13043478,29.1289264 L9.13043478,32.6666667 Z" id="Shape"></path>
                </g>
            </g>
        </g>
    </g>
</svg>