<svg width="2560" height="521" xmlns="http://www.w3.org/2000/svg"><defs><linearGradient x1="55.774%" y1="24.64%" x2="79.322%" y2="-47.603%" id="a"><stop stop-color="#E9F5A9" offset="0%"/><stop stop-color="#ABD155" offset="100%"/></linearGradient></defs><g transform="translate(-416 -180)" fill="none" fill-rule="evenodd"><path fill="url(#a)" transform="matrix(1 0 0 -1 0 740)" d="M2291 313l-797.277 319L957 557.076 632 108h1103.807z"/><path d="M1937.722 621.6c-2.691 22.138-24.597 39.4-51.222 39.4-13.03 0-24.93-4.134-34-10.951-9.07 6.817-20.97 10.951-34 10.951-11.193 0-21.552-3.05-30-8.232-8.448 5.181-18.807 8.232-30 8.232-9.926 0-19.196-2.4-27.059-6.556-9.711 4.172-20.956 6.556-32.941 6.556-36.727 0-66.5-22.386-66.5-50 0-24.368 23.184-44.664 53.872-49.1 5.808-33.32 39.918-58.9 81.128-58.9 2.472 0 4.918.092 7.335.272a54.016 54.016 0 0 1-.335-6.009c0-34.72 33.271-63.598 77.15-69.594 8.238-47.335 56.48-83.669 114.76-83.669 31.098 0 59.338 10.345 80.168 27.187 8.576-3.016 17.968-4.68 27.815-4.68 22.55 0 42.718 8.725 56.153 22.447 10.158-25.57 38.312-43.954 71.454-43.954 10.11 0 19.756 1.71 28.569 4.815C2251.708 331.989 2281.329 321 2314 321c60.695 0 110.865 37.926 118.882 87.157C2478.437 414.294 2513 444.125 2513 480c0 17.795-8.504 34.102-22.635 46.769.418 2.386.635 4.828.635 7.314 0 6.639-1.545 12.969-4.345 18.74 24.387 5.585 42.345 24.628 42.345 47.26 0 27.016-25.59 48.917-57.157 48.917-14.324 0-27.417-4.51-37.448-11.96-10.03 7.45-23.123 11.96-37.447 11.96-12.516 0-24.092-3.443-33.506-9.282-9.414 5.84-20.99 9.282-33.506 9.282-10.965 0-21.21-2.643-29.91-7.225-7.857 3.362-16.62 5.67-25.947 6.668-10.128 7.806-23.534 12.557-38.236 12.557-14.324 0-27.417-4.51-37.448-11.96-10.03 7.45-23.123 11.96-37.447 11.96-12.516 0-24.092-3.443-33.506-9.282-9.414 5.84-20.99 9.282-33.506 9.282-10.965 0-21.21-2.643-29.91-7.225-10.745 4.598-23.185 7.225-36.445 7.225-31.31 0-58.053-14.649-68.68-35.297-7.445-.578-14.561-1.988-21.179-4.104z" fill="#FFF"/><path d="M3159.098 487.117V632h-714.87v-89.422c-8.197 5.671-18.374 9.37-29.572 10.154-10.197.713-19.893-1.087-28.27-4.793-9.678 4.985-21.06 8.244-33.374 9.105-37.734 2.638-69.931-18.23-71.916-46.612-1.751-25.045 20.61-47.57 51.82-54.334 3.572-34.663 36.779-63.406 79.119-66.366 2.54-.178 5.061-.26 7.557-.247a55.67 55.67 0 0 1-.776-6.155c-2.495-35.685 29.613-67.756 74.264-77.07 5.06-49.243 52.014-90.054 111.892-94.24 31.95-2.235 61.706 6.368 84.316 22.18 8.595-3.716 18.126-6.101 28.244-6.809 22.837-1.597 43.907 5.686 58.668 18.478 8.618-30.862 42.033-52.425 80.234-49.754a90.141 90.141 0 0 1 16.621 2.728c24.238-24.162 61.592-38.334 102.411-35.48 55.544 3.884 100.346 38.094 112.795 81.69 52.184 6.12 91.352 41.603 88.567 81.437-1.057 15.107-8.001 28.754-19.081 39.81a43.87 43.87 0 0 1 .363 3.346c.477 6.823-.655 13.44-3.117 19.573 25.455 3.988 45.274 22.27 46.9 45.53 1.685 24.096-16.707 45.618-42.795 52.368zm-3035.1-114.972L78.795 655.351l794.424 44.928-13.028-63.37a89.91 89.91 0 0 0 16.639 7.68c35.765 12.315 72.267.49 81.53-26.411 8.174-23.74-7.595-51.286-35.992-65.897 5.523-34.408-19.113-70.767-59.244-84.585a101.25 101.25 0 0 0-7.237-2.195 55.677 55.677 0 0 0 2.343-5.744c11.647-33.825-11.066-73.114-51.785-93.668 7.857-48.877-26.933-100.45-83.687-119.992-30.282-10.427-61.252-9.818-87.184-.396-7.34-5.816-15.93-10.586-25.52-13.888-21.645-7.454-43.882-5.872-61.451 2.664-.337-32.042-27.032-61.52-64.623-68.826a90.138 90.138 0 0 0-16.761-1.667c-17.158-29.613-49.57-52.97-89.738-60.778-54.656-10.624-106.787 10.825-130.095 49.715-51.99-7.593-99.007 16.543-106.627 55.743-2.89 14.866.286 29.846 8.127 43.394a43.828 43.828 0 0 0-1.217 3.138c-2.227 6.467-2.846 13.152-2.056 19.713-25.62-2.735-49.494 9.794-57.086 31.841-8.684 25.22 7.09 53.744 35.47 65.395z" fill="#FFF"/><circle fill="#FFF" cx="2042" cy="303" r="2"/><circle fill="#FFF" cx="1954" cy="211" r="2"/><circle fill="#C8D2D2" cx="2218" cy="323" r="2"/><circle fill="#C8D2D2" cx="2023" cy="296" r="2"/><g transform="translate(864 522)" fill="#FFF"><ellipse cx="114" cy="55.5" rx="69" ry="55.5"/><ellipse cx="56" cy="87" rx="56" ry="40"/><ellipse cx="106.5" cy="91.5" rx="43.5" ry="35.5"/><ellipse cx="157.5" cy="91.5" rx="43.5" ry="35.5"/><ellipse cx="214.5" cy="91.5" rx="43.5" ry="35.5"/><ellipse cx="178.5" cy="48.5" rx="43.5" ry="35.5"/></g><ellipse fill="#FEFFF0" transform="rotate(-14 1232.385 125.224)" cx="1232.385" cy="125.224" rx="287" ry="57.5"/></g></svg>