<svg width="68" height="68" xmlns="http://www.w3.org/2000/svg"><g transform="translate(1 1)" fill="none" fill-rule="evenodd"><path d="M41.19 18.414c-4.064 1.39-6.633 4.974-6.341 8.896l.097 1.513-1.625-.185c-5.917-.711-11.087-3.12-15.478-7.167l-2.147-2.008-.55 1.482c-1.17 3.305-.42 6.797 2.017 9.146 1.301 1.297 1.007 1.482-1.234.71-.78-.247-1.465-.432-1.528-.338-.228.216.552 3.026 1.17 4.14.846 1.547 2.569 3.058 4.455 3.956l1.594.711-1.888.027c-1.82 0-1.886.03-1.69.682.65 2.008 3.218 4.14 6.08 5.067l2.017.649-1.756.99c-2.602 1.424-5.658 2.226-8.715 2.283-1.464.032-2.668.154-2.668.248 0 .307 3.969 2.036 6.274 2.718 6.926 2.008 15.153 1.141 21.33-2.286 4.391-2.44 8.78-7.292 10.829-11.99 1.107-2.5 2.21-7.072 2.21-9.265 0-1.422.098-1.607 1.917-3.305 1.074-.99 2.08-2.07 2.278-2.378.327-.588.29-.588-1.365-.062-2.763.927-3.154.804-1.787-.586 1.007-.99 2.211-2.781 2.211-3.305 0-.091-.488.063-1.04.339-.585.31-1.886.773-2.863 1.05l-1.755.525-1.593-1.023c-.879-.555-2.11-1.174-2.762-1.36-1.662-.432-4.197-.37-5.694.126z" fill="#FAFFC7" fill-rule="nonzero"/><circle stroke="#C9D6FE" opacity=".2" cx="33" cy="33" r="33"/></g></svg>