<svg version="1.1" id="Layer_1" xmlns="http://www.w3.org/2000/svg" xmlns:xlink="http://www.w3.org/1999/xlink" x="0" y="0" width="129.7" height="97" viewBox="-240 348 129.7 97" xml:space="preserve"><style>.st2{fill:#fff}.st14{fill:#95bb3d}</style><linearGradient id="SVGID_1_" gradientUnits="userSpaceOnUse" x1="-148.045" y1="-1093.131" x2="-147.046" y2="-1093.131" gradientTransform="translate(13754.599 103719.438) scale(94.52)"><stop offset="0" stop-color="#586382"/><stop offset=".48" stop-color="#363954"/><stop offset="1" stop-color="#363954"/></linearGradient><path d="M-190.3 349.5c-26.1 0-47.3 21.2-47.2 47.3s21.2 47.3 47.3 47.2c22.4 0 41.8-15.8 46.3-37.8l-2.4.8c-1.2.4-2.4.8-3.7 1.1l-1.1.3-1.8.5-2.5.7-.4.1c-1.6.4-3.2.9-5 1.3-16.2 4.2-28.9 6-38.2 6h-.1c-5.7 0-10.1-.7-13.1-1.9-1.3-.5-2.4-1.2-3.4-2.1-.7-.7-1.2-1.5-1.5-2.4-.1-.4-.2-.8-.2-1.3 0-1.2.4-2.4 1-3.4 1.6-2.5 3.7-4.6 6.2-6.3 3.6-2.5 7.5-4.7 11.6-6.4-.1-.9-.1-1.9.1-2.8 1.2-9.6 9.8-21.3 23.8-25.3 3.2-.9 6.6-1.4 9.9-1.4 3.2 0 6.5.4 9.6 1.2-9-9.7-21.8-15.4-35.2-15.4" fill="url(#SVGID_1_)"/><path class="st2" d="M-191.8 392.6h-.2zM-193 392.4c-.1 0-.2-.1-.3-.2l-.1-.1-.2-.2-.1-.1-.1-.2-.1-.1.1.1.1.2.1.1.2.2.1.1c0 .1.1.1.3.2.1 0 .3.1.5.1h.2-.2c-.2-.1-.4-.1-.5-.1"/><path fill="none" d="M-190.1 393.7h-.2"/><linearGradient id="SVGID_2_" gradientUnits="userSpaceOnUse" x1="-192.813" y1="391.234" x2="-192.753" y2="391.234" gradientTransform="matrix(.01 0 0 -.01 -439.92 31.25)"><stop offset="0" stop-color="#4f672f"/><stop offset=".21" stop-color="#4f672f"/><stop offset=".39" stop-color="#526b30"/><stop offset=".56" stop-color="#5c7632"/><stop offset=".73" stop-color="#6c8a35"/><stop offset=".89" stop-color="#82a539"/><stop offset="1" stop-color="#95bb3d"/></linearGradient><path fill="url(#SVGID_2_)" d="M-192.8 391.3v-.2.2"/><linearGradient id="SVGID_3_" gradientUnits="userSpaceOnUse" x1="-145.02" y1="-1088.818" x2="-144.02" y2="-1088.818" gradientTransform="translate(6152.31 47513.887) scale(43.28)"><stop offset="0" stop-color="#4f672f"/><stop offset=".21" stop-color="#4f672f"/><stop offset=".39" stop-color="#526b30"/><stop offset=".56" stop-color="#5c7632"/><stop offset=".73" stop-color="#6c8a35"/><stop offset=".89" stop-color="#82a539"/><stop offset="1" stop-color="#95bb3d"/></linearGradient><path d="M-149.7 396.2c-1.9.2-4 .6-6.2 1l3.2 3.6 3-4.6" fill="url(#SVGID_3_)"/><path class="st2" d="M-191.8 392.6h-.2zM-193 392.4c-.1 0-.2-.1-.3-.2l-.1-.1-.2-.2-.1-.1-.1-.2-.1-.1.1.1.1.2.1.1.2.2.1.1c0 .1.1.1.3.2.1 0 .3.1.5.1h.2-.2c-.2-.1-.4-.1-.5-.1M-193.4 389.3c.4-2 1.1-4 2-5.9-.9 2-1.5 3.9-2 5.9"/><linearGradient id="SVGID_4_" gradientUnits="userSpaceOnUse" x1="-148.098" y1="-1093.089" x2="-147.098" y2="-1093.089" gradientTransform="rotate(-.83 7307166.385 -1018967.81) scale(94.52)"><stop offset="0" stop-color="#586382"/><stop offset=".48" stop-color="#363954"/><stop offset="1" stop-color="#363954"/></linearGradient><path d="M-188.8 380" fill="url(#SVGID_4_)"/><linearGradient id="SVGID_5_" gradientUnits="userSpaceOnUse" x1="-148.098" y1="-1093.089" x2="-147.098" y2="-1093.089" gradientTransform="rotate(-.83 7307166.385 -1018967.81) scale(94.52)"><stop offset="0" stop-color="#586382"/><stop offset=".48" stop-color="#363954"/><stop offset="1" stop-color="#363954"/></linearGradient><path d="M-188.8 380" fill="url(#SVGID_5_)"/><path class="st2" d="M-146 380l.4-.2c.2-.1.5-.2.7-.3.6-.3 1-.7 1.4-1.1.2-.2.3-.5.4-.8 0-.3 0-.5-.2-.7-.3-.3-.6-.7-.9-1l-.3-.3c-.2-.2-.5-.5-.8-.7l-.3-.3c-.3-.3-.7-.5-1-.8l-.2-.1c-.4-.3-.9-.6-1.4-.9l-.4-.2c-.4-.2-.7-.4-1.1-.6l-.2-.1c1.6 2.6 2.9 5.3 3.9 8.1"/><path class="st2" d="M-137.7 376c-3.2-3.9-10.7-9.1-17-10.7l-.1-.1c-3.2-.9-6.6-1.3-10-1.3-3.4 0-6.7.4-9.9 1.3-14 4-22.6 15.7-23.8 25.3-.2 1.6-.4 3.1.7 4.2 1.7 1.6 3.9 2.4 6.2 2.4.6 0 1.2-.1 1.8-.2 2.8-.5 5.6-1.4 8.2-2.6 4.4-1.9 9-3.5 13.7-4.8 4.8-1.4 9.6-2.4 14.5-3.2 3-.4 5.9-1.1 8.7-2v-.1l.8-.3c2.8-1.1 6.5-2.9 7-5.2.5-1.5.3-1.3-.8-2.7z"/><path class="st2" d="M-160.1 368.8c-.5-.1-1.1-.1-1.6-.2h-.6.6c.5.1 1 .2 1.6.2M-162.4 368.6c-.5 0-1 0-1.5-.1.5 0 1 .1 1.5.1M-149.7 372l-.2-.1.2.1M-149.9 371.9l-.3-.1.3.1"/><defs><path id="SVGID_10_" d="M-164.7 367c-15.2 0-28 10.3-30.8 24.1l-.2 1.1 2.3.5.2-1.1c2.5-12.6 14.3-22.2 28.5-22.2 8.3-.1 16.3 3.4 21.9 9.5l.8.9 1.7-1.6-.8-.9c-6-6.6-14.6-10.3-23.6-10.3"/></defs><clipPath id="SVGID_6_"><use xlink:href="#SVGID_10_" overflow="visible"/></clipPath><g clip-path="url(#SVGID_6_)"><image width="121" height="59" xlink:href="E2FE226EB27FBAAB.jpg" transform="matrix(.4721 0 0 -.4637 -196.663 393.64)" overflow="visible"/></g><linearGradient id="SVGID_7_" gradientUnits="userSpaceOnUse" x1="-121.954" y1="-1055.906" x2="-120.954" y2="-1055.906" gradientTransform="matrix(8.46 0 0 8.46 847.29 9312.42)"><stop offset="0" stop-color="#6b8935"/><stop offset="1" stop-color="#95bb3d"/></linearGradient><path d="M-176.6 375.1h-.3c-1.1.4-2.1.9-3 1.6-2 1.4-3.4 3.5-3.9 5.9-.1.5.2 1.1.7 1.2H-182.8c.5 0 1-.4 1.1-.9.4-1.8 1.5-3.4 3-4.5.5-.4 1.1-.7 1.7-1l.5-.2h.1c.5-.2.8-.7.8-1.2-.1-.5-.6-.8-1-.9" fill="url(#SVGID_7_)"/><path class="st2" d="M-211 433.1l2.6-.9c.7-.3 1.1-1 .8-1.8-.3-.7-1-1.1-1.8-.8l-2.5.9c-.7.3-1.1 1-.8 1.8.2.7 1 1 1.7.8M-223.6 427.8l-1.8.7c.7.8 1.4 1.5 2.2 2.2l.6-.2c.7-.3 1.1-1.1.8-1.8s-1.1-1.2-1.8-.9zM-160 414.5c-7.1 1.8-13.5 3.2-19.4 4.2l-23.1 8.3c-.7.3-1.1 1-.8 1.8.3.7 1 1.1 1.8.8l43.3-15.6-1.8.5zM-214.8 417.9l-.5-.3-2.9 1c-.7.3-1.1 1-.8 1.8.3.7 1 1.1 1.8.8l5.9-2.1c-1.3-.2-2.4-.6-3.5-1.2zM-199.1 420.7c-1.5 0-2.9 0-4.3-.1l-14.4 5.2c-.7.3-1.1 1.1-.8 1.8.3.7 1.1 1.1 1.8.8l21.8-7.8c-1.5 0-2.8.1-4.1.1z"/><linearGradient id="SVGID_8_" gradientUnits="userSpaceOnUse" x1="-148.323" y1="-1093.435" x2="-147.324" y2="-1093.435" gradientTransform="translate(15631.022 116085.383) scale(105.82)"><stop offset="0" stop-color="#4f672f"/><stop offset=".21" stop-color="#4f672f"/><stop offset=".39" stop-color="#526b30"/><stop offset=".56" stop-color="#5c7632"/><stop offset=".73" stop-color="#6c8a35"/><stop offset=".89" stop-color="#82a539"/><stop offset="1" stop-color="#95bb3d"/></linearGradient><path d="M-111.7 382.5c-3.4-5.9-42.1 1.6-55.8 5-26.7 6.7-50.7 19.3-49.5 23.7 0 .1.1.2.1.3.2.5.5.9.8 1.3.1.2.3.3.5.5 1 .9 2.1 1.6 3.4 2.1 3 1.2 7.4 1.9 13.1 1.9h.1c9.3 0 22-1.8 38.2-6 1.8-.4 3.4-.9 5-1.3l.5-.1 2.5-.7 1.8-.5 1.1-.3c1.3-.4 2.5-.8 3.7-1.2l2.4-.8c0 .1-.1.2-.1.3 14.8-4.9 35.8-13.3 32.2-24.2z" fill="url(#SVGID_8_)"/><g><path class="st14" d="M-189.9 408.6c1.2 4.3 11.4 5.5 29.6.8 18.2-4.7 26.6-10.6 25.4-14.9-1.2-4.3-11.1-5.6-29.3-.9-18.2 4.7-26.8 10.7-25.7 15"/><linearGradient id="SVGID_9_" gradientUnits="userSpaceOnUse" x1="-120.506" y1="-1108.042" x2="-119.507" y2="-1108.042" gradientTransform="rotate(75.18 -10668.393 -6219.52) scale(13.25)"><stop offset="0" stop-color="#4f672f"/><stop offset=".21" stop-color="#4f672f"/><stop offset=".39" stop-color="#526b30"/><stop offset=".56" stop-color="#5c7632"/><stop offset=".73" stop-color="#6c8a35"/><stop offset=".89" stop-color="#82a539"/><stop offset="1" stop-color="#95bb3d"/></linearGradient><path d="M-160.2 409.4c15.9-4.1 24.3-9.1 25.4-13.2-3.3-2.8-10.2-4.5-28.5.3-15.9 4.2-24.4 9.8-25.4 13.9 3.3 2.8 12.4 3.2 28.5-1z" fill="url(#SVGID_9_)"/><path d="M-140.4 397.2c.7 2.3-8.5 6.9-20.4 10.2-11.9 3.3-22.1 4.1-22.8 1.8-.6-2.3 8.5-6.9 20.4-10.2 12-3.3 22.2-4.1 22.8-1.8" fill="#e5eca7"/><path d="M-149.4 398.1c-4.3.2-8.6.9-12.7 2.2-8.3 2.3-14.7 5.5-14.2 7.1.2.6 1.3.9 3.2.9 4.3-.2 8.6-.9 12.7-2.2 8.3-2.3 14.7-5.5 14.2-7.1-.2-.6-1.4-.9-3.2-.9" fill="#f9fbeb"/></g><path class="st14" d="M-167.5 387.5c13.1-3.3 49.4-10.3 55.2-5.6-.2-.2-.5-.4-.7-.6-1.3-.9-2.7-1.6-4.2-2-2.2-.6-4.5-1.1-6.9-1.3-.8-.1-1.6-.2-2.3-.2-9.1-1.2-22.8.5-42 5.5h-.1c-6.4 1.6-12.7 3.5-18.9 5.7-2.6.9-5 1.9-7.2 2.8-1 .4-2.1.9-3.1 1.3-.4.2-.6.2-.8.2v.2c-4.1 1.8-7.9 3.9-11.6 6.5-2.5 1.6-4.6 3.8-6.2 6.3-.6 1-1 2.2-1 3.4v.4c.1.3.1.6.2.9 0 .1.1.2.1.3-1.2-4.5 22.8-17 49.5-23.8z"/></svg>