<svg width="431" height="222" xmlns="http://www.w3.org/2000/svg"><g fill="none" fill-rule="evenodd"><path fill="#FFF" d="M0 0h431v221H0z"/><path d="M80.5 202.179h349.973M80.5 181.179h349.973M80.5 161.179h349.973M80.5 140.179h349.973M80.5 119.179h349.973M80.5 98.179h349.973M80.5 77.179h349.973M80.5 56.179h349.973M125 56.179v146M171 56.179v146M217 56.179v146M263 56.179v146M310 56.179v146M357 56.179v146M404 56.179v146" stroke="#979797" stroke-width=".5" stroke-linecap="square"/><path d="M54.854 59.72v-2.856c0-1.876.84-2.17 2.422-2.45l.532-.084c.84-.14 1.232-.308 1.232-1.274v-.518c0-1.008-.574-1.162-1.54-1.162h-.056c-.574 0-1.442.14-1.918.252-.196.056-.266-.028-.238-.238l.07-.7c.014-.21.112-.266.294-.322a7.857 7.857 0 0 1 1.932-.252h.042c1.946 0 2.968.56 2.968 2.478v.518c0 1.918-.882 2.198-2.436 2.464l-.602.112c-.742.126-1.148.238-1.148 1.12v1.862h3.962c.21 0 .266.07.252.28l-.084.77c-.028.21-.098.28-.308.28h-5.11c-.196 0-.266-.07-.266-.28zm7.504 0v-1.008c0-.21.056-.28.28-.28h1.232c.21 0 .28.07.28.28v1.008c0 .21-.07.28-.28.28h-1.232c-.224 0-.28-.07-.28-.28zm3.374-.14l-.07-.784c-.028-.21.028-.266.252-.224.35.056 1.288.224 2.058.224h.098c1.134 0 1.568-.224 1.568-1.344v-.574c0-1.008-.364-1.302-1.386-1.302H67.02c-.21 0-.28-.07-.28-.266v-.742c0-.196.07-.28.28-.28h1.106c1.008 0 1.414-.266 1.414-1.232v-.462c0-.91-.322-1.218-1.4-1.218h-.028c-.924 0-1.624.126-2.016.196-.224.042-.28-.028-.252-.238l.07-.686c.014-.196.098-.266.294-.322.196-.056 1.022-.21 1.946-.21h.042c2.044 0 2.912.672 2.912 2.52v.406c0 1.022-.504 1.596-1.12 1.806.742.168 1.204.77 1.204 2.1v.518c0 1.988-.896 2.66-2.996 2.66h-.07c-.938 0-1.736-.126-2.1-.224-.21-.056-.266-.126-.294-.322zM54.854 80.72v-2.856c0-1.876.84-2.17 2.422-2.45l.532-.084c.84-.14 1.232-.308 1.232-1.274v-.518c0-1.008-.574-1.162-1.54-1.162h-.056c-.574 0-1.442.14-1.918.252-.196.056-.266-.028-.238-.238l.07-.7c.014-.21.112-.266.294-.322a7.857 7.857 0 0 1 1.932-.252h.042c1.946 0 2.968.56 2.968 2.478v.518c0 1.918-.882 2.198-2.436 2.464l-.602.112c-.742.126-1.148.238-1.148 1.12v1.862h3.962c.21 0 .266.07.252.28l-.084.77c-.028.21-.098.28-.308.28h-5.11c-.196 0-.266-.07-.266-.28zm7.504 0v-1.008c0-.21.056-.28.28-.28h1.232c.21 0 .28.07.28.28v1.008c0 .21-.07.28-.28.28h-1.232c-.224 0-.28-.07-.28-.28zm3.556 0v-2.856c0-1.876.84-2.17 2.422-2.45l.532-.084c.84-.14 1.232-.308 1.232-1.274v-.518c0-1.008-.574-1.162-1.54-1.162h-.056c-.574 0-1.442.14-1.918.252-.196.056-.266-.028-.238-.238l.07-.7c.014-.21.112-.266.294-.322a7.857 7.857 0 0 1 1.932-.252h.042c1.946 0 2.968.56 2.968 2.478v.518c0 1.918-.882 2.198-2.436 2.464l-.602.112c-.742.126-1.148.238-1.148 1.12v1.862h3.962c.21 0 .266.07.252.28l-.084.77c-.028.21-.098.28-.308.28h-5.11c-.196 0-.266-.07-.266-.28zM54.854 100.72v-2.856c0-1.876.84-2.17 2.422-2.45l.532-.084c.84-.14 1.232-.308 1.232-1.274v-.518c0-1.008-.574-1.162-1.54-1.162h-.056c-.574 0-1.442.14-1.918.252-.196.056-.266-.028-.238-.238l.07-.7c.014-.21.112-.266.294-.322a7.857 7.857 0 0 1 1.932-.252h.042c1.946 0 2.968.56 2.968 2.478v.518c0 1.918-.882 2.198-2.436 2.464l-.602.112c-.742.126-1.148.238-1.148 1.12v1.862h3.962c.21 0 .266.07.252.28l-.084.77c-.028.21-.098.28-.308.28h-5.11c-.196 0-.266-.07-.266-.28zm7.504 0v-1.008c0-.21.056-.28.28-.28h1.232c.21 0 .28.07.28.28v1.008c0 .21-.07.28-.28.28h-1.232c-.224 0-.28-.07-.28-.28zm4.816 0v-7.854l-1.176.546c-.21.098-.336.084-.406-.14l-.21-.644c-.056-.182-.042-.322.168-.42l1.736-.84c.168-.084.308-.126.49-.126h.686c.196 0 .266.07.266.28v9.198c0 .21-.07.28-.266.28h-1.008c-.21 0-.28-.07-.28-.28zM54.854 122.72v-2.856c0-1.876.84-2.17 2.422-2.45l.532-.084c.84-.14 1.232-.308 1.232-1.274v-.518c0-1.008-.574-1.162-1.54-1.162h-.056c-.574 0-1.442.14-1.918.252-.196.056-.266-.028-.238-.238l.07-.7c.014-.21.112-.266.294-.322a7.857 7.857 0 0 1 1.932-.252h.042c1.946 0 2.968.56 2.968 2.478v.518c0 1.918-.882 2.198-2.436 2.464l-.602.112c-.742.126-1.148.238-1.148 1.12v1.862h3.962c.21 0 .266.07.252.28l-.084.77c-.028.21-.098.28-.308.28h-5.11c-.196 0-.266-.07-.266-.28zm7.504 0v-1.008c0-.21.056-.28.28-.28h1.232c.21 0 .28.07.28.28v1.008c0 .21-.07.28-.28.28h-1.232c-.224 0-.28-.07-.28-.28zm3.598-2.128v-4.942c0-1.89 1.092-2.576 2.996-2.576h.042c1.89 0 2.926.672 2.926 2.562v4.97c0 1.89-1.12 2.562-3.01 2.562h-.042c-1.904 0-2.912-.686-2.912-2.576zm2.884 1.246h.126c.91 0 1.386-.322 1.386-1.218v-5.082c0-.896-.406-1.204-1.316-1.204h-.126c-.91 0-1.386.322-1.386 1.218v5.068c0 .896.406 1.218 1.316 1.218zM56.114 143.72v-7.854l-1.176.546c-.21.098-.336.084-.406-.14l-.21-.644c-.056-.182-.042-.322.168-.42l1.736-.84c.168-.084.308-.126.49-.126h.686c.196 0 .266.07.266.28v9.198c0 .21-.07.28-.266.28h-1.008c-.21 0-.28-.07-.28-.28zm3.472 0v-1.008c0-.21.056-.28.28-.28h1.232c.21 0 .28.07.28.28v1.008c0 .21-.07.28-.28.28h-1.232c-.224 0-.28-.07-.28-.28zm3.962-.14l-.07-.756c-.028-.196.028-.294.238-.252.35.07 1.204.224 1.96.224h.042c1.064 0 1.596-.21 1.596-1.134v-1.092c0-.364.014-.966.014-.966-.252.238-.7.448-1.54.448h-.112c-1.54 0-2.562-.644-2.562-2.59v-.84c0-1.904 1.12-2.548 2.856-2.548h.098c1.722 0 2.786.63 2.786 2.492v5.054c0 1.932-1.092 2.506-3.108 2.506h-.042a8.028 8.028 0 0 1-1.848-.21c-.224-.056-.28-.126-.308-.336zm2.31-4.802h.14c.84 0 1.302-.252 1.302-1.274v-.882c0-1.064-.42-1.302-1.274-1.302h-.07c-.84 0-1.316.238-1.316 1.302v.868c0 1.036.378 1.288 1.218 1.288zM56.114 163.72v-7.854l-1.176.546c-.21.098-.336.084-.406-.14l-.21-.644c-.056-.182-.042-.322.168-.42l1.736-.84c.168-.084.308-.126.49-.126h.686c.196 0 .266.07.266.28v9.198c0 .21-.07.28-.266.28h-1.008c-.21 0-.28-.07-.28-.28zm3.472 0v-1.008c0-.21.056-.28.28-.28h1.232c.21 0 .28.07.28.28v1.008c0 .21-.07.28-.28.28h-1.232c-.224 0-.28-.07-.28-.28zm3.542-2.198v-.588c0-1.232.448-1.862 1.134-2.086-.546-.238-.938-.868-.938-1.876v-.448c0-1.778 1.078-2.45 2.8-2.45h.14c1.722 0 2.702.686 2.702 2.45v.448c0 .994-.406 1.61-.938 1.848.686.224 1.134.882 1.134 2.114v.588c0 1.974-.938 2.646-2.996 2.646h-.126c-2.058 0-2.912-.672-2.912-2.646zm2.954-3.22h.056c.882 0 1.302-.308 1.302-1.246v-.49c0-.938-.322-1.246-1.232-1.246h-.07c-.91 0-1.288.294-1.288 1.232v.504c0 .938.336 1.246 1.232 1.246zm-.028 4.564h.112c.98 0 1.442-.238 1.442-1.372v-.56c0-1.092-.336-1.4-1.386-1.4h-.098c-1.064 0-1.442.322-1.442 1.4v.546c0 1.148.392 1.386 1.372 1.386zM56.114 183.72v-7.854l-1.176.546c-.21.098-.336.084-.406-.14l-.21-.644c-.056-.182-.042-.322.168-.42l1.736-.84c.168-.084.308-.126.49-.126h.686c.196 0 .266.07.266.28v9.198c0 .21-.07.28-.266.28h-1.008c-.21 0-.28-.07-.28-.28zm3.472 0v-1.008c0-.21.056-.28.28-.28h1.232c.21 0 .28.07.28.28v1.008c0 .21-.07.28-.28.28h-1.232c-.224 0-.28-.07-.28-.28zm3.458-.028l3.668-8.19H62.89c-.21 0-.294-.07-.266-.28l.098-.7c.028-.21.098-.28.294-.28h4.998c.196 0 .266.07.266.28v.742c0 .182-.014.336-.098.532l-3.5 7.966c-.084.196-.168.238-.378.238h-1.078c-.21 0-.266-.112-.182-.308zM56.114 205.72v-7.854l-1.176.546c-.21.098-.336.084-.406-.14l-.21-.644c-.056-.182-.042-.322.168-.42l1.736-.84c.168-.084.308-.126.49-.126h.686c.196 0 .266.07.266.28v9.198c0 .21-.07.28-.266.28h-1.008c-.21 0-.28-.07-.28-.28zm3.472 0v-1.008c0-.21.056-.28.28-.28h1.232c.21 0 .28.07.28.28v1.008c0 .21-.07.28-.28.28h-1.232c-.224 0-.28-.07-.28-.28zm3.598-2.072v-4.97c0-1.89 1.05-2.562 2.898-2.562h.042c.966 0 1.75.154 1.918.196.21.042.28.112.294.308l.084.742c.014.196-.028.252-.266.21-.182-.028-1.05-.196-1.876-.196h-.042c-1.008 0-1.512.28-1.512 1.204v.938c0 .364-.014.938-.014.938.266-.238.826-.448 1.582-.448h.07c1.414 0 2.562.672 2.562 2.548v1.092c0 1.876-1.078 2.52-2.842 2.52h-.112c-1.778 0-2.786-.644-2.786-2.52zm2.814 1.19h.07c.854 0 1.33-.252 1.33-1.316v-.938c0-1.022-.392-1.302-1.218-1.302h-.126c-.84 0-1.316.28-1.316 1.302v.938c0 1.064.392 1.316 1.26 1.316z" fill="#313653" fill-rule="nonzero"/><path stroke="#5E6B8D" stroke-width=".5" d="M81 130l8 34h12l12-47h12l12-19h11l12 21h11l11 49h11l12-24h12l9-4h14l11-10h7l8 3 10 53h11l11-77h35l11 5h13l12-21h12l11-14h12l10-9h16"/><path fill-opacity=".45" fill="#CAD5FE" d="M81 130l8 34h12l12-47h12l12-19h11l12 21h11l11 49h11l12-24h12l9-4h14l11-10h7l8 3 10 53h11l11-77h35l11 5h13l12-21h12l11-14h12l10-9h16v133H81z"/><path stroke="#98BA3E" d="M81 145h8l12 19h11l13-59h10l13 14h10l13 34h12l11 11h11l12-4h12l11-39h11l12 11 13 2 11 6h13l10-47h12l12 21h12l11-14h12l10-30h13l12 13h10l12-6h4"/><path fill-opacity=".65" fill="#F5F9CC" d="M81 145h8l12 19h11l13-59h10l13 14h10l13 34h12l11 11h11l12-4h12l11-39h11l12 11 13 2 11 6h13l10-47h12l12 21h12l11-14h12l10-30h13l12 13h10l12-6h4v125H81z"/><path d="M112.84 218.522v-.588c0-1.232.448-1.862 1.134-2.086-.546-.238-.938-.868-.938-1.876v-.448c0-1.778 1.078-2.45 2.8-2.45h.14c1.722 0 2.702.686 2.702 2.45v.448c0 .994-.406 1.61-.938 1.848.686.224 1.134.882 1.134 2.114v.588c0 1.974-.938 2.646-2.996 2.646h-.126c-2.058 0-2.912-.672-2.912-2.646zm2.954-3.22h.056c.882 0 1.302-.308 1.302-1.246v-.49c0-.938-.322-1.246-1.232-1.246h-.07c-.91 0-1.288.294-1.288 1.232v.504c0 .938.336 1.246 1.232 1.246zm-.028 4.564h.112c.98 0 1.442-.238 1.442-1.372v-.56c0-1.092-.336-1.4-1.386-1.4h-.098c-1.064 0-1.442.322-1.442 1.4v.546c0 1.148.392 1.386 1.372 1.386zm4.858-3.682v-1.008c0-.21.056-.28.28-.28h1.232c.21 0 .28.07.28.28v1.008c0 .21-.07.28-.28.28h-1.232c-.224 0-.28-.07-.28-.28zm0 4.536v-1.008c0-.21.056-.28.28-.28h1.232c.21 0 .28.07.28.28v1.008c0 .21-.07.28-.28.28h-1.232c-.224 0-.28-.07-.28-.28zm3.416-.182l-.084-.784c-.014-.196.028-.266.252-.224.378.056 1.442.266 2.24.266 1.162 0 1.61-.196 1.61-1.372v-.574c0-1.176-.406-1.4-1.414-1.4h-2.198c-.196 0-.28-.07-.28-.28v-4.648c0-.21.084-.28.28-.28h4.326c.196 0 .252.07.28.28l.084.686c.014.21-.07.28-.28.28h-3.136v2.674h.98c2.03 0 2.912.686 2.912 2.688v.658c0 2.058-1.064 2.618-3.08 2.618-1.12 0-1.932-.182-2.198-.252-.196-.056-.28-.126-.294-.336zm7.168.182v-2.856c0-1.876.84-2.17 2.422-2.45l.532-.084c.84-.14 1.232-.308 1.232-1.274v-.518c0-1.008-.574-1.162-1.54-1.162h-.056c-.574 0-1.442.14-1.918.252-.196.056-.266-.028-.238-.238l.07-.7c.014-.21.112-.266.294-.322a7.857 7.857 0 0 1 1.932-.252h.042c1.946 0 2.968.56 2.968 2.478v.518c0 1.918-.882 2.198-2.436 2.464l-.602.112c-.742.126-1.148.238-1.148 1.12v1.862h3.962c.21 0 .266.07.252.28l-.084.77c-.028.21-.098.28-.308.28h-5.11c-.196 0-.266-.07-.266-.28zM157.84 218.522v-.588c0-1.232.448-1.862 1.134-2.086-.546-.238-.938-.868-.938-1.876v-.448c0-1.778 1.078-2.45 2.8-2.45h.14c1.722 0 2.702.686 2.702 2.45v.448c0 .994-.406 1.61-.938 1.848.686.224 1.134.882 1.134 2.114v.588c0 1.974-.938 2.646-2.996 2.646h-.126c-2.058 0-2.912-.672-2.912-2.646zm2.954-3.22h.056c.882 0 1.302-.308 1.302-1.246v-.49c0-.938-.322-1.246-1.232-1.246h-.07c-.91 0-1.288.294-1.288 1.232v.504c0 .938.336 1.246 1.232 1.246zm-.028 4.564h.112c.98 0 1.442-.238 1.442-1.372v-.56c0-1.092-.336-1.4-1.386-1.4h-.098c-1.064 0-1.442.322-1.442 1.4v.546c0 1.148.392 1.386 1.372 1.386zm4.858-3.682v-1.008c0-.21.056-.28.28-.28h1.232c.21 0 .28.07.28.28v1.008c0 .21-.07.28-.28.28h-1.232c-.224 0-.28-.07-.28-.28zm0 4.536v-1.008c0-.21.056-.28.28-.28h1.232c.21 0 .28.07.28.28v1.008c0 .21-.07.28-.28.28h-1.232c-.224 0-.28-.07-.28-.28zm3.416-.182l-.084-.784c-.014-.196.028-.266.252-.224.378.056 1.442.266 2.24.266 1.162 0 1.61-.196 1.61-1.372v-.574c0-1.176-.406-1.4-1.414-1.4h-2.198c-.196 0-.28-.07-.28-.28v-4.648c0-.21.084-.28.28-.28h4.326c.196 0 .252.07.28.28l.084.686c.014.21-.07.28-.28.28h-3.136v2.674h.98c2.03 0 2.912.686 2.912 2.688v.658c0 2.058-1.064 2.618-3.08 2.618-1.12 0-1.932-.182-2.198-.252-.196-.056-.28-.126-.294-.336zm6.776-2.492l-.112-.7c-.028-.224.042-.336.126-.518l2.814-5.516c.098-.196.196-.196.392-.126l.91.294c.21.07.196.168.112.35l-1.498 2.856c-.42.784-1.274 2.366-1.274 2.366h2.856v-1.75c0-.21.084-.294.294-.294h.966c.21 0 .294.084.294.28v5.432c0 .21-.084.28-.28.28h-.994c-.21 0-.28-.07-.28-.28v-2.394h-4.046c-.21 0-.252-.07-.28-.28zM203.84 218.522v-.588c0-1.232.448-1.862 1.134-2.086-.546-.238-.938-.868-.938-1.876v-.448c0-1.778 1.078-2.45 2.8-2.45h.14c1.722 0 2.702.686 2.702 2.45v.448c0 .994-.406 1.61-.938 1.848.686.224 1.134.882 1.134 2.114v.588c0 1.974-.938 2.646-2.996 2.646h-.126c-2.058 0-2.912-.672-2.912-2.646zm2.954-3.22h.056c.882 0 1.302-.308 1.302-1.246v-.49c0-.938-.322-1.246-1.232-1.246h-.07c-.91 0-1.288.294-1.288 1.232v.504c0 .938.336 1.246 1.232 1.246zm-.028 4.564h.112c.98 0 1.442-.238 1.442-1.372v-.56c0-1.092-.336-1.4-1.386-1.4h-.098c-1.064 0-1.442.322-1.442 1.4v.546c0 1.148.392 1.386 1.372 1.386zm4.858-3.682v-1.008c0-.21.056-.28.28-.28h1.232c.21 0 .28.07.28.28v1.008c0 .21-.07.28-.28.28h-1.232c-.224 0-.28-.07-.28-.28zm0 4.536v-1.008c0-.21.056-.28.28-.28h1.232c.21 0 .28.07.28.28v1.008c0 .21-.07.28-.28.28h-1.232c-.224 0-.28-.07-.28-.28zm3.416-.182l-.084-.784c-.014-.196.028-.266.252-.224.378.056 1.442.266 2.24.266 1.162 0 1.61-.196 1.61-1.372v-.574c0-1.176-.406-1.4-1.414-1.4h-2.198c-.196 0-.28-.07-.28-.28v-4.648c0-.21.084-.28.28-.28h4.326c.196 0 .252.07.28.28l.084.686c.014.21-.07.28-.28.28h-3.136v2.674h.98c2.03 0 2.912.686 2.912 2.688v.658c0 2.058-1.064 2.618-3.08 2.618-1.12 0-1.932-.182-2.198-.252-.196-.056-.28-.126-.294-.336zm7.21-1.89v-4.97c0-1.89 1.05-2.562 2.898-2.562h.042c.966 0 1.75.154 1.918.196.21.042.28.112.294.308l.084.742c.014.196-.028.252-.266.21-.182-.028-1.05-.196-1.876-.196h-.042c-1.008 0-1.512.28-1.512 1.204v.938c0 .364-.014.938-.014.938.266-.238.826-.448 1.582-.448h.07c1.414 0 2.562.672 2.562 2.548v1.092c0 1.876-1.078 2.52-2.842 2.52h-.112c-1.778 0-2.786-.644-2.786-2.52zm2.814 1.19h.07c.854 0 1.33-.252 1.33-1.316v-.938c0-1.022-.392-1.302-1.218-1.302h-.126c-.84 0-1.316.28-1.316 1.302v.938c0 1.064.392 1.316 1.26 1.316zM243.84 218.522v-.588c0-1.232.448-1.862 1.134-2.086-.546-.238-.938-.868-.938-1.876v-.448c0-1.778 1.078-2.45 2.8-2.45h.14c1.722 0 2.702.686 2.702 2.45v.448c0 .994-.406 1.61-.938 1.848.686.224 1.134.882 1.134 2.114v.588c0 1.974-.938 2.646-2.996 2.646h-.126c-2.058 0-2.912-.672-2.912-2.646zm2.954-3.22h.056c.882 0 1.302-.308 1.302-1.246v-.49c0-.938-.322-1.246-1.232-1.246h-.07c-.91 0-1.288.294-1.288 1.232v.504c0 .938.336 1.246 1.232 1.246zm-.028 4.564h.112c.98 0 1.442-.238 1.442-1.372v-.56c0-1.092-.336-1.4-1.386-1.4h-.098c-1.064 0-1.442.322-1.442 1.4v.546c0 1.148.392 1.386 1.372 1.386zm4.858-3.682v-1.008c0-.21.056-.28.28-.28h1.232c.21 0 .28.07.28.28v1.008c0 .21-.07.28-.28.28h-1.232c-.224 0-.28-.07-.28-.28zm0 4.536v-1.008c0-.21.056-.28.28-.28h1.232c.21 0 .28.07.28.28v1.008c0 .21-.07.28-.28.28h-1.232c-.224 0-.28-.07-.28-.28zm3.416-.182l-.084-.784c-.014-.196.028-.266.252-.224.378.056 1.442.266 2.24.266 1.162 0 1.61-.196 1.61-1.372v-.574c0-1.176-.406-1.4-1.414-1.4h-2.198c-.196 0-.28-.07-.28-.28v-4.648c0-.21.084-.28.28-.28h4.326c.196 0 .252.07.28.28l.084.686c.014.21-.07.28-.28.28h-3.136v2.674h.98c2.03 0 2.912.686 2.912 2.688v.658c0 2.058-1.064 2.618-3.08 2.618-1.12 0-1.932-.182-2.198-.252-.196-.056-.28-.126-.294-.336zm7.154-2.016v-.588c0-1.232.448-1.862 1.134-2.086-.546-.238-.938-.868-.938-1.876v-.448c0-1.778 1.078-2.45 2.8-2.45h.14c1.722 0 2.702.686 2.702 2.45v.448c0 .994-.406 1.61-.938 1.848.686.224 1.134.882 1.134 2.114v.588c0 1.974-.938 2.646-2.996 2.646h-.126c-2.058 0-2.912-.672-2.912-2.646zm2.954-3.22h.056c.882 0 1.302-.308 1.302-1.246v-.49c0-.938-.322-1.246-1.232-1.246h-.07c-.91 0-1.288.294-1.288 1.232v.504c0 .938.336 1.246 1.232 1.246zm-.028 4.564h.112c.98 0 1.442-.238 1.442-1.372v-.56c0-1.092-.336-1.4-1.386-1.4h-.098c-1.064 0-1.442.322-1.442 1.4v.546c0 1.148.392 1.386 1.372 1.386zM296.26 220.58l-.07-.756c-.028-.196.028-.294.238-.252.35.07 1.204.224 1.96.224h.042c1.064 0 1.596-.21 1.596-1.134v-1.092c0-.364.014-.966.014-.966-.252.238-.7.448-1.54.448h-.112c-1.54 0-2.562-.644-2.562-2.59v-.84c0-1.904 1.12-2.548 2.856-2.548h.098c1.722 0 2.786.63 2.786 2.492v5.054c0 1.932-1.092 2.506-3.108 2.506h-.042a8.028 8.028 0 0 1-1.848-.21c-.224-.056-.28-.126-.308-.336zm2.31-4.802h.14c.84 0 1.302-.252 1.302-1.274v-.882c0-1.064-.42-1.302-1.274-1.302h-.07c-.84 0-1.316.238-1.316 1.302v.868c0 1.036.378 1.288 1.218 1.288zm4.802.406v-1.008c0-.21.056-.28.28-.28h1.232c.21 0 .28.07.28.28v1.008c0 .21-.07.28-.28.28h-1.232c-.224 0-.28-.07-.28-.28zm0 4.536v-1.008c0-.21.056-.28.28-.28h1.232c.21 0 .28.07.28.28v1.008c0 .21-.07.28-.28.28h-1.232c-.224 0-.28-.07-.28-.28zm3.598-2.128v-4.942c0-1.89 1.092-2.576 2.996-2.576h.042c1.89 0 2.926.672 2.926 2.562v4.97c0 1.89-1.12 2.562-3.01 2.562h-.042c-1.904 0-2.912-.686-2.912-2.576zm2.884 1.246h.126c.91 0 1.386-.322 1.386-1.218v-5.082c0-.896-.406-1.204-1.316-1.204h-.126c-.91 0-1.386.322-1.386 1.218v5.068c0 .896.406 1.218 1.316 1.218zm4.872-1.246v-4.942c0-1.89 1.092-2.576 2.996-2.576h.042c1.89 0 2.926.672 2.926 2.562v4.97c0 1.89-1.12 2.562-3.01 2.562h-.042c-1.904 0-2.912-.686-2.912-2.576zm2.884 1.246h.126c.91 0 1.386-.322 1.386-1.218v-5.082c0-.896-.406-1.204-1.316-1.204h-.126c-.91 0-1.386.322-1.386 1.218v5.068c0 .896.406 1.218 1.316 1.218zM345.26 220.58l-.07-.756c-.028-.196.028-.294.238-.252.35.07 1.204.224 1.96.224h.042c1.064 0 1.596-.21 1.596-1.134v-1.092c0-.364.014-.966.014-.966-.252.238-.7.448-1.54.448h-.112c-1.54 0-2.562-.644-2.562-2.59v-.84c0-1.904 1.12-2.548 2.856-2.548h.098c1.722 0 2.786.63 2.786 2.492v5.054c0 1.932-1.092 2.506-3.108 2.506h-.042a8.028 8.028 0 0 1-1.848-.21c-.224-.056-.28-.126-.308-.336zm2.31-4.802h.14c.84 0 1.302-.252 1.302-1.274v-.882c0-1.064-.42-1.302-1.274-1.302h-.07c-.84 0-1.316.238-1.316 1.302v.868c0 1.036.378 1.288 1.218 1.288zm4.802.406v-1.008c0-.21.056-.28.28-.28h1.232c.21 0 .28.07.28.28v1.008c0 .21-.07.28-.28.28h-1.232c-.224 0-.28-.07-.28-.28zm0 4.536v-1.008c0-.21.056-.28.28-.28h1.232c.21 0 .28.07.28.28v1.008c0 .21-.07.28-.28.28h-1.232c-.224 0-.28-.07-.28-.28zm3.598-2.128v-4.942c0-1.89 1.092-2.576 2.996-2.576h.042c1.89 0 2.926.672 2.926 2.562v4.97c0 1.89-1.12 2.562-3.01 2.562h-.042c-1.904 0-2.912-.686-2.912-2.576zm2.884 1.246h.126c.91 0 1.386-.322 1.386-1.218v-5.082c0-.896-.406-1.204-1.316-1.204h-.126c-.91 0-1.386.322-1.386 1.218v5.068c0 .896.406 1.218 1.316 1.218zm4.83.882v-2.856c0-1.876.84-2.17 2.422-2.45l.532-.084c.84-.14 1.232-.308 1.232-1.274v-.518c0-1.008-.574-1.162-1.54-1.162h-.056c-.574 0-1.442.14-1.918.252-.196.056-.266-.028-.238-.238l.07-.7c.014-.21.112-.266.294-.322a7.857 7.857 0 0 1 1.932-.252h.042c1.946 0 2.968.56 2.968 2.478v.518c0 1.918-.882 2.198-2.436 2.464l-.602.112c-.742.126-1.148.238-1.148 1.12v1.862h3.962c.21 0 .266.07.252.28l-.084.77c-.028.21-.098.28-.308.28h-5.11c-.196 0-.266-.07-.266-.28zM394.26 220.58l-.07-.756c-.028-.196.028-.294.238-.252.35.07 1.204.224 1.96.224h.042c1.064 0 1.596-.21 1.596-1.134v-1.092c0-.364.014-.966.014-.966-.252.238-.7.448-1.54.448h-.112c-1.54 0-2.562-.644-2.562-2.59v-.84c0-1.904 1.12-2.548 2.856-2.548h.098c1.722 0 2.786.63 2.786 2.492v5.054c0 1.932-1.092 2.506-3.108 2.506h-.042a8.028 8.028 0 0 1-1.848-.21c-.224-.056-.28-.126-.308-.336zm2.31-4.802h.14c.84 0 1.302-.252 1.302-1.274v-.882c0-1.064-.42-1.302-1.274-1.302h-.07c-.84 0-1.316.238-1.316 1.302v.868c0 1.036.378 1.288 1.218 1.288zm4.802.406v-1.008c0-.21.056-.28.28-.28h1.232c.21 0 .28.07.28.28v1.008c0 .21-.07.28-.28.28h-1.232c-.224 0-.28-.07-.28-.28zm0 4.536v-1.008c0-.21.056-.28.28-.28h1.232c.21 0 .28.07.28.28v1.008c0 .21-.07.28-.28.28h-1.232c-.224 0-.28-.07-.28-.28zm3.598-2.128v-4.942c0-1.89 1.092-2.576 2.996-2.576h.042c1.89 0 2.926.672 2.926 2.562v4.97c0 1.89-1.12 2.562-3.01 2.562h-.042c-1.904 0-2.912-.686-2.912-2.576zm2.884 1.246h.126c.91 0 1.386-.322 1.386-1.218v-5.082c0-.896-.406-1.204-1.316-1.204h-.126c-.91 0-1.386.322-1.386 1.218v5.068c0 .896.406 1.218 1.316 1.218zm4.438-1.792l-.112-.7c-.028-.224.042-.336.126-.518l2.814-5.516c.098-.196.196-.196.392-.126l.91.294c.21.07.196.168.112.35l-1.498 2.856c-.42.784-1.274 2.366-1.274 2.366h2.856v-1.75c0-.21.084-.294.294-.294h.966c.21 0 .294.084.294.28v5.432c0 .21-.084.28-.28.28h-.994c-.21 0-.28-.07-.28-.28v-2.394h-4.046c-.21 0-.252-.07-.28-.28zM173.91 26.508v-4.76c0-1.89 1.078-2.632 3.038-2.632.896 0 1.554.154 1.68.182.21.056.28.126.308.322l.07.7c.014.21-.042.266-.252.238-.182-.028-1.008-.182-1.75-.182-1.078 0-1.54.406-1.54 1.358v4.704c0 .952.364 1.358 1.47 1.358.952 0 1.778-.182 1.876-.21.224-.056.294.042.266.224l-.07.756c-.028.182-.098.28-.308.35-.126.028-.798.21-1.848.21-1.946 0-2.94-.742-2.94-2.618zm6.748 2.212v-9.198c0-.21.07-.28.28-.28h2.492c2.128 0 2.954.63 2.954 2.646v.63c0 2.03-.896 2.66-3.01 2.66h-1.148v3.542c0 .21-.07.28-.28.28h-1.008c-.21 0-.28-.07-.28-.28zm1.568-4.83h1.162c1.036 0 1.442-.238 1.442-1.246v-.882c0-1.022-.336-1.274-1.428-1.274h-1.176v3.402zm5.796 2.702v-7.07c0-.21.07-.28.28-.28h1.008c.21 0 .28.07.28.28v7.028c0 .91.378 1.288 1.372 1.288.994 0 1.456-.378 1.456-1.288v-7.028c0-.21.07-.28.28-.28h1.008c.21 0 .28.07.28.28v7.07c0 1.89-1.134 2.576-2.996 2.576h-.07c-1.862 0-2.898-.686-2.898-2.576zm10.934 1.96l-.07-.77c-.028-.182.028-.266.266-.224.462.084 1.274.238 2.086.238 1.232 0 1.624-.266 1.624-1.372v-.35c0-1.05-.308-1.316-1.274-1.526l-.21-.056c-1.512-.322-2.478-.658-2.478-2.506v-.336c0-1.974 1.036-2.534 2.898-2.534.672 0 1.33.098 1.666.196.224.056.294.126.308.336l.084.686c.014.196-.028.28-.252.238a8.436 8.436 0 0 0-1.764-.196c-.896 0-1.386.252-1.386 1.204v.28c0 .882.308 1.106 1.302 1.33l.21.042c1.68.364 2.436.77 2.436 2.73v.434c0 2.086-.854 2.73-3.052 2.73-.938 0-1.806-.154-2.1-.224-.21-.056-.28-.154-.294-.35zm8.68 3.248l-.084-.672c-.014-.224.042-.294.238-.266.112.014.658.056.784.056.546 0 1.176-.042 1.176-.966v-1.358c-.308.322-.924.406-1.372.406h-.028c-1.316 0-2.352-.476-2.352-2.296v-4.382c0-.21.07-.28.266-.308l1.008-.084c.21 0 .294.056.294.266v4.424c0 .784.252 1.092 1.022 1.092h.042c.742 0 1.064-.294 1.064-1.022v-4.494c0-.21.084-.266.294-.266l.994.084c.196.028.266.098.266.308v7.56c0 1.932-1.162 2.296-2.478 2.296-.406 0-.784-.056-.924-.084-.126-.042-.196-.098-.21-.294zm5.278-3.318l-.056-.644c-.028-.21.056-.308.266-.252.532.14 1.302.252 1.988.252h.028c.742 0 1.134-.098 1.134-.784v-.112c0-.546-.196-.742-.966-.91l-.322-.07c-1.428-.294-2.1-.658-2.1-1.988v-.21c0-1.652 1.26-1.918 2.408-1.918h.028c.574 0 1.302.084 1.652.196.196.056.28.154.308.322l.056.63c.014.182-.042.294-.252.252a6.783 6.783 0 0 0-1.624-.196h-.056c-.644 0-.994.154-.994.7v.112c0 .392.098.644.952.826l.364.084c1.316.266 2.058.658 2.058 2.044v.294c0 1.764-1.162 2.016-2.618 2.016h-.042c-.868 0-1.722-.168-1.904-.238-.168-.056-.28-.154-.308-.406zm6.706-1.47v-3.906h-.798c-.224 0-.28-.056-.28-.28v-.574c0-.224.056-.28.28-.28h.798V20.39c0-.196.056-.28.266-.294l.994-.098c.196-.014.28.042.28.266v1.708h1.414c.21 0 .28.042.294.266l.07.602c.014.224-.042.266-.266.266h-1.512v3.906c0 .686.154.784.882.784.308 0 .546-.042.742-.056.154 0 .252.056.238.238l-.084.686c-.014.182-.07.308-.28.336-.224.056-.434.084-.868.084-1.4 0-2.17-.35-2.17-2.072zm4.592-.196v-2.674c0-1.624.896-2.338 2.716-2.338h.154c1.666 0 2.45.7 2.45 2.044v.21c0 1.414-.658 1.862-2.212 1.862-.49 0-1.05-.07-1.582-.196v.938c0 .938.322 1.218 1.414 1.218.826 0 1.33-.112 1.834-.252.196-.056.294.056.28.238l-.07.658c-.028.21-.126.28-.322.364-.266.098-1.064.238-1.89.238h-.098c-1.568 0-2.674-.476-2.674-2.31zm1.526-2.772v.616c.308.084.938.168 1.4.168.728 0 .924-.28.924-.798v-.154c0-.602-.224-.91-1.064-.91h-.084c-.854 0-1.176.294-1.176 1.078zm5.362 4.676v-6.076c0-.196.084-.294.28-.378.448-.21 1.344-.42 2.268-.42h.056c.714 0 1.4.154 1.792.672.42-.476 1.162-.672 1.862-.672h.042c1.358 0 2.366.434 2.366 2.268v4.606c0 .21-.07.28-.28.28h-1.008c-.196 0-.266-.07-.266-.28v-4.662c0-.784-.322-1.008-.952-1.008h-.042c-.616 0-1.008.224-1.008 1.008v4.662c0 .21-.084.28-.28.28h-.994c-.196 0-.266-.07-.266-.28v-4.676c0-.756-.322-.994-.98-.994h-.014c-.308 0-.742.056-1.008.154v5.516c0 .21-.084.28-.28.28h-1.008c-.21 0-.28-.07-.28-.28zm13.79 0v-9.198c0-.21.07-.28.28-.28h1.008c.21 0 .28.07.28.28v8.148h2.954c.224 0 .28.056.266.266l-.098.784c-.014.21-.098.28-.308.28h-4.102c-.21 0-.28-.07-.28-.28zm5.978-1.862v-2.744c0-1.834 1.19-2.31 2.674-2.31h.14c1.484 0 2.59.476 2.59 2.31v2.744c0 1.834-1.176 2.31-2.66 2.31h-.14c-1.484 0-2.604-.476-2.604-2.31zm2.618 1.022h.112c.728 0 1.134-.308 1.134-1.106v-2.688c0-.798-.336-1.078-1.064-1.078h-.126c-.728 0-1.12.28-1.12 1.078v2.702c0 .784.336 1.092 1.064 1.092zm4.242-.854v-.266c0-1.68 1.232-2.002 2.66-2.1.546-.042 1.148-.042 1.148-.042v-.49c0-.798-.322-1.092-1.078-1.092-.672 0-1.316.126-1.792.238-.224.056-.294-.056-.266-.238l.056-.63c.014-.182.07-.266.266-.336.322-.098 1.008-.224 1.792-.224 1.442 0 2.548.49 2.548 2.324v4.144c0 .21-.084.308-.28.392-.448.196-1.386.42-2.422.42-1.736 0-2.632-.476-2.632-2.1zm1.512-.252v.196c0 .63.28.952 1.148.952.35 0 .854-.042 1.148-.14V25.71s-.728.014-1.12.056c-.798.07-1.176.266-1.176 1.008zm5.558.112v-2.772c0-1.89 1.232-2.31 2.38-2.31h.042c.756 0 1.232.224 1.47.406 0 0-.028-.56-.028-1.036v-2.072c0-.224.07-.266.28-.266l.994.084c.21.028.266.112.266.322v7.7c0 1.82-1.148 2.226-2.66 2.226h-.14c-1.484 0-2.604-.434-2.604-2.282zm2.618.994h.112c.728 0 1.134-.266 1.134-1.064v-2.73c0-.686-.35-1.078-1.092-1.078h-.098c-.728 0-1.12.28-1.12 1.078v2.73c0 .798.336 1.064 1.064 1.064zm13.678 1.064l-1.008.112c-.21.028-.28-.014-.322-.224l-.476-2.114H276.6l-.448 2.114c-.042.182-.126.252-.322.224l-.966-.112c-.196-.028-.266-.084-.224-.294l2.1-9.128c.056-.21.14-.28.35-.28h1.792c.196 0 .294.07.336.28l2.1 9.128c.042.21-.028.266-.224.294zm-2.002-3.43l-1.106-4.998h-.056l-1.12 4.998h2.282zm4.522 3.22l-1.694-6.398c-.042-.21.042-.294.238-.322l.98-.084c.21-.028.28.056.322.266l.77 3.122c.154.63.378 1.68.462 2.296h.056c.112-.63.336-1.68.476-2.296l.756-3.122c.042-.21.126-.294.336-.266l.938.084c.182.028.28.112.224.322l-1.68 6.398c-.042.21-.14.266-.336.266h-1.512c-.196 0-.294-.056-.336-.266zm5.012-1.918v-2.674c0-1.624.896-2.338 2.716-2.338h.154c1.666 0 2.45.7 2.45 2.044v.21c0 1.414-.658 1.862-2.212 1.862-.49 0-1.05-.07-1.582-.196v.938c0 .938.322 1.218 1.414 1.218.826 0 1.33-.112 1.834-.252.196-.056.294.056.28.238l-.07.658c-.028.21-.126.28-.322.364-.266.098-1.064.238-1.89.238h-.098c-1.568 0-2.674-.476-2.674-2.31zm1.526-2.772v.616c.308.084.938.168 1.4.168.728 0 .924-.28.924-.798v-.154c0-.602-.224-.91-1.064-.91h-.084c-.854 0-1.176.294-1.176 1.078zm5.32 4.676v-4.718c0-1.764.84-2.156 2.254-2.156.434 0 .812.042 1.05.098.182.056.266.14.28.322l.056.812c.014.182-.07.266-.252.224a5.277 5.277 0 0 0-.924-.084c-.476 0-.896.056-.896.854v4.648c0 .21-.084.28-.28.28h-1.008c-.21 0-.28-.07-.28-.28zm4.438-1.694v-.266c0-1.68 1.232-2.002 2.66-2.1.546-.042 1.148-.042 1.148-.042v-.49c0-.798-.322-1.092-1.078-1.092-.672 0-1.316.126-1.792.238-.224.056-.294-.056-.266-.238l.056-.63c.014-.182.07-.266.266-.336.322-.098 1.008-.224 1.792-.224 1.442 0 2.548.49 2.548 2.324v4.144c0 .21-.084.308-.28.392-.448.196-1.386.42-2.422.42-1.736 0-2.632-.476-2.632-2.1zm1.512-.252v.196c0 .63.28.952 1.148.952.35 0 .854-.042 1.148-.14V25.71s-.728.014-1.12.056c-.798.07-1.176.266-1.176 1.008zm5.11 3.276v-.252c0-.91.504-1.47 1.162-1.722a1.08 1.08 0 0 1-.63-.994v-.14c0-.35.182-.798.728-1.008-.532-.322-.84-.826-.84-1.694v-.322c0-1.708 1.218-2.114 2.688-2.114h.112c1.47 0 2.618.406 2.618 2.114v.322c0 1.708-1.26 2.17-2.73 2.17-.21 0-.364.014-.504.028-.532.056-.686.238-.686.574v.028c0 .448.252.616 1.246.616h.07c1.834 0 3.15.266 3.15 2.142v.252c0 1.862-1.386 2.198-3.22 2.198-1.862 0-3.164-.336-3.164-2.198zm3.066-4.802h.098c.77 0 1.162-.308 1.162-1.036v-.252c0-.728-.35-1.008-1.12-1.008h-.098c-.784 0-1.176.28-1.176 1.008v.252c0 .728.364 1.036 1.134 1.036zm-1.526 4.592v.168c0 .91.63 1.05 1.624 1.05.994 0 1.694-.126 1.694-1.05v-.168c0-.924-.658-1.022-1.638-1.022-.994 0-1.68.112-1.68 1.022zm5.838-3.024v-2.674c0-1.624.896-2.338 2.716-2.338h.154c1.666 0 2.45.7 2.45 2.044v.21c0 1.414-.658 1.862-2.212 1.862-.49 0-1.05-.07-1.582-.196v.938c0 .938.322 1.218 1.414 1.218.826 0 1.33-.112 1.834-.252.196-.056.294.056.28.238l-.07.658c-.028.21-.126.28-.322.364-.266.098-1.064.238-1.89.238h-.098c-1.568 0-2.674-.476-2.674-2.31zm1.526-2.772v.616c.308.084.938.168 1.4.168.728 0 .924-.28.924-.798v-.154c0-.602-.224-.91-1.064-.91h-.084c-.854 0-1.176.294-1.176 1.078z" fill="#313653" fill-rule="nonzero"/></g></svg>