<svg width="560" height="743" xmlns="http://www.w3.org/2000/svg"><g fill="none" fill-rule="evenodd"><path d="M3 0h554a3 3 0 0 1 3 3v737a3 3 0 0 1-3 3H3a3 3 0 0 1-3-3V3a3 3 0 0 1 3-3z" fill="#FFF"/><path fill="#FFF" d="M50 404.368h431v187.244H50z"/><path d="M130.5 572.045h349.973M130.5 592.785h349.973M130.5 551.305h349.973M130.5 530.566h349.973M130.5 509.826h349.973M130.5 489.086h349.973M130.5 468.346h349.973M130.5 447.607h349.973M130.5 426.867h349.973M130.5 406.127h349.973M130.5 385.387h349.973M130.5 364.647h349.973M130.5 343.908h349.973M130.5 323.168h349.973M130.5 302.428h349.973M130.5 281.688h349.973M130.5 260.948h349.973M130.5 240.209h349.973M130.5 219.293h349.973M130.5 198.378h349.973M130.5 177.462h349.973M130.5 156.546h349.973" stroke="#979797" stroke-width=".5" stroke-linecap="square"/><path d="M104.462 449.232l-.112-.697c-.028-.223.042-.335.126-.516l2.814-5.494c.098-.195.196-.195.392-.125l.91.293c.21.07.196.167.112.348l-1.498 2.845c-.42.78-1.274 2.356-1.274 2.356h2.856V446.5c0-.209.084-.293.294-.293h.966c.21 0 .294.084.294.28v5.41c0 .209-.084.278-.28.278h-.994c-.21 0-.28-.07-.28-.279v-2.384h-4.046c-.21 0-.252-.07-.28-.279zm7.63 2.663v-1.004c0-.209.056-.278.28-.278h1.232c.21 0 .28.07.28.278v1.004c0 .21-.07.28-.28.28h-1.232c-.224 0-.28-.07-.28-.28zm3.598-2.12v-4.921c0-1.883 1.092-2.566 2.996-2.566h.042c1.89 0 2.926.67 2.926 2.552v4.95c0 1.882-1.12 2.552-3.01 2.552h-.042c-1.904 0-2.912-.684-2.912-2.566zm2.884 1.242h.126c.91 0 1.386-.32 1.386-1.213v-5.062c0-.892-.406-1.199-1.316-1.199h-.126c-.91 0-1.386.32-1.386 1.213v5.048c0 .892.406 1.213 1.316 1.213zm-13.86-40.138l-.084-.78c-.014-.196.028-.266.252-.224.378.056 1.442.265 2.24.265 1.162 0 1.61-.195 1.61-1.366v-.572c0-1.171-.406-1.395-1.414-1.395h-2.198c-.196 0-.28-.07-.28-.278v-4.63c0-.209.084-.279.28-.279h4.326c.196 0 .252.07.28.28l.084.682c.014.21-.07.28-.28.28h-3.136v2.663h.98c2.03 0 2.912.683 2.912 2.677v.655c0 2.05-1.064 2.608-3.08 2.608-1.12 0-1.932-.182-2.198-.251-.196-.056-.28-.126-.294-.335zm7.224.181v-1.004c0-.209.056-.279.28-.279h1.232c.21 0 .28.07.28.28v1.003c0 .21-.07.28-.28.28h-1.232c-.224 0-.28-.07-.28-.28zm3.598-2.12v-4.921c0-1.883 1.092-2.566 2.996-2.566h.042c1.89 0 2.926.67 2.926 2.552v4.95c0 1.882-1.12 2.551-3.01 2.551h-.042c-1.904 0-2.912-.683-2.912-2.565zm2.884 1.242h.126c.91 0 1.386-.32 1.386-1.213v-5.062c0-.892-.406-1.199-1.316-1.199h-.126c-.91 0-1.386.32-1.386 1.213v5.048c0 .892.406 1.213 1.316 1.213zm-13.524-43.016v-4.95c0-1.883 1.05-2.552 2.898-2.552h.042c.966 0 1.75.153 1.918.195.21.042.28.112.294.307l.084.739c.014.195-.028.25-.266.209-.182-.028-1.05-.195-1.876-.195h-.042c-1.008 0-1.512.279-1.512 1.199v.934c0 .363-.014.934-.014.934.266-.237.826-.446 1.582-.446h.07c1.414 0 2.562.67 2.562 2.538v1.088c0 1.868-1.078 2.51-2.842 2.51h-.112c-1.778 0-2.786-.642-2.786-2.51zm2.814 1.185h.07c.854 0 1.33-.251 1.33-1.311v-.934c0-1.018-.392-1.297-1.218-1.297h-.126c-.84 0-1.316.279-1.316 1.297v.934c0 1.06.392 1.31 1.26 1.31zm4.662.878v-1.004c0-.209.056-.279.28-.279h1.232c.21 0 .28.07.28.28v1.003c0 .21-.07.279-.28.279h-1.232c-.224 0-.28-.07-.28-.279zm3.598-2.12v-4.921c0-1.883 1.092-2.566 2.996-2.566h.042c1.89 0 2.926.67 2.926 2.552v4.95c0 1.882-1.12 2.551-3.01 2.551h-.042c-1.904 0-2.912-.683-2.912-2.565zm2.884 1.242h.126c.91 0 1.386-.321 1.386-1.213v-5.062c0-.892-.406-1.2-1.316-1.2h-.126c-.91 0-1.386.322-1.386 1.214v5.048c0 .892.406 1.213 1.316 1.213zm-14.098-39.985l3.668-8.157h-3.822c-.21 0-.294-.07-.266-.279l.098-.697c.028-.21.098-.279.294-.279h4.998c.196 0 .266.07.266.279v.74c0 .18-.014.334-.098.529l-3.5 7.934c-.084.195-.168.237-.378.237h-1.078c-.21 0-.266-.112-.182-.307zm6.552.028v-1.004c0-.21.056-.279.28-.279h1.232c.21 0 .28.07.28.28v1.003c0 .21-.07.279-.28.279h-1.232c-.224 0-.28-.07-.28-.279zm3.598-2.12v-4.922c0-1.882 1.092-2.565 2.996-2.565h.042c1.89 0 2.926.67 2.926 2.552v4.95c0 1.882-1.12 2.551-3.01 2.551h-.042c-1.904 0-2.912-.683-2.912-2.565zm2.884 1.242h.126c.91 0 1.386-.321 1.386-1.214v-5.061c0-.892-.406-1.2-1.316-1.2h-.126c-.91 0-1.386.321-1.386 1.214v5.047c0 .893.406 1.214 1.316 1.214zm-12.95-43.142v-.586c0-1.227.448-1.854 1.134-2.077-.546-.238-.938-.865-.938-1.869v-.446c0-1.771 1.078-2.44 2.8-2.44h.14c1.722 0 2.702.683 2.702 2.44v.446c0 .99-.406 1.604-.938 1.84.686.224 1.134.88 1.134 2.106v.586c0 1.966-.938 2.635-2.996 2.635h-.126c-2.058 0-2.912-.67-2.912-2.635zm2.954-3.207h.056c.882 0 1.302-.307 1.302-1.241v-.488c0-.935-.322-1.241-1.232-1.241h-.07c-.91 0-1.288.293-1.288 1.227v.502c0 .934.336 1.24 1.232 1.24zm-.028 4.545h.112c.98 0 1.442-.237 1.442-1.366v-.558c0-1.087-.336-1.394-1.386-1.394h-.098c-1.064 0-1.442.32-1.442 1.394v.544c0 1.143.392 1.38 1.372 1.38zm4.858.85v-1.003c0-.21.056-.279.28-.279h1.232c.21 0 .28.07.28.279v1.004c0 .21-.07.279-.28.279h-1.232c-.224 0-.28-.07-.28-.28zm3.598-2.118v-4.923c0-1.882 1.092-2.565 2.996-2.565h.042c1.89 0 2.926.669 2.926 2.551v4.95c0 1.883-1.12 2.552-3.01 2.552h-.042c-1.904 0-2.912-.683-2.912-2.565zm2.884 1.24h.126c.91 0 1.386-.32 1.386-1.213v-5.061c0-.893-.406-1.2-1.316-1.2h-.126c-.91 0-1.386.321-1.386 1.214v5.047c0 .893.406 1.213 1.316 1.213zm-13.846-42.088l-.07-.753c-.028-.195.028-.292.238-.25.35.07 1.204.223 1.96.223h.042c1.064 0 1.596-.21 1.596-1.13V240.6c0-.363.014-.963.014-.963-.252.237-.7.447-1.54.447h-.112c-1.54 0-2.562-.642-2.562-2.58v-.837c0-1.896 1.12-2.537 2.856-2.537h.098c1.722 0 2.786.627 2.786 2.482v5.033c0 1.925-1.092 2.496-3.108 2.496h-.042a8.059 8.059 0 0 1-1.848-.209c-.224-.056-.28-.125-.308-.335zm2.31-4.782h.14c.84 0 1.302-.251 1.302-1.27v-.878c0-1.06-.42-1.296-1.274-1.296h-.07c-.84 0-1.316.237-1.316 1.296v.865c0 1.032.378 1.283 1.218 1.283zm4.802 4.922v-1.004c0-.21.056-.279.28-.279h1.232c.21 0 .28.07.28.279v1.004c0 .209-.07.279-.28.279h-1.232c-.224 0-.28-.07-.28-.28zm3.598-2.12v-4.922c0-1.882 1.092-2.565 2.996-2.565h.042c1.89 0 2.926.669 2.926 2.551v4.95c0 1.883-1.12 2.552-3.01 2.552h-.042c-1.904 0-2.912-.683-2.912-2.566zm2.884 1.241h.126c.91 0 1.386-.32 1.386-1.213v-5.061c0-.893-.406-1.2-1.316-1.2h-.126c-.91 0-1.386.321-1.386 1.214v5.047c0 .893.406 1.213 1.316 1.213zm-18.74-39.957v-7.822l-1.176.544c-.21.098-.336.084-.406-.14l-.21-.64c-.056-.182-.042-.321.168-.419l1.736-.837c.168-.083.308-.125.49-.125h.686c.196 0 .266.07.266.279v9.16c0 .21-.07.28-.266.28h-1.008c-.21 0-.28-.07-.28-.28zm3.458-2.119v-4.922c0-1.882 1.092-2.565 2.996-2.565h.042c1.89 0 2.926.669 2.926 2.551v4.95c0 1.883-1.12 2.552-3.01 2.552h-.042c-1.904 0-2.912-.683-2.912-2.566zm2.884 1.241h.126c.91 0 1.386-.32 1.386-1.213v-5.061c0-.893-.406-1.2-1.316-1.2h-.126c-.91 0-1.386.321-1.386 1.214v5.047c0 .893.406 1.213 1.316 1.213zm4.886.879v-1.004c0-.21.056-.28.28-.28h1.232c.21 0 .28.07.28.28v1.004c0 .209-.07.279-.28.279h-1.232c-.224 0-.28-.07-.28-.28zm3.598-2.12v-4.922c0-1.882 1.092-2.565 2.996-2.565h.042c1.89 0 2.926.669 2.926 2.551v4.95c0 1.883-1.12 2.552-3.01 2.552h-.042c-1.904 0-2.912-.683-2.912-2.566zm2.884 1.241h.126c.91 0 1.386-.32 1.386-1.213v-5.061c0-.893-.406-1.2-1.316-1.2h-.126c-.91 0-1.386.321-1.386 1.214v5.047c0 .893.406 1.213 1.316 1.213zm-15.71-40.952v-7.823l-1.176.544c-.21.098-.336.084-.406-.14l-.21-.64c-.056-.182-.042-.322.168-.42l1.736-.836c.168-.083.308-.125.49-.125h.686c.196 0 .266.07.266.279v9.16c0 .21-.07.28-.266.28h-1.008c-.21 0-.28-.07-.28-.28zm4.676 0v-7.823l-1.176.544c-.21.098-.336.084-.406-.14l-.21-.64c-.056-.182-.042-.322.168-.42l1.736-.836c.168-.083.308-.125.49-.125h.686c.196 0 .266.07.266.279v9.16c0 .21-.07.28-.266.28h-1.008c-.21 0-.28-.07-.28-.28zm3.472 0v-1.004c0-.21.056-.28.28-.28h1.232c.21 0 .28.07.28.28v1.004c0 .209-.07.279-.28.279h-1.232c-.224 0-.28-.07-.28-.28zm3.598-2.12v-4.922c0-1.882 1.092-2.566 2.996-2.566h.042c1.89 0 2.926.67 2.926 2.552v4.95c0 1.883-1.12 2.552-3.01 2.552h-.042c-1.904 0-2.912-.683-2.912-2.566zm2.884 1.241h.126c.91 0 1.386-.32 1.386-1.213v-5.061c0-.893-.406-1.2-1.316-1.2h-.126c-.91 0-1.386.321-1.386 1.213v5.048c0 .892.406 1.213 1.316 1.213zm-11.89 375.367v-2.845c0-1.868.84-2.161 2.422-2.44l.532-.084c.84-.14 1.232-.306 1.232-1.269v-.516c0-1.003-.574-1.157-1.54-1.157h-.056c-.574 0-1.442.14-1.918.251-.196.056-.266-.028-.238-.237l.07-.697c.014-.21.112-.265.294-.32a7.887 7.887 0 0 1 1.932-.252h.042c1.946 0 2.968.558 2.968 2.468v.516c0 1.91-.882 2.19-2.436 2.454l-.602.112c-.742.125-1.148.237-1.148 1.115v1.855h3.962c.21 0 .266.07.252.279l-.084.767c-.028.209-.098.278-.308.278h-5.11c-.196 0-.266-.07-.266-.278zm7.504 0v-1.004c0-.21.056-.28.28-.28h1.232c.21 0 .28.07.28.28v1.004c0 .209-.07.278-.28.278h-1.232c-.224 0-.28-.07-.28-.278zm3.598-2.12v-4.922c0-1.882 1.092-2.566 2.996-2.566h.042c1.89 0 2.926.67 2.926 2.552v4.95c0 1.882-1.12 2.552-3.01 2.552h-.042c-1.904 0-2.912-.683-2.912-2.566zm2.884 1.241h.126c.91 0 1.386-.32 1.386-1.213v-5.062c0-.892-.406-1.199-1.316-1.199h-.126c-.91 0-1.386.321-1.386 1.213v5.048c0 .892.406 1.213 1.316 1.213zm-14.168-42.088l-.07-.78c-.028-.21.028-.266.252-.224.35.056 1.288.223 2.058.223h.098c1.134 0 1.568-.223 1.568-1.338v-.572c0-1.004-.364-1.297-1.386-1.297h-1.232c-.21 0-.28-.07-.28-.265v-.739c0-.195.07-.279.28-.279h1.106c1.008 0 1.414-.265 1.414-1.227v-.46c0-.906-.322-1.213-1.4-1.213h-.028c-.924 0-1.624.126-2.016.195-.224.042-.28-.028-.252-.237l.07-.683c.014-.195.098-.265.294-.32.196-.056 1.022-.21 1.946-.21h.042c2.044 0 2.912.67 2.912 2.51v.404c0 1.018-.504 1.59-1.12 1.8.742.166 1.204.766 1.204 2.09v.517c0 1.98-.896 2.649-2.996 2.649h-.07c-.938 0-1.736-.126-2.1-.223-.21-.056-.266-.126-.294-.32zm7.21.14v-1.004c0-.21.056-.28.28-.28h1.232c.21 0 .28.07.28.28v1.004c0 .209-.07.278-.28.278h-1.232c-.224 0-.28-.07-.28-.278zm3.598-2.12v-4.922c0-1.882 1.092-2.566 2.996-2.566h.042c1.89 0 2.926.67 2.926 2.552v4.95c0 1.882-1.12 2.552-3.01 2.552h-.042c-1.904 0-2.912-.684-2.912-2.566zm2.884 1.241h.126c.91 0 1.386-.32 1.386-1.213v-5.062c0-.892-.406-1.199-1.316-1.199h-.126c-.91 0-1.386.32-1.386 1.213v5.048c0 .892.406 1.213 1.316 1.213zm-12.25 84.541v-7.823l-1.176.544c-.21.098-.336.084-.406-.14l-.21-.64c-.056-.182-.042-.321.168-.42l1.736-.836c.168-.083.308-.125.49-.125h.686c.196 0 .266.07.266.279v9.16c0 .21-.07.28-.266.28h-1.008c-.21 0-.28-.07-.28-.28zm3.472 0v-1.004c0-.21.056-.28.28-.28h1.232c.21 0 .28.07.28.28v1.004c0 .209-.07.279-.28.279h-1.232c-.224 0-.28-.07-.28-.28zm3.598-2.12v-4.922c0-1.882 1.092-2.566 2.996-2.566h.042c1.89 0 2.926.67 2.926 2.552v4.95c0 1.883-1.12 2.552-3.01 2.552h-.042c-1.904 0-2.912-.683-2.912-2.566zm2.884 1.241h.126c.91 0 1.386-.32 1.386-1.213v-5.061c0-.893-.406-1.2-1.316-1.2h-.126c-.91 0-1.386.321-1.386 1.214v5.047c0 .893.406 1.213 1.316 1.213zM244.535 69.177l-.085-.932c-.034-.22.034-.321.323-.27.56.101 1.547.287 2.532.287 1.496 0 1.972-.321 1.972-1.659v-.423c0-1.27-.373-1.592-1.546-1.846l-.255-.067c-1.837-.39-3.01-.796-3.01-3.031v-.407c0-2.387 1.258-3.064 3.52-3.064.816 0 1.615.118 2.023.237.272.068.357.152.374.406l.101.83c.017.237-.034.338-.305.288a10.283 10.283 0 0 0-2.143-.237c-1.088 0-1.683.304-1.683 1.456v.338c0 1.067.374 1.338 1.582 1.609l.255.05c2.04.44 2.958.932 2.958 3.302v.525c0 2.523-1.037 3.302-3.707 3.302-1.138 0-2.192-.186-2.55-.271-.254-.068-.34-.186-.356-.423zm9.01-1.863V62.59h-.97c-.271 0-.34-.067-.34-.338v-.695c0-.27.069-.338.34-.338h.97v-1.913c0-.237.068-.34.323-.356l1.207-.119c.238-.016.34.051.34.322v2.066h1.717c.255 0 .34.05.356.322l.086.728c.017.27-.052.321-.324.321h-1.835v4.724c0 .83.186.948 1.07.948.375 0 .663-.05.901-.067.188 0 .306.067.29.287l-.102.83c-.017.22-.086.373-.34.406-.272.068-.527.102-1.054.102-1.7 0-2.636-.423-2.636-2.506zm5.287.017v-.322c0-2.031 1.495-2.42 3.23-2.54.662-.05 1.393-.05 1.393-.05v-.593c0-.965-.39-1.32-1.308-1.32-.817 0-1.599.152-2.176.287-.272.068-.358-.067-.324-.287l.069-.762c.017-.22.084-.322.322-.407.392-.118 1.224-.27 2.176-.27 1.752 0 3.094.592 3.094 2.81v5.012c0 .254-.101.372-.34.474-.543.237-1.683.508-2.94.508-2.108 0-3.197-.576-3.197-2.54zm1.836-.305v.237c0 .762.34 1.152 1.394 1.152.424 0 1.036-.051 1.393-.17V65.74s-.883.016-1.36.067c-.969.085-1.428.322-1.428 1.22zm6.817 2.354v-5.706c0-2.133 1.02-2.608 2.736-2.608.527 0 .986.051 1.276.119.22.068.322.17.34.39l.067.981c.017.22-.084.322-.305.271a6.433 6.433 0 0 0-1.123-.101c-.577 0-1.087.067-1.087 1.033v5.62c0 .255-.103.34-.34.34h-1.224c-.255 0-.34-.085-.34-.34zm6.204-2.066V62.59h-.969c-.272 0-.34-.067-.34-.338v-.695c0-.27.069-.338.34-.338h.97v-1.913c0-.237.067-.34.322-.356l1.207-.119c.238-.016.34.051.34.322v2.066h1.717c.255 0 .34.05.358.322l.084.728c.017.27-.05.321-.322.321h-1.837v4.724c0 .83.188.948 1.071.948.375 0 .663-.05.901-.067.188 0 .306.067.29.287l-.103.83c-.017.22-.084.373-.34.406-.272.068-.526.102-1.053.102-1.7 0-2.635-.423-2.635-2.506zm5.185-2.015v-.846c0-.271.068-.339.34-.339h4.301c.273 0 .34.068.34.339v.846c0 .254-.084.322-.34.322h-4.3c-.272 0-.34-.068-.34-.322zm6.698 1.778v-5.435c0-.254.068-.339.324-.372l1.224-.102c.255-.034.356.068.356.322v5.452c0 .982.272 1.371 1.31 1.371.407 0 .952-.05 1.274-.186V61.49c0-.254.103-.356.306-.322l1.259.102c.255.033.322.118.322.372v7.247c0 .254-.084.372-.34.474-.544.237-1.666.508-2.94.508-1.87 0-3.094-.576-3.094-2.794zm8.62 5.96v-9.295c0-2.235 1.41-2.726 3.246-2.726h.17c1.803 0 3.145.575 3.145 2.776v3.336c0 2.286-1.478 2.794-2.89 2.794h-.05c-.613 0-1.394-.119-1.786-.44 0 0 .052.609.052 1.185v2.54c0 .27-.12.338-.392.321l-1.173-.118c-.238-.017-.322-.136-.322-.373zm3.178-4.673h.137c.883 0 1.377-.356 1.377-1.338v-3.234c0-.965-.409-1.32-1.293-1.32h-.153c-.883 0-1.36.305-1.36 1.27v3.318c0 .965.409 1.304 1.293 1.304zm9.877-1.05V62.59h-.969c-.272 0-.34-.067-.34-.338v-.695c0-.27.069-.338.34-.338h.97v-1.913c0-.237.067-.34.322-.356l1.207-.119c.238-.016.34.051.34.322v2.066h1.717c.255 0 .34.05.358.322l.084.728c.017.27-.05.321-.322.321h-1.837v4.724c0 .83.188.948 1.071.948.375 0 .663-.05.901-.067.188 0 .307.067.29.287l-.103.83c-.017.22-.084.373-.34.406-.272.068-.526.102-1.053.102-1.7 0-2.635-.423-2.635-2.506zm5.644-7.992v-1.066c0-.254.085-.339.34-.339h1.394c.255 0 .34.085.34.339v1.066c0 .254-.101.34-.34.34h-1.394c-.255 0-.34-.086-.34-.34zm.085 10.058v-7.738c0-.254.103-.339.324-.372l1.224-.102c.255-.034.356.068.356.322v7.89c0 .254-.101.338-.34.338h-1.224c-.254 0-.34-.084-.34-.338zm4.216 0v-7.348c0-.238.103-.356.34-.458.545-.254 1.632-.508 2.755-.508h.067c.868 0 1.7.187 2.177.813.51-.576 1.41-.813 2.26-.813h.051c1.65 0 2.874.525 2.874 2.743v5.57c0 .255-.086.34-.34.34h-1.224c-.238 0-.323-.085-.323-.34v-5.637c0-.949-.392-1.22-1.156-1.22h-.051c-.749 0-1.225.271-1.225 1.22v5.638c0 .254-.101.338-.34.338h-1.207c-.238 0-.323-.084-.323-.338v-5.655c0-.915-.39-1.202-1.19-1.202h-.017c-.373 0-.9.067-1.224.186v6.67c0 .255-.101.34-.34.34h-1.223c-.256 0-.34-.085-.34-.34zm12.632-2.303v-3.234c0-1.964 1.087-2.827 3.298-2.827h.186c2.024 0 2.976.846 2.976 2.472v.254c0 1.71-.8 2.252-2.686 2.252a8.634 8.634 0 0 1-1.922-.238v1.135c0 1.134.392 1.473 1.718 1.473a7.558 7.558 0 0 0 2.226-.305c.238-.068.358.068.34.288l-.084.796c-.034.254-.153.338-.391.44-.324.119-1.293.288-2.296.288h-.119c-1.904 0-3.246-.576-3.246-2.794zm1.852-3.352v.745c.375.101 1.14.203 1.7.203.885 0 1.123-.339 1.123-.965v-.186c0-.729-.273-1.101-1.293-1.101h-.102c-1.036 0-1.428.356-1.428 1.304zm6.478.169v-1.22c0-.253.067-.338.34-.338h1.495c.256 0 .34.085.34.339v1.219c0 .254-.084.339-.34.339h-1.495c-.273 0-.34-.085-.34-.339zm0 5.486v-1.22c0-.253.067-.338.34-.338h1.495c.256 0 .34.085.34.339v1.219c0 .254-.084.338-.34.338h-1.495c-.273 0-.34-.084-.34-.338zM90.022 86.658v-5.841c0-2.286 1.325-3.183 3.773-3.183h.17c2.448 0 3.672.914 3.672 3.183v5.841c0 2.286-1.326 3.183-3.773 3.183h-.17c-2.448 0-3.672-.897-3.672-3.183zm3.688 1.575h.137c1.343 0 1.887-.542 1.887-1.643V80.8c0-1.1-.442-1.643-1.785-1.643h-.153c-1.344 0-1.87.542-1.87 1.643v5.79c0 1.1.442 1.643 1.784 1.643zm6.12 4.724V83.66c0-2.235 1.412-2.726 3.248-2.726h.17c1.801 0 3.144.576 3.144 2.777v3.336c0 2.285-1.478 2.793-2.89 2.793h-.05c-.612 0-1.394-.118-1.785-.44 0 0 .05.61.05 1.185v2.54c0 .27-.118.339-.39.322l-1.174-.119c-.238-.017-.323-.135-.323-.372zm3.18-4.673h.135c.885 0 1.377-.356 1.377-1.338v-3.234c0-.965-.407-1.32-1.291-1.32h-.153c-.885 0-1.36.304-1.36 1.27v3.318c0 .965.407 1.304 1.291 1.304zm5.44-1.287v-3.234c0-1.964 1.087-2.828 3.297-2.828h.188c2.022 0 2.974.847 2.974 2.472v.254c0 1.71-.799 2.252-2.686 2.252a8.634 8.634 0 0 1-1.92-.237v1.134c0 1.135.39 1.474 1.716 1.474a7.558 7.558 0 0 0 2.227-.305c.239-.068.358.067.34.288l-.085.795c-.034.254-.153.339-.39.44-.324.12-1.293.288-2.296.288h-.118c-1.904 0-3.248-.575-3.248-2.793zm1.852-3.353v.745c.374.102 1.14.203 1.7.203.885 0 1.123-.338 1.123-.965v-.186c0-.728-.272-1.1-1.293-1.1h-.101c-1.037 0-1.428.355-1.428 1.303zm6.511 5.655v-7.331c0-.254.102-.372.34-.474.544-.237 1.683-.508 2.959-.508 1.853 0 3.077.576 3.077 2.81V89.3c0 .254-.085.34-.34.34h-1.208c-.255 0-.34-.086-.34-.34v-5.485c0-.982-.288-1.372-1.308-1.372-.425 0-.953.05-1.275.186V89.3c0 .254-.103.34-.34.34h-1.225c-.255 0-.34-.086-.34-.34zm12.615 0V78.175c0-.254.084-.338.34-.338h1.224c.255 0 .34.084.34.338v9.855h3.587c.271 0 .34.067.322.321l-.119.948c-.017.254-.119.34-.374.34h-4.98c-.256 0-.34-.086-.34-.34zm7.327-10.057v-1.067c0-.254.084-.338.34-.338h1.393c.256 0 .34.084.34.338v1.067c0 .254-.102.339-.34.339h-1.393c-.256 0-.34-.085-.34-.339zm.084 10.057v-7.737c0-.254.102-.339.323-.373l1.225-.101c.255-.034.357.067.357.321v7.89c0 .254-.102.34-.34.34h-1.225c-.255 0-.34-.086-.34-.34zm4.183-2.031v-9.431c0-.271.085-.356.323-.39l1.207-.101c.255 0 .357.05.357.304v2.574c0 .576-.052 1.185-.052 1.185.375-.27.987-.474 1.82-.474h.05c1.446 0 2.856.508 2.856 2.794v3.335c0 2.219-1.445 2.777-3.246 2.777h-.153c-1.887 0-3.162-.474-3.162-2.573zm3.162 1.016h.153c.883 0 1.36-.356 1.36-1.321v-3.268c0-.965-.409-1.304-1.275-1.304h-.102c-.935 0-1.411.339-1.411 1.304v3.319c0 .982.39 1.27 1.275 1.27zm5.44-1.287v-3.234c0-1.964 1.088-2.828 3.298-2.828h.186c2.023 0 2.975.847 2.975 2.472v.254c0 1.71-.798 2.252-2.685 2.252a8.634 8.634 0 0 1-1.922-.237v1.134c0 1.135.392 1.474 1.718 1.474a7.558 7.558 0 0 0 2.227-.305c.238-.068.357.067.34.288l-.085.795c-.034.254-.153.339-.391.44-.323.12-1.292.288-2.296.288h-.119c-1.904 0-3.246-.575-3.246-2.793zm1.852-3.353v.745c.375.102 1.14.203 1.7.203.885 0 1.123-.338 1.123-.965v-.186c0-.728-.273-1.1-1.293-1.1h-.101c-1.037 0-1.429.355-1.429 1.303zm6.46 5.655v-5.706c0-2.133 1.02-2.607 2.737-2.607.528 0 .987.05 1.275.119.221.067.323.169.34.389l.069.982c.017.22-.085.322-.306.27a6.433 6.433 0 0 0-1.122-.1c-.578 0-1.089.067-1.089 1.032V89.3c0 .254-.102.34-.34.34h-1.224c-.255 0-.34-.086-.34-.34zm6.206-2.065V82.51h-.97c-.272 0-.34-.068-.34-.339v-.694c0-.27.069-.339.34-.339h.97v-1.913c0-.237.067-.339.322-.355l1.208-.119c.238-.017.34.05.34.322v2.065h1.716c.255 0 .34.051.357.322l.085.728c.018.271-.05.322-.322.322h-1.837v4.724c0 .83.188.948 1.072.948.374 0 .662-.05.9-.068.188 0 .306.068.29.288l-.102.83c-.017.22-.085.372-.34.406-.272.068-.527.102-1.054.102-1.7 0-2.635-.424-2.635-2.506zm7.632 5.79l-.101-.812c-.018-.271.05-.356.288-.322.136.017.8.068.952.068.663 0 1.428-.051 1.428-1.169v-1.642c-.374.39-1.121.491-1.666.491h-.034c-1.597 0-2.855-.576-2.855-2.777v-5.3c0-.253.084-.338.322-.372l1.225-.101c.255 0 .357.067.357.321v5.35c0 .949.305 1.321 1.24 1.321h.052c.9 0 1.292-.355 1.292-1.236V81.41c0-.254.101-.321.357-.321l1.207.101c.238.034.323.119.323.373v9.143c0 2.336-1.411 2.777-3.01 2.777a6.39 6.39 0 0 1-1.121-.102c-.154-.05-.238-.119-.256-.356zm11.867-3.708l-2.058-7.737c-.05-.254.052-.356.29-.39l1.19-.101c.255-.034.34.067.39.321l.935 3.776c.188.762.46 2.032.561 2.777h.069a73 73 0 0 1 .577-2.777l.918-3.776c.052-.254.154-.355.409-.321l1.138.101c.221.034.34.136.273.39l-2.04 7.737c-.052.254-.17.322-.409.322h-1.835c-.239 0-.358-.068-.409-.322zm5.933-.304l-.069-.78c-.034-.253.069-.372.323-.304.647.17 1.582.305 2.415.305h.034c.9 0 1.377-.119 1.377-.948v-.136c0-.66-.238-.897-1.173-1.1l-.392-.085c-1.733-.356-2.55-.796-2.55-2.404v-.254c0-1.998 1.53-2.32 2.925-2.32h.034c.697 0 1.58.102 2.006.237.238.068.34.186.374.39l.068.761c.017.22-.052.356-.306.305a8.268 8.268 0 0 0-1.972-.237h-.069c-.781 0-1.206.186-1.206.847v.135c0 .474.119.779 1.155 1l.442.1c1.599.322 2.5.797 2.5 2.473v.355c0 2.134-1.412 2.438-3.18 2.438h-.05c-1.054 0-2.091-.203-2.313-.287-.203-.068-.34-.187-.374-.491zm7.7.287V88.08c0-.254.069-.338.34-.338h1.496c.255 0 .34.084.34.338v1.22c0 .253-.084.338-.34.338h-1.496c-.272 0-.34-.085-.34-.339zm8.212-2.251v-3.32c0-2.217 1.445-2.793 3.246-2.793h.17c1.803 0 3.146.576 3.146 2.794v3.319c0 2.218-1.429 2.793-3.23 2.793h-.17c-1.803 0-3.162-.575-3.162-2.793zm3.179 1.236h.136c.884 0 1.377-.373 1.377-1.338v-3.25c0-.966-.409-1.305-1.292-1.305h-.154c-.883 0-1.36.339-1.36 1.304v3.268c0 .948.408 1.32 1.292 1.32zm5.966-1.05V82.51h-.969c-.272 0-.34-.068-.34-.339v-.694c0-.27.069-.339.34-.339h.97v-1.913c0-.237.067-.339.322-.355l1.207-.119c.238-.017.34.05.34.322v2.065h1.718c.255 0 .34.051.357.322l.085.728c.017.271-.052.322-.323.322H216.5v4.724c0 .83.188.948 1.071.948.374 0 .663-.05.901-.068.188 0 .306.068.29.288l-.102.83c-.018.22-.085.372-.34.406-.273.068-.528.102-1.054.102-1.7 0-2.636-.424-2.636-2.506zm5.696 2.065V77.837c0-.254.084-.356.322-.39l1.225-.101c.255 0 .357.05.357.304v2.54c0 .576-.052 1.236-.052 1.236.375-.338 1.106-.49 1.666-.49h.052c1.462 0 2.822.541 2.822 2.76v5.603c0 .254-.085.34-.34.34h-1.224c-.238 0-.323-.086-.323-.34v-5.62c0-.966-.357-1.288-1.225-1.288h-.084c-.868 0-1.292.322-1.292 1.287V89.3c0 .254-.102.34-.34.34h-1.224c-.256 0-.34-.086-.34-.34zm8.5-2.302v-3.234c0-1.964 1.088-2.828 3.298-2.828h.186c2.023 0 2.975.847 2.975 2.472v.254c0 1.71-.798 2.252-2.685 2.252a8.634 8.634 0 0 1-1.922-.237v1.134c0 1.135.392 1.474 1.718 1.474a7.558 7.558 0 0 0 2.227-.305c.238-.068.357.067.34.288l-.085.795c-.034.254-.153.339-.391.44-.323.12-1.292.288-2.296.288h-.119c-1.904 0-3.246-.575-3.246-2.793zm1.852-3.353v.745c.375.102 1.14.203 1.7.203.885 0 1.123-.338 1.123-.965v-.186c0-.728-.273-1.1-1.293-1.1h-.102c-1.036 0-1.428.355-1.428 1.303zm6.46 5.655v-5.706c0-2.133 1.02-2.607 2.737-2.607.528 0 .987.05 1.275.119.221.067.323.169.34.389l.069.982c.017.22-.085.322-.306.27a6.433 6.433 0 0 0-1.123-.1c-.577 0-1.088.067-1.088 1.032V89.3c0 .254-.102.34-.34.34h-1.224c-.255 0-.34-.086-.34-.34zm9.673-2.031v-9.431c0-.254.085-.356.323-.39l1.225-.101c.254-.034.34.05.34.304v9.533c0 .83.153.999.833.999.136 0 .407-.034.51-.034.203 0 .288.05.272.322l-.102.846c-.017.254-.102.322-.34.373-.136.017-.425.05-.8.05-1.326 0-2.26-.372-2.26-2.471zm4.777-8.026v-1.067c0-.254.085-.338.34-.338h1.394c.255 0 .34.084.34.338v1.067c0 .254-.102.339-.34.339h-1.394c-.255 0-.34-.085-.34-.339zm.085 10.057v-7.737c0-.254.102-.339.323-.373l1.224-.101c.255-.034.357.067.357.321v7.89c0 .254-.102.34-.34.34h-1.224c-.255 0-.34-.086-.34-.34zm3.553 1.609v-.305c0-1.1.612-1.778 1.412-2.082a1.305 1.305 0 0 1-.766-1.203v-.169c0-.423.221-.965.885-1.219-.647-.39-1.02-.999-1.02-2.049v-.39c0-2.065 1.478-2.556 3.264-2.556h.135c1.786 0 3.18.491 3.18 2.557v.39c0 2.065-1.53 2.624-3.315 2.624a5.74 5.74 0 0 0-.613.034c-.646.067-.832.287-.832.694v.034c0 .541.305.745 1.512.745h.085c2.228 0 3.825.321 3.825 2.59v.305c0 2.252-1.683 2.658-3.91 2.658-2.26 0-3.842-.406-3.842-2.658zm3.723-5.808h.12c.935 0 1.41-.372 1.41-1.253v-.304c0-.88-.425-1.22-1.36-1.22h-.118c-.952 0-1.428.34-1.428 1.22v.304c0 .88.441 1.253 1.376 1.253zm-1.852 5.554v.203c0 1.1.764 1.27 1.971 1.27s2.058-.152 2.058-1.27v-.203c0-1.118-.8-1.236-1.99-1.236-1.207 0-2.04.135-2.04 1.236zm7.207-1.355V77.837c0-.254.085-.356.323-.39l1.225-.101c.255 0 .356.05.356.304v2.54c0 .576-.05 1.236-.05 1.236.374-.338 1.105-.49 1.666-.49h.05c1.462 0 2.822.541 2.822 2.76v5.603c0 .254-.084.34-.34.34h-1.224c-.237 0-.322-.086-.322-.34v-5.62c0-.966-.357-1.288-1.224-1.288h-.085c-.868 0-1.293.322-1.293 1.287V89.3c0 .254-.101.34-.34.34h-1.224c-.255 0-.34-.086-.34-.34zm9.027-2.065V82.51h-.969c-.272 0-.34-.068-.34-.339v-.694c0-.27.068-.339.34-.339h.97v-1.913c0-.237.067-.339.322-.355l1.208-.119c.238-.017.34.05.34.322v2.065h1.717c.255 0 .34.051.356.322l.085.728c.017.271-.05.322-.322.322h-1.837v4.724c0 .83.188.948 1.072.948.373 0 .663-.05.9-.068.188 0 .307.068.29.288l-.103.83c-.017.22-.084.372-.34.406-.272.068-.526.102-1.054.102-1.7 0-2.635-.424-2.635-2.506zm6.613 2.082l-1.649-7.754c-.05-.237.052-.356.29-.373l1.19-.118c.238 0 .356.084.407.338l.68 3.81c.17.897.34 2.15.409 2.709h.067c.103-.593.34-1.609.579-2.692l.9-3.725c.069-.254.154-.322.409-.322h1.326c.272 0 .34.068.39.305l.935 3.81c.256 1.134.46 2.082.545 2.624h.067c.085-.542.255-1.812.409-2.692l.68-3.827c.05-.254.135-.338.39-.338l1.14.118c.22.017.357.102.305.356l-1.649 7.788c-.034.237-.135.305-.356.305h-1.769c-.203 0-.305-.068-.356-.305l-.952-4.046c-.238-1-.358-1.88-.442-2.32h-.068c-.051.44-.204 1.388-.409 2.252l-.986 4.097c-.05.254-.153.322-.39.322h-1.7c-.238 0-.34-.068-.392-.322zm10.897-2.32v-3.233c0-1.964 1.089-2.828 3.298-2.828h.188c2.023 0 2.975.847 2.975 2.472v.254c0 1.71-.8 2.252-2.687 2.252a8.634 8.634 0 0 1-1.92-.237v1.134c0 1.135.39 1.474 1.716 1.474a7.558 7.558 0 0 0 2.228-.305c.238-.068.357.067.34.288l-.086.795c-.034.254-.153.339-.39.44-.324.12-1.293.288-2.296.288h-.119c-1.904 0-3.247-.575-3.247-2.793zm1.853-3.352v.745c.375.102 1.14.203 1.7.203.885 0 1.123-.338 1.123-.965v-.186c0-.728-.272-1.1-1.292-1.1h-.103c-1.036 0-1.428.355-1.428 1.303zm6.46-4.402v-1.067c0-.254.086-.338.34-.338h1.394c.255 0 .34.084.34.338v1.067c0 .254-.101.339-.34.339h-1.394c-.255 0-.34-.085-.34-.339zm.086 10.057v-7.737c0-.254.101-.339.322-.373l1.225-.101c.255-.034.356.067.356.321v7.89c0 .254-.101.34-.34.34h-1.224c-.255 0-.34-.086-.34-.34zm3.553 1.609v-.305c0-1.1.612-1.778 1.41-2.082a1.305 1.305 0 0 1-.764-1.203v-.169c0-.423.22-.965.884-1.219-.647-.39-1.02-.999-1.02-2.049v-.39c0-2.065 1.479-2.556 3.264-2.556h.136c1.784 0 3.178.491 3.178 2.557v.39c0 2.065-1.53 2.624-3.315 2.624a5.74 5.74 0 0 0-.612.034c-.645.067-.832.287-.832.694v.034c0 .541.305.745 1.512.745h.086c2.226 0 3.825.321 3.825 2.59v.305c0 2.252-1.683 2.658-3.91 2.658-2.262 0-3.843-.406-3.843-2.658zm3.723-5.808h.118c.935 0 1.411-.372 1.411-1.253v-.304c0-.88-.424-1.22-1.36-1.22h-.118c-.952 0-1.428.34-1.428 1.22v.304c0 .88.442 1.253 1.377 1.253zm-1.853 5.554v.203c0 1.1.764 1.27 1.971 1.27s2.058-.152 2.058-1.27v-.203c0-1.118-.8-1.236-1.99-1.236-1.206 0-2.04.135-2.04 1.236zm7.208-1.355V77.837c0-.254.084-.356.322-.39l1.224-.101c.255 0 .358.05.358.304v2.54c0 .576-.052 1.236-.052 1.236.375-.338 1.106-.49 1.666-.49h.052c1.462 0 2.822.541 2.822 2.76v5.603c0 .254-.086.34-.34.34H316.7c-.238 0-.323-.086-.323-.34v-5.62c0-.966-.358-1.288-1.225-1.288h-.084c-.868 0-1.292.322-1.292 1.287V89.3c0 .254-.103.34-.34.34h-1.224c-.255 0-.34-.086-.34-.34zm9.026-2.065V82.51h-.969c-.271 0-.34-.068-.34-.339v-.694c0-.27.069-.339.34-.339h.97v-1.913c0-.237.067-.339.322-.355l1.207-.119c.238-.017.34.05.34.322v2.065h1.718c.255 0 .34.051.356.322l.086.728c.017.271-.051.322-.324.322h-1.835v4.724c0 .83.186.948 1.07.948.375 0 .663-.05.901-.068.188 0 .306.068.29.288l-.102.83c-.017.22-.086.372-.34.406-.273.068-.528.102-1.055.102-1.7 0-2.635-.424-2.635-2.506zm8.909 2.015l-.103-.932c-.017-.22.051-.338.306-.287.34.084.85.152 1.36.152 1.462 0 1.82-.525 1.82-1.609v-8.398c0-.254.101-.338.34-.338h1.24c.239 0 .324.084.324.338v8.432c0 2.303-1.156 3.183-3.502 3.183a6.088 6.088 0 0 1-1.428-.152c-.255-.05-.34-.17-.357-.39zm7.173-1.998v-.322c0-2.032 1.496-2.421 3.23-2.54.663-.05 1.394-.05 1.394-.05v-.593c0-.965-.39-1.32-1.308-1.32-.817 0-1.599.152-2.176.287-.272.068-.358-.068-.324-.288l.069-.762c.017-.22.084-.321.322-.406.392-.119 1.224-.271 2.176-.271 1.752 0 3.094.593 3.094 2.81v5.012c0 .254-.101.373-.34.475-.543.237-1.683.507-2.94.507-2.109 0-3.197-.575-3.197-2.54zm1.837-.305v.237c0 .762.34 1.151 1.394 1.151.424 0 1.036-.05 1.393-.169v-2.506s-.883.017-1.36.068c-.969.085-1.428.322-1.428 1.219zm8.142 2.37l-2.057-7.737c-.05-.254.052-.356.29-.39l1.19-.101c.255-.034.34.067.39.321l.935 3.776c.188.762.46 2.032.562 2.777h.067a73 73 0 0 1 .578-2.777l.918-3.776c.052-.254.154-.355.409-.321l1.139.101c.22.034.34.136.272.39l-2.04 7.737c-.052.254-.17.322-.409.322h-1.835c-.238 0-.358-.068-.409-.322zm5.798-2.065v-.322c0-2.032 1.495-2.421 3.23-2.54.662-.05 1.393-.05 1.393-.05v-.593c0-.965-.39-1.32-1.308-1.32-.817 0-1.599.152-2.176.287-.273.068-.358-.068-.324-.288l.068-.762c.018-.22.086-.321.324-.406.39-.119 1.224-.271 2.175-.271 1.751 0 3.094.593 3.094 2.81v5.012c0 .254-.101.373-.34.475-.543.237-1.682.507-2.94.507-2.108 0-3.196-.575-3.196-2.54zm1.835-.305v.237c0 .762.34 1.151 1.394 1.151.425 0 1.038-.05 1.394-.169v-2.506s-.883.017-1.36.068c-.969.085-1.428.322-1.428 1.219zm10.507 2.066l-.068-.78c-.034-.253.067-.372.322-.304.647.17 1.582.305 2.414.305h.034c.901 0 1.377-.119 1.377-.948v-.136c0-.66-.238-.897-1.173-1.1l-.39-.085c-1.735-.356-2.55-.796-2.55-2.404v-.254c0-1.998 1.53-2.32 2.923-2.32h.034c.697 0 1.582.102 2.007.237.238.068.34.186.373.39l.069.761c.017.22-.051.356-.307.305a8.268 8.268 0 0 0-1.971-.237h-.068c-.783 0-1.207.186-1.207.847v.135c0 .474.118.779 1.156 1l.441.1c1.599.322 2.5.797 2.5 2.473v.355c0 2.134-1.411 2.438-3.18 2.438h-.05c-1.055 0-2.092-.203-2.313-.287-.203-.068-.34-.187-.373-.491zm7.615-2.015v-3.234c0-1.964 1.089-2.828 3.298-2.828h.188c2.023 0 2.975.847 2.975 2.472v.254c0 1.71-.8 2.252-2.687 2.252a8.634 8.634 0 0 1-1.92-.237v1.134c0 1.135.39 1.474 1.716 1.474a7.558 7.558 0 0 0 2.228-.305c.238-.068.356.067.34.288l-.085.795c-.034.254-.154.339-.392.44-.322.12-1.291.288-2.295.288h-.118c-1.904 0-3.248-.575-3.248-2.793zm1.853-3.353v.745c.375.102 1.14.203 1.7.203.885 0 1.123-.338 1.123-.965v-.186c0-.728-.272-1.1-1.292-1.1h-.103c-1.036 0-1.428.355-1.428 1.303zm6.46 5.655v-5.706c0-2.133 1.02-2.607 2.738-2.607.526 0 .986.05 1.274.119.221.067.324.169.34.389l.068.982c.017.22-.084.322-.305.27a6.433 6.433 0 0 0-1.123-.1c-.577 0-1.087.067-1.087 1.032V89.3c0 .254-.103.34-.34.34h-1.224c-.255 0-.34-.086-.34-.34zm7.072.017l-2.056-7.737c-.052-.254.05-.356.288-.39l1.19-.101c.255-.034.34.067.392.321l.935 3.776c.186.762.459 2.032.56 2.777h.068a73 73 0 0 1 .579-2.777l.918-3.776c.05-.254.152-.355.407-.321l1.14.101c.22.034.34.136.272.39l-2.04 7.737c-.052.254-.17.322-.409.322h-1.836c-.238 0-.356-.068-.408-.322zm6.087-2.32v-3.233c0-1.964 1.088-2.828 3.298-2.828h.187c2.022 0 2.975.847 2.975 2.472v.254c0 1.71-.8 2.252-2.687 2.252a8.634 8.634 0 0 1-1.92-.237v1.134c0 1.135.39 1.474 1.716 1.474a7.558 7.558 0 0 0 2.228-.305c.238-.068.356.067.34.288l-.085.795c-.034.254-.154.339-.392.44-.322.12-1.291.288-2.295.288h-.118c-1.904 0-3.248-.575-3.248-2.793zm1.853-3.352v.745c.374.102 1.139.203 1.7.203.884 0 1.122-.338 1.122-.965v-.186c0-.728-.272-1.1-1.293-1.1h-.101c-1.037 0-1.428.355-1.428 1.303zm6.46 5.655v-5.706c0-2.133 1.02-2.607 2.736-2.607.527 0 .986.05 1.275.119.221.067.324.169.34.389l.068.982c.017.22-.084.322-.305.27a6.433 6.433 0 0 0-1.123-.1c-.577 0-1.088.067-1.088 1.032V89.3c0 .254-.101.34-.34.34h-1.224c-.255 0-.34-.086-.34-.34zm5.524-.287l-.068-.78c-.034-.253.069-.372.324-.304.646.17 1.58.305 2.413.305h.034c.901 0 1.377-.119 1.377-.948v-.136c0-.66-.238-.897-1.173-1.1l-.39-.085c-1.735-.356-2.55-.796-2.55-2.404v-.254c0-1.998 1.53-2.32 2.923-2.32h.034c.697 0 1.582.102 2.007.237.238.068.34.186.373.39l.069.761c.017.22-.052.356-.307.305a8.268 8.268 0 0 0-1.971-.237h-.068c-.783 0-1.208.186-1.208.847v.135c0 .474.12.779 1.156 1l.442.1c1.599.322 2.5.797 2.5 2.473v.355c0 2.134-1.411 2.438-3.18 2.438h-.05c-1.054 0-2.091-.203-2.313-.287-.204-.068-.34-.187-.373-.491zm11.526-1.964v-3.32c0-2.217 1.446-2.793 3.248-2.793h.17c1.802 0 3.144.576 3.144 2.794v3.319c0 2.218-1.428 2.793-3.23 2.793h-.17c-1.802 0-3.161-.575-3.161-2.793zm3.18 1.236h.136c.883 0 1.376-.373 1.376-1.338v-3.25c0-.966-.407-1.305-1.291-1.305h-.154c-.883 0-1.36.339-1.36 1.304v3.268c0 .948.409 1.32 1.293 1.32zm5.559 1.015v-7.331c0-.254.101-.372.34-.474.543-.237 1.683-.508 2.958-.508 1.852 0 3.077.576 3.077 2.81V89.3c0 .254-.086.34-.34.34h-1.207c-.255 0-.34-.086-.34-.34v-5.485c0-.982-.29-1.372-1.31-1.372-.425 0-.952.05-1.274.186V89.3c0 .254-.103.34-.34.34h-1.224c-.255 0-.34-.086-.34-.34zm12.613 0V78.175c0-.254.085-.338.34-.338h1.225c.255 0 .34.084.34.338v4.555h3.57v-4.555c0-.254.085-.338.34-.338h1.224c.255 0 .34.084.34.338V89.3c0 .254-.085.34-.34.34h-1.224c-.255 0-.34-.086-.34-.34v-5.011h-3.57V89.3c0 .254-.085.34-.34.34h-1.225c-.255 0-.34-.086-.34-.34zm9.623-2.251v-3.32c0-2.217 1.445-2.793 3.247-2.793h.17c1.802 0 3.145.576 3.145 2.794v3.319c0 2.218-1.428 2.793-3.23 2.793h-.17c-1.802 0-3.162-.575-3.162-2.793zm3.178 1.236h.137c.884 0 1.377-.373 1.377-1.338v-3.25c0-.966-.409-1.305-1.293-1.305h-.152c-.885 0-1.36.339-1.36 1.304v3.268c0 .948.407 1.32 1.291 1.32zm5.968-1.05V82.51h-.97c-.272 0-.34-.068-.34-.339v-.694c0-.27.068-.339.34-.339h.97v-1.913c0-.237.067-.339.322-.355l1.207-.119c.238-.017.34.05.34.322v2.065h1.718c.255 0 .34.051.356.322l.086.728c.017.271-.052.322-.324.322h-1.836v4.724c0 .83.188.948 1.072.948.374 0 .663-.05.9-.068.188 0 .306.068.29.288l-.102.83c-.017.22-.086.372-.34.406-.272.068-.527.102-1.054.102-1.7 0-2.635-.424-2.635-2.506zm5.524 1.862l-.084-.931c-.035-.22.034-.322.322-.27.561.1 1.547.287 2.534.287 1.495 0 1.971-.322 1.971-1.66V86.1c0-1.27-.374-1.591-1.547-1.845l-.255-.068c-1.835-.39-3.008-.796-3.008-3.03v-.407c0-2.387 1.257-3.065 3.519-3.065.815 0 1.614.119 2.022.237.272.068.358.153.375.407l.101.83c.017.236-.034.338-.305.287a10.283 10.283 0 0 0-2.142-.237c-1.089 0-1.683.305-1.683 1.456v.339c0 1.067.373 1.338 1.58 1.608l.255.051c2.04.44 2.959.931 2.959 3.302v.525c0 2.523-1.037 3.301-3.707 3.301a12.59 12.59 0 0 1-2.55-.27c-.255-.068-.34-.187-.356-.424zm8.551 3.86v-9.295c0-2.235 1.411-2.726 3.248-2.726h.17c1.801 0 3.144.576 3.144 2.777v3.336c0 2.285-1.478 2.793-2.89 2.793h-.05c-.613 0-1.394-.118-1.786-.44 0 0 .051.61.051 1.185v2.54c0 .27-.118.339-.39.322l-1.174-.119c-.238-.017-.322-.135-.322-.372zm3.18-4.672h.135c.885 0 1.377-.356 1.377-1.338v-3.234c0-.965-.408-1.32-1.291-1.32h-.154c-.884 0-1.36.304-1.36 1.27v3.318c0 .965.409 1.304 1.293 1.304zm5.44-1.236v-3.32c0-2.217 1.445-2.793 3.246-2.793h.17c1.803 0 3.145.576 3.145 2.794v3.319c0 2.218-1.428 2.793-3.23 2.793h-.17c-1.802 0-3.161-.575-3.161-2.793zm3.178 1.236h.137c.883 0 1.377-.373 1.377-1.338v-3.25c0-.966-.409-1.305-1.293-1.305h-.153c-.883 0-1.36.339-1.36 1.304v3.268c0 .948.409 1.32 1.293 1.32zm5.967-1.05V82.51h-.969c-.272 0-.34-.068-.34-.339v-.694c0-.27.068-.339.34-.339h.97v-1.913c0-.237.067-.339.322-.355l1.207-.119c.238-.017.34.05.34.322v2.065h1.718c.255 0 .34.051.356.322l.085.728c.018.271-.05.322-.322.322h-1.837v4.724c0 .83.188.948 1.072.948.373 0 .663-.05.9-.068.188 0 .307.068.29.288l-.103.83c-.017.22-.084.372-.34.406-.272.068-.526.102-1.053.102-1.7 0-2.636-.424-2.636-2.506z" fill="#313653" fill-rule="nonzero"/><path fill="#E6EDA8" d="M139 518.905h31v73.702h-31z"/><path fill="#C8D2D2" d="M433.762 215.131h32v377.476h-32zm-49.627 170.313h32v207.164h-32zm-48.627 47.807h31v159.357h-31zm-48.627-14.94h31v174.296h-31zm-49.627-16.932h32v191.228h-32zm-49.627 48.803h32v142.425h-32z"/><path d="M69.829 394.64h-3.89v.797c0 .224-.056.28-.28.28h-.571c-.223 0-.279-.056-.279-.28v-.798h-1.575c-.196 0-.28-.056-.293-.266l-.098-.994c-.014-.196.042-.28.265-.28h1.701v-1.414c0-.21.042-.28.265-.294l.6-.07c.223-.014.265.042.265.266v1.512h3.89c.683 0 .78-.154.78-.882 0-.308-.041-.546-.055-.742 0-.154.056-.252.237-.238l.683.084c.182.014.307.07.335.28.056.224.084.434.084.868 0 1.4-.349 2.17-2.064 2.17zm-6.582-4.649h-.878c-.21 0-.279-.07-.279-.28v-1.148c0-.21.07-.28.279-.28h.878c.21 0 .28.084.28.28v1.148c0 .21-.07.28-.28.28zm8.283-.07h-6.372c-.21 0-.28-.084-.307-.266l-.084-1.008c-.028-.21.056-.294.265-.294h6.498c.21 0 .279.084.279.28v1.008c0 .21-.07.28-.279.28zm0-3.472h-6.052c-.195 0-.292-.084-.376-.28-.21-.448-.418-1.344-.418-2.268v-.056c0-.714.153-1.4.669-1.792-.474-.42-.67-1.162-.67-1.862v-.042c0-1.358.433-2.366 2.26-2.366h4.587c.21 0 .279.07.279.28v1.008c0 .196-.07.266-.279.266h-4.643c-.781 0-1.004.322-1.004.952v.042c0 .616.223 1.008 1.004 1.008h4.643c.21 0 .279.084.279.28v.994c0 .196-.07.266-.279.266h-4.657c-.753 0-.99.322-.99.98v.014c0 .308.056.742.153 1.008h5.494c.21 0 .279.084.279.28v1.008c0 .21-.07.28-.279.28zm-1.896-10.402H66.97c-1.617 0-2.328-.896-2.328-2.716v-.154c0-1.666.697-2.45 2.036-2.45h.209c1.408 0 1.854.658 1.854 2.212 0 .49-.07 1.05-.195 1.582h.934c.935 0 1.213-.322 1.213-1.414 0-.826-.111-1.33-.25-1.834-.056-.196.055-.294.236-.28l.656.07c.209.028.279.126.362.322.098.266.237 1.064.237 1.89v.098c0 1.568-.474 2.674-2.3 2.674zm-2.761-1.526h.613a6.52 6.52 0 0 0 .168-1.4c0-.728-.28-.924-.795-.924h-.153c-.6 0-.907.224-.907 1.064v.084c0 .854.293 1.176 1.074 1.176zm-3.626-8.54h-.878c-.21 0-.279-.07-.279-.28v-1.148c0-.21.07-.28.279-.28h.878c.21 0 .28.084.28.28v1.148c0 .21-.07.28-.28.28zm8.283-.07h-6.372c-.21 0-.28-.084-.307-.266l-.084-1.008c-.028-.21.056-.294.265-.294h6.498c.21 0 .279.084.279.28v1.008c0 .21-.07.28-.279.28zm0-3.472h-6.038c-.209 0-.306-.084-.39-.28-.195-.448-.418-1.386-.418-2.436 0-1.526.474-2.534 2.314-2.534h4.532c.21 0 .279.07.279.28v.994c0 .21-.07.28-.279.28h-4.518c-.808 0-1.13.238-1.13 1.078 0 .35.043.784.154 1.05h5.494c.21 0 .279.084.279.28v1.008c0 .21-.07.28-.279.28zm-.237-10.094l-.641.056c-.21.028-.307-.056-.251-.266.139-.532.25-1.302.25-1.988v-.028c0-.742-.097-1.134-.78-1.134h-.112c-.544 0-.739.196-.906.966l-.07.322c-.293 1.428-.655 2.1-1.98 2.1h-.209c-1.645 0-1.91-1.26-1.91-2.408v-.028c0-.574.083-1.302.195-1.652.056-.196.153-.28.32-.308l.628-.056c.181-.014.293.042.251.252a6.81 6.81 0 0 0-.195 1.624v.056c0 .644.153.994.697.994h.112c.39 0 .641-.098.822-.952l.084-.364c.265-1.316.655-2.058 2.036-2.058h.293c1.756 0 2.007 1.162 2.007 2.618v.042c0 .868-.167 1.722-.237 1.904-.055.168-.153.28-.404.308zm-1.66-6.272H66.97c-1.617 0-2.328-.896-2.328-2.716v-.154c0-1.666.697-2.45 2.036-2.45h.209c1.408 0 1.854.658 1.854 2.212 0 .49-.07 1.05-.195 1.582h.934c.935 0 1.213-.322 1.213-1.414 0-.826-.111-1.33-.25-1.834-.056-.196.055-.294.236-.28l.656.07c.209.028.279.126.362.322.098.266.237 1.064.237 1.89v.098c0 1.568-.474 2.674-2.3 2.674zm-2.76-1.526h.613a6.52 6.52 0 0 0 .168-1.4c0-.728-.28-.924-.795-.924h-.153c-.6 0-.907.224-.907 1.064v.084c0 .854.293 1.176 1.074 1.176zm3.848-9.688l.67.07c.209.028.292.098.362.308.098.308.181.924.181 1.526v.042c0 1.358-.474 2.478-2.314 2.478h-2.622c-1.826 0-2.314-1.176-2.314-2.492v-.042c0-.56.055-1.078.167-1.47.056-.196.14-.28.335-.294l.6-.056c.236-.014.306.042.25.266-.056.322-.153.882-.153 1.386v.056c0 .672.293 1.078 1.115 1.078h2.552c.809 0 1.102-.336 1.102-1.092v-.056c0-.476-.098-1.078-.168-1.414-.056-.224.028-.308.237-.294zm-1.045-1.288h-2.733c-1.827 0-2.301-1.19-2.301-2.674v-.14c0-1.484.474-2.59 2.3-2.59h2.734c1.826 0 2.3 1.176 2.3 2.66v.14c0 1.484-.474 2.604-2.3 2.604zm1.017-2.618v-.112c0-.728-.306-1.134-1.101-1.134h-2.677c-.795 0-1.074.336-1.074 1.064v.126c0 .728.279 1.12 1.074 1.12h2.69c.782 0 1.088-.336 1.088-1.064zm.837-4.578h-6.038c-.209 0-.306-.084-.39-.28-.195-.448-.418-1.386-.418-2.436 0-1.526.474-2.534 2.314-2.534h4.532c.21 0 .279.07.279.28v.994c0 .21-.07.28-.279.28h-4.518c-.808 0-1.13.238-1.13 1.078 0 .35.043.784.154 1.05h5.494c.21 0 .279.084.279.28v1.008c0 .21-.07.28-.279.28zm-1.827-7h-2.76c-1.883 0-2.301-1.232-2.301-2.38v-.042c0-.756.223-1.232.404-1.47 0 0-.558.028-1.032.028h-2.063c-.223 0-.265-.07-.265-.28l.083-.994c.028-.21.112-.266.321-.266h7.67c1.812 0 2.216 1.148 2.216 2.66v.14c0 1.484-.432 2.604-2.273 2.604zm.99-2.618v-.112c0-.728-.265-1.134-1.06-1.134h-2.718c-.684 0-1.074.35-1.074 1.092v.098c0 .728.279 1.12 1.074 1.12h2.719c.794 0 1.06-.336 1.06-1.064zm.6-4.438l-.641.056c-.21.028-.307-.056-.251-.266.139-.532.25-1.302.25-1.988v-.028c0-.742-.097-1.134-.78-1.134h-.112c-.544 0-.739.196-.906.966l-.07.322c-.293 1.428-.655 2.1-1.98 2.1h-.209c-1.645 0-1.91-1.26-1.91-2.408v-.028c0-.574.083-1.302.195-1.652.056-.196.153-.28.32-.308l.628-.056c.181-.014.293.042.251.252a6.81 6.81 0 0 0-.195 1.624v.056c0 .644.153.994.697.994h.112c.39 0 .641-.098.822-.952l.084-.364c.265-1.316.655-2.058 2.036-2.058h.293c1.756 0 2.007 1.162 2.007 2.618v.042c0 .868-.167 1.722-.237 1.904-.055.168-.153.28-.404.308zm38.35 376.741l-4.762-2.748c-1.863-1.076-1.97-2.579-.818-4.574l.08-.139c1.152-1.995 2.473-2.563 4.322-1.495l4.762 2.75c1.863 1.075 1.97 2.578.818 4.573l-.08.139c-1.152 1.995-2.46 2.57-4.322 1.495zm3.019-2.265l.064-.11c.632-1.096.446-1.794-.45-2.312l-4.72-2.725c-.898-.518-1.547-.412-2.18.682l-.071.125c-.632 1.095-.439 1.779.459 2.297l4.72 2.725c.896.518 1.546.413 2.178-.682zm6.73-2.765l-7.576-4.375c-1.822-1.051-1.558-2.433-.694-3.93l.08-.138c.848-1.468 1.95-2.292 3.743-1.256l2.719 1.57c1.863 1.075 1.581 2.52.917 3.67l-.024.041c-.288.499-.753 1.08-1.199 1.248 0 0 .521.245.99.516l2.07 1.195c.221.128.22.257.079.47l-.649.9c-.126.187-.262.2-.456.089zm-2.313-4.79l.064-.111c.416-.721.359-1.29-.442-1.752l-2.636-1.522c-.786-.454-1.268-.29-1.684.431l-.072.125c-.416.72-.392 1.252.395 1.706l2.705 1.562c.786.454 1.254.28 1.67-.44zm1.512-5.04l-2.636-1.522c-1.601-.924-1.793-2.218-.753-4.019l.088-.152c.952-1.65 2.09-2.027 3.415-1.262l.207.12c1.394.804 1.46 1.71.571 3.249-.28.485-.669 1-1.097 1.454l.925.534c.924.534 1.384.374 2.008-.707.472-.817.65-1.38.8-1.958.057-.226.223-.26.395-.142l.608.444c.191.147.204.284.175.526-.055.319-.373 1.188-.845 2.006l-.056.097c-.896 1.552-1.998 2.376-3.805 1.332zm-1.861-3.088l.607.35c.26-.257.702-.832.966-1.29.416-.72.252-1.074-.259-1.368l-.152-.088c-.593-.343-1.025-.296-1.505.535l-.048.083c-.488.846-.382 1.332.391 1.778zm7.673-2.646l-5.975-3.45c-.207-.12-.256-.258-.227-.5.063-.555.378-1.611.978-2.65.872-1.51 1.918-2.237 3.74-1.186l4.484 2.59c.207.12.236.229.116.436l-.568.984c-.12.208-.229.237-.436.118l-4.471-2.582c-.8-.462-1.254-.41-1.734.422-.2.346-.406.8-.448 1.127l5.437 3.14c.207.119.228.242.116.436l-.576.997c-.12.208-.229.238-.436.118zm5.936-10.281l-9.067-5.235c-.207-.12-.236-.229-.116-.437l.576-.997c.12-.208.23-.238.436-.118l8.032 4.637 1.688-2.924c.128-.221.216-.245.415-.112l.716.544c.2.133.22.256.1.464l-2.344 4.06c-.12.208-.229.237-.436.118zm-4.75-10.705l-.869-.502c-.207-.12-.236-.229-.116-.437l.656-1.136c.12-.208.23-.237.436-.118l.87.502c.207.12.228.243.116.437l-.656 1.136c-.12.208-.23.237-.436.118zm8.238 4.663l-6.306-3.641c-.207-.12-.228-.243-.152-.439l.493-1.045c.093-.224.223-.26.43-.14l6.431 3.713c.207.12.228.243.116.437l-.576.997c-.12.208-.229.238-.436.118zm.312-4.365l-7.687-4.438c-.22-.127-.25-.236-.165-.446l.485-1.032c.12-.208.21-.267.417-.147l2.097 1.21c.47.272.942.6.942.6-.044-.432.078-1.027.47-1.706l.024-.041c.68-1.178 1.758-2.09 3.621-1.013l2.719 1.57c1.808 1.043 1.583 2.484.735 3.952l-.072.125c-.888 1.538-1.874 2.354-3.586 1.366zm2.316-2.099l.072-.125c.416-.72.35-1.275-.436-1.73l-2.664-1.537c-.786-.455-1.254-.281-1.662.425l-.048.083c-.44.763-.388 1.31.398 1.764l2.705 1.562c.8.462 1.22.279 1.635-.442zm1.512-5.04l-2.636-1.521c-1.601-.925-1.793-2.218-.753-4.02l.088-.152c.952-1.648 2.09-2.026 3.415-1.261l.207.12c1.394.804 1.46 1.71.571 3.248-.28.485-.669 1-1.097 1.455l.925.534c.924.533 1.384.374 2.008-.707.472-.817.65-1.38.8-1.958.057-.226.223-.26.395-.142l.608.444c.191.147.204.284.175.526-.055.319-.373 1.188-.845 2.006l-.056.097c-.896 1.552-1.998 2.375-3.805 1.332zm-1.861-3.087l.607.35c.26-.257.702-.833.966-1.29.416-.72.252-1.074-.259-1.369l-.152-.087c-.593-.343-1.025-.296-1.505.535l-.048.083c-.488.845-.382 1.331.391 1.778zm7.65-2.605l-4.651-2.685c-1.74-1.004-1.646-2.058-.838-3.458.248-.43.506-.78.697-.983.16-.148.29-.184.477-.094l.833.407c.187.09.222.22.077.377a6.054 6.054 0 0 0-.611.866c-.272.471-.457.919.33 1.373l4.581 2.645c.207.12.228.243.116.437l-.576.998c-.12.207-.229.237-.436.117zm1.236-6.03l-3.85-2.222-.457.79c-.128.221-.215.245-.436.117l-.565-.326c-.221-.128-.244-.215-.116-.437l.456-.79-1.56-.9c-.193-.112-.244-.215-.138-.43l.472-1.04c.098-.202.201-.253.422-.126l1.684.972.808-1.4c.12-.207.2-.253.43-.139l.633.273c.229.114.238.193.11.415l-.864 1.496 3.85 2.224c.677.39.862.293 1.278-.427.176-.305.27-.565.368-.767.088-.152.2-.217.371-.1l.628.474c.172.117.264.245.171.468-.072.254-.165.478-.413.907-.8 1.386-1.585 1.949-3.282.969zm8.312-3.496l-.71-.3c-.23-.113-.267-.208-.127-.386.078-.103.431-.62.503-.744.312-.54.63-1.188-.28-1.714l-1.339-.773c.142.488-.128 1.146-.384 1.59l-.016.027c-.752 1.302-1.813 2.057-3.607 1.021l-4.32-2.494c-.206-.12-.235-.228-.151-.438l.493-1.046c.12-.208.223-.259.43-.14l4.361 2.518c.773.447 1.22.372 1.66-.39l.025-.041c.424-.735.318-1.22-.4-1.635l-4.43-2.558c-.207-.12-.214-.234-.094-.442l.65-.936c.14-.178.25-.208.457-.088l7.452 4.303c1.904 1.1 1.6 2.456.847 3.759a6.062 6.062 0 0 1-.61.867c-.114.1-.21.138-.41.04zm37.363 31.878l-8.101-4.677-1.112 1.926c-.128.222-.23.237-.428.104l-.65-.468c-.2-.133-.228-.242-.108-.45l3-5.196c.112-.194.213-.21.436-.118l.738.315c.209.084.252.201.132.409l-1.112 1.926 7.977 4.605c.33.192.352.315.24.508l-.584 1.012c-.112.194-.221.223-.428.104zm.924-5.84l-2.705-1.562c-1.807-1.044-1.597-2.492-.749-3.961l.08-.139c.848-1.469 1.95-2.292 3.757-1.249l2.705 1.562c1.808 1.044 1.605 2.479.757 3.948l-.08.138c-.848 1.469-1.957 2.307-3.765 1.263zm2.504-2.01l.064-.11c.416-.721.344-1.298-.442-1.752l-2.65-1.53c-.787-.454-1.255-.281-1.67.44l-.073.124c-.416.72-.364 1.268.423 1.722l2.663 1.538c.773.446 1.269.289 1.685-.432zm3.444-4.053l-5.99-3.458c-.193-.111-.241-.25-.212-.492.049-.563.354-1.57.882-2.484l.032-.055c.408-.707.952-1.298 1.686-1.391-.23-.687.002-1.533.402-2.226l.024-.041c.776-1.344 1.78-2.095 3.587-1.051l4.54 2.621c.208.12.237.229.117.437l-.576.997c-.112.194-.221.224-.428.104l-4.596-2.653c-.773-.446-1.177-.255-1.537.368l-.024.042c-.352.61-.356 1.125.417 1.571l4.596 2.654c.207.12.228.242.116.436l-.568.984c-.112.194-.221.223-.428.104l-4.61-2.661c-.745-.43-1.163-.247-1.54.404l-.007.014c-.176.305-.37.766-.425 1.085l5.438 3.14c.207.119.228.242.116.436l-.576.998c-.12.207-.23.237-.436.117zm7.88-13.648l-9.067-5.235c-.207-.12-.236-.229-.116-.437l2.608-4.517c.12-.208.237-.251.446-.167l.738.315c.21.084.266.209.138.43l-1.952 3.382 2.746 1.585 1.544-2.674c.112-.194.23-.237.436-.118l.718.415c.193.111.228.242.116.436l-1.544 2.674 3.05 1.761 2.016-3.492c.12-.207.253-.278.436-.117l.7.57c.192.148.207.249.087.457l-2.664 4.614c-.12.208-.23.237-.436.118zm3.968-6.873l-9.067-5.235c-.207-.12-.236-.229-.116-.436l2.608-4.518c.12-.207.237-.25.446-.167l.738.315c.21.084.266.21.138.43l-1.952 3.382 2.746 1.586 1.544-2.675c.112-.194.23-.237.436-.118l.718.415c.193.111.228.242.116.436l-1.544 2.675 3.05 1.76 2.016-3.491c.12-.208.253-.28.436-.118l.7.57c.192.148.207.25.087.457l-2.664 4.614c-.12.208-.23.237-.436.118zm27.456 31.757l-8.101-4.677-1.112 1.926c-.128.221-.23.237-.428.104l-.65-.468c-.2-.133-.228-.242-.108-.45l3-5.196c.112-.194.213-.21.436-.118l.738.315c.209.084.252.2.132.409l-1.112 1.926 7.977 4.605c.33.191.352.314.24.508l-.584 1.012c-.112.194-.221.223-.428.104zm.924-5.84l-2.705-1.562c-1.808-1.044-1.597-2.493-.749-3.961l.08-.139c.848-1.469 1.95-2.292 3.757-1.249l2.705 1.562c1.808 1.044 1.605 2.479.757 3.947l-.08.14c-.848 1.468-1.957 2.305-3.765 1.262zm2.504-2.01l.064-.11c.416-.721.344-1.298-.443-1.753l-2.65-1.53c-.786-.454-1.254-.28-1.67.44l-.072.125c-.416.72-.364 1.268.423 1.722l2.663 1.538c.773.446 1.269.289 1.685-.432zm3.444-4.053l-5.99-3.458c-.193-.111-.242-.25-.212-.492.049-.563.354-1.57.882-2.484l.032-.055c.408-.707.951-1.298 1.686-1.391-.23-.687.002-1.533.402-2.226l.024-.041c.776-1.344 1.78-2.095 3.587-1.051l4.54 2.621c.208.12.237.229.117.437l-.576.997c-.112.194-.221.224-.428.104l-4.596-2.653c-.773-.446-1.178-.255-1.538.368l-.024.042c-.352.61-.355 1.125.418 1.571l4.596 2.654c.207.12.228.242.116.436l-.568.984c-.112.194-.221.223-.428.104l-4.61-2.661c-.745-.43-1.164-.247-1.54.404l-.008.014c-.176.304-.368.766-.424 1.085l5.438 3.14c.207.119.228.242.116.436l-.576.997c-.12.208-.23.238-.436.118zm7.671-15.136l.623.452c.19.147.234.264.183.512-.08.36-.35 1.018-.693 1.614l-.024.041c-.776 1.344-1.885 2.182-3.707 1.13l-2.594-1.498c-1.808-1.043-1.62-2.486-.867-3.789l.024-.041c.32-.555.67-1.035 1.005-1.36.167-.162.298-.197.5-.1l.625.288c.242.121.28.217.096.406-.239.287-.656.786-.944 1.285l-.032.055c-.384.665-.326 1.234.489 1.704l2.525 1.459c.8.462 1.282.296 1.714-.452l.032-.055c.272-.471.52-1.123.643-1.495.072-.254.203-.29.402-.156zm-.27-1.541l-.261-.151c-1.656-.957-1.27-2.36-.55-3.828.27-.565.614-1.16.614-1.16l-.483-.28c-.787-.454-1.26-.302-1.692.446-.384.665-.628 1.374-.79 1.91-.073.253-.223.258-.386.127l-.59-.414c-.17-.117-.222-.22-.179-.455.088-.374.356-1.125.804-1.9.824-1.428 1.939-2.244 3.747-1.2l4.085 2.359c.207.12.255.258.226.5-.063.555-.378 1.61-.97 2.636-.992 1.718-1.973 2.334-3.574 1.41zm.616-1.64l.194.112c.62.358 1.098.264 1.594-.595.2-.346.447-.869.518-1.216l-2.042-1.179s-.403.728-.585 1.14c-.387.83-.41 1.316.321 1.738zm3.659-5.795l-3.85-2.223-.456.79c-.128.221-.216.245-.436.117l-.566-.326c-.221-.128-.244-.215-.116-.437l.456-.79-1.56-.9c-.193-.111-.244-.215-.137-.43l.47-1.04c.1-.202.202-.253.423-.126l1.684.972.808-1.4c.12-.207.201-.252.43-.139l.633.274c.23.113.239.192.11.414l-.863 1.497 3.85 2.223c.676.39.86.293 1.277-.427.176-.305.27-.564.369-.766.088-.153.199-.218.37-.1l.629.473c.17.118.263.245.17.468-.072.254-.164.478-.412.907-.8 1.386-1.585 1.949-3.283.969zm32.707 37.644l-9.9-3.665c-.223-.091-.266-.209-.16-.424l.475-.982c.098-.202.18-.248.452-.146l6.005 2.284a34.01 34.01 0 0 1 2.437 1.038l.032-.055a33.6 33.6 0 0 1-2.066-1.618l-4.754-4.13c-.191-.148-.204-.285-.092-.479l.68-1.177c.12-.208.237-.252.46-.16l6.018 2.07a27.25 27.25 0 0 1 2.37.963l.04-.07a35.848 35.848 0 0 1-2.111-1.57l-4.995-4.066c-.224-.185-.218-.292-.1-.464l.59-.86c.125-.187.234-.216.425-.069l8.146 6.735c.183.161.204.284.084.492l-.808 1.4c-.12.207-.237.25-.468.173l-5.205-1.822a38.583 38.583 0 0 1-3.063-1.196l-.032.055a51.703 51.703 0 0 1 2.573 2.077l4.15 3.616c.192.147.213.27.093.478l-.816 1.413c-.112.194-.237.251-.46.16zm-2.654-14.335l-.87-.502c-.206-.12-.235-.229-.115-.437l.656-1.136c.12-.208.229-.237.436-.118l.869.502c.207.12.228.243.116.437l-.656 1.136c-.12.208-.229.237-.436.118zm8.238 4.664l-6.307-3.642c-.207-.12-.228-.242-.152-.438l.493-1.046c.093-.224.223-.259.43-.14l6.432 3.714c.207.12.228.242.116.436l-.576.998c-.12.208-.23.237-.436.118zm.311-4.365l-7.686-4.438c-.207-.12-.25-.237-.166-.447l.493-1.045c.093-.224.202-.254.409-.134l7.77 4.486c.676.39.886.345 1.206-.21.064-.11.164-.348.212-.43.096-.167.178-.212.39-.071l.642.482c.2.133.215.234.144.452a5.97 5.97 0 0 1-.335.675c-.624 1.08-1.367 1.668-3.079.68zm2.065-3.926l-2.733-1.578c-1.863-1.075-1.573-2.534-.917-3.67l.024-.042c.432-.748.925-1.092 1.24-1.224 0 0-.568-.29-1.037-.561l-2.042-1.18c-.221-.127-.223-.22-.103-.428l.651-.936c.148-.192.263-.2.47-.08l7.59 4.382c1.794 1.036 1.538 2.403.674 3.9l-.08.138c-.848 1.47-1.916 2.33-3.737 1.279zm2.476-2.026l.064-.11c.416-.721.385-1.274-.401-1.728l-2.691-1.554c-.677-.39-1.263-.267-1.687.467l-.056.097c-.416.72-.364 1.268.423 1.722l2.69 1.554c.787.454 1.242.273 1.658-.448zm-2.484-13.387a11.7 11.7 0 0 0-.984 1.482c-.36.624-.279 1.152.356 1.518l1.008.582.656-1.136c.128-.222.229-.238.428-.104l.545.425c.185.126.185.255.073.449l-.584 1.011 5.534 3.195c.207.12.228.243.116.437l-.568.984c-.12.207-.23.237-.436.117l-5.534-3.195-.416.72c-.112.195-.23.238-.437.119l-.565-.327c-.207-.12-.228-.243-.116-.437l.416-.72-.884-.51c-1.766-1.02-1.571-2.441-.795-3.785.632-1.095 1.358-2.098 1.908-2.667.17-.198.27-.214.463-.102l7.466 4.31c.677.39.887.346 1.207-.209.064-.11.164-.348.212-.431.096-.166.178-.212.39-.07l.642.481c.2.133.215.235.144.452-.05.12-.159.37-.335.676-.624 1.08-1.367 1.667-3.079.68l-6.83-3.945zm14.708 1.138l-.71-.299c-.23-.114-.267-.209-.127-.387.078-.103.431-.62.503-.744.312-.54.63-1.188-.28-1.714l-1.339-.773c.142.489-.127 1.146-.383 1.59l-.016.027c-.752 1.303-1.814 2.057-3.608 1.021l-4.32-2.494c-.206-.12-.235-.228-.15-.438l.492-1.046c.12-.207.223-.259.43-.14l4.361 2.519c.773.446 1.22.372 1.66-.39l.025-.042c.424-.734.318-1.22-.4-1.635l-4.43-2.557c-.207-.12-.214-.235-.094-.443l.651-.936c.14-.178.249-.207.456-.088l7.452 4.303c1.905 1.1 1.6 2.457.847 3.76a6.062 6.062 0 0 1-.61.866c-.114.1-.21.138-.41.04zm27.862 25.17l-.806-.355c-.188-.09-.252-.2-.09-.384.228-.238.524-.622.764-1.037.688-1.192.428-1.73-.456-2.24l-6.845-3.952c-.207-.12-.228-.242-.116-.436l.584-1.012c.112-.194.221-.223.428-.104l6.873 3.968c1.877 1.084 2.05 2.44.947 4.353a5.73 5.73 0 0 1-.797 1.092c-.161.184-.298.197-.485.107zm5.59-8.948l-1.504 2.605c-.12.208-.229.238-.436.118l-9.067-5.235c-.207-.12-.236-.228-.116-.436l1.32-2.287c1.208-2.092 2.323-2.557 4.172-1.489l.235.135c.91.526 1.306 1.18 1.247 1.921.728-.688 1.715-.71 2.875-.04l.441.255c1.919 1.108 2.041 2.361.833 4.453zm-6.185-5.03l-.414-.24c-.897-.517-1.373-.33-1.973.709l-.608 1.053 2.787 1.61.6-1.04c.592-1.025.546-1.55-.392-2.092zm4.48 2.088l-.51-.295c-.98-.566-1.52-.397-2.135.67l-.8 1.386 3.077 1.776.792-1.371c.6-1.04.57-1.593-.424-2.166zm2.202-2.794l-2.705-1.562c-1.808-1.043-1.597-2.492-.75-3.96l.08-.14c.849-1.468 1.95-2.292 3.758-1.248l2.705 1.562c1.808 1.043 1.605 2.478.757 3.947l-.08.138c-.848 1.47-1.957 2.307-3.765 1.263zm2.503-2.01l.064-.11c.416-.72.345-1.298-.442-1.752l-2.65-1.53c-.786-.454-1.254-.28-1.67.44l-.072.124c-.416.72-.364 1.268.422 1.722l2.664 1.538c.773.446 1.268.29 1.684-.431zm3.082-3.966l-.667-.311c-.223-.092-.272-.231-.097-.407a9.713 9.713 0 0 0 1.385-1.824l.016-.028c.424-.734.551-1.178-.125-1.568l-.11-.064c-.539-.31-.844-.228-1.45.438l-.252.279c-1.106 1.246-1.849 1.704-3.16.947l-.207-.12c-1.629-.94-1.17-2.338-.515-3.474l.016-.028c.328-.568.827-1.241 1.137-1.524.168-.162.312-.19.494-.121l.653.303c.187.09.266.209.104.393a7.78 7.78 0 0 0-1.12 1.495l-.033.056c-.368.637-.416 1.071.122 1.382l.11.064c.387.223.691.27 1.359-.472l.29-.313c1.015-1.15 1.825-1.662 3.191-.873l.29.167c1.74 1.004 1.324 2.297.492 3.739l-.024.041c-.496.86-1.15 1.609-1.323 1.75-.151.133-.312.189-.576.073zm3.512-6.083l-.667-.311c-.223-.092-.272-.23-.097-.407a9.713 9.713 0 0 0 1.385-1.824l.016-.028c.424-.734.551-1.178-.125-1.568l-.11-.064c-.539-.31-.844-.228-1.45.438l-.252.279c-1.106 1.246-1.849 1.704-3.16.947l-.207-.12c-1.629-.94-1.17-2.338-.515-3.474l.016-.028c.328-.568.827-1.241 1.137-1.524.168-.162.312-.19.494-.121l.653.303c.187.09.266.209.104.393-.366.38-.769.886-1.12 1.496l-.033.055c-.368.637-.416 1.071.122 1.382l.11.064c.387.223.691.27 1.359-.472l.29-.313c1.015-1.15 1.825-1.662 3.191-.873l.29.167c1.74 1.004 1.324 2.297.492 3.739l-.024.041c-.496.86-1.15 1.609-1.323 1.75-.151.134-.312.189-.576.073zm22.353 44.389l-4.706-2.717c-1.85-1.068-1.965-2.557-.82-4.538.703-1.22 1.398-1.946 1.398-1.946.175-.176.284-.205.5-.1l.73.33c.195.076.232.17.076.377 0 0-.79.892-1.423 1.986l-.04.07c-.632 1.094-.458 1.749.495 2.299l4.581 2.645c.953.55 1.55.47 2.19-.638l.017-.028c.552-.956.657-1.394.657-1.394l-2.884-1.665-.512.887c-.12.207-.23.237-.422.125l-.704-.406c-.193-.112-.214-.235-.102-.429l1.192-2.064c.12-.208.229-.237.422-.126l4.554 2.63c.207.119.228.242.199.484 0 0-.121 1.038-1.097 2.729-1.152 1.995-2.452 2.557-4.301 1.489zm4.86-7.207l-7.687-4.439c-.207-.119-.25-.236-.165-.446l.493-1.046c.093-.223.202-.253.409-.133l7.77 4.486c.676.39.886.345 1.206-.21.064-.11.164-.348.212-.43.096-.167.177-.212.39-.071l.642.481c.2.134.215.235.144.453a5.97 5.97 0 0 1-.335.675c-.624 1.08-1.367 1.668-3.079.68zm2.067-3.611l-.263-.151c-1.656-.957-1.27-2.36-.55-3.828.27-.565.615-1.16.615-1.16l-.483-.28c-.787-.454-1.26-.302-1.693.446-.384.665-.627 1.374-.789 1.91-.073.253-.223.258-.387.127l-.589-.414c-.171-.117-.222-.22-.179-.455.088-.374.355-1.125.803-1.9.824-1.428 1.94-2.244 3.747-1.2l4.085 2.359c.207.12.256.258.227.5-.063.555-.378 1.61-.97 2.636-.992 1.718-1.973 2.334-3.574 1.41zm.615-1.64l.193.112c.621.358 1.099.264 1.595-.595.2-.346.446-.869.518-1.216l-2.043-1.179s-.402.728-.584 1.14c-.387.83-.41 1.316.321 1.738zm4.788-4.404l-.667-.311c-.223-.092-.272-.231-.096-.407a9.713 9.713 0 0 0 1.384-1.824l.016-.028c.424-.734.551-1.178-.125-1.568l-.11-.064c-.538-.311-.844-.229-1.45.438l-.252.279c-1.106 1.246-1.849 1.704-3.16.947l-.207-.12c-1.628-.94-1.17-2.338-.515-3.475l.016-.027c.328-.568.827-1.241 1.138-1.524.167-.162.311-.19.493-.121l.653.303c.187.09.266.209.104.393a7.78 7.78 0 0 0-1.12 1.495l-.033.056c-.368.637-.416 1.071.122 1.382l.11.064c.387.223.692.27 1.359-.472l.29-.313c1.015-1.15 1.825-1.662 3.192-.873l.29.167c1.738 1.004 1.323 2.297.49 3.738l-.023.042c-.496.86-1.15 1.609-1.323 1.749-.151.134-.312.19-.576.074zm3.512-6.083l-.667-.311c-.223-.092-.272-.231-.096-.407a9.713 9.713 0 0 0 1.384-1.824l.016-.028c.424-.734.551-1.178-.125-1.568l-.11-.064c-.538-.31-.844-.228-1.45.438l-.252.279c-1.106 1.246-1.849 1.704-3.16.947l-.207-.12c-1.628-.94-1.17-2.338-.515-3.475l.016-.027c.328-.568.827-1.241 1.138-1.524.167-.162.311-.19.493-.121l.653.303c.187.09.266.209.104.393a7.78 7.78 0 0 0-1.12 1.495l-.033.056c-.368.637-.416 1.071.122 1.382l.11.064c.387.223.692.27 1.359-.472l.29-.313c1.015-1.15 1.825-1.662 3.192-.873l.29.167c1.738 1.004 1.323 2.297.49 3.738l-.023.042c-.496.86-1.15 1.609-1.323 1.75-.151.133-.312.189-.576.073zm4.043-6.46l-5.535-3.195-.416.72c-.112.194-.229.237-.436.118l-.565-.327c-.207-.12-.228-.242-.116-.436l.416-.72-.925-.535c-1.767-1.02-1.498-2.472-.762-3.747.576-.998 1.117-1.553 1.23-1.654.206-.196.271-.213.472-.116l.653.303c.21.084.294.225.11.415a9.025 9.025 0 0 0-1.23 1.654c-.384.665-.303 1.193.346 1.567l.994.574 2.192-3.797c.12-.207.229-.237.436-.117l6.376 3.68c.207.12.236.23.116.437l-.576.998c-.112.194-.221.223-.428.104l-5.535-3.195-1.464 2.535 5.535 3.196c.207.12.228.242.116.436l-.568.984c-.12.208-.23.237-.436.118zm3.98-7.438l-.666-.311c-.223-.092-.272-.231-.096-.407a9.713 9.713 0 0 0 1.384-1.824l.016-.028c.424-.734.551-1.178-.125-1.568l-.11-.064c-.538-.31-.844-.228-1.45.438l-.252.279c-1.106 1.246-1.849 1.704-3.16.947l-.207-.12c-1.628-.94-1.17-2.338-.515-3.474l.016-.028c.328-.568.827-1.241 1.138-1.524.167-.162.311-.19.493-.121l.653.303c.187.09.266.209.104.393a7.78 7.78 0 0 0-1.12 1.495l-.033.056c-.368.637-.416 1.071.122 1.382l.11.064c.387.223.692.27 1.359-.472l.29-.313c1.015-1.15 1.825-1.662 3.192-.873l.29.167c1.738 1.004 1.323 2.297.49 3.738l-.023.042c-.496.86-1.15 1.609-1.323 1.75-.151.133-.312.189-.576.073zm3.876-6.17l-9.344-5.394c-.207-.12-.25-.236-.165-.446l.493-1.046c.12-.207.21-.267.417-.147l2.07 1.195c.469.27.983.623.983.623-.1-.464.12-1.131.384-1.589l.024-.041c.688-1.192 1.77-2.046 3.578-1.002l4.568 2.638c.207.12.236.228.116.436l-.576.998c-.112.194-.221.223-.428.104l-4.582-2.646c-.787-.454-1.217-.314-1.625.392l-.04.07c-.408.706-.346 1.204.44 1.658l4.583 2.646c.207.12.228.242.116.436l-.576.998c-.12.208-.23.237-.436.118zm28.749 31.283l-9.067-5.236c-.207-.119-.236-.228-.116-.436l1.424-2.466c1.216-2.107 2.31-2.566 4.297-1.418l.62.358c2.002 1.156 2.11 2.401.903 4.493l-.656 1.137 3.491 2.015c.207.12.236.23.116.437l-.576.998c-.12.207-.229.237-.436.117zm-3.865-4.301l.664-1.15c.592-1.026.59-1.563-.404-2.137l-.87-.502c-1.007-.582-1.447-.392-2.071.688l-.672 1.164 3.353 1.937zm6.203-3.606l-.262-.151c-1.656-.956-1.27-2.359-.55-3.828.27-.564.615-1.16.615-1.16l-.483-.28c-.787-.453-1.26-.302-1.693.446-.384.665-.628 1.375-.79 1.91-.072.253-.222.259-.386.127l-.589-.414c-.171-.117-.222-.22-.179-.454.087-.375.355-1.125.803-1.901.824-1.428 1.94-2.243 3.747-1.2l4.085 2.359c.207.12.256.258.227.5-.063.555-.378 1.611-.97 2.636-.992 1.719-1.974 2.334-3.575 1.41zm.616-1.64l.193.112c.621.358 1.099.265 1.595-.595.2-.346.446-.869.518-1.216l-2.043-1.179s-.402.729-.585 1.14c-.387.83-.41 1.316.322 1.738zm9.098-4.317l-.71-.3c-.229-.113-.266-.208-.126-.386.078-.103.431-.62.503-.744.312-.54.63-1.188-.28-1.714l-1.339-.773c.142.488-.128 1.146-.384 1.59l-.016.027c-.752 1.302-1.813 2.057-3.607 1.021l-4.32-2.494c-.207-.12-.236-.229-.151-.438l.493-1.046c.12-.208.223-.26.43-.14l4.361 2.518c.773.446 1.22.372 1.66-.39l.025-.041c.424-.735.318-1.22-.4-1.635l-4.43-2.558c-.207-.12-.214-.234-.094-.442l.65-.936c.14-.178.25-.208.456-.088l7.453 4.303c1.904 1.1 1.6 2.456.847 3.759a6.062 6.062 0 0 1-.61.867c-.114.1-.21.138-.41.04zm-1.754-7.83l-.262-.151c-1.656-.956-1.27-2.36-.55-3.828.27-.565.615-1.16.615-1.16l-.483-.28c-.787-.453-1.26-.302-1.693.446-.384.665-.628 1.374-.79 1.91-.072.253-.222.258-.386.127l-.589-.414c-.171-.117-.222-.22-.179-.454.087-.375.355-1.126.803-1.901.824-1.428 1.94-2.243 3.747-1.2l4.085 2.359c.207.12.256.258.227.5-.063.555-.378 1.61-.97 2.636-.992 1.718-1.974 2.334-3.575 1.41zm.616-1.64l.193.112c.621.358 1.099.264 1.595-.595.2-.346.446-.869.518-1.216l-2.043-1.179s-.402.729-.585 1.14c-.387.83-.41 1.316.322 1.738zm5.126-4.449l-4.65-2.685c-1.74-1.004-1.646-2.058-.838-3.458.248-.43.506-.78.697-.983.159-.149.29-.184.477-.094l.833.407c.187.09.222.22.076.376a6.054 6.054 0 0 0-.61.867c-.272.471-.457.919.33 1.373l4.581 2.645c.207.12.228.243.116.437l-.576.997c-.12.208-.229.238-.436.118zm.866-5.356l-.262-.152c-1.656-.956-1.27-2.358-.55-3.828.27-.564.615-1.16.615-1.16l-.483-.279c-.787-.454-1.26-.302-1.693.446-.384.665-.628 1.374-.79 1.909-.072.253-.222.259-.386.128l-.589-.414c-.171-.118-.222-.22-.179-.455.087-.374.355-1.125.803-1.9.824-1.428 1.94-2.244 3.747-1.2l4.085 2.358c.207.12.256.259.227.5-.063.556-.378 1.611-.97 2.637-.992 1.718-1.974 2.334-3.575 1.41zm.616-1.64l.193.111c.621.359 1.099.265 1.595-.594.2-.347.446-.87.518-1.216l-2.043-1.18s-.402.73-.585 1.141c-.387.83-.41 1.315.322 1.738z" fill="#313653" fill-rule="nonzero"/></g></svg>