<?xml version="1.0" encoding="UTF-8"?>
<svg width="431px" height="222px" viewBox="0 0 431 222" version="1.1" xmlns="http://www.w3.org/2000/svg" xmlns:xlink="http://www.w3.org/1999/xlink">
    <!-- Generator: Sketch 57.1 (83088) - https://sketch.com -->
    <title>Group 23</title>
    <desc>Created with Sketch.</desc>
    <g id="Page-1" stroke="none" stroke-width="1" fill="none" fill-rule="evenodd">
        <g id="Homepage_Full_Scale-Copy-16" transform="translate(-723.000000, -1560.000000)">
            <g id="Group-23" transform="translate(723.000000, 1560.000000)">
                <g id="Group-14">
                    <rect id="Rectangle" fill="#FFFFFF" x="0" y="0" width="431" height="221"></rect>
                    <g id="Group-13" transform="translate(54.000000, 49.000000)">
                        <path d="M26.5,153.178541 L376.472664,153.178541" id="Line-3" stroke="#979797" stroke-width="0.5" stroke-linecap="square"></path>
                        <path d="M26.5,132.178541 L376.472664,132.178541" id="Line-3-Copy" stroke="#979797" stroke-width="0.5" stroke-linecap="square"></path>
                        <path d="M26.5,112.178541 L376.472664,112.178541" id="Line-3-Copy-2" stroke="#979797" stroke-width="0.5" stroke-linecap="square"></path>
                        <path d="M26.5,91.1785414 L376.472664,91.1785414" id="Line-3-Copy-3" stroke="#979797" stroke-width="0.5" stroke-linecap="square"></path>
                        <path d="M26.5,70.1785414 L376.472664,70.1785414" id="Line-3-Copy-4" stroke="#979797" stroke-width="0.5" stroke-linecap="square"></path>
                        <path d="M26.5,49.1785414 L376.472664,49.1785414" id="Line-3-Copy-5" stroke="#979797" stroke-width="0.5" stroke-linecap="square"></path>
                        <path d="M26.5,28.1785414 L376.472664,28.1785414" id="Line-3-Copy-6" stroke="#979797" stroke-width="0.5" stroke-linecap="square"></path>
                        <path d="M26.5,7.17854136 L376.472664,7.17854136" id="Line-3-Copy-7" stroke="#979797" stroke-width="0.5" stroke-linecap="square"></path>
                        <path d="M71,7.17854136 L71,153.178541" id="Line" stroke="#979797" stroke-width="0.5" stroke-linecap="square"></path>
                        <path d="M117,7.17854136 L117,153.178541" id="Line-Copy" stroke="#979797" stroke-width="0.5" stroke-linecap="square"></path>
                        <path d="M163,7.17854136 L163,153.178541" id="Line-Copy-2" stroke="#979797" stroke-width="0.5" stroke-linecap="square"></path>
                        <path d="M209,7.17854136 L209,153.178541" id="Line-Copy-3" stroke="#979797" stroke-width="0.5" stroke-linecap="square"></path>
                        <path d="M256,7.17854136 L256,153.178541" id="Line-Copy-4" stroke="#979797" stroke-width="0.5" stroke-linecap="square"></path>
                        <path d="M303,7.17854136 L303,153.178541" id="Line-Copy-5" stroke="#979797" stroke-width="0.5" stroke-linecap="square"></path>
                        <path d="M350,7.17854136 L350,153.178541" id="Line-Copy-6" stroke="#979797" stroke-width="0.5" stroke-linecap="square"></path>
                        <path d="M0.854,10.72 L0.854,7.864 C0.854,5.988 1.694,5.694 3.276,5.414 L3.808,5.33 C4.648,5.19 5.04,5.022 5.04,4.056 L5.04,3.538 C5.04,2.53 4.466,2.376 3.5,2.376 L3.444,2.376 C2.87,2.376 2.002,2.516 1.526,2.628 C1.33,2.684 1.26,2.6 1.288,2.39 L1.358,1.69 C1.372,1.48 1.47,1.424 1.652,1.368 C1.988,1.27 2.786,1.116 3.584,1.116 L3.626,1.116 C5.572,1.116 6.594,1.676 6.594,3.594 L6.594,4.112 C6.594,6.03 5.712,6.31 4.158,6.576 L3.556,6.688 C2.814,6.814 2.408,6.926 2.408,7.808 L2.408,9.67 L6.37,9.67 C6.58,9.67 6.636,9.74 6.622,9.95 L6.538,10.72 C6.51,10.93 6.44,11 6.23,11 L1.12,11 C0.924,11 0.854,10.93 0.854,10.72 Z M8.358,10.72 L8.358,9.712 C8.358,9.502 8.414,9.432 8.638,9.432 L9.87,9.432 C10.08,9.432 10.15,9.502 10.15,9.712 L10.15,10.72 C10.15,10.93 10.08,11 9.87,11 L8.638,11 C8.414,11 8.358,10.93 8.358,10.72 Z M11.732,10.58 L11.662,9.796 C11.634,9.586 11.69,9.53 11.914,9.572 C12.264,9.628 13.202,9.796 13.972,9.796 L14.07,9.796 C15.204,9.796 15.638,9.572 15.638,8.452 L15.638,7.878 C15.638,6.87 15.274,6.576 14.252,6.576 L13.02,6.576 C12.81,6.576 12.74,6.506 12.74,6.31 L12.74,5.568 C12.74,5.372 12.81,5.288 13.02,5.288 L14.126,5.288 C15.134,5.288 15.54,5.022 15.54,4.056 L15.54,3.594 C15.54,2.684 15.218,2.376 14.14,2.376 L14.112,2.376 C13.188,2.376 12.488,2.502 12.096,2.572 C11.872,2.614 11.816,2.544 11.844,2.334 L11.914,1.648 C11.928,1.452 12.012,1.382 12.208,1.326 C12.404,1.27 13.23,1.116 14.154,1.116 L14.196,1.116 C16.24,1.116 17.108,1.788 17.108,3.636 L17.108,4.042 C17.108,5.064 16.604,5.638 15.988,5.848 C16.73,6.016 17.192,6.618 17.192,7.948 L17.192,8.466 C17.192,10.454 16.296,11.126 14.196,11.126 L14.126,11.126 C13.188,11.126 12.39,11 12.026,10.902 C11.816,10.846 11.76,10.776 11.732,10.58 Z" id="2.3" fill="#313653" fill-rule="nonzero"></path>
                        <path d="M0.854,31.72 L0.854,28.864 C0.854,26.988 1.694,26.694 3.276,26.414 L3.808,26.33 C4.648,26.19 5.04,26.022 5.04,25.056 L5.04,24.538 C5.04,23.53 4.466,23.376 3.5,23.376 L3.444,23.376 C2.87,23.376 2.002,23.516 1.526,23.628 C1.33,23.684 1.26,23.6 1.288,23.39 L1.358,22.69 C1.372,22.48 1.47,22.424 1.652,22.368 C1.988,22.27 2.786,22.116 3.584,22.116 L3.626,22.116 C5.572,22.116 6.594,22.676 6.594,24.594 L6.594,25.112 C6.594,27.03 5.712,27.31 4.158,27.576 L3.556,27.688 C2.814,27.814 2.408,27.926 2.408,28.808 L2.408,30.67 L6.37,30.67 C6.58,30.67 6.636,30.74 6.622,30.95 L6.538,31.72 C6.51,31.93 6.44,32 6.23,32 L1.12,32 C0.924,32 0.854,31.93 0.854,31.72 Z M8.358,31.72 L8.358,30.712 C8.358,30.502 8.414,30.432 8.638,30.432 L9.87,30.432 C10.08,30.432 10.15,30.502 10.15,30.712 L10.15,31.72 C10.15,31.93 10.08,32 9.87,32 L8.638,32 C8.414,32 8.358,31.93 8.358,31.72 Z M11.914,31.72 L11.914,28.864 C11.914,26.988 12.754,26.694 14.336,26.414 L14.868,26.33 C15.708,26.19 16.1,26.022 16.1,25.056 L16.1,24.538 C16.1,23.53 15.526,23.376 14.56,23.376 L14.504,23.376 C13.93,23.376 13.062,23.516 12.586,23.628 C12.39,23.684 12.32,23.6 12.348,23.39 L12.418,22.69 C12.432,22.48 12.53,22.424 12.712,22.368 C13.048,22.27 13.846,22.116 14.644,22.116 L14.686,22.116 C16.632,22.116 17.654,22.676 17.654,24.594 L17.654,25.112 C17.654,27.03 16.772,27.31 15.218,27.576 L14.616,27.688 C13.874,27.814 13.468,27.926 13.468,28.808 L13.468,30.67 L17.43,30.67 C17.64,30.67 17.696,30.74 17.682,30.95 L17.598,31.72 C17.57,31.93 17.5,32 17.29,32 L12.18,32 C11.984,32 11.914,31.93 11.914,31.72 Z" id="2.2" fill="#313653" fill-rule="nonzero"></path>
                        <path d="M0.854,51.72 L0.854,48.864 C0.854,46.988 1.694,46.694 3.276,46.414 L3.808,46.33 C4.648,46.19 5.04,46.022 5.04,45.056 L5.04,44.538 C5.04,43.53 4.466,43.376 3.5,43.376 L3.444,43.376 C2.87,43.376 2.002,43.516 1.526,43.628 C1.33,43.684 1.26,43.6 1.288,43.39 L1.358,42.69 C1.372,42.48 1.47,42.424 1.652,42.368 C1.988,42.27 2.786,42.116 3.584,42.116 L3.626,42.116 C5.572,42.116 6.594,42.676 6.594,44.594 L6.594,45.112 C6.594,47.03 5.712,47.31 4.158,47.576 L3.556,47.688 C2.814,47.814 2.408,47.926 2.408,48.808 L2.408,50.67 L6.37,50.67 C6.58,50.67 6.636,50.74 6.622,50.95 L6.538,51.72 C6.51,51.93 6.44,52 6.23,52 L1.12,52 C0.924,52 0.854,51.93 0.854,51.72 Z M8.358,51.72 L8.358,50.712 C8.358,50.502 8.414,50.432 8.638,50.432 L9.87,50.432 C10.08,50.432 10.15,50.502 10.15,50.712 L10.15,51.72 C10.15,51.93 10.08,52 9.87,52 L8.638,52 C8.414,52 8.358,51.93 8.358,51.72 Z M13.174,51.72 L13.174,43.866 L11.998,44.412 C11.788,44.51 11.662,44.496 11.592,44.272 L11.382,43.628 C11.326,43.446 11.34,43.306 11.55,43.208 L13.286,42.368 C13.454,42.284 13.594,42.242 13.776,42.242 L14.462,42.242 C14.658,42.242 14.728,42.312 14.728,42.522 L14.728,51.72 C14.728,51.93 14.658,52 14.462,52 L13.454,52 C13.244,52 13.174,51.93 13.174,51.72 Z" id="2.1" fill="#313653" fill-rule="nonzero"></path>
                        <path d="M0.854,73.72 L0.854,70.864 C0.854,68.988 1.694,68.694 3.276,68.414 L3.808,68.33 C4.648,68.19 5.04,68.022 5.04,67.056 L5.04,66.538 C5.04,65.53 4.466,65.376 3.5,65.376 L3.444,65.376 C2.87,65.376 2.002,65.516 1.526,65.628 C1.33,65.684 1.26,65.6 1.288,65.39 L1.358,64.69 C1.372,64.48 1.47,64.424 1.652,64.368 C1.988,64.27 2.786,64.116 3.584,64.116 L3.626,64.116 C5.572,64.116 6.594,64.676 6.594,66.594 L6.594,67.112 C6.594,69.03 5.712,69.31 4.158,69.576 L3.556,69.688 C2.814,69.814 2.408,69.926 2.408,70.808 L2.408,72.67 L6.37,72.67 C6.58,72.67 6.636,72.74 6.622,72.95 L6.538,73.72 C6.51,73.93 6.44,74 6.23,74 L1.12,74 C0.924,74 0.854,73.93 0.854,73.72 Z M8.358,73.72 L8.358,72.712 C8.358,72.502 8.414,72.432 8.638,72.432 L9.87,72.432 C10.08,72.432 10.15,72.502 10.15,72.712 L10.15,73.72 C10.15,73.93 10.08,74 9.87,74 L8.638,74 C8.414,74 8.358,73.93 8.358,73.72 Z M11.956,71.592 L11.956,66.65 C11.956,64.76 13.048,64.074 14.952,64.074 L14.994,64.074 C16.884,64.074 17.92,64.746 17.92,66.636 L17.92,71.606 C17.92,73.496 16.8,74.168 14.91,74.168 L14.868,74.168 C12.964,74.168 11.956,73.482 11.956,71.592 Z M14.84,72.838 L14.966,72.838 C15.876,72.838 16.352,72.516 16.352,71.62 L16.352,66.538 C16.352,65.642 15.946,65.334 15.036,65.334 L14.91,65.334 C14,65.334 13.524,65.656 13.524,66.552 L13.524,71.62 C13.524,72.516 13.93,72.838 14.84,72.838 Z" id="2.0" fill="#313653" fill-rule="nonzero"></path>
                        <path d="M2.114,94.72 L2.114,86.866 L0.938,87.412 C0.728,87.51 0.602,87.496 0.532,87.272 L0.322,86.628 C0.266,86.446 0.28,86.306 0.49,86.208 L2.226,85.368 C2.394,85.284 2.534,85.242 2.716,85.242 L3.402,85.242 C3.598,85.242 3.668,85.312 3.668,85.522 L3.668,94.72 C3.668,94.93 3.598,95 3.402,95 L2.394,95 C2.184,95 2.114,94.93 2.114,94.72 Z M5.586,94.72 L5.586,93.712 C5.586,93.502 5.642,93.432 5.866,93.432 L7.098,93.432 C7.308,93.432 7.378,93.502 7.378,93.712 L7.378,94.72 C7.378,94.93 7.308,95 7.098,95 L5.866,95 C5.642,95 5.586,94.93 5.586,94.72 Z M9.548,94.58 L9.478,93.824 C9.45,93.628 9.506,93.53 9.716,93.572 C10.066,93.642 10.92,93.796 11.676,93.796 L11.718,93.796 C12.782,93.796 13.314,93.586 13.314,92.662 L13.314,91.57 C13.314,91.206 13.328,90.604 13.328,90.604 C13.076,90.842 12.628,91.052 11.788,91.052 L11.676,91.052 C10.136,91.052 9.114,90.408 9.114,88.462 L9.114,87.622 C9.114,85.718 10.234,85.074 11.97,85.074 L12.068,85.074 C13.79,85.074 14.854,85.704 14.854,87.566 L14.854,92.62 C14.854,94.552 13.762,95.126 11.746,95.126 L11.704,95.126 C10.892,95.126 10.178,95 9.856,94.916 C9.632,94.86 9.576,94.79 9.548,94.58 Z M11.858,89.778 L11.998,89.778 C12.838,89.778 13.3,89.526 13.3,88.504 L13.3,87.622 C13.3,86.558 12.88,86.32 12.026,86.32 L11.956,86.32 C11.116,86.32 10.64,86.558 10.64,87.622 L10.64,88.49 C10.64,89.526 11.018,89.778 11.858,89.778 Z" id="1.9" fill="#313653" fill-rule="nonzero"></path>
                        <path d="M2.114,114.72 L2.114,106.866 L0.938,107.412 C0.728,107.51 0.602,107.496 0.532,107.272 L0.322,106.628 C0.266,106.446 0.28,106.306 0.49,106.208 L2.226,105.368 C2.394,105.284 2.534,105.242 2.716,105.242 L3.402,105.242 C3.598,105.242 3.668,105.312 3.668,105.522 L3.668,114.72 C3.668,114.93 3.598,115 3.402,115 L2.394,115 C2.184,115 2.114,114.93 2.114,114.72 Z M5.586,114.72 L5.586,113.712 C5.586,113.502 5.642,113.432 5.866,113.432 L7.098,113.432 C7.308,113.432 7.378,113.502 7.378,113.712 L7.378,114.72 C7.378,114.93 7.308,115 7.098,115 L5.866,115 C5.642,115 5.586,114.93 5.586,114.72 Z M9.128,112.522 L9.128,111.934 C9.128,110.702 9.576,110.072 10.262,109.848 C9.716,109.61 9.324,108.98 9.324,107.972 L9.324,107.524 C9.324,105.746 10.402,105.074 12.124,105.074 L12.264,105.074 C13.986,105.074 14.966,105.76 14.966,107.524 L14.966,107.972 C14.966,108.966 14.56,109.582 14.028,109.82 C14.714,110.044 15.162,110.702 15.162,111.934 L15.162,112.522 C15.162,114.496 14.224,115.168 12.166,115.168 L12.04,115.168 C9.982,115.168 9.128,114.496 9.128,112.522 Z M12.082,109.302 L12.138,109.302 C13.02,109.302 13.44,108.994 13.44,108.056 L13.44,107.566 C13.44,106.628 13.118,106.32 12.208,106.32 L12.138,106.32 C11.228,106.32 10.85,106.614 10.85,107.552 L10.85,108.056 C10.85,108.994 11.186,109.302 12.082,109.302 Z M12.054,113.866 L12.166,113.866 C13.146,113.866 13.608,113.628 13.608,112.494 L13.608,111.934 C13.608,110.842 13.272,110.534 12.222,110.534 L12.124,110.534 C11.06,110.534 10.682,110.856 10.682,111.934 L10.682,112.48 C10.682,113.628 11.074,113.866 12.054,113.866 Z" id="1.8" fill="#313653" fill-rule="nonzero"></path>
                        <path d="M2.114,134.72 L2.114,126.866 L0.938,127.412 C0.728,127.51 0.602,127.496 0.532,127.272 L0.322,126.628 C0.266,126.446 0.28,126.306 0.49,126.208 L2.226,125.368 C2.394,125.284 2.534,125.242 2.716,125.242 L3.402,125.242 C3.598,125.242 3.668,125.312 3.668,125.522 L3.668,134.72 C3.668,134.93 3.598,135 3.402,135 L2.394,135 C2.184,135 2.114,134.93 2.114,134.72 Z M5.586,134.72 L5.586,133.712 C5.586,133.502 5.642,133.432 5.866,133.432 L7.098,133.432 C7.308,133.432 7.378,133.502 7.378,133.712 L7.378,134.72 C7.378,134.93 7.308,135 7.098,135 L5.866,135 C5.642,135 5.586,134.93 5.586,134.72 Z M9.044,134.692 L12.712,126.502 L8.89,126.502 C8.68,126.502 8.596,126.432 8.624,126.222 L8.722,125.522 C8.75,125.312 8.82,125.242 9.016,125.242 L14.014,125.242 C14.21,125.242 14.28,125.312 14.28,125.522 L14.28,126.264 C14.28,126.446 14.266,126.6 14.182,126.796 L10.682,134.762 C10.598,134.958 10.514,135 10.304,135 L9.226,135 C9.016,135 8.96,134.888 9.044,134.692 Z" id="1.7" fill="#313653" fill-rule="nonzero"></path>
                        <path d="M2.114,156.72 L2.114,148.866 L0.938,149.412 C0.728,149.51 0.602,149.496 0.532,149.272 L0.322,148.628 C0.266,148.446 0.28,148.306 0.49,148.208 L2.226,147.368 C2.394,147.284 2.534,147.242 2.716,147.242 L3.402,147.242 C3.598,147.242 3.668,147.312 3.668,147.522 L3.668,156.72 C3.668,156.93 3.598,157 3.402,157 L2.394,157 C2.184,157 2.114,156.93 2.114,156.72 Z M5.586,156.72 L5.586,155.712 C5.586,155.502 5.642,155.432 5.866,155.432 L7.098,155.432 C7.308,155.432 7.378,155.502 7.378,155.712 L7.378,156.72 C7.378,156.93 7.308,157 7.098,157 L5.866,157 C5.642,157 5.586,156.93 5.586,156.72 Z M9.184,154.648 L9.184,149.678 C9.184,147.788 10.234,147.116 12.082,147.116 L12.124,147.116 C13.09,147.116 13.874,147.27 14.042,147.312 C14.252,147.354 14.322,147.424 14.336,147.62 L14.42,148.362 C14.434,148.558 14.392,148.614 14.154,148.572 C13.972,148.544 13.104,148.376 12.278,148.376 L12.236,148.376 C11.228,148.376 10.724,148.656 10.724,149.58 L10.724,150.518 C10.724,150.882 10.71,151.456 10.71,151.456 C10.976,151.218 11.536,151.008 12.292,151.008 L12.362,151.008 C13.776,151.008 14.924,151.68 14.924,153.556 L14.924,154.648 C14.924,156.524 13.846,157.168 12.082,157.168 L11.97,157.168 C10.192,157.168 9.184,156.524 9.184,154.648 Z M11.998,155.838 L12.068,155.838 C12.922,155.838 13.398,155.586 13.398,154.522 L13.398,153.584 C13.398,152.562 13.006,152.282 12.18,152.282 L12.054,152.282 C11.214,152.282 10.738,152.562 10.738,153.584 L10.738,154.522 C10.738,155.586 11.13,155.838 11.998,155.838 Z" id="1.6" fill="#313653" fill-rule="nonzero"></path>
                        <polyline id="Path-2" stroke="#5E6B8D" stroke-width="0.5" points="27 81 35 115 47 115 59 68 71 68 83 49 94 49 106 70 117 70 128 119 139 119 151 95 163 95 172 91 186 91 197 81 204 81 212 84 222 137 233 137 244 60 279 60 290 65 303 65 315 44 327 44 338 30 350 30 360 21 376 21"></polyline>
                        <polygon id="Path-2" fill-opacity="0.45" fill="#CAD5FE" points="27 81 35 115 47 115 59 68 71 68 83 49 94 49 106 70 117 70 128 119 139 119 151 95 163 95 172 91 186 91 197 81 204 81 212 84 222 137 233 137 244 60 279 60 290 65 303 65 315 44 327 44 338 30 350 30 360 21 376 21 376 154 27 154"></polygon>
                        <polyline id="Path-3" stroke="#98BA3E" points="27 96 35 96 47 115 58 115 71 56 81 56 94 70 104 70 117 104 129 104 140 115 151 115 163 111 175 111 186 72 197 72 209 83 222 85 233 91 246 91 256 44 268 44 280 65 292 65 303 51 315 51 325 21 338 21 350 34 360 34 372 28 376 28"></polyline>
                        <polygon id="Path-3" fill-opacity="0.65" fill="#F5F9CC" points="27 96 35 96 47 115 58 115 71 56 81 56 94 70 104 70 117 104 129 104 140 115 151 115 163 111 175 111 186 72 197 72 209 83 222 85 233 91 246 91 256 44 268 44 280 65 292 65 303 51 315 51 325 21 338 21 350 34 360 34 372 28 376 28 376 153 27 153"></polygon>
                    </g>
                    <path d="M112.84,218.522 L112.84,217.934 C112.84,216.702 113.288,216.072 113.974,215.848 C113.428,215.61 113.036,214.98 113.036,213.972 L113.036,213.524 C113.036,211.746 114.114,211.074 115.836,211.074 L115.976,211.074 C117.698,211.074 118.678,211.76 118.678,213.524 L118.678,213.972 C118.678,214.966 118.272,215.582 117.74,215.82 C118.426,216.044 118.874,216.702 118.874,217.934 L118.874,218.522 C118.874,220.496 117.936,221.168 115.878,221.168 L115.752,221.168 C113.694,221.168 112.84,220.496 112.84,218.522 Z M115.794,215.302 L115.85,215.302 C116.732,215.302 117.152,214.994 117.152,214.056 L117.152,213.566 C117.152,212.628 116.83,212.32 115.92,212.32 L115.85,212.32 C114.94,212.32 114.562,212.614 114.562,213.552 L114.562,214.056 C114.562,214.994 114.898,215.302 115.794,215.302 Z M115.766,219.866 L115.878,219.866 C116.858,219.866 117.32,219.628 117.32,218.494 L117.32,217.934 C117.32,216.842 116.984,216.534 115.934,216.534 L115.836,216.534 C114.772,216.534 114.394,216.856 114.394,217.934 L114.394,218.48 C114.394,219.628 114.786,219.866 115.766,219.866 Z M120.624,216.184 L120.624,215.176 C120.624,214.966 120.68,214.896 120.904,214.896 L122.136,214.896 C122.346,214.896 122.416,214.966 122.416,215.176 L122.416,216.184 C122.416,216.394 122.346,216.464 122.136,216.464 L120.904,216.464 C120.68,216.464 120.624,216.394 120.624,216.184 Z M120.624,220.72 L120.624,219.712 C120.624,219.502 120.68,219.432 120.904,219.432 L122.136,219.432 C122.346,219.432 122.416,219.502 122.416,219.712 L122.416,220.72 C122.416,220.93 122.346,221 122.136,221 L120.904,221 C120.68,221 120.624,220.93 120.624,220.72 Z M124.04,220.538 L123.956,219.754 C123.942,219.558 123.984,219.488 124.208,219.53 C124.586,219.586 125.65,219.796 126.448,219.796 C127.61,219.796 128.058,219.6 128.058,218.424 L128.058,217.85 C128.058,216.674 127.652,216.45 126.644,216.45 L124.446,216.45 C124.25,216.45 124.166,216.38 124.166,216.17 L124.166,211.522 C124.166,211.312 124.25,211.242 124.446,211.242 L128.772,211.242 C128.968,211.242 129.024,211.312 129.052,211.522 L129.136,212.208 C129.15,212.418 129.066,212.488 128.856,212.488 L125.72,212.488 L125.72,215.162 L126.7,215.162 C128.73,215.162 129.612,215.848 129.612,217.85 L129.612,218.508 C129.612,220.566 128.548,221.126 126.532,221.126 C125.412,221.126 124.6,220.944 124.334,220.874 C124.138,220.818 124.054,220.748 124.04,220.538 Z M131.208,220.72 L131.208,217.864 C131.208,215.988 132.048,215.694 133.63,215.414 L134.162,215.33 C135.002,215.19 135.394,215.022 135.394,214.056 L135.394,213.538 C135.394,212.53 134.82,212.376 133.854,212.376 L133.798,212.376 C133.224,212.376 132.356,212.516 131.88,212.628 C131.684,212.684 131.614,212.6 131.642,212.39 L131.712,211.69 C131.726,211.48 131.824,211.424 132.006,211.368 C132.342,211.27 133.14,211.116 133.938,211.116 L133.98,211.116 C135.926,211.116 136.948,211.676 136.948,213.594 L136.948,214.112 C136.948,216.03 136.066,216.31 134.512,216.576 L133.91,216.688 C133.168,216.814 132.762,216.926 132.762,217.808 L132.762,219.67 L136.724,219.67 C136.934,219.67 136.99,219.74 136.976,219.95 L136.892,220.72 C136.864,220.93 136.794,221 136.584,221 L131.474,221 C131.278,221 131.208,220.93 131.208,220.72 Z" id="8:52" fill="#313653" fill-rule="nonzero"></path>
                    <path d="M157.84,218.522 L157.84,217.934 C157.84,216.702 158.288,216.072 158.974,215.848 C158.428,215.61 158.036,214.98 158.036,213.972 L158.036,213.524 C158.036,211.746 159.114,211.074 160.836,211.074 L160.976,211.074 C162.698,211.074 163.678,211.76 163.678,213.524 L163.678,213.972 C163.678,214.966 163.272,215.582 162.74,215.82 C163.426,216.044 163.874,216.702 163.874,217.934 L163.874,218.522 C163.874,220.496 162.936,221.168 160.878,221.168 L160.752,221.168 C158.694,221.168 157.84,220.496 157.84,218.522 Z M160.794,215.302 L160.85,215.302 C161.732,215.302 162.152,214.994 162.152,214.056 L162.152,213.566 C162.152,212.628 161.83,212.32 160.92,212.32 L160.85,212.32 C159.94,212.32 159.562,212.614 159.562,213.552 L159.562,214.056 C159.562,214.994 159.898,215.302 160.794,215.302 Z M160.766,219.866 L160.878,219.866 C161.858,219.866 162.32,219.628 162.32,218.494 L162.32,217.934 C162.32,216.842 161.984,216.534 160.934,216.534 L160.836,216.534 C159.772,216.534 159.394,216.856 159.394,217.934 L159.394,218.48 C159.394,219.628 159.786,219.866 160.766,219.866 Z M165.624,216.184 L165.624,215.176 C165.624,214.966 165.68,214.896 165.904,214.896 L167.136,214.896 C167.346,214.896 167.416,214.966 167.416,215.176 L167.416,216.184 C167.416,216.394 167.346,216.464 167.136,216.464 L165.904,216.464 C165.68,216.464 165.624,216.394 165.624,216.184 Z M165.624,220.72 L165.624,219.712 C165.624,219.502 165.68,219.432 165.904,219.432 L167.136,219.432 C167.346,219.432 167.416,219.502 167.416,219.712 L167.416,220.72 C167.416,220.93 167.346,221 167.136,221 L165.904,221 C165.68,221 165.624,220.93 165.624,220.72 Z M169.04,220.538 L168.956,219.754 C168.942,219.558 168.984,219.488 169.208,219.53 C169.586,219.586 170.65,219.796 171.448,219.796 C172.61,219.796 173.058,219.6 173.058,218.424 L173.058,217.85 C173.058,216.674 172.652,216.45 171.644,216.45 L169.446,216.45 C169.25,216.45 169.166,216.38 169.166,216.17 L169.166,211.522 C169.166,211.312 169.25,211.242 169.446,211.242 L173.772,211.242 C173.968,211.242 174.024,211.312 174.052,211.522 L174.136,212.208 C174.15,212.418 174.066,212.488 173.856,212.488 L170.72,212.488 L170.72,215.162 L171.7,215.162 C173.73,215.162 174.612,215.848 174.612,217.85 L174.612,218.508 C174.612,220.566 173.548,221.126 171.532,221.126 C170.412,221.126 169.6,220.944 169.334,220.874 C169.138,220.818 169.054,220.748 169.04,220.538 Z M175.816,218.046 L175.704,217.346 C175.676,217.122 175.746,217.01 175.83,216.828 L178.644,211.312 C178.742,211.116 178.84,211.116 179.036,211.186 L179.946,211.48 C180.156,211.55 180.142,211.648 180.058,211.83 L178.56,214.686 C178.14,215.47 177.286,217.052 177.286,217.052 L180.142,217.052 L180.142,215.302 C180.142,215.092 180.226,215.008 180.436,215.008 L181.402,215.008 C181.612,215.008 181.696,215.092 181.696,215.288 L181.696,220.72 C181.696,220.93 181.612,221 181.416,221 L180.422,221 C180.212,221 180.142,220.93 180.142,220.72 L180.142,218.326 L176.096,218.326 C175.886,218.326 175.844,218.256 175.816,218.046 Z" id="8:54" fill="#313653" fill-rule="nonzero"></path>
                    <path d="M203.84,218.522 L203.84,217.934 C203.84,216.702 204.288,216.072 204.974,215.848 C204.428,215.61 204.036,214.98 204.036,213.972 L204.036,213.524 C204.036,211.746 205.114,211.074 206.836,211.074 L206.976,211.074 C208.698,211.074 209.678,211.76 209.678,213.524 L209.678,213.972 C209.678,214.966 209.272,215.582 208.74,215.82 C209.426,216.044 209.874,216.702 209.874,217.934 L209.874,218.522 C209.874,220.496 208.936,221.168 206.878,221.168 L206.752,221.168 C204.694,221.168 203.84,220.496 203.84,218.522 Z M206.794,215.302 L206.85,215.302 C207.732,215.302 208.152,214.994 208.152,214.056 L208.152,213.566 C208.152,212.628 207.83,212.32 206.92,212.32 L206.85,212.32 C205.94,212.32 205.562,212.614 205.562,213.552 L205.562,214.056 C205.562,214.994 205.898,215.302 206.794,215.302 Z M206.766,219.866 L206.878,219.866 C207.858,219.866 208.32,219.628 208.32,218.494 L208.32,217.934 C208.32,216.842 207.984,216.534 206.934,216.534 L206.836,216.534 C205.772,216.534 205.394,216.856 205.394,217.934 L205.394,218.48 C205.394,219.628 205.786,219.866 206.766,219.866 Z M211.624,216.184 L211.624,215.176 C211.624,214.966 211.68,214.896 211.904,214.896 L213.136,214.896 C213.346,214.896 213.416,214.966 213.416,215.176 L213.416,216.184 C213.416,216.394 213.346,216.464 213.136,216.464 L211.904,216.464 C211.68,216.464 211.624,216.394 211.624,216.184 Z M211.624,220.72 L211.624,219.712 C211.624,219.502 211.68,219.432 211.904,219.432 L213.136,219.432 C213.346,219.432 213.416,219.502 213.416,219.712 L213.416,220.72 C213.416,220.93 213.346,221 213.136,221 L211.904,221 C211.68,221 211.624,220.93 211.624,220.72 Z M215.04,220.538 L214.956,219.754 C214.942,219.558 214.984,219.488 215.208,219.53 C215.586,219.586 216.65,219.796 217.448,219.796 C218.61,219.796 219.058,219.6 219.058,218.424 L219.058,217.85 C219.058,216.674 218.652,216.45 217.644,216.45 L215.446,216.45 C215.25,216.45 215.166,216.38 215.166,216.17 L215.166,211.522 C215.166,211.312 215.25,211.242 215.446,211.242 L219.772,211.242 C219.968,211.242 220.024,211.312 220.052,211.522 L220.136,212.208 C220.15,212.418 220.066,212.488 219.856,212.488 L216.72,212.488 L216.72,215.162 L217.7,215.162 C219.73,215.162 220.612,215.848 220.612,217.85 L220.612,218.508 C220.612,220.566 219.548,221.126 217.532,221.126 C216.412,221.126 215.6,220.944 215.334,220.874 C215.138,220.818 215.054,220.748 215.04,220.538 Z M222.25,218.648 L222.25,213.678 C222.25,211.788 223.3,211.116 225.148,211.116 L225.19,211.116 C226.156,211.116 226.94,211.27 227.108,211.312 C227.318,211.354 227.388,211.424 227.402,211.62 L227.486,212.362 C227.5,212.558 227.458,212.614 227.22,212.572 C227.038,212.544 226.17,212.376 225.344,212.376 L225.302,212.376 C224.294,212.376 223.79,212.656 223.79,213.58 L223.79,214.518 C223.79,214.882 223.776,215.456 223.776,215.456 C224.042,215.218 224.602,215.008 225.358,215.008 L225.428,215.008 C226.842,215.008 227.99,215.68 227.99,217.556 L227.99,218.648 C227.99,220.524 226.912,221.168 225.148,221.168 L225.036,221.168 C223.258,221.168 222.25,220.524 222.25,218.648 Z M225.064,219.838 L225.134,219.838 C225.988,219.838 226.464,219.586 226.464,218.522 L226.464,217.584 C226.464,216.562 226.072,216.282 225.246,216.282 L225.12,216.282 C224.28,216.282 223.804,216.562 223.804,217.584 L223.804,218.522 C223.804,219.586 224.196,219.838 225.064,219.838 Z" id="8:56" fill="#313653" fill-rule="nonzero"></path>
                    <path d="M243.84,218.522 L243.84,217.934 C243.84,216.702 244.288,216.072 244.974,215.848 C244.428,215.61 244.036,214.98 244.036,213.972 L244.036,213.524 C244.036,211.746 245.114,211.074 246.836,211.074 L246.976,211.074 C248.698,211.074 249.678,211.76 249.678,213.524 L249.678,213.972 C249.678,214.966 249.272,215.582 248.74,215.82 C249.426,216.044 249.874,216.702 249.874,217.934 L249.874,218.522 C249.874,220.496 248.936,221.168 246.878,221.168 L246.752,221.168 C244.694,221.168 243.84,220.496 243.84,218.522 Z M246.794,215.302 L246.85,215.302 C247.732,215.302 248.152,214.994 248.152,214.056 L248.152,213.566 C248.152,212.628 247.83,212.32 246.92,212.32 L246.85,212.32 C245.94,212.32 245.562,212.614 245.562,213.552 L245.562,214.056 C245.562,214.994 245.898,215.302 246.794,215.302 Z M246.766,219.866 L246.878,219.866 C247.858,219.866 248.32,219.628 248.32,218.494 L248.32,217.934 C248.32,216.842 247.984,216.534 246.934,216.534 L246.836,216.534 C245.772,216.534 245.394,216.856 245.394,217.934 L245.394,218.48 C245.394,219.628 245.786,219.866 246.766,219.866 Z M251.624,216.184 L251.624,215.176 C251.624,214.966 251.68,214.896 251.904,214.896 L253.136,214.896 C253.346,214.896 253.416,214.966 253.416,215.176 L253.416,216.184 C253.416,216.394 253.346,216.464 253.136,216.464 L251.904,216.464 C251.68,216.464 251.624,216.394 251.624,216.184 Z M251.624,220.72 L251.624,219.712 C251.624,219.502 251.68,219.432 251.904,219.432 L253.136,219.432 C253.346,219.432 253.416,219.502 253.416,219.712 L253.416,220.72 C253.416,220.93 253.346,221 253.136,221 L251.904,221 C251.68,221 251.624,220.93 251.624,220.72 Z M255.04,220.538 L254.956,219.754 C254.942,219.558 254.984,219.488 255.208,219.53 C255.586,219.586 256.65,219.796 257.448,219.796 C258.61,219.796 259.058,219.6 259.058,218.424 L259.058,217.85 C259.058,216.674 258.652,216.45 257.644,216.45 L255.446,216.45 C255.25,216.45 255.166,216.38 255.166,216.17 L255.166,211.522 C255.166,211.312 255.25,211.242 255.446,211.242 L259.772,211.242 C259.968,211.242 260.024,211.312 260.052,211.522 L260.136,212.208 C260.15,212.418 260.066,212.488 259.856,212.488 L256.72,212.488 L256.72,215.162 L257.7,215.162 C259.73,215.162 260.612,215.848 260.612,217.85 L260.612,218.508 C260.612,220.566 259.548,221.126 257.532,221.126 C256.412,221.126 255.6,220.944 255.334,220.874 C255.138,220.818 255.054,220.748 255.04,220.538 Z M262.194,218.522 L262.194,217.934 C262.194,216.702 262.642,216.072 263.328,215.848 C262.782,215.61 262.39,214.98 262.39,213.972 L262.39,213.524 C262.39,211.746 263.468,211.074 265.19,211.074 L265.33,211.074 C267.052,211.074 268.032,211.76 268.032,213.524 L268.032,213.972 C268.032,214.966 267.626,215.582 267.094,215.82 C267.78,216.044 268.228,216.702 268.228,217.934 L268.228,218.522 C268.228,220.496 267.29,221.168 265.232,221.168 L265.106,221.168 C263.048,221.168 262.194,220.496 262.194,218.522 Z M265.148,215.302 L265.204,215.302 C266.086,215.302 266.506,214.994 266.506,214.056 L266.506,213.566 C266.506,212.628 266.184,212.32 265.274,212.32 L265.204,212.32 C264.294,212.32 263.916,212.614 263.916,213.552 L263.916,214.056 C263.916,214.994 264.252,215.302 265.148,215.302 Z M265.12,219.866 L265.232,219.866 C266.212,219.866 266.674,219.628 266.674,218.494 L266.674,217.934 C266.674,216.842 266.338,216.534 265.288,216.534 L265.19,216.534 C264.126,216.534 263.748,216.856 263.748,217.934 L263.748,218.48 C263.748,219.628 264.14,219.866 265.12,219.866 Z" id="8:58" fill="#313653" fill-rule="nonzero"></path>
                    <path d="M296.26,220.58 L296.19,219.824 C296.162,219.628 296.218,219.53 296.428,219.572 C296.778,219.642 297.632,219.796 298.388,219.796 L298.43,219.796 C299.494,219.796 300.026,219.586 300.026,218.662 L300.026,217.57 C300.026,217.206 300.04,216.604 300.04,216.604 C299.788,216.842 299.34,217.052 298.5,217.052 L298.388,217.052 C296.848,217.052 295.826,216.408 295.826,214.462 L295.826,213.622 C295.826,211.718 296.946,211.074 298.682,211.074 L298.78,211.074 C300.502,211.074 301.566,211.704 301.566,213.566 L301.566,218.62 C301.566,220.552 300.474,221.126 298.458,221.126 L298.416,221.126 C297.604,221.126 296.89,221 296.568,220.916 C296.344,220.86 296.288,220.79 296.26,220.58 Z M298.57,215.778 L298.71,215.778 C299.55,215.778 300.012,215.526 300.012,214.504 L300.012,213.622 C300.012,212.558 299.592,212.32 298.738,212.32 L298.668,212.32 C297.828,212.32 297.352,212.558 297.352,213.622 L297.352,214.49 C297.352,215.526 297.73,215.778 298.57,215.778 Z M303.372,216.184 L303.372,215.176 C303.372,214.966 303.428,214.896 303.652,214.896 L304.884,214.896 C305.094,214.896 305.164,214.966 305.164,215.176 L305.164,216.184 C305.164,216.394 305.094,216.464 304.884,216.464 L303.652,216.464 C303.428,216.464 303.372,216.394 303.372,216.184 Z M303.372,220.72 L303.372,219.712 C303.372,219.502 303.428,219.432 303.652,219.432 L304.884,219.432 C305.094,219.432 305.164,219.502 305.164,219.712 L305.164,220.72 C305.164,220.93 305.094,221 304.884,221 L303.652,221 C303.428,221 303.372,220.93 303.372,220.72 Z M306.97,218.592 L306.97,213.65 C306.97,211.76 308.062,211.074 309.966,211.074 L310.008,211.074 C311.898,211.074 312.934,211.746 312.934,213.636 L312.934,218.606 C312.934,220.496 311.814,221.168 309.924,221.168 L309.882,221.168 C307.978,221.168 306.97,220.482 306.97,218.592 Z M309.854,219.838 L309.98,219.838 C310.89,219.838 311.366,219.516 311.366,218.62 L311.366,213.538 C311.366,212.642 310.96,212.334 310.05,212.334 L309.924,212.334 C309.014,212.334 308.538,212.656 308.538,213.552 L308.538,218.62 C308.538,219.516 308.944,219.838 309.854,219.838 Z M314.726,218.592 L314.726,213.65 C314.726,211.76 315.818,211.074 317.722,211.074 L317.764,211.074 C319.654,211.074 320.69,211.746 320.69,213.636 L320.69,218.606 C320.69,220.496 319.57,221.168 317.68,221.168 L317.638,221.168 C315.734,221.168 314.726,220.482 314.726,218.592 Z M317.61,219.838 L317.736,219.838 C318.646,219.838 319.122,219.516 319.122,218.62 L319.122,213.538 C319.122,212.642 318.716,212.334 317.806,212.334 L317.68,212.334 C316.77,212.334 316.294,212.656 316.294,213.552 L316.294,218.62 C316.294,219.516 316.7,219.838 317.61,219.838 Z" id="9:00" fill="#313653" fill-rule="nonzero"></path>
                    <path d="M345.26,220.58 L345.19,219.824 C345.162,219.628 345.218,219.53 345.428,219.572 C345.778,219.642 346.632,219.796 347.388,219.796 L347.43,219.796 C348.494,219.796 349.026,219.586 349.026,218.662 L349.026,217.57 C349.026,217.206 349.04,216.604 349.04,216.604 C348.788,216.842 348.34,217.052 347.5,217.052 L347.388,217.052 C345.848,217.052 344.826,216.408 344.826,214.462 L344.826,213.622 C344.826,211.718 345.946,211.074 347.682,211.074 L347.78,211.074 C349.502,211.074 350.566,211.704 350.566,213.566 L350.566,218.62 C350.566,220.552 349.474,221.126 347.458,221.126 L347.416,221.126 C346.604,221.126 345.89,221 345.568,220.916 C345.344,220.86 345.288,220.79 345.26,220.58 Z M347.57,215.778 L347.71,215.778 C348.55,215.778 349.012,215.526 349.012,214.504 L349.012,213.622 C349.012,212.558 348.592,212.32 347.738,212.32 L347.668,212.32 C346.828,212.32 346.352,212.558 346.352,213.622 L346.352,214.49 C346.352,215.526 346.73,215.778 347.57,215.778 Z M352.372,216.184 L352.372,215.176 C352.372,214.966 352.428,214.896 352.652,214.896 L353.884,214.896 C354.094,214.896 354.164,214.966 354.164,215.176 L354.164,216.184 C354.164,216.394 354.094,216.464 353.884,216.464 L352.652,216.464 C352.428,216.464 352.372,216.394 352.372,216.184 Z M352.372,220.72 L352.372,219.712 C352.372,219.502 352.428,219.432 352.652,219.432 L353.884,219.432 C354.094,219.432 354.164,219.502 354.164,219.712 L354.164,220.72 C354.164,220.93 354.094,221 353.884,221 L352.652,221 C352.428,221 352.372,220.93 352.372,220.72 Z M355.97,218.592 L355.97,213.65 C355.97,211.76 357.062,211.074 358.966,211.074 L359.008,211.074 C360.898,211.074 361.934,211.746 361.934,213.636 L361.934,218.606 C361.934,220.496 360.814,221.168 358.924,221.168 L358.882,221.168 C356.978,221.168 355.97,220.482 355.97,218.592 Z M358.854,219.838 L358.98,219.838 C359.89,219.838 360.366,219.516 360.366,218.62 L360.366,213.538 C360.366,212.642 359.96,212.334 359.05,212.334 L358.924,212.334 C358.014,212.334 357.538,212.656 357.538,213.552 L357.538,218.62 C357.538,219.516 357.944,219.838 358.854,219.838 Z M363.684,220.72 L363.684,217.864 C363.684,215.988 364.524,215.694 366.106,215.414 L366.638,215.33 C367.478,215.19 367.87,215.022 367.87,214.056 L367.87,213.538 C367.87,212.53 367.296,212.376 366.33,212.376 L366.274,212.376 C365.7,212.376 364.832,212.516 364.356,212.628 C364.16,212.684 364.09,212.6 364.118,212.39 L364.188,211.69 C364.202,211.48 364.3,211.424 364.482,211.368 C364.818,211.27 365.616,211.116 366.414,211.116 L366.456,211.116 C368.402,211.116 369.424,211.676 369.424,213.594 L369.424,214.112 C369.424,216.03 368.542,216.31 366.988,216.576 L366.386,216.688 C365.644,216.814 365.238,216.926 365.238,217.808 L365.238,219.67 L369.2,219.67 C369.41,219.67 369.466,219.74 369.452,219.95 L369.368,220.72 C369.34,220.93 369.27,221 369.06,221 L363.95,221 C363.754,221 363.684,220.93 363.684,220.72 Z" id="9:02" fill="#313653" fill-rule="nonzero"></path>
                    <path d="M394.26,220.58 L394.19,219.824 C394.162,219.628 394.218,219.53 394.428,219.572 C394.778,219.642 395.632,219.796 396.388,219.796 L396.43,219.796 C397.494,219.796 398.026,219.586 398.026,218.662 L398.026,217.57 C398.026,217.206 398.04,216.604 398.04,216.604 C397.788,216.842 397.34,217.052 396.5,217.052 L396.388,217.052 C394.848,217.052 393.826,216.408 393.826,214.462 L393.826,213.622 C393.826,211.718 394.946,211.074 396.682,211.074 L396.78,211.074 C398.502,211.074 399.566,211.704 399.566,213.566 L399.566,218.62 C399.566,220.552 398.474,221.126 396.458,221.126 L396.416,221.126 C395.604,221.126 394.89,221 394.568,220.916 C394.344,220.86 394.288,220.79 394.26,220.58 Z M396.57,215.778 L396.71,215.778 C397.55,215.778 398.012,215.526 398.012,214.504 L398.012,213.622 C398.012,212.558 397.592,212.32 396.738,212.32 L396.668,212.32 C395.828,212.32 395.352,212.558 395.352,213.622 L395.352,214.49 C395.352,215.526 395.73,215.778 396.57,215.778 Z M401.372,216.184 L401.372,215.176 C401.372,214.966 401.428,214.896 401.652,214.896 L402.884,214.896 C403.094,214.896 403.164,214.966 403.164,215.176 L403.164,216.184 C403.164,216.394 403.094,216.464 402.884,216.464 L401.652,216.464 C401.428,216.464 401.372,216.394 401.372,216.184 Z M401.372,220.72 L401.372,219.712 C401.372,219.502 401.428,219.432 401.652,219.432 L402.884,219.432 C403.094,219.432 403.164,219.502 403.164,219.712 L403.164,220.72 C403.164,220.93 403.094,221 402.884,221 L401.652,221 C401.428,221 401.372,220.93 401.372,220.72 Z M404.97,218.592 L404.97,213.65 C404.97,211.76 406.062,211.074 407.966,211.074 L408.008,211.074 C409.898,211.074 410.934,211.746 410.934,213.636 L410.934,218.606 C410.934,220.496 409.814,221.168 407.924,221.168 L407.882,221.168 C405.978,221.168 404.97,220.482 404.97,218.592 Z M407.854,219.838 L407.98,219.838 C408.89,219.838 409.366,219.516 409.366,218.62 L409.366,213.538 C409.366,212.642 408.96,212.334 408.05,212.334 L407.924,212.334 C407.014,212.334 406.538,212.656 406.538,213.552 L406.538,218.62 C406.538,219.516 406.944,219.838 407.854,219.838 Z M412.292,218.046 L412.18,217.346 C412.152,217.122 412.222,217.01 412.306,216.828 L415.12,211.312 C415.218,211.116 415.316,211.116 415.512,211.186 L416.422,211.48 C416.632,211.55 416.618,211.648 416.534,211.83 L415.036,214.686 C414.616,215.47 413.762,217.052 413.762,217.052 L416.618,217.052 L416.618,215.302 C416.618,215.092 416.702,215.008 416.912,215.008 L417.878,215.008 C418.088,215.008 418.172,215.092 418.172,215.288 L418.172,220.72 C418.172,220.93 418.088,221 417.892,221 L416.898,221 C416.688,221 416.618,220.93 416.618,220.72 L416.618,218.326 L412.572,218.326 C412.362,218.326 412.32,218.256 412.292,218.046 Z" id="9:04" fill="#313653" fill-rule="nonzero"></path>
                </g>
                <path d="M173.91,26.508 L173.91,21.748 C173.91,19.858 174.988,19.116 176.948,19.116 C177.844,19.116 178.502,19.27 178.628,19.298 C178.838,19.354 178.908,19.424 178.936,19.62 L179.006,20.32 C179.02,20.53 178.964,20.586 178.754,20.558 C178.572,20.53 177.746,20.376 177.004,20.376 C175.926,20.376 175.464,20.782 175.464,21.734 L175.464,26.438 C175.464,27.39 175.828,27.796 176.934,27.796 C177.886,27.796 178.712,27.614 178.81,27.586 C179.034,27.53 179.104,27.628 179.076,27.81 L179.006,28.566 C178.978,28.748 178.908,28.846 178.698,28.916 C178.572,28.944 177.9,29.126 176.85,29.126 C174.904,29.126 173.91,28.384 173.91,26.508 Z M180.658,28.72 L180.658,19.522 C180.658,19.312 180.728,19.242 180.938,19.242 L183.43,19.242 C185.558,19.242 186.384,19.872 186.384,21.888 L186.384,22.518 C186.384,24.548 185.488,25.178 183.374,25.178 L182.226,25.178 L182.226,28.72 C182.226,28.93 182.156,29 181.946,29 L180.938,29 C180.728,29 180.658,28.93 180.658,28.72 Z M182.226,23.89 L183.388,23.89 C184.424,23.89 184.83,23.652 184.83,22.644 L184.83,21.762 C184.83,20.74 184.494,20.488 183.402,20.488 L182.226,20.488 L182.226,23.89 Z M188.022,26.592 L188.022,19.522 C188.022,19.312 188.092,19.242 188.302,19.242 L189.31,19.242 C189.52,19.242 189.59,19.312 189.59,19.522 L189.59,26.55 C189.59,27.46 189.968,27.838 190.962,27.838 C191.956,27.838 192.418,27.46 192.418,26.55 L192.418,19.522 C192.418,19.312 192.488,19.242 192.698,19.242 L193.706,19.242 C193.916,19.242 193.986,19.312 193.986,19.522 L193.986,26.592 C193.986,28.482 192.852,29.168 190.99,29.168 L190.92,29.168 C189.058,29.168 188.022,28.482 188.022,26.592 Z M198.956,28.552 L198.886,27.782 C198.858,27.6 198.914,27.516 199.152,27.558 C199.614,27.642 200.426,27.796 201.238,27.796 C202.47,27.796 202.862,27.53 202.862,26.424 L202.862,26.074 C202.862,25.024 202.554,24.758 201.588,24.548 L201.378,24.492 C199.866,24.17 198.9,23.834 198.9,21.986 L198.9,21.65 C198.9,19.676 199.936,19.116 201.798,19.116 C202.47,19.116 203.128,19.214 203.464,19.312 C203.688,19.368 203.758,19.438 203.772,19.648 L203.856,20.334 C203.87,20.53 203.828,20.614 203.604,20.572 C203.184,20.474 202.498,20.376 201.84,20.376 C200.944,20.376 200.454,20.628 200.454,21.58 L200.454,21.86 C200.454,22.742 200.762,22.966 201.756,23.19 L201.966,23.232 C203.646,23.596 204.402,24.002 204.402,25.962 L204.402,26.396 C204.402,28.482 203.548,29.126 201.35,29.126 C200.412,29.126 199.544,28.972 199.25,28.902 C199.04,28.846 198.97,28.748 198.956,28.552 Z M207.636,31.8 L207.552,31.128 C207.538,30.904 207.594,30.834 207.79,30.862 C207.902,30.876 208.448,30.918 208.574,30.918 C209.12,30.918 209.75,30.876 209.75,29.952 L209.75,28.594 C209.442,28.916 208.826,29 208.378,29 L208.35,29 C207.034,29 205.998,28.524 205.998,26.704 L205.998,22.322 C205.998,22.112 206.068,22.042 206.264,22.014 L207.272,21.93 C207.482,21.93 207.566,21.986 207.566,22.196 L207.566,26.62 C207.566,27.404 207.818,27.712 208.588,27.712 L208.63,27.712 C209.372,27.712 209.694,27.418 209.694,26.69 L209.694,22.196 C209.694,21.986 209.778,21.93 209.988,21.93 L210.982,22.014 C211.178,22.042 211.248,22.112 211.248,22.322 L211.248,29.882 C211.248,31.814 210.086,32.178 208.77,32.178 C208.364,32.178 207.986,32.122 207.846,32.094 C207.72,32.052 207.65,31.996 207.636,31.8 Z M212.914,28.482 L212.858,27.838 C212.83,27.628 212.914,27.53 213.124,27.586 C213.656,27.726 214.426,27.838 215.112,27.838 L215.14,27.838 C215.882,27.838 216.274,27.74 216.274,27.054 L216.274,26.942 C216.274,26.396 216.078,26.2 215.308,26.032 L214.986,25.962 C213.558,25.668 212.886,25.304 212.886,23.974 L212.886,23.764 C212.886,22.112 214.146,21.846 215.294,21.846 L215.322,21.846 C215.896,21.846 216.624,21.93 216.974,22.042 C217.17,22.098 217.254,22.196 217.282,22.364 L217.338,22.994 C217.352,23.176 217.296,23.288 217.086,23.246 C216.638,23.134 216.078,23.05 215.462,23.05 L215.406,23.05 C214.762,23.05 214.412,23.204 214.412,23.75 L214.412,23.862 C214.412,24.254 214.51,24.506 215.364,24.688 L215.728,24.772 C217.044,25.038 217.786,25.43 217.786,26.816 L217.786,27.11 C217.786,28.874 216.624,29.126 215.168,29.126 L215.126,29.126 C214.258,29.126 213.404,28.958 213.222,28.888 C213.054,28.832 212.942,28.734 212.914,28.482 Z M219.62,27.012 L219.62,23.106 L218.822,23.106 C218.598,23.106 218.542,23.05 218.542,22.826 L218.542,22.252 C218.542,22.028 218.598,21.972 218.822,21.972 L219.62,21.972 L219.62,20.39 C219.62,20.194 219.676,20.11 219.886,20.096 L220.88,19.998 C221.076,19.984 221.16,20.04 221.16,20.264 L221.16,21.972 L222.574,21.972 C222.784,21.972 222.854,22.014 222.868,22.238 L222.938,22.84 C222.952,23.064 222.896,23.106 222.672,23.106 L221.16,23.106 L221.16,27.012 C221.16,27.698 221.314,27.796 222.042,27.796 C222.35,27.796 222.588,27.754 222.784,27.74 C222.938,27.74 223.036,27.796 223.022,27.978 L222.938,28.664 C222.924,28.846 222.868,28.972 222.658,29 C222.434,29.056 222.224,29.084 221.79,29.084 C220.39,29.084 219.62,28.734 219.62,27.012 Z M224.212,26.816 L224.212,24.142 C224.212,22.518 225.108,21.804 226.928,21.804 L227.082,21.804 C228.748,21.804 229.532,22.504 229.532,23.848 L229.532,24.058 C229.532,25.472 228.874,25.92 227.32,25.92 C226.83,25.92 226.27,25.85 225.738,25.724 L225.738,26.662 C225.738,27.6 226.06,27.88 227.152,27.88 C227.978,27.88 228.482,27.768 228.986,27.628 C229.182,27.572 229.28,27.684 229.266,27.866 L229.196,28.524 C229.168,28.734 229.07,28.804 228.874,28.888 C228.608,28.986 227.81,29.126 226.984,29.126 L226.886,29.126 C225.318,29.126 224.212,28.65 224.212,26.816 Z M225.738,24.044 L225.738,24.66 C226.046,24.744 226.676,24.828 227.138,24.828 C227.866,24.828 228.062,24.548 228.062,24.03 L228.062,23.876 C228.062,23.274 227.838,22.966 226.998,22.966 L226.914,22.966 C226.06,22.966 225.738,23.26 225.738,24.044 Z M231.1,28.72 L231.1,22.644 C231.1,22.448 231.184,22.35 231.38,22.266 C231.828,22.056 232.724,21.846 233.648,21.846 L233.704,21.846 C234.418,21.846 235.104,22 235.496,22.518 C235.916,22.042 236.658,21.846 237.358,21.846 L237.4,21.846 C238.758,21.846 239.766,22.28 239.766,24.114 L239.766,28.72 C239.766,28.93 239.696,29 239.486,29 L238.478,29 C238.282,29 238.212,28.93 238.212,28.72 L238.212,24.058 C238.212,23.274 237.89,23.05 237.26,23.05 L237.218,23.05 C236.602,23.05 236.21,23.274 236.21,24.058 L236.21,28.72 C236.21,28.93 236.126,29 235.93,29 L234.936,29 C234.74,29 234.67,28.93 234.67,28.72 L234.67,24.044 C234.67,23.288 234.348,23.05 233.69,23.05 L233.676,23.05 C233.368,23.05 232.934,23.106 232.668,23.204 L232.668,28.72 C232.668,28.93 232.584,29 232.388,29 L231.38,29 C231.17,29 231.1,28.93 231.1,28.72 Z M244.89,28.72 L244.89,19.522 C244.89,19.312 244.96,19.242 245.17,19.242 L246.178,19.242 C246.388,19.242 246.458,19.312 246.458,19.522 L246.458,27.67 L249.412,27.67 C249.636,27.67 249.692,27.726 249.678,27.936 L249.58,28.72 C249.566,28.93 249.482,29 249.272,29 L245.17,29 C244.96,29 244.89,28.93 244.89,28.72 Z M250.868,26.858 L250.868,24.114 C250.868,22.28 252.058,21.804 253.542,21.804 L253.682,21.804 C255.166,21.804 256.272,22.28 256.272,24.114 L256.272,26.858 C256.272,28.692 255.096,29.168 253.612,29.168 L253.472,29.168 C251.988,29.168 250.868,28.692 250.868,26.858 Z M253.486,27.88 L253.598,27.88 C254.326,27.88 254.732,27.572 254.732,26.774 L254.732,24.086 C254.732,23.288 254.396,23.008 253.668,23.008 L253.542,23.008 C252.814,23.008 252.422,23.288 252.422,24.086 L252.422,26.788 C252.422,27.572 252.758,27.88 253.486,27.88 Z M257.728,27.026 L257.728,26.76 C257.728,25.08 258.96,24.758 260.388,24.66 C260.934,24.618 261.536,24.618 261.536,24.618 L261.536,24.128 C261.536,23.33 261.214,23.036 260.458,23.036 C259.786,23.036 259.142,23.162 258.666,23.274 C258.442,23.33 258.372,23.218 258.4,23.036 L258.456,22.406 C258.47,22.224 258.526,22.14 258.722,22.07 C259.044,21.972 259.73,21.846 260.514,21.846 C261.956,21.846 263.062,22.336 263.062,24.17 L263.062,28.314 C263.062,28.524 262.978,28.622 262.782,28.706 C262.334,28.902 261.396,29.126 260.36,29.126 C258.624,29.126 257.728,28.65 257.728,27.026 Z M259.24,26.774 L259.24,26.97 C259.24,27.6 259.52,27.922 260.388,27.922 C260.738,27.922 261.242,27.88 261.536,27.782 L261.536,25.71 C261.536,25.71 260.808,25.724 260.416,25.766 C259.618,25.836 259.24,26.032 259.24,26.774 Z M264.798,26.886 L264.798,24.114 C264.798,22.224 266.03,21.804 267.178,21.804 L267.22,21.804 C267.976,21.804 268.452,22.028 268.69,22.21 C268.69,22.21 268.662,21.65 268.662,21.174 L268.662,19.102 C268.662,18.878 268.732,18.836 268.942,18.836 L269.936,18.92 C270.146,18.948 270.202,19.032 270.202,19.242 L270.202,26.942 C270.202,28.762 269.054,29.168 267.542,29.168 L267.402,29.168 C265.918,29.168 264.798,28.734 264.798,26.886 Z M267.416,27.88 L267.528,27.88 C268.256,27.88 268.662,27.614 268.662,26.816 L268.662,24.086 C268.662,23.4 268.312,23.008 267.57,23.008 L267.472,23.008 C266.744,23.008 266.352,23.288 266.352,24.086 L266.352,26.816 C266.352,27.614 266.688,27.88 267.416,27.88 Z M281.094,28.944 L280.086,29.056 C279.876,29.084 279.806,29.042 279.764,28.832 L279.288,26.718 L276.6,26.718 L276.152,28.832 C276.11,29.014 276.026,29.084 275.83,29.056 L274.864,28.944 C274.668,28.916 274.598,28.86 274.64,28.65 L276.74,19.522 C276.796,19.312 276.88,19.242 277.09,19.242 L278.882,19.242 C279.078,19.242 279.176,19.312 279.218,19.522 L281.318,28.65 C281.36,28.86 281.29,28.916 281.094,28.944 Z M279.092,25.514 L277.986,20.516 L277.93,20.516 L276.81,25.514 L279.092,25.514 Z M283.614,28.734 L281.92,22.336 C281.878,22.126 281.962,22.042 282.158,22.014 L283.138,21.93 C283.348,21.902 283.418,21.986 283.46,22.196 L284.23,25.318 C284.384,25.948 284.608,26.998 284.692,27.614 L284.748,27.614 C284.86,26.984 285.084,25.934 285.224,25.318 L285.98,22.196 C286.022,21.986 286.106,21.902 286.316,21.93 L287.254,22.014 C287.436,22.042 287.534,22.126 287.478,22.336 L285.798,28.734 C285.756,28.944 285.658,29 285.462,29 L283.95,29 C283.754,29 283.656,28.944 283.614,28.734 Z M288.626,26.816 L288.626,24.142 C288.626,22.518 289.522,21.804 291.342,21.804 L291.496,21.804 C293.162,21.804 293.946,22.504 293.946,23.848 L293.946,24.058 C293.946,25.472 293.288,25.92 291.734,25.92 C291.244,25.92 290.684,25.85 290.152,25.724 L290.152,26.662 C290.152,27.6 290.474,27.88 291.566,27.88 C292.392,27.88 292.896,27.768 293.4,27.628 C293.596,27.572 293.694,27.684 293.68,27.866 L293.61,28.524 C293.582,28.734 293.484,28.804 293.288,28.888 C293.022,28.986 292.224,29.126 291.398,29.126 L291.3,29.126 C289.732,29.126 288.626,28.65 288.626,26.816 Z M290.152,24.044 L290.152,24.66 C290.46,24.744 291.09,24.828 291.552,24.828 C292.28,24.828 292.476,24.548 292.476,24.03 L292.476,23.876 C292.476,23.274 292.252,22.966 291.412,22.966 L291.328,22.966 C290.474,22.966 290.152,23.26 290.152,24.044 Z M295.472,28.72 L295.472,24.002 C295.472,22.238 296.312,21.846 297.726,21.846 C298.16,21.846 298.538,21.888 298.776,21.944 C298.958,22 299.042,22.084 299.056,22.266 L299.112,23.078 C299.126,23.26 299.042,23.344 298.86,23.302 C298.482,23.232 298.132,23.218 297.936,23.218 C297.46,23.218 297.04,23.274 297.04,24.072 L297.04,28.72 C297.04,28.93 296.956,29 296.76,29 L295.752,29 C295.542,29 295.472,28.93 295.472,28.72 Z M299.91,27.026 L299.91,26.76 C299.91,25.08 301.142,24.758 302.57,24.66 C303.116,24.618 303.718,24.618 303.718,24.618 L303.718,24.128 C303.718,23.33 303.396,23.036 302.64,23.036 C301.968,23.036 301.324,23.162 300.848,23.274 C300.624,23.33 300.554,23.218 300.582,23.036 L300.638,22.406 C300.652,22.224 300.708,22.14 300.904,22.07 C301.226,21.972 301.912,21.846 302.696,21.846 C304.138,21.846 305.244,22.336 305.244,24.17 L305.244,28.314 C305.244,28.524 305.16,28.622 304.964,28.706 C304.516,28.902 303.578,29.126 302.542,29.126 C300.806,29.126 299.91,28.65 299.91,27.026 Z M301.422,26.774 L301.422,26.97 C301.422,27.6 301.702,27.922 302.57,27.922 C302.92,27.922 303.424,27.88 303.718,27.782 L303.718,25.71 C303.718,25.71 302.99,25.724 302.598,25.766 C301.8,25.836 301.422,26.032 301.422,26.774 Z M306.532,30.05 L306.532,29.798 C306.532,28.888 307.036,28.328 307.694,28.076 C307.204,27.838 307.064,27.404 307.064,27.082 L307.064,26.942 C307.064,26.592 307.246,26.144 307.792,25.934 C307.26,25.612 306.952,25.108 306.952,24.24 L306.952,23.918 C306.952,22.21 308.17,21.804 309.64,21.804 L309.752,21.804 C311.222,21.804 312.37,22.21 312.37,23.918 L312.37,24.24 C312.37,25.948 311.11,26.41 309.64,26.41 C309.43,26.41 309.276,26.424 309.136,26.438 C308.604,26.494 308.45,26.676 308.45,27.012 L308.45,27.04 C308.45,27.488 308.702,27.656 309.696,27.656 L309.766,27.656 C311.6,27.656 312.916,27.922 312.916,29.798 L312.916,30.05 C312.916,31.912 311.53,32.248 309.696,32.248 C307.834,32.248 306.532,31.912 306.532,30.05 Z M309.598,25.248 L309.696,25.248 C310.466,25.248 310.858,24.94 310.858,24.212 L310.858,23.96 C310.858,23.232 310.508,22.952 309.738,22.952 L309.64,22.952 C308.856,22.952 308.464,23.232 308.464,23.96 L308.464,24.212 C308.464,24.94 308.828,25.248 309.598,25.248 Z M308.072,29.84 L308.072,30.008 C308.072,30.918 308.702,31.058 309.696,31.058 C310.69,31.058 311.39,30.932 311.39,30.008 L311.39,29.84 C311.39,28.916 310.732,28.818 309.752,28.818 C308.758,28.818 308.072,28.93 308.072,29.84 Z M313.91,26.816 L313.91,24.142 C313.91,22.518 314.806,21.804 316.626,21.804 L316.78,21.804 C318.446,21.804 319.23,22.504 319.23,23.848 L319.23,24.058 C319.23,25.472 318.572,25.92 317.018,25.92 C316.528,25.92 315.968,25.85 315.436,25.724 L315.436,26.662 C315.436,27.6 315.758,27.88 316.85,27.88 C317.676,27.88 318.18,27.768 318.684,27.628 C318.88,27.572 318.978,27.684 318.964,27.866 L318.894,28.524 C318.866,28.734 318.768,28.804 318.572,28.888 C318.306,28.986 317.508,29.126 316.682,29.126 L316.584,29.126 C315.016,29.126 313.91,28.65 313.91,26.816 Z M315.436,24.044 L315.436,24.66 C315.744,24.744 316.374,24.828 316.836,24.828 C317.564,24.828 317.76,24.548 317.76,24.03 L317.76,23.876 C317.76,23.274 317.536,22.966 316.696,22.966 L316.612,22.966 C315.758,22.966 315.436,23.26 315.436,24.044 Z" id="CPUSystemLoadAverage" fill="#313653" fill-rule="nonzero"></path>
            </g>
        </g>
    </g>
</svg>