<svg width="580" height="767" xmlns="http://www.w3.org/2000/svg" xmlns:xlink="http://www.w3.org/1999/xlink"><defs><filter x="-4.6%" y="-3.2%" width="109.1%" height="106.8%" filterUnits="objectBoundingBox" id="a"><feOffset dy="2" in="SourceAlpha" result="shadowOffsetOuter1"/><feGaussianBlur stdDeviation="4.5" in="shadowOffsetOuter1" result="shadowBlurOuter1"/><feColorMatrix values="0 0 0 0 0 0 0 0 0 0 0 0 0 0 0 0 0 0 0.165073208 0" in="shadowBlurOuter1" result="shadowMatrixOuter1"/><feMerge><feMergeNode in="shadowMatrixOuter1"/><feMergeNode in="SourceGraphic"/></feMerge></filter><path d="M3 0h554a3 3 0 0 1 3 3v740a3 3 0 0 1-3 3H3a3 3 0 0 1-3-3V3a3 3 0 0 1 3-3z" id="c"/><filter x="-1.2%" y="-.7%" width="102.5%" height="101.9%" filterUnits="objectBoundingBox" id="b"><feOffset dy="2" in="SourceAlpha" result="shadowOffsetOuter1"/><feGaussianBlur stdDeviation="2" in="shadowOffsetOuter1" result="shadowBlurOuter1"/><feColorMatrix values="0 0 0 0 0.247058824 0 0 0 0 0.274509804 0 0 0 0 0.349019608 0 0 0 0.308112545 0" in="shadowBlurOuter1"/></filter></defs><g fill="none" fill-rule="evenodd"><g filter="url(#a)" transform="translate(10 7)"><use fill="#000" filter="url(#b)" xlink:href="#c"/><use fill="#FFF" xlink:href="#c"/></g><path fill="#FFF" d="M60 413h431v188H60z"/><path d="M140.5 581.355h349.973M140.5 602.179h349.973M140.5 560.531h349.973M140.5 539.708h349.973M140.5 518.884h349.973M140.5 498.06h349.973M140.5 477.237h349.973M140.5 456.414h349.973M140.5 435.59h349.973M140.5 414.767h349.973M140.5 393.943h349.973M140.5 373.12h349.973M140.5 352.296h349.973M140.5 331.473h349.973M140.5 310.65h349.973M140.5 289.826h349.973M140.5 269.002h349.973M140.5 248.179h349.973M140.5 227.179h349.973M140.5 206.179h349.973M140.5 185.179h349.973M140.5 164.179h349.973" stroke="#979797" stroke-width=".5" stroke-linecap="square"/><path d="M114.462 458.046l-.112-.7c-.028-.224.042-.336.126-.518l2.814-5.516c.098-.196.196-.196.392-.126l.91.294c.21.07.196.168.112.35l-1.498 2.856c-.42.784-1.274 2.366-1.274 2.366h2.856v-1.75c0-.21.084-.294.294-.294h.966c.21 0 .294.084.294.28v5.432c0 .21-.084.28-.28.28h-.994c-.21 0-.28-.07-.28-.28v-2.394h-4.046c-.21 0-.252-.07-.28-.28zm7.63 2.674v-1.008c0-.21.056-.28.28-.28h1.232c.21 0 .28.07.28.28v1.008c0 .21-.07.28-.28.28h-1.232c-.224 0-.28-.07-.28-.28zm3.598-2.128v-4.942c0-1.89 1.092-2.576 2.996-2.576h.042c1.89 0 2.926.672 2.926 2.562v4.97c0 1.89-1.12 2.562-3.01 2.562h-.042c-1.904 0-2.912-.686-2.912-2.576zm2.884 1.246h.126c.91 0 1.386-.322 1.386-1.218v-5.082c0-.896-.406-1.204-1.316-1.204h-.126c-.91 0-1.386.322-1.386 1.218v5.068c0 .896.406 1.218 1.316 1.218zM114.714 419.538l-.084-.784c-.014-.196.028-.266.252-.224.378.056 1.442.266 2.24.266 1.162 0 1.61-.196 1.61-1.372v-.574c0-1.176-.406-1.4-1.414-1.4h-2.198c-.196 0-.28-.07-.28-.28v-4.648c0-.21.084-.28.28-.28h4.326c.196 0 .252.07.28.28l.084.686c.014.21-.07.28-.28.28h-3.136v2.674h.98c2.03 0 2.912.686 2.912 2.688v.658c0 2.058-1.064 2.618-3.08 2.618-1.12 0-1.932-.182-2.198-.252-.196-.056-.28-.126-.294-.336zm7.224.182v-1.008c0-.21.056-.28.28-.28h1.232c.21 0 .28.07.28.28v1.008c0 .21-.07.28-.28.28h-1.232c-.224 0-.28-.07-.28-.28zm3.598-2.128v-4.942c0-1.89 1.092-2.576 2.996-2.576h.042c1.89 0 2.926.672 2.926 2.562v4.97c0 1.89-1.12 2.562-3.01 2.562h-.042c-1.904 0-2.912-.686-2.912-2.576zm2.884 1.246h.126c.91 0 1.386-.322 1.386-1.218v-5.082c0-.896-.406-1.204-1.316-1.204h-.126c-.91 0-1.386.322-1.386 1.218v5.068c0 .896.406 1.218 1.316 1.218zM114.896 375.648v-4.97c0-1.89 1.05-2.562 2.898-2.562h.042c.966 0 1.75.154 1.918.196.21.042.28.112.294.308l.084.742c.014.196-.028.252-.266.21-.182-.028-1.05-.196-1.876-.196h-.042c-1.008 0-1.512.28-1.512 1.204v.938c0 .364-.014.938-.014.938.266-.238.826-.448 1.582-.448h.07c1.414 0 2.562.672 2.562 2.548v1.092c0 1.876-1.078 2.52-2.842 2.52h-.112c-1.778 0-2.786-.644-2.786-2.52zm2.814 1.19h.07c.854 0 1.33-.252 1.33-1.316v-.938c0-1.022-.392-1.302-1.218-1.302h-.126c-.84 0-1.316.28-1.316 1.302v.938c0 1.064.392 1.316 1.26 1.316zm4.662.882v-1.008c0-.21.056-.28.28-.28h1.232c.21 0 .28.07.28.28v1.008c0 .21-.07.28-.28.28h-1.232c-.224 0-.28-.07-.28-.28zm3.598-2.128v-4.942c0-1.89 1.092-2.576 2.996-2.576h.042c1.89 0 2.926.672 2.926 2.562v4.97c0 1.89-1.12 2.562-3.01 2.562h-.042c-1.904 0-2.912-.686-2.912-2.576zm2.884 1.246h.126c.91 0 1.386-.322 1.386-1.218v-5.082c0-.896-.406-1.204-1.316-1.204h-.126c-.91 0-1.386.322-1.386 1.218v5.068c0 .896.406 1.218 1.316 1.218zM114.756 336.692l3.668-8.19h-3.822c-.21 0-.294-.07-.266-.28l.098-.7c.028-.21.098-.28.294-.28h4.998c.196 0 .266.07.266.28v.742c0 .182-.014.336-.098.532l-3.5 7.966c-.084.196-.168.238-.378.238h-1.078c-.21 0-.266-.112-.182-.308zm6.552.028v-1.008c0-.21.056-.28.28-.28h1.232c.21 0 .28.07.28.28v1.008c0 .21-.07.28-.28.28h-1.232c-.224 0-.28-.07-.28-.28zm3.598-2.128v-4.942c0-1.89 1.092-2.576 2.996-2.576h.042c1.89 0 2.926.672 2.926 2.562v4.97c0 1.89-1.12 2.562-3.01 2.562h-.042c-1.904 0-2.912-.686-2.912-2.576zm2.884 1.246h.126c.91 0 1.386-.322 1.386-1.218v-5.082c0-.896-.406-1.204-1.316-1.204h-.126c-.91 0-1.386.322-1.386 1.218v5.068c0 .896.406 1.218 1.316 1.218zM114.84 292.522v-.588c0-1.232.448-1.862 1.134-2.086-.546-.238-.938-.868-.938-1.876v-.448c0-1.778 1.078-2.45 2.8-2.45h.14c1.722 0 2.702.686 2.702 2.45v.448c0 .994-.406 1.61-.938 1.848.686.224 1.134.882 1.134 2.114v.588c0 1.974-.938 2.646-2.996 2.646h-.126c-2.058 0-2.912-.672-2.912-2.646zm2.954-3.22h.056c.882 0 1.302-.308 1.302-1.246v-.49c0-.938-.322-1.246-1.232-1.246h-.07c-.91 0-1.288.294-1.288 1.232v.504c0 .938.336 1.246 1.232 1.246zm-.028 4.564h.112c.98 0 1.442-.238 1.442-1.372v-.56c0-1.092-.336-1.4-1.386-1.4h-.098c-1.064 0-1.442.322-1.442 1.4v.546c0 1.148.392 1.386 1.372 1.386zm4.858.854v-1.008c0-.21.056-.28.28-.28h1.232c.21 0 .28.07.28.28v1.008c0 .21-.07.28-.28.28h-1.232c-.224 0-.28-.07-.28-.28zm3.598-2.128v-4.942c0-1.89 1.092-2.576 2.996-2.576h.042c1.89 0 2.926.672 2.926 2.562v4.97c0 1.89-1.12 2.562-3.01 2.562h-.042c-1.904 0-2.912-.686-2.912-2.576zm2.884 1.246h.126c.91 0 1.386-.322 1.386-1.218v-5.082c0-.896-.406-1.204-1.316-1.204h-.126c-.91 0-1.386.322-1.386 1.218v5.068c0 .896.406 1.218 1.316 1.218zM115.26 251.58l-.07-.756c-.028-.196.028-.294.238-.252.35.07 1.204.224 1.96.224h.042c1.064 0 1.596-.21 1.596-1.134v-1.092c0-.364.014-.966.014-.966-.252.238-.7.448-1.54.448h-.112c-1.54 0-2.562-.644-2.562-2.59v-.84c0-1.904 1.12-2.548 2.856-2.548h.098c1.722 0 2.786.63 2.786 2.492v5.054c0 1.932-1.092 2.506-3.108 2.506h-.042a8.028 8.028 0 0 1-1.848-.21c-.224-.056-.28-.126-.308-.336zm2.31-4.802h.14c.84 0 1.302-.252 1.302-1.274v-.882c0-1.064-.42-1.302-1.274-1.302h-.07c-.84 0-1.316.238-1.316 1.302v.868c0 1.036.378 1.288 1.218 1.288zm4.802 4.942v-1.008c0-.21.056-.28.28-.28h1.232c.21 0 .28.07.28.28v1.008c0 .21-.07.28-.28.28h-1.232c-.224 0-.28-.07-.28-.28zm3.598-2.128v-4.942c0-1.89 1.092-2.576 2.996-2.576h.042c1.89 0 2.926.672 2.926 2.562v4.97c0 1.89-1.12 2.562-3.01 2.562h-.042c-1.904 0-2.912-.686-2.912-2.576zm2.884 1.246h.126c.91 0 1.386-.322 1.386-1.218v-5.082c0-.896-.406-1.204-1.316-1.204h-.126c-.91 0-1.386.322-1.386 1.218v5.068c0 .896.406 1.218 1.316 1.218zM110.114 210.72v-7.854l-1.176.546c-.21.098-.336.084-.406-.14l-.21-.644c-.056-.182-.042-.322.168-.42l1.736-.84c.168-.084.308-.126.49-.126h.686c.196 0 .266.07.266.28v9.198c0 .21-.07.28-.266.28h-1.008c-.21 0-.28-.07-.28-.28zm3.458-2.128v-4.942c0-1.89 1.092-2.576 2.996-2.576h.042c1.89 0 2.926.672 2.926 2.562v4.97c0 1.89-1.12 2.562-3.01 2.562h-.042c-1.904 0-2.912-.686-2.912-2.576zm2.884 1.246h.126c.91 0 1.386-.322 1.386-1.218v-5.082c0-.896-.406-1.204-1.316-1.204h-.126c-.91 0-1.386.322-1.386 1.218v5.068c0 .896.406 1.218 1.316 1.218zm4.886.882v-1.008c0-.21.056-.28.28-.28h1.232c.21 0 .28.07.28.28v1.008c0 .21-.07.28-.28.28h-1.232c-.224 0-.28-.07-.28-.28zm3.598-2.128v-4.942c0-1.89 1.092-2.576 2.996-2.576h.042c1.89 0 2.926.672 2.926 2.562v4.97c0 1.89-1.12 2.562-3.01 2.562h-.042c-1.904 0-2.912-.686-2.912-2.576zm2.884 1.246h.126c.91 0 1.386-.322 1.386-1.218v-5.082c0-.896-.406-1.204-1.316-1.204h-.126c-.91 0-1.386.322-1.386 1.218v5.068c0 .896.406 1.218 1.316 1.218zM112.114 168.72v-7.854l-1.176.546c-.21.098-.336.084-.406-.14l-.21-.644c-.056-.182-.042-.322.168-.42l1.736-.84c.168-.084.308-.126.49-.126h.686c.196 0 .266.07.266.28v9.198c0 .21-.07.28-.266.28h-1.008c-.21 0-.28-.07-.28-.28zm4.676 0v-7.854l-1.176.546c-.21.098-.336.084-.406-.14l-.21-.644c-.056-.182-.042-.322.168-.42l1.736-.84c.168-.084.308-.126.49-.126h.686c.196 0 .266.07.266.28v9.198c0 .21-.07.28-.266.28h-1.008c-.21 0-.28-.07-.28-.28zm3.472 0v-1.008c0-.21.056-.28.28-.28h1.232c.21 0 .28.07.28.28v1.008c0 .21-.07.28-.28.28h-1.232c-.224 0-.28-.07-.28-.28zm3.598-2.128v-4.942c0-1.89 1.092-2.576 2.996-2.576h.042c1.89 0 2.926.672 2.926 2.562v4.97c0 1.89-1.12 2.562-3.01 2.562h-.042c-1.904 0-2.912-.686-2.912-2.576zm2.884 1.246h.126c.91 0 1.386-.322 1.386-1.218v-5.082c0-.896-.406-1.204-1.316-1.204h-.126c-.91 0-1.386.322-1.386 1.218v5.068c0 .896.406 1.218 1.316 1.218zM114.854 544.72v-2.856c0-1.876.84-2.17 2.422-2.45l.532-.084c.84-.14 1.232-.308 1.232-1.274v-.518c0-1.008-.574-1.162-1.54-1.162h-.056c-.574 0-1.442.14-1.918.252-.196.056-.266-.028-.238-.238l.07-.7c.014-.21.112-.266.294-.322a7.857 7.857 0 0 1 1.932-.252h.042c1.946 0 2.968.56 2.968 2.478v.518c0 1.918-.882 2.198-2.436 2.464l-.602.112c-.742.126-1.148.238-1.148 1.12v1.862h3.962c.21 0 .266.07.252.28l-.084.77c-.028.21-.098.28-.308.28h-5.11c-.196 0-.266-.07-.266-.28zm7.504 0v-1.008c0-.21.056-.28.28-.28h1.232c.21 0 .28.07.28.28v1.008c0 .21-.07.28-.28.28h-1.232c-.224 0-.28-.07-.28-.28zm3.598-2.128v-4.942c0-1.89 1.092-2.576 2.996-2.576h.042c1.89 0 2.926.672 2.926 2.562v4.97c0 1.89-1.12 2.562-3.01 2.562h-.042c-1.904 0-2.912-.686-2.912-2.576zm2.884 1.246h.126c.91 0 1.386-.322 1.386-1.218v-5.082c0-.896-.406-1.204-1.316-1.204h-.126c-.91 0-1.386.322-1.386 1.218v5.068c0 .896.406 1.218 1.316 1.218zM114.672 501.58l-.07-.784c-.028-.21.028-.266.252-.224.35.056 1.288.224 2.058.224h.098c1.134 0 1.568-.224 1.568-1.344v-.574c0-1.008-.364-1.302-1.386-1.302h-1.232c-.21 0-.28-.07-.28-.266v-.742c0-.196.07-.28.28-.28h1.106c1.008 0 1.414-.266 1.414-1.232v-.462c0-.91-.322-1.218-1.4-1.218h-.028c-.924 0-1.624.126-2.016.196-.224.042-.28-.028-.252-.238l.07-.686c.014-.196.098-.266.294-.322.196-.056 1.022-.21 1.946-.21h.042c2.044 0 2.912.672 2.912 2.52v.406c0 1.022-.504 1.596-1.12 1.806.742.168 1.204.77 1.204 2.1v.518c0 1.988-.896 2.66-2.996 2.66h-.07c-.938 0-1.736-.126-2.1-.224-.21-.056-.266-.126-.294-.322zm7.21.14v-1.008c0-.21.056-.28.28-.28h1.232c.21 0 .28.07.28.28v1.008c0 .21-.07.28-.28.28h-1.232c-.224 0-.28-.07-.28-.28zm3.598-2.128v-4.942c0-1.89 1.092-2.576 2.996-2.576h.042c1.89 0 2.926.672 2.926 2.562v4.97c0 1.89-1.12 2.562-3.01 2.562h-.042c-1.904 0-2.912-.686-2.912-2.576zm2.884 1.246h.126c.91 0 1.386-.322 1.386-1.218v-5.082c0-.896-.406-1.204-1.316-1.204h-.126c-.91 0-1.386.322-1.386 1.218v5.068c0 .896.406 1.218 1.316 1.218zM116.114 585.72v-7.854l-1.176.546c-.21.098-.336.084-.406-.14l-.21-.644c-.056-.182-.042-.322.168-.42l1.736-.84c.168-.084.308-.126.49-.126h.686c.196 0 .266.07.266.28v9.198c0 .21-.07.28-.266.28h-1.008c-.21 0-.28-.07-.28-.28zm3.472 0v-1.008c0-.21.056-.28.28-.28h1.232c.21 0 .28.07.28.28v1.008c0 .21-.07.28-.28.28h-1.232c-.224 0-.28-.07-.28-.28zm3.598-2.128v-4.942c0-1.89 1.092-2.576 2.996-2.576h.042c1.89 0 2.926.672 2.926 2.562v4.97c0 1.89-1.12 2.562-3.01 2.562h-.042c-1.904 0-2.912-.686-2.912-2.576zm2.884 1.246h.126c.91 0 1.386-.322 1.386-1.218v-5.082c0-.896-.406-1.204-1.316-1.204h-.126c-.91 0-1.386.322-1.386 1.218v5.068c0 .896.406 1.218 1.316 1.218zM254.535 76.456l-.085-.935c-.034-.221.034-.323.323-.272.56.102 1.547.289 2.532.289 1.496 0 1.972-.323 1.972-1.666v-.425c0-1.275-.373-1.598-1.546-1.853l-.255-.068c-1.837-.391-3.01-.799-3.01-3.043v-.408c0-2.397 1.258-3.077 3.52-3.077.816 0 1.615.119 2.023.238.272.068.357.153.374.408l.102.833c.017.238-.034.34-.306.289a10.244 10.244 0 0 0-2.142-.238c-1.088 0-1.683.306-1.683 1.462v.34c0 1.071.374 1.343 1.58 1.615l.256.051c2.04.442 2.958.935 2.958 3.315v.527c0 2.533-1.037 3.315-3.707 3.315-1.138 0-2.192-.187-2.55-.272-.254-.068-.34-.187-.356-.425zm9.01-1.87v-4.743h-.97c-.272 0-.34-.068-.34-.34v-.697c0-.272.069-.34.34-.34h.97v-1.921c0-.238.068-.34.323-.357l1.207-.119c.238-.017.34.051.34.323v2.074h1.717c.255 0 .34.051.357.323l.085.731c.017.272-.051.323-.323.323h-1.836v4.743c0 .833.187.952 1.07.952.375 0 .664-.051.902-.068.187 0 .306.068.289.289l-.102.833c-.017.221-.085.374-.34.408-.272.068-.527.102-1.054.102-1.7 0-2.635-.425-2.635-2.516zm5.286.017v-.323c0-2.04 1.496-2.431 3.23-2.55.663-.051 1.394-.051 1.394-.051v-.595c0-.969-.39-1.326-1.308-1.326-.817 0-1.599.153-2.176.289-.272.068-.358-.068-.324-.289l.069-.765c.017-.221.084-.323.322-.408.392-.119 1.224-.272 2.176-.272 1.752 0 3.094.595 3.094 2.822v5.032c0 .255-.101.374-.34.476-.543.238-1.683.51-2.94.51-2.108 0-3.197-.578-3.197-2.55zm1.837-.306v.238c0 .765.34 1.156 1.394 1.156.424 0 1.036-.051 1.393-.17v-2.516s-.883.017-1.36.068c-.969.085-1.428.323-1.428 1.224zm6.817 2.363v-5.729c0-2.142 1.02-2.618 2.736-2.618.527 0 .986.051 1.276.119.22.068.322.17.34.391l.067.986c.017.221-.084.323-.305.272a6.407 6.407 0 0 0-1.123-.102c-.577 0-1.087.068-1.087 1.037v5.644c0 .255-.103.34-.34.34h-1.224c-.255 0-.34-.085-.34-.34zm6.204-2.074v-4.743h-.969c-.272 0-.34-.068-.34-.34v-.697c0-.272.069-.34.34-.34h.97v-1.921c0-.238.067-.34.322-.357l1.207-.119c.238-.017.34.051.34.323v2.074h1.717c.255 0 .34.051.358.323l.084.731c.017.272-.05.323-.322.323h-1.837v4.743c0 .833.188.952 1.071.952.375 0 .663-.051.901-.068.188 0 .306.068.29.289l-.103.833c-.017.221-.084.374-.34.408-.272.068-.526.102-1.053.102-1.7 0-2.635-.425-2.635-2.516zm5.185-2.023v-.85c0-.272.068-.34.34-.34h4.301c.273 0 .34.068.34.34v.85c0 .255-.084.323-.34.323h-4.3c-.272 0-.34-.068-.34-.323zm6.698 1.785v-5.457c0-.255.068-.34.324-.374l1.224-.102c.255-.034.356.068.356.323v5.474c0 .986.272 1.377 1.31 1.377.407 0 .952-.051 1.274-.187v-6.664c0-.255.103-.357.306-.323l1.259.102c.255.034.322.119.322.374v7.276c0 .255-.084.374-.34.476-.544.238-1.666.51-2.94.51-1.87 0-3.094-.578-3.094-2.805zm8.62 5.984v-9.333c0-2.244 1.41-2.737 3.246-2.737h.17c1.803 0 3.145.578 3.145 2.788v3.349c0 2.295-1.478 2.805-2.89 2.805h-.05c-.613 0-1.394-.119-1.786-.442 0 0 .052.612.052 1.19v2.55c0 .272-.12.34-.392.323l-1.173-.119c-.238-.017-.322-.136-.322-.374zm3.178-4.692h.137c.883 0 1.377-.357 1.377-1.343V71.05c0-.969-.409-1.326-1.293-1.326h-.153c-.883 0-1.36.306-1.36 1.275v3.332c0 .969.409 1.309 1.293 1.309zm9.877-1.054v-4.743h-.969c-.272 0-.34-.068-.34-.34v-.697c0-.272.069-.34.34-.34h.97v-1.921c0-.238.067-.34.322-.357l1.207-.119c.238-.017.34.051.34.323v2.074h1.717c.255 0 .34.051.358.323l.084.731c.017.272-.05.323-.322.323h-1.837v4.743c0 .833.188.952 1.071.952.375 0 .663-.051.901-.068.188 0 .307.068.29.289l-.103.833c-.017.221-.084.374-.34.408-.272.068-.526.102-1.053.102-1.7 0-2.635-.425-2.635-2.516zm5.644-8.024v-1.071c0-.255.085-.34.34-.34h1.394c.255 0 .34.085.34.34v1.071c0 .255-.101.34-.34.34h-1.394c-.255 0-.34-.085-.34-.34zm.085 10.098v-7.769c0-.255.103-.34.324-.374l1.224-.102c.255-.034.356.068.356.323v7.922c0 .255-.101.34-.34.34h-1.224c-.254 0-.34-.085-.34-.34zm4.216 0v-7.378c0-.238.103-.357.34-.459.545-.255 1.632-.51 2.755-.51h.067c.868 0 1.7.187 2.177.816.51-.578 1.41-.816 2.26-.816h.051c1.65 0 2.874.527 2.874 2.754v5.593c0 .255-.086.34-.34.34h-1.224c-.238 0-.323-.085-.323-.34v-5.661c0-.952-.392-1.224-1.156-1.224h-.051c-.749 0-1.225.272-1.225 1.224v5.661c0 .255-.101.34-.34.34h-1.207c-.238 0-.323-.085-.323-.34v-5.678c0-.918-.39-1.207-1.19-1.207h-.017c-.373 0-.9.068-1.224.187v6.698c0 .255-.101.34-.34.34h-1.223c-.256 0-.34-.085-.34-.34zm12.632-2.312v-3.247c0-1.972 1.087-2.839 3.298-2.839h.186c2.024 0 2.976.85 2.976 2.482v.255c0 1.717-.8 2.261-2.686 2.261a8.601 8.601 0 0 1-1.922-.238v1.139c0 1.139.392 1.479 1.718 1.479a7.53 7.53 0 0 0 2.226-.306c.238-.068.358.068.34.289l-.084.799c-.034.255-.153.34-.391.442-.324.119-1.293.289-2.296.289h-.119c-1.904 0-3.246-.578-3.246-2.805zm1.852-3.366v.748c.375.102 1.14.204 1.7.204.885 0 1.123-.34 1.123-.969v-.187c0-.731-.273-1.105-1.293-1.105h-.102c-1.036 0-1.428.357-1.428 1.309zm6.478.17v-1.224c0-.255.067-.34.34-.34h1.495c.256 0 .34.085.34.34v1.224c0 .255-.084.34-.34.34h-1.495c-.273 0-.34-.085-.34-.34zm0 5.508v-1.224c0-.255.067-.34.34-.34h1.495c.256 0 .34.085.34.34v1.224c0 .255-.084.34-.34.34h-1.495c-.273 0-.34-.085-.34-.34zM100.022 94.008v-5.865c0-2.295 1.325-3.196 3.773-3.196h.17c2.448 0 3.672.918 3.672 3.196v5.865c0 2.295-1.326 3.196-3.773 3.196h-.17c-2.448 0-3.672-.901-3.672-3.196zm3.688 1.581h.137c1.343 0 1.887-.544 1.887-1.649v-5.814c0-1.105-.442-1.649-1.785-1.649h-.153c-1.344 0-1.87.544-1.87 1.649v5.814c0 1.105.442 1.649 1.784 1.649zm6.12 4.743v-9.333c0-2.244 1.412-2.737 3.248-2.737h.17c1.801 0 3.144.578 3.144 2.788v3.349c0 2.295-1.478 2.805-2.89 2.805h-.05c-.612 0-1.394-.119-1.785-.442 0 0 .05.612.05 1.19v2.55c0 .272-.118.34-.39.323l-1.174-.119c-.238-.017-.323-.136-.323-.374zm3.18-4.692h.135c.885 0 1.377-.357 1.377-1.343V91.05c0-.969-.407-1.326-1.291-1.326h-.153c-.885 0-1.36.306-1.36 1.275v3.332c0 .969.407 1.309 1.291 1.309zm5.44-1.292v-3.247c0-1.972 1.087-2.839 3.297-2.839h.188c2.022 0 2.974.85 2.974 2.482v.255c0 1.717-.799 2.261-2.686 2.261a8.601 8.601 0 0 1-1.92-.238v1.139c0 1.139.39 1.479 1.716 1.479a7.53 7.53 0 0 0 2.227-.306c.239-.068.358.068.34.289l-.085.799c-.034.255-.153.34-.39.442-.324.119-1.293.289-2.296.289h-.118c-1.904 0-3.248-.578-3.248-2.805zm1.852-3.366v.748c.374.102 1.14.204 1.7.204.885 0 1.123-.34 1.123-.969v-.187c0-.731-.272-1.105-1.293-1.105h-.101c-1.037 0-1.428.357-1.428 1.309zm6.511 5.678v-7.361c0-.255.102-.374.34-.476.544-.238 1.683-.51 2.959-.51 1.853 0 3.077.578 3.077 2.822v5.525c0 .255-.085.34-.34.34h-1.207c-.255 0-.34-.085-.34-.34v-5.508c0-.986-.29-1.377-1.31-1.377-.424 0-.951.051-1.274.187v6.698c0 .255-.102.34-.34.34h-1.224c-.255 0-.34-.085-.34-.34zm12.615 0V85.491c0-.255.084-.34.34-.34h1.224c.255 0 .34.085.34.34v9.894h3.587c.271 0 .34.068.322.323l-.119.952c-.017.255-.119.34-.374.34h-4.98c-.256 0-.34-.085-.34-.34zm7.327-10.098v-1.071c0-.255.084-.34.34-.34h1.393c.256 0 .34.085.34.34v1.071c0 .255-.102.34-.34.34h-1.393c-.256 0-.34-.085-.34-.34zm.084 10.098v-7.769c0-.255.102-.34.323-.374l1.225-.102c.255-.034.357.068.357.323v7.922c0 .255-.102.34-.34.34h-1.225c-.255 0-.34-.085-.34-.34zm4.183-2.04v-9.469c0-.272.085-.357.323-.391l1.207-.102c.255 0 .357.051.357.306v2.584c0 .578-.052 1.19-.052 1.19.375-.272.987-.476 1.82-.476h.05c1.446 0 2.856.51 2.856 2.805v3.349c0 2.227-1.445 2.788-3.246 2.788h-.153c-1.887 0-3.162-.476-3.162-2.584zm3.162 1.02h.153c.883 0 1.36-.357 1.36-1.326v-3.281c0-.969-.409-1.309-1.275-1.309h-.102c-.935 0-1.411.34-1.411 1.309v3.332c0 .986.39 1.275 1.275 1.275zm5.44-1.292v-3.247c0-1.972 1.088-2.839 3.298-2.839h.186c2.023 0 2.975.85 2.975 2.482v.255c0 1.717-.798 2.261-2.685 2.261a8.601 8.601 0 0 1-1.922-.238v1.139c0 1.139.392 1.479 1.718 1.479a7.53 7.53 0 0 0 2.227-.306c.238-.068.357.068.34.289l-.085.799c-.034.255-.153.34-.391.442-.323.119-1.292.289-2.296.289h-.119c-1.904 0-3.246-.578-3.246-2.805zm1.852-3.366v.748c.375.102 1.14.204 1.7.204.885 0 1.123-.34 1.123-.969v-.187c0-.731-.273-1.105-1.293-1.105h-.101c-1.037 0-1.429.357-1.429 1.309zm6.46 5.678v-5.729c0-2.142 1.02-2.618 2.737-2.618.528 0 .987.051 1.275.119.221.068.323.17.34.391l.069.986c.017.221-.085.323-.306.272a6.407 6.407 0 0 0-1.122-.102c-.578 0-1.089.068-1.089 1.037v5.644c0 .255-.102.34-.34.34h-1.224c-.255 0-.34-.085-.34-.34zm6.206-2.074v-4.743h-.97c-.272 0-.34-.068-.34-.34v-.697c0-.272.069-.34.34-.34h.97v-1.921c0-.238.067-.34.322-.357l1.208-.119c.238-.017.34.051.34.323v2.074h1.716c.255 0 .34.051.357.323l.085.731c.018.272-.05.323-.322.323h-1.837v4.743c0 .833.188.952 1.072.952.374 0 .662-.051.9-.068.188 0 .306.068.29.289l-.102.833c-.017.221-.085.374-.34.408-.272.068-.527.102-1.054.102-1.7 0-2.635-.425-2.635-2.516zm7.632 5.814l-.101-.816c-.018-.272.05-.357.288-.323.136.017.8.068.952.068.663 0 1.428-.051 1.428-1.173v-1.649c-.374.391-1.121.493-1.666.493h-.034c-1.597 0-2.855-.578-2.855-2.788v-5.321c0-.255.084-.34.322-.374l1.225-.102c.255 0 .357.068.357.323v5.372c0 .952.305 1.326 1.24 1.326h.052c.9 0 1.292-.357 1.292-1.241v-5.457c0-.255.101-.323.357-.323l1.207.102c.238.034.323.119.323.374v9.18c0 2.346-1.411 2.788-3.01 2.788-.493 0-.952-.068-1.121-.102-.154-.051-.238-.119-.256-.357zm11.867-3.723l-2.058-7.769c-.05-.255.052-.357.29-.391l1.19-.102c.255-.034.34.068.39.323l.935 3.791c.188.765.46 2.04.561 2.788h.069c.136-.765.407-2.04.577-2.788l.918-3.791c.052-.255.154-.357.409-.323l1.138.102c.221.034.34.136.273.391l-2.04 7.769c-.052.255-.17.323-.409.323h-1.835c-.239 0-.358-.068-.409-.323zm5.933-.306l-.069-.782c-.034-.255.069-.374.323-.306.647.17 1.582.306 2.415.306h.034c.9 0 1.377-.119 1.377-.952v-.136c0-.663-.238-.901-1.173-1.105l-.392-.085c-1.733-.357-2.55-.799-2.55-2.414v-.255c0-2.006 1.53-2.329 2.925-2.329h.034c.697 0 1.58.102 2.006.238.238.068.34.187.374.391l.068.765c.017.221-.052.357-.306.306a8.237 8.237 0 0 0-1.972-.238h-.069c-.781 0-1.206.187-1.206.85v.136c0 .476.119.782 1.155 1.003l.442.102c1.599.323 2.5.799 2.5 2.482v.357c0 2.142-1.412 2.448-3.18 2.448h-.05c-1.054 0-2.091-.204-2.313-.289-.203-.068-.34-.187-.374-.493zm7.7.289v-1.224c0-.255.069-.34.34-.34h1.496c.255 0 .34.085.34.34v1.224c0 .255-.084.34-.34.34h-1.496c-.272 0-.34-.085-.34-.34zm8.212-2.261v-3.332c0-2.227 1.445-2.805 3.246-2.805h.17c1.803 0 3.146.578 3.146 2.805v3.332c0 2.227-1.429 2.805-3.23 2.805h-.17c-1.803 0-3.162-.578-3.162-2.805zm3.179 1.241h.136c.884 0 1.377-.374 1.377-1.343v-3.264c0-.969-.409-1.309-1.292-1.309h-.154c-.883 0-1.36.34-1.36 1.309v3.281c0 .952.408 1.326 1.292 1.326zm5.966-1.054v-4.743h-.969c-.272 0-.34-.068-.34-.34v-.697c0-.272.069-.34.34-.34h.97v-1.921c0-.238.067-.34.322-.357l1.207-.119c.238-.017.34.051.34.323v2.074h1.718c.255 0 .34.051.357.323l.085.731c.017.272-.052.323-.323.323H226.5v4.743c0 .833.188.952 1.071.952.374 0 .663-.051.901-.068.188 0 .306.068.29.289l-.102.833c-.018.221-.085.374-.34.408-.273.068-.528.102-1.054.102-1.7 0-2.636-.425-2.636-2.516zm5.696 2.074V85.151c0-.255.084-.357.322-.391l1.225-.102c.255 0 .357.051.357.306v2.55c0 .578-.052 1.241-.052 1.241.375-.34 1.106-.493 1.666-.493h.052c1.462 0 2.822.544 2.822 2.771v5.627c0 .255-.085.34-.34.34h-1.224c-.238 0-.323-.085-.323-.34v-5.644c0-.969-.357-1.292-1.225-1.292h-.084c-.868 0-1.292.323-1.292 1.292v5.644c0 .255-.102.34-.34.34h-1.224c-.256 0-.34-.085-.34-.34zm8.5-2.312v-3.247c0-1.972 1.088-2.839 3.298-2.839h.186c2.023 0 2.975.85 2.975 2.482v.255c0 1.717-.798 2.261-2.685 2.261a8.601 8.601 0 0 1-1.922-.238v1.139c0 1.139.392 1.479 1.718 1.479a7.53 7.53 0 0 0 2.227-.306c.238-.068.357.068.34.289l-.085.799c-.034.255-.153.34-.391.442-.323.119-1.292.289-2.296.289h-.119c-1.904 0-3.246-.578-3.246-2.805zm1.852-3.366v.748c.375.102 1.14.204 1.7.204.885 0 1.123-.34 1.123-.969v-.187c0-.731-.273-1.105-1.293-1.105h-.102c-1.036 0-1.428.357-1.428 1.309zm6.46 5.678v-5.729c0-2.142 1.02-2.618 2.737-2.618.528 0 .987.051 1.275.119.221.068.323.17.34.391l.069.986c.017.221-.085.323-.306.272a6.407 6.407 0 0 0-1.123-.102c-.577 0-1.088.068-1.088 1.037v5.644c0 .255-.102.34-.34.34h-1.224c-.255 0-.34-.085-.34-.34zm9.673-2.04v-9.469c0-.255.085-.357.323-.391l1.224-.102c.255-.034.34.051.34.306v9.571c0 .833.153 1.003.833 1.003.136 0 .408-.034.51-.034.204 0 .29.051.272.323l-.102.85c-.017.255-.102.323-.34.374a6.331 6.331 0 0 1-.799.051c-1.326 0-2.26-.374-2.26-2.482zm4.777-8.058v-1.071c0-.255.085-.34.34-.34h1.394c.255 0 .34.085.34.34v1.071c0 .255-.102.34-.34.34h-1.394c-.255 0-.34-.085-.34-.34zm.085 10.098v-7.769c0-.255.102-.34.323-.374l1.224-.102c.255-.034.357.068.357.323v7.922c0 .255-.102.34-.34.34h-1.224c-.255 0-.34-.085-.34-.34zm3.553 1.615v-.306c0-1.105.612-1.785 1.412-2.091a1.31 1.31 0 0 1-.766-1.207v-.17c0-.425.222-.969.885-1.224-.646-.391-1.02-1.003-1.02-2.057v-.391c0-2.074 1.479-2.567 3.264-2.567h.136c1.785 0 3.179.493 3.179 2.567v.391c0 2.074-1.53 2.635-3.315 2.635-.255 0-.442.017-.612.034-.646.068-.833.289-.833.697v.034c0 .544.306.748 1.513.748h.085c2.227 0 3.825.323 3.825 2.601v.306c0 2.261-1.683 2.669-3.91 2.669-2.261 0-3.842-.408-3.842-2.669zm3.723-5.831h.12c.934 0 1.41-.374 1.41-1.258v-.306c0-.884-.425-1.224-1.36-1.224h-.119c-.952 0-1.428.34-1.428 1.224v.306c0 .884.442 1.258 1.377 1.258zm-1.853 5.576v.204c0 1.105.765 1.275 1.972 1.275 1.207 0 2.057-.153 2.057-1.275v-.204c0-1.122-.799-1.241-1.989-1.241-1.207 0-2.04.136-2.04 1.241zm7.208-1.36V85.151c0-.255.085-.357.323-.391l1.224-.102c.255 0 .357.051.357.306v2.55c0 .578-.05 1.241-.05 1.241.373-.34 1.104-.493 1.665-.493h.051c1.462 0 2.822.544 2.822 2.771v5.627c0 .255-.085.34-.34.34h-1.224c-.238 0-.323-.085-.323-.34v-5.644c0-.969-.357-1.292-1.224-1.292h-.085c-.867 0-1.292.323-1.292 1.292v5.644c0 .255-.102.34-.34.34h-1.224c-.255 0-.34-.085-.34-.34zm9.027-2.074v-4.743h-.969c-.272 0-.34-.068-.34-.34v-.697c0-.272.068-.34.34-.34h.97v-1.921c0-.238.067-.34.322-.357l1.207-.119c.238-.017.34.051.34.323v2.074h1.717c.255 0 .34.051.357.323l.085.731c.017.272-.05.323-.323.323h-1.836v4.743c0 .833.187.952 1.071.952.374 0 .663-.051.901-.068.187 0 .306.068.29.289l-.103.833c-.017.221-.085.374-.34.408-.272.068-.527.102-1.054.102-1.7 0-2.635-.425-2.635-2.516zm6.613 2.091l-1.649-7.786c-.05-.238.051-.357.29-.374l1.19-.119c.237 0 .356.085.407.34l.68 3.825c.17.901.34 2.159.408 2.72h.068c.102-.595.34-1.615.578-2.703l.901-3.74c.068-.255.153-.323.408-.323h1.326c.272 0 .34.068.391.306l.935 3.825c.255 1.139.46 2.091.544 2.635h.068c.085-.544.255-1.819.408-2.703l.68-3.842c.051-.255.136-.34.391-.34l1.14.119c.22.017.356.102.305.357l-1.649 7.82c-.034.238-.136.306-.357.306h-1.768c-.204 0-.306-.068-.357-.306l-.952-4.063c-.238-1.003-.357-1.887-.442-2.329h-.068a22.95 22.95 0 0 1-.408 2.261l-.986 4.114c-.05.255-.153.323-.39.323h-1.7c-.239 0-.34-.068-.392-.323zm10.897-2.329v-3.247c0-1.972 1.088-2.839 3.298-2.839h.187c2.023 0 2.975.85 2.975 2.482v.255c0 1.717-.799 2.261-2.686 2.261a8.601 8.601 0 0 1-1.92-.238v1.139c0 1.139.39 1.479 1.716 1.479a7.53 7.53 0 0 0 2.227-.306c.238-.068.357.068.34.289l-.085.799c-.034.255-.153.34-.39.442-.324.119-1.293.289-2.296.289h-.119c-1.904 0-3.247-.578-3.247-2.805zm1.853-3.366v.748c.374.102 1.14.204 1.7.204.884 0 1.122-.34 1.122-.969v-.187c0-.731-.272-1.105-1.292-1.105h-.102c-1.037 0-1.428.357-1.428 1.309zm6.46-4.42v-1.071c0-.255.085-.34.34-.34h1.394c.255 0 .34.085.34.34v1.071c0 .255-.102.34-.34.34h-1.394c-.255 0-.34-.085-.34-.34zm.085 10.098v-7.769c0-.255.102-.34.323-.374l1.224-.102c.255-.034.357.068.357.323v7.922c0 .255-.102.34-.34.34h-1.224c-.255 0-.34-.085-.34-.34zm3.553 1.615v-.306c0-1.105.612-1.785 1.411-2.091a1.31 1.31 0 0 1-.765-1.207v-.17c0-.425.221-.969.884-1.224-.646-.391-1.02-1.003-1.02-2.057v-.391c0-2.074 1.48-2.567 3.264-2.567h.136c1.785 0 3.18.493 3.18 2.567v.391c0 2.074-1.53 2.635-3.316 2.635-.255 0-.442.017-.612.034-.646.068-.833.289-.833.697v.034c0 .544.306.748 1.513.748h.085c2.227 0 3.825.323 3.825 2.601v.306c0 2.261-1.683 2.669-3.91 2.669-2.26 0-3.842-.408-3.842-2.669zm3.723-5.831h.12c.934 0 1.41-.374 1.41-1.258v-.306c0-.884-.425-1.224-1.36-1.224h-.119c-.952 0-1.428.34-1.428 1.224v.306c0 .884.442 1.258 1.377 1.258zm-1.853 5.576v.204c0 1.105.765 1.275 1.972 1.275 1.207 0 2.057-.153 2.057-1.275v-.204c0-1.122-.799-1.241-1.989-1.241-1.207 0-2.04.136-2.04 1.241zm7.208-1.36V85.151c0-.255.085-.357.323-.391l1.224-.102c.255 0 .357.051.357.306v2.55c0 .578-.05 1.241-.05 1.241.373-.34 1.104-.493 1.665-.493h.051c1.462 0 2.822.544 2.822 2.771v5.627c0 .255-.085.34-.34.34H326.7c-.238 0-.323-.085-.323-.34v-5.644c0-.969-.357-1.292-1.224-1.292h-.085c-.867 0-1.292.323-1.292 1.292v5.644c0 .255-.102.34-.34.34h-1.224c-.255 0-.34-.085-.34-.34zm9.027-2.074v-4.743h-.969c-.272 0-.34-.068-.34-.34v-.697c0-.272.068-.34.34-.34h.97v-1.921c0-.238.067-.34.322-.357l1.207-.119c.238-.017.34.051.34.323v2.074h1.717c.255 0 .34.051.357.323l.085.731c.017.272-.05.323-.323.323h-1.836v4.743c0 .833.187.952 1.071.952.374 0 .663-.051.901-.068.187 0 .306.068.29.289l-.103.833c-.017.221-.085.374-.34.408-.272.068-.527.102-1.054.102-1.7 0-2.635-.425-2.635-2.516zm8.908 2.023l-.102-.935c-.017-.221.051-.34.306-.289.34.085.85.153 1.36.153 1.462 0 1.82-.527 1.82-1.615v-8.432c0-.255.101-.34.34-.34h1.24c.238 0 .323.085.323.34v8.466c0 2.312-1.156 3.196-3.502 3.196a6.065 6.065 0 0 1-1.428-.153c-.255-.051-.34-.17-.357-.391zm7.174-2.006v-.323c0-2.04 1.496-2.431 3.23-2.55.663-.051 1.394-.051 1.394-.051v-.595c0-.969-.39-1.326-1.309-1.326-.816 0-1.598.153-2.176.289-.272.068-.357-.068-.323-.289l.068-.765c.017-.221.085-.323.323-.408.391-.119 1.224-.272 2.176-.272 1.751 0 3.094.595 3.094 2.822v5.032c0 .255-.102.374-.34.476-.544.238-1.683.51-2.94.51-2.109 0-3.197-.578-3.197-2.55zm1.836-.306v.238c0 .765.34 1.156 1.394 1.156.425 0 1.037-.051 1.394-.17v-2.516s-.884.017-1.36.068c-.969.085-1.428.323-1.428 1.224zm8.143 2.38l-2.057-7.769c-.05-.255.051-.357.29-.391l1.19-.102c.254-.034.34.068.39.323l.935 3.791c.187.765.46 2.04.561 2.788h.068c.136-.765.408-2.04.578-2.788l.918-3.791c.051-.255.153-.357.408-.323l1.14.102c.22.034.34.136.271.391l-2.04 7.769c-.05.255-.17.323-.408.323h-1.836c-.238 0-.357-.068-.408-.323zm5.797-2.074v-.323c0-2.04 1.496-2.431 3.23-2.55.663-.051 1.394-.051 1.394-.051v-.595c0-.969-.39-1.326-1.309-1.326-.816 0-1.598.153-2.176.289-.272.068-.357-.068-.323-.289l.068-.765c.017-.221.085-.323.323-.408.391-.119 1.224-.272 2.176-.272 1.751 0 3.094.595 3.094 2.822v5.032c0 .255-.102.374-.34.476-.544.238-1.683.51-2.94.51-2.109 0-3.197-.578-3.197-2.55zm1.836-.306v.238c0 .765.34 1.156 1.394 1.156.425 0 1.037-.051 1.394-.17v-2.516s-.884.017-1.36.068c-.969.085-1.428.323-1.428 1.224zm10.506 2.074l-.068-.782c-.034-.255.068-.374.323-.306.646.17 1.581.306 2.414.306h.034c.901 0 1.377-.119 1.377-.952v-.136c0-.663-.238-.901-1.173-1.105l-.39-.085c-1.735-.357-2.55-.799-2.55-2.414v-.255c0-2.006 1.53-2.329 2.923-2.329h.034c.697 0 1.581.102 2.006.238.238.068.34.187.374.391l.068.765c.017.221-.05.357-.306.306a8.237 8.237 0 0 0-1.972-.238h-.068c-.782 0-1.207.187-1.207.85v.136c0 .476.12.782 1.156 1.003l.442.102c1.598.323 2.5.799 2.5 2.482v.357c0 2.142-1.412 2.448-3.18 2.448h-.05c-1.055 0-2.092-.204-2.313-.289-.204-.068-.34-.187-.374-.493zm7.616-2.023v-3.247c0-1.972 1.088-2.839 3.298-2.839h.187c2.023 0 2.975.85 2.975 2.482v.255c0 1.717-.799 2.261-2.686 2.261a8.601 8.601 0 0 1-1.92-.238v1.139c0 1.139.39 1.479 1.716 1.479a7.53 7.53 0 0 0 2.227-.306c.238-.068.357.068.34.289l-.085.799c-.034.255-.153.34-.39.442-.324.119-1.293.289-2.296.289h-.119c-1.904 0-3.247-.578-3.247-2.805zm1.853-3.366v.748c.374.102 1.14.204 1.7.204.884 0 1.122-.34 1.122-.969v-.187c0-.731-.272-1.105-1.292-1.105h-.102c-1.037 0-1.428.357-1.428 1.309zm6.46 5.678v-5.729c0-2.142 1.02-2.618 2.737-2.618.527 0 .986.051 1.275.119.221.068.323.17.34.391l.068.986c.017.221-.085.323-.306.272a6.407 6.407 0 0 0-1.122-.102c-.578 0-1.088.068-1.088 1.037v5.644c0 .255-.102.34-.34.34h-1.224c-.255 0-.34-.085-.34-.34zm7.072.017l-2.057-7.769c-.05-.255.051-.357.29-.391l1.19-.102c.254-.034.34.068.39.323l.935 3.791c.187.765.46 2.04.561 2.788h.068c.136-.765.408-2.04.578-2.788l.918-3.791c.051-.255.153-.357.408-.323l1.14.102c.22.034.34.136.271.391l-2.04 7.769c-.05.255-.17.323-.408.323h-1.836c-.238 0-.357-.068-.408-.323zm6.086-2.329v-3.247c0-1.972 1.088-2.839 3.298-2.839h.187c2.023 0 2.975.85 2.975 2.482v.255c0 1.717-.799 2.261-2.686 2.261a8.601 8.601 0 0 1-1.92-.238v1.139c0 1.139.39 1.479 1.716 1.479a7.53 7.53 0 0 0 2.227-.306c.238-.068.357.068.34.289l-.085.799c-.034.255-.153.34-.39.442-.324.119-1.293.289-2.296.289h-.119c-1.904 0-3.247-.578-3.247-2.805zm1.853-3.366v.748c.374.102 1.14.204 1.7.204.884 0 1.122-.34 1.122-.969v-.187c0-.731-.272-1.105-1.292-1.105h-.102c-1.037 0-1.428.357-1.428 1.309zm6.46 5.678v-5.729c0-2.142 1.02-2.618 2.737-2.618.527 0 .986.051 1.275.119.221.068.323.17.34.391l.068.986c.017.221-.085.323-.306.272a6.407 6.407 0 0 0-1.122-.102c-.578 0-1.088.068-1.088 1.037v5.644c0 .255-.102.34-.34.34h-1.224c-.255 0-.34-.085-.34-.34zm5.525-.289l-.068-.782c-.034-.255.068-.374.323-.306.646.17 1.581.306 2.414.306h.034c.901 0 1.377-.119 1.377-.952v-.136c0-.663-.238-.901-1.173-1.105l-.39-.085c-1.735-.357-2.55-.799-2.55-2.414v-.255c0-2.006 1.53-2.329 2.923-2.329h.034c.697 0 1.581.102 2.006.238.238.068.34.187.374.391l.068.765c.017.221-.05.357-.306.306a8.237 8.237 0 0 0-1.972-.238h-.068c-.782 0-1.207.187-1.207.85v.136c0 .476.12.782 1.156 1.003l.442.102c1.598.323 2.5.799 2.5 2.482v.357c0 2.142-1.412 2.448-3.18 2.448h-.05c-1.055 0-2.092-.204-2.313-.289-.204-.068-.34-.187-.374-.493zm11.526-1.972v-3.332c0-2.227 1.445-2.805 3.247-2.805h.17c1.802 0 3.145.578 3.145 2.805v3.332c0 2.227-1.428 2.805-3.23 2.805h-.17c-1.802 0-3.162-.578-3.162-2.805zm3.18 1.241h.135c.884 0 1.377-.374 1.377-1.343v-3.264c0-.969-.408-1.309-1.292-1.309h-.153c-.884 0-1.36.34-1.36 1.309v3.281c0 .952.408 1.326 1.292 1.326zm5.558 1.02v-7.361c0-.255.102-.374.34-.476.544-.238 1.683-.51 2.958-.51 1.853 0 3.077.578 3.077 2.822v5.525c0 .255-.085.34-.34.34h-1.207c-.255 0-.34-.085-.34-.34v-5.508c0-.986-.289-1.377-1.309-1.377-.425 0-.952.051-1.275.187v6.698c0 .255-.102.34-.34.34h-1.224c-.255 0-.34-.085-.34-.34zm12.614 0V85.491c0-.255.085-.34.34-.34h1.224c.255 0 .34.085.34.34v4.573h3.57v-4.573c0-.255.085-.34.34-.34h1.224c.255 0 .34.085.34.34V96.66c0 .255-.085.34-.34.34h-1.224c-.255 0-.34-.085-.34-.34v-5.032h-3.57v5.032c0 .255-.085.34-.34.34h-1.224c-.255 0-.34-.085-.34-.34zm9.622-2.261v-3.332c0-2.227 1.445-2.805 3.247-2.805h.17c1.802 0 3.145.578 3.145 2.805v3.332c0 2.227-1.428 2.805-3.23 2.805h-.17c-1.802 0-3.162-.578-3.162-2.805zm3.18 1.241h.135c.884 0 1.377-.374 1.377-1.343v-3.264c0-.969-.408-1.309-1.292-1.309h-.153c-.884 0-1.36.34-1.36 1.309v3.281c0 .952.408 1.326 1.292 1.326zm5.966-1.054v-4.743h-.969c-.272 0-.34-.068-.34-.34v-.697c0-.272.068-.34.34-.34h.97v-1.921c0-.238.067-.34.322-.357l1.207-.119c.238-.017.34.051.34.323v2.074h1.717c.255 0 .34.051.357.323l.085.731c.017.272-.05.323-.323.323h-1.836v4.743c0 .833.187.952 1.071.952.374 0 .663-.051.901-.068.187 0 .306.068.29.289l-.103.833c-.017.221-.085.374-.34.408-.272.068-.527.102-1.054.102-1.7 0-2.635-.425-2.635-2.516zm5.525 1.87l-.085-.935c-.034-.221.034-.323.323-.272.561.102 1.547.289 2.533.289 1.496 0 1.972-.323 1.972-1.666v-.425c0-1.275-.374-1.598-1.547-1.853l-.255-.068c-1.836-.391-3.009-.799-3.009-3.043v-.408c0-2.397 1.258-3.077 3.52-3.077.815 0 1.614.119 2.022.238.272.068.357.153.374.408l.102.833c.017.238-.034.34-.306.289a10.244 10.244 0 0 0-2.142-.238c-1.088 0-1.683.306-1.683 1.462v.34c0 1.071.374 1.343 1.581 1.615l.255.051c2.04.442 2.958.935 2.958 3.315v.527c0 2.533-1.037 3.315-3.706 3.315-1.139 0-2.193-.187-2.55-.272-.255-.068-.34-.187-.357-.425zm8.551 3.876v-9.333c0-2.244 1.411-2.737 3.247-2.737h.17c1.802 0 3.145.578 3.145 2.788v3.349c0 2.295-1.479 2.805-2.89 2.805h-.05c-.613 0-1.395-.119-1.786-.442 0 0 .051.612.051 1.19v2.55c0 .272-.119.34-.39.323l-1.174-.119c-.238-.017-.323-.136-.323-.374zm3.18-4.692h.135c.884 0 1.377-.357 1.377-1.343V91.05c0-.969-.408-1.326-1.292-1.326h-.153c-.884 0-1.36.306-1.36 1.275v3.332c0 .969.408 1.309 1.292 1.309zm5.44-1.241v-3.332c0-2.227 1.444-2.805 3.246-2.805h.17c1.802 0 3.145.578 3.145 2.805v3.332c0 2.227-1.428 2.805-3.23 2.805h-.17c-1.802 0-3.162-.578-3.162-2.805zm3.178 1.241h.136c.884 0 1.377-.374 1.377-1.343v-3.264c0-.969-.408-1.309-1.292-1.309h-.153c-.884 0-1.36.34-1.36 1.309v3.281c0 .952.408 1.326 1.292 1.326zm5.967-1.054v-4.743h-.969c-.272 0-.34-.068-.34-.34v-.697c0-.272.068-.34.34-.34h.97v-1.921c0-.238.067-.34.322-.357l1.207-.119c.238-.017.34.051.34.323v2.074h1.717c.255 0 .34.051.357.323l.085.731c.017.272-.05.323-.323.323h-1.836v4.743c0 .833.187.952 1.071.952.374 0 .663-.051.901-.068.187 0 .306.068.29.289l-.103.833c-.017.221-.085.374-.34.408-.272.068-.527.102-1.054.102-1.7 0-2.635-.425-2.635-2.516z" fill="#313653" fill-rule="nonzero"/><path fill="#E6EDA8" d="M149 528h31v74h-31z"/><path fill="#C8D2D2" d="M443.762 223h32v379h-32zM394.135 394h32v208h-32zM345.508 442h31v160h-31zM296.881 427h31v175h-31zM247.254 410h32v192h-32zM197.627 459h32v143h-32z"/><path d="M79.841 403.059h-3.906v.798c0 .224-.056.28-.28.28h-.574c-.224 0-.28-.056-.28-.28v-.798h-1.582c-.196 0-.28-.056-.294-.266l-.098-.994c-.014-.196.042-.28.266-.28h1.708v-1.414c0-.21.042-.28.266-.294l.602-.07c.224-.014.266.042.266.266v1.512h3.906c.686 0 .784-.154.784-.882 0-.308-.042-.546-.056-.742 0-.154.056-.252.238-.238l.686.084c.182.014.308.07.336.28.056.224.084.434.084.868 0 1.4-.35 2.17-2.072 2.17zm-6.608-4.648h-.882c-.21 0-.28-.07-.28-.28v-1.148c0-.21.07-.28.28-.28h.882c.21 0 .28.084.28.28v1.148c0 .21-.07.28-.28.28zm8.316-.07h-6.398c-.21 0-.28-.084-.308-.266l-.084-1.008c-.028-.21.056-.294.266-.294h6.524c.21 0 .28.084.28.28v1.008c0 .21-.07.28-.28.28zm0-3.472h-6.076c-.196 0-.294-.084-.378-.28-.21-.448-.42-1.344-.42-2.268v-.056c0-.714.154-1.4.672-1.792-.476-.42-.672-1.162-.672-1.862v-.042c0-1.358.434-2.366 2.268-2.366h4.606c.21 0 .28.07.28.28v1.008c0 .196-.07.266-.28.266h-4.662c-.784 0-1.008.322-1.008.952v.042c0 .616.224 1.008 1.008 1.008h4.662c.21 0 .28.084.28.28v.994c0 .196-.07.266-.28.266h-4.676c-.756 0-.994.322-.994.98v.014c0 .308.056.742.154 1.008h5.516c.21 0 .28.084.28.28v1.008c0 .21-.07.28-.28.28zm-1.904-10.402h-2.674c-1.624 0-2.338-.896-2.338-2.716v-.154c0-1.666.7-2.45 2.044-2.45h.21c1.414 0 1.862.658 1.862 2.212 0 .49-.07 1.05-.196 1.582h.938c.938 0 1.218-.322 1.218-1.414 0-.826-.112-1.33-.252-1.834-.056-.196.056-.294.238-.28l.658.07c.21.028.28.126.364.322.098.266.238 1.064.238 1.89v.098c0 1.568-.476 2.674-2.31 2.674zm-2.772-1.526h.616c.084-.308.168-.938.168-1.4 0-.728-.28-.924-.798-.924h-.154c-.602 0-.91.224-.91 1.064v.084c0 .854.294 1.176 1.078 1.176zm-3.64-8.54h-.882c-.21 0-.28-.07-.28-.28v-1.148c0-.21.07-.28.28-.28h.882c.21 0 .28.084.28.28v1.148c0 .21-.07.28-.28.28zm8.316-.07h-6.398c-.21 0-.28-.084-.308-.266l-.084-1.008c-.028-.21.056-.294.266-.294h6.524c.21 0 .28.084.28.28v1.008c0 .21-.07.28-.28.28zm0-3.472h-6.062c-.21 0-.308-.084-.392-.28-.196-.448-.42-1.386-.42-2.436 0-1.526.476-2.534 2.324-2.534h4.55c.21 0 .28.07.28.28v.994c0 .21-.07.28-.28.28h-4.536c-.812 0-1.134.238-1.134 1.078 0 .35.042.784.154 1.05h5.516c.21 0 .28.084.28.28v1.008c0 .21-.07.28-.28.28zm-.238-10.094l-.644.056c-.21.028-.308-.056-.252-.266.14-.532.252-1.302.252-1.988v-.028c0-.742-.098-1.134-.784-1.134h-.112c-.546 0-.742.196-.91.966l-.07.322c-.294 1.428-.658 2.1-1.988 2.1h-.21c-1.652 0-1.918-1.26-1.918-2.408v-.028c0-.574.084-1.302.196-1.652.056-.196.154-.28.322-.308l.63-.056c.182-.014.294.042.252.252a6.783 6.783 0 0 0-.196 1.624v.056c0 .644.154.994.7.994h.112c.392 0 .644-.098.826-.952l.084-.364c.266-1.316.658-2.058 2.044-2.058h.294c1.764 0 2.016 1.162 2.016 2.618v.042c0 .868-.168 1.722-.238 1.904-.056.168-.154.28-.406.308zm-1.666-6.272h-2.674c-1.624 0-2.338-.896-2.338-2.716v-.154c0-1.666.7-2.45 2.044-2.45h.21c1.414 0 1.862.658 1.862 2.212 0 .49-.07 1.05-.196 1.582h.938c.938 0 1.218-.322 1.218-1.414 0-.826-.112-1.33-.252-1.834-.056-.196.056-.294.238-.28l.658.07c.21.028.28.126.364.322.098.266.238 1.064.238 1.89v.098c0 1.568-.476 2.674-2.31 2.674zm-2.772-1.526h.616c.084-.308.168-.938.168-1.4 0-.728-.28-.924-.798-.924h-.154c-.602 0-.91.224-.91 1.064v.084c0 .854.294 1.176 1.078 1.176zm3.864-9.688l.672.07c.21.028.294.098.364.308.098.308.182.924.182 1.526v.042c0 1.358-.476 2.478-2.324 2.478h-2.632c-1.834 0-2.324-1.176-2.324-2.492v-.042c0-.56.056-1.078.168-1.47.056-.196.14-.28.336-.294l.602-.056c.238-.014.308.042.252.266-.056.322-.154.882-.154 1.386v.056c0 .672.294 1.078 1.12 1.078h2.562c.812 0 1.106-.336 1.106-1.092v-.056c0-.476-.098-1.078-.168-1.414-.056-.224.028-.308.238-.294zm-1.05-1.288h-2.744c-1.834 0-2.31-1.19-2.31-2.674v-.14c0-1.484.476-2.59 2.31-2.59h2.744c1.834 0 2.31 1.176 2.31 2.66v.14c0 1.484-.476 2.604-2.31 2.604zm1.022-2.618v-.112c0-.728-.308-1.134-1.106-1.134h-2.688c-.798 0-1.078.336-1.078 1.064v.126c0 .728.28 1.12 1.078 1.12h2.702c.784 0 1.092-.336 1.092-1.064zm.84-4.578h-6.062c-.21 0-.308-.084-.392-.28-.196-.448-.42-1.386-.42-2.436 0-1.526.476-2.534 2.324-2.534h4.55c.21 0 .28.07.28.28v.994c0 .21-.07.28-.28.28h-4.536c-.812 0-1.134.238-1.134 1.078 0 .35.042.784.154 1.05h5.516c.21 0 .28.084.28.28v1.008c0 .21-.07.28-.28.28zm-1.834-7h-2.772c-1.89 0-2.31-1.232-2.31-2.38v-.042c0-.756.224-1.232.406-1.47 0 0-.56.028-1.036.028h-2.072c-.224 0-.266-.07-.266-.28l.084-.994c.028-.21.112-.266.322-.266h7.7c1.82 0 2.226 1.148 2.226 2.66v.14c0 1.484-.434 2.604-2.282 2.604zm.994-2.618v-.112c0-.728-.266-1.134-1.064-1.134h-2.73c-.686 0-1.078.35-1.078 1.092v.098c0 .728.28 1.12 1.078 1.12h2.73c.798 0 1.064-.336 1.064-1.064zm.602-4.438l-.644.056c-.21.028-.308-.056-.252-.266.14-.532.252-1.302.252-1.988v-.028c0-.742-.098-1.134-.784-1.134h-.112c-.546 0-.742.196-.91.966l-.07.322c-.294 1.428-.658 2.1-1.988 2.1h-.21c-1.652 0-1.918-1.26-1.918-2.408v-.028c0-.574.084-1.302.196-1.652.056-.196.154-.28.322-.308l.63-.056c.182-.014.294.042.252.252a6.783 6.783 0 0 0-.196 1.624v.056c0 .644.154.994.7.994h.112c.392 0 .644-.098.826-.952l.084-.364c.266-1.316.658-2.058 2.044-2.058h.294c1.764 0 2.016 1.162 2.016 2.618v.042c0 .868-.168 1.722-.238 1.904-.056.168-.154.28-.406.308zM119.647 698.701l-4.78-2.76c-1.871-1.08-1.982-2.585-.83-4.58l.08-.138c1.152-1.996 2.476-2.561 4.333-1.49l4.78 2.76c1.871 1.08 1.982 2.585.83 4.58l-.08.14c-1.152 1.995-2.463 2.568-4.333 1.488zm3.024-2.263l.064-.11c.632-1.095.445-1.795-.456-2.315l-4.739-2.736c-.9-.52-1.552-.415-2.184.68l-.072.124c-.632 1.095-.436 1.78.464 2.3l4.74 2.736c.9.52 1.551.416 2.183-.679zm6.746-2.756l-7.607-4.392c-1.829-1.056-1.567-2.438-.703-3.935l.08-.138c.848-1.469 1.951-2.292 3.753-1.252l2.73 1.576c1.87 1.08 1.59 2.526.926 3.676l-.024.042c-.288.498-.753 1.08-1.2 1.247 0 0 .522.246.993.518l2.079 1.2c.221.128.22.257.08.47l-.65.9c-.126.187-.263.2-.457.088zm-2.328-4.8l.064-.11c.416-.72.357-1.29-.447-1.754l-2.646-1.528c-.79-.456-1.273-.292-1.69.429l-.071.124c-.416.721-.39 1.253.4 1.709l2.715 1.568c.79.456 1.259.283 1.675-.437zm1.507-5.041l-2.647-1.528c-1.607-.928-1.802-2.223-.762-4.024l.088-.153c.952-1.649 2.093-2.025 3.423-1.257l.208.12c1.4.808 1.467 1.716.579 3.254-.28.485-.67.999-1.098 1.454l.928.536c.929.536 1.39.377 2.014-.704.472-.818.649-1.38.798-1.96.057-.225.224-.258.396-.14l.611.445c.192.148.205.285.177.527-.055.319-.373 1.189-.845 2.006l-.056.097c-.896 1.552-1.999 2.375-3.814 1.327zm-1.872-3.094l.61.352c.259-.257.702-.833.966-1.29.416-.72.251-1.075-.262-1.37l-.152-.089c-.596-.344-1.029-.298-1.509.533l-.048.084c-.488.845-.38 1.332.395 1.78zm7.692-2.635l-6-3.464c-.207-.12-.256-.26-.228-.502.062-.555.377-1.611.977-2.65.872-1.511 1.919-2.237 3.748-1.18l4.503 2.6c.208.12.237.229.117.436l-.568.984c-.12.208-.229.237-.437.117l-4.49-2.592c-.803-.464-1.258-.412-1.738.42-.2.346-.406.8-.447 1.127l5.46 3.152c.207.12.228.243.116.437l-.576.997c-.12.208-.229.238-.437.118zm5.936-10.282l-9.103-5.256c-.208-.12-.238-.23-.118-.437l.576-.998c.12-.208.23-.237.438-.117l8.064 4.656 1.688-2.924c.128-.221.215-.245.415-.11l.72.544c.2.134.221.257.101.465l-2.344 4.06c-.12.208-.229.237-.437.117zm-4.782-10.724l-.873-.504c-.208-.12-.238-.23-.118-.437l.656-1.136c.12-.208.23-.238.438-.118l.873.504c.207.12.229.244.117.438l-.656 1.136c-.12.208-.23.237-.437.117zm8.27 4.683l-6.332-3.656c-.208-.12-.23-.243-.153-.44l.493-1.045c.092-.224.223-.26.431-.14l6.457 3.729c.208.12.23.243.117.437l-.576.998c-.12.207-.229.237-.437.117zm.305-4.369l-7.718-4.456c-.221-.128-.25-.237-.166-.447l.485-1.032c.12-.208.21-.267.417-.147l2.106 1.216c.471.272.946.601.946.601-.046-.432.076-1.027.468-1.706l.024-.042c.68-1.178 1.76-2.088 3.63-1.008l2.73 1.576c1.815 1.048 1.593 2.49.745 3.959l-.072.125c-.888 1.538-1.876 2.353-3.595 1.361zm2.32-2.097l.072-.125c.416-.72.349-1.277-.44-1.733l-2.675-1.544c-.79-.456-1.26-.283-1.667.424l-.048.083c-.44.762-.387 1.31.403 1.766l2.716 1.568c.803.464 1.223.281 1.639-.44zm1.507-5.042l-2.647-1.528c-1.607-.928-1.802-2.223-.762-4.024l.088-.153c.952-1.649 2.093-2.025 3.423-1.257l.208.12c1.4.808 1.467 1.715.579 3.254-.28.484-.67.999-1.098 1.453l.928.536c.929.536 1.39.378 2.014-.703.472-.818.649-1.38.798-1.96.057-.225.224-.258.396-.14l.611.445c.192.147.205.284.177.526-.055.32-.373 1.19-.845 2.007l-.056.097c-.896 1.552-1.999 2.375-3.814 1.327zm-1.872-3.095l.61.352c.259-.257.702-.832.966-1.29.416-.72.251-1.074-.262-1.37l-.152-.088c-.596-.344-1.029-.298-1.509.533l-.048.083c-.488.846-.38 1.332.395 1.78zm7.668-2.593l-4.67-2.696c-1.745-1.008-1.653-2.064-.845-3.463.248-.43.505-.78.697-.983.16-.148.29-.184.478-.093l.836.408c.188.09.223.221.078.378a6.03 6.03 0 0 0-.611.866c-.272.471-.457.919.333 1.375l4.6 2.656c.208.12.23.243.117.437l-.576.998c-.12.208-.229.237-.437.117zm1.23-6.034l-3.866-2.232-.456.79c-.128.222-.216.245-.437.117l-.568-.328c-.222-.128-.246-.215-.118-.437l.456-.79-1.565-.904c-.194-.112-.245-.215-.14-.431l.472-1.04c.098-.202.201-.253.423-.125l1.69.976.808-1.4c.12-.207.202-.253.432-.138l.636.274c.23.114.239.194.11.416l-.863 1.496 3.866 2.232c.679.392.864.296 1.28-.425.176-.305.27-.564.368-.766.088-.153.2-.218.372-.1l.63.475c.173.118.266.246.173.47-.072.253-.164.477-.412.907-.8 1.385-1.587 1.947-3.291.963zm8.33-3.485l-.712-.301c-.23-.114-.267-.21-.128-.388.078-.103.432-.619.504-.744.312-.54.63-1.188-.284-1.716l-1.344-.776c.142.49-.127 1.147-.383 1.59l-.016.028c-.752 1.303-1.815 2.056-3.616 1.016l-4.337-2.504c-.208-.12-.237-.23-.153-.44l.493-1.045c.12-.208.223-.259.431-.139l4.379 2.528c.776.448 1.225.375 1.665-.387l.024-.042c.424-.734.317-1.221-.404-1.637L155 627.549c-.208-.12-.215-.235-.095-.443l.651-.936c.14-.178.249-.207.457-.087l7.482 4.32c1.913 1.104 1.609 2.462.857 3.764a6.039 6.039 0 0 1-.611.867c-.114.1-.21.138-.411.04zM200.685 666.881l-8.134-4.696-1.112 1.926c-.128.222-.23.237-.429.103l-.653-.469c-.2-.134-.229-.243-.109-.45l3-5.197c.112-.194.213-.21.437-.117l.741.317c.21.084.253.201.133.41l-1.112 1.925 8.01 4.624c.332.192.353.315.24.51l-.583 1.01c-.112.195-.221.224-.43.104zm.917-5.844l-2.716-1.568c-1.815-1.048-1.606-2.498-.758-3.967l.08-.138c.848-1.47 1.95-2.292 3.766-1.244l2.716 1.568c1.815 1.048 1.614 2.484.766 3.953l-.08.138c-.848 1.47-1.959 2.306-3.774 1.258zm2.507-2.008l.064-.11c.416-.72.344-1.299-.446-1.755l-2.66-1.536c-.79-.456-1.26-.283-1.676.437l-.072.125c-.416.72-.362 1.269.427 1.725l2.675 1.544c.776.448 1.272.291 1.688-.43zm3.448-4.05l-6.014-3.473c-.194-.112-.243-.25-.214-.493.048-.563.352-1.57.88-2.484l.032-.056c.408-.707.953-1.297 1.69-1.39-.232-.687-.002-1.534.398-2.226l.024-.042c.776-1.344 1.782-2.094 3.597-1.046l4.559 2.632c.208.12.237.23.117.437l-.576.998c-.112.194-.221.223-.43.103l-4.613-2.664c-.776-.448-1.182-.257-1.542.367l-.024.041c-.352.61-.354 1.126.422 1.574l4.614 2.664c.208.12.229.243.117.437l-.568.984c-.112.194-.221.223-.43.103l-4.627-2.672c-.748-.432-1.168-.25-1.544.402l-.008.014c-.176.305-.369.766-.424 1.086l5.46 3.152c.208.12.229.243.117.437l-.576.997c-.12.208-.23.237-.437.117zm7.88-13.65l-9.104-5.255c-.208-.12-.237-.23-.117-.437l2.608-4.517c.12-.208.237-.251.447-.167l.741.317c.21.084.267.21.14.431l-1.953 3.381 2.758 1.592L212.5 634c.112-.194.229-.237.437-.117l.72.416c.194.112.23.243.117.437l-1.544 2.674 3.063 1.768 2.016-3.492c.12-.208.253-.279.437-.117l.704.573c.192.147.207.249.087.457l-2.664 4.614c-.12.208-.23.237-.437.117zm3.968-6.872l-9.104-5.256c-.208-.12-.237-.23-.117-.437l2.608-4.517c.12-.208.237-.251.447-.167l.741.317c.21.084.267.21.14.431l-1.953 3.381 2.758 1.592 1.544-2.674c.112-.194.229-.237.437-.117l.72.416c.194.112.23.243.117.437l-1.544 2.674 3.063 1.768 2.016-3.492c.12-.207.253-.278.437-.117l.704.573c.192.148.207.249.087.457l-2.664 4.614c-.12.208-.23.237-.437.117zM246.86 666.21l-8.133-4.696-1.112 1.926c-.128.222-.23.237-.43.103l-.652-.469c-.2-.134-.23-.243-.11-.451l3-5.196c.113-.194.214-.21.438-.117l.74.317c.21.084.254.201.134.409l-1.112 1.926 8.009 4.624c.333.192.354.315.242.51l-.584 1.01c-.112.195-.221.224-.43.104zm.918-5.844l-2.716-1.568c-1.815-1.048-1.606-2.498-.758-3.967l.08-.139c.848-1.468 1.95-2.291 3.766-1.243l2.716 1.568c1.815 1.048 1.614 2.484.766 3.953l-.08.138c-.848 1.469-1.959 2.306-3.774 1.258zm2.507-2.008l.064-.11c.416-.721.343-1.299-.446-1.755l-2.66-1.536c-.79-.456-1.26-.283-1.676.437l-.072.125c-.416.72-.363 1.268.427 1.724l2.675 1.544c.775.448 1.272.292 1.688-.429zm3.448-4.05l-6.014-3.473c-.194-.112-.243-.25-.214-.493.048-.563.352-1.57.88-2.485l.032-.055c.408-.707.953-1.298 1.69-1.39-.232-.687-.002-1.534.398-2.226l.024-.042c.776-1.344 1.782-2.094 3.597-1.046l4.559 2.632c.208.12.237.23.117.437l-.576.998c-.112.194-.221.223-.43.103l-4.613-2.664c-.776-.448-1.182-.257-1.542.367l-.024.041c-.352.61-.354 1.126.422 1.574l4.614 2.664c.208.12.229.243.117.437l-.568.984c-.112.194-.221.223-.43.103l-4.627-2.672c-.749-.432-1.168-.25-1.544.402l-.008.014c-.176.305-.369.766-.424 1.085l5.46 3.152c.208.12.229.244.117.438l-.576.997c-.12.208-.23.237-.437.117zm7.668-15.139l.625.454c.192.147.235.265.184.513-.079.36-.347 1.018-.691 1.614l-.024.041c-.776 1.345-1.888 2.181-3.717 1.125l-2.605-1.504c-1.815-1.048-1.628-2.492-.876-3.794l.024-.042c.32-.554.672-1.035 1.006-1.359.168-.162.299-.197.501-.099l.628.289c.243.122.28.217.097.407-.24.287-.656.785-.944 1.284l-.032.055c-.384.665-.325 1.235.492 1.707l2.536 1.464c.804.464 1.287.3 1.719-.449l.032-.055c.272-.471.519-1.123.641-1.496.073-.253.204-.288.404-.155zm-.273-1.543l-.263-.152c-1.663-.96-1.278-2.363-.559-3.833.27-.564.615-1.16.615-1.16l-.485-.28c-.79-.456-1.265-.305-1.697.443-.384.665-.627 1.375-.788 1.91-.073.253-.224.259-.388.127l-.592-.415c-.172-.118-.223-.222-.18-.456.087-.374.354-1.125.802-1.901.824-1.427 1.941-2.242 3.756-1.194l4.102 2.368c.208.12.257.259.228.501-.062.555-.376 1.612-.968 2.637-.992 1.718-1.976 2.333-3.583 1.405zm.615-1.64l.194.112c.623.36 1.102.267 1.598-.593.2-.346.446-.869.517-1.216l-2.05-1.184s-.403.729-.585 1.14c-.387.83-.409 1.317.326 1.74zm3.66-5.795l-3.867-2.232-.456.79c-.128.222-.215.245-.437.117l-.568-.328c-.222-.128-.245-.215-.117-.437l.456-.79-1.566-.904c-.194-.112-.245-.215-.139-.431l.471-1.04c.098-.202.202-.253.423-.125l1.69.976.809-1.4c.12-.207.201-.253.431-.139l.636.275c.23.114.24.194.111.415l-.864 1.497 3.866 2.232c.68.392.864.296 1.28-.425.176-.305.27-.564.369-.766.088-.153.2-.218.371-.1l.631.475c.172.118.265.245.173.47-.073.253-.165.477-.413.906-.8 1.386-1.586 1.948-3.29.964zM298.11 667.846l-9.936-3.686c-.224-.092-.267-.21-.16-.425l.474-.982c.098-.202.18-.247.453-.145l6.027 2.297c.87.318 2.07.863 2.446 1.043l.032-.055a33.865 33.865 0 0 1-2.074-1.623l-4.777-4.143c-.191-.148-.205-.285-.093-.479l.68-1.178c.12-.208.238-.25.461-.158l6.04 2.082c.97.338 2.003.787 2.38.968l.04-.07a36.132 36.132 0 0 1-2.121-1.575l-5.017-4.079c-.225-.185-.219-.292-.1-.465l.588-.86c.126-.186.235-.216.427-.068l8.182 6.756c.184.162.206.285.086.493l-.808 1.4c-.12.207-.238.25-.47.172l-5.223-1.833a38.885 38.885 0 0 1-3.074-1.203l-.032.056c.514.389 1.651 1.267 2.584 2.083l4.17 3.627c.191.147.213.27.093.478l-.816 1.414c-.112.194-.238.25-.462.158zm-2.686-14.354l-.873-.504c-.208-.12-.237-.23-.117-.437l.656-1.136c.12-.208.229-.238.437-.118l.873.504c.208.12.229.244.117.438l-.656 1.136c-.12.208-.23.237-.437.117zm8.27 4.683l-6.332-3.656c-.208-.12-.23-.243-.153-.44l.493-1.045c.092-.224.223-.26.431-.14l6.457 3.729c.208.12.23.243.118.437l-.576.998c-.12.207-.23.237-.438.117zm.306-4.369l-7.718-4.456c-.208-.12-.251-.237-.167-.447l.493-1.046c.092-.224.201-.253.41-.133l7.8 4.504c.68.392.89.347 1.21-.207.064-.11.164-.349.212-.432.096-.166.178-.211.391-.07l.645.484c.2.134.216.235.145.453-.05.119-.158.37-.334.675-.624 1.08-1.37 1.667-3.087.675zm2.063-3.926l-2.743-1.584c-1.87-1.08-1.583-2.54-.927-3.676l.024-.041c.432-.749.926-1.092 1.242-1.223 0 0-.57-.293-1.041-.565l-2.05-1.184c-.223-.128-.224-.22-.104-.429l.65-.936c.149-.191.264-.199.472-.079l7.62 4.4c1.802 1.04 1.548 2.408.684 3.905l-.08.138c-.848 1.47-1.918 2.33-3.747 1.274zm2.48-2.023l.064-.111c.416-.72.385-1.275-.405-1.73l-2.702-1.56c-.679-.393-1.267-.27-1.691.464l-.056.097c-.416.72-.363 1.269.427 1.725l2.702 1.56c.79.456 1.245.275 1.661-.445zm-2.514-13.405c-.358.458-.61.83-.985 1.482-.36.623-.277 1.151.36 1.52l1.012.583.656-1.136c.128-.222.229-.237.429-.103l.548.427c.186.126.185.255.073.449l-.584 1.011 5.556 3.208c.208.12.23.244.118.437l-.568.984c-.12.208-.23.237-.438.117l-5.556-3.208-.416.721c-.112.194-.23.237-.437.117l-.568-.328c-.208-.12-.23-.243-.117-.437l.416-.72-.887-.513c-1.774-1.024-1.58-2.446-.805-3.79.632-1.094 1.359-2.097 1.91-2.666.169-.198.27-.214.464-.102l7.496 4.328c.68.392.89.348 1.21-.207.064-.11.164-.348.212-.431.096-.166.178-.212.391-.07l.645.483c.2.134.216.235.145.453-.05.12-.158.37-.334.676-.624 1.08-1.37 1.667-3.087.675l-6.86-3.96zm14.754 1.165l-.713-.301c-.23-.114-.267-.21-.128-.388.078-.103.432-.619.504-.744.312-.54.63-1.188-.284-1.716l-1.344-.776c.142.49-.126 1.147-.382 1.59l-.016.028c-.752 1.302-1.816 2.056-3.617 1.016l-4.337-2.504c-.208-.12-.237-.23-.153-.44l.493-1.045c.12-.208.223-.26.431-.14l4.379 2.529c.776.448 1.225.375 1.665-.388l.024-.041c.424-.735.317-1.221-.404-1.637l-4.448-2.568c-.208-.12-.215-.235-.095-.443l.651-.936c.14-.178.25-.207.457-.087l7.483 4.32c1.912 1.104 1.608 2.462.856 3.764a6.039 6.039 0 0 1-.611.867c-.114.1-.21.138-.411.04zM348.639 660.76l-.81-.356c-.188-.09-.253-.202-.092-.386.23-.237.525-.62.765-1.036.688-1.192.426-1.731-.46-2.243l-6.873-3.968c-.208-.12-.23-.243-.117-.437l.584-1.012c.112-.194.22-.223.429-.103l6.9 3.984c1.885 1.088 2.061 2.446.957 4.359-.312.54-.613.902-.797 1.091-.161.184-.298.198-.486.107zm5.59-8.947l-1.504 2.605c-.12.208-.229.237-.437.117l-9.103-5.256c-.208-.12-.237-.23-.117-.437l1.32-2.286c1.208-2.093 2.325-2.556 4.182-1.484l.235.136c.915.528 1.313 1.183 1.254 1.925.73-.688 1.72-.707 2.884-.035l.443.256c1.926 1.112 2.051 2.367.843 4.46zm-6.213-5.047l-.415-.24c-.901-.52-1.378-.333-1.978.706l-.608 1.053 2.799 1.616.6-1.04c.592-1.024.545-1.55-.398-2.095zm4.498 2.098l-.513-.296c-.983-.568-1.524-.4-2.14.668l-.8 1.385 3.09 1.784.792-1.372c.6-1.039.569-1.593-.429-2.169zm2.203-2.792l-2.715-1.568c-1.816-1.048-1.607-2.498-.759-3.967l.08-.138c.848-1.469 1.951-2.292 3.767-1.244l2.715 1.568c1.816 1.048 1.615 2.484.767 3.953l-.08.139c-.848 1.468-1.96 2.305-3.775 1.257zm2.508-2.007l.064-.111c.416-.72.343-1.298-.447-1.754l-2.66-1.536c-.79-.456-1.26-.284-1.675.437l-.072.124c-.416.72-.363 1.269.427 1.725l2.674 1.544c.776.448 1.273.291 1.689-.43zm3.084-3.966l-.67-.312c-.223-.092-.272-.232-.097-.407a9.676 9.676 0 0 0 1.385-1.824l.016-.028c.424-.734.551-1.178-.128-1.57l-.11-.064c-.54-.312-.847-.23-1.453.436l-.253.279c-1.107 1.245-1.852 1.702-3.168.942l-.208-.12c-1.635-.944-1.178-2.343-.522-3.48l.016-.027c.328-.568.827-1.24 1.138-1.523.167-.162.312-.19.495-.12l.655.304c.188.09.267.21.105.393-.366.38-.77.886-1.122 1.496l-.032.055c-.368.637-.415 1.072.125 1.384l.111.064c.388.224.694.27 1.362-.47l.29-.313c1.016-1.15 1.828-1.66 3.2-.869l.29.168c1.747 1.008 1.332 2.302.5 3.744l-.024.041c-.496.86-1.15 1.608-1.323 1.749-.152.134-.313.189-.578.072zm3.512-6.083l-.67-.312c-.223-.092-.272-.232-.097-.407a9.676 9.676 0 0 0 1.385-1.824l.016-.028c.424-.734.551-1.178-.128-1.57l-.11-.064c-.54-.312-.847-.23-1.453.436l-.253.279c-1.107 1.245-1.852 1.702-3.168.942l-.208-.12c-1.635-.944-1.178-2.343-.522-3.48l.016-.027c.328-.568.827-1.24 1.138-1.523.167-.162.312-.189.495-.12l.655.304c.188.09.267.21.105.393-.366.38-.77.886-1.122 1.496l-.032.055c-.368.637-.415 1.072.125 1.384l.111.064c.388.224.694.27 1.362-.47l.29-.313c1.016-1.15 1.828-1.66 3.2-.869l.29.168c1.747 1.008 1.332 2.302.5 3.744l-.024.041c-.496.86-1.15 1.608-1.323 1.749-.152.134-.313.189-.578.072zM386.167 678.44l-4.725-2.727c-1.857-1.072-1.975-2.563-.831-4.545.704-1.22 1.4-1.944 1.4-1.944.175-.176.285-.206.5-.1l.733.331c.196.077.234.172.078.378 0 0-.792.891-1.424 1.986l-.04.07c-.632 1.094-.456 1.75.5 2.302l4.6 2.656c.956.552 1.556.473 2.196-.636l.016-.027c.552-.956.657-1.395.657-1.395l-2.896-1.672-.512.887c-.12.208-.23.237-.423.125l-.707-.408c-.194-.112-.215-.235-.103-.429l1.192-2.064c.12-.208.23-.238.423-.126l4.573 2.64c.208.12.229.244.2.486 0 0-.12 1.039-1.096 2.73-1.152 1.995-2.454 2.555-4.31 1.483zm4.863-7.206l-7.718-4.456c-.208-.12-.251-.237-.167-.447l.493-1.045c.092-.224.201-.254.41-.134l7.8 4.504c.68.392.89.348 1.21-.207.064-.11.164-.348.212-.431.096-.167.178-.212.391-.07l.645.483c.2.134.216.235.145.453-.05.12-.158.37-.334.676-.624 1.08-1.37 1.666-3.087.674zm2.066-3.61l-.263-.152c-1.663-.96-1.278-2.364-.559-3.833.27-.564.615-1.16.615-1.16l-.485-.28c-.79-.456-1.265-.305-1.697.443-.384.665-.628 1.374-.789 1.91-.072.253-.223.258-.387.127l-.592-.416c-.172-.118-.223-.221-.18-.455.087-.375.354-1.126.802-1.902.824-1.427 1.94-2.242 3.756-1.194l4.102 2.368c.207.12.256.26.228.502-.062.555-.377 1.611-.969 2.637-.992 1.718-1.975 2.333-3.582 1.405zm.614-1.64l.194.111c.624.36 1.103.267 1.599-.592.2-.346.446-.87.517-1.216l-2.05-1.184s-.403.728-.585 1.14c-.387.83-.409 1.316.325 1.74zm4.795-4.401l-.67-.313c-.223-.092-.272-.231-.097-.407a9.676 9.676 0 0 0 1.385-1.823l.016-.028c.424-.735.552-1.179-.127-1.57l-.111-.065c-.54-.312-.847-.23-1.453.437l-.253.278c-1.107 1.246-1.852 1.703-3.168.943l-.208-.12c-1.635-.944-1.178-2.343-.522-3.48l.016-.027c.328-.568.827-1.24 1.138-1.523.167-.162.312-.19.495-.121l.655.304c.188.09.267.21.106.394-.367.38-.77.885-1.122 1.495l-.032.056c-.368.637-.416 1.071.124 1.383l.111.064c.388.224.694.271 1.362-.47l.29-.312c1.016-1.15 1.828-1.661 3.2-.869l.291.168c1.746 1.008 1.331 2.302.5 3.743l-.025.042c-.496.859-1.15 1.608-1.323 1.748-.152.134-.313.19-.578.073zm3.512-6.083l-.67-.313c-.223-.092-.272-.231-.097-.407a9.676 9.676 0 0 0 1.385-1.823l.016-.028c.424-.735.552-1.179-.127-1.57l-.111-.065c-.54-.312-.847-.23-1.453.437l-.253.278c-1.107 1.246-1.852 1.703-3.168.943l-.208-.12c-1.635-.944-1.178-2.343-.522-3.48l.016-.027c.328-.568.827-1.24 1.138-1.523.167-.162.312-.19.495-.121l.655.304c.188.09.267.21.106.394-.367.38-.77.885-1.122 1.495l-.032.056c-.368.637-.416 1.071.124 1.383l.111.064c.388.224.694.271 1.362-.47l.29-.312c1.016-1.15 1.828-1.661 3.2-.869l.291.168c1.746 1.008 1.331 2.302.5 3.743l-.025.042c-.496.859-1.15 1.608-1.323 1.748-.152.134-.313.19-.578.073zm4.043-6.46l-5.556-3.208-.416.72c-.112.195-.23.238-.437.118l-.568-.328c-.208-.12-.23-.243-.117-.437l.416-.72-.929-.537c-1.773-1.024-1.507-2.477-.77-3.752.575-.998 1.117-1.553 1.231-1.654.205-.195.27-.213.473-.115l.655.305c.21.084.295.226.112.415a8.99 8.99 0 0 0-1.232 1.654c-.384.665-.301 1.193.35 1.57l.998.575 2.192-3.796c.12-.208.229-.237.437-.117l6.401 3.696c.208.12.238.229.118.437l-.576.997c-.112.194-.222.224-.43.104l-5.556-3.208-1.464 2.535 5.556 3.208c.208.12.23.243.118.437l-.568.984c-.12.208-.23.237-.438.117zm3.98-7.438l-.669-.313c-.223-.092-.272-.23-.097-.407a9.676 9.676 0 0 0 1.385-1.823l.016-.028c.424-.734.552-1.178-.127-1.57l-.111-.064c-.54-.312-.847-.23-1.453.436l-.253.278c-1.107 1.246-1.852 1.703-3.168.943l-.208-.12c-1.635-.944-1.178-2.343-.522-3.48l.016-.027c.328-.568.827-1.24 1.138-1.523.167-.162.312-.19.495-.121l.655.304c.188.09.267.21.106.394-.367.38-.77.886-1.122 1.495l-.032.056c-.368.637-.416 1.071.124 1.383l.111.064c.388.224.694.271 1.362-.47l.29-.312c1.016-1.15 1.828-1.661 3.2-.869l.291.168c1.746 1.008 1.331 2.302.5 3.743l-.025.042c-.496.859-1.15 1.608-1.323 1.748-.152.134-.313.19-.578.073zm3.876-6.169l-9.38-5.416c-.208-.12-.251-.237-.167-.447l.493-1.046c.12-.207.21-.267.417-.147l2.079 1.2c.47.272.987.626.987.626-.1-.465.118-1.133.382-1.59l.024-.041c.688-1.192 1.772-2.045 3.587-.997l4.586 2.648c.208.12.238.23.118.438l-.576.997c-.112.194-.222.223-.43.103l-4.6-2.656c-.79-.456-1.221-.317-1.629.39l-.04.07c-.408.706-.345 1.204.445 1.66l4.6 2.656c.208.12.23.244.118.438l-.576.997c-.12.208-.23.237-.438.117zM442.66 666.687l-9.104-5.256c-.208-.12-.237-.23-.117-.437l1.424-2.467c1.216-2.106 2.311-2.563 4.306-1.411l.624.36c2.01 1.16 2.12 2.406.913 4.499l-.656 1.136 3.505 2.024c.208.12.237.23.117.437l-.576.998c-.12.208-.229.237-.437.117zm-3.885-4.312l.664-1.15c.592-1.025.588-1.563-.41-2.14l-.872-.503c-1.012-.584-1.453-.396-2.077.685l-.672 1.164 3.367 1.944zm6.216-3.598l-.264-.152c-1.662-.96-1.277-2.363-.558-3.833.27-.564.614-1.16.614-1.16l-.485-.28c-.79-.456-1.264-.305-1.696.443-.384.665-.628 1.374-.789 1.91-.072.253-.223.258-.387.127l-.592-.416c-.172-.118-.223-.22-.18-.455.087-.375.354-1.126.802-1.902.824-1.427 1.94-2.241 3.756-1.193l4.101 2.368c.208.12.257.259.228.5-.062.556-.376 1.612-.968 2.638-.992 1.718-1.975 2.333-3.582 1.405zm.614-1.64l.194.111c.624.36 1.103.267 1.599-.592.2-.346.446-.87.517-1.216l-2.05-1.184s-.403.728-.585 1.14c-.387.83-.41 1.316.325 1.74zm9.119-4.306l-.713-.301c-.23-.114-.267-.21-.128-.388.078-.103.432-.619.504-.744.312-.54.63-1.188-.284-1.716l-1.344-.776c.142.49-.127 1.147-.383 1.59l-.016.028c-.752 1.303-1.815 2.056-3.616 1.016l-4.337-2.504c-.208-.12-.237-.23-.153-.44l.493-1.045c.12-.208.223-.259.431-.139l4.379 2.528c.776.448 1.225.375 1.665-.387l.024-.042c.424-.734.317-1.221-.404-1.637l-4.448-2.568c-.208-.12-.215-.235-.095-.443l.651-.936c.14-.178.25-.207.457-.087l7.482 4.32c1.913 1.104 1.609 2.462.857 3.764a6.039 6.039 0 0 1-.611.867c-.114.1-.21.138-.411.04zm-1.773-7.841l-.264-.152c-1.662-.96-1.277-2.364-.558-3.833.27-.564.614-1.16.614-1.16l-.485-.28c-.79-.456-1.264-.305-1.696.443-.384.665-.628 1.374-.789 1.91-.072.253-.223.258-.387.127l-.592-.416c-.172-.118-.223-.221-.18-.455.087-.375.354-1.126.802-1.902.824-1.427 1.94-2.242 3.756-1.194l4.101 2.368c.208.12.257.26.228.502-.062.555-.376 1.611-.968 2.637-.992 1.718-1.975 2.333-3.582 1.405zm.614-1.64l.194.111c.624.36 1.103.267 1.599-.592.2-.346.446-.87.517-1.216l-2.05-1.184s-.403.728-.585 1.14c-.387.83-.41 1.316.325 1.74zm5.134-4.445l-4.67-2.696c-1.745-1.008-1.653-2.064-.845-3.463.248-.43.505-.78.697-.983.16-.148.29-.184.479-.093l.835.408c.188.09.223.221.078.378a6.03 6.03 0 0 0-.611.866c-.272.471-.457.919.333 1.375l4.6 2.656c.208.12.23.243.117.437l-.576.998c-.12.208-.229.237-.437.117zm.86-5.36l-.264-.153c-1.662-.96-1.277-2.363-.558-3.832.27-.565.614-1.16.614-1.16l-.485-.28c-.79-.457-1.264-.306-1.696.442-.384.665-.628 1.375-.789 1.91-.072.254-.223.259-.387.127l-.592-.415c-.172-.118-.223-.221-.18-.455.087-.375.354-1.126.802-1.902.824-1.427 1.94-2.242 3.756-1.194l4.101 2.368c.208.12.257.26.228.501-.062.556-.376 1.612-.968 2.637-.992 1.719-1.975 2.333-3.582 1.405zm.614-1.641l.194.112c.624.36 1.103.267 1.599-.592.2-.347.446-.87.517-1.217l-2.05-1.184s-.403.729-.585 1.14c-.387.83-.41 1.317.325 1.74z" fill="#313653" fill-rule="nonzero"/></g></svg>