<svg width="515" height="214" xmlns="http://www.w3.org/2000/svg"><g fill="none" fill-rule="evenodd"><rect stroke="#FFF" stroke-width="2" fill="#E6EDA8" x="1" y="114" width="102" height="56" rx="10"/><rect stroke="#FFF" stroke-width="2" fill="#E6EDA8" x="207" y="113" width="101" height="56" rx="10"/><rect stroke="#FFF" stroke-width="2" fill="#E6EDA8" x="104" y="113" width="102" height="56" rx="10"/><rect stroke="#FFF" stroke-width="2" fill="#E6EDA8" x="309" y="113" width="102" height="56" rx="10"/><rect stroke="#FFF" stroke-width="2" fill="#E6EDA8" x="1" y="58" width="102" height="56" rx="10"/><rect stroke="#FFF" stroke-width="2" fill="#E6EDA8" x="207" y="57" width="101" height="56" rx="10"/><rect stroke="#FFF" stroke-width="2" fill="#E6EDA8" x="104" y="57" width="102" height="56" rx="10"/><rect stroke="#FFF" stroke-width="2" fill="#E6EDA8" x="309" y="57" width="102" height="56" rx="10"/><rect stroke="#FFF" stroke-width="2" fill="#E6EDA8" x="207" y="1" width="101" height="56" rx="10"/><rect stroke="#FFF" stroke-width="2" fill="#E6EDA8" x="104" y="1" width="102" height="56" rx="10"/><rect stroke="#FFF" stroke-width="2" fill="#E6EDA8" x="412" y="113" width="102" height="56" rx="10"/><path d="M184.152 209.68v-10.512c0-.24.08-.32.32-.32h5.216c.24 0 .336.08.368.304l.096.8c.032.224-.048.336-.304.336h-3.904v3.184h3.088c.224 0 .32.08.32.32v.832c0 .224-.096.32-.32.32h-3.088v3.536h4.032c.24 0 .368.08.32.32l-.144.896c-.032.24-.112.304-.352.304h-5.328c-.24 0-.32-.08-.32-.32zm12.8-.928l-.08.768c-.032.24-.112.336-.352.416-.352.112-1.056.208-1.744.208h-.048c-1.552 0-2.832-.544-2.832-2.656v-3.008c0-2.096 1.344-2.656 2.848-2.656h.048c.64 0 1.232.064 1.68.192.224.064.32.16.336.384l.064.688c.016.272-.048.352-.304.288-.368-.064-1.008-.176-1.584-.176h-.064c-.768 0-1.232.336-1.232 1.28v2.928c0 .928.384 1.264 1.248 1.264H195c.544 0 1.232-.112 1.616-.192.256-.064.352.032.336.272zm1.552-.992v-8.912c0-.24.08-.336.304-.368l1.152-.096c.24-.032.32.048.32.288v9.008c0 .784.144.944.784.944.128 0 .384-.032.48-.032.192 0 .272.048.256.304l-.096.8c-.016.24-.096.304-.32.352-.128.016-.4.048-.752.048-1.248 0-2.128-.352-2.128-2.336zm4.496-7.584v-1.008c0-.24.08-.32.32-.32h1.312c.24 0 .32.08.32.32v1.008c0 .24-.096.32-.32.32h-1.312c-.24 0-.32-.08-.32-.32zm.08 9.504v-7.312c0-.24.096-.32.304-.352l1.152-.096c.24-.032.336.064.336.304v7.456c0 .24-.096.32-.32.32H203.4c-.24 0-.32-.08-.32-.32zm3.92 3.456v-8.784c0-2.112 1.328-2.576 3.056-2.576h.16c1.696 0 2.96.544 2.96 2.624v3.152c0 2.16-1.392 2.64-2.72 2.64h-.048c-.576 0-1.312-.112-1.68-.416 0 0 .048.576.048 1.12v2.4c0 .256-.112.32-.368.304l-1.104-.112c-.224-.016-.304-.128-.304-.352zm2.992-4.416h.128c.832 0 1.296-.336 1.296-1.264V204.4c0-.912-.384-1.248-1.216-1.248h-.144c-.832 0-1.28.288-1.28 1.2v3.136c0 .912.384 1.232 1.216 1.232zm4.976.688l-.064-.736c-.032-.24.064-.352.304-.288.608.16 1.488.288 2.272.288h.032c.848 0 1.296-.112 1.296-.896v-.128c0-.624-.224-.848-1.104-1.04l-.368-.08c-1.632-.336-2.4-.752-2.4-2.272v-.24c0-1.888 1.44-2.192 2.752-2.192h.032c.656 0 1.488.096 1.888.224.224.064.32.176.352.368l.064.72c.016.208-.048.336-.288.288a7.752 7.752 0 0 0-1.856-.224h-.064c-.736 0-1.136.176-1.136.8v.128c0 .448.112.736 1.088.944l.416.096c1.504.304 2.352.752 2.352 2.336v.336c0 2.016-1.328 2.304-2.992 2.304h-.048c-.992 0-1.968-.192-2.176-.272-.192-.064-.32-.176-.352-.464zm7.168-1.904v-3.056c0-1.856 1.024-2.672 3.104-2.672h.176c1.904 0 2.8.8 2.8 2.336v.24c0 1.616-.752 2.128-2.528 2.128-.56 0-1.2-.08-1.808-.224v1.072c0 1.072.368 1.392 1.616 1.392.944 0 1.52-.128 2.096-.288.224-.064.336.064.32.272l-.08.752c-.032.24-.144.32-.368.416-.304.112-1.216.272-2.16.272h-.112c-1.792 0-3.056-.544-3.056-2.64zm1.744-3.168v.704c.352.096 1.072.192 1.6.192.832 0 1.056-.32 1.056-.912v-.176c0-.688-.256-1.04-1.216-1.04h-.096c-.976 0-1.344.336-1.344 1.232zm9.888 5.344v-10.512c0-.24.08-.32.32-.32h1.536c.24 0 .336.08.432.304l1.456 3.328c.288.64.544 1.312.736 1.824h.064c.192-.512.448-1.168.704-1.744l1.456-3.408c.08-.224.176-.304.416-.304h1.52c.224 0 .304.08.304.32v10.512c0 .24-.08.32-.304.32h-1.088c-.24 0-.32-.08-.32-.32v-4.432c0-.832.048-3.264.128-4.128h-.08c-.144.448-.336.928-.608 1.52l-1.664 3.76c-.096.176-.16.256-.384.256h-.24c-.224 0-.304-.08-.4-.256l-1.68-3.712a16.358 16.358 0 0 1-.64-1.568h-.08c.096.848.144 3.264.144 4.096v4.464c0 .24-.08.32-.32.32h-1.088c-.24 0-.32-.08-.32-.32zm11.12-9.504v-1.008c0-.24.08-.32.32-.32h1.312c.24 0 .32.08.32.32v1.008c0 .24-.096.32-.32.32h-1.312c-.24 0-.32-.08-.32-.32zm.08 9.504v-7.312c0-.24.096-.32.304-.352l1.152-.096c.24-.032.336.064.336.304v7.456c0 .24-.096.32-.32.32h-1.152c-.24 0-.32-.08-.32-.32zm8.912-.928l-.08.768c-.032.24-.112.336-.352.416-.352.112-1.056.208-1.744.208h-.048c-1.552 0-2.832-.544-2.832-2.656v-3.008c0-2.096 1.344-2.656 2.848-2.656h.048c.64 0 1.232.064 1.68.192.224.064.32.16.336.384l.064.688c.016.272-.048.352-.304.288-.368-.064-1.008-.176-1.584-.176h-.064c-.768 0-1.232.336-1.232 1.28v2.928c0 .928.384 1.264 1.248 1.264h.064c.544 0 1.232-.112 1.616-.192.256-.064.352.032.336.272zm1.536.928v-5.392c0-2.016.96-2.464 2.576-2.464.496 0 .928.048 1.2.112.208.064.304.16.32.368l.064.928c.016.208-.08.304-.288.256a6.03 6.03 0 0 0-1.056-.096c-.544 0-1.024.064-1.024.976v5.312c0 .24-.096.32-.32.32h-1.152c-.24 0-.32-.08-.32-.32zm5.344-2.128v-3.136c0-2.096 1.36-2.64 3.056-2.64h.16c1.696 0 2.96.544 2.96 2.64v3.136c0 2.096-1.344 2.64-3.04 2.64h-.16c-1.696 0-2.976-.544-2.976-2.64zm2.992 1.168h.128c.832 0 1.296-.352 1.296-1.264v-3.072c0-.912-.384-1.232-1.216-1.232h-.144c-.832 0-1.28.32-1.28 1.232v3.088c0 .896.384 1.248 1.216 1.248zm5.312.96v-10.512c0-.24.08-.32.32-.32h2.848c2.432 0 3.376.72 3.376 3.024v.72c0 2.32-1.024 3.04-3.44 3.04h-1.312v4.048c0 .24-.08.32-.32.32h-1.152c-.24 0-.32-.08-.32-.32zm1.792-5.52h1.328c1.184 0 1.648-.272 1.648-1.424v-1.008c0-1.168-.384-1.456-1.632-1.456h-1.344v3.888zm6.56 5.52v-5.392c0-2.016.96-2.464 2.576-2.464.496 0 .928.048 1.2.112.208.064.304.16.32.368l.064.928c.016.208-.08.304-.288.256a6.03 6.03 0 0 0-1.056-.096c-.544 0-1.024.064-1.024.976v5.312c0 .24-.096.32-.32.32h-1.152c-.24 0-.32-.08-.32-.32zm5.344-2.128v-3.136c0-2.096 1.36-2.64 3.056-2.64h.16c1.696 0 2.96.544 2.96 2.64v3.136c0 2.096-1.344 2.64-3.04 2.64h-.16c-1.696 0-2.976-.544-2.976-2.64zm2.992 1.168h.128c.832 0 1.296-.352 1.296-1.264v-3.072c0-.912-.384-1.232-1.216-1.232h-.144c-.832 0-1.28.32-1.28 1.232v3.088c0 .896.384 1.248 1.216 1.248zm5.568.96v-6.416h-.832c-.224 0-.32-.08-.32-.32v-.656c0-.24.096-.32.32-.32h.832v-1.072c0-2.048 1.392-2.544 2.864-2.544 1.152 0 1.904.192 2.048.24.272.08.32.128.336.352l.064.72c.032.224-.048.368-.304.304a8.99 8.99 0 0 0-2.048-.24c-.768 0-1.184.336-1.184 1.088v1.152h4.384c.24 0 .32.08.32.32v7.392c0 .24-.08.32-.32.32h-1.152c-.224 0-.304-.08-.304-.32v-6.416h-2.928v6.416c0 .24-.096.32-.32.32h-1.136c-.24 0-.32-.08-.32-.32zm8.656-1.92v-8.912c0-.24.08-.336.304-.368l1.152-.096c.24-.032.32.048.32.288v9.008c0 .784.144.944.784.944.128 0 .384-.032.48-.032.192 0 .272.048.256.304l-.096.8c-.016.24-.096.304-.32.352-.128.016-.4.048-.752.048-1.248 0-2.128-.352-2.128-2.336zm4.432-.256v-3.056c0-1.856 1.024-2.672 3.104-2.672h.176c1.904 0 2.8.8 2.8 2.336v.24c0 1.616-.752 2.128-2.528 2.128-.56 0-1.2-.08-1.808-.224v1.072c0 1.072.368 1.392 1.616 1.392.944 0 1.52-.128 2.096-.288.224-.064.336.064.32.272l-.08.752c-.032.24-.144.32-.368.416-.304.112-1.216.272-2.16.272h-.112c-1.792 0-3.056-.544-3.056-2.64zm1.744-3.168v.704c.352.096 1.072.192 1.6.192.832 0 1.056-.32 1.056-.912v-.176c0-.688-.256-1.04-1.216-1.04h-.096c-.976 0-1.344.336-1.344 1.232zM19.918 147.028c-.373 0-.56-.103-.56-.308v-9.1c0-.15.033-.257.098-.322s.173-.098.322-.098h2.352c1.12 0 1.962.198 2.527.595.565.397.847 1.024.847 1.883 0 .579-.14 1.066-.42 1.463-.28.397-.677.698-1.19.903v.056c.27.093.497.275.679.546.182.27.376.672.581 1.204l1.092 2.758c.028.084.042.15.042.196 0 .15-.196.224-.588.224h-.14a.958.958 0 0 1-.364-.063c-.103-.042-.168-.096-.196-.161l-1.064-2.744c-.205-.532-.462-.894-.77-1.085-.308-.191-.747-.287-1.316-.287h-1.26v4.032c0 .205-.187.308-.56.308h-.112zm2.52-5.404c.327 0 .628-.08.903-.238.275-.159.492-.369.651-.63.159-.261.238-.546.238-.854 0-.55-.168-.961-.504-1.232-.336-.27-.798-.406-1.386-.406h-1.75v3.36h1.848zm8.302 5.46c-1.167 0-2.03-.303-2.59-.91s-.84-1.535-.84-2.786c0-1.241.275-2.184.826-2.828.55-.644 1.363-.966 2.436-.966.952 0 1.67.31 2.156.931.485.62.728 1.528.728 2.723 0 .084-.056.2-.168.35-.112.15-.21.224-.294.224H28.57c.056.775.257 1.344.602 1.708.345.364.863.546 1.554.546.392 0 .73-.049 1.015-.147a5.16 5.16 0 0 0 .707-.294c.187-.098.294-.147.322-.147.093 0 .198.093.315.28.117.187.175.327.175.42 0 .112-.117.24-.35.385-.233.145-.544.266-.931.364-.387.098-.8.147-1.239.147zm1.47-4.27c0-1.475-.56-2.212-1.68-2.212-1.204 0-1.857.737-1.96 2.212h3.64zm4.592 4.312c-.401 0-.772-.049-1.113-.147-.34-.098-.611-.217-.812-.357-.2-.14-.301-.266-.301-.378 0-.093.058-.233.175-.42.117-.187.222-.28.315-.28.019 0 .107.051.266.154.159.103.357.196.595.28.238.084.502.126.791.126.915 0 1.372-.378 1.372-1.134 0-.317-.103-.57-.308-.756-.205-.187-.57-.355-1.092-.504-.737-.215-1.246-.483-1.526-.805-.28-.322-.42-.754-.42-1.295 0-.392.1-.742.301-1.05.2-.308.476-.548.826-.721a2.67 2.67 0 0 1 1.197-.259c.476 0 .903.06 1.281.182.378.121.567.261.567.42 0 .121-.054.278-.161.469-.107.191-.203.287-.287.287a5.553 5.553 0 0 1-.371-.189c-.22-.117-.52-.175-.903-.175-.355 0-.651.08-.889.238a.738.738 0 0 0-.357.644c0 .317.084.57.252.756.168.187.448.34.84.462.597.187 1.052.371 1.365.553.313.182.537.406.672.672s.203.614.203 1.043c0 .41-.11.782-.329 1.113a2.29 2.29 0 0 1-.896.784 2.734 2.734 0 0 1-1.253.287zm6.37-.042c-.467 0-.884-.142-1.253-.427-.369-.285-.553-.786-.553-1.505v-4.466h-.7c-.093 0-.163-.033-.21-.098-.047-.065-.07-.173-.07-.322v-.168c0-.15.023-.257.07-.322.047-.065.117-.098.21-.098h.7l.168-1.47c.028-.205.177-.308.448-.308h.14c.28 0 .42.103.42.308v1.47h1.176c.103 0 .175.033.217.098.042.065.063.173.063.322v.168c0 .15-.021.257-.063.322-.042.065-.114.098-.217.098h-1.176v4.354c0 .392.068.663.203.812.135.15.32.224.553.224.177 0 .31-.012.399-.035a.87.87 0 0 1 .203-.035c.084 0 .154.086.21.259.056.173.084.306.084.399 0 .28-.34.42-1.022.42zm10.15 0c-1.54 0-2.676-.404-3.409-1.211-.733-.807-1.099-2.065-1.099-3.773 0-3.323 1.512-4.984 4.536-4.984.457 0 .898.049 1.323.147.425.098.763.217 1.015.357.224.13.336.252.336.364 0 .13-.058.299-.175.504-.117.205-.217.308-.301.308-.028 0-.147-.058-.357-.175a3.724 3.724 0 0 0-1.813-.441c-1.13 0-1.96.313-2.492.938s-.798 1.624-.798 2.996c0 1.344.264 2.331.791 2.961.527.63 1.342.945 2.443.945.457 0 .85-.054 1.176-.161a6.14 6.14 0 0 0 .966-.413c.13-.084.22-.126.266-.126.084 0 .187.103.308.308.121.205.182.355.182.448 0 .14-.15.294-.448.462-.28.159-.635.29-1.064.392-.43.103-.891.154-1.386.154zm6.314 0c-.467 0-.884-.142-1.253-.427-.369-.285-.553-.786-.553-1.505v-8.372c0-.205.187-.308.56-.308h.056c.373 0 .56.103.56.308v8.26c0 .392.068.663.203.812.135.15.32.224.553.224.177 0 .31-.012.399-.035a.87.87 0 0 1 .203-.035c.084 0 .154.086.21.259.056.173.084.306.084.399 0 .28-.34.42-1.022.42zm3.038-8.708c-.41 0-.616-.112-.616-.336v-.784c0-.224.224-.336.672-.336.41 0 .616.112.616.336v.784c0 .224-.224.336-.672.336zm0 8.652c-.373 0-.56-.103-.56-.308v-6.762c0-.205.187-.308.56-.308h.056c.373 0 .56.103.56.308v6.762c0 .205-.187.308-.56.308h-.056zm6.076.056c-1.167 0-2.03-.303-2.59-.91s-.84-1.535-.84-2.786c0-1.241.275-2.184.826-2.828.55-.644 1.363-.966 2.436-.966.952 0 1.67.31 2.156.931.485.62.728 1.528.728 2.723 0 .084-.056.2-.168.35-.112.15-.21.224-.294.224H66.58c.056.775.257 1.344.602 1.708.345.364.863.546 1.554.546.392 0 .73-.049 1.015-.147a5.16 5.16 0 0 0 .707-.294c.187-.098.294-.147.322-.147.093 0 .198.093.315.28.117.187.175.327.175.42 0 .112-.117.24-.35.385-.233.145-.544.266-.931.364-.387.098-.8.147-1.239.147zm1.47-4.27c0-1.475-.56-2.212-1.68-2.212-1.204 0-1.857.737-1.96 2.212h3.64zm3.64 4.214c-.373 0-.56-.103-.56-.308v-4.914c0-.616-.028-1.057-.084-1.323a5.346 5.346 0 0 1-.084-.441c0-.112.089-.194.266-.245a1.78 1.78 0 0 1 .49-.077c.13 0 .226.068.287.203.06.135.107.278.14.427.033.15.054.247.063.294.299-.327.64-.583 1.022-.77.383-.187.77-.28 1.162-.28.71 0 1.267.2 1.673.602.406.401.609.957.609 1.666v4.858c0 .205-.187.308-.56.308h-.056c-.373 0-.56-.103-.56-.308v-4.746c0-.43-.124-.763-.371-1.001-.247-.238-.6-.357-1.057-.357-.317 0-.632.089-.945.266a2.767 2.767 0 0 0-.819.714v5.124c0 .205-.187.308-.56.308h-.056zm9.338.056c-.467 0-.884-.142-1.253-.427-.369-.285-.553-.786-.553-1.505v-4.466h-.7c-.093 0-.163-.033-.21-.098-.047-.065-.07-.173-.07-.322v-.168c0-.15.023-.257.07-.322.047-.065.117-.098.21-.098h.7l.168-1.47c.028-.205.177-.308.448-.308h.14c.28 0 .42.103.42.308v1.47h1.176c.103 0 .175.033.217.098.042.065.063.173.063.322v.168c0 .15-.021.257-.063.322-.042.065-.114.098-.217.098h-1.176v4.354c0 .392.068.663.203.812.135.15.32.224.553.224.177 0 .31-.012.399-.035a.87.87 0 0 1 .203-.035c.084 0 .154.086.21.259.056.173.084.306.084.399 0 .28-.34.42-1.022.42zm-54.088-56c-1.4 0-2.469-.427-3.206-1.281-.737-.854-1.106-2.098-1.106-3.731s.366-2.868 1.099-3.703 1.804-1.253 3.213-1.253c1.41 0 2.483.418 3.22 1.253.737.835 1.106 2.07 1.106 3.703s-.369 2.877-1.106 3.731c-.737.854-1.81 1.281-3.22 1.281zm0-1.064c.99 0 1.745-.336 2.268-1.008.523-.672.784-1.652.784-2.94 0-1.279-.261-2.247-.784-2.905-.523-.658-1.279-.987-2.268-.987-.99 0-1.743.329-2.261.987-.518.658-.777 1.626-.777 2.905 0 1.288.259 2.268.777 2.94.518.672 1.272 1.008 2.261 1.008zm6.888 3.892c-.373 0-.56-.103-.56-.308v-7.798c0-.616-.028-1.057-.084-1.323a5.346 5.346 0 0 1-.084-.441c0-.112.089-.194.266-.245a1.78 1.78 0 0 1 .49-.077c.13 0 .226.068.287.203.06.135.107.278.14.427.033.15.054.247.063.294.672-.7 1.414-1.05 2.226-1.05.57 0 1.057.161 1.463.483.406.322.716.765.931 1.33.215.565.322 1.211.322 1.939 0 .793-.119 1.47-.357 2.03-.238.56-.572.985-1.001 1.274a2.59 2.59 0 0 1-1.484.434c-.41 0-.772-.06-1.085-.182a3.622 3.622 0 0 1-.917-.532v3.234c0 .205-.187.308-.56.308h-.056zm2.352-3.864c.616 0 1.083-.224 1.4-.672.317-.448.476-1.092.476-1.932 0-.905-.15-1.603-.448-2.093-.299-.49-.723-.735-1.274-.735-.317 0-.642.084-.973.252a3.195 3.195 0 0 0-.917.714v3.836c.504.42 1.083.63 1.736.63zm8.106 1.036c-1.167 0-2.03-.303-2.59-.91s-.84-1.535-.84-2.786c0-1.241.275-2.184.826-2.828.55-.644 1.363-.966 2.436-.966.952 0 1.67.31 2.156.931.485.62.728 1.528.728 2.723 0 .084-.056.2-.168.35-.112.15-.21.224-.294.224h-4.424c.056.775.257 1.344.602 1.708.345.364.863.546 1.554.546.392 0 .73-.049 1.015-.147a5.16 5.16 0 0 0 .707-.294c.187-.098.294-.147.322-.147.093 0 .198.093.315.28.117.187.175.327.175.42 0 .112-.117.24-.35.385-.233.145-.544.266-.931.364-.387.098-.8.147-1.239.147zm1.47-4.27c0-1.475-.56-2.212-1.68-2.212-1.204 0-1.857.737-1.96 2.212h3.64zm3.64 4.214c-.373 0-.56-.103-.56-.308v-4.914c0-.616-.028-1.057-.084-1.323a5.346 5.346 0 0 1-.084-.441c0-.112.089-.194.266-.245a1.78 1.78 0 0 1 .49-.077c.13 0 .226.068.287.203.06.135.107.278.14.427.033.15.054.247.063.294.299-.327.64-.583 1.022-.77.383-.187.77-.28 1.162-.28.71 0 1.267.2 1.673.602.406.401.609.957.609 1.666v4.858c0 .205-.187.308-.56.308h-.056c-.373 0-.56-.103-.56-.308v-4.746c0-.43-.124-.763-.371-1.001-.247-.238-.6-.357-1.057-.357-.317 0-.632.089-.945.266a2.767 2.767 0 0 0-.819.714v5.124c0 .205-.187.308-.56.308h-.056zm6.804 0c-.401 0-.602-.08-.602-.238a.67.67 0 0 1 .042-.196l3.318-9.198c.056-.15.243-.224.56-.224h.406c.336 0 .523.075.56.224l3.318 9.212a.465.465 0 0 1 .042.182c0 .159-.2.238-.602.238H65.3c-.327 0-.513-.075-.56-.224l-.826-2.296h-4.116L59 90.804c-.047.15-.233.224-.56.224h-.07zm5.166-3.584l-1.47-4.172a7.073 7.073 0 0 1-.168-.812h-.028a5.363 5.363 0 0 1-.21.812l-1.47 4.172h3.346zm4.396 3.584c-.373 0-.56-.103-.56-.308v-9.1c0-.15.033-.257.098-.322s.173-.098.322-.098h2.842c.821 0 1.547.196 2.177.588.63.392.945 1.11.945 2.156 0 .775-.182 1.377-.546 1.806-.364.43-.77.716-1.218.861a4.003 4.003 0 0 1-1.218.217h-2.17v3.892c0 .205-.187.308-.56.308h-.112zm2.856-5.264c.401 0 .784-.135 1.148-.406.364-.27.546-.742.546-1.414 0-.625-.187-1.062-.56-1.309-.373-.247-.817-.371-1.33-.371h-1.988v3.5h2.184zm5.292 5.264c-.373 0-.56-.103-.56-.308v-9.24c0-.205.187-.308.56-.308h.112c.373 0 .56.103.56.308v9.24c0 .205-.187.308-.56.308h-.112zm58.418 55.056a4.49 4.49 0 0 1-.98-.098c-.29-.065-.434-.182-.434-.35 0-.093.028-.245.084-.455.056-.21.13-.315.224-.315.047 0 .156.021.329.063.173.042.357.063.553.063.69 0 1.19-.135 1.498-.406.308-.27.462-.71.462-1.316v-6.79c0-.205.187-.308.56-.308h.112c.373 0 .56.103.56.308v6.65c0 1.97-.99 2.954-2.968 2.954zm4.9-.056c-.401 0-.602-.08-.602-.238a.67.67 0 0 1 .042-.196l3.318-9.198c.056-.15.243-.224.56-.224h.406c.336 0 .523.075.56.224l3.318 9.212a.465.465 0 0 1 .042.182c0 .159-.2.238-.602.238h-.112c-.327 0-.513-.075-.56-.224l-.826-2.296h-4.116l-.798 2.296c-.047.15-.233.224-.56.224h-.07zm5.166-3.584l-1.47-4.172a7.073 7.073 0 0 1-.168-.812h-.028a5.363 5.363 0 0 1-.21.812l-1.47 4.172h3.346zm3.57 3.584c-.233 0-.399-.019-.497-.056-.098-.037-.147-.098-.147-.182 0-.065.037-.15.112-.252l3.136-4.648-2.8-4.228c-.075-.103-.112-.187-.112-.252 0-.159.215-.238.644-.238h.196c.159 0 .285.014.378.042a.401.401 0 0 1 .224.168l2.24 3.374 2.31-3.388c.084-.13.285-.196.602-.196h.084c.233 0 .399.019.497.056.098.037.147.098.147.182 0 .065-.037.15-.112.252l-2.8 4.158 3.15 4.718c.075.103.112.187.112.252 0 .159-.215.238-.644.238h-.224c-.159 0-.285-.014-.378-.042a.401.401 0 0 1-.224-.168l-2.576-3.85-2.604 3.864c-.084.13-.285.196-.602.196h-.112zm8.526-3.248c-.093 0-.163-.033-.21-.098-.047-.065-.07-.173-.07-.322v-.14c0-.15.023-.257.07-.322.047-.065.117-.098.21-.098h2.646c.103 0 .175.033.217.098.042.065.063.173.063.322v.14c0 .15-.021.257-.063.322-.042.065-.114.098-.217.098h-2.646zm5.502 3.248c-.373 0-.56-.103-.56-.308v-9.1c0-.15.033-.257.098-.322s.173-.098.322-.098h2.352c1.12 0 1.962.198 2.527.595.565.397.847 1.024.847 1.883 0 .579-.14 1.066-.42 1.463-.28.397-.677.698-1.19.903v.056c.27.093.497.275.679.546.182.27.376.672.581 1.204l1.092 2.758c.028.084.042.15.042.196 0 .15-.196.224-.588.224h-.14a.958.958 0 0 1-.364-.063c-.103-.042-.168-.096-.196-.161l-1.064-2.744c-.205-.532-.462-.894-.77-1.085-.308-.191-.747-.287-1.316-.287h-1.26v4.032c0 .205-.187.308-.56.308h-.112zm2.52-5.404c.327 0 .628-.08.903-.238.275-.159.492-.369.651-.63.159-.261.238-.546.238-.854 0-.55-.168-.961-.504-1.232-.336-.27-.798-.406-1.386-.406h-1.75v3.36h1.848zm7.518 5.46c-.56 0-1.078-.065-1.554-.196-.476-.13-.835-.29-1.078-.476-.177-.13-.266-.247-.266-.35 0-.112.063-.266.189-.462s.226-.294.301-.294c.037 0 .135.047.294.14.29.159.6.294.931.406.331.112.726.168 1.183.168.541 0 .982-.152 1.323-.455.34-.303.511-.702.511-1.197 0-.345-.093-.632-.28-.861a2.09 2.09 0 0 0-.679-.546 13.463 13.463 0 0 0-1.155-.497c-.541-.215-.97-.41-1.288-.588a2.301 2.301 0 0 1-.812-.791c-.224-.35-.336-.81-.336-1.379 0-.504.128-.952.385-1.344.257-.392.62-.698 1.092-.917.471-.22 1.015-.329 1.631-.329.317 0 .672.044 1.064.133.392.089.695.208.91.357.187.112.28.233.28.364 0 .103-.058.252-.175.448-.117.196-.208.294-.273.294a.493.493 0 0 1-.203-.07 2.414 2.414 0 0 1-.175-.098 3.117 3.117 0 0 0-1.456-.364c-.541 0-.978.14-1.309.42-.331.28-.497.667-.497 1.162 0 .317.082.574.245.77.163.196.35.343.56.441.21.098.576.25 1.099.455.56.215 1.017.422 1.372.623.355.2.656.49.903.868s.371.861.371 1.449c0 .84-.28 1.503-.84 1.988-.56.485-1.316.728-2.268.728zm-30.49-65.056c-.373 0-.56-.103-.56-.308v-9.1c0-.15.033-.257.098-.322s.173-.098.322-.098h4.41c.103 0 .175.033.217.098.042.065.063.173.063.322v.224c0 .15-.021.257-.063.322-.042.065-.114.098-.217.098h-3.598v3.192h3.346c.103 0 .175.033.217.098.042.065.063.173.063.322v.224c0 .15-.021.257-.063.322-.042.065-.114.098-.217.098h-3.346v4.2c0 .205-.187.308-.56.308h-.112zm8.204.056c-.719 0-1.297-.177-1.736-.532-.439-.355-.658-.877-.658-1.568 0-.737.222-1.29.665-1.659.443-.369.987-.607 1.631-.714.644-.107 1.428-.166 2.352-.175v-.658a1.09 1.09 0 0 0-.364-.847c-.243-.22-.635-.329-1.176-.329-.41 0-.77.049-1.078.147a6.143 6.143 0 0 0-.77.294 2.446 2.446 0 0 1-.336.147c-.093 0-.198-.093-.315-.28-.117-.187-.175-.327-.175-.42 0-.121.124-.252.371-.392s.576-.259.987-.357a5.47 5.47 0 0 1 1.274-.147c.868 0 1.545.194 2.03.581.485.387.728.926.728 1.617v3.136c0 .616.028 1.057.084 1.323.056.266.084.413.084.441 0 .112-.089.194-.266.245a1.78 1.78 0 0 1-.49.077c-.13 0-.226-.072-.287-.217a2.452 2.452 0 0 1-.14-.455 73.264 73.264 0 0 1-.063-.308c-.635.7-1.419 1.05-2.352 1.05zm.056-1.022c.457 0 .852-.084 1.183-.252.331-.168.67-.406 1.015-.714v-1.652c-.7.01-1.272.037-1.715.084a2.654 2.654 0 0 0-1.169.392c-.336.215-.504.546-.504.994 0 .373.1.658.301.854.2.196.497.294.889.294zm7.826 1.022c-.71 0-1.267-.2-1.673-.602-.406-.401-.609-.957-.609-1.666v-4.858c0-.205.187-.308.56-.308h.056c.373 0 .56.103.56.308v4.746c0 .43.124.763.371 1.001.247.238.6.357 1.057.357.317 0 .632-.089.945-.266a2.75 2.75 0 0 0 .819-.714v-5.124c0-.205.187-.308.56-.308h.056c.373 0 .56.103.56.308v4.97c0 .616.028 1.057.084 1.323.056.266.084.413.084.441 0 .112-.089.194-.266.245a1.78 1.78 0 0 1-.49.077c-.13 0-.226-.072-.287-.217a2.452 2.452 0 0 1-.14-.455 73.264 73.264 0 0 1-.063-.308c-.299.327-.64.583-1.022.77-.383.187-.77.28-1.162.28zm7.42 0c-.467 0-.884-.142-1.253-.427-.369-.285-.553-.786-.553-1.505V70.78c0-.205.187-.308.56-.308h.056c.373 0 .56.103.56.308v8.26c0 .392.068.663.203.812.135.15.32.224.553.224.177 0 .31-.012.399-.035a.87.87 0 0 1 .203-.035c.084 0 .154.086.21.259.056.173.084.306.084.399 0 .28-.34.42-1.022.42zm4.508 0c-.467 0-.884-.142-1.253-.427-.369-.285-.553-.786-.553-1.505v-4.466h-.7c-.093 0-.163-.033-.21-.098-.047-.065-.07-.173-.07-.322v-.168c0-.15.023-.257.07-.322.047-.065.117-.098.21-.098h.7l.168-1.47c.028-.205.177-.308.448-.308h.14c.28 0 .42.103.42.308v1.47h1.176c.103 0 .175.033.217.098.042.065.063.173.063.322v.168c0 .15-.021.257-.063.322-.042.065-.114.098-.217.098h-1.176v4.354c0 .392.068.663.203.812.135.15.32.224.553.224.177 0 .31-.012.399-.035a.87.87 0 0 1 .203-.035c.084 0 .154.086.21.259.056.173.084.306.084.399 0 .28-.34.42-1.022.42zm-41.538 15.944c-.373 0-.56-.103-.56-.308v-8.456h-2.688c-.093 0-.163-.033-.21-.098-.047-.065-.07-.173-.07-.322v-.224c0-.15.023-.257.07-.322.047-.065.117-.098.21-.098h6.566c.103 0 .175.033.217.098.042.065.063.173.063.322v.224c0 .15-.021.257-.063.322-.042.065-.114.098-.217.098h-2.646v8.456c0 .205-.187.308-.56.308h-.112zm7.896.056c-1.055 0-1.86-.317-2.415-.952-.555-.635-.833-1.554-.833-2.758 0-1.213.28-2.147.84-2.8.56-.653 1.363-.98 2.408-.98 1.027 0 1.813.324 2.359.973s.819 1.584.819 2.807c0 1.213-.268 2.135-.805 2.765-.537.63-1.328.945-2.373.945zm-.042-1.008c.681 0 1.185-.222 1.512-.665.327-.443.49-1.132.49-2.065s-.163-1.624-.49-2.072c-.327-.448-.83-.672-1.512-.672-.681 0-1.18.222-1.498.665-.317.443-.476 1.136-.476 2.079 0 .933.159 1.622.476 2.065.317.443.817.665 1.498.665zm6.944 1.008c-.467 0-.884-.142-1.253-.427-.369-.285-.553-.786-.553-1.505V86.78c0-.205.187-.308.56-.308h.056c.373 0 .56.103.56.308v8.26c0 .392.068.663.203.812.135.15.32.224.553.224.177 0 .31-.012.399-.035a.87.87 0 0 1 .203-.035c.084 0 .154.086.21.259.056.173.084.306.084.399 0 .28-.34.42-1.022.42zm5.404 0c-1.167 0-2.03-.303-2.59-.91s-.84-1.535-.84-2.786c0-1.241.275-2.184.826-2.828.55-.644 1.363-.966 2.436-.966.952 0 1.67.31 2.156.931.485.62.728 1.528.728 2.723 0 .084-.056.2-.168.35-.112.15-.21.224-.294.224h-4.424c.056.775.257 1.344.602 1.708.345.364.863.546 1.554.546.392 0 .73-.049 1.015-.147a5.16 5.16 0 0 0 .707-.294c.187-.098.294-.147.322-.147.093 0 .198.093.315.28.117.187.175.327.175.42 0 .112-.117.24-.35.385-.233.145-.544.266-.931.364-.387.098-.8.147-1.239.147zm1.47-4.27c0-1.475-.56-2.212-1.68-2.212-1.204 0-1.857.737-1.96 2.212h3.64zm3.696 4.214c-.373 0-.56-.103-.56-.308v-4.914c0-.616-.028-1.057-.084-1.323a5.346 5.346 0 0 1-.084-.441c0-.112.089-.194.266-.245a1.78 1.78 0 0 1 .49-.077c.13 0 .226.068.287.203.06.135.107.278.14.427.033.15.054.247.063.294.495-.7 1.036-1.05 1.624-1.05.261 0 .462.051.602.154.14.103.21.233.21.392s-.028.324-.084.497c-.056.173-.121.259-.196.259a.991.991 0 0 1-.273-.077 1.408 1.408 0 0 0-.497-.077c-.215 0-.418.063-.609.189a2.363 2.363 0 0 0-.483.413c-.13.15-.196.233-.196.252v5.124c0 .205-.187.308-.56.308h-.056zm6.384.056c-.719 0-1.297-.177-1.736-.532-.439-.355-.658-.877-.658-1.568 0-.737.222-1.29.665-1.659.443-.369.987-.607 1.631-.714.644-.107 1.428-.166 2.352-.175v-.658a1.09 1.09 0 0 0-.364-.847c-.243-.22-.635-.329-1.176-.329-.41 0-.77.049-1.078.147a6.143 6.143 0 0 0-.77.294 2.446 2.446 0 0 1-.336.147c-.093 0-.198-.093-.315-.28-.117-.187-.175-.327-.175-.42 0-.121.124-.252.371-.392s.576-.259.987-.357a5.47 5.47 0 0 1 1.274-.147c.868 0 1.545.194 2.03.581.485.387.728.926.728 1.617v3.136c0 .616.028 1.057.084 1.323.056.266.084.413.084.441 0 .112-.089.194-.266.245a1.78 1.78 0 0 1-.49.077c-.13 0-.226-.072-.287-.217a2.452 2.452 0 0 1-.14-.455 73.264 73.264 0 0 1-.063-.308c-.635.7-1.419 1.05-2.352 1.05zm.056-1.022c.457 0 .852-.084 1.183-.252.331-.168.67-.406 1.015-.714v-1.652c-.7.01-1.272.037-1.715.084a2.654 2.654 0 0 0-1.169.392c-.336.215-.504.546-.504.994 0 .373.1.658.301.854.2.196.497.294.889.294zm6.258.966c-.373 0-.56-.103-.56-.308v-4.914c0-.616-.028-1.057-.084-1.323a5.346 5.346 0 0 1-.084-.441c0-.112.089-.194.266-.245a1.78 1.78 0 0 1 .49-.077c.13 0 .226.068.287.203.06.135.107.278.14.427.033.15.054.247.063.294.299-.327.64-.583 1.022-.77.383-.187.77-.28 1.162-.28.71 0 1.267.2 1.673.602.406.401.609.957.609 1.666v4.858c0 .205-.187.308-.56.308h-.056c-.373 0-.56-.103-.56-.308v-4.746c0-.43-.124-.763-.371-1.001-.247-.238-.6-.357-1.057-.357-.317 0-.632.089-.945.266a2.767 2.767 0 0 0-.819.714v5.124c0 .205-.187.308-.56.308h-.056zm10.206.056c-1.157 0-2.02-.299-2.59-.896-.57-.597-.854-1.559-.854-2.884 0-1.335.317-2.287.952-2.856.635-.57 1.423-.854 2.366-.854.541 0 1.027.065 1.456.196.43.13.644.28.644.448 0 .121-.054.278-.161.469-.107.191-.203.287-.287.287a.126.126 0 0 1-.063-.021.337.337 0 0 0-.091-.035 3.727 3.727 0 0 0-1.526-.336c-1.353 0-2.03.891-2.03 2.674 0 .99.166 1.703.497 2.142.331.439.889.658 1.673.658a3.48 3.48 0 0 0 1.582-.364l.154-.056c.093 0 .196.091.308.273.112.182.168.329.168.441 0 .112-.1.222-.301.329-.2.107-.469.198-.805.273a5.01 5.01 0 0 1-1.092.112zm6.818 0c-1.167 0-2.03-.303-2.59-.91s-.84-1.535-.84-2.786c0-1.241.275-2.184.826-2.828.55-.644 1.363-.966 2.436-.966.952 0 1.67.31 2.156.931.485.62.728 1.528.728 2.723 0 .084-.056.2-.168.35-.112.15-.21.224-.294.224h-4.424c.056.775.257 1.344.602 1.708.345.364.863.546 1.554.546.392 0 .73-.049 1.015-.147a5.16 5.16 0 0 0 .707-.294c.187-.098.294-.147.322-.147.093 0 .198.093.315.28.117.187.175.327.175.42 0 .112-.117.24-.35.385-.233.145-.544.266-.931.364-.387.098-.8.147-1.239.147zm1.47-4.27c0-1.475-.56-2.212-1.68-2.212-1.204 0-1.857.737-1.96 2.212h3.64zm-48.975-67.786c-.373 0-.56-.103-.56-.308v-9.24c0-.205.187-.308.56-.308h.112c.373 0 .56.103.56.308v3.962h5.068V15.48c0-.205.187-.308.56-.308h.112c.373 0 .56.103.56.308v9.24c0 .205-.187.308-.56.308h-.112c-.373 0-.56-.103-.56-.308v-4.214h-5.068v4.214c0 .205-.187.308-.56.308h-.112zm12.544.056c-1.167 0-2.03-.303-2.59-.91s-.84-1.535-.84-2.786c0-1.241.275-2.184.826-2.828.55-.644 1.363-.966 2.436-.966.952 0 1.67.31 2.156.931.485.62.728 1.528.728 2.723 0 .084-.056.2-.168.35-.112.15-.21.224-.294.224h-4.424c.056.775.257 1.344.602 1.708.345.364.863.546 1.554.546.392 0 .73-.049 1.015-.147a5.16 5.16 0 0 0 .707-.294c.187-.098.294-.147.322-.147.093 0 .198.093.315.28.117.187.175.327.175.42 0 .112-.117.24-.35.385-.233.145-.544.266-.931.364-.387.098-.8.147-1.239.147zm1.47-4.27c0-1.475-.56-2.212-1.68-2.212-1.204 0-1.857.737-1.96 2.212h3.64zm4.956 4.27c-.719 0-1.297-.177-1.736-.532-.439-.355-.658-.877-.658-1.568 0-.737.222-1.29.665-1.659.443-.369.987-.607 1.631-.714.644-.107 1.428-.166 2.352-.175v-.658a1.09 1.09 0 0 0-.364-.847c-.243-.22-.635-.329-1.176-.329-.41 0-.77.049-1.078.147a6.143 6.143 0 0 0-.77.294 2.446 2.446 0 0 1-.336.147c-.093 0-.198-.093-.315-.28-.117-.187-.175-.327-.175-.42 0-.121.124-.252.371-.392s.576-.259.987-.357a5.47 5.47 0 0 1 1.274-.147c.868 0 1.545.194 2.03.581.485.387.728.926.728 1.617v3.136c0 .616.028 1.057.084 1.323.056.266.084.413.084.441 0 .112-.089.194-.266.245a1.78 1.78 0 0 1-.49.077c-.13 0-.226-.072-.287-.217a2.452 2.452 0 0 1-.14-.455 73.264 73.264 0 0 1-.063-.308c-.635.7-1.419 1.05-2.352 1.05zm.056-1.022c.457 0 .852-.084 1.183-.252.331-.168.67-.406 1.015-.714v-1.652c-.7.01-1.272.037-1.715.084a2.654 2.654 0 0 0-1.169.392c-.336.215-.504.546-.504.994 0 .373.1.658.301.854.2.196.497.294.889.294zm7.448 1.022c-.467 0-.884-.142-1.253-.427-.369-.285-.553-.786-.553-1.505V14.78c0-.205.187-.308.56-.308h.056c.373 0 .56.103.56.308v8.26c0 .392.068.663.203.812.135.15.32.224.553.224.177 0 .31-.012.399-.035a.87.87 0 0 1 .203-.035c.084 0 .154.086.21.259.056.173.084.306.084.399 0 .28-.34.42-1.022.42zm4.508 0c-.467 0-.884-.142-1.253-.427-.369-.285-.553-.786-.553-1.505v-4.466h-.7c-.093 0-.163-.033-.21-.098-.047-.065-.07-.173-.07-.322v-.168c0-.15.023-.257.07-.322.047-.065.117-.098.21-.098h.7l.168-1.47c.028-.205.177-.308.448-.308h.14c.28 0 .42.103.42.308v1.47h1.176c.103 0 .175.033.217.098.042.065.063.173.063.322v.168c0 .15-.021.257-.063.322-.042.065-.114.098-.217.098h-1.176v4.354c0 .392.068.663.203.812.135.15.32.224.553.224.177 0 .31-.012.399-.035a.87.87 0 0 1 .203-.035c.084 0 .154.086.21.259.056.173.084.306.084.399 0 .28-.34.42-1.022.42zm3.332-.056c-.373 0-.56-.103-.56-.308v-9.94c0-.205.187-.308.56-.308h.056c.373 0 .56.103.56.308v3.78c.28-.28.604-.511.973-.693a2.607 2.607 0 0 1 1.169-.273c.588 0 1.106.166 1.554.497.448.331.672.922.672 1.771v4.858c0 .205-.187.308-.56.308h-.056c-.373 0-.56-.103-.56-.308v-4.746c0-.42-.121-.751-.364-.994s-.597-.364-1.064-.364a1.73 1.73 0 0 0-.854.217 2.9 2.9 0 0 0-.651.476c-.173.173-.259.268-.259.287v5.124c0 .205-.187.308-.56.308h-.056zm-28.882 16.056c-1.54 0-2.676-.404-3.409-1.211-.733-.807-1.099-2.065-1.099-3.773 0-3.323 1.512-4.984 4.536-4.984.457 0 .898.049 1.323.147.425.098.763.217 1.015.357.224.13.336.252.336.364 0 .13-.058.299-.175.504-.117.205-.217.308-.301.308-.028 0-.147-.058-.357-.175a3.724 3.724 0 0 0-1.813-.441c-1.13 0-1.96.313-2.492.938s-.798 1.624-.798 2.996c0 1.344.264 2.331.791 2.961.527.63 1.342.945 2.443.945.457 0 .85-.054 1.176-.161a6.14 6.14 0 0 0 .966-.413c.13-.084.22-.126.266-.126.084 0 .187.103.308.308.121.205.182.355.182.448 0 .14-.15.294-.448.462-.28.159-.635.29-1.064.392-.43.103-.891.154-1.386.154zm5.208-.056c-.373 0-.56-.103-.56-.308v-9.94c0-.205.187-.308.56-.308h.056c.373 0 .56.103.56.308v3.78c.28-.28.604-.511.973-.693a2.607 2.607 0 0 1 1.169-.273c.588 0 1.106.166 1.554.497.448.331.672.922.672 1.771v4.858c0 .205-.187.308-.56.308h-.056c-.373 0-.56-.103-.56-.308v-4.746c0-.42-.121-.751-.364-.994s-.597-.364-1.064-.364a1.73 1.73 0 0 0-.854.217 2.9 2.9 0 0 0-.651.476c-.173.173-.259.268-.259.287v5.124c0 .205-.187.308-.56.308h-.056zm10.262.056c-1.167 0-2.03-.303-2.59-.91s-.84-1.535-.84-2.786c0-1.241.275-2.184.826-2.828.55-.644 1.363-.966 2.436-.966.952 0 1.67.31 2.156.931.485.62.728 1.528.728 2.723 0 .084-.056.2-.168.35-.112.15-.21.224-.294.224h-4.424c.056.775.257 1.344.602 1.708.345.364.863.546 1.554.546.392 0 .73-.049 1.015-.147a5.16 5.16 0 0 0 .707-.294c.187-.098.294-.147.322-.147.093 0 .198.093.315.28.117.187.175.327.175.42 0 .112-.117.24-.35.385-.233.145-.544.266-.931.364-.387.098-.8.147-1.239.147zm1.47-4.27c0-1.475-.56-2.212-1.68-2.212-1.204 0-1.857.737-1.96 2.212h3.64zm6.048 4.27c-1.157 0-2.02-.299-2.59-.896-.57-.597-.854-1.559-.854-2.884 0-1.335.317-2.287.952-2.856.635-.57 1.423-.854 2.366-.854.541 0 1.027.065 1.456.196.43.13.644.28.644.448 0 .121-.054.278-.161.469-.107.191-.203.287-.287.287a.126.126 0 0 1-.063-.021.337.337 0 0 0-.091-.035 3.727 3.727 0 0 0-1.526-.336c-1.353 0-2.03.891-2.03 2.674 0 .99.166 1.703.497 2.142.331.439.889.658 1.673.658a3.48 3.48 0 0 0 1.582-.364l.154-.056c.093 0 .196.091.308.273.112.182.168.329.168.441 0 .112-.1.222-.301.329-.2.107-.469.198-.805.273a5.01 5.01 0 0 1-1.092.112zm9.268-.476c.084.093.126.168.126.224 0 .075-.047.126-.14.154a1.863 1.863 0 0 1-.476.042h-.056a2.64 2.64 0 0 1-.476-.035.478.478 0 0 1-.28-.147l-2.8-3.318h-.056v3.192c0 .205-.187.308-.56.308h-.056c-.373 0-.56-.103-.56-.308v-9.94c0-.205.187-.308.56-.308h.056c.373 0 .56.103.56.308v6.258h.056l2.674-3.192c.103-.13.35-.196.742-.196h.056c.159 0 .28.016.364.049.084.033.126.077.126.133 0 .084-.047.177-.14.28l-2.604 3.08 2.884 3.416zm62.039 105.476a4.49 4.49 0 0 1-.98-.098c-.29-.065-.434-.182-.434-.35 0-.093.028-.245.084-.455.056-.21.13-.315.224-.315.047 0 .156.021.329.063.173.042.357.063.553.063.69 0 1.19-.135 1.498-.406.308-.27.462-.71.462-1.316v-6.79c0-.205.187-.308.56-.308h.112c.373 0 .56.103.56.308v6.65c0 1.97-.99 2.954-2.968 2.954zm7.546 0c-.56 0-1.078-.065-1.554-.196-.476-.13-.835-.29-1.078-.476-.177-.13-.266-.247-.266-.35 0-.112.063-.266.189-.462s.226-.294.301-.294c.037 0 .135.047.294.14.29.159.6.294.931.406.331.112.726.168 1.183.168.541 0 .982-.152 1.323-.455.34-.303.511-.702.511-1.197 0-.345-.093-.632-.28-.861a2.09 2.09 0 0 0-.679-.546 13.463 13.463 0 0 0-1.155-.497c-.541-.215-.97-.41-1.288-.588a2.301 2.301 0 0 1-.812-.791c-.224-.35-.336-.81-.336-1.379 0-.504.128-.952.385-1.344.257-.392.62-.698 1.092-.917.471-.22 1.015-.329 1.631-.329.317 0 .672.044 1.064.133.392.089.695.208.91.357.187.112.28.233.28.364 0 .103-.058.252-.175.448-.117.196-.208.294-.273.294a.493.493 0 0 1-.203-.07 2.414 2.414 0 0 1-.175-.098 3.117 3.117 0 0 0-1.456-.364c-.541 0-.978.14-1.309.42-.331.28-.497.667-.497 1.162 0 .317.082.574.245.77.163.196.35.343.56.441.21.098.576.25 1.099.455.56.215 1.017.422 1.372.623.355.2.656.49.903.868s.371.861.371 1.449c0 .84-.28 1.503-.84 1.988-.56.485-1.316.728-2.268.728zm8.694 0c-1.4 0-2.469-.427-3.206-1.281-.737-.854-1.106-2.098-1.106-3.731s.366-2.868 1.099-3.703 1.804-1.253 3.213-1.253c1.41 0 2.483.418 3.22 1.253.737.835 1.106 2.07 1.106 3.703s-.369 2.877-1.106 3.731c-.737.854-1.81 1.281-3.22 1.281zm0-1.064c.99 0 1.745-.336 2.268-1.008.523-.672.784-1.652.784-2.94 0-1.279-.261-2.247-.784-2.905-.523-.658-1.279-.987-2.268-.987-.99 0-1.743.329-2.261.987-.518.658-.777 1.626-.777 2.905 0 1.288.259 2.268.777 2.94.518.672 1.272 1.008 2.261 1.008zm6.944 1.008c-.373 0-.56-.103-.56-.308v-9.24c0-.205.187-.308.56-.308h.294c.15 0 .268.019.357.056a.517.517 0 0 1 .231.21l4.396 6.636c.159.233.313.513.462.84l.056-.014a11.93 11.93 0 0 1-.028-.952v-6.468c0-.205.187-.308.56-.308h.098c.373 0 .56.103.56.308v9.24c0 .205-.187.308-.56.308h-.28c-.243 0-.406-.065-.49-.196l-4.508-6.804a5.752 5.752 0 0 1-.462-.84l-.056.014c.019.215.028.532.028.952v6.566c0 .205-.187.308-.56.308h-.098zm9.142-3.248c-.093 0-.163-.033-.21-.098-.047-.065-.07-.173-.07-.322v-.14c0-.15.023-.257.07-.322.047-.065.117-.098.21-.098h2.646c.103 0 .175.033.217.098.042.065.063.173.063.322v.14c0 .15-.021.257-.063.322-.042.065-.114.098-.217.098h-2.646zm5.334 3.248c-.373 0-.56-.103-.56-.308v-9.1c0-.15.033-.257.098-.322s.173-.098.322-.098h2.842c.821 0 1.547.196 2.177.588.63.392.945 1.11.945 2.156 0 .775-.182 1.377-.546 1.806-.364.43-.77.716-1.218.861a4.003 4.003 0 0 1-1.218.217h-2.17v3.892c0 .205-.187.308-.56.308h-.112zm2.856-5.264c.401 0 .784-.135 1.148-.406.364-.27.546-.742.546-1.414 0-.625-.187-1.062-.56-1.309-.373-.247-.817-.371-1.33-.371h-1.988v3.5h2.184zm61.484 5.32a4.49 4.49 0 0 1-.98-.098c-.29-.065-.434-.182-.434-.35 0-.093.028-.245.084-.455.056-.21.13-.315.224-.315.047 0 .156.021.329.063.173.042.357.063.553.063.69 0 1.19-.135 1.498-.406.308-.27.462-.71.462-1.316v-6.79c0-.205.187-.308.56-.308h.112c.373 0 .56.103.56.308v6.65c0 1.97-.99 2.954-2.968 2.954zm7.546 0c-.56 0-1.078-.065-1.554-.196-.476-.13-.835-.29-1.078-.476-.177-.13-.266-.247-.266-.35 0-.112.063-.266.189-.462s.226-.294.301-.294c.037 0 .135.047.294.14.29.159.6.294.931.406.331.112.726.168 1.183.168.541 0 .982-.152 1.323-.455.34-.303.511-.702.511-1.197 0-.345-.093-.632-.28-.861a2.09 2.09 0 0 0-.679-.546 13.463 13.463 0 0 0-1.155-.497c-.541-.215-.97-.41-1.288-.588a2.301 2.301 0 0 1-.812-.791c-.224-.35-.336-.81-.336-1.379 0-.504.128-.952.385-1.344.257-.392.62-.698 1.092-.917.471-.22 1.015-.329 1.631-.329.317 0 .672.044 1.064.133.392.089.695.208.91.357.187.112.28.233.28.364 0 .103-.058.252-.175.448-.117.196-.208.294-.273.294a.493.493 0 0 1-.203-.07 2.414 2.414 0 0 1-.175-.098 3.117 3.117 0 0 0-1.456-.364c-.541 0-.978.14-1.309.42-.331.28-.497.667-.497 1.162 0 .317.082.574.245.77.163.196.35.343.56.441.21.098.576.25 1.099.455.56.215 1.017.422 1.372.623.355.2.656.49.903.868s.371.861.371 1.449c0 .84-.28 1.503-.84 1.988-.56.485-1.316.728-2.268.728zm8.694 0c-1.4 0-2.469-.427-3.206-1.281-.737-.854-1.106-2.098-1.106-3.731s.366-2.868 1.099-3.703 1.804-1.253 3.213-1.253c1.41 0 2.483.418 3.22 1.253.737.835 1.106 2.07 1.106 3.703s-.369 2.877-1.106 3.731c-.737.854-1.81 1.281-3.22 1.281zm0-1.064c.99 0 1.745-.336 2.268-1.008.523-.672.784-1.652.784-2.94 0-1.279-.261-2.247-.784-2.905-.523-.658-1.279-.987-2.268-.987-.99 0-1.743.329-2.261.987-.518.658-.777 1.626-.777 2.905 0 1.288.259 2.268.777 2.94.518.672 1.272 1.008 2.261 1.008zm6.944 1.008c-.373 0-.56-.103-.56-.308v-9.24c0-.205.187-.308.56-.308h.294c.15 0 .268.019.357.056a.517.517 0 0 1 .231.21l4.396 6.636c.159.233.313.513.462.84l.056-.014a11.93 11.93 0 0 1-.028-.952v-6.468c0-.205.187-.308.56-.308h.098c.373 0 .56.103.56.308v9.24c0 .205-.187.308-.56.308h-.28c-.243 0-.406-.065-.49-.196l-4.508-6.804a5.752 5.752 0 0 1-.462-.84l-.056.014c.019.215.028.532.028.952v6.566c0 .205-.187.308-.56.308h-.098zm9.142-3.248c-.093 0-.163-.033-.21-.098-.047-.065-.07-.173-.07-.322v-.14c0-.15.023-.257.07-.322.047-.065.117-.098.21-.098h2.646c.103 0 .175.033.217.098.042.065.063.173.063.322v.14c0 .15-.021.257-.063.322-.042.065-.114.098-.217.098h-2.646zm5.362 3.22c-.15 0-.257-.033-.322-.098s-.098-.173-.098-.322v-8.96c0-.15.033-.257.098-.322s.173-.098.322-.098h2.506c1.017 0 1.794.224 2.331.672.537.448.805 1.05.805 1.806 0 .467-.154.91-.462 1.33-.308.42-.667.686-1.078.798v.056c0-.037.182.033.546.21.364.177.69.436.98.777.29.34.434.786.434 1.337 0 1.876-1.218 2.814-3.654 2.814h-2.408zm2.436-5.572c.56 0 1.022-.159 1.386-.476.364-.317.546-.705.546-1.162 0-.523-.159-.908-.476-1.155-.317-.247-.821-.371-1.512-.371h-1.568v3.164h1.624zm.42 4.508c.616 0 1.092-.161 1.428-.483.336-.322.504-.763.504-1.323 0-.523-.184-.926-.553-1.211-.369-.285-.908-.427-1.617-.427h-1.806v3.444h2.044zm-32.736-55.852c-1.54 0-2.676-.404-3.409-1.211-.733-.807-1.099-2.065-1.099-3.773 0-3.323 1.512-4.984 4.536-4.984.457 0 .898.049 1.323.147.425.098.763.217 1.015.357.224.13.336.252.336.364 0 .13-.058.299-.175.504-.117.205-.217.308-.301.308-.028 0-.147-.058-.357-.175a3.724 3.724 0 0 0-1.813-.441c-1.13 0-1.96.313-2.492.938s-.798 1.624-.798 2.996c0 1.344.264 2.331.791 2.961.527.63 1.342.945 2.443.945.457 0 .85-.054 1.176-.161a6.14 6.14 0 0 0 .966-.413c.13-.084.22-.126.266-.126.084 0 .187.103.308.308.121.205.182.355.182.448 0 .14-.15.294-.448.462-.28.159-.635.29-1.064.392-.43.103-.891.154-1.386.154zm7.378 0c-1.055 0-1.86-.317-2.415-.952-.555-.635-.833-1.554-.833-2.758 0-1.213.28-2.147.84-2.8.56-.653 1.363-.98 2.408-.98 1.027 0 1.813.324 2.359.973s.819 1.584.819 2.807c0 1.213-.268 2.135-.805 2.765-.537.63-1.328.945-2.373.945zm-.042-1.008c.681 0 1.185-.222 1.512-.665.327-.443.49-1.132.49-2.065s-.163-1.624-.49-2.072c-.327-.448-.83-.672-1.512-.672-.681 0-1.18.222-1.498.665-.317.443-.476 1.136-.476 2.079 0 .933.159 1.622.476 2.065.317.443.817.665 1.498.665zm5.754.952c-.373 0-.56-.103-.56-.308v-4.914c0-.616-.028-1.057-.084-1.323a5.346 5.346 0 0 1-.084-.441c0-.112.089-.194.266-.245a1.78 1.78 0 0 1 .49-.077c.13 0 .226.068.287.203.06.135.107.278.14.427.033.15.054.247.063.294.299-.327.64-.583 1.022-.77.383-.187.77-.28 1.162-.28.71 0 1.267.2 1.673.602.406.401.609.957.609 1.666v4.858c0 .205-.187.308-.56.308h-.056c-.373 0-.56-.103-.56-.308v-4.746c0-.43-.124-.763-.371-1.001-.247-.238-.6-.357-1.057-.357-.317 0-.632.089-.945.266a2.767 2.767 0 0 0-.819.714v5.124c0 .205-.187.308-.56.308h-.056zm12.096-7.35c.373 0 .56.103.56.308v6.734c0 .205-.187.308-.56.308h-.056c-.373 0-.56-.103-.56-.308v-6.034h-2.758v6.034c0 .205-.187.308-.56.308h-.056c-.373 0-.56-.103-.56-.308v-6.034h-.56c-.093 0-.163-.033-.21-.098-.047-.065-.07-.173-.07-.322v-.168c0-.15.023-.257.07-.322.047-.065.117-.098.21-.098h.56v-1.33c0-.737.182-1.244.546-1.519a2.032 2.032 0 0 1 1.26-.413c.681 0 1.022.14 1.022.42 0 .093-.028.226-.084.399-.056.173-.126.259-.21.259a.87.87 0 0 1-.203-.035 1.687 1.687 0 0 0-.399-.035c-.243 0-.43.068-.56.203-.13.135-.196.413-.196.833v1.218h3.374zm0-2.758c.41 0 .616.112.616.336v.784c0 .224-.224.336-.672.336-.41 0-.616-.112-.616-.336v-.784c0-.224.224-.336.672-.336zm5.362 13.048c-.896 0-1.603-.14-2.121-.42-.518-.28-.777-.719-.777-1.316 0-.41.117-.765.35-1.064.233-.299.541-.527.924-.686l.014-.028a1.406 1.406 0 0 1-.56-1.148c0-.607.261-1.092.784-1.456a2.108 2.108 0 0 1-.896-.812 2.23 2.23 0 0 1-.308-1.162c0-.663.243-1.209.728-1.638.485-.43 1.162-.644 2.03-.644.299 0 .574.028.826.084h2.548c.103 0 .175.033.217.098.042.065.063.173.063.322v.168c0 .15-.021.257-.063.322-.042.065-.114.098-.217.098a9.71 9.71 0 0 1-.98-.042l-.014.028c.243.345.364.747.364 1.204 0 .672-.24 1.223-.721 1.652-.48.43-1.16.644-2.037.644-.439 0-.77.077-.994.231-.224.154-.336.399-.336.735 0 .243.077.427.231.553.154.126.348.217.581.273.233.056.56.107.98.154.205.019.36.037.462.056.672.084 1.192.24 1.561.469.369.229.553.632.553 1.211 0 .681-.27 1.204-.812 1.568-.541.364-1.335.546-2.38.546zm.154-6.734c.513 0 .922-.105 1.225-.315.303-.21.455-.553.455-1.029 0-.905-.56-1.358-1.68-1.358-1.11 0-1.666.453-1.666 1.358 0 .896.555 1.344 1.666 1.344zm0 5.782c.653 0 1.136-.084 1.449-.252a.832.832 0 0 0 .469-.784c0-.327-.154-.546-.462-.658-.308-.112-.77-.2-1.386-.266-.56-.056-.943-.117-1.148-.182-.616.261-.924.64-.924 1.134 0 .672.667 1.008 2.002 1.008zm-129.341-9.932a4.49 4.49 0 0 1-.98-.098c-.29-.065-.434-.182-.434-.35 0-.093.028-.245.084-.455.056-.21.13-.315.224-.315.047 0 .156.021.329.063.173.042.357.063.553.063.69 0 1.19-.135 1.498-.406.308-.27.462-.71.462-1.316v-6.79c0-.205.187-.308.56-.308h.112c.373 0 .56.103.56.308v6.65c0 1.97-.99 2.954-2.968 2.954zm7.336-.056c-.336 0-.523-.075-.56-.224l-2.394-9.198a1.488 1.488 0 0 1-.042-.196c0-.159.2-.238.602-.238h.14c.336 0 .523.075.56.224l1.778 6.888c.047.177.098.427.154.749.056.322.089.506.098.553l.336-1.344 1.694-6.832c.037-.159.22-.238.546-.238h.224c.327 0 .509.08.546.238l1.736 6.888c.056.205.107.45.154.735s.075.469.084.553l.336-1.33 1.694-6.86c.037-.15.224-.224.56-.224h.084c.401 0 .602.08.602.238l-.042.196-2.422 9.198c-.037.15-.224.224-.56.224h-.574c-.336 0-.523-.075-.56-.224l-1.526-5.698-.294-1.82-.294 1.82-1.526 5.698c-.037.15-.224.224-.56.224h-.574zm12.95 0c-.373 0-.56-.103-.56-.308v-8.456h-2.688c-.093 0-.163-.033-.21-.098-.047-.065-.07-.173-.07-.322v-.224c0-.15.023-.257.07-.322.047-.065.117-.098.21-.098h6.566c.103 0 .175.033.217.098.042.065.063.173.063.322v.224c0 .15-.021.257-.063.322-.042.065-.114.098-.217.098h-2.646v8.456c0 .205-.187.308-.56.308h-.112zm-47.203 16c-.373 0-.56-.103-.56-.308v-9.1c0-.15.033-.257.098-.322s.173-.098.322-.098h2.842c.821 0 1.547.196 2.177.588.63.392.945 1.11.945 2.156 0 .775-.182 1.377-.546 1.806-.364.43-.77.716-1.218.861a4.003 4.003 0 0 1-1.218.217h-2.17v3.892c0 .205-.187.308-.56.308h-.112zm2.856-5.264c.401 0 .784-.135 1.148-.406.364-.27.546-.742.546-1.414 0-.625-.187-1.062-.56-1.309-.373-.247-.817-.371-1.33-.371h-1.988v3.5h2.184zm5.194 5.264c-.373 0-.56-.103-.56-.308v-4.914c0-.616-.028-1.057-.084-1.323a5.346 5.346 0 0 1-.084-.441c0-.112.089-.194.266-.245a1.78 1.78 0 0 1 .49-.077c.13 0 .226.068.287.203.06.135.107.278.14.427.033.15.054.247.063.294.495-.7 1.036-1.05 1.624-1.05.261 0 .462.051.602.154.14.103.21.233.21.392s-.028.324-.084.497c-.056.173-.121.259-.196.259a.991.991 0 0 1-.273-.077 1.408 1.408 0 0 0-.497-.077c-.215 0-.418.063-.609.189a2.363 2.363 0 0 0-.483.413c-.13.15-.196.233-.196.252v5.124c0 .205-.187.308-.56.308h-.056zm7.322.056c-1.055 0-1.86-.317-2.415-.952-.555-.635-.833-1.554-.833-2.758 0-1.213.28-2.147.84-2.8.56-.653 1.363-.98 2.408-.98 1.027 0 1.813.324 2.359.973s.819 1.584.819 2.807c0 1.213-.268 2.135-.805 2.765-.537.63-1.328.945-2.373.945zm-.042-1.008c.681 0 1.185-.222 1.512-.665.327-.443.49-1.132.49-2.065s-.163-1.624-.49-2.072c-.327-.448-.83-.672-1.512-.672-.681 0-1.18.222-1.498.665-.317.443-.476 1.136-.476 2.079 0 .933.159 1.622.476 2.065.317.443.817.665 1.498.665zm5.754 3.836c-.373 0-.56-.103-.56-.308v-7.798c0-.616-.028-1.057-.084-1.323a5.346 5.346 0 0 1-.084-.441c0-.112.089-.194.266-.245a1.78 1.78 0 0 1 .49-.077c.13 0 .226.068.287.203.06.135.107.278.14.427.033.15.054.247.063.294.672-.7 1.414-1.05 2.226-1.05.57 0 1.057.161 1.463.483.406.322.716.765.931 1.33.215.565.322 1.211.322 1.939 0 .793-.119 1.47-.357 2.03-.238.56-.572.985-1.001 1.274a2.59 2.59 0 0 1-1.484.434c-.41 0-.772-.06-1.085-.182a3.622 3.622 0 0 1-.917-.532v3.234c0 .205-.187.308-.56.308h-.056zm2.352-3.864c.616 0 1.083-.224 1.4-.672.317-.448.476-1.092.476-1.932 0-.905-.15-1.603-.448-2.093-.299-.49-.723-.735-1.274-.735-.317 0-.642.084-.973.252a3.195 3.195 0 0 0-.917.714v3.836c.504.42 1.083.63 1.736.63zm6.986 1.036c-.719 0-1.297-.177-1.736-.532-.439-.355-.658-.877-.658-1.568 0-.737.222-1.29.665-1.659.443-.369.987-.607 1.631-.714.644-.107 1.428-.166 2.352-.175v-.658a1.09 1.09 0 0 0-.364-.847c-.243-.22-.635-.329-1.176-.329-.41 0-.77.049-1.078.147a6.143 6.143 0 0 0-.77.294 2.446 2.446 0 0 1-.336.147c-.093 0-.198-.093-.315-.28-.117-.187-.175-.327-.175-.42 0-.121.124-.252.371-.392s.576-.259.987-.357a5.47 5.47 0 0 1 1.274-.147c.868 0 1.545.194 2.03.581.485.387.728.926.728 1.617v3.136c0 .616.028 1.057.084 1.323.056.266.084.413.084.441 0 .112-.089.194-.266.245a1.78 1.78 0 0 1-.49.077c-.13 0-.226-.072-.287-.217a2.452 2.452 0 0 1-.14-.455 73.264 73.264 0 0 1-.063-.308c-.635.7-1.419 1.05-2.352 1.05zm.056-1.022c.457 0 .852-.084 1.183-.252.331-.168.67-.406 1.015-.714v-1.652c-.7.01-1.272.037-1.715.084a2.654 2.654 0 0 0-1.169.392c-.336.215-.504.546-.504.994 0 .373.1.658.301.854.2.196.497.294.889.294zm8.036 3.906c-.896 0-1.603-.14-2.121-.42-.518-.28-.777-.719-.777-1.316 0-.41.117-.765.35-1.064.233-.299.541-.527.924-.686l.014-.028a1.406 1.406 0 0 1-.56-1.148c0-.607.261-1.092.784-1.456a2.108 2.108 0 0 1-.896-.812 2.23 2.23 0 0 1-.308-1.162c0-.663.243-1.209.728-1.638.485-.43 1.162-.644 2.03-.644.299 0 .574.028.826.084h2.548c.103 0 .175.033.217.098.042.065.063.173.063.322v.168c0 .15-.021.257-.063.322-.042.065-.114.098-.217.098a9.71 9.71 0 0 1-.98-.042l-.014.028c.243.345.364.747.364 1.204 0 .672-.24 1.223-.721 1.652-.48.43-1.16.644-2.037.644-.439 0-.77.077-.994.231-.224.154-.336.399-.336.735 0 .243.077.427.231.553.154.126.348.217.581.273.233.056.56.107.98.154.205.019.36.037.462.056.672.084 1.192.24 1.561.469.369.229.553.632.553 1.211 0 .681-.27 1.204-.812 1.568-.541.364-1.335.546-2.38.546zm.154-6.734c.513 0 .922-.105 1.225-.315.303-.21.455-.553.455-1.029 0-.905-.56-1.358-1.68-1.358-1.11 0-1.666.453-1.666 1.358 0 .896.555 1.344 1.666 1.344zm0 5.782c.653 0 1.136-.084 1.449-.252a.832.832 0 0 0 .469-.784c0-.327-.154-.546-.462-.658-.308-.112-.77-.2-1.386-.266-.56-.056-.943-.117-1.148-.182-.616.261-.924.64-.924 1.134 0 .672.667 1.008 2.002 1.008zm7.028-1.932c-.719 0-1.297-.177-1.736-.532-.439-.355-.658-.877-.658-1.568 0-.737.222-1.29.665-1.659.443-.369.987-.607 1.631-.714.644-.107 1.428-.166 2.352-.175v-.658a1.09 1.09 0 0 0-.364-.847c-.243-.22-.635-.329-1.176-.329-.41 0-.77.049-1.078.147a6.143 6.143 0 0 0-.77.294 2.446 2.446 0 0 1-.336.147c-.093 0-.198-.093-.315-.28-.117-.187-.175-.327-.175-.42 0-.121.124-.252.371-.392s.576-.259.987-.357a5.47 5.47 0 0 1 1.274-.147c.868 0 1.545.194 2.03.581.485.387.728.926.728 1.617v3.136c0 .616.028 1.057.084 1.323.056.266.084.413.084.441 0 .112-.089.194-.266.245a1.78 1.78 0 0 1-.49.077c-.13 0-.226-.072-.287-.217a2.452 2.452 0 0 1-.14-.455 73.264 73.264 0 0 1-.063-.308c-.635.7-1.419 1.05-2.352 1.05zm.056-1.022c.457 0 .852-.084 1.183-.252.331-.168.67-.406 1.015-.714v-1.652c-.7.01-1.272.037-1.715.084a2.654 2.654 0 0 0-1.169.392c-.336.215-.504.546-.504.994 0 .373.1.658.301.854.2.196.497.294.889.294zm7.798 1.022c-.467 0-.884-.142-1.253-.427-.369-.285-.553-.786-.553-1.505v-4.466h-.7c-.093 0-.163-.033-.21-.098-.047-.065-.07-.173-.07-.322v-.168c0-.15.023-.257.07-.322.047-.065.117-.098.21-.098h.7l.168-1.47c.028-.205.177-.308.448-.308h.14c.28 0 .42.103.42.308v1.47h1.176c.103 0 .175.033.217.098.042.065.063.173.063.322v.168c0 .15-.021.257-.063.322-.042.065-.114.098-.217.098h-1.176v4.354c0 .392.068.663.203.812.135.15.32.224.553.224.177 0 .31-.012.399-.035a.87.87 0 0 1 .203-.035c.084 0 .154.086.21.259.056.173.084.306.084.399 0 .28-.34.42-1.022.42zm3.318-8.708c-.41 0-.616-.112-.616-.336v-.784c0-.224.224-.336.672-.336.41 0 .616.112.616.336v.784c0 .224-.224.336-.672.336zm0 8.652c-.373 0-.56-.103-.56-.308v-6.762c0-.205.187-.308.56-.308h.056c.373 0 .56.103.56.308v6.762c0 .205-.187.308-.56.308h-.056zm5.894.056c-1.055 0-1.86-.317-2.415-.952-.555-.635-.833-1.554-.833-2.758 0-1.213.28-2.147.84-2.8.56-.653 1.363-.98 2.408-.98 1.027 0 1.813.324 2.359.973s.819 1.584.819 2.807c0 1.213-.268 2.135-.805 2.765-.537.63-1.328.945-2.373.945zm-.042-1.008c.681 0 1.185-.222 1.512-.665.327-.443.49-1.132.49-2.065s-.163-1.624-.49-2.072c-.327-.448-.83-.672-1.512-.672-.681 0-1.18.222-1.498.665-.317.443-.476 1.136-.476 2.079 0 .933.159 1.622.476 2.065.317.443.817.665 1.498.665zm5.754.952c-.373 0-.56-.103-.56-.308v-4.914c0-.616-.028-1.057-.084-1.323a5.346 5.346 0 0 1-.084-.441c0-.112.089-.194.266-.245a1.78 1.78 0 0 1 .49-.077c.13 0 .226.068.287.203.06.135.107.278.14.427.033.15.054.247.063.294.299-.327.64-.583 1.022-.77.383-.187.77-.28 1.162-.28.71 0 1.267.2 1.673.602.406.401.609.957.609 1.666v4.858c0 .205-.187.308-.56.308h-.056c-.373 0-.56-.103-.56-.308v-4.746c0-.43-.124-.763-.371-1.001-.247-.238-.6-.357-1.057-.357-.317 0-.632.089-.945.266a2.767 2.767 0 0 0-.819.714v5.124c0 .205-.187.308-.56.308h-.056zM240.871 30.27a.326.326 0 0 1-.308-.182l-2.492-4.34c-.084-.14-.196-.35-.336-.63l-.056.014c.019.168.028.425.028.77v6.818c0 .205-.187.308-.56.308h-.098c-.373 0-.56-.103-.56-.308v-9.24c0-.205.187-.308.56-.308h.504c.299 0 .495.084.588.252l2.646 4.592c.168.29.29.583.364.882.075-.233.22-.541.434-.924l2.576-4.55c.093-.168.29-.252.588-.252h.462c.373 0 .56.103.56.308v9.24c0 .205-.187.308-.56.308h-.098c-.373 0-.56-.103-.56-.308v-6.734c0-.345.01-.602.028-.77l-.056-.014c-.14.28-.252.49-.336.63l-2.45 4.256a.326.326 0 0 1-.308.182h-.56zm10.36 2.814c-1.167 0-2.03-.303-2.59-.91s-.84-1.535-.84-2.786c0-1.241.275-2.184.826-2.828.55-.644 1.363-.966 2.436-.966.952 0 1.67.31 2.156.931.485.62.728 1.528.728 2.723 0 .084-.056.2-.168.35-.112.15-.21.224-.294.224h-4.424c.056.775.257 1.344.602 1.708.345.364.863.546 1.554.546.392 0 .73-.049 1.015-.147a5.16 5.16 0 0 0 .707-.294c.187-.098.294-.147.322-.147.093 0 .198.093.315.28.117.187.175.327.175.42 0 .112-.117.24-.35.385-.233.145-.544.266-.931.364-.387.098-.8.147-1.239.147zm1.47-4.27c0-1.475-.56-2.212-1.68-2.212-1.204 0-1.857.737-1.96 2.212h3.64zm5.18 4.27c-.467 0-.884-.142-1.253-.427-.369-.285-.553-.786-.553-1.505v-4.466h-.7c-.093 0-.163-.033-.21-.098-.047-.065-.07-.173-.07-.322v-.168c0-.15.023-.257.07-.322.047-.065.117-.098.21-.098h.7l.168-1.47c.028-.205.177-.308.448-.308h.14c.28 0 .42.103.42.308v1.47h1.176c.103 0 .175.033.217.098.042.065.063.173.063.322v.168c0 .15-.021.257-.063.322-.042.065-.114.098-.217.098h-1.176v4.354c0 .392.068.663.203.812.135.15.32.224.553.224.177 0 .31-.012.399-.035a.87.87 0 0 1 .203-.035c.084 0 .154.086.21.259.056.173.084.306.084.399 0 .28-.34.42-1.022.42zm3.304-.056c-.373 0-.56-.103-.56-.308v-4.914c0-.616-.028-1.057-.084-1.323a5.346 5.346 0 0 1-.084-.441c0-.112.089-.194.266-.245a1.78 1.78 0 0 1 .49-.077c.13 0 .226.068.287.203.06.135.107.278.14.427.033.15.054.247.063.294.495-.7 1.036-1.05 1.624-1.05.261 0 .462.051.602.154.14.103.21.233.21.392s-.028.324-.084.497c-.056.173-.121.259-.196.259a.991.991 0 0 1-.273-.077 1.408 1.408 0 0 0-.497-.077c-.215 0-.418.063-.609.189a2.363 2.363 0 0 0-.483.413c-.13.15-.196.233-.196.252v5.124c0 .205-.187.308-.56.308h-.056zm5.138-8.652c-.41 0-.616-.112-.616-.336v-.784c0-.224.224-.336.672-.336.41 0 .616.112.616.336v.784c0 .224-.224.336-.672.336zm0 8.652c-.373 0-.56-.103-.56-.308v-6.762c0-.205.187-.308.56-.308h.056c.373 0 .56.103.56.308v6.762c0 .205-.187.308-.56.308h-.056zm6.048.056c-1.157 0-2.02-.299-2.59-.896-.57-.597-.854-1.559-.854-2.884 0-1.335.317-2.287.952-2.856.635-.57 1.423-.854 2.366-.854.541 0 1.027.065 1.456.196.43.13.644.28.644.448 0 .121-.054.278-.161.469-.107.191-.203.287-.287.287a.126.126 0 0 1-.063-.021.337.337 0 0 0-.091-.035 3.727 3.727 0 0 0-1.526-.336c-1.353 0-2.03.891-2.03 2.674 0 .99.166 1.703.497 2.142.331.439.889.658 1.673.658a3.48 3.48 0 0 0 1.582-.364l.154-.056c.093 0 .196.091.308.273.112.182.168.329.168.441 0 .112-.1.222-.301.329-.2.107-.469.198-.805.273a5.01 5.01 0 0 1-1.092.112zm5.334.042c-.401 0-.772-.049-1.113-.147-.34-.098-.611-.217-.812-.357-.2-.14-.301-.266-.301-.378 0-.093.058-.233.175-.42.117-.187.222-.28.315-.28.019 0 .107.051.266.154.159.103.357.196.595.28.238.084.502.126.791.126.915 0 1.372-.378 1.372-1.134 0-.317-.103-.57-.308-.756-.205-.187-.57-.355-1.092-.504-.737-.215-1.246-.483-1.526-.805-.28-.322-.42-.754-.42-1.295 0-.392.1-.742.301-1.05.2-.308.476-.548.826-.721a2.67 2.67 0 0 1 1.197-.259c.476 0 .903.06 1.281.182.378.121.567.261.567.42 0 .121-.054.278-.161.469-.107.191-.203.287-.287.287a5.553 5.553 0 0 1-.371-.189c-.22-.117-.52-.175-.903-.175-.355 0-.651.08-.889.238a.738.738 0 0 0-.357.644c0 .317.084.57.252.756.168.187.448.34.84.462.597.187 1.052.371 1.365.553.313.182.537.406.672.672s.203.614.203 1.043c0 .41-.11.782-.329 1.113a2.29 2.29 0 0 1-.896.784 2.734 2.734 0 0 1-1.253.287zm178.601 112.958c-1.54 0-2.676-.404-3.409-1.211-.733-.807-1.099-2.065-1.099-3.773 0-3.323 1.512-4.984 4.536-4.984.457 0 .898.049 1.323.147.425.098.763.217 1.015.357.224.13.336.252.336.364 0 .13-.058.299-.175.504-.117.205-.217.308-.301.308-.028 0-.147-.058-.357-.175a3.724 3.724 0 0 0-1.813-.441c-1.13 0-1.96.313-2.492.938s-.798 1.624-.798 2.996c0 1.344.264 2.331.791 2.961.527.63 1.342.945 2.443.945.457 0 .85-.054 1.176-.161a6.14 6.14 0 0 0 .966-.413c.13-.084.22-.126.266-.126.084 0 .187.103.308.308.121.205.182.355.182.448 0 .14-.15.294-.448.462-.28.159-.635.29-1.064.392-.43.103-.891.154-1.386.154zm5.138-.084c-.15 0-.257-.033-.322-.098s-.098-.173-.098-.322v-8.96c0-.15.033-.257.098-.322s.173-.098.322-.098h2.828c1.307 0 2.354.39 3.143 1.169.789.78 1.183 2.023 1.183 3.731 0 1.717-.394 2.963-1.183 3.738-.789.775-1.836 1.162-3.143 1.162h-2.828zm2.73-1.064c.943 0 1.703-.308 2.282-.924.579-.616.868-1.587.868-2.912 0-1.316-.29-2.284-.868-2.905-.579-.62-1.34-.931-2.282-.931h-1.918v7.672h1.918zm7.14 1.092c-.373 0-.56-.103-.56-.308v-9.24c0-.205.187-.308.56-.308h.112c.373 0 .56.103.56.308v9.24c0 .205-.187.308-.56.308h-.112z" fill="#313653" fill-rule="nonzero"/><rect stroke="#FFF" stroke-width="2" fill="#E6EDA8" x="1" y="1" width="102" height="56" rx="10"/><path d="M16.11 34.084c-1.4 0-2.469-.427-3.206-1.281-.737-.854-1.106-2.098-1.106-3.731s.366-2.868 1.099-3.703 1.804-1.253 3.213-1.253c1.41 0 2.483.418 3.22 1.253.737.835 1.106 2.07 1.106 3.703s-.369 2.877-1.106 3.731c-.737.854-1.81 1.281-3.22 1.281zm0-1.064c.99 0 1.745-.336 2.268-1.008.523-.672.784-1.652.784-2.94 0-1.279-.261-2.247-.784-2.905-.523-.658-1.279-.987-2.268-.987-.99 0-1.743.329-2.261.987-.518.658-.777 1.626-.777 2.905 0 1.288.259 2.268.777 2.94.518.672 1.272 1.008 2.261 1.008zm6.888 3.892c-.373 0-.56-.103-.56-.308v-7.798c0-.616-.028-1.057-.084-1.323a5.346 5.346 0 0 1-.084-.441c0-.112.089-.194.266-.245a1.78 1.78 0 0 1 .49-.077c.13 0 .226.068.287.203.06.135.107.278.14.427.033.15.054.247.063.294.672-.7 1.414-1.05 2.226-1.05.57 0 1.057.161 1.463.483.406.322.716.765.931 1.33.215.565.322 1.211.322 1.939 0 .793-.119 1.47-.357 2.03-.238.56-.572.985-1.001 1.274a2.59 2.59 0 0 1-1.484.434c-.41 0-.772-.06-1.085-.182a3.622 3.622 0 0 1-.917-.532v3.234c0 .205-.187.308-.56.308h-.056zm2.352-3.864c.616 0 1.083-.224 1.4-.672.317-.448.476-1.092.476-1.932 0-.905-.15-1.603-.448-2.093-.299-.49-.723-.735-1.274-.735-.317 0-.642.084-.973.252a3.195 3.195 0 0 0-.917.714v3.836c.504.42 1.083.63 1.736.63zm8.106 1.036c-1.167 0-2.03-.303-2.59-.91s-.84-1.535-.84-2.786c0-1.241.275-2.184.826-2.828.55-.644 1.363-.966 2.436-.966.952 0 1.67.31 2.156.931.485.62.728 1.528.728 2.723 0 .084-.056.2-.168.35-.112.15-.21.224-.294.224h-4.424c.056.775.257 1.344.602 1.708.345.364.863.546 1.554.546.392 0 .73-.049 1.015-.147a5.16 5.16 0 0 0 .707-.294c.187-.098.294-.147.322-.147.093 0 .198.093.315.28.117.187.175.327.175.42 0 .112-.117.24-.35.385-.233.145-.544.266-.931.364-.387.098-.8.147-1.239.147zm1.47-4.27c0-1.475-.56-2.212-1.68-2.212-1.204 0-1.857.737-1.96 2.212h3.64zm3.64 4.214c-.373 0-.56-.103-.56-.308v-4.914c0-.616-.028-1.057-.084-1.323a5.346 5.346 0 0 1-.084-.441c0-.112.089-.194.266-.245a1.78 1.78 0 0 1 .49-.077c.13 0 .226.068.287.203.06.135.107.278.14.427.033.15.054.247.063.294.299-.327.64-.583 1.022-.77.383-.187.77-.28 1.162-.28.71 0 1.267.2 1.673.602.406.401.609.957.609 1.666v4.858c0 .205-.187.308-.56.308h-.056c-.373 0-.56-.103-.56-.308v-4.746c0-.43-.124-.763-.371-1.001-.247-.238-.6-.357-1.057-.357-.317 0-.632.089-.945.266a2.767 2.767 0 0 0-.819.714v5.124c0 .205-.187.308-.56.308h-.056zm9.842 0c-.373 0-.56-.103-.56-.308v-8.456H45.16c-.093 0-.163-.033-.21-.098-.047-.065-.07-.173-.07-.322v-.224c0-.15.023-.257.07-.322.047-.065.117-.098.21-.098h6.566c.103 0 .175.033.217.098.042.065.063.173.063.322v.224c0 .15-.021.257-.063.322-.042.065-.114.098-.217.098H49.08v8.456c0 .205-.187.308-.56.308h-.112zm5.698 0c-.373 0-.56-.103-.56-.308v-4.914c0-.616-.028-1.057-.084-1.323a5.346 5.346 0 0 1-.084-.441c0-.112.089-.194.266-.245a1.78 1.78 0 0 1 .49-.077c.13 0 .226.068.287.203.06.135.107.278.14.427.033.15.054.247.063.294.495-.7 1.036-1.05 1.624-1.05.261 0 .462.051.602.154.14.103.21.233.21.392s-.028.324-.084.497c-.056.173-.121.259-.196.259a.991.991 0 0 1-.273-.077 1.408 1.408 0 0 0-.497-.077c-.215 0-.418.063-.609.189a2.363 2.363 0 0 0-.483.413c-.13.15-.196.233-.196.252v5.124c0 .205-.187.308-.56.308h-.056zm6.384.056c-.719 0-1.297-.177-1.736-.532-.439-.355-.658-.877-.658-1.568 0-.737.222-1.29.665-1.659.443-.369.987-.607 1.631-.714.644-.107 1.428-.166 2.352-.175v-.658a1.09 1.09 0 0 0-.364-.847c-.243-.22-.635-.329-1.176-.329-.41 0-.77.049-1.078.147a6.143 6.143 0 0 0-.77.294 2.446 2.446 0 0 1-.336.147c-.093 0-.198-.093-.315-.28-.117-.187-.175-.327-.175-.42 0-.121.124-.252.371-.392s.576-.259.987-.357a5.47 5.47 0 0 1 1.274-.147c.868 0 1.545.194 2.03.581.485.387.728.926.728 1.617v3.136c0 .616.028 1.057.084 1.323.056.266.084.413.084.441 0 .112-.089.194-.266.245a1.78 1.78 0 0 1-.49.077c-.13 0-.226-.072-.287-.217a2.452 2.452 0 0 1-.14-.455 73.368 73.368 0 0 1-.063-.308c-.635.7-1.419 1.05-2.352 1.05zm.056-1.022c.457 0 .852-.084 1.183-.252.331-.168.67-.406 1.015-.714v-1.652c-.7.01-1.272.037-1.715.084a2.654 2.654 0 0 0-1.169.392c-.336.215-.504.546-.504.994 0 .373.1.658.301.854.2.196.497.294.889.294zm8.666 1.022c-1.157 0-2.02-.299-2.59-.896-.57-.597-.854-1.559-.854-2.884 0-1.335.317-2.287.952-2.856.635-.57 1.423-.854 2.366-.854.541 0 1.027.065 1.456.196.43.13.644.28.644.448 0 .121-.054.278-.161.469-.107.191-.203.287-.287.287a.126.126 0 0 1-.063-.021.337.337 0 0 0-.091-.035 3.727 3.727 0 0 0-1.526-.336c-1.353 0-2.03.891-2.03 2.674 0 .99.166 1.703.497 2.142.331.439.889.658 1.673.658a3.48 3.48 0 0 0 1.582-.364l.154-.056c.093 0 .196.091.308.273.112.182.168.329.168.441 0 .112-.1.222-.301.329-.2.107-.469.198-.805.273a5.01 5.01 0 0 1-1.092.112zm4.452-8.708c-.41 0-.616-.112-.616-.336v-.784c0-.224.224-.336.672-.336.41 0 .616.112.616.336v.784c0 .224-.224.336-.672.336zm0 8.652c-.373 0-.56-.103-.56-.308v-6.762c0-.205.187-.308.56-.308h.056c.373 0 .56.103.56.308v6.762c0 .205-.187.308-.56.308h-.056zm3.64 0c-.373 0-.56-.103-.56-.308v-4.914c0-.616-.028-1.057-.084-1.323a5.346 5.346 0 0 1-.084-.441c0-.112.089-.194.266-.245a1.78 1.78 0 0 1 .49-.077c.13 0 .226.068.287.203.06.135.107.278.14.427.033.15.054.247.063.294.299-.327.64-.583 1.022-.77.383-.187.77-.28 1.162-.28.71 0 1.267.2 1.673.602.406.401.609.957.609 1.666v4.858c0 .205-.187.308-.56.308h-.056c-.373 0-.56-.103-.56-.308v-4.746c0-.43-.124-.763-.371-1.001-.247-.238-.6-.357-1.057-.357-.317 0-.632.089-.945.266a2.767 2.767 0 0 0-.819.714v5.124c0 .205-.187.308-.56.308h-.056zm9.576 2.94c-.896 0-1.603-.14-2.121-.42-.518-.28-.777-.719-.777-1.316 0-.41.117-.765.35-1.064.233-.299.541-.527.924-.686l.014-.028a1.406 1.406 0 0 1-.56-1.148c0-.607.261-1.092.784-1.456a2.108 2.108 0 0 1-.896-.812 2.23 2.23 0 0 1-.308-1.162c0-.663.243-1.209.728-1.638.485-.43 1.162-.644 2.03-.644.299 0 .574.028.826.084h2.548c.103 0 .175.033.217.098.042.065.063.173.063.322v.168c0 .15-.021.257-.063.322-.042.065-.114.098-.217.098a9.71 9.71 0 0 1-.98-.042l-.014.028c.243.345.364.747.364 1.204 0 .672-.24 1.223-.721 1.652-.48.43-1.16.644-2.037.644-.439 0-.77.077-.994.231-.224.154-.336.399-.336.735 0 .243.077.427.231.553.154.126.348.217.581.273.233.056.56.107.98.154.205.019.36.037.462.056.672.084 1.192.24 1.561.469.369.229.553.632.553 1.211 0 .681-.27 1.204-.812 1.568-.541.364-1.335.546-2.38.546zm.154-6.734c.513 0 .922-.105 1.225-.315.303-.21.455-.553.455-1.029 0-.905-.56-1.358-1.68-1.358-1.11 0-1.666.453-1.666 1.358 0 .896.555 1.344 1.666 1.344zm0 5.782c.653 0 1.136-.084 1.449-.252a.832.832 0 0 0 .469-.784c0-.327-.154-.546-.462-.658-.308-.112-.77-.2-1.386-.266-.56-.056-.943-.117-1.148-.182-.616.261-.924.64-.924 1.134 0 .672.667 1.008 2.002 1.008z" fill="#313653" fill-rule="nonzero"/></g></svg>