<?xml version="1.0" encoding="utf-8"?>
<!-- Generator: Adobe Illustrator 19.1.0, SVG Export Plug-In . SVG Version: 6.00 Build 0)  -->
<svg version="1.1" id="Layer_1" xmlns="http://www.w3.org/2000/svg" xmlns:xlink="http://www.w3.org/1999/xlink" x="0px" y="0px"
	 viewBox="0 0 502.5 101.1" style="enable-background:new 0 0 502.5 101.1;" xml:space="preserve">
<style type="text/css">
	.st0{fill:#15162A;}
	.st1{opacity:0.46;fill:#CEDADA;}
	.st2{fill:#71B700;stroke:#FFFFFF;stroke-linecap:round;stroke-linejoin:round;stroke-miterlimit:10;}
	.st3{fill:#15162A;stroke:#FFFFFF;stroke-linecap:round;stroke-linejoin:round;stroke-miterlimit:10;}
	.st4{fill:#71B700;stroke:#FFFFFF;stroke-width:2;stroke-linecap:round;stroke-linejoin:round;stroke-miterlimit:10;}
	.st5{fill:#15162A;stroke:#FFFFFF;stroke-width:2;stroke-linecap:round;stroke-linejoin:round;stroke-miterlimit:10;}
	.st6{fill:#515A5A;}
	.st7{fill:#71B700;stroke:#FFFFFF;stroke-width:4.5706;stroke-linecap:round;stroke-linejoin:round;stroke-miterlimit:10;}
	.st8{fill:#515A5A;stroke:#FFFFFF;stroke-width:4.5706;stroke-linecap:round;stroke-linejoin:round;stroke-miterlimit:10;}
	.st9{fill:#FFFFFF;}
	.st10{opacity:0.64;}
	.st11{fill:#1A1B31;}
	.st12{fill:#96BC32;}
	.st13{fill:#404041;}
	.st14{fill:none;stroke:#404041;stroke-width:2.8637;stroke-linecap:round;stroke-linejoin:round;stroke-miterlimit:10;}
	.st15{fill:#FFFFFF;stroke:#404041;stroke-width:3.0049;stroke-miterlimit:10;}
	.st16{fill:#FFFFFF;stroke:#404041;stroke-width:1.5024;stroke-linecap:round;stroke-miterlimit:10;}
	.st17{fill:none;stroke:#404041;stroke-width:3.8279;stroke-linecap:round;stroke-linejoin:round;stroke-miterlimit:10;}
	.st18{fill:#FFFFFF;stroke:#404041;stroke-width:3.8279;stroke-miterlimit:10;}
	.st19{fill:#FFFFFF;stroke:#404041;stroke-width:1.276;stroke-linecap:round;stroke-miterlimit:10;}
	.st20{fill:none;stroke:#404041;stroke-width:2.5519;stroke-linecap:round;stroke-linejoin:round;stroke-miterlimit:10;}
	.st21{fill:#FFFFFF;stroke:#404041;stroke-width:2.5519;stroke-miterlimit:10;}
	.st22{fill:#FFFFFF;stroke:#404041;stroke-width:1.6789;stroke-linecap:round;stroke-miterlimit:10;}
	.st23{fill:#241F20;}
	.st24{fill:none;stroke:#241F20;stroke-width:2.1304;stroke-linecap:round;stroke-linejoin:round;stroke-miterlimit:10;}
	.st25{fill:none;stroke:#241F20;stroke-width:1.0435;stroke-linecap:round;stroke-linejoin:round;stroke-miterlimit:10;}
	.st26{opacity:0.1;}
</style>
<g>
	<path class="st9" d="M0,21.8C0,7.5,6.5,1.8,21.8,1.8h1.1C38.1,1.8,44,7.6,44,21.8v36.6c0,14.3-6.5,19.9-21.8,19.9h-1.1
		C5.9,78.3,0,72.7,0,58.4V21.8z M22.1,68.2c8.4,0,10-3.4,10-10.3V21.7c0-6.9-1-10.3-9.4-10.3h-1c-8.4,0-9.9,3.4-9.9,10.3v36.3
		c0,6.9,1,10.3,9.4,10.3H22.1z"/>
	<path class="st9" d="M55.5,39.6c0-14,8.8-17.1,20.3-17.1h1.1c11.2,0,19.6,3.6,19.6,17.4v20.9c0,14.3-9.2,17.5-18,17.5h-0.3
		c-3.8,0-8.7-0.7-11.1-2.8c0,0,0.3,3.8,0.3,7.4v15.9c0,1.7-0.7,2.1-2.4,2l-7.3-0.7c-1.5-0.1-2-0.8-2-2.3V39.6z M76.2,68.5
		c5.5,0,8.6-2.2,8.6-8.4V39.9c0-6-2.5-8.3-8.1-8.3h-1c-5.5,0-8.5,1.9-8.5,8v20.8c0,6,2.5,8.2,8.1,8.2H76.2z"/>
	<path class="st9" d="M107.2,40.2c0-12.3,6.8-17.7,20.6-17.7h1.2c12.6,0,18.6,5.3,18.6,15.5v1.6c0,10.7-5,14.1-16.8,14.1
		c-3.7,0-8-0.5-12-1.5v7.1c0,7.1,2.4,9.2,10.7,9.2c6.3,0,10.1-0.8,13.9-1.9c1.5-0.4,2.2,0.4,2.1,1.8l-0.5,5c-0.2,1.6-1,2.1-2.4,2.8
		c-2,0.7-8.1,1.8-14.3,1.8h-0.7c-11.9,0-20.3-3.6-20.3-17.5V40.2z M118.7,44.2c2.3,0.6,7.1,1.3,10.6,1.3c5.5,0,7-2.1,7-6v-1.2
		c0-4.6-1.7-6.9-8.1-6.9h-0.6c-6.5,0-8.9,2.2-8.9,8.2V44.2z"/>
	<path class="st9" d="M157.2,29c0-1.6,0.6-2.3,2.1-3c3.4-1.5,10.5-3.2,18.5-3.2c11.6,0,19.2,3.6,19.2,17.6v34.5
		c0,1.6-0.5,2.1-2.1,2.1h-7.5c-1.6,0-2.1-0.5-2.1-2.1V40.6c0-6.2-1.8-8.6-8.2-8.6c-2.7,0-5.9,0.3-8,1.2v41.8c0,1.6-0.6,2.1-2.1,2.1
		h-7.6c-1.6,0-2.1-0.5-2.1-2.1V29z"/>
	<path class="st9" d="M226.3,3.1c0-1.6,0.5-2.2,2-2.4L236,0c1.6-0.2,2.1,0.3,2.1,1.9v59.7c0,7.4,9.8,4.5,14,4.5
		c0.8,0,2.5-0.2,3.2-0.2c1.3,0,1.8,0.3,1.7,2l-0.6,7.1c-0.1,1.6-0.6,2-2.1,2.3c-0.8,0.1-11.5,0.3-13.8,0.3
		c-8.3,0-14.1-2.3-14.1-15.5V3.1z"/>
	<path class="st9" d="M265,5.2c0-1.6,0.5-2.1,2.1-2.1h8.7c1.6,0,2.1,0.5,2.1,2.1v6.7c0,1.6-0.6,2.1-2.1,2.1h-8.7
		c-1.6,0-2.1-0.5-2.1-2.1V5.2z M265.5,26.4c0-1.6,0.6-2.1,2-2.3l7.6-0.6c1.6-0.2,2.2,0.4,2.2,2v49.4c0,1.6-0.6,2.1-2.1,2.1h-7.6
		c-1.6,0-2.1-0.5-2.1-2.1V26.4z"/>
	<path class="st9" d="M289.5,3.1c0-1.7,0.5-2.2,2-2.4L299,0c1.6,0,2.2,0.3,2.2,1.9v16.1c0,3.6-0.3,7.4-0.3,7.4c2.3-1.7,6.1-3,11.3-3
		h0.3c9,0,17.8,3.2,17.8,17.5v20.9c0,13.9-9,17.4-20.3,17.4h-1c-11.8,0-19.7-3-19.7-16.1V3.1z M310.1,68.5c5.5,0,8.5-2.2,8.5-8.3
		V39.8c0-6-2.5-8.2-8-8.2H310c-5.8,0-8.8,2.1-8.8,8.2v20.8c0,6.2,2.4,8,8,8H310.1z"/>
	<path class="st9" d="M341,40.2c0-12.3,6.8-17.7,20.6-17.7h1.2c12.6,0,18.6,5.3,18.6,15.5v1.6c0,10.7-5,14.1-16.8,14.1
		c-3.7,0-8-0.5-12-1.5v7.1c0,7.1,2.4,9.2,10.7,9.2c6.3,0,10.1-0.8,13.9-1.9c1.5-0.4,2.2,0.4,2.1,1.8l-0.5,5c-0.2,1.6-1,2.1-2.4,2.8
		c-2,0.7-8.1,1.8-14.3,1.8h-0.7c-11.9,0-20.3-3.6-20.3-17.5V40.2z M352.6,44.2c2.3,0.6,7.1,1.3,10.6,1.3c5.5,0,7-2.1,7-6v-1.2
		c0-4.6-1.7-6.9-8.1-6.9h-0.6c-6.5,0-8.9,2.2-8.9,8.2V44.2z"/>
	<path class="st9" d="M451.5,67.5c-1.5,0.1-3.3,0.4-5.6,0.4c-5.5,0-6.7-0.7-6.7-5.9V32.4h11.5c1.7,0,2.1-0.3,2-2l-0.5-4.6
		c-0.1-1.7-0.6-2-2.2-2h-10.7V10.9c0-1.7-0.6-2.1-2.1-2l-7.5,0.7c-1.6,0.1-2,0.7-2,2.2v12v8.6V62c0,13,5.8,15.7,16.4,15.7
		c3.3,0,4.9-0.2,6.6-0.6c1.6-0.2,2-1.2,2.1-2.5l0.6-5.2C453.4,67.9,452.6,67.5,451.5,67.5z"/>
	<path class="st9" d="M474.5,93.1c-0.1-1.7,0.3-2.2,1.8-2c0.8,0.1,5,0.4,5.9,0.4c4.1,0,8.9-0.3,8.9-7.3V74c-2.3,2.4-7,3.1-10.4,3.1
		h-0.2c-10,0-17.8-3.6-17.8-17.4V26.4c0-1.6,0.5-2.1,2-2.3l7.6-0.6c1.6,0,2.2,0.4,2.2,2V59c0,5.9,1.9,8.3,7.7,8.3h0.3
		c5.6,0,8.1-2.2,8.1-7.7v-34c0-1.6,0.6-2,2.2-2l7.5,0.6c1.5,0.2,2,0.7,2,2.3v57.3c0,14.6-8.8,17.4-18.8,17.4c-3.1,0-5.9-0.4-7-0.6
		c-1-0.3-1.5-0.7-1.6-2.2L474.5,93.1z"/>
	<path class="st9" d="M390.7,39.2c0-13.4,6.4-16.3,17.1-16.3c3.3,0,6.2,0.3,8,0.7c1.4,0.4,2,1.1,2.1,2.4l0.4,6.2
		c0.1,1.4-0.5,2-1.9,1.7c-2.9-0.5-5.5-0.6-7-0.6c-3.6,0-6.8,0.4-6.8,6.5v35.2c0,1.6-0.6,2.1-2.1,2.1h-7.6c-1.6,0-2.1-0.5-2.1-2.1
		V39.2z"/>
</g>
</svg>
