<svg id="Layer_1" xmlns="http://www.w3.org/2000/svg" viewBox="0 0 502.5 101.1"><style/><path d="M0 21.8c0-14.3 6.5-20 21.8-20h1.1c15.2 0 21.1 5.8 21.1 20v36.6c0 14.3-6.5 19.9-21.8 19.9h-1.1C5.9 78.3 0 72.7 0 58.4V21.8zm22.1 46.4c8.4 0 10-3.4 10-10.3V21.7c0-6.9-1-10.3-9.4-10.3h-1c-8.4 0-9.9 3.4-9.9 10.3V58c0 6.9 1 10.3 9.4 10.3h.9zm33.4-28.6c0-14 8.8-17.1 20.3-17.1h1.1c11.2 0 19.6 3.6 19.6 17.4v20.9c0 14.3-9.2 17.5-18 17.5h-.3c-3.8 0-8.7-.7-11.1-2.8 0 0 .3 3.8.3 7.4v15.9c0 1.7-.7 2.1-2.4 2l-7.3-.7c-1.5-.1-2-.8-2-2.3V39.6zm20.7 28.9c5.5 0 8.6-2.2 8.6-8.4V39.9c0-6-2.5-8.3-8.1-8.3h-1c-5.5 0-8.5 1.9-8.5 8v20.8c0 6 2.5 8.2 8.1 8.2h.9zm31-28.3c0-12.3 6.8-17.7 20.6-17.7h1.2c12.6 0 18.6 5.3 18.6 15.5v1.6c0 10.7-5 14.1-16.8 14.1-3.7 0-8-.5-12-1.5v7.1c0 7.1 2.4 9.2 10.7 9.2 6.3 0 10.1-.8 13.9-1.9 1.5-.4 2.2.4 2.1 1.8l-.5 5c-.2 1.6-1 2.1-2.4 2.8-2 .7-8.1 1.8-14.3 1.8h-.7c-11.9 0-20.3-3.6-20.3-17.5V40.2zm11.5 4c2.3.6 7.1 1.3 10.6 1.3 5.5 0 7-2.1 7-6v-1.2c0-4.6-1.7-6.9-8.1-6.9h-.6c-6.5 0-8.9 2.2-8.9 8.2v4.6zM157.2 29c0-1.6.6-2.3 2.1-3 3.4-1.5 10.5-3.2 18.5-3.2 11.6 0 19.2 3.6 19.2 17.6v34.5c0 1.6-.5 2.1-2.1 2.1h-7.5c-1.6 0-2.1-.5-2.1-2.1V40.6c0-6.2-1.8-8.6-8.2-8.6-2.7 0-5.9.3-8 1.2V75c0 1.6-.6 2.1-2.1 2.1h-7.6c-1.6 0-2.1-.5-2.1-2.1V29zm69.1-25.9c0-1.6.5-2.2 2-2.4L236 0c1.6-.2 2.1.3 2.1 1.9v59.7c0 7.4 9.8 4.5 14 4.5.8 0 2.5-.2 3.2-.2 1.3 0 1.8.3 1.7 2l-.6 7.1c-.1 1.6-.6 2-2.1 2.3-.8.1-11.5.3-13.8.3-8.3 0-14.1-2.3-14.1-15.5v-59zM265 5.2c0-1.6.5-2.1 2.1-2.1h8.7c1.6 0 2.1.5 2.1 2.1v6.7c0 1.6-.6 2.1-2.1 2.1h-8.7c-1.6 0-2.1-.5-2.1-2.1V5.2zm.5 21.2c0-1.6.6-2.1 2-2.3l7.6-.6c1.6-.2 2.2.4 2.2 2v49.4c0 1.6-.6 2.1-2.1 2.1h-7.6c-1.6 0-2.1-.5-2.1-2.1V26.4zm24-23.3c0-1.7.5-2.2 2-2.4L299 0c1.6 0 2.2.3 2.2 1.9V18c0 3.6-.3 7.4-.3 7.4 2.3-1.7 6.1-3 11.3-3h.3c9 0 17.8 3.2 17.8 17.5v20.9c0 13.9-9 17.4-20.3 17.4h-1c-11.8 0-19.7-3-19.7-16.1v-59zm20.6 65.4c5.5 0 8.5-2.2 8.5-8.3V39.8c0-6-2.5-8.2-8-8.2h-.6c-5.8 0-8.8 2.1-8.8 8.2v20.8c0 6.2 2.4 8 8 8h.9zM341 40.2c0-12.3 6.8-17.7 20.6-17.7h1.2c12.6 0 18.6 5.3 18.6 15.5v1.6c0 10.7-5 14.1-16.8 14.1-3.7 0-8-.5-12-1.5v7.1c0 7.1 2.4 9.2 10.7 9.2 6.3 0 10.1-.8 13.9-1.9 1.5-.4 2.2.4 2.1 1.8l-.5 5c-.2 1.6-1 2.1-2.4 2.8-2 .7-8.1 1.8-14.3 1.8h-.7c-11.9 0-20.3-3.6-20.3-17.5V40.2zm11.6 4c2.3.6 7.1 1.3 10.6 1.3 5.5 0 7-2.1 7-6v-1.2c0-4.6-1.7-6.9-8.1-6.9h-.6c-6.5 0-8.9 2.2-8.9 8.2v4.6zm98.9 23.3c-1.5.1-3.3.4-5.6.4-5.5 0-6.7-.7-6.7-5.9V32.4h11.5c1.7 0 2.1-.3 2-2l-.5-4.6c-.1-1.7-.6-2-2.2-2h-10.7V10.9c0-1.7-.6-2.1-2.1-2l-7.5.7c-1.6.1-2 .7-2 2.2V62c0 13 5.8 15.7 16.4 15.7 3.3 0 4.9-.2 6.6-.6 1.6-.2 2-1.2 2.1-2.5l.6-5.2c0-1.5-.8-1.9-1.9-1.9zm23 25.6c-.1-1.7.3-2.2 1.8-2 .8.1 5 .4 5.9.4 4.1 0 8.9-.3 8.9-7.3V74c-2.3 2.4-7 3.1-10.4 3.1h-.2c-10 0-17.8-3.6-17.8-17.4V26.4c0-1.6.5-2.1 2-2.3l7.6-.6c1.6 0 2.2.4 2.2 2V59c0 5.9 1.9 8.3 7.7 8.3h.3c5.6 0 8.1-2.2 8.1-7.7v-34c0-1.6.6-2 2.2-2l7.5.6c1.5.2 2 .7 2 2.3v57.3c0 14.6-8.8 17.4-18.8 17.4-3.1 0-5.9-.4-7-.6-1-.3-1.5-.7-1.6-2.2l-.4-5.3zm-83.8-53.9c0-13.4 6.4-16.3 17.1-16.3 3.3 0 6.2.3 8 .7 1.4.4 2 1.1 2.1 2.4l.4 6.2c.1 1.4-.5 2-1.9 1.7-2.9-.5-5.5-.6-7-.6-3.6 0-6.8.4-6.8 6.5V75c0 1.6-.6 2.1-2.1 2.1h-7.6c-1.6 0-2.1-.5-2.1-2.1V39.2z" fill="#fff"/></svg>