<?xml version="1.0" encoding="UTF-8"?>
<svg width="27px" height="27px" viewBox="0 0 27 27" version="1.1" xmlns="http://www.w3.org/2000/svg" xmlns:xlink="http://www.w3.org/1999/xlink">
    <!-- Generator: Sketch 52.5 (67469) - http://www.bohemiancoding.com/sketch -->
    <title>Group 5</title>
    <desc>Created with Sketch.</desc>
    <g id="v1_Navigation" stroke="none" stroke-width="1" fill="none" fill-rule="evenodd">
        <g id="Docs_Mobile-Start" transform="translate(-42.000000, -385.000000)" fill="#FFFFFF" fill-rule="nonzero">
            <g id="Group-5" transform="translate(42.000000, 385.000000)">
                <path d="M10.5,0 C4.70137501,0 0,4.70137501 0,10.5 C0,16.2973125 4.70137501,21 10.5,21 C16.298625,21 21,16.2973125 21,10.5 C21,4.70137501 16.298625,0 10.5,0 M10.5,2.625 C14.8430625,2.625 18.375,6.1569375 18.375,10.5 C18.375,14.8430625 14.8430625,18.375 10.5,18.375 C6.1569375,18.375 2.625,14.8430625 2.625,10.5 C2.625,6.1569375 6.1569375,2.625 10.5,2.625" id="Fill-5-Copy"></path>
                <polygon id="Fill-7-Copy" points="22 19 19 22 24.0000001 27 27 24.0000001"></polygon>
            </g>
        </g>
    </g>
</svg>