<?xml version="1.0" encoding="UTF-8"?>
<svg width="12px" height="12px" viewBox="0 0 12 12" version="1.1" xmlns="http://www.w3.org/2000/svg" xmlns:xlink="http://www.w3.org/1999/xlink">
    <!-- Generator: Sketch 50.2 (55047) - http://www.bohemiancoding.com/sketch -->
    <title>Fill 1</title>
    <desc>Created with Sketch.</desc>
    <defs></defs>
    <g id="Finals" stroke="none" stroke-width="1" fill="none" fill-rule="evenodd">
        <g id="Mobile-Copy-5" transform="translate(-291.000000, -17.000000)" fill="#FFFFFF">
            <path d="M292.271638,17.0165912 C292.460549,16.9853949 292.632996,17.0477875 292.789844,17.2046356 L297.007411,21.4222032 L301.201582,17.2288994 C301.374028,17.0555866 301.550807,16.9897277 301.731919,17.0287231 C301.912164,17.0677185 302.128805,17.2133013 302.379242,17.4646049 L302.544756,17.6292521 C302.79606,17.8805556 302.941642,18.0963301 302.980638,18.277442 C303.019633,18.4576873 302.952908,18.6344664 302.780462,18.8069127 L298.586291,23.001083 L302.803859,27.2186506 C302.960707,27.3763652 303.023966,27.5488115 302.991903,27.7368559 C302.960707,27.9257669 302.819457,28.1458742 302.568153,28.3971778 L302.403506,28.561825 C302.151336,28.8131286 301.931229,28.9543785 301.743184,28.9855748 C301.55514,29.0176377 301.382694,28.9543785 301.224979,28.7975304 L297.007411,24.5799628 L292.789844,28.7975304 C292.616531,28.9708432 292.45275,29.048834 292.295036,29.0332358 C292.138188,29.0176377 291.941478,28.8919859 291.705772,28.6562805 L291.541125,28.4907667 C291.007321,27.9569632 290.897268,27.5332134 291.210964,27.2186506 L295.428532,23.001083 L291.210964,18.7835155 C291.038518,18.6110692 290.971792,18.4342901 291.010788,18.2531782 C291.049783,18.0729329 291.195366,17.8571584 291.446669,17.6058548 L291.612183,17.4403411 C291.86262,17.189904 292.082727,17.0486541 292.271638,17.0165912" id="Fill-1"></path>
        </g>
    </g>
</svg>