<svg width="505" height="365" xmlns="http://www.w3.org/2000/svg" xmlns:xlink="http://www.w3.org/1999/xlink"><defs><radialGradient cy="40.642%" fx="50%" fy="40.642%" r="48.245%" gradientTransform="matrix(-.9421 -.2924 .28806 -.9563 .854 .941)" id="b"><stop stop-color="#FCFFE0" offset="0%"/><stop stop-color="#F8FFBE" offset="100%"/></radialGradient><ellipse id="a" cx="168.5" cy="166" rx="168.5" ry="166"/><linearGradient x1="100%" y1="42.956%" x2="15.538%" y2="57.147%" id="c"><stop stop-color="#E6EEA4" offset="0%"/><stop stop-color="#B8BE83" offset="100%"/></linearGradient><linearGradient x1="50%" y1="0%" x2="50%" y2="100%" id="e"><stop stop-color="#D8DF9C" offset="0%"/><stop stop-color="#F2F9B8" offset="100%"/></linearGradient><linearGradient x1="50%" y1="0%" x2="50%" y2="100%" id="f"><stop stop-color="#D6DD99" offset="0%"/><stop stop-color="#F2F9B8" offset="100%"/></linearGradient><linearGradient x1="16.682%" y1="53.933%" y2="53.933%" id="h"><stop stop-color="#D6DD99" offset="0%"/><stop stop-color="#F1F8B8" offset="100%"/></linearGradient><linearGradient x1="13.936%" y1="50%" y2="50%" id="g"><stop stop-color="#CCD397" offset="0%"/><stop stop-color="#DFE4AB" offset="100%"/></linearGradient></defs><g transform="translate(0 -1)" fill="none" fill-rule="evenodd"><g opacity=".082" transform="translate(337 106)" fill="#C8D5FF"><ellipse cx="74.065" cy="30.455" rx="45.161" ry="30.455"/><ellipse cx="36.581" cy="48.182" rx="36.581" ry="21.818"/><ellipse cx="70" cy="50.455" rx="28.452" ry="19.545"/><ellipse cx="102.516" cy="50.455" rx="28.452" ry="19.545"/><ellipse cx="139.548" cy="50.455" rx="28.452" ry="19.545"/><ellipse cx="116.065" cy="26.818" rx="28.452" ry="19.545"/></g><g transform="translate(67 7)"><mask id="d" fill="#fff"><use xlink:href="#a"/></mask><use fill="url(#b)" xlink:href="#a"/><ellipse stroke="url(#c)" fill="#E6EDA8" mask="url(#d)" transform="rotate(-18 327.051 118.914)" cx="327.051" cy="118.914" rx="13.328" ry="17.689"/></g><ellipse stroke="url(#c)" fill="#E6EDA8" transform="rotate(15 375.5 221.5)" cx="375.5" cy="221.5" rx="6.5" ry="17.5"/><ellipse stroke="url(#c)" fill="#DAE19E" transform="scale(-1 1) rotate(41 0 -93.983)" cx="144.5" cy="292.5" rx="6.5" ry="17.5"/><ellipse stroke="url(#c)" fill="url(#e)" transform="scale(-1 1) rotate(-18 0 882.425)" cx="114.5" cy="159.5" rx="13.5" ry="17.5"/><ellipse stroke="url(#c)" fill="#EFF6B5" transform="rotate(-18 322.5 274.5)" cx="322.5" cy="274.5" rx="13.5" ry="17.5"/><rect fill="#F8FFBE" transform="rotate(23 294 19)" x="275" y="11" width="38" height="16" rx="8"/><rect fill="#F8FFBE" transform="rotate(-157 169 326)" x="150" y="318" width="38" height="16" rx="8"/><rect fill="#F8FFBE" transform="rotate(-126 94 264)" x="75" y="256" width="38" height="16" rx="8"/><rect fill="#F8FFBE" transform="scale(-1 1) rotate(54 0 -425.502)" x="342" y="275" width="38" height="16" rx="8"/><rect fill="#F8FFBE" transform="rotate(-11 205 13)" x="181" y="5" width="48" height="16" rx="8"/><rect fill="#F8FFBE" transform="rotate(54 370 72)" x="351" y="64" width="38" height="16" rx="8"/><ellipse stroke="url(#c)" fill="url(#f)" transform="scale(-1 1) rotate(-19 0 665.258)" cx="92.5" cy="112.5" rx="6.5" ry="17.5"/><path d="M281.223 298h-67.154s.096-19.776 0-33.332c-45.97 9.826-58.799-25-58.799-25-8.39-16.673-16.802-24.999-16.802-24.999-16.803-9.895 0-8.326 0-8.326 16.802 0 25.193 16.673 25.193 16.673 14.743 24.834 40.97 20.836 50.387 16.673 0-8.326 3.675-20.933 8.39-25-36.683-4.094-67.216-24.999-67.216-66.671 0-41.673 8.432-49.999 16.83-58.346-1.692-4.108-8.73-19.301.256-41.672 0 0 16.505 0 33.307 25 8.322-8.258 33.591-8.327 41.996-8.327 8.377 0 33.66.069 41.982 8.326C306.395 48 322.94 48 322.94 48c8.987 22.37 1.956 37.564.257 41.672C331.588 98 340 106.345 340 148.018c0 41.672-30.491 62.564-67.189 66.672 4.73 4.066 8.39 18.407 8.39 24.999l.022 58.311z" stroke="url(#g)" stroke-width="2" fill="url(#h)" fill-rule="nonzero"/><ellipse stroke="url(#c)" fill="#E6EDA8" transform="rotate(-100 206.5 10.5)" cx="206.5" cy="10.5" rx="3.5" ry="17.5"/><ellipse stroke="url(#c)" fill="#E6EDA8" transform="rotate(-82 259.5 29.5)" cx="259.5" cy="29.5" rx="4.5" ry="17.5"/><g transform="translate(337 332)" fill="#78829B"><ellipse cx="25.706" cy="14.703" rx="15.784" ry="14.703"/><ellipse cx="13.078" cy="23.432" rx="13.078" ry="10.568"/><ellipse cx="24.353" cy="24.351" rx="9.922" ry="9.649"/><ellipse cx="36.078" cy="24.351" rx="9.922" ry="9.649"/></g><g transform="translate(361 146)" fill="#78829B"><ellipse cx="46.658" cy="18.813" rx="28.538" ry="18.813"/><ellipse cx="23.103" cy="29.563" rx="23.103" ry="13.438"/><ellipse cx="44.393" cy="30.906" rx="18.12" ry="12.094"/><ellipse cx="65.231" cy="30.906" rx="18.12" ry="12.094"/><ellipse cx="87.88" cy="30.906" rx="18.12" ry="12.094"/><ellipse cx="73.385" cy="16.573" rx="18.12" ry="12.094"/></g><g opacity=".121" transform="translate(22 253)" fill="#C5D5FF"><ellipse cx="74.065" cy="30.455" rx="45.161" ry="30.455"/><ellipse cx="36.581" cy="48.182" rx="36.581" ry="21.818"/><ellipse cx="70" cy="50.455" rx="28.452" ry="19.545"/><ellipse cx="102.516" cy="50.455" rx="28.452" ry="19.545"/><ellipse cx="139.548" cy="50.455" rx="28.452" ry="19.545"/><ellipse cx="116.065" cy="26.818" rx="28.452" ry="19.545"/></g><g transform="translate(0 299)" fill="#78829B"><ellipse cx="46.658" cy="18.813" rx="28.538" ry="18.813"/><ellipse cx="23.103" cy="29.563" rx="23.103" ry="13.438"/><ellipse cx="44.393" cy="30.906" rx="18.12" ry="12.094"/><ellipse cx="65.231" cy="30.906" rx="18.12" ry="12.094"/><ellipse cx="87.88" cy="30.906" rx="18.12" ry="12.094"/><ellipse cx="73.385" cy="16.573" rx="18.12" ry="12.094"/></g></g></svg>