<?xml version="1.0" encoding="UTF-8"?>
<svg width="505px" height="365px" viewBox="0 0 505 365" version="1.1" xmlns="http://www.w3.org/2000/svg" xmlns:xlink="http://www.w3.org/1999/xlink">
    <!-- Generator: Sketch 50.2 (55047) - http://www.bohemiancoding.com/sketch -->
    <title>Group 4</title>
    <desc>Created with Sketch.</desc>
    <defs>
        <radialGradient cx="50%" cy="40.6415787%" fx="50%" fy="40.6415787%" r="48.2450913%" gradientTransform="translate(0.500000,0.406416),scale(0.985163,1.000000),rotate(-162.998329),translate(-0.500000,-0.406416)" id="radialGradient-1">
            <stop stop-color="#FCFFE0" offset="0%"></stop>
            <stop stop-color="#F8FFBE" offset="100%"></stop>
        </radialGradient>
        <ellipse id="path-2" cx="168.5" cy="166" rx="168.5" ry="166"></ellipse>
        <linearGradient x1="100%" y1="42.956342%" x2="15.5381998%" y2="57.1473213%" id="linearGradient-4">
            <stop stop-color="#E6EEA4" offset="0%"></stop>
            <stop stop-color="#B8BE83" offset="100%"></stop>
        </linearGradient>
        <linearGradient x1="50%" y1="0%" x2="50%" y2="100%" id="linearGradient-5">
            <stop stop-color="#D8DF9C" offset="0%"></stop>
            <stop stop-color="#F2F9B8" offset="100%"></stop>
        </linearGradient>
        <linearGradient x1="50%" y1="0%" x2="50%" y2="100%" id="linearGradient-6">
            <stop stop-color="#D6DD99" offset="0%"></stop>
            <stop stop-color="#F2F9B8" offset="100%"></stop>
        </linearGradient>
        <linearGradient x1="16.6818177%" y1="53.9325172%" x2="100%" y2="53.9325178%" id="linearGradient-7">
            <stop stop-color="#D6DD99" offset="0%"></stop>
            <stop stop-color="#F1F8B8" offset="100%"></stop>
        </linearGradient>
        <linearGradient x1="13.9360219%" y1="50%" x2="100%" y2="50%" id="linearGradient-8">
            <stop stop-color="#CCD397" offset="0%"></stop>
            <stop stop-color="#DFE4AB" offset="100%"></stop>
        </linearGradient>
    </defs>
    <g id="v2_Support_Intermediate_Page" stroke="none" stroke-width="1" fill="none" fill-rule="evenodd">
        <g id="IntermediatePage_Final_Desktop" transform="translate(-865.000000, -1509.000000)">
            <g id="Group-4" transform="translate(865.000000, 1508.000000)">
                <g id="Group-Copy-31" opacity="0.0817522321" transform="translate(337.000000, 106.000000)" fill="#C8D5FF">
                    <ellipse id="Oval-2" cx="74.0645161" cy="30.4545455" rx="45.1612903" ry="30.4545455"></ellipse>
                    <ellipse id="Oval-2-Copy" cx="36.5806452" cy="48.1818182" rx="36.5806452" ry="21.8181818"></ellipse>
                    <ellipse id="Oval-2-Copy-2" cx="70" cy="50.4545455" rx="28.4516129" ry="19.5454545"></ellipse>
                    <ellipse id="Oval-2-Copy-6" cx="102.516129" cy="50.4545455" rx="28.4516129" ry="19.5454545"></ellipse>
                    <ellipse id="Oval-2-Copy-7" cx="139.548387" cy="50.4545455" rx="28.4516129" ry="19.5454545"></ellipse>
                    <ellipse id="Oval-2-Copy-3" cx="116.064516" cy="26.8181818" rx="28.4516129" ry="19.5454545"></ellipse>
                </g>
                <g id="Oval-5-Copy-4" transform="translate(67.000000, 7.000000)">
                    <mask id="mask-3" fill="white">
                        <use xlink:href="#path-2"></use>
                    </mask>
                    <use id="Mask" fill="url(#radialGradient-1)" xlink:href="#path-2"></use>
                    <ellipse stroke="url(#linearGradient-4)" fill="#E6EDA8" mask="url(#mask-3)" transform="translate(327.050998, 118.913911) rotate(-18.000000) translate(-327.050998, -118.913911) " cx="327.050998" cy="118.913911" rx="13.3277529" ry="17.6885246"></ellipse>
                </g>
                <ellipse id="Oval-5" stroke="url(#linearGradient-4)" fill="#E6EDA8" transform="translate(375.500000, 221.500000) rotate(15.000000) translate(-375.500000, -221.500000) " cx="375.5" cy="221.5" rx="6.5" ry="17.5"></ellipse>
                <ellipse id="Oval-5-Copy" stroke="url(#linearGradient-4)" fill="#DAE19E" transform="translate(144.500000, 292.500000) scale(-1, 1) rotate(41.000000) translate(-144.500000, -292.500000) " cx="144.5" cy="292.5" rx="6.5" ry="17.5"></ellipse>
                <ellipse id="Oval-5-Copy" stroke="url(#linearGradient-4)" fill="url(#linearGradient-5)" transform="translate(114.500000, 159.500000) scale(-1, 1) rotate(-18.000000) translate(-114.500000, -159.500000) " cx="114.5" cy="159.5" rx="13.5" ry="17.5"></ellipse>
                <ellipse id="Oval-5-Copy-3" stroke="url(#linearGradient-4)" fill="#EFF6B5" transform="translate(322.500000, 274.500000) rotate(-18.000000) translate(-322.500000, -274.500000) " cx="322.5" cy="274.5" rx="13.5" ry="17.5"></ellipse>
                <rect id="Rectangle" fill="#F8FFBE" transform="translate(294.000000, 19.000000) rotate(23.000000) translate(-294.000000, -19.000000) " x="275" y="11" width="38" height="16" rx="8"></rect>
                <rect id="Rectangle" fill="#F8FFBE" transform="translate(169.000000, 326.000000) scale(-1, -1) rotate(23.000000) translate(-169.000000, -326.000000) " x="150" y="318" width="38" height="16" rx="8"></rect>
                <rect id="Rectangle-Copy" fill="#F8FFBE" transform="translate(94.000000, 264.000000) scale(-1, -1) rotate(54.000000) translate(-94.000000, -264.000000) " x="75" y="256" width="38" height="16" rx="8"></rect>
                <rect id="Rectangle-Copy-3" fill="#F8FFBE" transform="translate(361.000000, 283.000000) scale(-1, 1) rotate(54.000000) translate(-361.000000, -283.000000) " x="342" y="275" width="38" height="16" rx="8"></rect>
                <rect id="Rectangle-Copy-2" fill="#F8FFBE" transform="translate(205.000000, 13.000000) rotate(-11.000000) translate(-205.000000, -13.000000) " x="181" y="5" width="48" height="16" rx="8"></rect>
                <rect id="Rectangle-Copy" fill="#F8FFBE" transform="translate(370.000000, 72.000000) rotate(54.000000) translate(-370.000000, -72.000000) " x="351" y="64" width="38" height="16" rx="8"></rect>
                <ellipse id="Oval-5-Copy-2" stroke="url(#linearGradient-4)" fill="url(#linearGradient-6)" transform="translate(92.500000, 112.500000) scale(-1, 1) rotate(-19.000000) translate(-92.500000, -112.500000) " cx="92.5" cy="112.5" rx="6.5" ry="17.5"></ellipse>
                <path d="M281.222651,298 L247.65937,298 L214.06835,298 C214.06835,298 214.165434,278.223501 214.06835,264.667584 C168.099137,274.493903 155.270197,239.668272 155.270197,239.668272 C146.879377,222.995183 138.467753,214.66896 138.467753,214.66896 C121.665309,204.77383 138.467753,206.342738 138.467753,206.342738 C155.270197,206.342738 163.661018,223.015827 163.661018,223.015827 C178.403897,247.84999 204.630411,243.852027 214.047547,239.688916 C214.047547,231.362693 217.722865,218.756379 222.438367,214.689604 C185.754533,210.595304 155.221655,189.690292 155.221655,148.017891 C155.221655,106.34549 163.654083,98.0192673 172.051838,89.672401 C170.359805,85.564339 163.321224,70.3707027 172.308417,48 C172.308417,48 188.812675,48 205.615119,72.9993119 C213.936594,64.7419009 239.206138,64.6730891 247.610828,64.6730891 C255.987779,64.6730891 281.271193,64.7419009 289.592667,72.9993119 C306.395112,48 322.940977,48 322.940977,48 C331.92817,70.3707027 324.896524,85.564339 323.197556,89.672401 C331.588376,97.9986238 340,106.34549 340,148.017891 C340,189.690292 309.50873,210.581542 272.811027,214.689604 C277.540398,218.756379 281.201847,233.096749 281.201847,239.688916 L281.222651,298 Z" id="Cat_1_-Copy-2" stroke="url(#linearGradient-8)" stroke-width="2" fill="url(#linearGradient-7)" fill-rule="nonzero"></path>
                <ellipse id="Oval-5" stroke="url(#linearGradient-4)" fill="#E6EDA8" transform="translate(206.500000, 10.500000) rotate(-100.000000) translate(-206.500000, -10.500000) " cx="206.5" cy="10.5" rx="3.5" ry="17.5"></ellipse>
                <ellipse id="Oval-5-Copy-5" stroke="url(#linearGradient-4)" fill="#E6EDA8" transform="translate(259.500000, 29.500000) rotate(-82.000000) translate(-259.500000, -29.500000) " cx="259.5" cy="29.5" rx="4.5" ry="17.5"></ellipse>
                <g id="Group-Copy-32" transform="translate(337.000000, 332.000000)" fill="#78829B">
                    <ellipse id="Oval-2" cx="25.7058824" cy="14.7027027" rx="15.7843137" ry="14.7027027"></ellipse>
                    <ellipse id="Oval-2-Copy" cx="13.0784314" cy="23.4324324" rx="13.0784314" ry="10.5675676"></ellipse>
                    <ellipse id="Oval-2-Copy-2" cx="24.3529412" cy="24.3513514" rx="9.92156863" ry="9.64864865"></ellipse>
                    <ellipse id="Oval-2-Copy-6" cx="36.0784314" cy="24.3513514" rx="9.92156863" ry="9.64864865"></ellipse>
                </g>
                <g id="Group-Copy-30" transform="translate(361.000000, 146.000000)" fill="#78829B">
                    <ellipse id="Oval-2" cx="46.6581197" cy="18.8125" rx="28.5384615" ry="18.8125"></ellipse>
                    <ellipse id="Oval-2-Copy" cx="23.1025641" cy="29.5625" rx="23.1025641" ry="13.4375"></ellipse>
                    <ellipse id="Oval-2-Copy-2" cx="44.3931624" cy="30.90625" rx="18.1196581" ry="12.09375"></ellipse>
                    <ellipse id="Oval-2-Copy-6" cx="65.2307692" cy="30.90625" rx="18.1196581" ry="12.09375"></ellipse>
                    <ellipse id="Oval-2-Copy-7" cx="87.8803419" cy="30.90625" rx="18.1196581" ry="12.09375"></ellipse>
                    <ellipse id="Oval-2-Copy-3" cx="73.3846154" cy="16.5729167" rx="18.1196581" ry="12.09375"></ellipse>
                </g>
                <g id="Group-Copy-28" opacity="0.120982143" transform="translate(22.000000, 253.000000)" fill="#C5D5FF">
                    <ellipse id="Oval-2" cx="74.0645161" cy="30.4545455" rx="45.1612903" ry="30.4545455"></ellipse>
                    <ellipse id="Oval-2-Copy" cx="36.5806452" cy="48.1818182" rx="36.5806452" ry="21.8181818"></ellipse>
                    <ellipse id="Oval-2-Copy-2" cx="70" cy="50.4545455" rx="28.4516129" ry="19.5454545"></ellipse>
                    <ellipse id="Oval-2-Copy-6" cx="102.516129" cy="50.4545455" rx="28.4516129" ry="19.5454545"></ellipse>
                    <ellipse id="Oval-2-Copy-7" cx="139.548387" cy="50.4545455" rx="28.4516129" ry="19.5454545"></ellipse>
                    <ellipse id="Oval-2-Copy-3" cx="116.064516" cy="26.8181818" rx="28.4516129" ry="19.5454545"></ellipse>
                </g>
                <g id="Group-Copy-29" transform="translate(0.000000, 299.000000)" fill="#78829B">
                    <ellipse id="Oval-2" cx="46.6581197" cy="18.8125" rx="28.5384615" ry="18.8125"></ellipse>
                    <ellipse id="Oval-2-Copy" cx="23.1025641" cy="29.5625" rx="23.1025641" ry="13.4375"></ellipse>
                    <ellipse id="Oval-2-Copy-2" cx="44.3931624" cy="30.90625" rx="18.1196581" ry="12.09375"></ellipse>
                    <ellipse id="Oval-2-Copy-6" cx="65.2307692" cy="30.90625" rx="18.1196581" ry="12.09375"></ellipse>
                    <ellipse id="Oval-2-Copy-7" cx="87.8803419" cy="30.90625" rx="18.1196581" ry="12.09375"></ellipse>
                    <ellipse id="Oval-2-Copy-3" cx="73.3846154" cy="16.5729167" rx="18.1196581" ry="12.09375"></ellipse>
                </g>
            </g>
        </g>
    </g>
</svg>