<?xml version="1.0" encoding="UTF-8"?>
<svg width="12px" height="12px" viewBox="0 0 12 12" version="1.1" xmlns="http://www.w3.org/2000/svg" xmlns:xlink="http://www.w3.org/1999/xlink">
    <!-- Generator: Sketch 52.5 (67469) - http://www.bohemiancoding.com/sketch -->
    <title>Fill 1</title>
    <desc>Created with Sketch.</desc>
    <g id="V2_Navigation" stroke="none" stroke-width="1" fill="none" fill-rule="evenodd">
        <g id="Tablet-HamburgerExpand-Copy" transform="translate(-729.000000, -16.000000)" fill="#2C2E50">
            <path d="M730.271638,16.0077951 C730.460549,15.9765988 730.632996,16.0389914 730.789844,16.1958395 L735.007411,20.413407 L739.201582,16.2201033 C739.374028,16.0467905 739.550807,15.9809316 739.731919,16.019927 C739.912164,16.0589224 740.128805,16.2045051 740.379242,16.4558087 L740.544756,16.6204559 C740.79606,16.8717595 740.941642,17.087534 740.980638,17.2686459 C741.019633,17.4488912 740.952908,17.6256703 740.780462,17.7981165 L736.586291,21.9922869 L740.803859,26.2098544 C740.960707,26.3675691 741.023966,26.5400154 740.991903,26.7280598 C740.960707,26.9169707 740.819457,27.137078 740.568153,27.3883816 L740.403506,27.5530288 C740.151336,27.8043324 739.931229,27.9455824 739.743184,27.9767787 C739.55514,28.0088415 739.382694,27.9455824 739.224979,27.7887342 L735.007411,23.5711667 L730.789844,27.7887342 C730.616531,27.9620471 730.45275,28.0400378 730.295036,28.0244397 C730.138188,28.0088415 729.941478,27.8831897 729.705772,27.6474843 L729.541125,27.4819706 C729.007321,26.9481671 728.897268,26.5244172 729.210964,26.2098544 L733.428532,21.9922869 L729.210964,17.7747193 C729.038518,17.602273 728.971792,17.425494 729.010788,17.2443821 C729.049783,17.0641367 729.195366,16.8483623 729.446669,16.5970587 L729.612183,16.4315449 C729.86262,16.1811079 730.082727,16.0398579 730.271638,16.0077951" id="Fill-1"></path>
        </g>
    </g>
</svg>