<svg xmlns="http://www.w3.org/2000/svg" viewBox="0 0 295.86 57.21"><defs><style>.cls-1{fill:#fff;}</style></defs><title>Asset 1</title><g id="Layer_2" data-name="Layer 2"><g id="Layer_1-2" data-name="Layer 1"><path class="cls-1" d="M0,12.33C0,4.23,3.68,1.05,12.32,1.05h.6c8.64,0,12,3.24,12,11.28V33.07c0,8.1-3.68,11.28-12.32,11.28H12c-8.64,0-12-3.18-12-11.28ZM12.5,38.61c4.74,0,5.66-1.92,5.66-5.82V12.27c0-3.9-.56-5.82-5.3-5.82h-.54c-4.74,0-5.6,1.92-5.6,5.82V32.79c0,3.9.56,5.82,5.3,5.82Z"/><path class="cls-1" d="M31.42,22.41c0-7.92,5-9.66,11.46-9.66h.6c6.36,0,11.1,2,11.1,9.84V34.41c0,8.1-5.22,9.9-10.2,9.9h-.22c-2.16,0-4.92-.42-6.3-1.56,0,0,.18,2.16.18,4.2v9c0,1-.42,1.2-1.38,1.14l-4.14-.42c-.84-.06-1.14-.48-1.14-1.32ZM43.16,38.79c3.12,0,4.86-1.26,4.86-4.74V22.59c0-3.42-1.44-4.68-4.56-4.68h-.54c-3.12,0-4.8,1.08-4.8,4.5V34.17c0,3.42,1.44,4.62,4.56,4.62Z"/><path class="cls-1" d="M60.64,22.77c0-7,3.84-10,11.64-10h.66c7.14,0,10.5,3,10.5,8.76v.9c0,6.06-2.82,8-9.48,8a31,31,0,0,1-6.78-.84v4c0,4,1.38,5.22,6.06,5.22a26.78,26.78,0,0,0,7.86-1.08c.84-.24,1.26.24,1.2,1L82,41.55c-.12.9-.54,1.2-1.38,1.56a29.92,29.92,0,0,1-8.1,1H72.1c-6.72,0-11.46-2-11.46-9.9ZM67.18,25a28.86,28.86,0,0,0,6,.72c3.12,0,4-1.2,4-3.42v-.66c0-2.58-1-3.9-4.56-3.9h-.36c-3.66,0-5,1.26-5,4.62Z"/><path class="cls-1" d="M89,16.41a1.61,1.61,0,0,1,1.2-1.68,28.83,28.83,0,0,1,10.44-1.8c6.54,0,10.86,2,10.86,10v19.5c0,.9-.3,1.2-1.2,1.2H106c-.9,0-1.2-.3-1.2-1.2V23c0-3.48-1-4.86-4.62-4.86a13,13,0,0,0-4.5.66V42.39c0,.9-.36,1.2-1.2,1.2H90.16c-.9,0-1.2-.3-1.2-1.2Z"/><path class="cls-1" d="M128.06,1.77c0-.9.3-1.26,1.14-1.38L133.52,0c.9-.12,1.2.18,1.2,1.08V34.89c0,4.18,5.54,2.54,7.94,2.54.48,0,1.44-.12,1.8-.12.72,0,1,.18,1,1.14l-.36,4c-.06.9-.36,1.14-1.2,1.32-.48.06-6.5.18-7.82.18-4.68,0-8-1.32-8-8.76Z"/><path class="cls-1" d="M149.92,3c0-.9.3-1.2,1.2-1.2H156c.9,0,1.2.3,1.2,1.2V6.75c0,.9-.36,1.2-1.2,1.2h-4.88c-.9,0-1.2-.3-1.2-1.2Zm.3,12c0-.9.36-1.2,1.14-1.32l4.32-.36c.9-.12,1.26.24,1.26,1.14v28c0,.9-.36,1.2-1.2,1.2h-4.32c-.9,0-1.2-.3-1.2-1.2Z"/><path class="cls-1" d="M163.78,1.77c0-1,.3-1.26,1.14-1.38l4.24-.32c.9,0,1.26.18,1.26,1.08v9.12c0,2-.18,4.2-.18,4.2a11,11,0,0,1,6.42-1.68h.18c5.1,0,10.08,1.8,10.08,9.9V34.47c0,7.86-5.1,9.84-11.46,9.84h-.54c-6.66,0-11.16-1.68-11.16-9.12Zm11.7,37c3.12,0,4.8-1.26,4.8-4.68V22.53c0-3.42-1.44-4.62-4.5-4.62h-.36c-3.3,0-5,1.2-5,4.62V34.29c0,3.48,1.38,4.5,4.5,4.5Z"/><path class="cls-1" d="M192.94,22.77c0-7,3.84-10,11.64-10h.66c7.13,0,10.49,3,10.49,8.76v.9c0,6.06-2.82,8-9.48,8a30.9,30.9,0,0,1-6.77-.84v4c0,4,1.38,5.22,6.06,5.22a26.72,26.72,0,0,0,7.85-1.08c.85-.24,1.27.24,1.2,1l-.3,2.82c-.12.9-.54,1.2-1.38,1.56a29.85,29.85,0,0,1-8.09,1h-.42c-6.72,0-11.46-2-11.46-9.9ZM199.48,25a28.86,28.86,0,0,0,6,.72c3.11,0,4-1.2,4-3.42v-.66c0-2.58-1-3.9-4.57-3.9h-.35c-3.66,0-5,1.26-5,4.62Z"/><path class="cls-1" d="M255.43,38.19c-.84.06-1.86.24-3.18.24-3.12,0-3.78-.42-3.78-3.36V18.33H255c1,0,1.2-.18,1.14-1.14l-.3-2.58c-.06-1-.36-1.14-1.26-1.14h-6.06V6.15c0-1-.36-1.2-1.2-1.14L243,5.43c-.89.06-1.14.42-1.14,1.26V35.07c0,7.38,3.3,8.88,9.3,8.88a14.55,14.55,0,0,0,3.72-.36c.9-.12,1.14-.66,1.2-1.44l.36-2.94C256.51,38.43,256.09,38.19,255.43,38.19Z"/><path class="cls-1" d="M268.45,52.71c-.06-1,.18-1.26,1-1.14.48.06,2.82.24,3.36.24,2.34,0,5-.18,5-4.14V41.85c-1.32,1.38-4,1.74-5.88,1.74h-.12c-5.64,0-10.08-2-10.08-9.84V15c0-.9.3-1.2,1.14-1.32l4.32-.36c.9,0,1.26.24,1.26,1.14v19c0,3.36,1.08,4.68,4.38,4.68H273c3.18,0,4.56-1.26,4.56-4.38V14.43c0-.9.36-1.14,1.26-1.14l4.26.36c.84.12,1.14.42,1.14,1.32v32.4c0,8.28-5,9.84-10.62,9.84a24.38,24.38,0,0,1-4-.36c-.54-.18-.84-.42-.9-1.26Z"/><path class="cls-1" d="M221.08,22.17c0-7.56,3.59-9.24,9.65-9.24a20,20,0,0,1,4.5.42,1.41,1.41,0,0,1,1.2,1.38l.24,3.48c.06.78-.3,1.14-1.08,1a22.37,22.37,0,0,0-4-.36c-2,0-3.84.24-3.84,3.66V42.43c0,.9-.36,1.2-1.2,1.2h-4.31c-.91,0-1.2-.3-1.2-1.2Z"/><path class="cls-1" d="M288.1,5.76V1.84h-1.19a.17.17,0,0,1-.14-.07.5.5,0,0,1,0-.23V1.35a.46.46,0,0,1,0-.23.13.13,0,0,1,.14-.07h3.3a.13.13,0,0,1,.14.07.45.45,0,0,1,0,.23v.19a.45.45,0,0,1,0,.23.17.17,0,0,1-.14.07H289V5.76c0,.14-.12.21-.37.21h-.18C288.22,6,288.1,5.9,288.1,5.76Z"/><path class="cls-1" d="M293.08,4.6l-1-1.76a2.09,2.09,0,0,1-.16-.29h0v3.2c0,.14-.13.21-.37.21h-.16c-.25,0-.37-.07-.37-.21V1.23c0-.13.12-.2.37-.2h.33a.39.39,0,0,1,.39.17l1.22,2.15a1.23,1.23,0,0,1,.11.23,1.33,1.33,0,0,1,.11-.24l1.23-2.14a.39.39,0,0,1,.38-.13h.33c.24,0,.37.07.37.2V5.79c0,.14-.13.21-.37.21h-.16c-.24,0-.37-.07-.37-.21V3a2.16,2.16,0,0,1,0-.36h0a2,2,0,0,1-.16.28l-1,1.75a.32.32,0,0,1-.24.11h-.22A.29.29,0,0,1,293.08,4.6Z"/></g></g></svg>