<?xml version="1.0" encoding="UTF-8"?>
<svg width="20px" height="15px" viewBox="0 0 20 15" version="1.1" xmlns="http://www.w3.org/2000/svg" xmlns:xlink="http://www.w3.org/1999/xlink">
    <!-- Generator: Sketch 53.2 (72643) - https://sketchapp.com -->
    <title>Fill 1</title>
    <desc>Created with Sketch.</desc>
    <g id="STYLE-GUIDE" stroke="none" stroke-width="1" fill="none" fill-rule="evenodd">
        <g id="Buttons-and-Icons" transform="translate(-342.000000, -398.000000)" fill="#5E6B8D">
            <path d="M351.849471,415 L352.891509,414.00202 L358.414434,408.899446 C359.150985,408.206061 359.199283,407.03102 358.521898,406.275725 C357.846928,405.519192 356.698633,405.469664 355.963289,406.16305 L355.921028,406.20391 L355.900501,406.223721 L353.660662,408.220919 L353.660662,397.857283 C353.660662,396.832063 352.849248,396 351.849471,396 C350.848486,396 350.03828,396.832063 350.03828,397.857283 L350.03828,408.135484 L348.053215,406.189052 C348.052008,406.187814 348.049593,406.187814 348.048385,406.186575 L347.97473,406.113522 L347.960241,406.128381 C347.235764,405.503095 346.159917,405.535288 345.493399,406.248485 C344.830503,406.957967 344.844992,408.055002 345.480117,408.770674 L345.463212,408.789247" id="Fill-1" transform="translate(352.000000, 405.500000) rotate(90.000000) translate(-352.000000, -405.500000) "></path>
        </g>
    </g>
</svg>