<svg width="30" height="25" viewBox="0 0 30 25" xmlns="http://www.w3.org/2000/svg"><title>redditShare</title><path d="M2.7 14.943c-.074.33-.11.668-.11 1.01 0 4.108 5.387 7.452 12.01 7.452 6.621 0 12.009-3.343 12.009-7.451 0-.327-.037-.65-.1-.965l-.02-.039a.565.565 0 0 1-.036-.196c-.366-1.4-1.365-2.674-2.81-3.7a.498.498 0 0 1-.153-.084c-.031-.024-.055-.05-.08-.077C21.213 9.42 18.076 8.5 14.6 8.5c-3.445 0-6.553.904-8.745 2.348a.485.485 0 0 1-.22.148c-1.475 1.029-2.5 2.31-2.88 3.725a.538.538 0 0 1-.046.204l-.01.018zm11.96 6.49c-2.195 0-3.741-.463-4.727-1.428a.525.525 0 0 1 0-.753.586.586 0 0 1 .777 0c.77.75 2.061 1.125 3.949 1.125 1.887 0 3.17-.357 3.94-1.107.201-.197.55-.197.77 0a.563.563 0 0 1 0 .768c-.99.964-2.53 1.428-4.729 1.428l.02-.032zm-4.412-9.031c-1.118 0-2.053.91-2.053 2 0 1.086.935 1.968 2.053 1.968 1.118 0 2.021-.883 2.021-1.968 0-1.09-.905-2-2.021-2zm8.851 0c-1.118 0-2.052.91-2.052 2 0 1.086.934 1.968 2.052 1.968 1.118 0 2.021-.883 2.021-1.968 0-1.09-.905-2-2.02-2zm5.568-1.902c1.27.993 2.202 2.171 2.679 3.464.55-.402.88-1.032.88-1.728 0-1.197-1-2.168-2.225-2.168-.49 0-.953.155-1.334.434V10.5zM3.32 10.071c-1.228 0-2.225.974-2.225 2.168 0 .648.293 1.25.788 1.656.491-1.286 1.433-2.447 2.708-3.429a2.275 2.275 0 0 0-1.271-.393v-.002zM14.6 24.477c-7.229 0-13.107-3.822-13.107-8.518 0-.327.029-.648.084-.964a3.23 3.23 0 0 1-1.576-2.76C.002 10.45 1.505 9 3.337 9c.825 0 1.594.293 2.2.813 2.272-1.422 5.332-2.317 8.704-2.376L16.458.848l.495.113s.019 0 .019.003l5.167 1.184A2.756 2.756 0 0 1 24.67.527c1.502 0 2.73 1.196 2.73 2.664 0 1.47-1.228 2.664-2.73 2.664-1.503 0-2.731-1.196-2.731-2.66l-4.712-1.088-1.796 5.34c3.244.124 6.176 1.017 8.375 2.41A3.306 3.306 0 0 1 26.05 9c1.833 0 3.324 1.446 3.324 3.232 0 1.179-.66 2.25-1.686 2.822.037.303.074.589.074.892-.019 4.697-5.883 8.518-13.122 8.518l-.04.013zM24.61 1.595c-.905 0-1.64.714-1.64 1.596 0 .88.733 1.596 1.639 1.596.898 0 1.63-.714 1.63-1.589s-.732-1.59-1.649-1.59l.02-.013z" fill="#F4914D" fill-rule="evenodd"/></svg>