<?xml version="1.0" encoding="UTF-8"?>
<svg width="14px" height="9px" viewBox="0 0 14 9" version="1.1" xmlns="http://www.w3.org/2000/svg" xmlns:xlink="http://www.w3.org/1999/xlink">
    <!-- Generator: Sketch 52.5 (67469) - http://www.bohemiancoding.com/sketch -->
    <title>Group 6 Copy</title>
    <desc>Created with Sketch.</desc>
    <g id="V2_Navigation" stroke="none" stroke-width="1" fill="none" fill-rule="evenodd">
        <g id="Docs_Mobile-Closed-up" transform="translate(-177.000000, -192.000000)" fill="#FAFFC7">
            <g id="Group-6-Copy" transform="translate(184.000000, 177.000000) rotate(180.000000) translate(-184.000000, -177.000000) translate(165.000000, 139.000000)">
                <g transform="translate(19.000000, 17.000000) rotate(180.000000) translate(-19.000000, -17.000000) translate(0.000000, 0.000000)" id="Combined-Shape">
                    <path d="M18.9852814,19.35529 C18.7854392,19.3811333 18.5896294,19.2981647 18.397847,19.1063824 L13.0521198,13.7606551 C12.863557,13.5720923 12.7881331,13.3646764 12.8258456,13.1384011 C12.8635582,12.9121258 13.0332621,12.6481419 13.3349625,12.3464415 L13.6178052,12.0635988 C13.9195056,11.7618984 14.1834895,11.5921945 14.4097648,11.5544819 C14.6360401,11.5167694 14.843456,11.5921934 15.0320188,11.7807561 L18.9852814,15.7340187 L22.938544,11.7807561 C23.1271067,11.5921934 23.3345226,11.5167694 23.5607979,11.5544819 C23.7870733,11.5921945 24.0510571,11.7618984 24.3527575,12.0635988 L24.6356003,12.3464415 C24.9373007,12.6481419 25.1070046,12.9121258 25.1447171,13.1384011 C25.1824297,13.3646764 25.1070057,13.5720923 24.918443,13.7606551 L19.5727157,19.1063824 C19.3809333,19.2981647 19.1851236,19.3811333 18.9852814,19.35529 Z"></path>
                </g>
            </g>
        </g>
    </g>
</svg>