<?xml version="1.0" encoding="UTF-8"?>
<svg width="6px" height="10px" viewBox="0 0 6 10" version="1.1" xmlns="http://www.w3.org/2000/svg" xmlns:xlink="http://www.w3.org/1999/xlink">
    <!-- Generator: Sketch 50.2 (55047) - http://www.bohemiancoding.com/sketch -->
    <title>Fill 1</title>
    <desc>Created with Sketch.</desc>
    <defs></defs>
    <g id="FINAL-FEATURES" stroke="none" stroke-width="1" fill="none" fill-rule="evenodd">
        <g id="Item-chosen-from-A-Z-in-Table-of-Contents" transform="translate(-385.000000, -172.000000)" fill="#F4914D">
            <path d="M390.562942,176.739369 L386.715191,172.891618 C386.579159,172.756306 386.430172,172.701605 386.26679,172.729675 C386.104128,172.755586 385.914116,172.877943 385.696753,173.095305 L385.493785,173.298993 C385.276423,173.515636 385.153346,173.705648 385.126716,173.86903 C385.100085,174.030973 385.153346,174.180679 385.290098,174.316711 L388.108615,177.135228 L385.269225,179.975338 C385.132474,180.11137 385.079213,180.260357 385.105843,180.423019 C385.132474,180.586401 385.25555,180.776413 385.472913,180.993776 L385.67588,181.196744 C385.893243,181.414107 386.083256,181.536463 386.245918,181.563094 C386.4093,181.590444 386.558287,181.536463 386.694318,181.400431 L390.458579,177.621056 C390.602528,177.462712 390.70905,177.320203 390.735681,177.197846 C390.769509,177.040942 390.711929,176.889076 390.562942,176.739369" id="Fill-1"></path>
        </g>
    </g>
</svg>