<?xml version="1.0" encoding="UTF-8"?>
<svg width="14px" height="14px" viewBox="0 0 14 14" version="1.1" xmlns="http://www.w3.org/2000/svg" xmlns:xlink="http://www.w3.org/1999/xlink">
    <!-- Generator: Sketch 49.2 (51160) - http://www.bohemiancoding.com/sketch -->
    <title>Fill 1</title>
    <desc>Created with Sketch.</desc>
    <defs></defs>
    <g id="Page-1" stroke="none" stroke-width="1" fill="none" fill-rule="evenodd">
        <g id="2-panel-TOC" transform="translate(-32.000000, -74.000000)" fill="#96BC32">
            <path d="M33.4671,74.0091 C33.6851,73.9731 33.8841,74.0451 34.0661,74.2261 L38.9321,79.0931 L43.7721,74.2541 C43.9711,74.0541 44.1751,73.9771 44.3841,74.0221 C44.5921,74.0681 44.8421,74.2361 45.1321,74.5261 L45.3221,74.7161 C45.6121,75.0061 45.7801,75.2551 45.8251,75.4641 C45.8701,75.6721 45.7931,75.8761 45.5941,76.0751 L40.7541,80.9151 L45.6211,85.7821 C45.8021,85.9641 45.8751,86.1631 45.8391,86.3801 C45.8021,86.5981 45.6391,86.8521 45.3491,87.1411 L45.1591,87.3321 C44.8691,87.6221 44.6141,87.7851 44.3981,87.8211 C44.1801,87.8581 43.9811,87.7851 43.8001,87.6041 L38.9321,82.7371 L34.0651,87.6041 C33.8661,87.8031 33.6761,87.8941 33.4941,87.8761 C33.3131,87.8581 33.0871,87.7131 32.8151,87.4411 L32.6241,87.2501 C32.0091,86.6341 31.8811,86.1451 32.2441,85.7821 L37.1111,80.9151 L32.2441,76.0481 C32.0451,75.8491 31.9671,75.6451 32.0121,75.4361 C32.0571,75.2281 32.2251,74.9791 32.5151,74.6891 L32.7061,74.4981 C32.9961,74.2081 33.2501,74.0451 33.4671,74.0091" id="Fill-1"></path>
        </g>
    </g>
</svg>