<svg width="14" height="14" xmlns="http://www.w3.org/2000/svg"><path d="M1.467.01c.218-.037.417.035.6.216l4.865 4.867 4.84-4.839c.2-.2.403-.277.612-.232.208.046.458.214.748.504l.19.19c.29.29.458.54.503.748.045.208-.032.412-.23.611l-4.84 4.84 4.866 4.867c.181.182.254.381.218.598-.037.218-.2.472-.49.761l-.19.191c-.29.29-.545.453-.76.49-.219.036-.418-.037-.599-.218L6.932 8.737l-4.867 4.867c-.199.2-.389.29-.57.272-.182-.018-.408-.163-.68-.435l-.19-.19c-.616-.617-.744-1.106-.38-1.469L5.11 6.915.244 2.048c-.199-.199-.277-.403-.232-.612C.057 1.228.225.98.515.69L.706.5c.29-.29.544-.454.761-.49" fill="#24243B" fill-rule="evenodd"/></svg>