<?xml version="1.0" encoding="UTF-8"?>
<svg width="27px" height="23px" viewBox="0 0 27 23" version="1.1" xmlns="http://www.w3.org/2000/svg" xmlns:xlink="http://www.w3.org/1999/xlink">
    <!-- Generator: Sketch 44.1 (41455) - http://www.bohemiancoding.com/sketch -->
    <title>Twitter_Logo_Blue</title>
    <desc>Created with Sketch.</desc>
    <defs></defs>
    <g id="Page-1" stroke="none" stroke-width="1" fill="none" fill-rule="evenodd">
        <g id="Blog-Main-v3-Copy" transform="translate(-394.000000, -1774.000000)">
            <g id="Twitter_Logo_Blue" transform="translate(386.000000, 1764.000000)">
                <rect id="Rectangle-path" x="0" y="0" width="43" height="43"></rect>
                <path d="M16.51415,32.420925 C26.6557,32.420925 32.2027,24.018725 32.2027,16.732375 C32.2027,16.493725 32.2027,16.25615 32.186575,16.01965 C33.2656937,15.2391042 34.1972071,14.2726453 34.9375,13.165525 C33.93117,13.6114369 32.8636415,13.9038658 31.77055,14.03305 C32.9215998,13.3439557 33.7830828,12.2601299 34.194675,10.983275 C33.1123193,11.6255395 31.9281946,12.0781754 30.6934,12.32165 C28.984239,10.5042488 26.2683983,10.0594335 24.0687655,11.2366309 C21.8691326,12.4138283 20.7327456,14.9202752 21.296825,17.3505 C16.8634129,17.1282433 12.7328115,15.0342225 9.933,11.589575 C8.46951946,14.1089931 9.21703698,17.3320739 11.6401,18.9501 C10.7626218,18.9240931 9.90427532,18.6873842 9.1375,18.25995 C9.1375,18.282525 9.1375,18.306175 9.1375,18.329825 C9.13821824,20.9545374 10.9883828,23.2152003 13.561125,23.734925 C12.7493598,23.9563106 11.8976491,23.9886726 11.071425,23.829525 C11.793769,26.0756545 13.8638177,27.6143677 16.222825,27.658675 C14.2703402,29.1931643 11.858389,30.0261773 9.375075,30.023675 C8.93637134,30.0228328 8.49809437,29.9962705 8.0625,29.944125 C10.5840586,31.5622973 13.5180319,32.4206207 16.51415,32.416625" id="Shape" fill="#E3700D" fill-rule="nonzero"></path>
            </g>
        </g>
    </g>
</svg>