<?xml version="1.0" encoding="UTF-8"?>
<svg width="140px" height="110px" viewBox="0 0 140 110" version="1.1" xmlns="http://www.w3.org/2000/svg" xmlns:xlink="http://www.w3.org/1999/xlink">
    <!-- Generator: Sketch 50.2 (55047) - http://www.bohemiancoding.com/sketch -->
    <title>Combined Shape Copy 8</title>
    <desc>Created with Sketch.</desc>
    <defs></defs>
    <g id="v2_Support_Intermediate_Page" stroke="none" stroke-width="1" fill="none" fill-rule="evenodd">
        <g id="IntermediatePage_Final_Desktop" transform="translate(-328.000000, -1110.000000)" fill="#FFFFFF" fill-rule="nonzero">
            <path d="M415.700857,1111.3 C403.058576,1115.67044 395.0677,1126.93246 395.974127,1139.25879 L396.27627,1144.0142 L391.219357,1143.43299 C372.812514,1141.1987 356.727398,1133.62778 343.067373,1120.90894 L336.388432,1114.59859 L334.678941,1119.25587 C331.037328,1129.64229 333.367006,1140.61748 340.952375,1147.99969 C344.999495,1152.07576 344.085116,1152.65697 337.111984,1150.23398 C334.686892,1149.45651 332.555992,1148.87529 332.357214,1149.16967 C331.649564,1149.84902 334.074656,1158.68049 335.998827,1162.18289 C338.630648,1167.04398 343.989703,1171.79184 349.85763,1174.61489 L354.819129,1176.84918 L348.943251,1176.93221 C343.282053,1176.93221 343.075324,1177.03034 343.68756,1179.07592 C345.707145,1185.38627 353.698021,1192.08914 362.603276,1195.00277 L368.876709,1197.04081 L363.41429,1200.15069 C355.320049,1204.62682 345.810509,1207.14794 336.30097,1207.3291 C331.744978,1207.42723 328,1207.81219 328,1208.10657 C328,1209.07275 340.34809,1214.5075 347.52,1216.65121 C369.067536,1222.96157 394.662193,1220.23664 413.88005,1209.46526 C427.540075,1201.79622 441.192148,1186.54871 447.568947,1171.78429 C451.011782,1163.92654 454.446666,1149.55463 454.446666,1142.66306 C454.446666,1138.19449 454.748809,1137.61327 460.410006,1132.27664 C463.749477,1129.16675 466.882218,1125.77003 467.494454,1124.80385 C468.512198,1122.95453 468.400882,1122.95453 463.248556,1124.6076 C454.653395,1127.52123 453.436874,1127.13627 457.690723,1122.76582 C460.823464,1119.65593 464.568442,1114.02492 464.568442,1112.3794 C464.568442,1112.09256 463.049778,1112.57565 461.332336,1113.4437 C459.51153,1114.41743 455.464409,1115.87425 452.427081,1116.7423 L446.964662,1118.39537 L442.011114,1115.17981 C439.275928,1113.43616 435.443489,1111.4887 433.415953,1110.90749 C428.247725,1109.5488 420.360213,1109.74505 415.700857,1111.3 Z" id="Combined-Shape-Copy-8"></path>
        </g>
    </g>
</svg>