<svg width="140" height="110" xmlns="http://www.w3.org/2000/svg"><path d="M87.7 1.3C75.06 5.67 67.069 16.932 67.975 29.259l.302 4.755-5.057-.581c-18.406-2.234-34.492-9.805-48.152-22.524l-6.679-6.31-1.71 4.657C3.039 19.642 5.368 30.617 12.953 38c4.047 4.076 3.133 4.657-3.84 2.234-2.425-.777-4.556-1.359-4.755-1.064-.707.679 1.718 9.51 3.642 13.013 2.632 4.861 7.99 9.609 13.859 12.432l4.961 2.234-5.876.083c-5.66 0-5.868.098-5.255 2.144 2.02 6.31 10.01 13.013 18.915 15.927l6.274 2.038-5.463 3.11c-8.094 4.476-17.603 6.997-27.113 7.178-4.556.098-8.301.483-8.301.778 0 .966 12.348 6.4 19.52 8.544 21.548 6.31 47.142 3.586 66.36-7.186 13.66-7.669 27.312-22.916 33.689-37.68 3.443-7.858 6.878-22.23 6.878-29.122 0-4.469.302-5.05 5.963-10.386 3.34-3.11 6.472-6.507 7.084-7.473 1.018-1.85.907-1.85-4.245-.196-8.596 2.913-9.812 2.528-5.558-1.842 3.132-3.11 6.877-8.741 6.877-10.387 0-.286-1.518.197-3.236 1.065-1.82.973-5.868 2.43-8.905 3.298l-5.462 1.653-4.954-3.215c-2.735-1.744-6.568-3.691-8.595-4.273C100.248-.45 92.36-.255 87.701 1.3z" fill="#FFF"/></svg>