<?xml version="1.0" encoding="UTF-8"?>
<svg width="24px" height="21px" viewBox="0 0 24 21" version="1.1" xmlns="http://www.w3.org/2000/svg" xmlns:xlink="http://www.w3.org/1999/xlink">
    <!-- Generator: Sketch 53 (72520) - https://sketchapp.com -->
    <title>Artboard</title>
    <desc>Created with Sketch.</desc>
    <g id="Artboard" stroke="none" stroke-width="1" fill="none" fill-rule="evenodd">
        <g id="warning" fill="#FF0000">
            <path d="M12,0 L0,21 L24,21 L12,0 Z M12,3 L21,19 L3,19 L12,3 Z" id="Shape"></path>
            <polygon id="Path" points="11.2 8.4 11.2 10 11.6 14 12.4 14 12.8 10 12.8 8.4"></polygon>
            <path d="M11.2,16 C11.2,15.7141875 11.3524791,15.4500859 11.6,15.3071796 C11.8475209,15.1642734 12.1524791,15.1642734 12.4,15.3071796 C12.6475209,15.4500859 12.8,15.7141875 12.8,16 C12.8,16.2858125 12.6475209,16.5499141 12.4,16.6928204 C12.1524791,16.8357266 11.8475209,16.8357266 11.6,16.6928204 C11.3524791,16.5499141 11.2,16.2858125 11.2,16" id="Path"></path>
        </g>
    </g>
</svg>